G04 #@! TF.GenerationSoftware,KiCad,Pcbnew,9.0.0*
G04 #@! TF.CreationDate,2025-04-24T15:57:18+07:00*
G04 #@! TF.ProjectId,Bo_Tom_V3,426f5f54-6f6d-45f5-9633-2e6b69636164,rev?*
G04 #@! TF.SameCoordinates,Original*
G04 #@! TF.FileFunction,Legend,Bot*
G04 #@! TF.FilePolarity,Positive*
%FSLAX46Y46*%
G04 Gerber Fmt 4.6, Leading zero omitted, Abs format (unit mm)*
G04 Created by KiCad (PCBNEW 9.0.0) date 2025-04-24 15:57:18*
%MOMM*%
%LPD*%
G01*
G04 APERTURE LIST*
G04 Aperture macros list*
%AMRoundRect*
0 Rectangle with rounded corners*
0 $1 Rounding radius*
0 $2 $3 $4 $5 $6 $7 $8 $9 X,Y pos of 4 corners*
0 Add a 4 corners polygon primitive as box body*
4,1,4,$2,$3,$4,$5,$6,$7,$8,$9,$2,$3,0*
0 Add four circle primitives for the rounded corners*
1,1,$1+$1,$2,$3*
1,1,$1+$1,$4,$5*
1,1,$1+$1,$6,$7*
1,1,$1+$1,$8,$9*
0 Add four rect primitives between the rounded corners*
20,1,$1+$1,$2,$3,$4,$5,0*
20,1,$1+$1,$4,$5,$6,$7,0*
20,1,$1+$1,$6,$7,$8,$9,0*
20,1,$1+$1,$8,$9,$2,$3,0*%
G04 Aperture macros list end*
%ADD10C,0.300000*%
%ADD11C,0.100000*%
%ADD12C,0.120000*%
%ADD13C,0.200000*%
%ADD14C,2.400000*%
%ADD15C,3.000000*%
%ADD16R,1.700000X1.700000*%
%ADD17O,1.700000X1.700000*%
%ADD18RoundRect,0.250001X-0.949999X-0.949999X0.949999X-0.949999X0.949999X0.949999X-0.949999X0.949999X0*%
%ADD19C,1.700000*%
%ADD20C,1.600000*%
%ADD21RoundRect,0.250001X-0.949999X0.949999X-0.949999X-0.949999X0.949999X-0.949999X0.949999X0.949999X0*%
%ADD22R,1.600000X1.600000*%
%ADD23O,1.600000X1.600000*%
%ADD24C,2.500000*%
%ADD25R,1.905000X2.000000*%
%ADD26O,1.905000X2.000000*%
%ADD27R,3.200000X3.200000*%
%ADD28O,3.200000X3.200000*%
%ADD29R,2.800000X2.800000*%
%ADD30C,2.800000*%
%ADD31R,1.500000X1.500000*%
%ADD32C,1.500000*%
%ADD33RoundRect,0.300000X-2.200000X-2.200000X2.200000X-2.200000X2.200000X2.200000X-2.200000X2.200000X0*%
%ADD34RoundRect,0.300000X-2.200000X2.200000X-2.200000X-2.200000X2.200000X-2.200000X2.200000X2.200000X0*%
%ADD35R,2.300000X2.300000*%
%ADD36C,2.300000*%
%ADD37RoundRect,0.300000X2.200000X2.200000X-2.200000X2.200000X-2.200000X-2.200000X2.200000X-2.200000X0*%
%ADD38RoundRect,0.300000X2.200000X-2.200000X2.200000X2.200000X-2.200000X2.200000X-2.200000X-2.200000X0*%
%ADD39C,1.500000*%
%ADD40C,2.500000*%
%ADD41C,1.000000*%
%ADD42C,3.000000*%
G04 APERTURE END LIST*
D10*
X102198885Y-126707489D02*
X102127457Y-126493203D01*
X102127457Y-126493203D02*
X102056028Y-126421774D01*
X102056028Y-126421774D02*
X101913171Y-126350346D01*
X101913171Y-126350346D02*
X101698885Y-126350346D01*
X101698885Y-126350346D02*
X101556028Y-126421774D01*
X101556028Y-126421774D02*
X101484600Y-126493203D01*
X101484600Y-126493203D02*
X101413171Y-126636060D01*
X101413171Y-126636060D02*
X101413171Y-127207489D01*
X101413171Y-127207489D02*
X102913171Y-127207489D01*
X102913171Y-127207489D02*
X102913171Y-126707489D01*
X102913171Y-126707489D02*
X102841742Y-126564632D01*
X102841742Y-126564632D02*
X102770314Y-126493203D01*
X102770314Y-126493203D02*
X102627457Y-126421774D01*
X102627457Y-126421774D02*
X102484600Y-126421774D01*
X102484600Y-126421774D02*
X102341742Y-126493203D01*
X102341742Y-126493203D02*
X102270314Y-126564632D01*
X102270314Y-126564632D02*
X102198885Y-126707489D01*
X102198885Y-126707489D02*
X102198885Y-127207489D01*
X101413171Y-125707489D02*
X102413171Y-125707489D01*
X102913171Y-125707489D02*
X102841742Y-125778917D01*
X102841742Y-125778917D02*
X102770314Y-125707489D01*
X102770314Y-125707489D02*
X102841742Y-125636060D01*
X102841742Y-125636060D02*
X102913171Y-125707489D01*
X102913171Y-125707489D02*
X102770314Y-125707489D01*
X101484600Y-124421774D02*
X101413171Y-124564631D01*
X101413171Y-124564631D02*
X101413171Y-124850346D01*
X101413171Y-124850346D02*
X101484600Y-124993203D01*
X101484600Y-124993203D02*
X101627457Y-125064631D01*
X101627457Y-125064631D02*
X102198885Y-125064631D01*
X102198885Y-125064631D02*
X102341742Y-124993203D01*
X102341742Y-124993203D02*
X102413171Y-124850346D01*
X102413171Y-124850346D02*
X102413171Y-124564631D01*
X102413171Y-124564631D02*
X102341742Y-124421774D01*
X102341742Y-124421774D02*
X102198885Y-124350346D01*
X102198885Y-124350346D02*
X102056028Y-124350346D01*
X102056028Y-124350346D02*
X101913171Y-125064631D01*
X102413171Y-123707489D02*
X101413171Y-123707489D01*
X102270314Y-123707489D02*
X102341742Y-123636060D01*
X102341742Y-123636060D02*
X102413171Y-123493203D01*
X102413171Y-123493203D02*
X102413171Y-123278917D01*
X102413171Y-123278917D02*
X102341742Y-123136060D01*
X102341742Y-123136060D02*
X102198885Y-123064632D01*
X102198885Y-123064632D02*
X101413171Y-123064632D01*
X102413171Y-122564631D02*
X102413171Y-121993203D01*
X102913171Y-122350346D02*
X101627457Y-122350346D01*
X101627457Y-122350346D02*
X101484600Y-122278917D01*
X101484600Y-122278917D02*
X101413171Y-122136060D01*
X101413171Y-122136060D02*
X101413171Y-121993203D01*
X101413171Y-121493203D02*
X102413171Y-121493203D01*
X102127457Y-121493203D02*
X102270314Y-121421774D01*
X102270314Y-121421774D02*
X102341742Y-121350346D01*
X102341742Y-121350346D02*
X102413171Y-121207488D01*
X102413171Y-121207488D02*
X102413171Y-121064631D01*
X101413171Y-120350346D02*
X101484600Y-120493203D01*
X101484600Y-120493203D02*
X101556028Y-120564632D01*
X101556028Y-120564632D02*
X101698885Y-120636060D01*
X101698885Y-120636060D02*
X102127457Y-120636060D01*
X102127457Y-120636060D02*
X102270314Y-120564632D01*
X102270314Y-120564632D02*
X102341742Y-120493203D01*
X102341742Y-120493203D02*
X102413171Y-120350346D01*
X102413171Y-120350346D02*
X102413171Y-120136060D01*
X102413171Y-120136060D02*
X102341742Y-119993203D01*
X102341742Y-119993203D02*
X102270314Y-119921775D01*
X102270314Y-119921775D02*
X102127457Y-119850346D01*
X102127457Y-119850346D02*
X101698885Y-119850346D01*
X101698885Y-119850346D02*
X101556028Y-119921775D01*
X101556028Y-119921775D02*
X101484600Y-119993203D01*
X101484600Y-119993203D02*
X101413171Y-120136060D01*
X101413171Y-120136060D02*
X101413171Y-120350346D01*
X90153400Y-52705482D02*
X90224828Y-52919768D01*
X90224828Y-52919768D02*
X90224828Y-53276910D01*
X90224828Y-53276910D02*
X90153400Y-53419768D01*
X90153400Y-53419768D02*
X90081971Y-53491196D01*
X90081971Y-53491196D02*
X89939114Y-53562625D01*
X89939114Y-53562625D02*
X89796257Y-53562625D01*
X89796257Y-53562625D02*
X89653400Y-53491196D01*
X89653400Y-53491196D02*
X89581971Y-53419768D01*
X89581971Y-53419768D02*
X89510542Y-53276910D01*
X89510542Y-53276910D02*
X89439114Y-52991196D01*
X89439114Y-52991196D02*
X89367685Y-52848339D01*
X89367685Y-52848339D02*
X89296257Y-52776910D01*
X89296257Y-52776910D02*
X89153400Y-52705482D01*
X89153400Y-52705482D02*
X89010542Y-52705482D01*
X89010542Y-52705482D02*
X88867685Y-52776910D01*
X88867685Y-52776910D02*
X88796257Y-52848339D01*
X88796257Y-52848339D02*
X88724828Y-52991196D01*
X88724828Y-52991196D02*
X88724828Y-53348339D01*
X88724828Y-53348339D02*
X88796257Y-53562625D01*
X90153400Y-54776910D02*
X90224828Y-54634053D01*
X90224828Y-54634053D02*
X90224828Y-54348339D01*
X90224828Y-54348339D02*
X90153400Y-54205481D01*
X90153400Y-54205481D02*
X90010542Y-54134053D01*
X90010542Y-54134053D02*
X89439114Y-54134053D01*
X89439114Y-54134053D02*
X89296257Y-54205481D01*
X89296257Y-54205481D02*
X89224828Y-54348339D01*
X89224828Y-54348339D02*
X89224828Y-54634053D01*
X89224828Y-54634053D02*
X89296257Y-54776910D01*
X89296257Y-54776910D02*
X89439114Y-54848339D01*
X89439114Y-54848339D02*
X89581971Y-54848339D01*
X89581971Y-54848339D02*
X89724828Y-54134053D01*
X89224828Y-55276910D02*
X89224828Y-55848338D01*
X88724828Y-55491195D02*
X90010542Y-55491195D01*
X90010542Y-55491195D02*
X90153400Y-55562624D01*
X90153400Y-55562624D02*
X90224828Y-55705481D01*
X90224828Y-55705481D02*
X90224828Y-55848338D01*
X90367685Y-55991196D02*
X90367685Y-57134053D01*
X88724828Y-57776910D02*
X88724828Y-57919767D01*
X88724828Y-57919767D02*
X88796257Y-58062624D01*
X88796257Y-58062624D02*
X88867685Y-58134053D01*
X88867685Y-58134053D02*
X89010542Y-58205481D01*
X89010542Y-58205481D02*
X89296257Y-58276910D01*
X89296257Y-58276910D02*
X89653400Y-58276910D01*
X89653400Y-58276910D02*
X89939114Y-58205481D01*
X89939114Y-58205481D02*
X90081971Y-58134053D01*
X90081971Y-58134053D02*
X90153400Y-58062624D01*
X90153400Y-58062624D02*
X90224828Y-57919767D01*
X90224828Y-57919767D02*
X90224828Y-57776910D01*
X90224828Y-57776910D02*
X90153400Y-57634053D01*
X90153400Y-57634053D02*
X90081971Y-57562624D01*
X90081971Y-57562624D02*
X89939114Y-57491195D01*
X89939114Y-57491195D02*
X89653400Y-57419767D01*
X89653400Y-57419767D02*
X89296257Y-57419767D01*
X89296257Y-57419767D02*
X89010542Y-57491195D01*
X89010542Y-57491195D02*
X88867685Y-57562624D01*
X88867685Y-57562624D02*
X88796257Y-57634053D01*
X88796257Y-57634053D02*
X88724828Y-57776910D01*
X90367685Y-58562624D02*
X90367685Y-59705481D01*
X89224828Y-59848338D02*
X89224828Y-60419766D01*
X88724828Y-60062623D02*
X90010542Y-60062623D01*
X90010542Y-60062623D02*
X90153400Y-60134052D01*
X90153400Y-60134052D02*
X90224828Y-60276909D01*
X90224828Y-60276909D02*
X90224828Y-60419766D01*
X90224828Y-60919766D02*
X88724828Y-60919766D01*
X90224828Y-61562624D02*
X89439114Y-61562624D01*
X89439114Y-61562624D02*
X89296257Y-61491195D01*
X89296257Y-61491195D02*
X89224828Y-61348338D01*
X89224828Y-61348338D02*
X89224828Y-61134052D01*
X89224828Y-61134052D02*
X89296257Y-60991195D01*
X89296257Y-60991195D02*
X89367685Y-60919766D01*
X90224828Y-62919767D02*
X89439114Y-62919767D01*
X89439114Y-62919767D02*
X89296257Y-62848338D01*
X89296257Y-62848338D02*
X89224828Y-62705481D01*
X89224828Y-62705481D02*
X89224828Y-62419767D01*
X89224828Y-62419767D02*
X89296257Y-62276909D01*
X90153400Y-62919767D02*
X90224828Y-62776909D01*
X90224828Y-62776909D02*
X90224828Y-62419767D01*
X90224828Y-62419767D02*
X90153400Y-62276909D01*
X90153400Y-62276909D02*
X90010542Y-62205481D01*
X90010542Y-62205481D02*
X89867685Y-62205481D01*
X89867685Y-62205481D02*
X89724828Y-62276909D01*
X89724828Y-62276909D02*
X89653400Y-62419767D01*
X89653400Y-62419767D02*
X89653400Y-62776909D01*
X89653400Y-62776909D02*
X89581971Y-62919767D01*
X89224828Y-63634052D02*
X90224828Y-63634052D01*
X89367685Y-63634052D02*
X89296257Y-63705481D01*
X89296257Y-63705481D02*
X89224828Y-63848338D01*
X89224828Y-63848338D02*
X89224828Y-64062624D01*
X89224828Y-64062624D02*
X89296257Y-64205481D01*
X89296257Y-64205481D02*
X89439114Y-64276910D01*
X89439114Y-64276910D02*
X90224828Y-64276910D01*
X89224828Y-65634053D02*
X90439114Y-65634053D01*
X90439114Y-65634053D02*
X90581971Y-65562624D01*
X90581971Y-65562624D02*
X90653400Y-65491195D01*
X90653400Y-65491195D02*
X90724828Y-65348338D01*
X90724828Y-65348338D02*
X90724828Y-65134053D01*
X90724828Y-65134053D02*
X90653400Y-64991195D01*
X90153400Y-65634053D02*
X90224828Y-65491195D01*
X90224828Y-65491195D02*
X90224828Y-65205481D01*
X90224828Y-65205481D02*
X90153400Y-65062624D01*
X90153400Y-65062624D02*
X90081971Y-64991195D01*
X90081971Y-64991195D02*
X89939114Y-64919767D01*
X89939114Y-64919767D02*
X89510542Y-64919767D01*
X89510542Y-64919767D02*
X89367685Y-64991195D01*
X89367685Y-64991195D02*
X89296257Y-65062624D01*
X89296257Y-65062624D02*
X89224828Y-65205481D01*
X89224828Y-65205481D02*
X89224828Y-65491195D01*
X89224828Y-65491195D02*
X89296257Y-65634053D01*
X73281628Y-64368853D02*
X73281628Y-65297425D01*
X73281628Y-65297425D02*
X73853057Y-64797425D01*
X73853057Y-64797425D02*
X73853057Y-65011710D01*
X73853057Y-65011710D02*
X73924485Y-65154568D01*
X73924485Y-65154568D02*
X73995914Y-65225996D01*
X73995914Y-65225996D02*
X74138771Y-65297425D01*
X74138771Y-65297425D02*
X74495914Y-65297425D01*
X74495914Y-65297425D02*
X74638771Y-65225996D01*
X74638771Y-65225996D02*
X74710200Y-65154568D01*
X74710200Y-65154568D02*
X74781628Y-65011710D01*
X74781628Y-65011710D02*
X74781628Y-64583139D01*
X74781628Y-64583139D02*
X74710200Y-64440282D01*
X74710200Y-64440282D02*
X74638771Y-64368853D01*
X73281628Y-65725996D02*
X74781628Y-66225996D01*
X74781628Y-66225996D02*
X73281628Y-66725996D01*
X73281628Y-67083138D02*
X73281628Y-68011710D01*
X73281628Y-68011710D02*
X73853057Y-67511710D01*
X73853057Y-67511710D02*
X73853057Y-67725995D01*
X73853057Y-67725995D02*
X73924485Y-67868853D01*
X73924485Y-67868853D02*
X73995914Y-67940281D01*
X73995914Y-67940281D02*
X74138771Y-68011710D01*
X74138771Y-68011710D02*
X74495914Y-68011710D01*
X74495914Y-68011710D02*
X74638771Y-67940281D01*
X74638771Y-67940281D02*
X74710200Y-67868853D01*
X74710200Y-67868853D02*
X74781628Y-67725995D01*
X74781628Y-67725995D02*
X74781628Y-67297424D01*
X74781628Y-67297424D02*
X74710200Y-67154567D01*
X74710200Y-67154567D02*
X74638771Y-67083138D01*
X68198517Y-126178369D02*
X68127089Y-126106941D01*
X68127089Y-126106941D02*
X67984232Y-126035512D01*
X67984232Y-126035512D02*
X67627089Y-126035512D01*
X67627089Y-126035512D02*
X67484232Y-126106941D01*
X67484232Y-126106941D02*
X67412803Y-126178369D01*
X67412803Y-126178369D02*
X67341374Y-126321226D01*
X67341374Y-126321226D02*
X67341374Y-126464084D01*
X67341374Y-126464084D02*
X67412803Y-126678369D01*
X67412803Y-126678369D02*
X68269946Y-127535512D01*
X68269946Y-127535512D02*
X67341374Y-127535512D01*
X66769946Y-126178369D02*
X66698518Y-126106941D01*
X66698518Y-126106941D02*
X66555661Y-126035512D01*
X66555661Y-126035512D02*
X66198518Y-126035512D01*
X66198518Y-126035512D02*
X66055661Y-126106941D01*
X66055661Y-126106941D02*
X65984232Y-126178369D01*
X65984232Y-126178369D02*
X65912803Y-126321226D01*
X65912803Y-126321226D02*
X65912803Y-126464084D01*
X65912803Y-126464084D02*
X65984232Y-126678369D01*
X65984232Y-126678369D02*
X66841375Y-127535512D01*
X66841375Y-127535512D02*
X65912803Y-127535512D01*
X64984232Y-126035512D02*
X64841375Y-126035512D01*
X64841375Y-126035512D02*
X64698518Y-126106941D01*
X64698518Y-126106941D02*
X64627090Y-126178369D01*
X64627090Y-126178369D02*
X64555661Y-126321226D01*
X64555661Y-126321226D02*
X64484232Y-126606941D01*
X64484232Y-126606941D02*
X64484232Y-126964084D01*
X64484232Y-126964084D02*
X64555661Y-127249798D01*
X64555661Y-127249798D02*
X64627090Y-127392655D01*
X64627090Y-127392655D02*
X64698518Y-127464084D01*
X64698518Y-127464084D02*
X64841375Y-127535512D01*
X64841375Y-127535512D02*
X64984232Y-127535512D01*
X64984232Y-127535512D02*
X65127090Y-127464084D01*
X65127090Y-127464084D02*
X65198518Y-127392655D01*
X65198518Y-127392655D02*
X65269947Y-127249798D01*
X65269947Y-127249798D02*
X65341375Y-126964084D01*
X65341375Y-126964084D02*
X65341375Y-126606941D01*
X65341375Y-126606941D02*
X65269947Y-126321226D01*
X65269947Y-126321226D02*
X65198518Y-126178369D01*
X65198518Y-126178369D02*
X65127090Y-126106941D01*
X65127090Y-126106941D02*
X64984232Y-126035512D01*
X64055661Y-126035512D02*
X63555661Y-127535512D01*
X63555661Y-127535512D02*
X63055661Y-126035512D01*
X62627090Y-127106941D02*
X61912805Y-127106941D01*
X62769947Y-127535512D02*
X62269947Y-126035512D01*
X62269947Y-126035512D02*
X61769947Y-127535512D01*
X60412805Y-127392655D02*
X60484233Y-127464084D01*
X60484233Y-127464084D02*
X60698519Y-127535512D01*
X60698519Y-127535512D02*
X60841376Y-127535512D01*
X60841376Y-127535512D02*
X61055662Y-127464084D01*
X61055662Y-127464084D02*
X61198519Y-127321226D01*
X61198519Y-127321226D02*
X61269948Y-127178369D01*
X61269948Y-127178369D02*
X61341376Y-126892655D01*
X61341376Y-126892655D02*
X61341376Y-126678369D01*
X61341376Y-126678369D02*
X61269948Y-126392655D01*
X61269948Y-126392655D02*
X61198519Y-126249798D01*
X61198519Y-126249798D02*
X61055662Y-126106941D01*
X61055662Y-126106941D02*
X60841376Y-126035512D01*
X60841376Y-126035512D02*
X60698519Y-126035512D01*
X60698519Y-126035512D02*
X60484233Y-126106941D01*
X60484233Y-126106941D02*
X60412805Y-126178369D01*
X77220028Y-64714910D02*
X75720028Y-64714910D01*
X75720028Y-64714910D02*
X75720028Y-65072053D01*
X75720028Y-65072053D02*
X75791457Y-65286339D01*
X75791457Y-65286339D02*
X75934314Y-65429196D01*
X75934314Y-65429196D02*
X76077171Y-65500625D01*
X76077171Y-65500625D02*
X76362885Y-65572053D01*
X76362885Y-65572053D02*
X76577171Y-65572053D01*
X76577171Y-65572053D02*
X76862885Y-65500625D01*
X76862885Y-65500625D02*
X77005742Y-65429196D01*
X77005742Y-65429196D02*
X77148600Y-65286339D01*
X77148600Y-65286339D02*
X77220028Y-65072053D01*
X77220028Y-65072053D02*
X77220028Y-64714910D01*
X77220028Y-66214910D02*
X75720028Y-66214910D01*
X75720028Y-67214911D02*
X75720028Y-67500625D01*
X75720028Y-67500625D02*
X75791457Y-67643482D01*
X75791457Y-67643482D02*
X75934314Y-67786339D01*
X75934314Y-67786339D02*
X76220028Y-67857768D01*
X76220028Y-67857768D02*
X76720028Y-67857768D01*
X76720028Y-67857768D02*
X77005742Y-67786339D01*
X77005742Y-67786339D02*
X77148600Y-67643482D01*
X77148600Y-67643482D02*
X77220028Y-67500625D01*
X77220028Y-67500625D02*
X77220028Y-67214911D01*
X77220028Y-67214911D02*
X77148600Y-67072054D01*
X77148600Y-67072054D02*
X77005742Y-66929196D01*
X77005742Y-66929196D02*
X76720028Y-66857768D01*
X76720028Y-66857768D02*
X76220028Y-66857768D01*
X76220028Y-66857768D02*
X75934314Y-66929196D01*
X75934314Y-66929196D02*
X75791457Y-67072054D01*
X75791457Y-67072054D02*
X75720028Y-67214911D01*
X79667971Y-65216453D02*
X79739400Y-65145025D01*
X79739400Y-65145025D02*
X79810828Y-64930739D01*
X79810828Y-64930739D02*
X79810828Y-64787882D01*
X79810828Y-64787882D02*
X79739400Y-64573596D01*
X79739400Y-64573596D02*
X79596542Y-64430739D01*
X79596542Y-64430739D02*
X79453685Y-64359310D01*
X79453685Y-64359310D02*
X79167971Y-64287882D01*
X79167971Y-64287882D02*
X78953685Y-64287882D01*
X78953685Y-64287882D02*
X78667971Y-64359310D01*
X78667971Y-64359310D02*
X78525114Y-64430739D01*
X78525114Y-64430739D02*
X78382257Y-64573596D01*
X78382257Y-64573596D02*
X78310828Y-64787882D01*
X78310828Y-64787882D02*
X78310828Y-64930739D01*
X78310828Y-64930739D02*
X78382257Y-65145025D01*
X78382257Y-65145025D02*
X78453685Y-65216453D01*
X79810828Y-66573596D02*
X79810828Y-65859310D01*
X79810828Y-65859310D02*
X78310828Y-65859310D01*
X79810828Y-67073596D02*
X78310828Y-67073596D01*
X79810828Y-67930739D02*
X78953685Y-67287882D01*
X78310828Y-67930739D02*
X79167971Y-67073596D01*
X80871457Y-64891025D02*
X80800028Y-64748168D01*
X80800028Y-64748168D02*
X80800028Y-64533882D01*
X80800028Y-64533882D02*
X80871457Y-64319596D01*
X80871457Y-64319596D02*
X81014314Y-64176739D01*
X81014314Y-64176739D02*
X81157171Y-64105310D01*
X81157171Y-64105310D02*
X81442885Y-64033882D01*
X81442885Y-64033882D02*
X81657171Y-64033882D01*
X81657171Y-64033882D02*
X81942885Y-64105310D01*
X81942885Y-64105310D02*
X82085742Y-64176739D01*
X82085742Y-64176739D02*
X82228600Y-64319596D01*
X82228600Y-64319596D02*
X82300028Y-64533882D01*
X82300028Y-64533882D02*
X82300028Y-64676739D01*
X82300028Y-64676739D02*
X82228600Y-64891025D01*
X82228600Y-64891025D02*
X82157171Y-64962453D01*
X82157171Y-64962453D02*
X81657171Y-64962453D01*
X81657171Y-64962453D02*
X81657171Y-64676739D01*
X82300028Y-65605310D02*
X80800028Y-65605310D01*
X80800028Y-65605310D02*
X82300028Y-66462453D01*
X82300028Y-66462453D02*
X80800028Y-66462453D01*
X82300028Y-67176739D02*
X80800028Y-67176739D01*
X80800028Y-67176739D02*
X80800028Y-67533882D01*
X80800028Y-67533882D02*
X80871457Y-67748168D01*
X80871457Y-67748168D02*
X81014314Y-67891025D01*
X81014314Y-67891025D02*
X81157171Y-67962454D01*
X81157171Y-67962454D02*
X81442885Y-68033882D01*
X81442885Y-68033882D02*
X81657171Y-68033882D01*
X81657171Y-68033882D02*
X81942885Y-67962454D01*
X81942885Y-67962454D02*
X82085742Y-67891025D01*
X82085742Y-67891025D02*
X82228600Y-67748168D01*
X82228600Y-67748168D02*
X82300028Y-67533882D01*
X82300028Y-67533882D02*
X82300028Y-67176739D01*
X59234003Y-121311112D02*
X59948289Y-121311112D01*
X59948289Y-121311112D02*
X60019717Y-122025398D01*
X60019717Y-122025398D02*
X59948289Y-121953969D01*
X59948289Y-121953969D02*
X59805432Y-121882541D01*
X59805432Y-121882541D02*
X59448289Y-121882541D01*
X59448289Y-121882541D02*
X59305432Y-121953969D01*
X59305432Y-121953969D02*
X59234003Y-122025398D01*
X59234003Y-122025398D02*
X59162574Y-122168255D01*
X59162574Y-122168255D02*
X59162574Y-122525398D01*
X59162574Y-122525398D02*
X59234003Y-122668255D01*
X59234003Y-122668255D02*
X59305432Y-122739684D01*
X59305432Y-122739684D02*
X59448289Y-122811112D01*
X59448289Y-122811112D02*
X59805432Y-122811112D01*
X59805432Y-122811112D02*
X59948289Y-122739684D01*
X59948289Y-122739684D02*
X60019717Y-122668255D01*
X57805432Y-121311112D02*
X58519718Y-121311112D01*
X58519718Y-121311112D02*
X58591146Y-122025398D01*
X58591146Y-122025398D02*
X58519718Y-121953969D01*
X58519718Y-121953969D02*
X58376861Y-121882541D01*
X58376861Y-121882541D02*
X58019718Y-121882541D01*
X58019718Y-121882541D02*
X57876861Y-121953969D01*
X57876861Y-121953969D02*
X57805432Y-122025398D01*
X57805432Y-122025398D02*
X57734003Y-122168255D01*
X57734003Y-122168255D02*
X57734003Y-122525398D01*
X57734003Y-122525398D02*
X57805432Y-122668255D01*
X57805432Y-122668255D02*
X57876861Y-122739684D01*
X57876861Y-122739684D02*
X58019718Y-122811112D01*
X58019718Y-122811112D02*
X58376861Y-122811112D01*
X58376861Y-122811112D02*
X58519718Y-122739684D01*
X58519718Y-122739684D02*
X58591146Y-122668255D01*
X57305432Y-121311112D02*
X56805432Y-122811112D01*
X56805432Y-122811112D02*
X56305432Y-121311112D01*
X55876861Y-122382541D02*
X55162576Y-122382541D01*
X56019718Y-122811112D02*
X55519718Y-121311112D01*
X55519718Y-121311112D02*
X55019718Y-122811112D01*
X53662576Y-122668255D02*
X53734004Y-122739684D01*
X53734004Y-122739684D02*
X53948290Y-122811112D01*
X53948290Y-122811112D02*
X54091147Y-122811112D01*
X54091147Y-122811112D02*
X54305433Y-122739684D01*
X54305433Y-122739684D02*
X54448290Y-122596826D01*
X54448290Y-122596826D02*
X54519719Y-122453969D01*
X54519719Y-122453969D02*
X54591147Y-122168255D01*
X54591147Y-122168255D02*
X54591147Y-121953969D01*
X54591147Y-121953969D02*
X54519719Y-121668255D01*
X54519719Y-121668255D02*
X54448290Y-121525398D01*
X54448290Y-121525398D02*
X54305433Y-121382541D01*
X54305433Y-121382541D02*
X54091147Y-121311112D01*
X54091147Y-121311112D02*
X53948290Y-121311112D01*
X53948290Y-121311112D02*
X53734004Y-121382541D01*
X53734004Y-121382541D02*
X53662576Y-121453969D01*
X42147400Y-82931482D02*
X42218828Y-83145768D01*
X42218828Y-83145768D02*
X42218828Y-83502910D01*
X42218828Y-83502910D02*
X42147400Y-83645768D01*
X42147400Y-83645768D02*
X42075971Y-83717196D01*
X42075971Y-83717196D02*
X41933114Y-83788625D01*
X41933114Y-83788625D02*
X41790257Y-83788625D01*
X41790257Y-83788625D02*
X41647400Y-83717196D01*
X41647400Y-83717196D02*
X41575971Y-83645768D01*
X41575971Y-83645768D02*
X41504542Y-83502910D01*
X41504542Y-83502910D02*
X41433114Y-83217196D01*
X41433114Y-83217196D02*
X41361685Y-83074339D01*
X41361685Y-83074339D02*
X41290257Y-83002910D01*
X41290257Y-83002910D02*
X41147400Y-82931482D01*
X41147400Y-82931482D02*
X41004542Y-82931482D01*
X41004542Y-82931482D02*
X40861685Y-83002910D01*
X40861685Y-83002910D02*
X40790257Y-83074339D01*
X40790257Y-83074339D02*
X40718828Y-83217196D01*
X40718828Y-83217196D02*
X40718828Y-83574339D01*
X40718828Y-83574339D02*
X40790257Y-83788625D01*
X40718828Y-84288624D02*
X42218828Y-84645767D01*
X42218828Y-84645767D02*
X41147400Y-84931481D01*
X41147400Y-84931481D02*
X42218828Y-85217196D01*
X42218828Y-85217196D02*
X40718828Y-85574339D01*
X42361685Y-85788625D02*
X42361685Y-86931482D01*
X42218828Y-88074339D02*
X42218828Y-87217196D01*
X42218828Y-87645767D02*
X40718828Y-87645767D01*
X40718828Y-87645767D02*
X40933114Y-87502910D01*
X40933114Y-87502910D02*
X41075971Y-87360053D01*
X41075971Y-87360053D02*
X41147400Y-87217196D01*
X40861685Y-88645767D02*
X40790257Y-88717195D01*
X40790257Y-88717195D02*
X40718828Y-88860053D01*
X40718828Y-88860053D02*
X40718828Y-89217195D01*
X40718828Y-89217195D02*
X40790257Y-89360053D01*
X40790257Y-89360053D02*
X40861685Y-89431481D01*
X40861685Y-89431481D02*
X41004542Y-89502910D01*
X41004542Y-89502910D02*
X41147400Y-89502910D01*
X41147400Y-89502910D02*
X41361685Y-89431481D01*
X41361685Y-89431481D02*
X42218828Y-88574338D01*
X42218828Y-88574338D02*
X42218828Y-89502910D01*
X40718828Y-89931481D02*
X42218828Y-90431481D01*
X42218828Y-90431481D02*
X40718828Y-90931481D01*
X41790257Y-91360052D02*
X41790257Y-92074338D01*
X42218828Y-91217195D02*
X40718828Y-91717195D01*
X40718828Y-91717195D02*
X42218828Y-92217195D01*
X42075971Y-93574337D02*
X42147400Y-93502909D01*
X42147400Y-93502909D02*
X42218828Y-93288623D01*
X42218828Y-93288623D02*
X42218828Y-93145766D01*
X42218828Y-93145766D02*
X42147400Y-92931480D01*
X42147400Y-92931480D02*
X42004542Y-92788623D01*
X42004542Y-92788623D02*
X41861685Y-92717194D01*
X41861685Y-92717194D02*
X41575971Y-92645766D01*
X41575971Y-92645766D02*
X41361685Y-92645766D01*
X41361685Y-92645766D02*
X41075971Y-92717194D01*
X41075971Y-92717194D02*
X40933114Y-92788623D01*
X40933114Y-92788623D02*
X40790257Y-92931480D01*
X40790257Y-92931480D02*
X40718828Y-93145766D01*
X40718828Y-93145766D02*
X40718828Y-93288623D01*
X40718828Y-93288623D02*
X40790257Y-93502909D01*
X40790257Y-93502909D02*
X40861685Y-93574337D01*
X50278174Y-129625912D02*
X51135317Y-129625912D01*
X50706746Y-129625912D02*
X50706746Y-128125912D01*
X50706746Y-128125912D02*
X50849603Y-128340198D01*
X50849603Y-128340198D02*
X50992460Y-128483055D01*
X50992460Y-128483055D02*
X51135317Y-128554484D01*
X49706746Y-128268769D02*
X49635318Y-128197341D01*
X49635318Y-128197341D02*
X49492461Y-128125912D01*
X49492461Y-128125912D02*
X49135318Y-128125912D01*
X49135318Y-128125912D02*
X48992461Y-128197341D01*
X48992461Y-128197341D02*
X48921032Y-128268769D01*
X48921032Y-128268769D02*
X48849603Y-128411626D01*
X48849603Y-128411626D02*
X48849603Y-128554484D01*
X48849603Y-128554484D02*
X48921032Y-128768769D01*
X48921032Y-128768769D02*
X49778175Y-129625912D01*
X49778175Y-129625912D02*
X48849603Y-129625912D01*
X48421032Y-128125912D02*
X47921032Y-129625912D01*
X47921032Y-129625912D02*
X47421032Y-128125912D01*
X46992461Y-129197341D02*
X46278176Y-129197341D01*
X47135318Y-129625912D02*
X46635318Y-128125912D01*
X46635318Y-128125912D02*
X46135318Y-129625912D01*
X44778176Y-129483055D02*
X44849604Y-129554484D01*
X44849604Y-129554484D02*
X45063890Y-129625912D01*
X45063890Y-129625912D02*
X45206747Y-129625912D01*
X45206747Y-129625912D02*
X45421033Y-129554484D01*
X45421033Y-129554484D02*
X45563890Y-129411626D01*
X45563890Y-129411626D02*
X45635319Y-129268769D01*
X45635319Y-129268769D02*
X45706747Y-128983055D01*
X45706747Y-128983055D02*
X45706747Y-128768769D01*
X45706747Y-128768769D02*
X45635319Y-128483055D01*
X45635319Y-128483055D02*
X45563890Y-128340198D01*
X45563890Y-128340198D02*
X45421033Y-128197341D01*
X45421033Y-128197341D02*
X45206747Y-128125912D01*
X45206747Y-128125912D02*
X45063890Y-128125912D01*
X45063890Y-128125912D02*
X44849604Y-128197341D01*
X44849604Y-128197341D02*
X44778176Y-128268769D01*
X80653800Y-53315082D02*
X80725228Y-53529368D01*
X80725228Y-53529368D02*
X80725228Y-53886510D01*
X80725228Y-53886510D02*
X80653800Y-54029368D01*
X80653800Y-54029368D02*
X80582371Y-54100796D01*
X80582371Y-54100796D02*
X80439514Y-54172225D01*
X80439514Y-54172225D02*
X80296657Y-54172225D01*
X80296657Y-54172225D02*
X80153800Y-54100796D01*
X80153800Y-54100796D02*
X80082371Y-54029368D01*
X80082371Y-54029368D02*
X80010942Y-53886510D01*
X80010942Y-53886510D02*
X79939514Y-53600796D01*
X79939514Y-53600796D02*
X79868085Y-53457939D01*
X79868085Y-53457939D02*
X79796657Y-53386510D01*
X79796657Y-53386510D02*
X79653800Y-53315082D01*
X79653800Y-53315082D02*
X79510942Y-53315082D01*
X79510942Y-53315082D02*
X79368085Y-53386510D01*
X79368085Y-53386510D02*
X79296657Y-53457939D01*
X79296657Y-53457939D02*
X79225228Y-53600796D01*
X79225228Y-53600796D02*
X79225228Y-53957939D01*
X79225228Y-53957939D02*
X79296657Y-54172225D01*
X80653800Y-55386510D02*
X80725228Y-55243653D01*
X80725228Y-55243653D02*
X80725228Y-54957939D01*
X80725228Y-54957939D02*
X80653800Y-54815081D01*
X80653800Y-54815081D02*
X80510942Y-54743653D01*
X80510942Y-54743653D02*
X79939514Y-54743653D01*
X79939514Y-54743653D02*
X79796657Y-54815081D01*
X79796657Y-54815081D02*
X79725228Y-54957939D01*
X79725228Y-54957939D02*
X79725228Y-55243653D01*
X79725228Y-55243653D02*
X79796657Y-55386510D01*
X79796657Y-55386510D02*
X79939514Y-55457939D01*
X79939514Y-55457939D02*
X80082371Y-55457939D01*
X80082371Y-55457939D02*
X80225228Y-54743653D01*
X79725228Y-55886510D02*
X79725228Y-56457938D01*
X79225228Y-56100795D02*
X80510942Y-56100795D01*
X80510942Y-56100795D02*
X80653800Y-56172224D01*
X80653800Y-56172224D02*
X80725228Y-56315081D01*
X80725228Y-56315081D02*
X80725228Y-56457938D01*
X80868085Y-56600796D02*
X80868085Y-57743653D01*
X79725228Y-57886510D02*
X79725228Y-58457938D01*
X79225228Y-58100795D02*
X80510942Y-58100795D01*
X80510942Y-58100795D02*
X80653800Y-58172224D01*
X80653800Y-58172224D02*
X80725228Y-58315081D01*
X80725228Y-58315081D02*
X80725228Y-58457938D01*
X80725228Y-58957938D02*
X79225228Y-58957938D01*
X80725228Y-59600796D02*
X79939514Y-59600796D01*
X79939514Y-59600796D02*
X79796657Y-59529367D01*
X79796657Y-59529367D02*
X79725228Y-59386510D01*
X79725228Y-59386510D02*
X79725228Y-59172224D01*
X79725228Y-59172224D02*
X79796657Y-59029367D01*
X79796657Y-59029367D02*
X79868085Y-58957938D01*
X80725228Y-60957939D02*
X79939514Y-60957939D01*
X79939514Y-60957939D02*
X79796657Y-60886510D01*
X79796657Y-60886510D02*
X79725228Y-60743653D01*
X79725228Y-60743653D02*
X79725228Y-60457939D01*
X79725228Y-60457939D02*
X79796657Y-60315081D01*
X80653800Y-60957939D02*
X80725228Y-60815081D01*
X80725228Y-60815081D02*
X80725228Y-60457939D01*
X80725228Y-60457939D02*
X80653800Y-60315081D01*
X80653800Y-60315081D02*
X80510942Y-60243653D01*
X80510942Y-60243653D02*
X80368085Y-60243653D01*
X80368085Y-60243653D02*
X80225228Y-60315081D01*
X80225228Y-60315081D02*
X80153800Y-60457939D01*
X80153800Y-60457939D02*
X80153800Y-60815081D01*
X80153800Y-60815081D02*
X80082371Y-60957939D01*
X79725228Y-61672224D02*
X80725228Y-61672224D01*
X79868085Y-61672224D02*
X79796657Y-61743653D01*
X79796657Y-61743653D02*
X79725228Y-61886510D01*
X79725228Y-61886510D02*
X79725228Y-62100796D01*
X79725228Y-62100796D02*
X79796657Y-62243653D01*
X79796657Y-62243653D02*
X79939514Y-62315082D01*
X79939514Y-62315082D02*
X80725228Y-62315082D01*
X79725228Y-63672225D02*
X80939514Y-63672225D01*
X80939514Y-63672225D02*
X81082371Y-63600796D01*
X81082371Y-63600796D02*
X81153800Y-63529367D01*
X81153800Y-63529367D02*
X81225228Y-63386510D01*
X81225228Y-63386510D02*
X81225228Y-63172225D01*
X81225228Y-63172225D02*
X81153800Y-63029367D01*
X80653800Y-63672225D02*
X80725228Y-63529367D01*
X80725228Y-63529367D02*
X80725228Y-63243653D01*
X80725228Y-63243653D02*
X80653800Y-63100796D01*
X80653800Y-63100796D02*
X80582371Y-63029367D01*
X80582371Y-63029367D02*
X80439514Y-62957939D01*
X80439514Y-62957939D02*
X80010942Y-62957939D01*
X80010942Y-62957939D02*
X79868085Y-63029367D01*
X79868085Y-63029367D02*
X79796657Y-63100796D01*
X79796657Y-63100796D02*
X79725228Y-63243653D01*
X79725228Y-63243653D02*
X79725228Y-63529367D01*
X79725228Y-63529367D02*
X79796657Y-63672225D01*
X105964771Y-122635489D02*
X107464771Y-122635489D01*
X107464771Y-122635489D02*
X106393342Y-122135489D01*
X106393342Y-122135489D02*
X107464771Y-121635489D01*
X107464771Y-121635489D02*
X105964771Y-121635489D01*
X107464771Y-120635488D02*
X107464771Y-120349774D01*
X107464771Y-120349774D02*
X107393342Y-120206917D01*
X107393342Y-120206917D02*
X107250485Y-120064060D01*
X107250485Y-120064060D02*
X106964771Y-119992631D01*
X106964771Y-119992631D02*
X106464771Y-119992631D01*
X106464771Y-119992631D02*
X106179057Y-120064060D01*
X106179057Y-120064060D02*
X106036200Y-120206917D01*
X106036200Y-120206917D02*
X105964771Y-120349774D01*
X105964771Y-120349774D02*
X105964771Y-120635488D01*
X105964771Y-120635488D02*
X106036200Y-120778346D01*
X106036200Y-120778346D02*
X106179057Y-120921203D01*
X106179057Y-120921203D02*
X106464771Y-120992631D01*
X106464771Y-120992631D02*
X106964771Y-120992631D01*
X106964771Y-120992631D02*
X107250485Y-120921203D01*
X107250485Y-120921203D02*
X107393342Y-120778346D01*
X107393342Y-120778346D02*
X107464771Y-120635488D01*
X107464771Y-119564059D02*
X107464771Y-118706917D01*
X105964771Y-119135488D02*
X107464771Y-119135488D01*
X107464771Y-117921202D02*
X107464771Y-117635488D01*
X107464771Y-117635488D02*
X107393342Y-117492631D01*
X107393342Y-117492631D02*
X107250485Y-117349774D01*
X107250485Y-117349774D02*
X106964771Y-117278345D01*
X106964771Y-117278345D02*
X106464771Y-117278345D01*
X106464771Y-117278345D02*
X106179057Y-117349774D01*
X106179057Y-117349774D02*
X106036200Y-117492631D01*
X106036200Y-117492631D02*
X105964771Y-117635488D01*
X105964771Y-117635488D02*
X105964771Y-117921202D01*
X105964771Y-117921202D02*
X106036200Y-118064060D01*
X106036200Y-118064060D02*
X106179057Y-118206917D01*
X106179057Y-118206917D02*
X106464771Y-118278345D01*
X106464771Y-118278345D02*
X106964771Y-118278345D01*
X106964771Y-118278345D02*
X107250485Y-118206917D01*
X107250485Y-118206917D02*
X107393342Y-118064060D01*
X107393342Y-118064060D02*
X107464771Y-117921202D01*
D11*
X73280180Y-43239704D02*
X72470657Y-43239704D01*
X72470657Y-43239704D02*
X72375419Y-43192085D01*
X72375419Y-43192085D02*
X72327800Y-43144466D01*
X72327800Y-43144466D02*
X72280180Y-43049228D01*
X72280180Y-43049228D02*
X72280180Y-42858752D01*
X72280180Y-42858752D02*
X72327800Y-42763514D01*
X72327800Y-42763514D02*
X72375419Y-42715895D01*
X72375419Y-42715895D02*
X72470657Y-42668276D01*
X72470657Y-42668276D02*
X73280180Y-42668276D01*
X73280180Y-41763514D02*
X73280180Y-41953990D01*
X73280180Y-41953990D02*
X73232561Y-42049228D01*
X73232561Y-42049228D02*
X73184942Y-42096847D01*
X73184942Y-42096847D02*
X73042085Y-42192085D01*
X73042085Y-42192085D02*
X72851609Y-42239704D01*
X72851609Y-42239704D02*
X72470657Y-42239704D01*
X72470657Y-42239704D02*
X72375419Y-42192085D01*
X72375419Y-42192085D02*
X72327800Y-42144466D01*
X72327800Y-42144466D02*
X72280180Y-42049228D01*
X72280180Y-42049228D02*
X72280180Y-41858752D01*
X72280180Y-41858752D02*
X72327800Y-41763514D01*
X72327800Y-41763514D02*
X72375419Y-41715895D01*
X72375419Y-41715895D02*
X72470657Y-41668276D01*
X72470657Y-41668276D02*
X72708752Y-41668276D01*
X72708752Y-41668276D02*
X72803990Y-41715895D01*
X72803990Y-41715895D02*
X72851609Y-41763514D01*
X72851609Y-41763514D02*
X72899228Y-41858752D01*
X72899228Y-41858752D02*
X72899228Y-42049228D01*
X72899228Y-42049228D02*
X72851609Y-42144466D01*
X72851609Y-42144466D02*
X72803990Y-42192085D01*
X72803990Y-42192085D02*
X72708752Y-42239704D01*
X122971038Y-53697019D02*
X123304371Y-53220828D01*
X123542466Y-53697019D02*
X123542466Y-52697019D01*
X123542466Y-52697019D02*
X123161514Y-52697019D01*
X123161514Y-52697019D02*
X123066276Y-52744638D01*
X123066276Y-52744638D02*
X123018657Y-52792257D01*
X123018657Y-52792257D02*
X122971038Y-52887495D01*
X122971038Y-52887495D02*
X122971038Y-53030352D01*
X122971038Y-53030352D02*
X123018657Y-53125590D01*
X123018657Y-53125590D02*
X123066276Y-53173209D01*
X123066276Y-53173209D02*
X123161514Y-53220828D01*
X123161514Y-53220828D02*
X123542466Y-53220828D01*
X122685323Y-52697019D02*
X122351990Y-53697019D01*
X122351990Y-53697019D02*
X122018657Y-52697019D01*
X121161514Y-53697019D02*
X121732942Y-53697019D01*
X121447228Y-53697019D02*
X121447228Y-52697019D01*
X121447228Y-52697019D02*
X121542466Y-52839876D01*
X121542466Y-52839876D02*
X121637704Y-52935114D01*
X121637704Y-52935114D02*
X121732942Y-52982733D01*
X115604580Y-43392104D02*
X114795057Y-43392104D01*
X114795057Y-43392104D02*
X114699819Y-43344485D01*
X114699819Y-43344485D02*
X114652200Y-43296866D01*
X114652200Y-43296866D02*
X114604580Y-43201628D01*
X114604580Y-43201628D02*
X114604580Y-43011152D01*
X114604580Y-43011152D02*
X114652200Y-42915914D01*
X114652200Y-42915914D02*
X114699819Y-42868295D01*
X114699819Y-42868295D02*
X114795057Y-42820676D01*
X114795057Y-42820676D02*
X115604580Y-42820676D01*
X115604580Y-41868295D02*
X115604580Y-42344485D01*
X115604580Y-42344485D02*
X115128390Y-42392104D01*
X115128390Y-42392104D02*
X115176009Y-42344485D01*
X115176009Y-42344485D02*
X115223628Y-42249247D01*
X115223628Y-42249247D02*
X115223628Y-42011152D01*
X115223628Y-42011152D02*
X115176009Y-41915914D01*
X115176009Y-41915914D02*
X115128390Y-41868295D01*
X115128390Y-41868295D02*
X115033152Y-41820676D01*
X115033152Y-41820676D02*
X114795057Y-41820676D01*
X114795057Y-41820676D02*
X114699819Y-41868295D01*
X114699819Y-41868295D02*
X114652200Y-41915914D01*
X114652200Y-41915914D02*
X114604580Y-42011152D01*
X114604580Y-42011152D02*
X114604580Y-42249247D01*
X114604580Y-42249247D02*
X114652200Y-42344485D01*
X114652200Y-42344485D02*
X114699819Y-42392104D01*
X45551838Y-53858719D02*
X45885171Y-53382528D01*
X46123266Y-53858719D02*
X46123266Y-52858719D01*
X46123266Y-52858719D02*
X45742314Y-52858719D01*
X45742314Y-52858719D02*
X45647076Y-52906338D01*
X45647076Y-52906338D02*
X45599457Y-52953957D01*
X45599457Y-52953957D02*
X45551838Y-53049195D01*
X45551838Y-53049195D02*
X45551838Y-53192052D01*
X45551838Y-53192052D02*
X45599457Y-53287290D01*
X45599457Y-53287290D02*
X45647076Y-53334909D01*
X45647076Y-53334909D02*
X45742314Y-53382528D01*
X45742314Y-53382528D02*
X46123266Y-53382528D01*
X45266123Y-52858719D02*
X44932790Y-53858719D01*
X44932790Y-53858719D02*
X44599457Y-52858719D01*
X44313742Y-52953957D02*
X44266123Y-52906338D01*
X44266123Y-52906338D02*
X44170885Y-52858719D01*
X44170885Y-52858719D02*
X43932790Y-52858719D01*
X43932790Y-52858719D02*
X43837552Y-52906338D01*
X43837552Y-52906338D02*
X43789933Y-52953957D01*
X43789933Y-52953957D02*
X43742314Y-53049195D01*
X43742314Y-53049195D02*
X43742314Y-53144433D01*
X43742314Y-53144433D02*
X43789933Y-53287290D01*
X43789933Y-53287290D02*
X44361361Y-53858719D01*
X44361361Y-53858719D02*
X43742314Y-53858719D01*
D12*
X47237600Y-51977800D02*
X47237600Y-32977800D01*
X72237600Y-32977800D02*
X47237600Y-32977800D01*
X72237600Y-51977800D02*
X47237600Y-51977800D01*
X72237600Y-51977800D02*
X72237600Y-32977800D01*
D11*
X92785400Y-52583600D02*
X115825400Y-52623600D01*
D12*
X92785400Y-74683600D02*
X92785400Y-52583600D01*
X115825400Y-52623600D02*
X115825400Y-53943600D01*
X115825400Y-54423600D02*
X115825400Y-54447600D01*
X115825400Y-54927600D02*
X115825400Y-56247600D01*
X115825400Y-56727600D02*
X115825400Y-56751600D01*
X115825400Y-57231600D02*
X115825400Y-58551600D01*
X115825400Y-59031600D02*
X115825400Y-59055600D01*
X115825400Y-59535600D02*
X115825400Y-60855600D01*
X115825400Y-61335600D02*
X115825400Y-61359600D01*
X115825400Y-61839600D02*
X115825400Y-63159600D01*
X115825400Y-63639600D02*
X115825400Y-63663600D01*
X115825400Y-64143600D02*
X115825400Y-65463600D01*
X115825400Y-65943600D02*
X115825400Y-65967600D01*
X115825400Y-66447600D02*
X115825400Y-67767600D01*
X115825400Y-68247600D02*
X115825400Y-68271600D01*
X115825400Y-68751600D02*
X115825400Y-70071600D01*
X115825400Y-70551600D02*
X115825400Y-70575600D01*
X115825400Y-71055600D02*
X115825400Y-72375600D01*
X115825400Y-72855600D02*
X115825400Y-72879600D01*
X115825400Y-73359600D02*
X115825400Y-74679600D01*
D11*
X115825400Y-74723600D02*
X92785400Y-74683600D01*
D12*
X103455400Y-70313600D02*
X99015400Y-70313600D01*
X99015400Y-71813600D01*
X103455400Y-71813600D01*
X103455400Y-70313600D01*
X103495400Y-55603600D02*
X99495400Y-55603600D01*
X99495400Y-57103600D01*
X103495400Y-57103600D01*
X103495400Y-55603600D01*
X88852600Y-51977800D02*
X88852600Y-32977800D01*
X113852600Y-32977800D02*
X88852600Y-32977800D01*
X113852600Y-51977800D02*
X88852600Y-51977800D01*
X113852600Y-51977800D02*
X113852600Y-32977800D01*
D11*
X47127700Y-52733600D02*
X70167700Y-52773600D01*
D12*
X47127700Y-74833600D02*
X47127700Y-73513600D01*
X47127700Y-73033600D02*
X47127700Y-73009600D01*
X47127700Y-72529600D02*
X47127700Y-71209600D01*
X47127700Y-70729600D02*
X47127700Y-70705600D01*
X47127700Y-70225600D02*
X47127700Y-68905600D01*
X47127700Y-68425600D02*
X47127700Y-68401600D01*
X47127700Y-67921600D02*
X47127700Y-66601600D01*
X47127700Y-66121600D02*
X47127700Y-66097600D01*
X47127700Y-65617600D02*
X47127700Y-64297600D01*
X47127700Y-63817600D02*
X47127700Y-63793600D01*
X47127700Y-63313600D02*
X47127700Y-61993600D01*
X47127700Y-61513600D02*
X47127700Y-61489600D01*
X47127700Y-61009600D02*
X47127700Y-59689600D01*
X47127700Y-59209600D02*
X47127700Y-59185600D01*
X47127700Y-58705600D02*
X47127700Y-57385600D01*
X47127700Y-56905600D02*
X47127700Y-56881600D01*
X47127700Y-56401600D02*
X47127700Y-55081600D01*
X47127700Y-54601600D02*
X47127700Y-54577600D01*
X47127700Y-54097600D02*
X47127700Y-52777600D01*
X70167700Y-52773600D02*
X70167700Y-74873600D01*
D11*
X70167700Y-74873600D02*
X47127700Y-74833600D01*
D12*
X59457700Y-71853600D02*
X63457700Y-71853600D01*
X63457700Y-70353600D01*
X59457700Y-70353600D01*
X59457700Y-71853600D01*
X59497700Y-57143600D02*
X63937700Y-57143600D01*
X63937700Y-55643600D01*
X59497700Y-55643600D01*
X59497700Y-57143600D01*
%LPC*%
D13*
X74015600Y-121056400D02*
X73964800Y-122631200D01*
X73911694Y-122631200D01*
X73004666Y-120530714D01*
X74015600Y-121056400D01*
G36*
X74015600Y-121056400D02*
G01*
X73964800Y-122631200D01*
X73911694Y-122631200D01*
X73004666Y-120530714D01*
X74015600Y-121056400D01*
G37*
X75539600Y-121056400D02*
X75082400Y-122783600D01*
X74828400Y-122631200D01*
X74625200Y-121310400D01*
X75590400Y-120446800D01*
X75539600Y-121056400D01*
G36*
X75539600Y-121056400D02*
G01*
X75082400Y-122783600D01*
X74828400Y-122631200D01*
X74625200Y-121310400D01*
X75590400Y-120446800D01*
X75539600Y-121056400D01*
G37*
D14*
X113496800Y-125841600D03*
X114696800Y-120741600D03*
D15*
X43586400Y-35306000D03*
D16*
X73964800Y-69545200D03*
D17*
X76504800Y-69545200D03*
X79044800Y-69545200D03*
X81584800Y-69545200D03*
D18*
X47045600Y-124561600D03*
D14*
X51005600Y-124561600D03*
X54965600Y-124561600D03*
X58925600Y-124561600D03*
X62885600Y-124561600D03*
X66845600Y-124561600D03*
D15*
X117856000Y-35052000D03*
D16*
X82296000Y-62230000D03*
D17*
X84836000Y-62230000D03*
D19*
X87376000Y-62230000D03*
D20*
X84484200Y-122123200D03*
X94484200Y-122123200D03*
D21*
X107848400Y-121564400D03*
D14*
X107848400Y-125524400D03*
D22*
X71069200Y-126034800D03*
D23*
X78689200Y-126034800D03*
D21*
X44653200Y-86210000D03*
D14*
X44653200Y-90170000D03*
D15*
X85408700Y-100744000D03*
D24*
X79358700Y-102694000D03*
D15*
X79358700Y-114894000D03*
D24*
X91358700Y-102694000D03*
D15*
X53600900Y-100744000D03*
D24*
X47550900Y-102694000D03*
D15*
X47550900Y-114894000D03*
X59600900Y-114944000D03*
D24*
X59550900Y-102694000D03*
D20*
X64600000Y-79100000D03*
X61100000Y-79100000D03*
D15*
X101402400Y-100744000D03*
D24*
X95352400Y-102694000D03*
D15*
X95352400Y-114894000D03*
D24*
X107352400Y-102694000D03*
D25*
X71850000Y-123110000D03*
D26*
X74390000Y-123110000D03*
X76930000Y-123110000D03*
D20*
X61191200Y-87680800D03*
X64691200Y-87680800D03*
D16*
X99314000Y-125069600D03*
D17*
X99314000Y-122529600D03*
D25*
X111630000Y-81950000D03*
D26*
X114170000Y-81950000D03*
X116710000Y-81950000D03*
D15*
X69508300Y-100744000D03*
D24*
X63458300Y-102694000D03*
D15*
X63458300Y-114894000D03*
X75508300Y-114944000D03*
D24*
X75458300Y-102694000D03*
D27*
X91592400Y-88087200D03*
D28*
X106832400Y-88087200D03*
D20*
X120396000Y-89154000D03*
X115396000Y-89154000D03*
D27*
X91643200Y-82245200D03*
D28*
X106883200Y-82245200D03*
D29*
X114096800Y-99923600D03*
D30*
X114096800Y-105003600D03*
X114096800Y-110083600D03*
X114096800Y-115163600D03*
D31*
X64817600Y-50097800D03*
D32*
X62277600Y-50097800D03*
X59737600Y-50097800D03*
X57197600Y-50097800D03*
X54657600Y-50097800D03*
X54657600Y-34857800D03*
X57197600Y-34857800D03*
X59737600Y-34857800D03*
X62317600Y-34857800D03*
X64817600Y-34857800D03*
D33*
X106105400Y-63733600D03*
D34*
X97405400Y-63733600D03*
D35*
X117905400Y-58733600D03*
D36*
X117905400Y-63733600D03*
X117905400Y-68733600D03*
D31*
X106432600Y-50097800D03*
D32*
X103892600Y-50097800D03*
X101352600Y-50097800D03*
X98812600Y-50097800D03*
X96272600Y-50097800D03*
X96272600Y-34857800D03*
X98812600Y-34857800D03*
X101352600Y-34857800D03*
X103932600Y-34857800D03*
X106432600Y-34857800D03*
D37*
X56847700Y-63723600D03*
D38*
X65547700Y-63723600D03*
D35*
X45047700Y-68723600D03*
D36*
X45047700Y-63723600D03*
X45047700Y-58723600D03*
D39*
X74472800Y-120802400D02*
X74472800Y-123027200D01*
D40*
X68529200Y-118770400D02*
X66845600Y-120454000D01*
X72440800Y-118770400D02*
X68529200Y-118770400D01*
X74472800Y-120802400D02*
X72440800Y-118770400D01*
X66845600Y-120454000D02*
X66845600Y-124561600D01*
D41*
X94484200Y-125048000D02*
X94484200Y-122123200D01*
X83566000Y-126085600D02*
X93446600Y-126085600D01*
X93446600Y-126085600D02*
X94484200Y-125048000D01*
D42*
X103327200Y-113690400D02*
X103327200Y-118313200D01*
X106578400Y-121564400D02*
X107848400Y-121564400D01*
X100025200Y-110388400D02*
X103327200Y-113690400D01*
X103327200Y-118313200D02*
X106578400Y-121564400D01*
X53600900Y-101020700D02*
X53600900Y-103142020D01*
X53600900Y-103142020D02*
X60847280Y-110388400D01*
X60847280Y-110388400D02*
X100025200Y-110388400D01*
X75508300Y-116402300D02*
X77825600Y-118719600D01*
X93370400Y-118719600D02*
X95453200Y-116636800D01*
X75508300Y-114944000D02*
X75508300Y-116402300D01*
X77825600Y-118719600D02*
X93370400Y-118719600D01*
X95453200Y-116636800D02*
X95453200Y-114994800D01*
X69508300Y-101020700D02*
X69508300Y-103142020D01*
X109829600Y-116331600D02*
X114239600Y-120741600D01*
X109829600Y-111048800D02*
X109829600Y-116331600D01*
X69508300Y-103142020D02*
X72436680Y-106070400D01*
X72436680Y-106070400D02*
X104851200Y-106070400D01*
X114239600Y-120741600D02*
X114696800Y-120741600D01*
X104851200Y-106070400D02*
X109829600Y-111048800D01*
D39*
X77012800Y-123088400D02*
X77012800Y-125088400D01*
X76066400Y-126034800D02*
X71069200Y-126034800D01*
X77012800Y-125088400D02*
X76066400Y-126034800D01*
D40*
X113179600Y-125524400D02*
X113496800Y-125841600D01*
X107848400Y-125524400D02*
X113179600Y-125524400D01*
%LPD*%
M02*
