G04 #@! TF.GenerationSoftware,KiCad,Pcbnew,9.0.0*
G04 #@! TF.CreationDate,2025-04-24T15:57:18+07:00*
G04 #@! TF.ProjectId,Bo_Tom_V3,426f5f54-6f6d-45f5-9633-2e6b69636164,rev?*
G04 #@! TF.SameCoordinates,Original*
G04 #@! TF.FileFunction,Profile,NP*
%FSLAX46Y46*%
G04 Gerber Fmt 4.6, Leading zero omitted, Abs format (unit mm)*
G04 Created by KiCad (PCBNEW 9.0.0) date 2025-04-24 15:57:18*
%MOMM*%
%LPD*%
G01*
G04 APERTURE LIST*
G04 #@! TA.AperFunction,Profile*
%ADD10C,0.050000*%
G04 #@! TD*
G04 #@! TA.AperFunction,Profile*
%ADD11C,0.100000*%
G04 #@! TD*
G04 APERTURE END LIST*
D10*
X99763580Y-102971600D02*
X103014780Y-102971600D01*
X103225600Y-103327200D02*
X99568000Y-103327200D01*
X49530000Y-126695200D02*
X49530000Y-122605800D01*
X100177600Y-123596400D02*
X100177600Y-123901200D01*
X81788000Y-101447600D02*
X81788000Y-100939600D01*
X51320000Y-99561800D02*
X52300000Y-98700000D01*
X115316000Y-123259850D02*
X105384600Y-123259850D01*
X112690800Y-82620800D02*
X112691600Y-80785600D01*
X61214000Y-116687600D02*
X61874400Y-116687600D01*
X75470800Y-122167000D02*
G75*
G02*
X75889200Y-122167000I209200J0D01*
G01*
X48514000Y-122605800D02*
X48514000Y-123393200D01*
X67671600Y-101195800D02*
X67671600Y-99824200D01*
X55488400Y-99712400D02*
X54782011Y-99080000D01*
X55012000Y-98698200D02*
X52300000Y-98700000D01*
X112690800Y-80787000D02*
G75*
G02*
X113109200Y-80787000I209200J0D01*
G01*
X105384600Y-123259850D02*
X105384600Y-124053600D01*
X75844400Y-120396000D02*
X75844400Y-120802400D01*
X52476400Y-123418600D02*
X52476400Y-126720600D01*
X98145600Y-101295200D02*
X98145600Y-101803200D01*
D11*
X39815600Y-30619600D02*
X124053600Y-30619600D01*
X124053600Y-130619600D01*
X39815600Y-130619600D01*
X39815600Y-30619600D01*
D10*
X71348400Y-101194000D02*
X71348400Y-99822400D01*
X75470800Y-124000800D02*
X75471600Y-122165600D01*
X114909600Y-127152400D02*
X104978200Y-127152400D01*
X76454000Y-112268000D02*
X73228200Y-112268000D01*
X49530000Y-122605800D02*
X48514000Y-122605800D01*
X51320000Y-102101800D02*
X51320000Y-99561800D01*
X81788000Y-101955600D02*
X83210400Y-103479600D01*
X98653600Y-100787200D02*
X98653600Y-101803200D01*
X81788000Y-100939600D02*
X82296000Y-100939600D01*
X77749400Y-113512600D02*
X76454000Y-112268000D01*
X60299600Y-122682000D02*
X60299600Y-123469400D01*
X73228200Y-112268000D02*
X73228200Y-113030000D01*
X73380000Y-124020000D02*
G75*
G02*
X72961600Y-124020000I-209200J0D01*
G01*
X71348400Y-102210000D02*
X71348400Y-101194000D01*
X65506600Y-121894600D02*
X64490600Y-121894600D01*
X71348400Y-99822400D02*
X70642011Y-99190000D01*
X61315600Y-122682000D02*
X60299600Y-122682000D01*
X55488400Y-101084000D02*
X55488400Y-99712400D01*
X72085200Y-107759500D02*
X72085200Y-108750100D01*
X75890000Y-122165600D02*
X75890000Y-124000000D01*
X88392000Y-100939600D02*
X88392000Y-101955600D01*
X67180000Y-99671800D02*
X68160000Y-98810000D01*
X115650000Y-80775600D02*
X115650000Y-82610000D01*
X81788000Y-120396000D02*
X75844400Y-120396000D01*
X51811600Y-102101800D02*
X51811600Y-101085800D01*
X73380000Y-121835600D02*
X73380000Y-124020000D01*
X99763580Y-102971600D02*
X98653600Y-101803200D01*
X115230800Y-82610800D02*
X115231600Y-80775600D01*
X61874400Y-113602530D02*
X62788800Y-112776000D01*
X55980000Y-102100000D02*
X55488400Y-102100000D01*
X98552000Y-123596400D02*
X100177600Y-123596400D01*
X109728000Y-71120000D02*
X109728000Y-70713600D01*
X64490600Y-125984000D02*
X65506600Y-125984000D01*
X100177600Y-123901200D02*
X98552000Y-123901200D01*
X77089000Y-115646200D02*
X78536800Y-117094000D01*
X104749600Y-101803200D02*
X103225600Y-103327200D01*
X118872000Y-70713600D02*
X118872000Y-71120000D01*
X95961200Y-123291600D02*
X95910400Y-123291600D01*
X104241600Y-100787200D02*
X104749600Y-100787200D01*
X88392000Y-101955600D02*
X86868000Y-103479600D01*
X57454800Y-126746000D02*
X57454800Y-122656600D01*
X98247200Y-123291600D02*
X95961200Y-123291600D01*
X98145600Y-101295200D02*
X98145600Y-100787200D01*
X53492400Y-126720600D02*
X53492400Y-122631200D01*
X104749600Y-100787200D02*
X104749600Y-101803200D01*
X60299600Y-125679200D02*
X61315600Y-125679200D01*
X61214000Y-113512600D02*
X61214000Y-116687600D01*
X56438800Y-122656600D02*
X56438800Y-123444000D01*
X75889198Y-124000000D02*
G75*
G02*
X75470800Y-124000800I-209198J-800D01*
G01*
X61874400Y-116687600D02*
X61874400Y-113602530D01*
X98552000Y-123596400D02*
X98247200Y-123291600D01*
X67180000Y-102211800D02*
X67671600Y-102211800D01*
X72961600Y-124020000D02*
X72961600Y-121835600D01*
X83405980Y-103124000D02*
X82296000Y-101955600D01*
X55980000Y-99560000D02*
X55012000Y-98698200D01*
X52476400Y-126720600D02*
X53492400Y-126720600D01*
X81838800Y-117094000D02*
X81838800Y-116560600D01*
X104978200Y-127660400D02*
X114909600Y-127660400D01*
X64490600Y-122682000D02*
X64490600Y-125984000D01*
X61214000Y-113106200D02*
X61214000Y-113512600D01*
X51811600Y-101085800D02*
X51811600Y-99714200D01*
X55488400Y-102100000D02*
X55488400Y-101084000D01*
X62153800Y-112242600D02*
X61214000Y-113106200D01*
X65176400Y-112255300D02*
X62153800Y-112242600D01*
X118872000Y-71120000D02*
X109728000Y-71120000D01*
X68380000Y-99190000D02*
X70642011Y-99190000D01*
X71840000Y-99670000D02*
X70872000Y-98808200D01*
X65506600Y-125984000D02*
X65506600Y-121894600D01*
X78740000Y-116560600D02*
X77749400Y-115595400D01*
X56438800Y-126746000D02*
X57454800Y-126746000D01*
X72960800Y-121837000D02*
G75*
G02*
X73379200Y-121837000I209200J0D01*
G01*
X86868000Y-103479600D02*
X83210400Y-103479600D01*
X115230800Y-80777000D02*
G75*
G02*
X115649200Y-80777000I209200J0D01*
G01*
X71840000Y-102210000D02*
X71840000Y-99670000D01*
X57454800Y-122656600D02*
X56438800Y-122656600D01*
X53492400Y-122631200D02*
X52476400Y-122631200D01*
X81788000Y-101447600D02*
X81788000Y-101955600D01*
X115649198Y-82610000D02*
G75*
G02*
X115230800Y-82610800I-209198J-800D01*
G01*
X83405980Y-103124000D02*
X86657180Y-103124000D01*
X55980000Y-102100000D02*
X55980000Y-99560000D01*
X86657180Y-103124000D02*
X87884000Y-101955600D01*
X75844400Y-120802400D02*
X81788000Y-120802400D01*
X114909600Y-127660400D02*
X114909600Y-127152400D01*
X104241600Y-101803200D02*
X104241600Y-100787200D01*
X76301600Y-113030000D02*
X77089000Y-113792000D01*
X52476400Y-122631200D02*
X52476400Y-123418600D01*
X60299600Y-123469400D02*
X60299600Y-125679200D01*
X48514000Y-126695200D02*
X49530000Y-126695200D01*
X61315600Y-125679200D02*
X61315600Y-122682000D01*
X73228200Y-113030000D02*
X76301600Y-113030000D01*
X87884000Y-100939600D02*
X88392000Y-100939600D01*
X82296000Y-100939600D02*
X82296000Y-101955600D01*
X98145600Y-100787200D02*
X98653600Y-100787200D01*
X51320000Y-102101800D02*
X51811600Y-102101800D01*
X77749400Y-115595400D02*
X77749400Y-113512600D01*
X78536800Y-117094000D02*
X81838800Y-117094000D01*
X71840000Y-102210000D02*
X71348400Y-102210000D01*
X67670000Y-99825000D02*
X68380000Y-99190000D01*
X113109198Y-82620000D02*
G75*
G02*
X112690800Y-82620800I-209198J-800D01*
G01*
X100838000Y-108750100D02*
X100838000Y-107759500D01*
X104978200Y-127152400D02*
X104978200Y-127660400D01*
X48514000Y-123393200D02*
X48514000Y-126695200D01*
X98552000Y-123901200D02*
X98196400Y-123545600D01*
X64490600Y-121894600D02*
X64490600Y-122682000D01*
X51810000Y-99715000D02*
X52520000Y-99080000D01*
X109728000Y-70713600D02*
X118872000Y-70713600D01*
X52520000Y-99080000D02*
X54782011Y-99080000D01*
X103014780Y-102971600D02*
X104241600Y-101803200D01*
X113110000Y-80785600D02*
X113110000Y-82620000D01*
X67180000Y-102211800D02*
X67180000Y-99671800D01*
X56438800Y-123444000D02*
X56438800Y-126746000D01*
X105384600Y-124053600D02*
X115316000Y-124053600D01*
X100838000Y-107759500D02*
X72085200Y-107759500D01*
X98196400Y-123545600D02*
X95910400Y-123545600D01*
X81788000Y-120802400D02*
X81788000Y-120396000D01*
X95910400Y-123291600D02*
X95910400Y-123545600D01*
X62788800Y-112776000D02*
X65176400Y-112788700D01*
X81838800Y-116560600D02*
X78740000Y-116560600D01*
X67671600Y-102211800D02*
X67671600Y-101195800D01*
X98145600Y-101803200D02*
X99568000Y-103327200D01*
X87884000Y-101955600D02*
X87884000Y-100939600D01*
X72085200Y-108750100D02*
X100838000Y-108750100D01*
X115316000Y-124053600D02*
X115316000Y-123259850D01*
X65176400Y-112788700D02*
X65176400Y-112255300D01*
X70872000Y-98808200D02*
X68160000Y-98810000D01*
X77089000Y-113792000D02*
X77089000Y-115646200D01*
M02*
