M48
; DRILL file {KiCad 9.0.0} date 2025-04-24T15:58:07+0700
; FORMAT={-:-/ absolute / metric / decimal}
; #@! TF.CreationDate,2025-04-24T15:58:07+07:00
; #@! TF.GenerationSoftware,Kicad,Pcbnew,9.0.0
; #@! TF.FileFunction,Plated,1,2,PTH
FMAT,2
METRIC
; #@! TA.AperFunction,Plated,PTH,ViaDrill
T1C0.300
; #@! TA.AperFunction,Plated,PTH,ViaDrill
T2C0.400
; #@! TA.AperFunction,Plated,PTH,ViaDrill
T3C0.600
; #@! TA.AperFunction,Plated,PTH,ComponentDrill
T4C0.800
; #@! TA.AperFunction,Plated,PTH,ComponentDrill
T5C1.000
; #@! TA.AperFunction,Plated,PTH,ComponentDrill
T6C1.100
; #@! TA.AperFunction,Plated,PTH,ComponentDrill
T7C1.200
; #@! TA.AperFunction,Plated,PTH,ComponentDrill
T8C1.300
; #@! TA.AperFunction,Plated,PTH,ComponentDrill
T9C1.400
; #@! TA.AperFunction,Plated,PTH,ComponentDrill
T10C1.600
%
G90
G05
T1
X41.351Y-61.316
X41.351Y-64.11
X41.351Y-66.904
X41.351Y-69.545
X41.351Y-72.238
X41.351Y-74.981
X41.402Y-45.263
X41.402Y-48.057
X41.402Y-50.851
X41.402Y-53.492
X41.402Y-56.185
X41.402Y-58.928
X42.824Y-45.263
X42.824Y-48.057
X42.824Y-50.851
X42.824Y-53.492
X42.824Y-56.185
X42.824Y-58.928
X43.129Y-67.158
X43.129Y-69.698
X43.129Y-72.238
X43.18Y-61.417
X43.18Y-74.93
X44.755Y-41.605
X44.755Y-44.399
X44.755Y-47.193
X44.755Y-49.835
X44.755Y-52.527
X44.755Y-55.27
X44.958Y-72.238
X45.009Y-74.828
X45.822Y-61.519
X46.584Y-41.707
X46.584Y-44.501
X46.584Y-47.295
X46.584Y-49.936
X46.584Y-52.629
X46.584Y-55.372
X48.717Y-61.468
X48.717Y-62.941
X48.717Y-64.668
X48.768Y-54.0
X48.768Y-55.474
X48.768Y-57.201
X49.022Y-36.779
X49.022Y-39.573
X49.022Y-42.367
X49.022Y-45.009
X49.022Y-47.701
X49.022Y-50.444
X49.936Y-92.913
X49.987Y-61.468
X49.987Y-62.941
X49.987Y-64.668
X50.14Y-54.0
X50.14Y-55.474
X50.14Y-57.201
X51.359Y-61.519
X51.359Y-62.992
X51.359Y-64.719
X51.46Y-54.0
X51.46Y-55.474
X51.46Y-57.201
X51.511Y-36.728
X51.511Y-39.522
X51.511Y-42.316
X51.511Y-44.958
X51.511Y-47.65
X51.511Y-50.394
X52.578Y-61.57
X52.578Y-63.043
X52.578Y-64.77
X52.73Y-54.051
X52.73Y-55.524
X52.73Y-57.252
X53.238Y-94.082
X54.153Y-54.051
X54.153Y-55.524
X54.153Y-57.252
X55.524Y-54.051
X55.524Y-55.524
X55.524Y-57.252
X55.667Y-68.732
X55.982Y-37.897
X56.032Y-39.776
X56.032Y-43.282
X56.083Y-41.504
X57.14Y-60.198
X57.198Y-52.339
X57.201Y-54.0
X57.201Y-55.474
X57.201Y-57.201
X57.709Y-91.505
X57.709Y-93.305
X57.861Y-41.351
X58.4Y-68.732
X58.776Y-54.0
X58.776Y-55.474
X58.776Y-57.201
X58.979Y-82.956
X59.385Y-91.44
X59.741Y-52.949
X59.873Y-60.198
X60.046Y-41.351
X60.35Y-77.368
X60.503Y-54.0
X60.503Y-55.474
X60.503Y-57.201
X61.062Y-85.547
X61.133Y-68.732
X61.316Y-96.063
X61.316Y-98.146
X62.23Y-41.3
X62.278Y-53.559
X62.433Y-57.404
X62.484Y-55.474
X62.586Y-32.607
X62.606Y-60.198
X62.789Y-81.788
X62.941Y-89.002
X63.866Y-68.732
X64.567Y-93.878
X64.818Y-54.219
X64.872Y-85.547
X65.075Y-41.402
X65.176Y-31.887
X65.227Y-57.404
X65.278Y-55.474
X65.339Y-60.198
X66.04Y-98.806
X66.548Y-69.342
X66.548Y-71.272
X66.548Y-72.593
X66.548Y-74.524
X66.548Y-76.251
X66.904Y-91.389
X67.259Y-83.16
X67.564Y-41.411
X67.818Y-35.103
X68.021Y-57.404
X68.072Y-55.474
X68.072Y-60.198
X68.58Y-71.272
X68.58Y-72.898
X68.58Y-74.524
X68.58Y-76.403
X68.631Y-69.372
X68.631Y-78.09
X69.19Y-94.285
X70.551Y-35.103
X70.663Y-57.404
X70.714Y-55.474
X71.018Y-62.982
X71.018Y-65.715
X71.018Y-71.181
X71.018Y-72.593
X71.018Y-73.914
X71.171Y-67.005
X71.628Y-84.176
X71.628Y-86.055
X72.085Y-91.288
X72.949Y-43.849
X73.0Y-42.63
X73.284Y-35.103
X73.355Y-57.404
X73.406Y-55.474
X73.711Y-91.505
X73.711Y-93.726
X75.133Y-76.048
X76.017Y-35.103
X76.098Y-57.404
X76.098Y-84.125
X76.149Y-55.474
X76.149Y-85.954
X76.251Y-77.114
X76.302Y-76.098
X76.505Y-60.401
X76.505Y-62.416
X76.505Y-64.431
X76.505Y-66.446
X77.013Y-71.831
X77.064Y-94.336
X77.064Y-97.282
X77.673Y-39.624
X77.673Y-40.894
X77.673Y-42.909
X77.673Y-44.924
X77.673Y-46.939
X77.978Y-73.355
X78.08Y-50.444
X78.74Y-55.474
X78.74Y-57.404
X78.74Y-91.288
X78.75Y-35.103
X78.943Y-60.401
X78.943Y-62.416
X78.943Y-64.431
X78.943Y-66.446
X79.604Y-39.624
X79.604Y-40.894
X79.604Y-42.909
X79.604Y-44.924
X79.604Y-46.939
X80.095Y-50.444
X80.755Y-55.474
X80.755Y-57.404
X81.229Y-88.494
X81.28Y-80.569
X81.28Y-82.584
X81.28Y-84.599
X81.28Y-86.614
X81.483Y-35.103
X81.534Y-78.232
X82.11Y-50.444
X82.205Y-66.446
X82.499Y-47.695
X82.55Y-46.389
X82.77Y-55.474
X82.77Y-57.404
X84.125Y-50.444
X84.247Y-35.052
X84.785Y-55.474
X84.785Y-57.404
X84.938Y-66.446
X85.09Y-43.9
X86.98Y-35.052
X87.325Y-71.577
X87.325Y-76.911
X88.161Y-94.996
X88.646Y-66.497
X89.56Y-76.251
X89.713Y-35.052
X89.713Y-78.283
X90.018Y-72.796
X90.576Y-91.505
X90.576Y-93.32
X91.216Y-37.998
X92.507Y-35.103
X93.066Y-95.961
X93.95Y-37.998
X93.95Y-40.081
X93.95Y-42.469
X94.132Y-98.603
X94.844Y-73.05
X94.894Y-47.549
X95.707Y-69.139
X95.758Y-71.577
X96.103Y-56.947
X96.103Y-59.588
X96.683Y-37.998
X96.683Y-40.081
X96.683Y-42.469
X96.825Y-81.026
X96.825Y-83.464
X96.825Y-86.868
X96.825Y-89.306
X97.587Y-71.526
X97.627Y-47.549
X97.722Y-69.139
X98.836Y-56.947
X98.836Y-59.588
X98.84Y-81.026
X98.84Y-83.464
X98.84Y-86.868
X98.84Y-89.306
X99.416Y-37.998
X99.416Y-40.081
X99.416Y-42.469
X99.737Y-69.139
X99.771Y-71.628
X100.36Y-47.549
X100.635Y-74.727
X100.635Y-77.876
X100.855Y-81.026
X100.855Y-83.464
X100.855Y-86.868
X101.041Y-93.574
X101.549Y-71.577
X101.567Y-91.505
X101.57Y-56.947
X101.57Y-59.588
X101.752Y-69.139
X102.057Y-89.052
X102.413Y-93.305
X102.464Y-74.727
X102.565Y-77.826
X102.87Y-81.026
X102.87Y-83.464
X103.094Y-47.549
X103.784Y-36.759
X103.784Y-39.492
X103.784Y-42.225
X103.784Y-44.958
X104.303Y-56.947
X104.303Y-59.588
X104.851Y-69.139
X105.827Y-47.549
X106.121Y-36.759
X106.121Y-39.492
X106.121Y-42.225
X106.121Y-44.958
X106.866Y-69.139
X107.036Y-56.947
X107.036Y-59.588
X108.458Y-36.759
X108.458Y-39.492
X108.458Y-42.225
X108.458Y-44.958
X108.56Y-47.549
X108.881Y-69.139
X110.073Y-50.444
X110.846Y-33.985
X110.846Y-36.718
X110.846Y-39.451
X110.846Y-42.184
X110.846Y-44.917
X110.846Y-47.65
X110.846Y-54.295
X110.846Y-57.028
X110.846Y-59.761
X110.846Y-62.494
X110.846Y-65.227
X110.896Y-69.139
X112.806Y-50.444
X112.878Y-54.295
X112.878Y-57.028
X112.878Y-59.761
X112.878Y-62.494
X112.878Y-65.227
X112.878Y-107.493
X112.878Y-112.42
X113.03Y-102.768
X113.182Y-36.718
X113.182Y-39.451
X113.182Y-42.184
X113.182Y-44.917
X113.182Y-47.65
X114.402Y-94.437
X114.96Y-54.346
X114.96Y-57.079
X114.96Y-59.812
X114.96Y-62.545
X114.96Y-65.278
X115.367Y-112.979
X115.519Y-39.451
X115.519Y-42.184
X115.519Y-44.917
X115.519Y-47.65
X115.54Y-50.444
X116.18Y-107.594
X116.484Y-102.87
X116.637Y-97.231
X117.043Y-114.3
X117.754Y-94.082
X117.805Y-92.202
X117.856Y-88.341
X117.856Y-90.322
X117.907Y-86.462
X117.958Y-84.582
X118.059Y-74.727
X118.161Y-53.249
X118.161Y-55.982
X118.212Y-39.512
X118.212Y-42.245
X118.212Y-44.978
X118.212Y-47.711
X118.212Y-50.444
X120.548Y-53.249
X120.548Y-55.982
X120.599Y-39.512
X120.599Y-42.245
X120.599Y-44.978
X120.599Y-47.711
X120.599Y-50.444
X123.292Y-36.627
X123.292Y-39.522
X123.292Y-42.255
X123.292Y-44.988
X123.292Y-47.722
X123.292Y-50.455
X123.292Y-53.188
X123.292Y-74.422
X123.292Y-77.544
X123.292Y-80.666
X123.292Y-83.789
X123.292Y-86.911
X123.292Y-90.033
X123.292Y-93.155
X123.292Y-96.278
X123.292Y-99.4
X123.292Y-102.522
X123.292Y-105.644
X123.292Y-108.767
X123.292Y-111.889
X123.292Y-115.011
X123.342Y-55.677
X123.342Y-58.41
X123.342Y-61.143
X123.342Y-63.876
X123.342Y-66.609
X123.342Y-69.342
T2
X48.209Y-70.815
X48.209Y-72.441
X48.209Y-74.066
X50.089Y-70.815
X50.089Y-72.441
X50.089Y-74.066
X52.019Y-70.815
X52.019Y-72.441
X52.019Y-74.066
T3
X69.19Y-88.849
X69.225Y-90.729
X83.566Y-126.086
X87.833Y-38.363
X89.154Y-43.087
X92.253Y-67.513
T4
X54.658Y-34.858
X54.658Y-50.098
X57.198Y-34.858
X57.198Y-50.098
X59.738Y-34.858
X59.738Y-50.098
X61.1Y-79.1
X61.191Y-87.681
X62.278Y-50.098
X62.318Y-34.858
X64.6Y-79.1
X64.691Y-87.681
X64.818Y-34.858
X64.818Y-50.098
X71.069Y-126.035
X78.689Y-126.035
X84.484Y-122.123
X94.484Y-122.123
X96.273Y-34.858
X96.273Y-50.098
X98.813Y-34.858
X98.813Y-50.098
X101.353Y-34.858
X101.353Y-50.098
X103.893Y-50.098
X103.933Y-34.858
X106.433Y-34.858
X106.433Y-50.098
X115.396Y-89.154
X120.396Y-89.154
T5
X47.551Y-102.694
X59.551Y-102.694
X63.458Y-102.694
X73.965Y-69.545
X75.458Y-102.694
X76.505Y-69.545
X79.045Y-69.545
X79.359Y-102.694
X81.585Y-69.545
X82.296Y-62.23
X84.836Y-62.23
X87.376Y-62.23
X91.359Y-102.694
X95.352Y-102.694
X99.314Y-122.53
X99.314Y-125.07
X107.352Y-102.694
T6
X71.85Y-123.11
X74.39Y-123.11
X76.93Y-123.11
X111.63Y-81.95
X114.17Y-81.95
X116.71Y-81.95
T7
X45.048Y-58.724
X45.048Y-63.724
X45.048Y-68.724
X113.497Y-125.842
X114.697Y-120.742
X117.905Y-58.734
X117.905Y-63.734
X117.905Y-68.734
T8
X47.551Y-114.894
X53.601Y-100.744
X59.601Y-114.944
X63.458Y-114.894
X69.508Y-100.744
X75.508Y-114.944
X79.359Y-114.894
X85.409Y-100.744
X95.352Y-114.894
X101.402Y-100.744
T9
X44.653Y-86.21
X44.653Y-90.17
X47.046Y-124.562
X51.006Y-124.562
X54.966Y-124.562
X58.926Y-124.562
X62.886Y-124.562
X66.846Y-124.562
X107.848Y-121.564
X107.848Y-125.524
X114.097Y-99.924
X114.097Y-105.004
X114.097Y-110.084
X114.097Y-115.164
T10
X91.592Y-88.087
X91.643Y-82.245
X106.832Y-88.087
X106.883Y-82.245
T7
X56.848Y-64.924G85X56.848Y-62.524
G05
X64.348Y-63.724G85X66.748Y-63.724
G05
X98.605Y-63.734G85X96.205Y-63.734
G05
X106.105Y-62.534G85X106.105Y-64.934
G05
M30
