G04 #@! TF.GenerationSoftware,KiCad,Pcbnew,9.0.0*
G04 #@! TF.CreationDate,2025-04-24T15:57:18+07:00*
G04 #@! TF.ProjectId,Bo_Tom_V3,426f5f54-6f6d-45f5-9633-2e6b69636164,rev?*
G04 #@! TF.SameCoordinates,Original*
G04 #@! TF.FileFunction,Legend,Top*
G04 #@! TF.FilePolarity,Positive*
%FSLAX46Y46*%
G04 Gerber Fmt 4.6, Leading zero omitted, Abs format (unit mm)*
G04 Created by KiCad (PCBNEW 9.0.0) date 2025-04-24 15:57:18*
%MOMM*%
%LPD*%
G01*
G04 APERTURE LIST*
G04 Aperture macros list*
%AMRoundRect*
0 Rectangle with rounded corners*
0 $1 Rounding radius*
0 $2 $3 $4 $5 $6 $7 $8 $9 X,Y pos of 4 corners*
0 Add a 4 corners polygon primitive as box body*
4,1,4,$2,$3,$4,$5,$6,$7,$8,$9,$2,$3,0*
0 Add four circle primitives for the rounded corners*
1,1,$1+$1,$2,$3*
1,1,$1+$1,$4,$5*
1,1,$1+$1,$6,$7*
1,1,$1+$1,$8,$9*
0 Add four rect primitives between the rounded corners*
20,1,$1+$1,$2,$3,$4,$5,0*
20,1,$1+$1,$4,$5,$6,$7,0*
20,1,$1+$1,$6,$7,$8,$9,0*
20,1,$1+$1,$8,$9,$2,$3,0*%
G04 Aperture macros list end*
%ADD10C,0.150000*%
%ADD11C,0.200000*%
%ADD12C,0.300000*%
%ADD13C,0.100000*%
%ADD14C,0.120000*%
%ADD15C,0.250000*%
%ADD16C,0.000000*%
%ADD17C,0.127000*%
%ADD18C,0.050000*%
%ADD19RoundRect,0.200000X-0.275000X0.200000X-0.275000X-0.200000X0.275000X-0.200000X0.275000X0.200000X0*%
%ADD20RoundRect,0.150000X0.350000X0.525000X-0.350000X0.525000X-0.350000X-0.525000X0.350000X-0.525000X0*%
%ADD21C,2.400000*%
%ADD22RoundRect,0.225000X0.250000X-0.225000X0.250000X0.225000X-0.250000X0.225000X-0.250000X-0.225000X0*%
%ADD23C,3.000000*%
%ADD24RoundRect,0.127500X0.322500X-0.297500X0.322500X0.297500X-0.322500X0.297500X-0.322500X-0.297500X0*%
%ADD25R,1.700000X1.700000*%
%ADD26O,1.700000X1.700000*%
%ADD27RoundRect,0.130050X1.076950X0.736950X-1.076950X0.736950X-1.076950X-0.736950X1.076950X-0.736950X0*%
%ADD28RoundRect,0.250000X0.850000X0.350000X-0.850000X0.350000X-0.850000X-0.350000X0.850000X-0.350000X0*%
%ADD29RoundRect,0.249997X2.950003X2.650003X-2.950003X2.650003X-2.950003X-2.650003X2.950003X-2.650003X0*%
%ADD30RoundRect,0.250001X-0.949999X-0.949999X0.949999X-0.949999X0.949999X0.949999X-0.949999X0.949999X0*%
%ADD31RoundRect,0.166667X-0.708333X0.083333X-0.708333X-0.083333X0.708333X-0.083333X0.708333X0.083333X0*%
%ADD32C,1.700000*%
%ADD33RoundRect,0.200000X-0.200000X-0.275000X0.200000X-0.275000X0.200000X0.275000X-0.200000X0.275000X0*%
%ADD34C,1.600000*%
%ADD35RoundRect,0.250001X-0.949999X0.949999X-0.949999X-0.949999X0.949999X-0.949999X0.949999X0.949999X0*%
%ADD36R,1.600000X1.600000*%
%ADD37O,1.600000X1.600000*%
%ADD38RoundRect,0.102000X-0.780000X-0.205000X0.780000X-0.205000X0.780000X0.205000X-0.780000X0.205000X0*%
%ADD39C,2.500000*%
%ADD40RoundRect,0.150000X-0.150000X0.587500X-0.150000X-0.587500X0.150000X-0.587500X0.150000X0.587500X0*%
%ADD41RoundRect,0.225000X-0.225000X-0.250000X0.225000X-0.250000X0.225000X0.250000X-0.225000X0.250000X0*%
%ADD42RoundRect,0.101750X-0.850250X-0.305250X0.850250X-0.305250X0.850250X0.305250X-0.850250X0.305250X0*%
%ADD43RoundRect,0.200000X0.275000X-0.200000X0.275000X0.200000X-0.275000X0.200000X-0.275000X-0.200000X0*%
%ADD44R,1.905000X2.000000*%
%ADD45O,1.905000X2.000000*%
%ADD46RoundRect,0.127500X0.297500X0.322500X-0.297500X0.322500X-0.297500X-0.322500X0.297500X-0.322500X0*%
%ADD47RoundRect,0.130050X-0.736950X1.076950X-0.736950X-1.076950X0.736950X-1.076950X0.736950X1.076950X0*%
%ADD48RoundRect,0.130050X-1.076950X-0.736950X1.076950X-0.736950X1.076950X0.736950X-1.076950X0.736950X0*%
%ADD49RoundRect,0.127500X-0.322500X0.297500X-0.322500X-0.297500X0.322500X-0.297500X0.322500X0.297500X0*%
%ADD50RoundRect,0.375000X-0.375000X0.625000X-0.375000X-0.625000X0.375000X-0.625000X0.375000X0.625000X0*%
%ADD51RoundRect,0.500000X-1.400000X0.500000X-1.400000X-0.500000X1.400000X-0.500000X1.400000X0.500000X0*%
%ADD52R,3.200000X3.200000*%
%ADD53O,3.200000X3.200000*%
%ADD54RoundRect,0.200000X0.200000X0.275000X-0.200000X0.275000X-0.200000X-0.275000X0.200000X-0.275000X0*%
%ADD55RoundRect,0.443500X-0.723500X-0.443500X0.723500X-0.443500X0.723500X0.443500X-0.723500X0.443500X0*%
%ADD56RoundRect,0.127500X-0.297500X-0.322500X0.297500X-0.322500X0.297500X0.322500X-0.297500X0.322500X0*%
%ADD57R,2.800000X2.800000*%
%ADD58C,2.800000*%
%ADD59R,1.500000X1.500000*%
%ADD60C,1.500000*%
%ADD61C,2.300000*%
%ADD62C,1.000000*%
%ADD63C,3.000000*%
%ADD64C,2.500000*%
%ADD65C,2.000000*%
G04 APERTURE END LIST*
D10*
X92461219Y-95569066D02*
X91985028Y-95902399D01*
X92461219Y-96140494D02*
X91461219Y-96140494D01*
X91461219Y-96140494D02*
X91461219Y-95759542D01*
X91461219Y-95759542D02*
X91508838Y-95664304D01*
X91508838Y-95664304D02*
X91556457Y-95616685D01*
X91556457Y-95616685D02*
X91651695Y-95569066D01*
X91651695Y-95569066D02*
X91794552Y-95569066D01*
X91794552Y-95569066D02*
X91889790Y-95616685D01*
X91889790Y-95616685D02*
X91937409Y-95664304D01*
X91937409Y-95664304D02*
X91985028Y-95759542D01*
X91985028Y-95759542D02*
X91985028Y-96140494D01*
X91556457Y-95188113D02*
X91508838Y-95140494D01*
X91508838Y-95140494D02*
X91461219Y-95045256D01*
X91461219Y-95045256D02*
X91461219Y-94807161D01*
X91461219Y-94807161D02*
X91508838Y-94711923D01*
X91508838Y-94711923D02*
X91556457Y-94664304D01*
X91556457Y-94664304D02*
X91651695Y-94616685D01*
X91651695Y-94616685D02*
X91746933Y-94616685D01*
X91746933Y-94616685D02*
X91889790Y-94664304D01*
X91889790Y-94664304D02*
X92461219Y-95235732D01*
X92461219Y-95235732D02*
X92461219Y-94616685D01*
D11*
X88665067Y-126292895D02*
X88398400Y-125911942D01*
X88207924Y-126292895D02*
X88207924Y-125492895D01*
X88207924Y-125492895D02*
X88512686Y-125492895D01*
X88512686Y-125492895D02*
X88588876Y-125530990D01*
X88588876Y-125530990D02*
X88626971Y-125569085D01*
X88626971Y-125569085D02*
X88665067Y-125645276D01*
X88665067Y-125645276D02*
X88665067Y-125759561D01*
X88665067Y-125759561D02*
X88626971Y-125835752D01*
X88626971Y-125835752D02*
X88588876Y-125873847D01*
X88588876Y-125873847D02*
X88512686Y-125911942D01*
X88512686Y-125911942D02*
X88207924Y-125911942D01*
X89350781Y-125492895D02*
X89198400Y-125492895D01*
X89198400Y-125492895D02*
X89122209Y-125530990D01*
X89122209Y-125530990D02*
X89084114Y-125569085D01*
X89084114Y-125569085D02*
X89007924Y-125683371D01*
X89007924Y-125683371D02*
X88969828Y-125835752D01*
X88969828Y-125835752D02*
X88969828Y-126140514D01*
X88969828Y-126140514D02*
X89007924Y-126216704D01*
X89007924Y-126216704D02*
X89046019Y-126254800D01*
X89046019Y-126254800D02*
X89122209Y-126292895D01*
X89122209Y-126292895D02*
X89274590Y-126292895D01*
X89274590Y-126292895D02*
X89350781Y-126254800D01*
X89350781Y-126254800D02*
X89388876Y-126216704D01*
X89388876Y-126216704D02*
X89426971Y-126140514D01*
X89426971Y-126140514D02*
X89426971Y-125950038D01*
X89426971Y-125950038D02*
X89388876Y-125873847D01*
X89388876Y-125873847D02*
X89350781Y-125835752D01*
X89350781Y-125835752D02*
X89274590Y-125797657D01*
X89274590Y-125797657D02*
X89122209Y-125797657D01*
X89122209Y-125797657D02*
X89046019Y-125835752D01*
X89046019Y-125835752D02*
X89007924Y-125873847D01*
X89007924Y-125873847D02*
X88969828Y-125950038D01*
D12*
X78536172Y-54570957D02*
X78393315Y-54499528D01*
X78393315Y-54499528D02*
X78179029Y-54499528D01*
X78179029Y-54499528D02*
X77964743Y-54570957D01*
X77964743Y-54570957D02*
X77821886Y-54713814D01*
X77821886Y-54713814D02*
X77750457Y-54856671D01*
X77750457Y-54856671D02*
X77679029Y-55142385D01*
X77679029Y-55142385D02*
X77679029Y-55356671D01*
X77679029Y-55356671D02*
X77750457Y-55642385D01*
X77750457Y-55642385D02*
X77821886Y-55785242D01*
X77821886Y-55785242D02*
X77964743Y-55928100D01*
X77964743Y-55928100D02*
X78179029Y-55999528D01*
X78179029Y-55999528D02*
X78321886Y-55999528D01*
X78321886Y-55999528D02*
X78536172Y-55928100D01*
X78536172Y-55928100D02*
X78607600Y-55856671D01*
X78607600Y-55856671D02*
X78607600Y-55356671D01*
X78607600Y-55356671D02*
X78321886Y-55356671D01*
X79464743Y-54499528D02*
X79464743Y-54856671D01*
X79107600Y-54713814D02*
X79464743Y-54856671D01*
X79464743Y-54856671D02*
X79821886Y-54713814D01*
X79250457Y-55142385D02*
X79464743Y-54856671D01*
X79464743Y-54856671D02*
X79679029Y-55142385D01*
X80607600Y-54499528D02*
X80607600Y-54856671D01*
X80250457Y-54713814D02*
X80607600Y-54856671D01*
X80607600Y-54856671D02*
X80964743Y-54713814D01*
X80393314Y-55142385D02*
X80607600Y-54856671D01*
X80607600Y-54856671D02*
X80821886Y-55142385D01*
X81750457Y-54499528D02*
X81750457Y-54856671D01*
X81393314Y-54713814D02*
X81750457Y-54856671D01*
X81750457Y-54856671D02*
X82107600Y-54713814D01*
X81536171Y-55142385D02*
X81750457Y-54856671D01*
X81750457Y-54856671D02*
X81964743Y-55142385D01*
X78750456Y-55999528D02*
X78036170Y-55999528D01*
X78036170Y-55999528D02*
X78036170Y-54499528D01*
X79536171Y-54499528D02*
X79821885Y-54499528D01*
X79821885Y-54499528D02*
X79964742Y-54570957D01*
X79964742Y-54570957D02*
X80107599Y-54713814D01*
X80107599Y-54713814D02*
X80179028Y-54999528D01*
X80179028Y-54999528D02*
X80179028Y-55499528D01*
X80179028Y-55499528D02*
X80107599Y-55785242D01*
X80107599Y-55785242D02*
X79964742Y-55928100D01*
X79964742Y-55928100D02*
X79821885Y-55999528D01*
X79821885Y-55999528D02*
X79536171Y-55999528D01*
X79536171Y-55999528D02*
X79393314Y-55928100D01*
X79393314Y-55928100D02*
X79250456Y-55785242D01*
X79250456Y-55785242D02*
X79179028Y-55499528D01*
X79179028Y-55499528D02*
X79179028Y-54999528D01*
X79179028Y-54999528D02*
X79250456Y-54713814D01*
X79250456Y-54713814D02*
X79393314Y-54570957D01*
X79393314Y-54570957D02*
X79536171Y-54499528D01*
X81607600Y-54570957D02*
X81464743Y-54499528D01*
X81464743Y-54499528D02*
X81250457Y-54499528D01*
X81250457Y-54499528D02*
X81036171Y-54570957D01*
X81036171Y-54570957D02*
X80893314Y-54713814D01*
X80893314Y-54713814D02*
X80821885Y-54856671D01*
X80821885Y-54856671D02*
X80750457Y-55142385D01*
X80750457Y-55142385D02*
X80750457Y-55356671D01*
X80750457Y-55356671D02*
X80821885Y-55642385D01*
X80821885Y-55642385D02*
X80893314Y-55785242D01*
X80893314Y-55785242D02*
X81036171Y-55928100D01*
X81036171Y-55928100D02*
X81250457Y-55999528D01*
X81250457Y-55999528D02*
X81393314Y-55999528D01*
X81393314Y-55999528D02*
X81607600Y-55928100D01*
X81607600Y-55928100D02*
X81679028Y-55856671D01*
X81679028Y-55856671D02*
X81679028Y-55356671D01*
X81679028Y-55356671D02*
X81393314Y-55356671D01*
X82607600Y-54499528D02*
X82893314Y-54499528D01*
X82893314Y-54499528D02*
X83036171Y-54570957D01*
X83036171Y-54570957D02*
X83179028Y-54713814D01*
X83179028Y-54713814D02*
X83250457Y-54999528D01*
X83250457Y-54999528D02*
X83250457Y-55499528D01*
X83250457Y-55499528D02*
X83179028Y-55785242D01*
X83179028Y-55785242D02*
X83036171Y-55928100D01*
X83036171Y-55928100D02*
X82893314Y-55999528D01*
X82893314Y-55999528D02*
X82607600Y-55999528D01*
X82607600Y-55999528D02*
X82464743Y-55928100D01*
X82464743Y-55928100D02*
X82321885Y-55785242D01*
X82321885Y-55785242D02*
X82250457Y-55499528D01*
X82250457Y-55499528D02*
X82250457Y-54999528D01*
X82250457Y-54999528D02*
X82321885Y-54713814D01*
X82321885Y-54713814D02*
X82464743Y-54570957D01*
X82464743Y-54570957D02*
X82607600Y-54499528D01*
D10*
X116771009Y-124031333D02*
X116771009Y-124364666D01*
X117294819Y-124364666D02*
X116294819Y-124364666D01*
X116294819Y-124364666D02*
X116294819Y-123888476D01*
X117294819Y-122983714D02*
X117294819Y-123555142D01*
X117294819Y-123269428D02*
X116294819Y-123269428D01*
X116294819Y-123269428D02*
X116437676Y-123364666D01*
X116437676Y-123364666D02*
X116532914Y-123459904D01*
X116532914Y-123459904D02*
X116580533Y-123555142D01*
X70615980Y-76379666D02*
X70663600Y-76427285D01*
X70663600Y-76427285D02*
X70711219Y-76570142D01*
X70711219Y-76570142D02*
X70711219Y-76665380D01*
X70711219Y-76665380D02*
X70663600Y-76808237D01*
X70663600Y-76808237D02*
X70568361Y-76903475D01*
X70568361Y-76903475D02*
X70473123Y-76951094D01*
X70473123Y-76951094D02*
X70282647Y-76998713D01*
X70282647Y-76998713D02*
X70139790Y-76998713D01*
X70139790Y-76998713D02*
X69949314Y-76951094D01*
X69949314Y-76951094D02*
X69854076Y-76903475D01*
X69854076Y-76903475D02*
X69758838Y-76808237D01*
X69758838Y-76808237D02*
X69711219Y-76665380D01*
X69711219Y-76665380D02*
X69711219Y-76570142D01*
X69711219Y-76570142D02*
X69758838Y-76427285D01*
X69758838Y-76427285D02*
X69806457Y-76379666D01*
X70044552Y-75522523D02*
X70711219Y-75522523D01*
X69663600Y-75760618D02*
X70377885Y-75998713D01*
X70377885Y-75998713D02*
X70377885Y-75379666D01*
X42824495Y-31760819D02*
X42824495Y-30760819D01*
X42824495Y-31237009D02*
X43395923Y-31237009D01*
X43395923Y-31760819D02*
X43395923Y-30760819D01*
X43824495Y-30856057D02*
X43872114Y-30808438D01*
X43872114Y-30808438D02*
X43967352Y-30760819D01*
X43967352Y-30760819D02*
X44205447Y-30760819D01*
X44205447Y-30760819D02*
X44300685Y-30808438D01*
X44300685Y-30808438D02*
X44348304Y-30856057D01*
X44348304Y-30856057D02*
X44395923Y-30951295D01*
X44395923Y-30951295D02*
X44395923Y-31046533D01*
X44395923Y-31046533D02*
X44348304Y-31189390D01*
X44348304Y-31189390D02*
X43776876Y-31760819D01*
X43776876Y-31760819D02*
X44395923Y-31760819D01*
X94187180Y-75839857D02*
X94234800Y-75887476D01*
X94234800Y-75887476D02*
X94282419Y-76030333D01*
X94282419Y-76030333D02*
X94282419Y-76125571D01*
X94282419Y-76125571D02*
X94234800Y-76268428D01*
X94234800Y-76268428D02*
X94139561Y-76363666D01*
X94139561Y-76363666D02*
X94044323Y-76411285D01*
X94044323Y-76411285D02*
X93853847Y-76458904D01*
X93853847Y-76458904D02*
X93710990Y-76458904D01*
X93710990Y-76458904D02*
X93520514Y-76411285D01*
X93520514Y-76411285D02*
X93425276Y-76363666D01*
X93425276Y-76363666D02*
X93330038Y-76268428D01*
X93330038Y-76268428D02*
X93282419Y-76125571D01*
X93282419Y-76125571D02*
X93282419Y-76030333D01*
X93282419Y-76030333D02*
X93330038Y-75887476D01*
X93330038Y-75887476D02*
X93377657Y-75839857D01*
X94282419Y-74887476D02*
X94282419Y-75458904D01*
X94282419Y-75173190D02*
X93282419Y-75173190D01*
X93282419Y-75173190D02*
X93425276Y-75268428D01*
X93425276Y-75268428D02*
X93520514Y-75363666D01*
X93520514Y-75363666D02*
X93568133Y-75458904D01*
X93282419Y-74268428D02*
X93282419Y-74173190D01*
X93282419Y-74173190D02*
X93330038Y-74077952D01*
X93330038Y-74077952D02*
X93377657Y-74030333D01*
X93377657Y-74030333D02*
X93472895Y-73982714D01*
X93472895Y-73982714D02*
X93663371Y-73935095D01*
X93663371Y-73935095D02*
X93901466Y-73935095D01*
X93901466Y-73935095D02*
X94091942Y-73982714D01*
X94091942Y-73982714D02*
X94187180Y-74030333D01*
X94187180Y-74030333D02*
X94234800Y-74077952D01*
X94234800Y-74077952D02*
X94282419Y-74173190D01*
X94282419Y-74173190D02*
X94282419Y-74268428D01*
X94282419Y-74268428D02*
X94234800Y-74363666D01*
X94234800Y-74363666D02*
X94187180Y-74411285D01*
X94187180Y-74411285D02*
X94091942Y-74458904D01*
X94091942Y-74458904D02*
X93901466Y-74506523D01*
X93901466Y-74506523D02*
X93663371Y-74506523D01*
X93663371Y-74506523D02*
X93472895Y-74458904D01*
X93472895Y-74458904D02*
X93377657Y-74411285D01*
X93377657Y-74411285D02*
X93330038Y-74363666D01*
X93330038Y-74363666D02*
X93282419Y-74268428D01*
X78406666Y-66663219D02*
X78406666Y-67377504D01*
X78406666Y-67377504D02*
X78359047Y-67520361D01*
X78359047Y-67520361D02*
X78263809Y-67615600D01*
X78263809Y-67615600D02*
X78120952Y-67663219D01*
X78120952Y-67663219D02*
X78025714Y-67663219D01*
X79311428Y-66996552D02*
X79311428Y-67663219D01*
X79073333Y-66615600D02*
X78835238Y-67329885D01*
X78835238Y-67329885D02*
X79454285Y-67329885D01*
X46809409Y-93876831D02*
X46809409Y-92875075D01*
X46809409Y-92875075D02*
X47047922Y-92875075D01*
X47047922Y-92875075D02*
X47191030Y-92922778D01*
X47191030Y-92922778D02*
X47286436Y-93018183D01*
X47286436Y-93018183D02*
X47334138Y-93113589D01*
X47334138Y-93113589D02*
X47381841Y-93304399D01*
X47381841Y-93304399D02*
X47381841Y-93447507D01*
X47381841Y-93447507D02*
X47334138Y-93638318D01*
X47334138Y-93638318D02*
X47286436Y-93733723D01*
X47286436Y-93733723D02*
X47191030Y-93829129D01*
X47191030Y-93829129D02*
X47047922Y-93876831D01*
X47047922Y-93876831D02*
X46809409Y-93876831D01*
X47858868Y-93876831D02*
X48049678Y-93876831D01*
X48049678Y-93876831D02*
X48145084Y-93829129D01*
X48145084Y-93829129D02*
X48192786Y-93781426D01*
X48192786Y-93781426D02*
X48288192Y-93638318D01*
X48288192Y-93638318D02*
X48335894Y-93447507D01*
X48335894Y-93447507D02*
X48335894Y-93065886D01*
X48335894Y-93065886D02*
X48288192Y-92970481D01*
X48288192Y-92970481D02*
X48240489Y-92922778D01*
X48240489Y-92922778D02*
X48145084Y-92875075D01*
X48145084Y-92875075D02*
X47954273Y-92875075D01*
X47954273Y-92875075D02*
X47858868Y-92922778D01*
X47858868Y-92922778D02*
X47811165Y-92970481D01*
X47811165Y-92970481D02*
X47763462Y-93065886D01*
X47763462Y-93065886D02*
X47763462Y-93304399D01*
X47763462Y-93304399D02*
X47811165Y-93399805D01*
X47811165Y-93399805D02*
X47858868Y-93447507D01*
X47858868Y-93447507D02*
X47954273Y-93495210D01*
X47954273Y-93495210D02*
X48145084Y-93495210D01*
X48145084Y-93495210D02*
X48240489Y-93447507D01*
X48240489Y-93447507D02*
X48288192Y-93399805D01*
X48288192Y-93399805D02*
X48335894Y-93304399D01*
X50038095Y-67679219D02*
X50038095Y-68488742D01*
X50038095Y-68488742D02*
X50085714Y-68583980D01*
X50085714Y-68583980D02*
X50133333Y-68631600D01*
X50133333Y-68631600D02*
X50228571Y-68679219D01*
X50228571Y-68679219D02*
X50419047Y-68679219D01*
X50419047Y-68679219D02*
X50514285Y-68631600D01*
X50514285Y-68631600D02*
X50561904Y-68583980D01*
X50561904Y-68583980D02*
X50609523Y-68488742D01*
X50609523Y-68488742D02*
X50609523Y-67679219D01*
X50990476Y-67679219D02*
X51609523Y-67679219D01*
X51609523Y-67679219D02*
X51276190Y-68060171D01*
X51276190Y-68060171D02*
X51419047Y-68060171D01*
X51419047Y-68060171D02*
X51514285Y-68107790D01*
X51514285Y-68107790D02*
X51561904Y-68155409D01*
X51561904Y-68155409D02*
X51609523Y-68250647D01*
X51609523Y-68250647D02*
X51609523Y-68488742D01*
X51609523Y-68488742D02*
X51561904Y-68583980D01*
X51561904Y-68583980D02*
X51514285Y-68631600D01*
X51514285Y-68631600D02*
X51419047Y-68679219D01*
X51419047Y-68679219D02*
X51133333Y-68679219D01*
X51133333Y-68679219D02*
X51038095Y-68631600D01*
X51038095Y-68631600D02*
X50990476Y-68583980D01*
X59890819Y-95842057D02*
X59414628Y-96175390D01*
X59890819Y-96413485D02*
X58890819Y-96413485D01*
X58890819Y-96413485D02*
X58890819Y-96032533D01*
X58890819Y-96032533D02*
X58938438Y-95937295D01*
X58938438Y-95937295D02*
X58986057Y-95889676D01*
X58986057Y-95889676D02*
X59081295Y-95842057D01*
X59081295Y-95842057D02*
X59224152Y-95842057D01*
X59224152Y-95842057D02*
X59319390Y-95889676D01*
X59319390Y-95889676D02*
X59367009Y-95937295D01*
X59367009Y-95937295D02*
X59414628Y-96032533D01*
X59414628Y-96032533D02*
X59414628Y-96413485D01*
X59890819Y-94889676D02*
X59890819Y-95461104D01*
X59890819Y-95175390D02*
X58890819Y-95175390D01*
X58890819Y-95175390D02*
X59033676Y-95270628D01*
X59033676Y-95270628D02*
X59128914Y-95365866D01*
X59128914Y-95365866D02*
X59176533Y-95461104D01*
X58986057Y-94508723D02*
X58938438Y-94461104D01*
X58938438Y-94461104D02*
X58890819Y-94365866D01*
X58890819Y-94365866D02*
X58890819Y-94127771D01*
X58890819Y-94127771D02*
X58938438Y-94032533D01*
X58938438Y-94032533D02*
X58986057Y-93984914D01*
X58986057Y-93984914D02*
X59081295Y-93937295D01*
X59081295Y-93937295D02*
X59176533Y-93937295D01*
X59176533Y-93937295D02*
X59319390Y-93984914D01*
X59319390Y-93984914D02*
X59890819Y-94556342D01*
X59890819Y-94556342D02*
X59890819Y-93937295D01*
X87786380Y-49106057D02*
X87834000Y-49153676D01*
X87834000Y-49153676D02*
X87881619Y-49296533D01*
X87881619Y-49296533D02*
X87881619Y-49391771D01*
X87881619Y-49391771D02*
X87834000Y-49534628D01*
X87834000Y-49534628D02*
X87738761Y-49629866D01*
X87738761Y-49629866D02*
X87643523Y-49677485D01*
X87643523Y-49677485D02*
X87453047Y-49725104D01*
X87453047Y-49725104D02*
X87310190Y-49725104D01*
X87310190Y-49725104D02*
X87119714Y-49677485D01*
X87119714Y-49677485D02*
X87024476Y-49629866D01*
X87024476Y-49629866D02*
X86929238Y-49534628D01*
X86929238Y-49534628D02*
X86881619Y-49391771D01*
X86881619Y-49391771D02*
X86881619Y-49296533D01*
X86881619Y-49296533D02*
X86929238Y-49153676D01*
X86929238Y-49153676D02*
X86976857Y-49106057D01*
X87881619Y-48153676D02*
X87881619Y-48725104D01*
X87881619Y-48439390D02*
X86881619Y-48439390D01*
X86881619Y-48439390D02*
X87024476Y-48534628D01*
X87024476Y-48534628D02*
X87119714Y-48629866D01*
X87119714Y-48629866D02*
X87167333Y-48725104D01*
X86881619Y-47820342D02*
X86881619Y-47201295D01*
X86881619Y-47201295D02*
X87262571Y-47534628D01*
X87262571Y-47534628D02*
X87262571Y-47391771D01*
X87262571Y-47391771D02*
X87310190Y-47296533D01*
X87310190Y-47296533D02*
X87357809Y-47248914D01*
X87357809Y-47248914D02*
X87453047Y-47201295D01*
X87453047Y-47201295D02*
X87691142Y-47201295D01*
X87691142Y-47201295D02*
X87786380Y-47248914D01*
X87786380Y-47248914D02*
X87834000Y-47296533D01*
X87834000Y-47296533D02*
X87881619Y-47391771D01*
X87881619Y-47391771D02*
X87881619Y-47677485D01*
X87881619Y-47677485D02*
X87834000Y-47772723D01*
X87834000Y-47772723D02*
X87786380Y-47820342D01*
X47164666Y-119292019D02*
X47164666Y-120006304D01*
X47164666Y-120006304D02*
X47117047Y-120149161D01*
X47117047Y-120149161D02*
X47021809Y-120244400D01*
X47021809Y-120244400D02*
X46878952Y-120292019D01*
X46878952Y-120292019D02*
X46783714Y-120292019D01*
X48164666Y-120292019D02*
X47593238Y-120292019D01*
X47878952Y-120292019D02*
X47878952Y-119292019D01*
X47878952Y-119292019D02*
X47783714Y-119434876D01*
X47783714Y-119434876D02*
X47688476Y-119530114D01*
X47688476Y-119530114D02*
X47593238Y-119577733D01*
D13*
X117327914Y-77361619D02*
X117327914Y-76361619D01*
X117327914Y-76361619D02*
X117566009Y-76361619D01*
X117566009Y-76361619D02*
X117708866Y-76409238D01*
X117708866Y-76409238D02*
X117804104Y-76504476D01*
X117804104Y-76504476D02*
X117851723Y-76599714D01*
X117851723Y-76599714D02*
X117899342Y-76790190D01*
X117899342Y-76790190D02*
X117899342Y-76933047D01*
X117899342Y-76933047D02*
X117851723Y-77123523D01*
X117851723Y-77123523D02*
X117804104Y-77218761D01*
X117804104Y-77218761D02*
X117708866Y-77314000D01*
X117708866Y-77314000D02*
X117566009Y-77361619D01*
X117566009Y-77361619D02*
X117327914Y-77361619D01*
X118851723Y-77361619D02*
X118280295Y-77361619D01*
X118566009Y-77361619D02*
X118566009Y-76361619D01*
X118566009Y-76361619D02*
X118470771Y-76504476D01*
X118470771Y-76504476D02*
X118375533Y-76599714D01*
X118375533Y-76599714D02*
X118280295Y-76647333D01*
X119232676Y-76456857D02*
X119280295Y-76409238D01*
X119280295Y-76409238D02*
X119375533Y-76361619D01*
X119375533Y-76361619D02*
X119613628Y-76361619D01*
X119613628Y-76361619D02*
X119708866Y-76409238D01*
X119708866Y-76409238D02*
X119756485Y-76456857D01*
X119756485Y-76456857D02*
X119804104Y-76552095D01*
X119804104Y-76552095D02*
X119804104Y-76647333D01*
X119804104Y-76647333D02*
X119756485Y-76790190D01*
X119756485Y-76790190D02*
X119185057Y-77361619D01*
X119185057Y-77361619D02*
X119804104Y-77361619D01*
D10*
X56207409Y-90016031D02*
X56207409Y-89014275D01*
X56207409Y-89014275D02*
X56445922Y-89014275D01*
X56445922Y-89014275D02*
X56589030Y-89061978D01*
X56589030Y-89061978D02*
X56684436Y-89157383D01*
X56684436Y-89157383D02*
X56732138Y-89252789D01*
X56732138Y-89252789D02*
X56779841Y-89443599D01*
X56779841Y-89443599D02*
X56779841Y-89586707D01*
X56779841Y-89586707D02*
X56732138Y-89777518D01*
X56732138Y-89777518D02*
X56684436Y-89872923D01*
X56684436Y-89872923D02*
X56589030Y-89968329D01*
X56589030Y-89968329D02*
X56445922Y-90016031D01*
X56445922Y-90016031D02*
X56207409Y-90016031D01*
X57161462Y-89109681D02*
X57209165Y-89061978D01*
X57209165Y-89061978D02*
X57304570Y-89014275D01*
X57304570Y-89014275D02*
X57543084Y-89014275D01*
X57543084Y-89014275D02*
X57638489Y-89061978D01*
X57638489Y-89061978D02*
X57686192Y-89109681D01*
X57686192Y-89109681D02*
X57733894Y-89205086D01*
X57733894Y-89205086D02*
X57733894Y-89300491D01*
X57733894Y-89300491D02*
X57686192Y-89443599D01*
X57686192Y-89443599D02*
X57113760Y-90016031D01*
X57113760Y-90016031D02*
X57733894Y-90016031D01*
X117094095Y-31506819D02*
X117094095Y-30506819D01*
X117094095Y-30983009D02*
X117665523Y-30983009D01*
X117665523Y-31506819D02*
X117665523Y-30506819D01*
X118665523Y-31506819D02*
X118094095Y-31506819D01*
X118379809Y-31506819D02*
X118379809Y-30506819D01*
X118379809Y-30506819D02*
X118284571Y-30649676D01*
X118284571Y-30649676D02*
X118189333Y-30744914D01*
X118189333Y-30744914D02*
X118094095Y-30792533D01*
D11*
X88435695Y-60996666D02*
X89007123Y-60996666D01*
X89007123Y-60996666D02*
X89121409Y-61034761D01*
X89121409Y-61034761D02*
X89197600Y-61110952D01*
X89197600Y-61110952D02*
X89235695Y-61225237D01*
X89235695Y-61225237D02*
X89235695Y-61301428D01*
X88435695Y-60234761D02*
X88435695Y-60615713D01*
X88435695Y-60615713D02*
X88816647Y-60653809D01*
X88816647Y-60653809D02*
X88778552Y-60615713D01*
X88778552Y-60615713D02*
X88740457Y-60539523D01*
X88740457Y-60539523D02*
X88740457Y-60349047D01*
X88740457Y-60349047D02*
X88778552Y-60272856D01*
X88778552Y-60272856D02*
X88816647Y-60234761D01*
X88816647Y-60234761D02*
X88892838Y-60196666D01*
X88892838Y-60196666D02*
X89083314Y-60196666D01*
X89083314Y-60196666D02*
X89159504Y-60234761D01*
X89159504Y-60234761D02*
X89197600Y-60272856D01*
X89197600Y-60272856D02*
X89235695Y-60349047D01*
X89235695Y-60349047D02*
X89235695Y-60539523D01*
X89235695Y-60539523D02*
X89197600Y-60615713D01*
X89197600Y-60615713D02*
X89159504Y-60653809D01*
D10*
X87869733Y-92961619D02*
X87536400Y-92485428D01*
X87298305Y-92961619D02*
X87298305Y-91961619D01*
X87298305Y-91961619D02*
X87679257Y-91961619D01*
X87679257Y-91961619D02*
X87774495Y-92009238D01*
X87774495Y-92009238D02*
X87822114Y-92056857D01*
X87822114Y-92056857D02*
X87869733Y-92152095D01*
X87869733Y-92152095D02*
X87869733Y-92294952D01*
X87869733Y-92294952D02*
X87822114Y-92390190D01*
X87822114Y-92390190D02*
X87774495Y-92437809D01*
X87774495Y-92437809D02*
X87679257Y-92485428D01*
X87679257Y-92485428D02*
X87298305Y-92485428D01*
X88345924Y-92961619D02*
X88536400Y-92961619D01*
X88536400Y-92961619D02*
X88631638Y-92914000D01*
X88631638Y-92914000D02*
X88679257Y-92866380D01*
X88679257Y-92866380D02*
X88774495Y-92723523D01*
X88774495Y-92723523D02*
X88822114Y-92533047D01*
X88822114Y-92533047D02*
X88822114Y-92152095D01*
X88822114Y-92152095D02*
X88774495Y-92056857D01*
X88774495Y-92056857D02*
X88726876Y-92009238D01*
X88726876Y-92009238D02*
X88631638Y-91961619D01*
X88631638Y-91961619D02*
X88441162Y-91961619D01*
X88441162Y-91961619D02*
X88345924Y-92009238D01*
X88345924Y-92009238D02*
X88298305Y-92056857D01*
X88298305Y-92056857D02*
X88250686Y-92152095D01*
X88250686Y-92152095D02*
X88250686Y-92390190D01*
X88250686Y-92390190D02*
X88298305Y-92485428D01*
X88298305Y-92485428D02*
X88345924Y-92533047D01*
X88345924Y-92533047D02*
X88441162Y-92580666D01*
X88441162Y-92580666D02*
X88631638Y-92580666D01*
X88631638Y-92580666D02*
X88726876Y-92533047D01*
X88726876Y-92533047D02*
X88774495Y-92485428D01*
X88774495Y-92485428D02*
X88822114Y-92390190D01*
X89317533Y-121568380D02*
X89269914Y-121616000D01*
X89269914Y-121616000D02*
X89127057Y-121663619D01*
X89127057Y-121663619D02*
X89031819Y-121663619D01*
X89031819Y-121663619D02*
X88888962Y-121616000D01*
X88888962Y-121616000D02*
X88793724Y-121520761D01*
X88793724Y-121520761D02*
X88746105Y-121425523D01*
X88746105Y-121425523D02*
X88698486Y-121235047D01*
X88698486Y-121235047D02*
X88698486Y-121092190D01*
X88698486Y-121092190D02*
X88746105Y-120901714D01*
X88746105Y-120901714D02*
X88793724Y-120806476D01*
X88793724Y-120806476D02*
X88888962Y-120711238D01*
X88888962Y-120711238D02*
X89031819Y-120663619D01*
X89031819Y-120663619D02*
X89127057Y-120663619D01*
X89127057Y-120663619D02*
X89269914Y-120711238D01*
X89269914Y-120711238D02*
X89317533Y-120758857D01*
X89793724Y-121663619D02*
X89984200Y-121663619D01*
X89984200Y-121663619D02*
X90079438Y-121616000D01*
X90079438Y-121616000D02*
X90127057Y-121568380D01*
X90127057Y-121568380D02*
X90222295Y-121425523D01*
X90222295Y-121425523D02*
X90269914Y-121235047D01*
X90269914Y-121235047D02*
X90269914Y-120854095D01*
X90269914Y-120854095D02*
X90222295Y-120758857D01*
X90222295Y-120758857D02*
X90174676Y-120711238D01*
X90174676Y-120711238D02*
X90079438Y-120663619D01*
X90079438Y-120663619D02*
X89888962Y-120663619D01*
X89888962Y-120663619D02*
X89793724Y-120711238D01*
X89793724Y-120711238D02*
X89746105Y-120758857D01*
X89746105Y-120758857D02*
X89698486Y-120854095D01*
X89698486Y-120854095D02*
X89698486Y-121092190D01*
X89698486Y-121092190D02*
X89746105Y-121187428D01*
X89746105Y-121187428D02*
X89793724Y-121235047D01*
X89793724Y-121235047D02*
X89888962Y-121282666D01*
X89888962Y-121282666D02*
X90079438Y-121282666D01*
X90079438Y-121282666D02*
X90174676Y-121235047D01*
X90174676Y-121235047D02*
X90222295Y-121187428D01*
X90222295Y-121187428D02*
X90269914Y-121092190D01*
X60285333Y-74324380D02*
X60237714Y-74372000D01*
X60237714Y-74372000D02*
X60094857Y-74419619D01*
X60094857Y-74419619D02*
X59999619Y-74419619D01*
X59999619Y-74419619D02*
X59856762Y-74372000D01*
X59856762Y-74372000D02*
X59761524Y-74276761D01*
X59761524Y-74276761D02*
X59713905Y-74181523D01*
X59713905Y-74181523D02*
X59666286Y-73991047D01*
X59666286Y-73991047D02*
X59666286Y-73848190D01*
X59666286Y-73848190D02*
X59713905Y-73657714D01*
X59713905Y-73657714D02*
X59761524Y-73562476D01*
X59761524Y-73562476D02*
X59856762Y-73467238D01*
X59856762Y-73467238D02*
X59999619Y-73419619D01*
X59999619Y-73419619D02*
X60094857Y-73419619D01*
X60094857Y-73419619D02*
X60237714Y-73467238D01*
X60237714Y-73467238D02*
X60285333Y-73514857D01*
X60618667Y-73419619D02*
X61237714Y-73419619D01*
X61237714Y-73419619D02*
X60904381Y-73800571D01*
X60904381Y-73800571D02*
X61047238Y-73800571D01*
X61047238Y-73800571D02*
X61142476Y-73848190D01*
X61142476Y-73848190D02*
X61190095Y-73895809D01*
X61190095Y-73895809D02*
X61237714Y-73991047D01*
X61237714Y-73991047D02*
X61237714Y-74229142D01*
X61237714Y-74229142D02*
X61190095Y-74324380D01*
X61190095Y-74324380D02*
X61142476Y-74372000D01*
X61142476Y-74372000D02*
X61047238Y-74419619D01*
X61047238Y-74419619D02*
X60761524Y-74419619D01*
X60761524Y-74419619D02*
X60666286Y-74372000D01*
X60666286Y-74372000D02*
X60618667Y-74324380D01*
X109817566Y-121076419D02*
X109817566Y-121790704D01*
X109817566Y-121790704D02*
X109769947Y-121933561D01*
X109769947Y-121933561D02*
X109674709Y-122028800D01*
X109674709Y-122028800D02*
X109531852Y-122076419D01*
X109531852Y-122076419D02*
X109436614Y-122076419D01*
X110722328Y-121076419D02*
X110531852Y-121076419D01*
X110531852Y-121076419D02*
X110436614Y-121124038D01*
X110436614Y-121124038D02*
X110388995Y-121171657D01*
X110388995Y-121171657D02*
X110293757Y-121314514D01*
X110293757Y-121314514D02*
X110246138Y-121504990D01*
X110246138Y-121504990D02*
X110246138Y-121885942D01*
X110246138Y-121885942D02*
X110293757Y-121981180D01*
X110293757Y-121981180D02*
X110341376Y-122028800D01*
X110341376Y-122028800D02*
X110436614Y-122076419D01*
X110436614Y-122076419D02*
X110627090Y-122076419D01*
X110627090Y-122076419D02*
X110722328Y-122028800D01*
X110722328Y-122028800D02*
X110769947Y-121981180D01*
X110769947Y-121981180D02*
X110817566Y-121885942D01*
X110817566Y-121885942D02*
X110817566Y-121647847D01*
X110817566Y-121647847D02*
X110769947Y-121552609D01*
X110769947Y-121552609D02*
X110722328Y-121504990D01*
X110722328Y-121504990D02*
X110627090Y-121457371D01*
X110627090Y-121457371D02*
X110436614Y-121457371D01*
X110436614Y-121457371D02*
X110341376Y-121504990D01*
X110341376Y-121504990D02*
X110293757Y-121552609D01*
X110293757Y-121552609D02*
X110246138Y-121647847D01*
X70000019Y-127122085D02*
X69000019Y-127122085D01*
X69000019Y-127122085D02*
X69000019Y-126883990D01*
X69000019Y-126883990D02*
X69047638Y-126741133D01*
X69047638Y-126741133D02*
X69142876Y-126645895D01*
X69142876Y-126645895D02*
X69238114Y-126598276D01*
X69238114Y-126598276D02*
X69428590Y-126550657D01*
X69428590Y-126550657D02*
X69571447Y-126550657D01*
X69571447Y-126550657D02*
X69761923Y-126598276D01*
X69761923Y-126598276D02*
X69857161Y-126645895D01*
X69857161Y-126645895D02*
X69952400Y-126741133D01*
X69952400Y-126741133D02*
X70000019Y-126883990D01*
X70000019Y-126883990D02*
X70000019Y-127122085D01*
X70000019Y-125598276D02*
X70000019Y-126169704D01*
X70000019Y-125883990D02*
X69000019Y-125883990D01*
X69000019Y-125883990D02*
X69142876Y-125979228D01*
X69142876Y-125979228D02*
X69238114Y-126074466D01*
X69238114Y-126074466D02*
X69285733Y-126169704D01*
X69000019Y-124741133D02*
X69000019Y-124931609D01*
X69000019Y-124931609D02*
X69047638Y-125026847D01*
X69047638Y-125026847D02*
X69095257Y-125074466D01*
X69095257Y-125074466D02*
X69238114Y-125169704D01*
X69238114Y-125169704D02*
X69428590Y-125217323D01*
X69428590Y-125217323D02*
X69809542Y-125217323D01*
X69809542Y-125217323D02*
X69904780Y-125169704D01*
X69904780Y-125169704D02*
X69952400Y-125122085D01*
X69952400Y-125122085D02*
X70000019Y-125026847D01*
X70000019Y-125026847D02*
X70000019Y-124836371D01*
X70000019Y-124836371D02*
X69952400Y-124741133D01*
X69952400Y-124741133D02*
X69904780Y-124693514D01*
X69904780Y-124693514D02*
X69809542Y-124645895D01*
X69809542Y-124645895D02*
X69571447Y-124645895D01*
X69571447Y-124645895D02*
X69476209Y-124693514D01*
X69476209Y-124693514D02*
X69428590Y-124741133D01*
X69428590Y-124741133D02*
X69380971Y-124836371D01*
X69380971Y-124836371D02*
X69380971Y-125026847D01*
X69380971Y-125026847D02*
X69428590Y-125122085D01*
X69428590Y-125122085D02*
X69476209Y-125169704D01*
X69476209Y-125169704D02*
X69571447Y-125217323D01*
X44218266Y-82647619D02*
X44218266Y-83361904D01*
X44218266Y-83361904D02*
X44170647Y-83504761D01*
X44170647Y-83504761D02*
X44075409Y-83600000D01*
X44075409Y-83600000D02*
X43932552Y-83647619D01*
X43932552Y-83647619D02*
X43837314Y-83647619D01*
X44646838Y-82742857D02*
X44694457Y-82695238D01*
X44694457Y-82695238D02*
X44789695Y-82647619D01*
X44789695Y-82647619D02*
X45027790Y-82647619D01*
X45027790Y-82647619D02*
X45123028Y-82695238D01*
X45123028Y-82695238D02*
X45170647Y-82742857D01*
X45170647Y-82742857D02*
X45218266Y-82838095D01*
X45218266Y-82838095D02*
X45218266Y-82933333D01*
X45218266Y-82933333D02*
X45170647Y-83076190D01*
X45170647Y-83076190D02*
X44599219Y-83647619D01*
X44599219Y-83647619D02*
X45218266Y-83647619D01*
X103039942Y-92656819D02*
X102706609Y-92180628D01*
X102468514Y-92656819D02*
X102468514Y-91656819D01*
X102468514Y-91656819D02*
X102849466Y-91656819D01*
X102849466Y-91656819D02*
X102944704Y-91704438D01*
X102944704Y-91704438D02*
X102992323Y-91752057D01*
X102992323Y-91752057D02*
X103039942Y-91847295D01*
X103039942Y-91847295D02*
X103039942Y-91990152D01*
X103039942Y-91990152D02*
X102992323Y-92085390D01*
X102992323Y-92085390D02*
X102944704Y-92133009D01*
X102944704Y-92133009D02*
X102849466Y-92180628D01*
X102849466Y-92180628D02*
X102468514Y-92180628D01*
X103992323Y-92656819D02*
X103420895Y-92656819D01*
X103706609Y-92656819D02*
X103706609Y-91656819D01*
X103706609Y-91656819D02*
X103611371Y-91799676D01*
X103611371Y-91799676D02*
X103516133Y-91894914D01*
X103516133Y-91894914D02*
X103420895Y-91942533D01*
X104611371Y-91656819D02*
X104706609Y-91656819D01*
X104706609Y-91656819D02*
X104801847Y-91704438D01*
X104801847Y-91704438D02*
X104849466Y-91752057D01*
X104849466Y-91752057D02*
X104897085Y-91847295D01*
X104897085Y-91847295D02*
X104944704Y-92037771D01*
X104944704Y-92037771D02*
X104944704Y-92275866D01*
X104944704Y-92275866D02*
X104897085Y-92466342D01*
X104897085Y-92466342D02*
X104849466Y-92561580D01*
X104849466Y-92561580D02*
X104801847Y-92609200D01*
X104801847Y-92609200D02*
X104706609Y-92656819D01*
X104706609Y-92656819D02*
X104611371Y-92656819D01*
X104611371Y-92656819D02*
X104516133Y-92609200D01*
X104516133Y-92609200D02*
X104468514Y-92561580D01*
X104468514Y-92561580D02*
X104420895Y-92466342D01*
X104420895Y-92466342D02*
X104373276Y-92275866D01*
X104373276Y-92275866D02*
X104373276Y-92037771D01*
X104373276Y-92037771D02*
X104420895Y-91847295D01*
X104420895Y-91847295D02*
X104468514Y-91752057D01*
X104468514Y-91752057D02*
X104516133Y-91704438D01*
X104516133Y-91704438D02*
X104611371Y-91656819D01*
X84886895Y-78906019D02*
X84886895Y-79715542D01*
X84886895Y-79715542D02*
X84934514Y-79810780D01*
X84934514Y-79810780D02*
X84982133Y-79858400D01*
X84982133Y-79858400D02*
X85077371Y-79906019D01*
X85077371Y-79906019D02*
X85267847Y-79906019D01*
X85267847Y-79906019D02*
X85363085Y-79858400D01*
X85363085Y-79858400D02*
X85410704Y-79810780D01*
X85410704Y-79810780D02*
X85458323Y-79715542D01*
X85458323Y-79715542D02*
X85458323Y-78906019D01*
X86363085Y-79239352D02*
X86363085Y-79906019D01*
X86124990Y-78858400D02*
X85886895Y-79572685D01*
X85886895Y-79572685D02*
X86505942Y-79572685D01*
X76663519Y-109415428D02*
X76187328Y-109748761D01*
X76663519Y-109986856D02*
X75663519Y-109986856D01*
X75663519Y-109986856D02*
X75663519Y-109605904D01*
X75663519Y-109605904D02*
X75711138Y-109510666D01*
X75711138Y-109510666D02*
X75758757Y-109463047D01*
X75758757Y-109463047D02*
X75853995Y-109415428D01*
X75853995Y-109415428D02*
X75996852Y-109415428D01*
X75996852Y-109415428D02*
X76092090Y-109463047D01*
X76092090Y-109463047D02*
X76139709Y-109510666D01*
X76139709Y-109510666D02*
X76187328Y-109605904D01*
X76187328Y-109605904D02*
X76187328Y-109986856D01*
X76663519Y-108510666D02*
X76663519Y-108986856D01*
X76663519Y-108986856D02*
X75663519Y-108986856D01*
X75758757Y-108224951D02*
X75711138Y-108177332D01*
X75711138Y-108177332D02*
X75663519Y-108082094D01*
X75663519Y-108082094D02*
X75663519Y-107843999D01*
X75663519Y-107843999D02*
X75711138Y-107748761D01*
X75711138Y-107748761D02*
X75758757Y-107701142D01*
X75758757Y-107701142D02*
X75853995Y-107653523D01*
X75853995Y-107653523D02*
X75949233Y-107653523D01*
X75949233Y-107653523D02*
X76092090Y-107701142D01*
X76092090Y-107701142D02*
X76663519Y-108272570D01*
X76663519Y-108272570D02*
X76663519Y-107653523D01*
X44855719Y-109415428D02*
X44379528Y-109748761D01*
X44855719Y-109986856D02*
X43855719Y-109986856D01*
X43855719Y-109986856D02*
X43855719Y-109605904D01*
X43855719Y-109605904D02*
X43903338Y-109510666D01*
X43903338Y-109510666D02*
X43950957Y-109463047D01*
X43950957Y-109463047D02*
X44046195Y-109415428D01*
X44046195Y-109415428D02*
X44189052Y-109415428D01*
X44189052Y-109415428D02*
X44284290Y-109463047D01*
X44284290Y-109463047D02*
X44331909Y-109510666D01*
X44331909Y-109510666D02*
X44379528Y-109605904D01*
X44379528Y-109605904D02*
X44379528Y-109986856D01*
X44855719Y-108510666D02*
X44855719Y-108986856D01*
X44855719Y-108986856D02*
X43855719Y-108986856D01*
X44189052Y-107748761D02*
X44855719Y-107748761D01*
X43808100Y-107986856D02*
X44522385Y-108224951D01*
X44522385Y-108224951D02*
X44522385Y-107605904D01*
X56105809Y-78687631D02*
X56105809Y-77685875D01*
X56105809Y-77685875D02*
X56344322Y-77685875D01*
X56344322Y-77685875D02*
X56487430Y-77733578D01*
X56487430Y-77733578D02*
X56582836Y-77828983D01*
X56582836Y-77828983D02*
X56630538Y-77924389D01*
X56630538Y-77924389D02*
X56678241Y-78115199D01*
X56678241Y-78115199D02*
X56678241Y-78258307D01*
X56678241Y-78258307D02*
X56630538Y-78449118D01*
X56630538Y-78449118D02*
X56582836Y-78544523D01*
X56582836Y-78544523D02*
X56487430Y-78639929D01*
X56487430Y-78639929D02*
X56344322Y-78687631D01*
X56344322Y-78687631D02*
X56105809Y-78687631D01*
X57632294Y-78687631D02*
X57059862Y-78687631D01*
X57346078Y-78687631D02*
X57346078Y-77685875D01*
X57346078Y-77685875D02*
X57250673Y-77828983D01*
X57250673Y-77828983D02*
X57155268Y-77924389D01*
X57155268Y-77924389D02*
X57059862Y-77972091D01*
X73666361Y-99203657D02*
X73571123Y-99156038D01*
X73571123Y-99156038D02*
X73475885Y-99060800D01*
X73475885Y-99060800D02*
X73333028Y-98917942D01*
X73333028Y-98917942D02*
X73237790Y-98870323D01*
X73237790Y-98870323D02*
X73142552Y-98870323D01*
X73190171Y-99108419D02*
X73094933Y-99060800D01*
X73094933Y-99060800D02*
X72999695Y-98965561D01*
X72999695Y-98965561D02*
X72952076Y-98775085D01*
X72952076Y-98775085D02*
X72952076Y-98441752D01*
X72952076Y-98441752D02*
X72999695Y-98251276D01*
X72999695Y-98251276D02*
X73094933Y-98156038D01*
X73094933Y-98156038D02*
X73190171Y-98108419D01*
X73190171Y-98108419D02*
X73380647Y-98108419D01*
X73380647Y-98108419D02*
X73475885Y-98156038D01*
X73475885Y-98156038D02*
X73571123Y-98251276D01*
X73571123Y-98251276D02*
X73618742Y-98441752D01*
X73618742Y-98441752D02*
X73618742Y-98775085D01*
X73618742Y-98775085D02*
X73571123Y-98965561D01*
X73571123Y-98965561D02*
X73475885Y-99060800D01*
X73475885Y-99060800D02*
X73380647Y-99108419D01*
X73380647Y-99108419D02*
X73190171Y-99108419D01*
X73952076Y-98108419D02*
X74571123Y-98108419D01*
X74571123Y-98108419D02*
X74237790Y-98489371D01*
X74237790Y-98489371D02*
X74380647Y-98489371D01*
X74380647Y-98489371D02*
X74475885Y-98536990D01*
X74475885Y-98536990D02*
X74523504Y-98584609D01*
X74523504Y-98584609D02*
X74571123Y-98679847D01*
X74571123Y-98679847D02*
X74571123Y-98917942D01*
X74571123Y-98917942D02*
X74523504Y-99013180D01*
X74523504Y-99013180D02*
X74475885Y-99060800D01*
X74475885Y-99060800D02*
X74380647Y-99108419D01*
X74380647Y-99108419D02*
X74094933Y-99108419D01*
X74094933Y-99108419D02*
X73999695Y-99060800D01*
X73999695Y-99060800D02*
X73952076Y-99013180D01*
X77391933Y-78777848D02*
X77344314Y-78825468D01*
X77344314Y-78825468D02*
X77201457Y-78873087D01*
X77201457Y-78873087D02*
X77106219Y-78873087D01*
X77106219Y-78873087D02*
X76963362Y-78825468D01*
X76963362Y-78825468D02*
X76868124Y-78730229D01*
X76868124Y-78730229D02*
X76820505Y-78634991D01*
X76820505Y-78634991D02*
X76772886Y-78444515D01*
X76772886Y-78444515D02*
X76772886Y-78301658D01*
X76772886Y-78301658D02*
X76820505Y-78111182D01*
X76820505Y-78111182D02*
X76868124Y-78015944D01*
X76868124Y-78015944D02*
X76963362Y-77920706D01*
X76963362Y-77920706D02*
X77106219Y-77873087D01*
X77106219Y-77873087D02*
X77201457Y-77873087D01*
X77201457Y-77873087D02*
X77344314Y-77920706D01*
X77344314Y-77920706D02*
X77391933Y-77968325D01*
X78249076Y-77873087D02*
X78058600Y-77873087D01*
X78058600Y-77873087D02*
X77963362Y-77920706D01*
X77963362Y-77920706D02*
X77915743Y-77968325D01*
X77915743Y-77968325D02*
X77820505Y-78111182D01*
X77820505Y-78111182D02*
X77772886Y-78301658D01*
X77772886Y-78301658D02*
X77772886Y-78682610D01*
X77772886Y-78682610D02*
X77820505Y-78777848D01*
X77820505Y-78777848D02*
X77868124Y-78825468D01*
X77868124Y-78825468D02*
X77963362Y-78873087D01*
X77963362Y-78873087D02*
X78153838Y-78873087D01*
X78153838Y-78873087D02*
X78249076Y-78825468D01*
X78249076Y-78825468D02*
X78296695Y-78777848D01*
X78296695Y-78777848D02*
X78344314Y-78682610D01*
X78344314Y-78682610D02*
X78344314Y-78444515D01*
X78344314Y-78444515D02*
X78296695Y-78349277D01*
X78296695Y-78349277D02*
X78249076Y-78301658D01*
X78249076Y-78301658D02*
X78153838Y-78254039D01*
X78153838Y-78254039D02*
X77963362Y-78254039D01*
X77963362Y-78254039D02*
X77868124Y-78301658D01*
X77868124Y-78301658D02*
X77820505Y-78349277D01*
X77820505Y-78349277D02*
X77772886Y-78444515D01*
X67244933Y-82249180D02*
X67197314Y-82296800D01*
X67197314Y-82296800D02*
X67054457Y-82344419D01*
X67054457Y-82344419D02*
X66959219Y-82344419D01*
X66959219Y-82344419D02*
X66816362Y-82296800D01*
X66816362Y-82296800D02*
X66721124Y-82201561D01*
X66721124Y-82201561D02*
X66673505Y-82106323D01*
X66673505Y-82106323D02*
X66625886Y-81915847D01*
X66625886Y-81915847D02*
X66625886Y-81772990D01*
X66625886Y-81772990D02*
X66673505Y-81582514D01*
X66673505Y-81582514D02*
X66721124Y-81487276D01*
X66721124Y-81487276D02*
X66816362Y-81392038D01*
X66816362Y-81392038D02*
X66959219Y-81344419D01*
X66959219Y-81344419D02*
X67054457Y-81344419D01*
X67054457Y-81344419D02*
X67197314Y-81392038D01*
X67197314Y-81392038D02*
X67244933Y-81439657D01*
X67625886Y-81439657D02*
X67673505Y-81392038D01*
X67673505Y-81392038D02*
X67768743Y-81344419D01*
X67768743Y-81344419D02*
X68006838Y-81344419D01*
X68006838Y-81344419D02*
X68102076Y-81392038D01*
X68102076Y-81392038D02*
X68149695Y-81439657D01*
X68149695Y-81439657D02*
X68197314Y-81534895D01*
X68197314Y-81534895D02*
X68197314Y-81630133D01*
X68197314Y-81630133D02*
X68149695Y-81772990D01*
X68149695Y-81772990D02*
X67578267Y-82344419D01*
X67578267Y-82344419D02*
X68197314Y-82344419D01*
X114297619Y-74404457D02*
X113821428Y-74737790D01*
X114297619Y-74975885D02*
X113297619Y-74975885D01*
X113297619Y-74975885D02*
X113297619Y-74594933D01*
X113297619Y-74594933D02*
X113345238Y-74499695D01*
X113345238Y-74499695D02*
X113392857Y-74452076D01*
X113392857Y-74452076D02*
X113488095Y-74404457D01*
X113488095Y-74404457D02*
X113630952Y-74404457D01*
X113630952Y-74404457D02*
X113726190Y-74452076D01*
X113726190Y-74452076D02*
X113773809Y-74499695D01*
X113773809Y-74499695D02*
X113821428Y-74594933D01*
X113821428Y-74594933D02*
X113821428Y-74975885D01*
X113392857Y-74023504D02*
X113345238Y-73975885D01*
X113345238Y-73975885D02*
X113297619Y-73880647D01*
X113297619Y-73880647D02*
X113297619Y-73642552D01*
X113297619Y-73642552D02*
X113345238Y-73547314D01*
X113345238Y-73547314D02*
X113392857Y-73499695D01*
X113392857Y-73499695D02*
X113488095Y-73452076D01*
X113488095Y-73452076D02*
X113583333Y-73452076D01*
X113583333Y-73452076D02*
X113726190Y-73499695D01*
X113726190Y-73499695D02*
X114297619Y-74071123D01*
X114297619Y-74071123D02*
X114297619Y-73452076D01*
X113392857Y-73071123D02*
X113345238Y-73023504D01*
X113345238Y-73023504D02*
X113297619Y-72928266D01*
X113297619Y-72928266D02*
X113297619Y-72690171D01*
X113297619Y-72690171D02*
X113345238Y-72594933D01*
X113345238Y-72594933D02*
X113392857Y-72547314D01*
X113392857Y-72547314D02*
X113488095Y-72499695D01*
X113488095Y-72499695D02*
X113583333Y-72499695D01*
X113583333Y-72499695D02*
X113726190Y-72547314D01*
X113726190Y-72547314D02*
X114297619Y-73118742D01*
X114297619Y-73118742D02*
X114297619Y-72499695D01*
X57715161Y-98390857D02*
X57619923Y-98343238D01*
X57619923Y-98343238D02*
X57524685Y-98248000D01*
X57524685Y-98248000D02*
X57381828Y-98105142D01*
X57381828Y-98105142D02*
X57286590Y-98057523D01*
X57286590Y-98057523D02*
X57191352Y-98057523D01*
X57238971Y-98295619D02*
X57143733Y-98248000D01*
X57143733Y-98248000D02*
X57048495Y-98152761D01*
X57048495Y-98152761D02*
X57000876Y-97962285D01*
X57000876Y-97962285D02*
X57000876Y-97628952D01*
X57000876Y-97628952D02*
X57048495Y-97438476D01*
X57048495Y-97438476D02*
X57143733Y-97343238D01*
X57143733Y-97343238D02*
X57238971Y-97295619D01*
X57238971Y-97295619D02*
X57429447Y-97295619D01*
X57429447Y-97295619D02*
X57524685Y-97343238D01*
X57524685Y-97343238D02*
X57619923Y-97438476D01*
X57619923Y-97438476D02*
X57667542Y-97628952D01*
X57667542Y-97628952D02*
X57667542Y-97962285D01*
X57667542Y-97962285D02*
X57619923Y-98152761D01*
X57619923Y-98152761D02*
X57524685Y-98248000D01*
X57524685Y-98248000D02*
X57429447Y-98295619D01*
X57429447Y-98295619D02*
X57238971Y-98295619D01*
X58524685Y-97628952D02*
X58524685Y-98295619D01*
X58286590Y-97248000D02*
X58048495Y-97962285D01*
X58048495Y-97962285D02*
X58667542Y-97962285D01*
X92657219Y-109415428D02*
X92181028Y-109748761D01*
X92657219Y-109986856D02*
X91657219Y-109986856D01*
X91657219Y-109986856D02*
X91657219Y-109605904D01*
X91657219Y-109605904D02*
X91704838Y-109510666D01*
X91704838Y-109510666D02*
X91752457Y-109463047D01*
X91752457Y-109463047D02*
X91847695Y-109415428D01*
X91847695Y-109415428D02*
X91990552Y-109415428D01*
X91990552Y-109415428D02*
X92085790Y-109463047D01*
X92085790Y-109463047D02*
X92133409Y-109510666D01*
X92133409Y-109510666D02*
X92181028Y-109605904D01*
X92181028Y-109605904D02*
X92181028Y-109986856D01*
X92657219Y-108510666D02*
X92657219Y-108986856D01*
X92657219Y-108986856D02*
X91657219Y-108986856D01*
X92657219Y-107653523D02*
X92657219Y-108224951D01*
X92657219Y-107939237D02*
X91657219Y-107939237D01*
X91657219Y-107939237D02*
X91800076Y-108034475D01*
X91800076Y-108034475D02*
X91895314Y-108129713D01*
X91895314Y-108129713D02*
X91942933Y-108224951D01*
X76657295Y-34608419D02*
X76657295Y-35417942D01*
X76657295Y-35417942D02*
X76704914Y-35513180D01*
X76704914Y-35513180D02*
X76752533Y-35560800D01*
X76752533Y-35560800D02*
X76847771Y-35608419D01*
X76847771Y-35608419D02*
X77038247Y-35608419D01*
X77038247Y-35608419D02*
X77133485Y-35560800D01*
X77133485Y-35560800D02*
X77181104Y-35513180D01*
X77181104Y-35513180D02*
X77228723Y-35417942D01*
X77228723Y-35417942D02*
X77228723Y-34608419D01*
X77657295Y-34703657D02*
X77704914Y-34656038D01*
X77704914Y-34656038D02*
X77800152Y-34608419D01*
X77800152Y-34608419D02*
X78038247Y-34608419D01*
X78038247Y-34608419D02*
X78133485Y-34656038D01*
X78133485Y-34656038D02*
X78181104Y-34703657D01*
X78181104Y-34703657D02*
X78228723Y-34798895D01*
X78228723Y-34798895D02*
X78228723Y-34894133D01*
X78228723Y-34894133D02*
X78181104Y-35036990D01*
X78181104Y-35036990D02*
X77609676Y-35608419D01*
X77609676Y-35608419D02*
X78228723Y-35608419D01*
X110761542Y-76921019D02*
X110428209Y-76444828D01*
X110190114Y-76921019D02*
X110190114Y-75921019D01*
X110190114Y-75921019D02*
X110571066Y-75921019D01*
X110571066Y-75921019D02*
X110666304Y-75968638D01*
X110666304Y-75968638D02*
X110713923Y-76016257D01*
X110713923Y-76016257D02*
X110761542Y-76111495D01*
X110761542Y-76111495D02*
X110761542Y-76254352D01*
X110761542Y-76254352D02*
X110713923Y-76349590D01*
X110713923Y-76349590D02*
X110666304Y-76397209D01*
X110666304Y-76397209D02*
X110571066Y-76444828D01*
X110571066Y-76444828D02*
X110190114Y-76444828D01*
X111142495Y-76016257D02*
X111190114Y-75968638D01*
X111190114Y-75968638D02*
X111285352Y-75921019D01*
X111285352Y-75921019D02*
X111523447Y-75921019D01*
X111523447Y-75921019D02*
X111618685Y-75968638D01*
X111618685Y-75968638D02*
X111666304Y-76016257D01*
X111666304Y-76016257D02*
X111713923Y-76111495D01*
X111713923Y-76111495D02*
X111713923Y-76206733D01*
X111713923Y-76206733D02*
X111666304Y-76349590D01*
X111666304Y-76349590D02*
X111094876Y-76921019D01*
X111094876Y-76921019D02*
X111713923Y-76921019D01*
X112332971Y-75921019D02*
X112428209Y-75921019D01*
X112428209Y-75921019D02*
X112523447Y-75968638D01*
X112523447Y-75968638D02*
X112571066Y-76016257D01*
X112571066Y-76016257D02*
X112618685Y-76111495D01*
X112618685Y-76111495D02*
X112666304Y-76301971D01*
X112666304Y-76301971D02*
X112666304Y-76540066D01*
X112666304Y-76540066D02*
X112618685Y-76730542D01*
X112618685Y-76730542D02*
X112571066Y-76825780D01*
X112571066Y-76825780D02*
X112523447Y-76873400D01*
X112523447Y-76873400D02*
X112428209Y-76921019D01*
X112428209Y-76921019D02*
X112332971Y-76921019D01*
X112332971Y-76921019D02*
X112237733Y-76873400D01*
X112237733Y-76873400D02*
X112190114Y-76825780D01*
X112190114Y-76825780D02*
X112142495Y-76730542D01*
X112142495Y-76730542D02*
X112094876Y-76540066D01*
X112094876Y-76540066D02*
X112094876Y-76301971D01*
X112094876Y-76301971D02*
X112142495Y-76111495D01*
X112142495Y-76111495D02*
X112190114Y-76016257D01*
X112190114Y-76016257D02*
X112237733Y-75968638D01*
X112237733Y-75968638D02*
X112332971Y-75921019D01*
X71480323Y-120704209D02*
X71623180Y-120751828D01*
X71623180Y-120751828D02*
X71670799Y-120799447D01*
X71670799Y-120799447D02*
X71718418Y-120894685D01*
X71718418Y-120894685D02*
X71718418Y-121037542D01*
X71718418Y-121037542D02*
X71670799Y-121132780D01*
X71670799Y-121132780D02*
X71623180Y-121180400D01*
X71623180Y-121180400D02*
X71527942Y-121228019D01*
X71527942Y-121228019D02*
X71146990Y-121228019D01*
X71146990Y-121228019D02*
X71146990Y-120228019D01*
X71146990Y-120228019D02*
X71480323Y-120228019D01*
X71480323Y-120228019D02*
X71575561Y-120275638D01*
X71575561Y-120275638D02*
X71623180Y-120323257D01*
X71623180Y-120323257D02*
X71670799Y-120418495D01*
X71670799Y-120418495D02*
X71670799Y-120513733D01*
X71670799Y-120513733D02*
X71623180Y-120608971D01*
X71623180Y-120608971D02*
X71575561Y-120656590D01*
X71575561Y-120656590D02*
X71480323Y-120704209D01*
X71480323Y-120704209D02*
X71146990Y-120704209D01*
X72004133Y-120228019D02*
X72575561Y-120228019D01*
X72289847Y-121228019D02*
X72289847Y-120228019D01*
X72861276Y-120942304D02*
X73337466Y-120942304D01*
X72766038Y-121228019D02*
X73099371Y-120228019D01*
X73099371Y-120228019D02*
X73432704Y-121228019D01*
X74289847Y-121228019D02*
X73718419Y-121228019D01*
X74004133Y-121228019D02*
X74004133Y-120228019D01*
X74004133Y-120228019D02*
X73908895Y-120370876D01*
X73908895Y-120370876D02*
X73813657Y-120466114D01*
X73813657Y-120466114D02*
X73718419Y-120513733D01*
X74670800Y-120323257D02*
X74718419Y-120275638D01*
X74718419Y-120275638D02*
X74813657Y-120228019D01*
X74813657Y-120228019D02*
X75051752Y-120228019D01*
X75051752Y-120228019D02*
X75146990Y-120275638D01*
X75146990Y-120275638D02*
X75194609Y-120323257D01*
X75194609Y-120323257D02*
X75242228Y-120418495D01*
X75242228Y-120418495D02*
X75242228Y-120513733D01*
X75242228Y-120513733D02*
X75194609Y-120656590D01*
X75194609Y-120656590D02*
X74623181Y-121228019D01*
X74623181Y-121228019D02*
X75242228Y-121228019D01*
X67194133Y-85043180D02*
X67146514Y-85090800D01*
X67146514Y-85090800D02*
X67003657Y-85138419D01*
X67003657Y-85138419D02*
X66908419Y-85138419D01*
X66908419Y-85138419D02*
X66765562Y-85090800D01*
X66765562Y-85090800D02*
X66670324Y-84995561D01*
X66670324Y-84995561D02*
X66622705Y-84900323D01*
X66622705Y-84900323D02*
X66575086Y-84709847D01*
X66575086Y-84709847D02*
X66575086Y-84566990D01*
X66575086Y-84566990D02*
X66622705Y-84376514D01*
X66622705Y-84376514D02*
X66670324Y-84281276D01*
X66670324Y-84281276D02*
X66765562Y-84186038D01*
X66765562Y-84186038D02*
X66908419Y-84138419D01*
X66908419Y-84138419D02*
X67003657Y-84138419D01*
X67003657Y-84138419D02*
X67146514Y-84186038D01*
X67146514Y-84186038D02*
X67194133Y-84233657D01*
X68146514Y-85138419D02*
X67575086Y-85138419D01*
X67860800Y-85138419D02*
X67860800Y-84138419D01*
X67860800Y-84138419D02*
X67765562Y-84281276D01*
X67765562Y-84281276D02*
X67670324Y-84376514D01*
X67670324Y-84376514D02*
X67575086Y-84424133D01*
X83381867Y-127717895D02*
X83115200Y-127336942D01*
X82924724Y-127717895D02*
X82924724Y-126917895D01*
X82924724Y-126917895D02*
X83229486Y-126917895D01*
X83229486Y-126917895D02*
X83305676Y-126955990D01*
X83305676Y-126955990D02*
X83343771Y-126994085D01*
X83343771Y-126994085D02*
X83381867Y-127070276D01*
X83381867Y-127070276D02*
X83381867Y-127184561D01*
X83381867Y-127184561D02*
X83343771Y-127260752D01*
X83343771Y-127260752D02*
X83305676Y-127298847D01*
X83305676Y-127298847D02*
X83229486Y-127336942D01*
X83229486Y-127336942D02*
X82924724Y-127336942D01*
X84067581Y-127184561D02*
X84067581Y-127717895D01*
X83877105Y-126879800D02*
X83686628Y-127451228D01*
X83686628Y-127451228D02*
X84181867Y-127451228D01*
X82238504Y-122497867D02*
X82619457Y-122231200D01*
X82238504Y-122040724D02*
X83038504Y-122040724D01*
X83038504Y-122040724D02*
X83038504Y-122345486D01*
X83038504Y-122345486D02*
X83000409Y-122421676D01*
X83000409Y-122421676D02*
X82962314Y-122459771D01*
X82962314Y-122459771D02*
X82886123Y-122497867D01*
X82886123Y-122497867D02*
X82771838Y-122497867D01*
X82771838Y-122497867D02*
X82695647Y-122459771D01*
X82695647Y-122459771D02*
X82657552Y-122421676D01*
X82657552Y-122421676D02*
X82619457Y-122345486D01*
X82619457Y-122345486D02*
X82619457Y-122040724D01*
X83038504Y-122764533D02*
X83038504Y-123259771D01*
X83038504Y-123259771D02*
X82733742Y-122993105D01*
X82733742Y-122993105D02*
X82733742Y-123107390D01*
X82733742Y-123107390D02*
X82695647Y-123183581D01*
X82695647Y-123183581D02*
X82657552Y-123221676D01*
X82657552Y-123221676D02*
X82581361Y-123259771D01*
X82581361Y-123259771D02*
X82390885Y-123259771D01*
X82390885Y-123259771D02*
X82314695Y-123221676D01*
X82314695Y-123221676D02*
X82276600Y-123183581D01*
X82276600Y-123183581D02*
X82238504Y-123107390D01*
X82238504Y-123107390D02*
X82238504Y-122878819D01*
X82238504Y-122878819D02*
X82276600Y-122802628D01*
X82276600Y-122802628D02*
X82314695Y-122764533D01*
X75842019Y-95823066D02*
X75365828Y-96156399D01*
X75842019Y-96394494D02*
X74842019Y-96394494D01*
X74842019Y-96394494D02*
X74842019Y-96013542D01*
X74842019Y-96013542D02*
X74889638Y-95918304D01*
X74889638Y-95918304D02*
X74937257Y-95870685D01*
X74937257Y-95870685D02*
X75032495Y-95823066D01*
X75032495Y-95823066D02*
X75175352Y-95823066D01*
X75175352Y-95823066D02*
X75270590Y-95870685D01*
X75270590Y-95870685D02*
X75318209Y-95918304D01*
X75318209Y-95918304D02*
X75365828Y-96013542D01*
X75365828Y-96013542D02*
X75365828Y-96394494D01*
X74842019Y-94918304D02*
X74842019Y-95394494D01*
X74842019Y-95394494D02*
X75318209Y-95442113D01*
X75318209Y-95442113D02*
X75270590Y-95394494D01*
X75270590Y-95394494D02*
X75222971Y-95299256D01*
X75222971Y-95299256D02*
X75222971Y-95061161D01*
X75222971Y-95061161D02*
X75270590Y-94965923D01*
X75270590Y-94965923D02*
X75318209Y-94918304D01*
X75318209Y-94918304D02*
X75413447Y-94870685D01*
X75413447Y-94870685D02*
X75651542Y-94870685D01*
X75651542Y-94870685D02*
X75746780Y-94918304D01*
X75746780Y-94918304D02*
X75794400Y-94965923D01*
X75794400Y-94965923D02*
X75842019Y-95061161D01*
X75842019Y-95061161D02*
X75842019Y-95299256D01*
X75842019Y-95299256D02*
X75794400Y-95394494D01*
X75794400Y-95394494D02*
X75746780Y-95442113D01*
X119707409Y-103020831D02*
X119707409Y-102019075D01*
X119707409Y-102019075D02*
X119945922Y-102019075D01*
X119945922Y-102019075D02*
X120089030Y-102066778D01*
X120089030Y-102066778D02*
X120184436Y-102162183D01*
X120184436Y-102162183D02*
X120232138Y-102257589D01*
X120232138Y-102257589D02*
X120279841Y-102448399D01*
X120279841Y-102448399D02*
X120279841Y-102591507D01*
X120279841Y-102591507D02*
X120232138Y-102782318D01*
X120232138Y-102782318D02*
X120184436Y-102877723D01*
X120184436Y-102877723D02*
X120089030Y-102973129D01*
X120089030Y-102973129D02*
X119945922Y-103020831D01*
X119945922Y-103020831D02*
X119707409Y-103020831D01*
X121186192Y-102019075D02*
X120709165Y-102019075D01*
X120709165Y-102019075D02*
X120661462Y-102496102D01*
X120661462Y-102496102D02*
X120709165Y-102448399D01*
X120709165Y-102448399D02*
X120804570Y-102400697D01*
X120804570Y-102400697D02*
X121043084Y-102400697D01*
X121043084Y-102400697D02*
X121138489Y-102448399D01*
X121138489Y-102448399D02*
X121186192Y-102496102D01*
X121186192Y-102496102D02*
X121233894Y-102591507D01*
X121233894Y-102591507D02*
X121233894Y-102830021D01*
X121233894Y-102830021D02*
X121186192Y-102925426D01*
X121186192Y-102925426D02*
X121138489Y-102973129D01*
X121138489Y-102973129D02*
X121043084Y-103020831D01*
X121043084Y-103020831D02*
X120804570Y-103020831D01*
X120804570Y-103020831D02*
X120709165Y-102973129D01*
X120709165Y-102973129D02*
X120661462Y-102925426D01*
X107592019Y-95416666D02*
X107115828Y-95749999D01*
X107592019Y-95988094D02*
X106592019Y-95988094D01*
X106592019Y-95988094D02*
X106592019Y-95607142D01*
X106592019Y-95607142D02*
X106639638Y-95511904D01*
X106639638Y-95511904D02*
X106687257Y-95464285D01*
X106687257Y-95464285D02*
X106782495Y-95416666D01*
X106782495Y-95416666D02*
X106925352Y-95416666D01*
X106925352Y-95416666D02*
X107020590Y-95464285D01*
X107020590Y-95464285D02*
X107068209Y-95511904D01*
X107068209Y-95511904D02*
X107115828Y-95607142D01*
X107115828Y-95607142D02*
X107115828Y-95988094D01*
X107592019Y-94464285D02*
X107592019Y-95035713D01*
X107592019Y-94749999D02*
X106592019Y-94749999D01*
X106592019Y-94749999D02*
X106734876Y-94845237D01*
X106734876Y-94845237D02*
X106830114Y-94940475D01*
X106830114Y-94940475D02*
X106877733Y-95035713D01*
X85815942Y-37742019D02*
X85482609Y-37265828D01*
X85244514Y-37742019D02*
X85244514Y-36742019D01*
X85244514Y-36742019D02*
X85625466Y-36742019D01*
X85625466Y-36742019D02*
X85720704Y-36789638D01*
X85720704Y-36789638D02*
X85768323Y-36837257D01*
X85768323Y-36837257D02*
X85815942Y-36932495D01*
X85815942Y-36932495D02*
X85815942Y-37075352D01*
X85815942Y-37075352D02*
X85768323Y-37170590D01*
X85768323Y-37170590D02*
X85720704Y-37218209D01*
X85720704Y-37218209D02*
X85625466Y-37265828D01*
X85625466Y-37265828D02*
X85244514Y-37265828D01*
X86768323Y-37742019D02*
X86196895Y-37742019D01*
X86482609Y-37742019D02*
X86482609Y-36742019D01*
X86482609Y-36742019D02*
X86387371Y-36884876D01*
X86387371Y-36884876D02*
X86292133Y-36980114D01*
X86292133Y-36980114D02*
X86196895Y-37027733D01*
X87101657Y-36742019D02*
X87720704Y-36742019D01*
X87720704Y-36742019D02*
X87387371Y-37122971D01*
X87387371Y-37122971D02*
X87530228Y-37122971D01*
X87530228Y-37122971D02*
X87625466Y-37170590D01*
X87625466Y-37170590D02*
X87673085Y-37218209D01*
X87673085Y-37218209D02*
X87720704Y-37313447D01*
X87720704Y-37313447D02*
X87720704Y-37551542D01*
X87720704Y-37551542D02*
X87673085Y-37646780D01*
X87673085Y-37646780D02*
X87625466Y-37694400D01*
X87625466Y-37694400D02*
X87530228Y-37742019D01*
X87530228Y-37742019D02*
X87244514Y-37742019D01*
X87244514Y-37742019D02*
X87149276Y-37694400D01*
X87149276Y-37694400D02*
X87101657Y-37646780D01*
X72004514Y-76379666D02*
X72052134Y-76427285D01*
X72052134Y-76427285D02*
X72099753Y-76570142D01*
X72099753Y-76570142D02*
X72099753Y-76665380D01*
X72099753Y-76665380D02*
X72052134Y-76808237D01*
X72052134Y-76808237D02*
X71956895Y-76903475D01*
X71956895Y-76903475D02*
X71861657Y-76951094D01*
X71861657Y-76951094D02*
X71671181Y-76998713D01*
X71671181Y-76998713D02*
X71528324Y-76998713D01*
X71528324Y-76998713D02*
X71337848Y-76951094D01*
X71337848Y-76951094D02*
X71242610Y-76903475D01*
X71242610Y-76903475D02*
X71147372Y-76808237D01*
X71147372Y-76808237D02*
X71099753Y-76665380D01*
X71099753Y-76665380D02*
X71099753Y-76570142D01*
X71099753Y-76570142D02*
X71147372Y-76427285D01*
X71147372Y-76427285D02*
X71194991Y-76379666D01*
X71099753Y-75474904D02*
X71099753Y-75951094D01*
X71099753Y-75951094D02*
X71575943Y-75998713D01*
X71575943Y-75998713D02*
X71528324Y-75951094D01*
X71528324Y-75951094D02*
X71480705Y-75855856D01*
X71480705Y-75855856D02*
X71480705Y-75617761D01*
X71480705Y-75617761D02*
X71528324Y-75522523D01*
X71528324Y-75522523D02*
X71575943Y-75474904D01*
X71575943Y-75474904D02*
X71671181Y-75427285D01*
X71671181Y-75427285D02*
X71909276Y-75427285D01*
X71909276Y-75427285D02*
X72004514Y-75474904D01*
X72004514Y-75474904D02*
X72052134Y-75522523D01*
X72052134Y-75522523D02*
X72099753Y-75617761D01*
X72099753Y-75617761D02*
X72099753Y-75855856D01*
X72099753Y-75855856D02*
X72052134Y-75951094D01*
X72052134Y-75951094D02*
X72004514Y-75998713D01*
X102689066Y-121679619D02*
X102689066Y-122393904D01*
X102689066Y-122393904D02*
X102641447Y-122536761D01*
X102641447Y-122536761D02*
X102546209Y-122632000D01*
X102546209Y-122632000D02*
X102403352Y-122679619D01*
X102403352Y-122679619D02*
X102308114Y-122679619D01*
X103070019Y-121679619D02*
X103689066Y-121679619D01*
X103689066Y-121679619D02*
X103355733Y-122060571D01*
X103355733Y-122060571D02*
X103498590Y-122060571D01*
X103498590Y-122060571D02*
X103593828Y-122108190D01*
X103593828Y-122108190D02*
X103641447Y-122155809D01*
X103641447Y-122155809D02*
X103689066Y-122251047D01*
X103689066Y-122251047D02*
X103689066Y-122489142D01*
X103689066Y-122489142D02*
X103641447Y-122584380D01*
X103641447Y-122584380D02*
X103593828Y-122632000D01*
X103593828Y-122632000D02*
X103498590Y-122679619D01*
X103498590Y-122679619D02*
X103212876Y-122679619D01*
X103212876Y-122679619D02*
X103117638Y-122632000D01*
X103117638Y-122632000D02*
X103070019Y-122584380D01*
X114074761Y-80102857D02*
X113979523Y-80055238D01*
X113979523Y-80055238D02*
X113884285Y-79960000D01*
X113884285Y-79960000D02*
X113741428Y-79817142D01*
X113741428Y-79817142D02*
X113646190Y-79769523D01*
X113646190Y-79769523D02*
X113550952Y-79769523D01*
X113598571Y-80007619D02*
X113503333Y-79960000D01*
X113503333Y-79960000D02*
X113408095Y-79864761D01*
X113408095Y-79864761D02*
X113360476Y-79674285D01*
X113360476Y-79674285D02*
X113360476Y-79340952D01*
X113360476Y-79340952D02*
X113408095Y-79150476D01*
X113408095Y-79150476D02*
X113503333Y-79055238D01*
X113503333Y-79055238D02*
X113598571Y-79007619D01*
X113598571Y-79007619D02*
X113789047Y-79007619D01*
X113789047Y-79007619D02*
X113884285Y-79055238D01*
X113884285Y-79055238D02*
X113979523Y-79150476D01*
X113979523Y-79150476D02*
X114027142Y-79340952D01*
X114027142Y-79340952D02*
X114027142Y-79674285D01*
X114027142Y-79674285D02*
X113979523Y-79864761D01*
X113979523Y-79864761D02*
X113884285Y-79960000D01*
X113884285Y-79960000D02*
X113789047Y-80007619D01*
X113789047Y-80007619D02*
X113598571Y-80007619D01*
X114360476Y-79007619D02*
X115027142Y-79007619D01*
X115027142Y-79007619D02*
X114598571Y-80007619D01*
X56055009Y-86764831D02*
X56055009Y-85763075D01*
X56055009Y-85763075D02*
X56293522Y-85763075D01*
X56293522Y-85763075D02*
X56436630Y-85810778D01*
X56436630Y-85810778D02*
X56532036Y-85906183D01*
X56532036Y-85906183D02*
X56579738Y-86001589D01*
X56579738Y-86001589D02*
X56627441Y-86192399D01*
X56627441Y-86192399D02*
X56627441Y-86335507D01*
X56627441Y-86335507D02*
X56579738Y-86526318D01*
X56579738Y-86526318D02*
X56532036Y-86621723D01*
X56532036Y-86621723D02*
X56436630Y-86717129D01*
X56436630Y-86717129D02*
X56293522Y-86764831D01*
X56293522Y-86764831D02*
X56055009Y-86764831D01*
X56961360Y-85763075D02*
X57581494Y-85763075D01*
X57581494Y-85763075D02*
X57247576Y-86144697D01*
X57247576Y-86144697D02*
X57390684Y-86144697D01*
X57390684Y-86144697D02*
X57486089Y-86192399D01*
X57486089Y-86192399D02*
X57533792Y-86240102D01*
X57533792Y-86240102D02*
X57581494Y-86335507D01*
X57581494Y-86335507D02*
X57581494Y-86574021D01*
X57581494Y-86574021D02*
X57533792Y-86669426D01*
X57533792Y-86669426D02*
X57486089Y-86717129D01*
X57486089Y-86717129D02*
X57390684Y-86764831D01*
X57390684Y-86764831D02*
X57104468Y-86764831D01*
X57104468Y-86764831D02*
X57009062Y-86717129D01*
X57009062Y-86717129D02*
X56961360Y-86669426D01*
X70324742Y-93164819D02*
X69991409Y-92688628D01*
X69753314Y-93164819D02*
X69753314Y-92164819D01*
X69753314Y-92164819D02*
X70134266Y-92164819D01*
X70134266Y-92164819D02*
X70229504Y-92212438D01*
X70229504Y-92212438D02*
X70277123Y-92260057D01*
X70277123Y-92260057D02*
X70324742Y-92355295D01*
X70324742Y-92355295D02*
X70324742Y-92498152D01*
X70324742Y-92498152D02*
X70277123Y-92593390D01*
X70277123Y-92593390D02*
X70229504Y-92641009D01*
X70229504Y-92641009D02*
X70134266Y-92688628D01*
X70134266Y-92688628D02*
X69753314Y-92688628D01*
X71277123Y-93164819D02*
X70705695Y-93164819D01*
X70991409Y-93164819D02*
X70991409Y-92164819D01*
X70991409Y-92164819D02*
X70896171Y-92307676D01*
X70896171Y-92307676D02*
X70800933Y-92402914D01*
X70800933Y-92402914D02*
X70705695Y-92450533D01*
X72229504Y-93164819D02*
X71658076Y-93164819D01*
X71943790Y-93164819D02*
X71943790Y-92164819D01*
X71943790Y-92164819D02*
X71848552Y-92307676D01*
X71848552Y-92307676D02*
X71753314Y-92402914D01*
X71753314Y-92402914D02*
X71658076Y-92450533D01*
X77404933Y-80166380D02*
X77357314Y-80214000D01*
X77357314Y-80214000D02*
X77214457Y-80261619D01*
X77214457Y-80261619D02*
X77119219Y-80261619D01*
X77119219Y-80261619D02*
X76976362Y-80214000D01*
X76976362Y-80214000D02*
X76881124Y-80118761D01*
X76881124Y-80118761D02*
X76833505Y-80023523D01*
X76833505Y-80023523D02*
X76785886Y-79833047D01*
X76785886Y-79833047D02*
X76785886Y-79690190D01*
X76785886Y-79690190D02*
X76833505Y-79499714D01*
X76833505Y-79499714D02*
X76881124Y-79404476D01*
X76881124Y-79404476D02*
X76976362Y-79309238D01*
X76976362Y-79309238D02*
X77119219Y-79261619D01*
X77119219Y-79261619D02*
X77214457Y-79261619D01*
X77214457Y-79261619D02*
X77357314Y-79309238D01*
X77357314Y-79309238D02*
X77404933Y-79356857D01*
X77738267Y-79261619D02*
X78404933Y-79261619D01*
X78404933Y-79261619D02*
X77976362Y-80261619D01*
X81074419Y-76773066D02*
X80598228Y-77106399D01*
X81074419Y-77344494D02*
X80074419Y-77344494D01*
X80074419Y-77344494D02*
X80074419Y-76963542D01*
X80074419Y-76963542D02*
X80122038Y-76868304D01*
X80122038Y-76868304D02*
X80169657Y-76820685D01*
X80169657Y-76820685D02*
X80264895Y-76773066D01*
X80264895Y-76773066D02*
X80407752Y-76773066D01*
X80407752Y-76773066D02*
X80502990Y-76820685D01*
X80502990Y-76820685D02*
X80550609Y-76868304D01*
X80550609Y-76868304D02*
X80598228Y-76963542D01*
X80598228Y-76963542D02*
X80598228Y-77344494D01*
X80074419Y-76439732D02*
X80074419Y-75773066D01*
X80074419Y-75773066D02*
X81074419Y-76201637D01*
X86361180Y-49220657D02*
X86408800Y-49268276D01*
X86408800Y-49268276D02*
X86456419Y-49411133D01*
X86456419Y-49411133D02*
X86456419Y-49506371D01*
X86456419Y-49506371D02*
X86408800Y-49649228D01*
X86408800Y-49649228D02*
X86313561Y-49744466D01*
X86313561Y-49744466D02*
X86218323Y-49792085D01*
X86218323Y-49792085D02*
X86027847Y-49839704D01*
X86027847Y-49839704D02*
X85884990Y-49839704D01*
X85884990Y-49839704D02*
X85694514Y-49792085D01*
X85694514Y-49792085D02*
X85599276Y-49744466D01*
X85599276Y-49744466D02*
X85504038Y-49649228D01*
X85504038Y-49649228D02*
X85456419Y-49506371D01*
X85456419Y-49506371D02*
X85456419Y-49411133D01*
X85456419Y-49411133D02*
X85504038Y-49268276D01*
X85504038Y-49268276D02*
X85551657Y-49220657D01*
X86456419Y-48268276D02*
X86456419Y-48839704D01*
X86456419Y-48553990D02*
X85456419Y-48553990D01*
X85456419Y-48553990D02*
X85599276Y-48649228D01*
X85599276Y-48649228D02*
X85694514Y-48744466D01*
X85694514Y-48744466D02*
X85742133Y-48839704D01*
X85551657Y-47887323D02*
X85504038Y-47839704D01*
X85504038Y-47839704D02*
X85456419Y-47744466D01*
X85456419Y-47744466D02*
X85456419Y-47506371D01*
X85456419Y-47506371D02*
X85504038Y-47411133D01*
X85504038Y-47411133D02*
X85551657Y-47363514D01*
X85551657Y-47363514D02*
X85646895Y-47315895D01*
X85646895Y-47315895D02*
X85742133Y-47315895D01*
X85742133Y-47315895D02*
X85884990Y-47363514D01*
X85884990Y-47363514D02*
X86456419Y-47934942D01*
X86456419Y-47934942D02*
X86456419Y-47315895D01*
X60763119Y-109415428D02*
X60286928Y-109748761D01*
X60763119Y-109986856D02*
X59763119Y-109986856D01*
X59763119Y-109986856D02*
X59763119Y-109605904D01*
X59763119Y-109605904D02*
X59810738Y-109510666D01*
X59810738Y-109510666D02*
X59858357Y-109463047D01*
X59858357Y-109463047D02*
X59953595Y-109415428D01*
X59953595Y-109415428D02*
X60096452Y-109415428D01*
X60096452Y-109415428D02*
X60191690Y-109463047D01*
X60191690Y-109463047D02*
X60239309Y-109510666D01*
X60239309Y-109510666D02*
X60286928Y-109605904D01*
X60286928Y-109605904D02*
X60286928Y-109986856D01*
X60763119Y-108510666D02*
X60763119Y-108986856D01*
X60763119Y-108986856D02*
X59763119Y-108986856D01*
X59763119Y-108272570D02*
X59763119Y-107653523D01*
X59763119Y-107653523D02*
X60144071Y-107986856D01*
X60144071Y-107986856D02*
X60144071Y-107843999D01*
X60144071Y-107843999D02*
X60191690Y-107748761D01*
X60191690Y-107748761D02*
X60239309Y-107701142D01*
X60239309Y-107701142D02*
X60334547Y-107653523D01*
X60334547Y-107653523D02*
X60572642Y-107653523D01*
X60572642Y-107653523D02*
X60667880Y-107701142D01*
X60667880Y-107701142D02*
X60715500Y-107748761D01*
X60715500Y-107748761D02*
X60763119Y-107843999D01*
X60763119Y-107843999D02*
X60763119Y-108129713D01*
X60763119Y-108129713D02*
X60715500Y-108224951D01*
X60715500Y-108224951D02*
X60667880Y-108272570D01*
X56105809Y-82853231D02*
X56105809Y-81851475D01*
X56105809Y-81851475D02*
X56344322Y-81851475D01*
X56344322Y-81851475D02*
X56487430Y-81899178D01*
X56487430Y-81899178D02*
X56582836Y-81994583D01*
X56582836Y-81994583D02*
X56630538Y-82089989D01*
X56630538Y-82089989D02*
X56678241Y-82280799D01*
X56678241Y-82280799D02*
X56678241Y-82423907D01*
X56678241Y-82423907D02*
X56630538Y-82614718D01*
X56630538Y-82614718D02*
X56582836Y-82710123D01*
X56582836Y-82710123D02*
X56487430Y-82805529D01*
X56487430Y-82805529D02*
X56344322Y-82853231D01*
X56344322Y-82853231D02*
X56105809Y-82853231D01*
X57536889Y-82185394D02*
X57536889Y-82853231D01*
X57298376Y-81803773D02*
X57059862Y-82519313D01*
X57059862Y-82519313D02*
X57679997Y-82519313D01*
X78254609Y-94029231D02*
X78254609Y-93027475D01*
X78254609Y-93027475D02*
X78493122Y-93027475D01*
X78493122Y-93027475D02*
X78636230Y-93075178D01*
X78636230Y-93075178D02*
X78731636Y-93170583D01*
X78731636Y-93170583D02*
X78779338Y-93265989D01*
X78779338Y-93265989D02*
X78827041Y-93456799D01*
X78827041Y-93456799D02*
X78827041Y-93599907D01*
X78827041Y-93599907D02*
X78779338Y-93790718D01*
X78779338Y-93790718D02*
X78731636Y-93886123D01*
X78731636Y-93886123D02*
X78636230Y-93981529D01*
X78636230Y-93981529D02*
X78493122Y-94029231D01*
X78493122Y-94029231D02*
X78254609Y-94029231D01*
X79160960Y-93027475D02*
X79828797Y-93027475D01*
X79828797Y-93027475D02*
X79399473Y-94029231D01*
X73202895Y-89828019D02*
X73202895Y-90637542D01*
X73202895Y-90637542D02*
X73250514Y-90732780D01*
X73250514Y-90732780D02*
X73298133Y-90780400D01*
X73298133Y-90780400D02*
X73393371Y-90828019D01*
X73393371Y-90828019D02*
X73583847Y-90828019D01*
X73583847Y-90828019D02*
X73679085Y-90780400D01*
X73679085Y-90780400D02*
X73726704Y-90732780D01*
X73726704Y-90732780D02*
X73774323Y-90637542D01*
X73774323Y-90637542D02*
X73774323Y-89828019D01*
X74774323Y-90828019D02*
X74202895Y-90828019D01*
X74488609Y-90828019D02*
X74488609Y-89828019D01*
X74488609Y-89828019D02*
X74393371Y-89970876D01*
X74393371Y-89970876D02*
X74298133Y-90066114D01*
X74298133Y-90066114D02*
X74202895Y-90113733D01*
X90378114Y-90777219D02*
X90378114Y-89777219D01*
X90378114Y-89777219D02*
X90616209Y-89777219D01*
X90616209Y-89777219D02*
X90759066Y-89824838D01*
X90759066Y-89824838D02*
X90854304Y-89920076D01*
X90854304Y-89920076D02*
X90901923Y-90015314D01*
X90901923Y-90015314D02*
X90949542Y-90205790D01*
X90949542Y-90205790D02*
X90949542Y-90348647D01*
X90949542Y-90348647D02*
X90901923Y-90539123D01*
X90901923Y-90539123D02*
X90854304Y-90634361D01*
X90854304Y-90634361D02*
X90759066Y-90729600D01*
X90759066Y-90729600D02*
X90616209Y-90777219D01*
X90616209Y-90777219D02*
X90378114Y-90777219D01*
X91901923Y-90777219D02*
X91330495Y-90777219D01*
X91616209Y-90777219D02*
X91616209Y-89777219D01*
X91616209Y-89777219D02*
X91520971Y-89920076D01*
X91520971Y-89920076D02*
X91425733Y-90015314D01*
X91425733Y-90015314D02*
X91330495Y-90062933D01*
X92854304Y-90777219D02*
X92282876Y-90777219D01*
X92568590Y-90777219D02*
X92568590Y-89777219D01*
X92568590Y-89777219D02*
X92473352Y-89920076D01*
X92473352Y-89920076D02*
X92378114Y-90015314D01*
X92378114Y-90015314D02*
X92282876Y-90062933D01*
X94048342Y-79347219D02*
X93715009Y-78871028D01*
X93476914Y-79347219D02*
X93476914Y-78347219D01*
X93476914Y-78347219D02*
X93857866Y-78347219D01*
X93857866Y-78347219D02*
X93953104Y-78394838D01*
X93953104Y-78394838D02*
X94000723Y-78442457D01*
X94000723Y-78442457D02*
X94048342Y-78537695D01*
X94048342Y-78537695D02*
X94048342Y-78680552D01*
X94048342Y-78680552D02*
X94000723Y-78775790D01*
X94000723Y-78775790D02*
X93953104Y-78823409D01*
X93953104Y-78823409D02*
X93857866Y-78871028D01*
X93857866Y-78871028D02*
X93476914Y-78871028D01*
X95000723Y-79347219D02*
X94429295Y-79347219D01*
X94715009Y-79347219D02*
X94715009Y-78347219D01*
X94715009Y-78347219D02*
X94619771Y-78490076D01*
X94619771Y-78490076D02*
X94524533Y-78585314D01*
X94524533Y-78585314D02*
X94429295Y-78632933D01*
X95476914Y-79347219D02*
X95667390Y-79347219D01*
X95667390Y-79347219D02*
X95762628Y-79299600D01*
X95762628Y-79299600D02*
X95810247Y-79251980D01*
X95810247Y-79251980D02*
X95905485Y-79109123D01*
X95905485Y-79109123D02*
X95953104Y-78918647D01*
X95953104Y-78918647D02*
X95953104Y-78537695D01*
X95953104Y-78537695D02*
X95905485Y-78442457D01*
X95905485Y-78442457D02*
X95857866Y-78394838D01*
X95857866Y-78394838D02*
X95762628Y-78347219D01*
X95762628Y-78347219D02*
X95572152Y-78347219D01*
X95572152Y-78347219D02*
X95476914Y-78394838D01*
X95476914Y-78394838D02*
X95429295Y-78442457D01*
X95429295Y-78442457D02*
X95381676Y-78537695D01*
X95381676Y-78537695D02*
X95381676Y-78775790D01*
X95381676Y-78775790D02*
X95429295Y-78871028D01*
X95429295Y-78871028D02*
X95476914Y-78918647D01*
X95476914Y-78918647D02*
X95572152Y-78966266D01*
X95572152Y-78966266D02*
X95762628Y-78966266D01*
X95762628Y-78966266D02*
X95857866Y-78918647D01*
X95857866Y-78918647D02*
X95905485Y-78871028D01*
X95905485Y-78871028D02*
X95953104Y-78775790D01*
X115149333Y-86465580D02*
X115101714Y-86513200D01*
X115101714Y-86513200D02*
X114958857Y-86560819D01*
X114958857Y-86560819D02*
X114863619Y-86560819D01*
X114863619Y-86560819D02*
X114720762Y-86513200D01*
X114720762Y-86513200D02*
X114625524Y-86417961D01*
X114625524Y-86417961D02*
X114577905Y-86322723D01*
X114577905Y-86322723D02*
X114530286Y-86132247D01*
X114530286Y-86132247D02*
X114530286Y-85989390D01*
X114530286Y-85989390D02*
X114577905Y-85798914D01*
X114577905Y-85798914D02*
X114625524Y-85703676D01*
X114625524Y-85703676D02*
X114720762Y-85608438D01*
X114720762Y-85608438D02*
X114863619Y-85560819D01*
X114863619Y-85560819D02*
X114958857Y-85560819D01*
X114958857Y-85560819D02*
X115101714Y-85608438D01*
X115101714Y-85608438D02*
X115149333Y-85656057D01*
X115720762Y-85989390D02*
X115625524Y-85941771D01*
X115625524Y-85941771D02*
X115577905Y-85894152D01*
X115577905Y-85894152D02*
X115530286Y-85798914D01*
X115530286Y-85798914D02*
X115530286Y-85751295D01*
X115530286Y-85751295D02*
X115577905Y-85656057D01*
X115577905Y-85656057D02*
X115625524Y-85608438D01*
X115625524Y-85608438D02*
X115720762Y-85560819D01*
X115720762Y-85560819D02*
X115911238Y-85560819D01*
X115911238Y-85560819D02*
X116006476Y-85608438D01*
X116006476Y-85608438D02*
X116054095Y-85656057D01*
X116054095Y-85656057D02*
X116101714Y-85751295D01*
X116101714Y-85751295D02*
X116101714Y-85798914D01*
X116101714Y-85798914D02*
X116054095Y-85894152D01*
X116054095Y-85894152D02*
X116006476Y-85941771D01*
X116006476Y-85941771D02*
X115911238Y-85989390D01*
X115911238Y-85989390D02*
X115720762Y-85989390D01*
X115720762Y-85989390D02*
X115625524Y-86037009D01*
X115625524Y-86037009D02*
X115577905Y-86084628D01*
X115577905Y-86084628D02*
X115530286Y-86179866D01*
X115530286Y-86179866D02*
X115530286Y-86370342D01*
X115530286Y-86370342D02*
X115577905Y-86465580D01*
X115577905Y-86465580D02*
X115625524Y-86513200D01*
X115625524Y-86513200D02*
X115720762Y-86560819D01*
X115720762Y-86560819D02*
X115911238Y-86560819D01*
X115911238Y-86560819D02*
X116006476Y-86513200D01*
X116006476Y-86513200D02*
X116054095Y-86465580D01*
X116054095Y-86465580D02*
X116101714Y-86370342D01*
X116101714Y-86370342D02*
X116101714Y-86179866D01*
X116101714Y-86179866D02*
X116054095Y-86084628D01*
X116054095Y-86084628D02*
X116006476Y-86037009D01*
X116006476Y-86037009D02*
X115911238Y-85989390D01*
X79280104Y-77273085D02*
X79318200Y-77311181D01*
X79318200Y-77311181D02*
X79356295Y-77425466D01*
X79356295Y-77425466D02*
X79356295Y-77501657D01*
X79356295Y-77501657D02*
X79318200Y-77615943D01*
X79318200Y-77615943D02*
X79242009Y-77692133D01*
X79242009Y-77692133D02*
X79165819Y-77730228D01*
X79165819Y-77730228D02*
X79013438Y-77768324D01*
X79013438Y-77768324D02*
X78899152Y-77768324D01*
X78899152Y-77768324D02*
X78746771Y-77730228D01*
X78746771Y-77730228D02*
X78670580Y-77692133D01*
X78670580Y-77692133D02*
X78594390Y-77615943D01*
X78594390Y-77615943D02*
X78556295Y-77501657D01*
X78556295Y-77501657D02*
X78556295Y-77425466D01*
X78556295Y-77425466D02*
X78594390Y-77311181D01*
X78594390Y-77311181D02*
X78632485Y-77273085D01*
X79356295Y-76511181D02*
X79356295Y-76968324D01*
X79356295Y-76739752D02*
X78556295Y-76739752D01*
X78556295Y-76739752D02*
X78670580Y-76815943D01*
X78670580Y-76815943D02*
X78746771Y-76892133D01*
X78746771Y-76892133D02*
X78784866Y-76968324D01*
X79356295Y-75749276D02*
X79356295Y-76206419D01*
X79356295Y-75977847D02*
X78556295Y-75977847D01*
X78556295Y-75977847D02*
X78670580Y-76054038D01*
X78670580Y-76054038D02*
X78746771Y-76130228D01*
X78746771Y-76130228D02*
X78784866Y-76206419D01*
X101323295Y-71946419D02*
X101323295Y-72755942D01*
X101323295Y-72755942D02*
X101370914Y-72851180D01*
X101370914Y-72851180D02*
X101418533Y-72898800D01*
X101418533Y-72898800D02*
X101513771Y-72946419D01*
X101513771Y-72946419D02*
X101704247Y-72946419D01*
X101704247Y-72946419D02*
X101799485Y-72898800D01*
X101799485Y-72898800D02*
X101847104Y-72851180D01*
X101847104Y-72851180D02*
X101894723Y-72755942D01*
X101894723Y-72755942D02*
X101894723Y-71946419D01*
X102513771Y-72374990D02*
X102418533Y-72327371D01*
X102418533Y-72327371D02*
X102370914Y-72279752D01*
X102370914Y-72279752D02*
X102323295Y-72184514D01*
X102323295Y-72184514D02*
X102323295Y-72136895D01*
X102323295Y-72136895D02*
X102370914Y-72041657D01*
X102370914Y-72041657D02*
X102418533Y-71994038D01*
X102418533Y-71994038D02*
X102513771Y-71946419D01*
X102513771Y-71946419D02*
X102704247Y-71946419D01*
X102704247Y-71946419D02*
X102799485Y-71994038D01*
X102799485Y-71994038D02*
X102847104Y-72041657D01*
X102847104Y-72041657D02*
X102894723Y-72136895D01*
X102894723Y-72136895D02*
X102894723Y-72184514D01*
X102894723Y-72184514D02*
X102847104Y-72279752D01*
X102847104Y-72279752D02*
X102799485Y-72327371D01*
X102799485Y-72327371D02*
X102704247Y-72374990D01*
X102704247Y-72374990D02*
X102513771Y-72374990D01*
X102513771Y-72374990D02*
X102418533Y-72422609D01*
X102418533Y-72422609D02*
X102370914Y-72470228D01*
X102370914Y-72470228D02*
X102323295Y-72565466D01*
X102323295Y-72565466D02*
X102323295Y-72755942D01*
X102323295Y-72755942D02*
X102370914Y-72851180D01*
X102370914Y-72851180D02*
X102418533Y-72898800D01*
X102418533Y-72898800D02*
X102513771Y-72946419D01*
X102513771Y-72946419D02*
X102704247Y-72946419D01*
X102704247Y-72946419D02*
X102799485Y-72898800D01*
X102799485Y-72898800D02*
X102847104Y-72851180D01*
X102847104Y-72851180D02*
X102894723Y-72755942D01*
X102894723Y-72755942D02*
X102894723Y-72565466D01*
X102894723Y-72565466D02*
X102847104Y-72470228D01*
X102847104Y-72470228D02*
X102799485Y-72422609D01*
X102799485Y-72422609D02*
X102704247Y-72374990D01*
X93951809Y-94080031D02*
X93951809Y-93078275D01*
X93951809Y-93078275D02*
X94190322Y-93078275D01*
X94190322Y-93078275D02*
X94333430Y-93125978D01*
X94333430Y-93125978D02*
X94428836Y-93221383D01*
X94428836Y-93221383D02*
X94476538Y-93316789D01*
X94476538Y-93316789D02*
X94524241Y-93507599D01*
X94524241Y-93507599D02*
X94524241Y-93650707D01*
X94524241Y-93650707D02*
X94476538Y-93841518D01*
X94476538Y-93841518D02*
X94428836Y-93936923D01*
X94428836Y-93936923D02*
X94333430Y-94032329D01*
X94333430Y-94032329D02*
X94190322Y-94080031D01*
X94190322Y-94080031D02*
X93951809Y-94080031D01*
X95382889Y-93078275D02*
X95192078Y-93078275D01*
X95192078Y-93078275D02*
X95096673Y-93125978D01*
X95096673Y-93125978D02*
X95048970Y-93173681D01*
X95048970Y-93173681D02*
X94953565Y-93316789D01*
X94953565Y-93316789D02*
X94905862Y-93507599D01*
X94905862Y-93507599D02*
X94905862Y-93889221D01*
X94905862Y-93889221D02*
X94953565Y-93984626D01*
X94953565Y-93984626D02*
X95001268Y-94032329D01*
X95001268Y-94032329D02*
X95096673Y-94080031D01*
X95096673Y-94080031D02*
X95287484Y-94080031D01*
X95287484Y-94080031D02*
X95382889Y-94032329D01*
X95382889Y-94032329D02*
X95430592Y-93984626D01*
X95430592Y-93984626D02*
X95478294Y-93889221D01*
X95478294Y-93889221D02*
X95478294Y-93650707D01*
X95478294Y-93650707D02*
X95430592Y-93555302D01*
X95430592Y-93555302D02*
X95382889Y-93507599D01*
X95382889Y-93507599D02*
X95287484Y-93459897D01*
X95287484Y-93459897D02*
X95096673Y-93459897D01*
X95096673Y-93459897D02*
X95001268Y-93507599D01*
X95001268Y-93507599D02*
X94953565Y-93555302D01*
X94953565Y-93555302D02*
X94905862Y-93650707D01*
X54459942Y-92961619D02*
X54126609Y-92485428D01*
X53888514Y-92961619D02*
X53888514Y-91961619D01*
X53888514Y-91961619D02*
X54269466Y-91961619D01*
X54269466Y-91961619D02*
X54364704Y-92009238D01*
X54364704Y-92009238D02*
X54412323Y-92056857D01*
X54412323Y-92056857D02*
X54459942Y-92152095D01*
X54459942Y-92152095D02*
X54459942Y-92294952D01*
X54459942Y-92294952D02*
X54412323Y-92390190D01*
X54412323Y-92390190D02*
X54364704Y-92437809D01*
X54364704Y-92437809D02*
X54269466Y-92485428D01*
X54269466Y-92485428D02*
X53888514Y-92485428D01*
X55412323Y-92961619D02*
X54840895Y-92961619D01*
X55126609Y-92961619D02*
X55126609Y-91961619D01*
X55126609Y-91961619D02*
X55031371Y-92104476D01*
X55031371Y-92104476D02*
X54936133Y-92199714D01*
X54936133Y-92199714D02*
X54840895Y-92247333D01*
X56269466Y-92294952D02*
X56269466Y-92961619D01*
X56031371Y-91914000D02*
X55793276Y-92628285D01*
X55793276Y-92628285D02*
X56412323Y-92628285D01*
X76404266Y-74223180D02*
X76737599Y-74699371D01*
X76975694Y-74223180D02*
X76975694Y-75223180D01*
X76975694Y-75223180D02*
X76594742Y-75223180D01*
X76594742Y-75223180D02*
X76499504Y-75175561D01*
X76499504Y-75175561D02*
X76451885Y-75127942D01*
X76451885Y-75127942D02*
X76404266Y-75032704D01*
X76404266Y-75032704D02*
X76404266Y-74889847D01*
X76404266Y-74889847D02*
X76451885Y-74794609D01*
X76451885Y-74794609D02*
X76499504Y-74746990D01*
X76499504Y-74746990D02*
X76594742Y-74699371D01*
X76594742Y-74699371D02*
X76975694Y-74699371D01*
X75832837Y-74794609D02*
X75928075Y-74842228D01*
X75928075Y-74842228D02*
X75975694Y-74889847D01*
X75975694Y-74889847D02*
X76023313Y-74985085D01*
X76023313Y-74985085D02*
X76023313Y-75032704D01*
X76023313Y-75032704D02*
X75975694Y-75127942D01*
X75975694Y-75127942D02*
X75928075Y-75175561D01*
X75928075Y-75175561D02*
X75832837Y-75223180D01*
X75832837Y-75223180D02*
X75642361Y-75223180D01*
X75642361Y-75223180D02*
X75547123Y-75175561D01*
X75547123Y-75175561D02*
X75499504Y-75127942D01*
X75499504Y-75127942D02*
X75451885Y-75032704D01*
X75451885Y-75032704D02*
X75451885Y-74985085D01*
X75451885Y-74985085D02*
X75499504Y-74889847D01*
X75499504Y-74889847D02*
X75547123Y-74842228D01*
X75547123Y-74842228D02*
X75642361Y-74794609D01*
X75642361Y-74794609D02*
X75832837Y-74794609D01*
X75832837Y-74794609D02*
X75928075Y-74746990D01*
X75928075Y-74746990D02*
X75975694Y-74699371D01*
X75975694Y-74699371D02*
X76023313Y-74604133D01*
X76023313Y-74604133D02*
X76023313Y-74413657D01*
X76023313Y-74413657D02*
X75975694Y-74318419D01*
X75975694Y-74318419D02*
X75928075Y-74270800D01*
X75928075Y-74270800D02*
X75832837Y-74223180D01*
X75832837Y-74223180D02*
X75642361Y-74223180D01*
X75642361Y-74223180D02*
X75547123Y-74270800D01*
X75547123Y-74270800D02*
X75499504Y-74318419D01*
X75499504Y-74318419D02*
X75451885Y-74413657D01*
X75451885Y-74413657D02*
X75451885Y-74604133D01*
X75451885Y-74604133D02*
X75499504Y-74699371D01*
X75499504Y-74699371D02*
X75547123Y-74746990D01*
X75547123Y-74746990D02*
X75642361Y-74794609D01*
X90682914Y-80160019D02*
X90682914Y-79160019D01*
X90682914Y-79160019D02*
X90921009Y-79160019D01*
X90921009Y-79160019D02*
X91063866Y-79207638D01*
X91063866Y-79207638D02*
X91159104Y-79302876D01*
X91159104Y-79302876D02*
X91206723Y-79398114D01*
X91206723Y-79398114D02*
X91254342Y-79588590D01*
X91254342Y-79588590D02*
X91254342Y-79731447D01*
X91254342Y-79731447D02*
X91206723Y-79921923D01*
X91206723Y-79921923D02*
X91159104Y-80017161D01*
X91159104Y-80017161D02*
X91063866Y-80112400D01*
X91063866Y-80112400D02*
X90921009Y-80160019D01*
X90921009Y-80160019D02*
X90682914Y-80160019D01*
X92206723Y-80160019D02*
X91635295Y-80160019D01*
X91921009Y-80160019D02*
X91921009Y-79160019D01*
X91921009Y-79160019D02*
X91825771Y-79302876D01*
X91825771Y-79302876D02*
X91730533Y-79398114D01*
X91730533Y-79398114D02*
X91635295Y-79445733D01*
X92825771Y-79160019D02*
X92921009Y-79160019D01*
X92921009Y-79160019D02*
X93016247Y-79207638D01*
X93016247Y-79207638D02*
X93063866Y-79255257D01*
X93063866Y-79255257D02*
X93111485Y-79350495D01*
X93111485Y-79350495D02*
X93159104Y-79540971D01*
X93159104Y-79540971D02*
X93159104Y-79779066D01*
X93159104Y-79779066D02*
X93111485Y-79969542D01*
X93111485Y-79969542D02*
X93063866Y-80064780D01*
X93063866Y-80064780D02*
X93016247Y-80112400D01*
X93016247Y-80112400D02*
X92921009Y-80160019D01*
X92921009Y-80160019D02*
X92825771Y-80160019D01*
X92825771Y-80160019D02*
X92730533Y-80112400D01*
X92730533Y-80112400D02*
X92682914Y-80064780D01*
X92682914Y-80064780D02*
X92635295Y-79969542D01*
X92635295Y-79969542D02*
X92587676Y-79779066D01*
X92587676Y-79779066D02*
X92587676Y-79540971D01*
X92587676Y-79540971D02*
X92635295Y-79350495D01*
X92635295Y-79350495D02*
X92682914Y-79255257D01*
X92682914Y-79255257D02*
X92730533Y-79207638D01*
X92730533Y-79207638D02*
X92825771Y-79160019D01*
X88135619Y-42044857D02*
X87659428Y-42378190D01*
X88135619Y-42616285D02*
X87135619Y-42616285D01*
X87135619Y-42616285D02*
X87135619Y-42235333D01*
X87135619Y-42235333D02*
X87183238Y-42140095D01*
X87183238Y-42140095D02*
X87230857Y-42092476D01*
X87230857Y-42092476D02*
X87326095Y-42044857D01*
X87326095Y-42044857D02*
X87468952Y-42044857D01*
X87468952Y-42044857D02*
X87564190Y-42092476D01*
X87564190Y-42092476D02*
X87611809Y-42140095D01*
X87611809Y-42140095D02*
X87659428Y-42235333D01*
X87659428Y-42235333D02*
X87659428Y-42616285D01*
X88135619Y-41092476D02*
X88135619Y-41663904D01*
X88135619Y-41378190D02*
X87135619Y-41378190D01*
X87135619Y-41378190D02*
X87278476Y-41473428D01*
X87278476Y-41473428D02*
X87373714Y-41568666D01*
X87373714Y-41568666D02*
X87421333Y-41663904D01*
X87135619Y-40187714D02*
X87135619Y-40663904D01*
X87135619Y-40663904D02*
X87611809Y-40711523D01*
X87611809Y-40711523D02*
X87564190Y-40663904D01*
X87564190Y-40663904D02*
X87516571Y-40568666D01*
X87516571Y-40568666D02*
X87516571Y-40330571D01*
X87516571Y-40330571D02*
X87564190Y-40235333D01*
X87564190Y-40235333D02*
X87611809Y-40187714D01*
X87611809Y-40187714D02*
X87707047Y-40140095D01*
X87707047Y-40140095D02*
X87945142Y-40140095D01*
X87945142Y-40140095D02*
X88040380Y-40187714D01*
X88040380Y-40187714D02*
X88088000Y-40235333D01*
X88088000Y-40235333D02*
X88135619Y-40330571D01*
X88135619Y-40330571D02*
X88135619Y-40568666D01*
X88135619Y-40568666D02*
X88088000Y-40663904D01*
X88088000Y-40663904D02*
X88040380Y-40711523D01*
X109186742Y-72489219D02*
X108853409Y-72013028D01*
X108615314Y-72489219D02*
X108615314Y-71489219D01*
X108615314Y-71489219D02*
X108996266Y-71489219D01*
X108996266Y-71489219D02*
X109091504Y-71536838D01*
X109091504Y-71536838D02*
X109139123Y-71584457D01*
X109139123Y-71584457D02*
X109186742Y-71679695D01*
X109186742Y-71679695D02*
X109186742Y-71822552D01*
X109186742Y-71822552D02*
X109139123Y-71917790D01*
X109139123Y-71917790D02*
X109091504Y-71965409D01*
X109091504Y-71965409D02*
X108996266Y-72013028D01*
X108996266Y-72013028D02*
X108615314Y-72013028D01*
X109567695Y-71584457D02*
X109615314Y-71536838D01*
X109615314Y-71536838D02*
X109710552Y-71489219D01*
X109710552Y-71489219D02*
X109948647Y-71489219D01*
X109948647Y-71489219D02*
X110043885Y-71536838D01*
X110043885Y-71536838D02*
X110091504Y-71584457D01*
X110091504Y-71584457D02*
X110139123Y-71679695D01*
X110139123Y-71679695D02*
X110139123Y-71774933D01*
X110139123Y-71774933D02*
X110091504Y-71917790D01*
X110091504Y-71917790D02*
X109520076Y-72489219D01*
X109520076Y-72489219D02*
X110139123Y-72489219D01*
X111091504Y-72489219D02*
X110520076Y-72489219D01*
X110805790Y-72489219D02*
X110805790Y-71489219D01*
X110805790Y-71489219D02*
X110710552Y-71632076D01*
X110710552Y-71632076D02*
X110615314Y-71727314D01*
X110615314Y-71727314D02*
X110520076Y-71774933D01*
X105721161Y-98797257D02*
X105625923Y-98749638D01*
X105625923Y-98749638D02*
X105530685Y-98654400D01*
X105530685Y-98654400D02*
X105387828Y-98511542D01*
X105387828Y-98511542D02*
X105292590Y-98463923D01*
X105292590Y-98463923D02*
X105197352Y-98463923D01*
X105244971Y-98702019D02*
X105149733Y-98654400D01*
X105149733Y-98654400D02*
X105054495Y-98559161D01*
X105054495Y-98559161D02*
X105006876Y-98368685D01*
X105006876Y-98368685D02*
X105006876Y-98035352D01*
X105006876Y-98035352D02*
X105054495Y-97844876D01*
X105054495Y-97844876D02*
X105149733Y-97749638D01*
X105149733Y-97749638D02*
X105244971Y-97702019D01*
X105244971Y-97702019D02*
X105435447Y-97702019D01*
X105435447Y-97702019D02*
X105530685Y-97749638D01*
X105530685Y-97749638D02*
X105625923Y-97844876D01*
X105625923Y-97844876D02*
X105673542Y-98035352D01*
X105673542Y-98035352D02*
X105673542Y-98368685D01*
X105673542Y-98368685D02*
X105625923Y-98559161D01*
X105625923Y-98559161D02*
X105530685Y-98654400D01*
X105530685Y-98654400D02*
X105435447Y-98702019D01*
X105435447Y-98702019D02*
X105244971Y-98702019D01*
X106625923Y-98702019D02*
X106054495Y-98702019D01*
X106340209Y-98702019D02*
X106340209Y-97702019D01*
X106340209Y-97702019D02*
X106244971Y-97844876D01*
X106244971Y-97844876D02*
X106149733Y-97940114D01*
X106149733Y-97940114D02*
X106054495Y-97987733D01*
X62201809Y-94080031D02*
X62201809Y-93078275D01*
X62201809Y-93078275D02*
X62440322Y-93078275D01*
X62440322Y-93078275D02*
X62583430Y-93125978D01*
X62583430Y-93125978D02*
X62678836Y-93221383D01*
X62678836Y-93221383D02*
X62726538Y-93316789D01*
X62726538Y-93316789D02*
X62774241Y-93507599D01*
X62774241Y-93507599D02*
X62774241Y-93650707D01*
X62774241Y-93650707D02*
X62726538Y-93841518D01*
X62726538Y-93841518D02*
X62678836Y-93936923D01*
X62678836Y-93936923D02*
X62583430Y-94032329D01*
X62583430Y-94032329D02*
X62440322Y-94080031D01*
X62440322Y-94080031D02*
X62201809Y-94080031D01*
X63346673Y-93507599D02*
X63251268Y-93459897D01*
X63251268Y-93459897D02*
X63203565Y-93412194D01*
X63203565Y-93412194D02*
X63155862Y-93316789D01*
X63155862Y-93316789D02*
X63155862Y-93269086D01*
X63155862Y-93269086D02*
X63203565Y-93173681D01*
X63203565Y-93173681D02*
X63251268Y-93125978D01*
X63251268Y-93125978D02*
X63346673Y-93078275D01*
X63346673Y-93078275D02*
X63537484Y-93078275D01*
X63537484Y-93078275D02*
X63632889Y-93125978D01*
X63632889Y-93125978D02*
X63680592Y-93173681D01*
X63680592Y-93173681D02*
X63728294Y-93269086D01*
X63728294Y-93269086D02*
X63728294Y-93316789D01*
X63728294Y-93316789D02*
X63680592Y-93412194D01*
X63680592Y-93412194D02*
X63632889Y-93459897D01*
X63632889Y-93459897D02*
X63537484Y-93507599D01*
X63537484Y-93507599D02*
X63346673Y-93507599D01*
X63346673Y-93507599D02*
X63251268Y-93555302D01*
X63251268Y-93555302D02*
X63203565Y-93603005D01*
X63203565Y-93603005D02*
X63155862Y-93698410D01*
X63155862Y-93698410D02*
X63155862Y-93889221D01*
X63155862Y-93889221D02*
X63203565Y-93984626D01*
X63203565Y-93984626D02*
X63251268Y-94032329D01*
X63251268Y-94032329D02*
X63346673Y-94080031D01*
X63346673Y-94080031D02*
X63537484Y-94080031D01*
X63537484Y-94080031D02*
X63632889Y-94032329D01*
X63632889Y-94032329D02*
X63680592Y-93984626D01*
X63680592Y-93984626D02*
X63728294Y-93889221D01*
X63728294Y-93889221D02*
X63728294Y-93698410D01*
X63728294Y-93698410D02*
X63680592Y-93603005D01*
X63680592Y-93603005D02*
X63632889Y-93555302D01*
X63632889Y-93555302D02*
X63537484Y-93507599D01*
X90481161Y-98898857D02*
X90385923Y-98851238D01*
X90385923Y-98851238D02*
X90290685Y-98756000D01*
X90290685Y-98756000D02*
X90147828Y-98613142D01*
X90147828Y-98613142D02*
X90052590Y-98565523D01*
X90052590Y-98565523D02*
X89957352Y-98565523D01*
X90004971Y-98803619D02*
X89909733Y-98756000D01*
X89909733Y-98756000D02*
X89814495Y-98660761D01*
X89814495Y-98660761D02*
X89766876Y-98470285D01*
X89766876Y-98470285D02*
X89766876Y-98136952D01*
X89766876Y-98136952D02*
X89814495Y-97946476D01*
X89814495Y-97946476D02*
X89909733Y-97851238D01*
X89909733Y-97851238D02*
X90004971Y-97803619D01*
X90004971Y-97803619D02*
X90195447Y-97803619D01*
X90195447Y-97803619D02*
X90290685Y-97851238D01*
X90290685Y-97851238D02*
X90385923Y-97946476D01*
X90385923Y-97946476D02*
X90433542Y-98136952D01*
X90433542Y-98136952D02*
X90433542Y-98470285D01*
X90433542Y-98470285D02*
X90385923Y-98660761D01*
X90385923Y-98660761D02*
X90290685Y-98756000D01*
X90290685Y-98756000D02*
X90195447Y-98803619D01*
X90195447Y-98803619D02*
X90004971Y-98803619D01*
X90814495Y-97898857D02*
X90862114Y-97851238D01*
X90862114Y-97851238D02*
X90957352Y-97803619D01*
X90957352Y-97803619D02*
X91195447Y-97803619D01*
X91195447Y-97803619D02*
X91290685Y-97851238D01*
X91290685Y-97851238D02*
X91338304Y-97898857D01*
X91338304Y-97898857D02*
X91385923Y-97994095D01*
X91385923Y-97994095D02*
X91385923Y-98089333D01*
X91385923Y-98089333D02*
X91338304Y-98232190D01*
X91338304Y-98232190D02*
X90766876Y-98803619D01*
X90766876Y-98803619D02*
X91385923Y-98803619D01*
D13*
X117899380Y-105689314D02*
X118899380Y-105689314D01*
X118899380Y-105689314D02*
X118899380Y-105927409D01*
X118899380Y-105927409D02*
X118851761Y-106070266D01*
X118851761Y-106070266D02*
X118756523Y-106165504D01*
X118756523Y-106165504D02*
X118661285Y-106213123D01*
X118661285Y-106213123D02*
X118470809Y-106260742D01*
X118470809Y-106260742D02*
X118327952Y-106260742D01*
X118327952Y-106260742D02*
X118137476Y-106213123D01*
X118137476Y-106213123D02*
X118042238Y-106165504D01*
X118042238Y-106165504D02*
X117947000Y-106070266D01*
X117947000Y-106070266D02*
X117899380Y-105927409D01*
X117899380Y-105927409D02*
X117899380Y-105689314D01*
X117899380Y-107213123D02*
X117899380Y-106641695D01*
X117899380Y-106927409D02*
X118899380Y-106927409D01*
X118899380Y-106927409D02*
X118756523Y-106832171D01*
X118756523Y-106832171D02*
X118661285Y-106736933D01*
X118661285Y-106736933D02*
X118613666Y-106641695D01*
X118566047Y-108070266D02*
X117899380Y-108070266D01*
X118947000Y-107832171D02*
X118232714Y-107594076D01*
X118232714Y-107594076D02*
X118232714Y-108213123D01*
D14*
X90053900Y-95165142D02*
X90053900Y-95639658D01*
X91098900Y-95165142D02*
X91098900Y-95639658D01*
D15*
X87755200Y-126934800D02*
X84355200Y-126934800D01*
X84355200Y-125134800D01*
X87755200Y-125134800D01*
X87755200Y-126934800D01*
D16*
G36*
X68989568Y-53798685D02*
G01*
X68977190Y-53811063D01*
X68964812Y-53798685D01*
X68977190Y-53786307D01*
X68989568Y-53798685D01*
G37*
G36*
X69856040Y-55407847D02*
G01*
X69843662Y-55420225D01*
X69831284Y-55407847D01*
X69843662Y-55395469D01*
X69856040Y-55407847D01*
G37*
G36*
X71440446Y-54590888D02*
G01*
X71428068Y-54603266D01*
X71415689Y-54590888D01*
X71428068Y-54578510D01*
X71440446Y-54590888D01*
G37*
G36*
X80872609Y-56967496D02*
G01*
X80860231Y-56979874D01*
X80847853Y-56967496D01*
X80860231Y-56955118D01*
X80872609Y-56967496D01*
G37*
G36*
X93250777Y-57437867D02*
G01*
X93238399Y-57450245D01*
X93226021Y-57437867D01*
X93238399Y-57425488D01*
X93250777Y-57437867D01*
G37*
G36*
X83868126Y-53551122D02*
G01*
X83868126Y-53860576D01*
X83558672Y-53860576D01*
X83249218Y-53860576D01*
X83249218Y-53551122D01*
X83249218Y-53241668D01*
X83558672Y-53241668D01*
X83868126Y-53241668D01*
X83868126Y-53551122D01*
G37*
G36*
X82624120Y-57391009D02*
G01*
X82665802Y-57439594D01*
X82675286Y-57500508D01*
X82656000Y-57557301D01*
X82611376Y-57593525D01*
X82580797Y-57598783D01*
X82528411Y-57580928D01*
X82507658Y-57563011D01*
X82484019Y-57506197D01*
X82493082Y-57447872D01*
X82526044Y-57401040D01*
X82574098Y-57378707D01*
X82624120Y-57391009D01*
G37*
G36*
X79832843Y-53562887D02*
G01*
X79832843Y-53884106D01*
X79430553Y-53890908D01*
X79028262Y-53897711D01*
X79022798Y-55110771D01*
X79017333Y-56323831D01*
X78695010Y-56330737D01*
X78372687Y-56337643D01*
X78366264Y-55117677D01*
X78359841Y-53897711D01*
X77957551Y-53890908D01*
X77555261Y-53884106D01*
X77555261Y-53562887D01*
X77555261Y-53241668D01*
X78694052Y-53241668D01*
X79832843Y-53241668D01*
X79832843Y-53562887D01*
G37*
G36*
X87749421Y-53552772D02*
G01*
X87742492Y-53863876D01*
X87437156Y-53868415D01*
X87319583Y-53869363D01*
X87221273Y-53868641D01*
X87152088Y-53866430D01*
X87121893Y-53862912D01*
X87121512Y-53862639D01*
X87117570Y-53835341D01*
X87114324Y-53768399D01*
X87112096Y-53671680D01*
X87111209Y-53555050D01*
X87111206Y-53546996D01*
X87111206Y-53241668D01*
X87433778Y-53241668D01*
X87756350Y-53241668D01*
X87749421Y-53552772D01*
G37*
G36*
X83892882Y-55196700D02*
G01*
X83892882Y-56336210D01*
X83571050Y-56336210D01*
X83451299Y-56335316D01*
X83351714Y-56332872D01*
X83281497Y-56329230D01*
X83249850Y-56324745D01*
X83248957Y-56323831D01*
X83248897Y-56297292D01*
X83248829Y-56226240D01*
X83248756Y-56115675D01*
X83248679Y-55970598D01*
X83248602Y-55796008D01*
X83248527Y-55596905D01*
X83248456Y-55378290D01*
X83248403Y-55191229D01*
X83248110Y-54071005D01*
X83570496Y-54064097D01*
X83892882Y-54057190D01*
X83892882Y-55196700D01*
G37*
G36*
X87779627Y-55196700D02*
G01*
X87779627Y-56336210D01*
X87457795Y-56336210D01*
X87338043Y-56335316D01*
X87238458Y-56332872D01*
X87168242Y-56329230D01*
X87136595Y-56324745D01*
X87135702Y-56323831D01*
X87135642Y-56297292D01*
X87135574Y-56226240D01*
X87135501Y-56115675D01*
X87135424Y-55970598D01*
X87135347Y-55796008D01*
X87135272Y-55596905D01*
X87135201Y-55378290D01*
X87135148Y-55191229D01*
X87134855Y-54071005D01*
X87457241Y-54064097D01*
X87779627Y-54057190D01*
X87779627Y-55196700D01*
G37*
G36*
X75389081Y-57314085D02*
G01*
X75389081Y-57388354D01*
X74924333Y-57395091D01*
X74758036Y-57396954D01*
X74634877Y-57396772D01*
X74548507Y-57394155D01*
X74492579Y-57388711D01*
X74460746Y-57380049D01*
X74446659Y-57367778D01*
X74445680Y-57365592D01*
X74437984Y-57310069D01*
X74440397Y-57284586D01*
X74446750Y-57268971D01*
X74463340Y-57257461D01*
X74496782Y-57249437D01*
X74553697Y-57244279D01*
X74640701Y-57241370D01*
X74764414Y-57240088D01*
X74919050Y-57239816D01*
X75389081Y-57239816D01*
X75389081Y-57314085D01*
G37*
G36*
X91852044Y-57314085D02*
G01*
X91852044Y-57388354D01*
X91387296Y-57395091D01*
X91220999Y-57396954D01*
X91097840Y-57396772D01*
X91011470Y-57394155D01*
X90955542Y-57388711D01*
X90923708Y-57380049D01*
X90909622Y-57367778D01*
X90908643Y-57365592D01*
X90900947Y-57310069D01*
X90903360Y-57284586D01*
X90909713Y-57268971D01*
X90926303Y-57257461D01*
X90959745Y-57249437D01*
X91016660Y-57244279D01*
X91103664Y-57241370D01*
X91227377Y-57240088D01*
X91382013Y-57239816D01*
X91852044Y-57239816D01*
X91852044Y-57314085D01*
G37*
G36*
X93277303Y-57309351D02*
G01*
X93261166Y-57388354D01*
X92809796Y-57395104D01*
X92646160Y-57396980D01*
X92525567Y-57396735D01*
X92441577Y-57393961D01*
X92387751Y-57388248D01*
X92357648Y-57379190D01*
X92344828Y-57366377D01*
X92344515Y-57365604D01*
X92336823Y-57310072D01*
X92339243Y-57284586D01*
X92345741Y-57268967D01*
X92362748Y-57257319D01*
X92396855Y-57248964D01*
X92454649Y-57243226D01*
X92542721Y-57239425D01*
X92667660Y-57236886D01*
X92820660Y-57235082D01*
X93293441Y-57230348D01*
X93277303Y-57309351D01*
G37*
G36*
X74399596Y-53241668D02*
G01*
X74709198Y-53254046D01*
X74709161Y-54788939D01*
X74709124Y-56323831D01*
X74404079Y-56330724D01*
X74286493Y-56332519D01*
X74188088Y-56332392D01*
X74118756Y-56330471D01*
X74088395Y-56326885D01*
X74088014Y-56326606D01*
X74086176Y-56300574D01*
X74084639Y-56229269D01*
X74083413Y-56116927D01*
X74082512Y-55967788D01*
X74081948Y-55786088D01*
X74081733Y-55576066D01*
X74081880Y-55341960D01*
X74082400Y-55088008D01*
X74083307Y-54818447D01*
X74083495Y-54772442D01*
X74089995Y-53229290D01*
X74399596Y-53241668D01*
G37*
G36*
X70750028Y-55649450D02*
G01*
X70872998Y-55688081D01*
X70980522Y-55766214D01*
X71001526Y-55789330D01*
X71076158Y-55910480D01*
X71107414Y-56036664D01*
X71099711Y-56160647D01*
X71057465Y-56275193D01*
X70985095Y-56373067D01*
X70887017Y-56447034D01*
X70767650Y-56489857D01*
X70631411Y-56494303D01*
X70577014Y-56484632D01*
X70449620Y-56431655D01*
X70350951Y-56344858D01*
X70284962Y-56233291D01*
X70255608Y-56106004D01*
X70266844Y-55972047D01*
X70307186Y-55867145D01*
X70390192Y-55759169D01*
X70498450Y-55686134D01*
X70621787Y-55649181D01*
X70750028Y-55649450D01*
G37*
G36*
X90425731Y-56972393D02*
G01*
X90443311Y-56992063D01*
X90455715Y-57030633D01*
X90464110Y-57096264D01*
X90469661Y-57197115D01*
X90472662Y-57300873D01*
X90473845Y-57452533D01*
X90467981Y-57560189D01*
X90453048Y-57629092D01*
X90427025Y-57664494D01*
X90387891Y-57671647D01*
X90335719Y-57656656D01*
X90322102Y-57635559D01*
X90312727Y-57581691D01*
X90307136Y-57489951D01*
X90304873Y-57355240D01*
X90304773Y-57311245D01*
X90305532Y-57174491D01*
X90308416Y-57079406D01*
X90314334Y-57018159D01*
X90324197Y-56982921D01*
X90338914Y-56965862D01*
X90345273Y-56962779D01*
X90399450Y-56961702D01*
X90425731Y-56972393D01*
G37*
G36*
X80749529Y-56973844D02*
G01*
X80773759Y-57027989D01*
X80789477Y-57121556D01*
X80798340Y-57242405D01*
X80810719Y-57487379D01*
X81330602Y-57499757D01*
X81850485Y-57512136D01*
X81850485Y-57586405D01*
X81850485Y-57660674D01*
X81330602Y-57665546D01*
X81172070Y-57666005D01*
X81027872Y-57664490D01*
X80906257Y-57661243D01*
X80815471Y-57656504D01*
X80763762Y-57650517D01*
X80757666Y-57648756D01*
X80703017Y-57617952D01*
X80665188Y-57572204D01*
X80641423Y-57503146D01*
X80628969Y-57402413D01*
X80625071Y-57261638D01*
X80625046Y-57245909D01*
X80626143Y-57124674D01*
X80630264Y-57044215D01*
X80638654Y-56995824D01*
X80652559Y-56970798D01*
X80665546Y-56962779D01*
X80714291Y-56953861D01*
X80749529Y-56973844D01*
G37*
G36*
X86451042Y-56959875D02*
G01*
X86527331Y-56963176D01*
X86578226Y-56968843D01*
X86609754Y-56977206D01*
X86627942Y-56988599D01*
X86633681Y-56995210D01*
X86650127Y-57050244D01*
X86639005Y-57082320D01*
X86621786Y-57103673D01*
X86591180Y-57117286D01*
X86537380Y-57124823D01*
X86450576Y-57127953D01*
X86367645Y-57128412D01*
X86120953Y-57128412D01*
X86120953Y-57371024D01*
X86116375Y-57512681D01*
X86101606Y-57608689D01*
X86075089Y-57662156D01*
X86035269Y-57676186D01*
X85980588Y-57653886D01*
X85979564Y-57653238D01*
X85963124Y-57617431D01*
X85950844Y-57535559D01*
X85943188Y-57410934D01*
X85942430Y-57387487D01*
X85935280Y-57140791D01*
X85675338Y-57128412D01*
X85415397Y-57116034D01*
X85415397Y-57041765D01*
X85415397Y-56967496D01*
X86009543Y-56960844D01*
X86198175Y-56959041D01*
X86343332Y-56958607D01*
X86451042Y-56959875D01*
G37*
G36*
X89042901Y-56973844D02*
G01*
X89067131Y-57027989D01*
X89082850Y-57121556D01*
X89091713Y-57242405D01*
X89104091Y-57487379D01*
X89623974Y-57499757D01*
X90143857Y-57512136D01*
X90152212Y-57571227D01*
X90146370Y-57624971D01*
X90127456Y-57651306D01*
X90094099Y-57657224D01*
X90020449Y-57662100D01*
X89915716Y-57665897D01*
X89789109Y-57668576D01*
X89649837Y-57670102D01*
X89507110Y-57670437D01*
X89370138Y-57669545D01*
X89248130Y-57667387D01*
X89150295Y-57663928D01*
X89085843Y-57659131D01*
X89066956Y-57655568D01*
X89022121Y-57629530D01*
X88974120Y-57591316D01*
X88949867Y-57565598D01*
X88933879Y-57534364D01*
X88924453Y-57487475D01*
X88919887Y-57414791D01*
X88918480Y-57306174D01*
X88918418Y-57259480D01*
X88919426Y-57134906D01*
X88923221Y-57051316D01*
X88930966Y-57000206D01*
X88943820Y-56973074D01*
X88958918Y-56962779D01*
X89007663Y-56953861D01*
X89042901Y-56973844D01*
G37*
G36*
X74900403Y-56960905D02*
G01*
X74918711Y-56961125D01*
X75438594Y-56967496D01*
X75438594Y-57041765D01*
X75438594Y-57116034D01*
X74928625Y-57128412D01*
X74741401Y-57133859D01*
X74598647Y-57140233D01*
X74495324Y-57147958D01*
X74426391Y-57157458D01*
X74386808Y-57169157D01*
X74377797Y-57174767D01*
X74356185Y-57204594D01*
X74343429Y-57256728D01*
X74337725Y-57341606D01*
X74336937Y-57411190D01*
X74332490Y-57534896D01*
X74317827Y-57615776D01*
X74290962Y-57659828D01*
X74250290Y-57673052D01*
X74210332Y-57657174D01*
X74193350Y-57643344D01*
X74175087Y-57598853D01*
X74165059Y-57519889D01*
X74162940Y-57420746D01*
X74168401Y-57315717D01*
X74181115Y-57219096D01*
X74200755Y-57145177D01*
X74204985Y-57135420D01*
X74234456Y-57079350D01*
X74267338Y-57036243D01*
X74310133Y-57004512D01*
X74369343Y-56982568D01*
X74451473Y-56968823D01*
X74563024Y-56961690D01*
X74710500Y-56959580D01*
X74900403Y-56960905D01*
G37*
G36*
X70819927Y-54486242D02*
G01*
X71003015Y-54506525D01*
X71162714Y-54540225D01*
X71220599Y-54558882D01*
X71427033Y-54648652D01*
X71602077Y-54756074D01*
X71720959Y-54852297D01*
X71836083Y-54955336D01*
X71617686Y-55175402D01*
X71533311Y-55259050D01*
X71461090Y-55328078D01*
X71408264Y-55375746D01*
X71382074Y-55395316D01*
X71381247Y-55395469D01*
X71353174Y-55381555D01*
X71299587Y-55345643D01*
X71251663Y-55310299D01*
X71166135Y-55256046D01*
X71059194Y-55203018D01*
X70977044Y-55170862D01*
X70795653Y-55132349D01*
X70605499Y-55130432D01*
X70418555Y-55162811D01*
X70246795Y-55227187D01*
X70102194Y-55321261D01*
X70077410Y-55343606D01*
X70025949Y-55389833D01*
X69989618Y-55417108D01*
X69982087Y-55420225D01*
X69960341Y-55403219D01*
X69911813Y-55356761D01*
X69843403Y-55287688D01*
X69762009Y-55202840D01*
X69751044Y-55191229D01*
X69535148Y-54962233D01*
X69664649Y-54840503D01*
X69808496Y-54729297D01*
X69986593Y-54629602D01*
X70183821Y-54549162D01*
X70301654Y-54514220D01*
X70452115Y-54489257D01*
X70630583Y-54480208D01*
X70819927Y-54486242D01*
G37*
G36*
X91356917Y-56955590D02*
G01*
X91510068Y-56956689D01*
X91647326Y-56959587D01*
X91760604Y-56963957D01*
X91841817Y-56969474D01*
X91882878Y-56975812D01*
X91885156Y-56976864D01*
X91907777Y-57015190D01*
X91909912Y-57056943D01*
X91901557Y-57116034D01*
X91391588Y-57128412D01*
X91204364Y-57133859D01*
X91061610Y-57140233D01*
X90958286Y-57147958D01*
X90889353Y-57157458D01*
X90849771Y-57169157D01*
X90840760Y-57174767D01*
X90819148Y-57204594D01*
X90806392Y-57256728D01*
X90800688Y-57341606D01*
X90799900Y-57411190D01*
X90795277Y-57537287D01*
X90779576Y-57619316D01*
X90750049Y-57662018D01*
X90703947Y-57670131D01*
X90657551Y-57656656D01*
X90640829Y-57626211D01*
X90630372Y-57559456D01*
X90626064Y-57469182D01*
X90627788Y-57368179D01*
X90635427Y-57269238D01*
X90648865Y-57185148D01*
X90662250Y-57140537D01*
X90708703Y-57068860D01*
X90773853Y-57009081D01*
X90779843Y-57005265D01*
X90811632Y-56988102D01*
X90847732Y-56975374D01*
X90895673Y-56966434D01*
X90962984Y-56960634D01*
X91057195Y-56957325D01*
X91185838Y-56955860D01*
X91356442Y-56955589D01*
X91356917Y-56955590D01*
G37*
G36*
X82637948Y-56937815D02*
G01*
X82709735Y-56978617D01*
X82752011Y-57020757D01*
X82810979Y-57091102D01*
X82880098Y-57180458D01*
X82952827Y-57279635D01*
X83022626Y-57379440D01*
X83082953Y-57470682D01*
X83127268Y-57544169D01*
X83149031Y-57590709D01*
X83150192Y-57597598D01*
X83128441Y-57644398D01*
X83073682Y-57670801D01*
X83048994Y-57673052D01*
X83026850Y-57654170D01*
X82981573Y-57602281D01*
X82919016Y-57524520D01*
X82845031Y-57428022D01*
X82815456Y-57388354D01*
X82738600Y-57286636D01*
X82670846Y-57200981D01*
X82618080Y-57138529D01*
X82586184Y-57106418D01*
X82580804Y-57103656D01*
X82558138Y-57122448D01*
X82512132Y-57174103D01*
X82448704Y-57251539D01*
X82373771Y-57347672D01*
X82342968Y-57388354D01*
X82255589Y-57503336D01*
X82191185Y-57583318D01*
X82143882Y-57633538D01*
X82107808Y-57659239D01*
X82077093Y-57665661D01*
X82045863Y-57658044D01*
X82042346Y-57656656D01*
X82014109Y-57622373D01*
X82021745Y-57560858D01*
X82064104Y-57477748D01*
X82085220Y-57446938D01*
X82124551Y-57384116D01*
X82144005Y-57335470D01*
X82143285Y-57319545D01*
X82143358Y-57305452D01*
X82152897Y-57309733D01*
X82178277Y-57298736D01*
X82221739Y-57255209D01*
X82274448Y-57188175D01*
X82281219Y-57178632D01*
X82381800Y-57050449D01*
X82472656Y-56968577D01*
X82556976Y-56931529D01*
X82637948Y-56937815D01*
G37*
G36*
X71129467Y-53314579D02*
G01*
X71472865Y-53390654D01*
X71801281Y-53506701D01*
X72106272Y-53660654D01*
X72209288Y-53725344D01*
X72312388Y-53797419D01*
X72417248Y-53876715D01*
X72514264Y-53955324D01*
X72593831Y-54025338D01*
X72646344Y-54078848D01*
X72658437Y-54095179D01*
X72648627Y-54124061D01*
X72606148Y-54181010D01*
X72535150Y-54260991D01*
X72446068Y-54352724D01*
X72216391Y-54581446D01*
X72131684Y-54496085D01*
X72039727Y-54415322D01*
X71918124Y-54324998D01*
X71782497Y-54235613D01*
X71648466Y-54157667D01*
X71568895Y-54117786D01*
X71294745Y-54017446D01*
X71002314Y-53956925D01*
X70700398Y-53935855D01*
X70397792Y-53953868D01*
X70103292Y-54010596D01*
X69825693Y-54105671D01*
X69639736Y-54198521D01*
X69531915Y-54265230D01*
X69421903Y-54340739D01*
X69322927Y-54415352D01*
X69248213Y-54479376D01*
X69227106Y-54500939D01*
X69186135Y-54539378D01*
X69158910Y-54553753D01*
X69134704Y-54536875D01*
X69083708Y-54490768D01*
X69013098Y-54422228D01*
X68930053Y-54338051D01*
X68919303Y-54326921D01*
X68700732Y-54100088D01*
X68801827Y-54001600D01*
X68975359Y-53851363D01*
X69182053Y-53708041D01*
X69385261Y-53589796D01*
X69477705Y-53540389D01*
X69551478Y-53502523D01*
X69597542Y-53480743D01*
X69608477Y-53477608D01*
X69628450Y-53475217D01*
X69677711Y-53457675D01*
X69689836Y-53452711D01*
X69812081Y-53410324D01*
X69968243Y-53369080D01*
X70142779Y-53332378D01*
X70320146Y-53303615D01*
X70431504Y-53290602D01*
X70779532Y-53280540D01*
X71129467Y-53314579D01*
G37*
G36*
X92518257Y-54058793D02*
G01*
X92730016Y-54059710D01*
X92901935Y-54062011D01*
X93038847Y-54066325D01*
X93145589Y-54073284D01*
X93226995Y-54083517D01*
X93287902Y-54097656D01*
X93333145Y-54116332D01*
X93367559Y-54140174D01*
X93395980Y-54169815D01*
X93423243Y-54205884D01*
X93426580Y-54210553D01*
X93485962Y-54293812D01*
X93493650Y-55315740D01*
X93501338Y-56337668D01*
X93176660Y-56330750D01*
X92851982Y-56323831D01*
X92853956Y-55513061D01*
X92855930Y-54702292D01*
X92248773Y-54702292D01*
X91641615Y-54702292D01*
X91641615Y-55519251D01*
X91641615Y-56336210D01*
X91332161Y-56336210D01*
X91214873Y-56334818D01*
X91117900Y-56331017D01*
X91050638Y-56325370D01*
X91022481Y-56318439D01*
X91022175Y-56317642D01*
X91022085Y-56289621D01*
X91022050Y-56217429D01*
X91022069Y-56106412D01*
X91022138Y-55961911D01*
X91022254Y-55789271D01*
X91022415Y-55593834D01*
X91022618Y-55380944D01*
X91022703Y-55298510D01*
X91023065Y-55049023D01*
X91023721Y-54844181D01*
X91024901Y-54679115D01*
X91026830Y-54548959D01*
X91029737Y-54448845D01*
X91033850Y-54373904D01*
X91039395Y-54319268D01*
X91046601Y-54280071D01*
X91055695Y-54251444D01*
X91066905Y-54228519D01*
X91073224Y-54217919D01*
X91098543Y-54179758D01*
X91126115Y-54148228D01*
X91160651Y-54122696D01*
X91206863Y-54102532D01*
X91269461Y-54087104D01*
X91353157Y-54075779D01*
X91462663Y-54067928D01*
X91602689Y-54062919D01*
X91777948Y-54060120D01*
X91993149Y-54058900D01*
X92253005Y-54058627D01*
X92261820Y-54058627D01*
X92518257Y-54058793D01*
G37*
G36*
X78568731Y-56953569D02*
G01*
X78611478Y-56974762D01*
X78667154Y-57019277D01*
X78740865Y-57090498D01*
X78837719Y-57191809D01*
X78958177Y-57321564D01*
X79034930Y-57397015D01*
X79090663Y-57435131D01*
X79115712Y-57438120D01*
X79150826Y-57410998D01*
X79200779Y-57357772D01*
X79232072Y-57319237D01*
X79337883Y-57188986D01*
X79435717Y-57082889D01*
X79520420Y-57005829D01*
X79586843Y-56962690D01*
X79616157Y-56955118D01*
X79671380Y-56961824D01*
X79710565Y-56986328D01*
X79735973Y-57035213D01*
X79749867Y-57115058D01*
X79754509Y-57232446D01*
X79753174Y-57353739D01*
X79749580Y-57482403D01*
X79744804Y-57569777D01*
X79737464Y-57624084D01*
X79726180Y-57653545D01*
X79709571Y-57666385D01*
X79700243Y-57668883D01*
X79655277Y-57667327D01*
X79623724Y-57638221D01*
X79602705Y-57575189D01*
X79589341Y-57471854D01*
X79585280Y-57414273D01*
X79572902Y-57207264D01*
X79401778Y-57405086D01*
X79301683Y-57517608D01*
X79224754Y-57595204D01*
X79164570Y-57642650D01*
X79114707Y-57664719D01*
X79068745Y-57666185D01*
X79054509Y-57663260D01*
X79013554Y-57638538D01*
X78949796Y-57582967D01*
X78871488Y-57504260D01*
X78800576Y-57425992D01*
X78607405Y-57203975D01*
X78600134Y-57406334D01*
X78591428Y-57533341D01*
X78574135Y-57616258D01*
X78545246Y-57660195D01*
X78501752Y-57670258D01*
X78452678Y-57656656D01*
X78438421Y-57634442D01*
X78428840Y-57577967D01*
X78423442Y-57482197D01*
X78421732Y-57342098D01*
X78421732Y-57340615D01*
X78422632Y-57209929D01*
X78426134Y-57119560D01*
X78433445Y-57060331D01*
X78445770Y-57023068D01*
X78464315Y-56998593D01*
X78467005Y-56996089D01*
X78501601Y-56967617D01*
X78533808Y-56952315D01*
X78568731Y-56953569D01*
G37*
G36*
X76559888Y-56960172D02*
G01*
X76638801Y-56965663D01*
X76694853Y-56975104D01*
X76734705Y-56989189D01*
X76765017Y-57008609D01*
X76788444Y-57030017D01*
X76823417Y-57090804D01*
X76835299Y-57168970D01*
X76826699Y-57250387D01*
X76800228Y-57320930D01*
X76758495Y-57366472D01*
X76724519Y-57375976D01*
X76691873Y-57387395D01*
X76700317Y-57418334D01*
X76747913Y-57463815D01*
X76763058Y-57475001D01*
X76813950Y-57528313D01*
X76837200Y-57587790D01*
X76829927Y-57638931D01*
X76800615Y-57663937D01*
X76763174Y-57658256D01*
X76697992Y-57630307D01*
X76618145Y-57585852D01*
X76605475Y-57577968D01*
X76454250Y-57491704D01*
X76317924Y-57437506D01*
X76178614Y-57410333D01*
X76018436Y-57405144D01*
X75994807Y-57405833D01*
X75785183Y-57413110D01*
X75777149Y-57511822D01*
X75759494Y-57607711D01*
X75724216Y-57658946D01*
X75668777Y-57668032D01*
X75630455Y-57656656D01*
X75608491Y-57623958D01*
X75598286Y-57558885D01*
X75599133Y-57476984D01*
X75610324Y-57393796D01*
X75631150Y-57324866D01*
X75646779Y-57298260D01*
X75664605Y-57278284D01*
X75685972Y-57263252D01*
X75717932Y-57252238D01*
X75767535Y-57244314D01*
X75841835Y-57238552D01*
X75947883Y-57234025D01*
X76092731Y-57229806D01*
X76185229Y-57227438D01*
X76355808Y-57222640D01*
X76482859Y-57217638D01*
X76572365Y-57211830D01*
X76630310Y-57204612D01*
X76662677Y-57195381D01*
X76675448Y-57183534D01*
X76676411Y-57177925D01*
X76670019Y-57165335D01*
X76646995Y-57155410D01*
X76601568Y-57147613D01*
X76527963Y-57141406D01*
X76420409Y-57136254D01*
X76273134Y-57131618D01*
X76144149Y-57128412D01*
X75611888Y-57116034D01*
X75611888Y-57041765D01*
X75611888Y-56967496D01*
X76119393Y-56960485D01*
X76306844Y-56958275D01*
X76451456Y-56957940D01*
X76559888Y-56960172D01*
G37*
G36*
X92979914Y-56955895D02*
G01*
X93119758Y-56958837D01*
X93220848Y-56965250D01*
X93288558Y-56976349D01*
X93328263Y-56993350D01*
X93345337Y-57017468D01*
X93345153Y-57049916D01*
X93337801Y-57077712D01*
X93330288Y-57094970D01*
X93315844Y-57107793D01*
X93287861Y-57116837D01*
X93239728Y-57122761D01*
X93164837Y-57126221D01*
X93056577Y-57127876D01*
X92908340Y-57128383D01*
X92828251Y-57128412D01*
X92659152Y-57128713D01*
X92532496Y-57130045D01*
X92441218Y-57133052D01*
X92378251Y-57138379D01*
X92336527Y-57146671D01*
X92308979Y-57158571D01*
X92288541Y-57174724D01*
X92285280Y-57177925D01*
X92246605Y-57247420D01*
X92237096Y-57335059D01*
X92258007Y-57418087D01*
X92270857Y-57439324D01*
X92286092Y-57455549D01*
X92309417Y-57467977D01*
X92347498Y-57477339D01*
X92407000Y-57484368D01*
X92494588Y-57489794D01*
X92616929Y-57494348D01*
X92780687Y-57498762D01*
X92821686Y-57499757D01*
X93337424Y-57512136D01*
X93345779Y-57571227D01*
X93339937Y-57624971D01*
X93321023Y-57651306D01*
X93287022Y-57657744D01*
X93211597Y-57663412D01*
X93102832Y-57667984D01*
X92968815Y-57671135D01*
X92817631Y-57672540D01*
X92792785Y-57672580D01*
X92622069Y-57672312D01*
X92493333Y-57670850D01*
X92399046Y-57667547D01*
X92331678Y-57661754D01*
X92283700Y-57652822D01*
X92247580Y-57640105D01*
X92215789Y-57622952D01*
X92215710Y-57622904D01*
X92150195Y-57565780D01*
X92100895Y-57493901D01*
X92098118Y-57487632D01*
X92065828Y-57359630D01*
X92071087Y-57232610D01*
X92110992Y-57118470D01*
X92182644Y-57029112D01*
X92215710Y-57005265D01*
X92247427Y-56988146D01*
X92283491Y-56975427D01*
X92331401Y-56966463D01*
X92398655Y-56960606D01*
X92492751Y-56957210D01*
X92621188Y-56955627D01*
X92791463Y-56955212D01*
X92795943Y-56955211D01*
X92979914Y-56955895D01*
G37*
G36*
X77816024Y-56957140D02*
G01*
X77936335Y-56961923D01*
X78031399Y-56969637D01*
X78090545Y-56980343D01*
X78092229Y-56980910D01*
X78168464Y-57031806D01*
X78228125Y-57118902D01*
X78264612Y-57229899D01*
X78272829Y-57317456D01*
X78259984Y-57440441D01*
X78218029Y-57532588D01*
X78140532Y-57607070D01*
X78126824Y-57616607D01*
X78092927Y-57637527D01*
X78057362Y-57652530D01*
X78011564Y-57662589D01*
X77946968Y-57668682D01*
X77855009Y-57671784D01*
X77727124Y-57672869D01*
X77632058Y-57672959D01*
X77475923Y-57672294D01*
X77360911Y-57669845D01*
X77278644Y-57664812D01*
X77220740Y-57656392D01*
X77178820Y-57643785D01*
X77144800Y-57626369D01*
X77061982Y-57549596D01*
X77010507Y-57447368D01*
X76990067Y-57331459D01*
X76992328Y-57305563D01*
X77159159Y-57305563D01*
X77162942Y-57372999D01*
X77178559Y-57422842D01*
X77212414Y-57457708D01*
X77270913Y-57480214D01*
X77360459Y-57492977D01*
X77487456Y-57498614D01*
X77634443Y-57499757D01*
X77777077Y-57499432D01*
X77878880Y-57497637D01*
X77948532Y-57493144D01*
X77994712Y-57484725D01*
X78026102Y-57471151D01*
X78051381Y-57451195D01*
X78063891Y-57438992D01*
X78114933Y-57359504D01*
X78117370Y-57275180D01*
X78077387Y-57199235D01*
X78056914Y-57176772D01*
X78032171Y-57160709D01*
X77994845Y-57149740D01*
X77936623Y-57142557D01*
X77849191Y-57137853D01*
X77724237Y-57134320D01*
X77654944Y-57132793D01*
X77485848Y-57130649D01*
X77359917Y-57133883D01*
X77270906Y-57144672D01*
X77212569Y-57165192D01*
X77178662Y-57197620D01*
X77162941Y-57244131D01*
X77159159Y-57305563D01*
X76992328Y-57305563D01*
X77000352Y-57213644D01*
X77041056Y-57105696D01*
X77111869Y-57019391D01*
X77161546Y-56986428D01*
X77209248Y-56974960D01*
X77295729Y-56966042D01*
X77410318Y-56959738D01*
X77542345Y-56956111D01*
X77681137Y-56955224D01*
X77816024Y-56957140D01*
G37*
G36*
X87408282Y-56955576D02*
G01*
X87596216Y-56957663D01*
X87736447Y-56963717D01*
X87830636Y-56973847D01*
X87877909Y-56986789D01*
X87965531Y-57056436D01*
X88022829Y-57153647D01*
X88049749Y-57266831D01*
X88046236Y-57384393D01*
X88012236Y-57494741D01*
X87947692Y-57586282D01*
X87880976Y-57634715D01*
X87840087Y-57650032D01*
X87780940Y-57660901D01*
X87695878Y-57667936D01*
X87577242Y-57671750D01*
X87417372Y-57672957D01*
X87403322Y-57672959D01*
X87249911Y-57672356D01*
X87137350Y-57670032D01*
X87056981Y-57665095D01*
X87000149Y-57656653D01*
X86958197Y-57643812D01*
X86922468Y-57625681D01*
X86917855Y-57622904D01*
X86852339Y-57565780D01*
X86803039Y-57493901D01*
X86800262Y-57487632D01*
X86767973Y-57359630D01*
X86769858Y-57314085D01*
X86937912Y-57314085D01*
X86941407Y-57378628D01*
X86956189Y-57426284D01*
X86988701Y-57459581D01*
X87045387Y-57481048D01*
X87132689Y-57493213D01*
X87257051Y-57498605D01*
X87411048Y-57499757D01*
X87556989Y-57498972D01*
X87661845Y-57496032D01*
X87734027Y-57490058D01*
X87781945Y-57480174D01*
X87814010Y-57465502D01*
X87826322Y-57456434D01*
X87868700Y-57400756D01*
X87893722Y-57334293D01*
X87896414Y-57269630D01*
X87868241Y-57216591D01*
X87845409Y-57191944D01*
X87819202Y-57167400D01*
X87792005Y-57150163D01*
X87755074Y-57138942D01*
X87699663Y-57132447D01*
X87617028Y-57129386D01*
X87498423Y-57128470D01*
X87414916Y-57128412D01*
X87249707Y-57129751D01*
X87127556Y-57135434D01*
X87042041Y-57147961D01*
X86986740Y-57169830D01*
X86955233Y-57203541D01*
X86941098Y-57251595D01*
X86937912Y-57314085D01*
X86769858Y-57314085D01*
X86773231Y-57232610D01*
X86813137Y-57118470D01*
X86884788Y-57029112D01*
X86917855Y-57005265D01*
X86953122Y-56986502D01*
X86993367Y-56973091D01*
X87047174Y-56964162D01*
X87123125Y-56958845D01*
X87229804Y-56956270D01*
X87375794Y-56955569D01*
X87408282Y-56955576D01*
G37*
G36*
X71331195Y-52115219D02*
G01*
X71752312Y-52204907D01*
X71993450Y-52278461D01*
X72122610Y-52326878D01*
X72270264Y-52389323D01*
X72425574Y-52460487D01*
X72577699Y-52535061D01*
X72715802Y-52607737D01*
X72829043Y-52673205D01*
X72905053Y-52724939D01*
X72959305Y-52764145D01*
X72993894Y-52781918D01*
X73000474Y-52779567D01*
X73010817Y-52776219D01*
X73019041Y-52786331D01*
X73045661Y-52814119D01*
X73100329Y-52863738D01*
X73172637Y-52925836D01*
X73195305Y-52944747D01*
X73317186Y-53048325D01*
X73414180Y-53136034D01*
X73482033Y-53203772D01*
X73516489Y-53247438D01*
X73519978Y-53257681D01*
X73503618Y-53281350D01*
X73459977Y-53330926D01*
X73397213Y-53398099D01*
X73323483Y-53474565D01*
X73246947Y-53552014D01*
X73175761Y-53622141D01*
X73118085Y-53676637D01*
X73082075Y-53707196D01*
X73074880Y-53710922D01*
X73051973Y-53694748D01*
X73002414Y-53652720D01*
X72935615Y-53592908D01*
X72913448Y-53572543D01*
X72625205Y-53338293D01*
X72303856Y-53135402D01*
X71957777Y-52968199D01*
X71595346Y-52841012D01*
X71403311Y-52792151D01*
X71178376Y-52754506D01*
X70923651Y-52732241D01*
X70656518Y-52725689D01*
X70394360Y-52735185D01*
X70154558Y-52761066D01*
X70115982Y-52767339D01*
X69920653Y-52804235D01*
X69753903Y-52844417D01*
X69599375Y-52893260D01*
X69440713Y-52956140D01*
X69261558Y-53038433D01*
X69199997Y-53068385D01*
X68886740Y-53245124D01*
X68570035Y-53468896D01*
X68391239Y-53614901D01*
X68300415Y-53692683D01*
X68088273Y-53473365D01*
X68006758Y-53386784D01*
X67939698Y-53311165D01*
X67893827Y-53254416D01*
X67875876Y-53224445D01*
X67875832Y-53223832D01*
X67894650Y-53192412D01*
X67946775Y-53138163D01*
X68025180Y-53066975D01*
X68122836Y-52984735D01*
X68232716Y-52897330D01*
X68347791Y-52810649D01*
X68461035Y-52730579D01*
X68479388Y-52718189D01*
X68842220Y-52504470D01*
X69228071Y-52332256D01*
X69632042Y-52202161D01*
X70049238Y-52114797D01*
X70474760Y-52070776D01*
X70903711Y-52070713D01*
X71331195Y-52115219D01*
G37*
G36*
X76593858Y-54058718D02*
G01*
X76809333Y-54059518D01*
X76984712Y-54061812D01*
X77124703Y-54066387D01*
X77234014Y-54074029D01*
X77317353Y-54085526D01*
X77379429Y-54101663D01*
X77424950Y-54123228D01*
X77458623Y-54151007D01*
X77485158Y-54185786D01*
X77509262Y-54228353D01*
X77524315Y-54257566D01*
X77539391Y-54288337D01*
X77551464Y-54319300D01*
X77560864Y-54356057D01*
X77567919Y-54404210D01*
X77572958Y-54469361D01*
X77576311Y-54557112D01*
X77578306Y-54673064D01*
X77579273Y-54822820D01*
X77579542Y-55011982D01*
X77579473Y-55196475D01*
X77579151Y-55423165D01*
X77578318Y-55605944D01*
X77576683Y-55750409D01*
X77573956Y-55862162D01*
X77569845Y-55946802D01*
X77564058Y-56009928D01*
X77556306Y-56057141D01*
X77546296Y-56094041D01*
X77533738Y-56126226D01*
X77530797Y-56132806D01*
X77479890Y-56216237D01*
X77407828Y-56271609D01*
X77376613Y-56286989D01*
X77346558Y-56299435D01*
X77313298Y-56309519D01*
X77271604Y-56317477D01*
X77216251Y-56323544D01*
X77142012Y-56327954D01*
X77043660Y-56330941D01*
X76915969Y-56332742D01*
X76753712Y-56333589D01*
X76551663Y-56333718D01*
X76342200Y-56333433D01*
X76129559Y-56332453D01*
X75930092Y-56330402D01*
X75749804Y-56327425D01*
X75594699Y-56323671D01*
X75470782Y-56319285D01*
X75384058Y-56314414D01*
X75340531Y-56309206D01*
X75339568Y-56308931D01*
X75249972Y-56269590D01*
X75182032Y-56206669D01*
X75147366Y-56157597D01*
X75135987Y-56135963D01*
X75126792Y-56106906D01*
X75119553Y-56065336D01*
X75114041Y-56006162D01*
X75110028Y-55924294D01*
X75107286Y-55814639D01*
X75105829Y-55692545D01*
X75748048Y-55692545D01*
X76342200Y-55692545D01*
X76936352Y-55692545D01*
X76936352Y-55197418D01*
X76936352Y-54702292D01*
X76342200Y-54702292D01*
X75748048Y-54702292D01*
X75748048Y-55197418D01*
X75748048Y-55692545D01*
X75105829Y-55692545D01*
X75105585Y-55672107D01*
X75104698Y-55491607D01*
X75104395Y-55268048D01*
X75104383Y-55200295D01*
X75104384Y-55197418D01*
X75104497Y-54952883D01*
X75105372Y-54750019D01*
X75107811Y-54586739D01*
X75112618Y-54458079D01*
X75120595Y-54359075D01*
X75132545Y-54284761D01*
X75149271Y-54230175D01*
X75171575Y-54190352D01*
X75200260Y-54160328D01*
X75236130Y-54135137D01*
X75279986Y-54109817D01*
X75280801Y-54109359D01*
X75305525Y-54096496D01*
X75332758Y-54086010D01*
X75367533Y-54077660D01*
X75414881Y-54071203D01*
X75479832Y-54066397D01*
X75567418Y-54062998D01*
X75682671Y-54060765D01*
X75830622Y-54059455D01*
X76016302Y-54058826D01*
X76244742Y-54058635D01*
X76333579Y-54058627D01*
X76593858Y-54058718D01*
G37*
G36*
X84181764Y-56960818D02*
G01*
X84297926Y-56966331D01*
X84382469Y-56976573D01*
X84441337Y-56992340D01*
X84480478Y-57014429D01*
X84505837Y-57043636D01*
X84510591Y-57051901D01*
X84520156Y-57094215D01*
X84527227Y-57171354D01*
X84531510Y-57268678D01*
X84532713Y-57371548D01*
X84530542Y-57465325D01*
X84524705Y-57535371D01*
X84520669Y-57555731D01*
X84503795Y-57592588D01*
X84472897Y-57621035D01*
X84422265Y-57642089D01*
X84346194Y-57656762D01*
X84238974Y-57666072D01*
X84094899Y-57671033D01*
X83908262Y-57672660D01*
X83863166Y-57672673D01*
X83708977Y-57671603D01*
X83570767Y-57668838D01*
X83456523Y-57664685D01*
X83374233Y-57659450D01*
X83331884Y-57653439D01*
X83328927Y-57652182D01*
X83315432Y-57629745D01*
X83306897Y-57578823D01*
X83302894Y-57493309D01*
X83302928Y-57450245D01*
X83472025Y-57450245D01*
X83473771Y-57468102D01*
X83483466Y-57481042D01*
X83507792Y-57489713D01*
X83553434Y-57494766D01*
X83627074Y-57496848D01*
X83735397Y-57496610D01*
X83885085Y-57494701D01*
X83923828Y-57494127D01*
X84086419Y-57491159D01*
X84205750Y-57487415D01*
X84288072Y-57482289D01*
X84339636Y-57475172D01*
X84366694Y-57465458D01*
X84375498Y-57452539D01*
X84375631Y-57450245D01*
X84369065Y-57436783D01*
X84345200Y-57426619D01*
X84297785Y-57419144D01*
X84220567Y-57413753D01*
X84107295Y-57409837D01*
X83951718Y-57406790D01*
X83923828Y-57406363D01*
X83764244Y-57404175D01*
X83647481Y-57403518D01*
X83566856Y-57405040D01*
X83515686Y-57409390D01*
X83487286Y-57417218D01*
X83474974Y-57429173D01*
X83472066Y-57445904D01*
X83472025Y-57450245D01*
X83302928Y-57450245D01*
X83302994Y-57367100D01*
X83304171Y-57299783D01*
X83306715Y-57177925D01*
X83472025Y-57177925D01*
X83473771Y-57195782D01*
X83483466Y-57208722D01*
X83507792Y-57217394D01*
X83553434Y-57222446D01*
X83627074Y-57224529D01*
X83735397Y-57224291D01*
X83885085Y-57222381D01*
X83923828Y-57221807D01*
X84086419Y-57218839D01*
X84205750Y-57215096D01*
X84288072Y-57209969D01*
X84339636Y-57202852D01*
X84366694Y-57193138D01*
X84375498Y-57180219D01*
X84375631Y-57177925D01*
X84369065Y-57164463D01*
X84345200Y-57154299D01*
X84297785Y-57146825D01*
X84220567Y-57141433D01*
X84107295Y-57137518D01*
X83951718Y-57134470D01*
X83923828Y-57134043D01*
X83764244Y-57131855D01*
X83647481Y-57131198D01*
X83566856Y-57132720D01*
X83515686Y-57137070D01*
X83487286Y-57144898D01*
X83474974Y-57156853D01*
X83472066Y-57173584D01*
X83472025Y-57177925D01*
X83306715Y-57177925D01*
X83311108Y-56967496D01*
X83830797Y-56960787D01*
X84028036Y-56959235D01*
X84181764Y-56960818D01*
G37*
G36*
X89327358Y-54059783D02*
G01*
X89388789Y-54059854D01*
X89645587Y-54060312D01*
X89857719Y-54061434D01*
X90030032Y-54063862D01*
X90167373Y-54068238D01*
X90274588Y-54075202D01*
X90356525Y-54085397D01*
X90418029Y-54099464D01*
X90463948Y-54118044D01*
X90499128Y-54141778D01*
X90528416Y-54171308D01*
X90556660Y-54207276D01*
X90562525Y-54215183D01*
X90575938Y-54234854D01*
X90586806Y-54257299D01*
X90595397Y-54287599D01*
X90601978Y-54330833D01*
X90606816Y-54392082D01*
X90610179Y-54476428D01*
X90612333Y-54588950D01*
X90613548Y-54734729D01*
X90614089Y-54918845D01*
X90614225Y-55146379D01*
X90614227Y-55197444D01*
X90614141Y-55434248D01*
X90613702Y-55626621D01*
X90612645Y-55779641D01*
X90610701Y-55898390D01*
X90607602Y-55987947D01*
X90603081Y-56053394D01*
X90596870Y-56099809D01*
X90588702Y-56132275D01*
X90578310Y-56155870D01*
X90565424Y-56175676D01*
X90562488Y-56179679D01*
X90536047Y-56214359D01*
X90509669Y-56242980D01*
X90478565Y-56266149D01*
X90437947Y-56284474D01*
X90383026Y-56298563D01*
X90309013Y-56309024D01*
X90211119Y-56316465D01*
X90084555Y-56321493D01*
X89924533Y-56324717D01*
X89726263Y-56326745D01*
X89484958Y-56328183D01*
X89388789Y-56328664D01*
X89140745Y-56329732D01*
X88937352Y-56330133D01*
X88773753Y-56329691D01*
X88645088Y-56328228D01*
X88546498Y-56325569D01*
X88473126Y-56321539D01*
X88420111Y-56315961D01*
X88382596Y-56308659D01*
X88355723Y-56299457D01*
X88338637Y-56290619D01*
X88270480Y-56238278D01*
X88214855Y-56178769D01*
X88201492Y-56159312D01*
X88190665Y-56136979D01*
X88182106Y-56106697D01*
X88175551Y-56063387D01*
X88170731Y-56001976D01*
X88167381Y-55917388D01*
X88165235Y-55804547D01*
X88164308Y-55692545D01*
X88794637Y-55692545D01*
X89388789Y-55692545D01*
X89982941Y-55692545D01*
X89982941Y-55197418D01*
X89982941Y-54702292D01*
X89388789Y-54702292D01*
X88794637Y-54702292D01*
X88794637Y-55197418D01*
X88794637Y-55692545D01*
X88164308Y-55692545D01*
X88164025Y-55658377D01*
X88163487Y-55473803D01*
X88163352Y-55245749D01*
X88163350Y-55197444D01*
X88163350Y-55197418D01*
X88163441Y-54960577D01*
X88163890Y-54768142D01*
X88164963Y-54615058D01*
X88166925Y-54496243D01*
X88170040Y-54406618D01*
X88174575Y-54341101D01*
X88180795Y-54294611D01*
X88188964Y-54262068D01*
X88199348Y-54238390D01*
X88212212Y-54218497D01*
X88214623Y-54215183D01*
X88243397Y-54177251D01*
X88272097Y-54146004D01*
X88305573Y-54120802D01*
X88348675Y-54101003D01*
X88406254Y-54085965D01*
X88483159Y-54075046D01*
X88584243Y-54067604D01*
X88714354Y-54062999D01*
X88878343Y-54060588D01*
X89081061Y-54059730D01*
X89327358Y-54059783D01*
G37*
G36*
X85872861Y-54058970D02*
G01*
X86084632Y-54059950D01*
X86275876Y-54061497D01*
X86441491Y-54063538D01*
X86576378Y-54066002D01*
X86675437Y-54068815D01*
X86733567Y-54071908D01*
X86747126Y-54074144D01*
X86747759Y-54104430D01*
X86728044Y-54156526D01*
X86726541Y-54159473D01*
X86697728Y-54223841D01*
X86681735Y-54273927D01*
X86665286Y-54334196D01*
X86657251Y-54355703D01*
X86642003Y-54398272D01*
X86618457Y-54471031D01*
X86596822Y-54541375D01*
X86552171Y-54689913D01*
X85730032Y-54696436D01*
X84907892Y-54702959D01*
X84907892Y-54788002D01*
X84907892Y-54873045D01*
X85706284Y-54880505D01*
X85929244Y-54882815D01*
X86108227Y-54885352D01*
X86248765Y-54888447D01*
X86356393Y-54892429D01*
X86436646Y-54897627D01*
X86495057Y-54904370D01*
X86537162Y-54912989D01*
X86568494Y-54923811D01*
X86587084Y-54932932D01*
X86636005Y-54964495D01*
X86673375Y-55003384D01*
X86700702Y-55056264D01*
X86719495Y-55129795D01*
X86731261Y-55230642D01*
X86737509Y-55365466D01*
X86739746Y-55540931D01*
X86739861Y-55607921D01*
X86739476Y-55771967D01*
X86737799Y-55894620D01*
X86734052Y-55983998D01*
X86727453Y-56048218D01*
X86717222Y-56095397D01*
X86702578Y-56133653D01*
X86686328Y-56164777D01*
X86663468Y-56203246D01*
X86638949Y-56235484D01*
X86608437Y-56262042D01*
X86567601Y-56283469D01*
X86512105Y-56300317D01*
X86437618Y-56313134D01*
X86339806Y-56322471D01*
X86214336Y-56328878D01*
X86056874Y-56332905D01*
X85863088Y-56335103D01*
X85628644Y-56336021D01*
X85349209Y-56336209D01*
X85335978Y-56336210D01*
X84262748Y-56336210D01*
X84269677Y-56020566D01*
X84276606Y-55704923D01*
X85198779Y-55698433D01*
X86120953Y-55691942D01*
X86120953Y-55607149D01*
X86120953Y-55522356D01*
X85322561Y-55514614D01*
X85090756Y-55512201D01*
X84903022Y-55509320D01*
X84753917Y-55505073D01*
X84638002Y-55498562D01*
X84549836Y-55488888D01*
X84483979Y-55475153D01*
X84434989Y-55456458D01*
X84397428Y-55431905D01*
X84365853Y-55400594D01*
X84334825Y-55361629D01*
X84326118Y-55350056D01*
X84309154Y-55324066D01*
X84296559Y-55292850D01*
X84287690Y-55249120D01*
X84281903Y-55185583D01*
X84278556Y-55094951D01*
X84277005Y-54969931D01*
X84276607Y-54803236D01*
X84276606Y-54788939D01*
X84276811Y-54620201D01*
X84277943Y-54493467D01*
X84280771Y-54401228D01*
X84286067Y-54335977D01*
X84294600Y-54290203D01*
X84307143Y-54256399D01*
X84324467Y-54227056D01*
X84335987Y-54210553D01*
X84361528Y-54175817D01*
X84387241Y-54146826D01*
X84417603Y-54123059D01*
X84457089Y-54103999D01*
X84510174Y-54089125D01*
X84581335Y-54077919D01*
X84675048Y-54069861D01*
X84795787Y-54064433D01*
X84948029Y-54061114D01*
X85136249Y-54059387D01*
X85364924Y-54058731D01*
X85638528Y-54058627D01*
X85645661Y-54058627D01*
X85872861Y-54058970D01*
G37*
G36*
X80964480Y-53243823D02*
G01*
X81049345Y-53247641D01*
X81105392Y-53253612D01*
X81122012Y-53260235D01*
X81126524Y-53290809D01*
X81136008Y-53334364D01*
X81152156Y-53397038D01*
X81176659Y-53484968D01*
X81211208Y-53604294D01*
X81257493Y-53761155D01*
X81291639Y-53875965D01*
X81339775Y-54037871D01*
X81386430Y-54195451D01*
X81428520Y-54338236D01*
X81462960Y-54455759D01*
X81486664Y-54537552D01*
X81488617Y-54544387D01*
X81517257Y-54643781D01*
X81554201Y-54770513D01*
X81593574Y-54904479D01*
X81614330Y-54974611D01*
X81653179Y-55105543D01*
X81693620Y-55241944D01*
X81729468Y-55362955D01*
X81744679Y-55414353D01*
X81771943Y-55497076D01*
X81796307Y-55554408D01*
X81813320Y-55576255D01*
X81815660Y-55575269D01*
X81828578Y-55545870D01*
X81852058Y-55477807D01*
X81883186Y-55380060D01*
X81919048Y-55261607D01*
X81934253Y-55209796D01*
X81975650Y-55067849D01*
X82026343Y-54894641D01*
X82081577Y-54706386D01*
X82136594Y-54519300D01*
X82173871Y-54392837D01*
X82222563Y-54227189D01*
X82271857Y-54058322D01*
X82317944Y-53899364D01*
X82357017Y-53763441D01*
X82382128Y-53674904D01*
X82414525Y-53562265D01*
X82445384Y-53459966D01*
X82470315Y-53382329D01*
X82480785Y-53353071D01*
X82498742Y-53298402D01*
X82502433Y-53267120D01*
X82502079Y-53266424D01*
X82522279Y-53261385D01*
X82583175Y-53256252D01*
X82675954Y-53251557D01*
X82791802Y-53247832D01*
X82822171Y-53247138D01*
X82943055Y-53245957D01*
X83043812Y-53247574D01*
X83115355Y-53251644D01*
X83148600Y-53257824D01*
X83149873Y-53259516D01*
X83142737Y-53291345D01*
X83124339Y-53356211D01*
X83098772Y-53439718D01*
X83076983Y-53510768D01*
X83044274Y-53620029D01*
X83003412Y-53758127D01*
X82957166Y-53915691D01*
X82908303Y-54083347D01*
X82886759Y-54157652D01*
X82802763Y-54447251D01*
X82720052Y-54731312D01*
X82640206Y-55004465D01*
X82564809Y-55261342D01*
X82495443Y-55496576D01*
X82433690Y-55704797D01*
X82381132Y-55880638D01*
X82339353Y-56018730D01*
X82313934Y-56101024D01*
X82290646Y-56182105D01*
X82274767Y-56250329D01*
X82271166Y-56274319D01*
X82267452Y-56291887D01*
X82254977Y-56304881D01*
X82227003Y-56314135D01*
X82176788Y-56320485D01*
X82097593Y-56324765D01*
X81982677Y-56327810D01*
X81825300Y-56330456D01*
X81816945Y-56330581D01*
X81648616Y-56332308D01*
X81524292Y-56331532D01*
X81438515Y-56327959D01*
X81385829Y-56321296D01*
X81360774Y-56311249D01*
X81357140Y-56305825D01*
X81321918Y-56187169D01*
X81278529Y-56038781D01*
X81232172Y-55878603D01*
X81188044Y-55724576D01*
X81157962Y-55618276D01*
X81128200Y-55513645D01*
X81102171Y-55424624D01*
X81083544Y-55363640D01*
X81077556Y-55345956D01*
X81061061Y-55296670D01*
X81057438Y-55282676D01*
X81049304Y-55253238D01*
X81028987Y-55182247D01*
X80998214Y-55075669D01*
X80958715Y-54939470D01*
X80912218Y-54779614D01*
X80860450Y-54602067D01*
X80835090Y-54515230D01*
X80755131Y-54241528D01*
X80687971Y-54011477D01*
X80632503Y-53821208D01*
X80587618Y-53666854D01*
X80552210Y-53544547D01*
X80525169Y-53450417D01*
X80505388Y-53380596D01*
X80491759Y-53331217D01*
X80483174Y-53298410D01*
X80478525Y-53278308D01*
X80476705Y-53267042D01*
X80476508Y-53263227D01*
X80499384Y-53255215D01*
X80560555Y-53249046D01*
X80648835Y-53244769D01*
X80753040Y-53242439D01*
X80861983Y-53242106D01*
X80964480Y-53243823D01*
G37*
G36*
X69198383Y-56686263D02*
G01*
X69268685Y-56693422D01*
X69361269Y-56706405D01*
X69483668Y-56725880D01*
X69643416Y-56752518D01*
X69744637Y-56769572D01*
X69826733Y-56779761D01*
X69948393Y-56790036D01*
X70099673Y-56799797D01*
X70270631Y-56808443D01*
X70451321Y-56815373D01*
X70549218Y-56818184D01*
X70793304Y-56825588D01*
X70993047Y-56834772D01*
X71153601Y-56846379D01*
X71280122Y-56861053D01*
X71377765Y-56879435D01*
X71451687Y-56902170D01*
X71507041Y-56929899D01*
X71520904Y-56939366D01*
X71574940Y-57006182D01*
X71588268Y-57089226D01*
X71559590Y-57174754D01*
X71545110Y-57195680D01*
X71509081Y-57234533D01*
X71464325Y-57265569D01*
X71405155Y-57289700D01*
X71325885Y-57307843D01*
X71220829Y-57320912D01*
X71084301Y-57329821D01*
X70910614Y-57335485D01*
X70694082Y-57338818D01*
X70652646Y-57339218D01*
X70460118Y-57341908D01*
X70294675Y-57346127D01*
X70161315Y-57351641D01*
X70065037Y-57358219D01*
X70010840Y-57365628D01*
X70001190Y-57369461D01*
X70002928Y-57398320D01*
X70041247Y-57442521D01*
X70107879Y-57496428D01*
X70194556Y-57554405D01*
X70293009Y-57610816D01*
X70394973Y-57660023D01*
X70470440Y-57689377D01*
X70562080Y-57711153D01*
X70656410Y-57711123D01*
X70767273Y-57687922D01*
X70886713Y-57648277D01*
X70968614Y-57616133D01*
X71085636Y-57567382D01*
X71228007Y-57506302D01*
X71385955Y-57437172D01*
X71549709Y-57364270D01*
X71709497Y-57291875D01*
X71855548Y-57224264D01*
X71861303Y-57221561D01*
X72063005Y-57128886D01*
X72224456Y-57059508D01*
X72348492Y-57012334D01*
X72437949Y-56986267D01*
X72487077Y-56979874D01*
X72563753Y-57000430D01*
X72614450Y-57054472D01*
X72627962Y-57109845D01*
X72639930Y-57138921D01*
X72682137Y-57151466D01*
X72726904Y-57153169D01*
X72808585Y-57166543D01*
X72856319Y-57210655D01*
X72875389Y-57291490D01*
X72876313Y-57322360D01*
X72872899Y-57359456D01*
X72860315Y-57395483D01*
X72835046Y-57432685D01*
X72793580Y-57473309D01*
X72732403Y-57519598D01*
X72648000Y-57573799D01*
X72536860Y-57638158D01*
X72395467Y-57714918D01*
X72220308Y-57806326D01*
X72007870Y-57914628D01*
X71754639Y-58042068D01*
X71733559Y-58052633D01*
X70759646Y-58540643D01*
X70549218Y-58536829D01*
X70422279Y-58532316D01*
X70286971Y-58524043D01*
X70171366Y-58513749D01*
X70165494Y-58513085D01*
X69869084Y-58473953D01*
X69537565Y-58421225D01*
X69182773Y-58357042D01*
X68816545Y-58283546D01*
X68450716Y-58202879D01*
X68449136Y-58202514D01*
X68324288Y-58173868D01*
X68239801Y-58155784D01*
X68187796Y-58147687D01*
X68160391Y-58149004D01*
X68149705Y-58159161D01*
X68147855Y-58177581D01*
X68147853Y-58180557D01*
X68128719Y-58208240D01*
X68068002Y-58217659D01*
X68062667Y-58217691D01*
X68001003Y-58224251D01*
X67963861Y-58240263D01*
X67962181Y-58242447D01*
X67932943Y-58249760D01*
X67856501Y-58255888D01*
X67735154Y-58260766D01*
X67571196Y-58264323D01*
X67366925Y-58266492D01*
X67131382Y-58267204D01*
X66315884Y-58267204D01*
X66315884Y-57524514D01*
X66315884Y-56781824D01*
X67131122Y-56781824D01*
X67946359Y-56781824D01*
X67954270Y-56837525D01*
X67970088Y-56876474D01*
X68012357Y-56895459D01*
X68055017Y-56900911D01*
X68116114Y-56909981D01*
X68142218Y-56931804D01*
X68147848Y-56979010D01*
X68147853Y-56981679D01*
X68147853Y-57054764D01*
X68251005Y-56989648D01*
X68366302Y-56926179D01*
X68511412Y-56859795D01*
X68669460Y-56797060D01*
X68823573Y-56744536D01*
X68956875Y-56708787D01*
X68989323Y-56702479D01*
X69045832Y-56693035D01*
X69094490Y-56686738D01*
X69142829Y-56684258D01*
X69198383Y-56686263D01*
G37*
D14*
X112496800Y-119641600D02*
X113947800Y-119641600D01*
X112496800Y-124962600D02*
X112496800Y-119641600D01*
X112496800Y-126941600D02*
X112496800Y-126720600D01*
X112496800Y-126941600D02*
X112746800Y-126941600D01*
X114246800Y-126941600D02*
X115696800Y-126941600D01*
X115446800Y-119641600D02*
X115696800Y-119641600D01*
X115696800Y-119862600D02*
X115696800Y-119641600D01*
X115696800Y-126941600D02*
X115696800Y-121619600D01*
X69644800Y-79236180D02*
X69644800Y-78955020D01*
X70664800Y-79236180D02*
X70664800Y-78955020D01*
D15*
X92952800Y-74292000D02*
X91552800Y-74292000D01*
X91552800Y-77193600D01*
X92952800Y-77193600D01*
X92952800Y-74292000D01*
D14*
X72634800Y-70875200D02*
X72634800Y-69545200D01*
X73964800Y-70875200D02*
X72634800Y-70875200D01*
X75234800Y-68215200D02*
X82914800Y-68215200D01*
X75234800Y-70875200D02*
X75234800Y-68215200D01*
X75234800Y-70875200D02*
X82914800Y-70875200D01*
X82914800Y-70875200D02*
X82914800Y-68215200D01*
D17*
X46821900Y-94612800D02*
X46821900Y-94962800D01*
X46821900Y-97512800D02*
X46821900Y-97162800D01*
X52121900Y-94612800D02*
X46821900Y-94612800D01*
X52121900Y-94962800D02*
X52121900Y-94612800D01*
X52121900Y-97162800D02*
X52121900Y-97512800D01*
X52121900Y-97512800D02*
X46821900Y-97512800D01*
D11*
X53317900Y-96062800D02*
G75*
G02*
X53117900Y-96062800I-100000J0D01*
G01*
X53117900Y-96062800D02*
G75*
G02*
X53317900Y-96062800I100000J0D01*
G01*
D14*
X48238000Y-69149200D02*
X54658000Y-69149200D01*
X48238000Y-76049200D02*
X54658000Y-76049200D01*
X54658000Y-69149200D02*
X54658000Y-69419200D01*
X54658000Y-69419200D02*
X55758000Y-69419200D01*
X54658000Y-75779200D02*
X57488000Y-75779200D01*
X54658000Y-76049200D02*
X54658000Y-75779200D01*
X57237100Y-95254542D02*
X57237100Y-95729058D01*
X58282100Y-95254542D02*
X58282100Y-95729058D01*
X86967600Y-45555780D02*
X86967600Y-45274620D01*
X87987600Y-45555780D02*
X87987600Y-45274620D01*
X45285600Y-121251600D02*
X45285600Y-127871600D01*
X45285600Y-127871600D02*
X56945600Y-127871600D01*
X46545600Y-129261600D02*
X47045600Y-128261600D01*
X47045600Y-128261600D02*
X47545600Y-129261600D01*
X47545600Y-129261600D02*
X46545600Y-129261600D01*
X56945600Y-121251600D02*
X45285600Y-121251600D01*
X56945600Y-121251600D02*
X68605600Y-121251600D01*
X68605600Y-121251600D02*
X68605600Y-127871600D01*
X68605600Y-127871600D02*
X56945600Y-127871600D01*
D18*
X114909800Y-76991600D02*
X115459800Y-76991600D01*
X115659800Y-76991600D02*
X116209800Y-76991600D01*
X116409800Y-76991600D02*
X116759800Y-76991600D01*
D13*
X114914800Y-78051600D02*
X116804800Y-78051600D01*
X116804800Y-73621600D01*
X114914800Y-73621600D01*
X114914800Y-78051600D01*
D17*
X49458400Y-88626000D02*
X49458400Y-88976000D01*
X49458400Y-91526000D02*
X49458400Y-91176000D01*
X54758400Y-88626000D02*
X49458400Y-88626000D01*
X54758400Y-88976000D02*
X54758400Y-88626000D01*
X54758400Y-91176000D02*
X54758400Y-91526000D01*
X54758400Y-91526000D02*
X49458400Y-91526000D01*
D11*
X55954400Y-90076000D02*
G75*
G02*
X55754400Y-90076000I-100000J0D01*
G01*
X55754400Y-90076000D02*
G75*
G02*
X55954400Y-90076000I100000J0D01*
G01*
D15*
X79846000Y-59630000D02*
X89756000Y-59630000D01*
X81566000Y-64290000D02*
X82766000Y-64290000D01*
X81566000Y-65090000D02*
X81566000Y-64290000D01*
X82766000Y-64290000D02*
X82766000Y-65090000D01*
X86676000Y-64270000D02*
X87876000Y-64270000D01*
X86676000Y-65070000D02*
X86676000Y-64270000D01*
X87876000Y-64270000D02*
X87876000Y-65070000D01*
X79846000Y-65100000D02*
X89766000Y-65100000D01*
X89766000Y-58800000D01*
X79846000Y-58800000D01*
X79846000Y-65100000D01*
D14*
X87900742Y-93457500D02*
X88375258Y-93457500D01*
X87900742Y-94502500D02*
X88375258Y-94502500D01*
X83614200Y-119753200D02*
X83614200Y-121458200D01*
X83614200Y-119753200D02*
X95354200Y-119753200D01*
X83614200Y-122788200D02*
X83614200Y-124493200D01*
X83614200Y-124493200D02*
X95354200Y-124493200D01*
X95354200Y-119753200D02*
X95354200Y-121458200D01*
X95354200Y-122788200D02*
X95354200Y-124493200D01*
X58214800Y-74206980D02*
X58214800Y-73925820D01*
X59234800Y-74206980D02*
X59234800Y-73925820D01*
X103148400Y-121064400D02*
X104148400Y-121564400D01*
X103148400Y-122064400D02*
X103148400Y-121064400D01*
X104148400Y-121564400D02*
X103148400Y-122064400D01*
X104538400Y-119784400D02*
X104538400Y-123544400D01*
X104538400Y-127304400D02*
X104538400Y-123544400D01*
X111158400Y-119784400D02*
X104538400Y-119784400D01*
X111158400Y-123544400D02*
X111158400Y-119784400D01*
X111158400Y-123544400D02*
X111158400Y-127304400D01*
X111158400Y-127304400D02*
X104538400Y-127304400D01*
X72109200Y-126034800D02*
X72759200Y-126034800D01*
X72759200Y-124914800D02*
X72759200Y-127154800D01*
X72759200Y-127154800D02*
X76999200Y-127154800D01*
X73359200Y-124914800D02*
X73359200Y-127154800D01*
X73479200Y-124914800D02*
X73479200Y-127154800D01*
X73599200Y-124914800D02*
X73599200Y-127154800D01*
X76999200Y-124914800D02*
X72759200Y-124914800D01*
X76999200Y-127154800D02*
X76999200Y-124914800D01*
X77649200Y-126034800D02*
X76999200Y-126034800D01*
X39953200Y-85710000D02*
X40953200Y-86210000D01*
X39953200Y-86710000D02*
X39953200Y-85710000D01*
X40953200Y-86210000D02*
X39953200Y-86710000D01*
X41343200Y-84430000D02*
X41343200Y-88190000D01*
X41343200Y-91950000D02*
X41343200Y-88190000D01*
X47963200Y-84430000D02*
X41343200Y-84430000D01*
X47963200Y-88190000D02*
X47963200Y-84430000D01*
X47963200Y-88190000D02*
X47963200Y-91950000D01*
X47963200Y-91950000D02*
X41343200Y-91950000D01*
X103039142Y-93863900D02*
X103513658Y-93863900D01*
X103039142Y-94908900D02*
X103513658Y-94908900D01*
D17*
X83377300Y-78585600D02*
X87877300Y-78585600D01*
X87877300Y-71985600D02*
X83377300Y-71985600D01*
D11*
X81527300Y-72285600D02*
G75*
G02*
X81327300Y-72285600I-100000J0D01*
G01*
X81327300Y-72285600D02*
G75*
G02*
X81527300Y-72285600I100000J0D01*
G01*
D14*
X77608700Y-119144000D02*
X77608700Y-99344000D01*
X79358700Y-104294000D02*
X79358700Y-106794000D01*
X81758700Y-110194000D02*
X81758700Y-103394000D01*
X83558700Y-104794000D02*
X87158700Y-104794000D01*
X83558700Y-106794000D02*
X79358700Y-106794000D01*
X83558700Y-108794000D02*
X83558700Y-104794000D01*
X83558700Y-108794000D02*
X87158700Y-104794000D01*
X83908700Y-114894000D02*
X81408700Y-114894000D01*
X84208700Y-99344000D02*
X77608700Y-99344000D01*
X85358700Y-103394000D02*
X81758700Y-103394000D01*
X85358700Y-103394000D02*
X85358700Y-102594000D01*
X85358700Y-110194000D02*
X81758700Y-110194000D01*
X85358700Y-110194000D02*
X85358700Y-111694000D01*
X85358700Y-111694000D02*
X87858700Y-116294000D01*
X87158700Y-104794000D02*
X87158700Y-108794000D01*
X87158700Y-108794000D02*
X83558700Y-108794000D01*
X91358700Y-106794000D02*
X87158700Y-106794000D01*
X91358700Y-106794000D02*
X91358700Y-104294000D01*
X93208700Y-99344000D02*
X86608700Y-99344000D01*
X93208700Y-99344000D02*
X93208700Y-119144000D01*
X93208700Y-119144000D02*
X77608700Y-119144000D01*
X45800900Y-119144000D02*
X45800900Y-99344000D01*
X47550900Y-104294000D02*
X47550900Y-106794000D01*
X49400900Y-114894000D02*
X51850900Y-114894000D01*
X49950900Y-110194000D02*
X49950900Y-103394000D01*
X51750900Y-104794000D02*
X55350900Y-104794000D01*
X51750900Y-106794000D02*
X47550900Y-106794000D01*
X51750900Y-108794000D02*
X51750900Y-104794000D01*
X51750900Y-108794000D02*
X55350900Y-104794000D01*
X52400900Y-99344000D02*
X45800900Y-99344000D01*
X53550900Y-103394000D02*
X49950900Y-103394000D01*
X53550900Y-103394000D02*
X53550900Y-102594000D01*
X53550900Y-110194000D02*
X49950900Y-110194000D01*
X53550900Y-110194000D02*
X53550900Y-111694000D01*
X53550900Y-111694000D02*
X56050900Y-116294000D01*
X55350900Y-104794000D02*
X55350900Y-108794000D01*
X55350900Y-108794000D02*
X51750900Y-108794000D01*
X57800900Y-114894000D02*
X55300900Y-114894000D01*
X59550900Y-106794000D02*
X55350900Y-106794000D01*
X59550900Y-106794000D02*
X59550900Y-104294000D01*
X61400900Y-99344000D02*
X54800900Y-99344000D01*
X61400900Y-99344000D02*
X61400900Y-119144000D01*
X61400900Y-119144000D02*
X45800900Y-119144000D01*
D17*
X49412700Y-76934400D02*
X49412700Y-77284400D01*
X49412700Y-79834400D02*
X49412700Y-79484400D01*
X54712700Y-76934400D02*
X49412700Y-76934400D01*
X54712700Y-77284400D02*
X54712700Y-76934400D01*
X54712700Y-79484400D02*
X54712700Y-79834400D01*
X54712700Y-79834400D02*
X49412700Y-79834400D01*
D11*
X55908700Y-78384400D02*
G75*
G02*
X55708700Y-78384400I-100000J0D01*
G01*
X55708700Y-78384400D02*
G75*
G02*
X55908700Y-78384400I100000J0D01*
G01*
D14*
X69407600Y-97055700D02*
X69407600Y-96405700D01*
X69407600Y-97055700D02*
X69407600Y-97705700D01*
X72527600Y-97055700D02*
X72527600Y-96405700D01*
X72527600Y-97055700D02*
X72527600Y-97705700D01*
X72807600Y-96133200D02*
X72477600Y-95893200D01*
X72807600Y-95653200D01*
X72807600Y-96133200D01*
G36*
X72807600Y-96133200D02*
G01*
X72477600Y-95893200D01*
X72807600Y-95653200D01*
X72807600Y-96133200D01*
G37*
X74535420Y-77925200D02*
X74816580Y-77925200D01*
X74535420Y-78945200D02*
X74816580Y-78945200D01*
X66970000Y-79100000D02*
G75*
G02*
X58730000Y-79100000I-4120000J0D01*
G01*
X58730000Y-79100000D02*
G75*
G02*
X66970000Y-79100000I4120000J0D01*
G01*
X113218700Y-76521542D02*
X113218700Y-76996058D01*
X114263700Y-76521542D02*
X114263700Y-76996058D01*
X53405600Y-96801700D02*
X53405600Y-96151700D01*
X53405600Y-96801700D02*
X53405600Y-97451700D01*
X56525600Y-96801700D02*
X56525600Y-96151700D01*
X56525600Y-96801700D02*
X56525600Y-97451700D01*
X56805600Y-95879200D02*
X56475600Y-95639200D01*
X56805600Y-95399200D01*
X56805600Y-95879200D01*
G36*
X56805600Y-95879200D02*
G01*
X56475600Y-95639200D01*
X56805600Y-95399200D01*
X56805600Y-95879200D01*
G37*
X93602400Y-119144000D02*
X93602400Y-99344000D01*
X95352400Y-104294000D02*
X95352400Y-106794000D01*
X97752400Y-110194000D02*
X97752400Y-103394000D01*
X99552400Y-104794000D02*
X103152400Y-104794000D01*
X99552400Y-106794000D02*
X95352400Y-106794000D01*
X99552400Y-108794000D02*
X99552400Y-104794000D01*
X99552400Y-108794000D02*
X103152400Y-104794000D01*
X99902400Y-114894000D02*
X97402400Y-114894000D01*
X100202400Y-99344000D02*
X93602400Y-99344000D01*
X101352400Y-103394000D02*
X97752400Y-103394000D01*
X101352400Y-103394000D02*
X101352400Y-102594000D01*
X101352400Y-110194000D02*
X97752400Y-110194000D01*
X101352400Y-110194000D02*
X101352400Y-111694000D01*
X101352400Y-111694000D02*
X103852400Y-116294000D01*
X103152400Y-104794000D02*
X103152400Y-108794000D01*
X103152400Y-108794000D02*
X99552400Y-108794000D01*
X107352400Y-106794000D02*
X103152400Y-106794000D01*
X107352400Y-106794000D02*
X107352400Y-104294000D01*
X109202400Y-99344000D02*
X102602400Y-99344000D01*
X109202400Y-99344000D02*
X109202400Y-119144000D01*
X109202400Y-119144000D02*
X93602400Y-119144000D01*
D17*
X75345600Y-36889000D02*
X82845600Y-36889000D01*
X82845600Y-49489000D02*
X75345600Y-49489000D01*
D11*
X72585600Y-37474000D02*
G75*
G02*
X72385600Y-37474000I-100000J0D01*
G01*
X72385600Y-37474000D02*
G75*
G02*
X72585600Y-37474000I100000J0D01*
G01*
D14*
X111542300Y-74456058D02*
X111542300Y-73981542D01*
X112587300Y-74456058D02*
X112587300Y-73981542D01*
X69270000Y-119840000D02*
X69270000Y-124481000D01*
X69270000Y-119840000D02*
X79510000Y-119840000D01*
X69270000Y-121350000D02*
X79510000Y-121350000D01*
X69270000Y-124481000D02*
X79510000Y-124481000D01*
X72540000Y-119840000D02*
X72540000Y-121350000D01*
X76241000Y-119840000D02*
X76241000Y-121350000D01*
X79510000Y-119840000D02*
X79510000Y-124481000D01*
X67061200Y-87680800D02*
G75*
G02*
X58821200Y-87680800I-4120000J0D01*
G01*
X58821200Y-87680800D02*
G75*
G02*
X67061200Y-87680800I4120000J0D01*
G01*
D15*
X79918600Y-125334800D02*
X82818600Y-125334800D01*
X82818600Y-126734800D01*
X79918600Y-126734800D01*
X79918600Y-125334800D01*
X81980000Y-121803800D02*
X80580000Y-121803800D01*
X80580000Y-124703800D01*
X81980000Y-124703800D01*
X81980000Y-121803800D01*
D14*
X73188300Y-95317542D02*
X73188300Y-95792058D01*
X74233300Y-95317542D02*
X74233300Y-95792058D01*
D17*
X118946000Y-95310400D02*
X118946000Y-100610400D01*
X118946000Y-100610400D02*
X119296000Y-100610400D01*
X119296000Y-95310400D02*
X118946000Y-95310400D01*
X121496000Y-95310400D02*
X121846000Y-95310400D01*
X121846000Y-95310400D02*
X121846000Y-100610400D01*
X121846000Y-100610400D02*
X121496000Y-100610400D01*
D11*
X120496000Y-94214400D02*
G75*
G02*
X120296000Y-94214400I-100000J0D01*
G01*
X120296000Y-94214400D02*
G75*
G02*
X120496000Y-94214400I100000J0D01*
G01*
D14*
X105141500Y-95051342D02*
X105141500Y-95525858D01*
X106186500Y-95051342D02*
X106186500Y-95525858D01*
X85428300Y-39400858D02*
X85428300Y-38926342D01*
X86473300Y-39400858D02*
X86473300Y-38926342D01*
X71168800Y-79236180D02*
X71168800Y-78955020D01*
X72188800Y-79236180D02*
X72188800Y-78955020D01*
D15*
X96614000Y-127469600D02*
X96614000Y-119969600D01*
X101214000Y-121969600D02*
X102014000Y-121969600D01*
X101214000Y-123169600D02*
X101214000Y-121969600D01*
X101214000Y-124469600D02*
X102014000Y-124469600D01*
X101214000Y-125669600D02*
X101214000Y-124469600D01*
X102014000Y-123169600D02*
X101214000Y-123169600D01*
X102014000Y-125669600D02*
X101214000Y-125669600D01*
X102064000Y-127469600D02*
X95764000Y-127469600D01*
X95764000Y-119969600D01*
X102064000Y-119969600D01*
X102064000Y-127469600D01*
D14*
X109050000Y-78680000D02*
X109050000Y-83321000D01*
X109050000Y-78680000D02*
X119290000Y-78680000D01*
X109050000Y-80190000D02*
X119290000Y-80190000D01*
X109050000Y-83321000D02*
X119290000Y-83321000D01*
X112320000Y-78680000D02*
X112320000Y-80190000D01*
X116021000Y-78680000D02*
X116021000Y-80190000D01*
X119290000Y-78680000D02*
X119290000Y-83321000D01*
D17*
X49452800Y-84706800D02*
X54752800Y-84706800D01*
X49452800Y-85056800D02*
X49452800Y-84706800D01*
X49452800Y-87256800D02*
X49452800Y-87606800D01*
X49452800Y-87606800D02*
X54752800Y-87606800D01*
X54752800Y-84706800D02*
X54752800Y-85056800D01*
X54752800Y-87606800D02*
X54752800Y-87256800D01*
D11*
X48456800Y-86156800D02*
G75*
G02*
X48256800Y-86156800I-100000J0D01*
G01*
X48256800Y-86156800D02*
G75*
G02*
X48456800Y-86156800I100000J0D01*
G01*
D14*
X70831942Y-93762300D02*
X71306458Y-93762300D01*
X70831942Y-94807300D02*
X71306458Y-94807300D01*
X74548420Y-79449200D02*
X74829580Y-79449200D01*
X74548420Y-80469200D02*
X74829580Y-80469200D01*
D15*
X79919600Y-75523600D02*
X81319600Y-75523600D01*
X81319600Y-72623600D01*
X79919600Y-72623600D01*
X79919600Y-75523600D01*
D14*
X85440800Y-45555780D02*
X85440800Y-45274620D01*
X86460800Y-45555780D02*
X86460800Y-45274620D01*
X61708300Y-119144000D02*
X61708300Y-99344000D01*
X63458300Y-104294000D02*
X63458300Y-106794000D01*
X65308300Y-114894000D02*
X67758300Y-114894000D01*
X65858300Y-110194000D02*
X65858300Y-103394000D01*
X67658300Y-104794000D02*
X71258300Y-104794000D01*
X67658300Y-106794000D02*
X63458300Y-106794000D01*
X67658300Y-108794000D02*
X67658300Y-104794000D01*
X67658300Y-108794000D02*
X71258300Y-104794000D01*
X68308300Y-99344000D02*
X61708300Y-99344000D01*
X69458300Y-103394000D02*
X65858300Y-103394000D01*
X69458300Y-103394000D02*
X69458300Y-102594000D01*
X69458300Y-110194000D02*
X65858300Y-110194000D01*
X69458300Y-110194000D02*
X69458300Y-111694000D01*
X69458300Y-111694000D02*
X71958300Y-116294000D01*
X71258300Y-104794000D02*
X71258300Y-108794000D01*
X71258300Y-108794000D02*
X67658300Y-108794000D01*
X73708300Y-114894000D02*
X71208300Y-114894000D01*
X75458300Y-106794000D02*
X71258300Y-106794000D01*
X75458300Y-106794000D02*
X75458300Y-104294000D01*
X77308300Y-99344000D02*
X70708300Y-99344000D01*
X77308300Y-99344000D02*
X77308300Y-119144000D01*
X77308300Y-119144000D02*
X61708300Y-119144000D01*
D17*
X49420000Y-80846000D02*
X54720000Y-80846000D01*
X49420000Y-81196000D02*
X49420000Y-80846000D01*
X49420000Y-83396000D02*
X49420000Y-83746000D01*
X49420000Y-83746000D02*
X54720000Y-83746000D01*
X54720000Y-80846000D02*
X54720000Y-81196000D01*
X54720000Y-83746000D02*
X54720000Y-83396000D01*
D11*
X48424000Y-82296000D02*
G75*
G02*
X48224000Y-82296000I-100000J0D01*
G01*
X48224000Y-82296000D02*
G75*
G02*
X48424000Y-82296000I100000J0D01*
G01*
D17*
X78503000Y-94612800D02*
X78503000Y-94962800D01*
X78503000Y-97512800D02*
X78503000Y-97162800D01*
X83803000Y-94612800D02*
X78503000Y-94612800D01*
X83803000Y-94962800D02*
X83803000Y-94612800D01*
X83803000Y-97162800D02*
X83803000Y-97512800D01*
X83803000Y-97512800D02*
X78503000Y-97512800D01*
D11*
X84999000Y-96062800D02*
G75*
G02*
X84799000Y-96062800I-100000J0D01*
G01*
X84799000Y-96062800D02*
G75*
G02*
X84999000Y-96062800I100000J0D01*
G01*
D14*
X70545700Y-83378800D02*
X70545700Y-87138800D01*
X70545700Y-87138800D02*
X71805700Y-87138800D01*
X77365700Y-83378800D02*
X77365700Y-87138800D01*
X77365700Y-87138800D02*
X76105700Y-87138800D01*
X77595700Y-82338800D02*
X77265700Y-82098800D01*
X77595700Y-81858800D01*
X77595700Y-82338800D01*
G36*
X77595700Y-82338800D02*
G01*
X77265700Y-82098800D01*
X77595700Y-81858800D01*
X77595700Y-82338800D01*
G37*
X93432400Y-88087200D02*
X94342400Y-88087200D01*
X94342400Y-85367200D02*
X94342400Y-90807200D01*
X94342400Y-90807200D02*
X104082400Y-90807200D01*
X95767400Y-85367200D02*
X95767400Y-90807200D01*
X95887400Y-85367200D02*
X95887400Y-90807200D01*
X96007400Y-85367200D02*
X96007400Y-90807200D01*
X104082400Y-85367200D02*
X94342400Y-85367200D01*
X104082400Y-90807200D02*
X104082400Y-85367200D01*
X104992400Y-88087200D02*
X104082400Y-88087200D01*
X94839058Y-77049100D02*
X94364542Y-77049100D01*
X94839058Y-78094100D02*
X94364542Y-78094100D01*
X123016000Y-89154000D02*
G75*
G02*
X112776000Y-89154000I-5120000J0D01*
G01*
X112776000Y-89154000D02*
G75*
G02*
X123016000Y-89154000I5120000J0D01*
G01*
X78484000Y-74214180D02*
X78484000Y-73933020D01*
X79504000Y-74214180D02*
X79504000Y-73933020D01*
D17*
X98686800Y-73660000D02*
X105686800Y-73660000D01*
X98686800Y-73896500D02*
X98686800Y-73660000D01*
X98686800Y-78740000D02*
X98686800Y-78503500D01*
X105686800Y-73660000D02*
X105686800Y-73896500D01*
X105686800Y-78503500D02*
X105686800Y-78740000D01*
X105686800Y-78740000D02*
X98686800Y-78740000D01*
D12*
X96236800Y-74930000D02*
G75*
G02*
X95936800Y-74930000I-150000J0D01*
G01*
X95936800Y-74930000D02*
G75*
G02*
X96236800Y-74930000I150000J0D01*
G01*
D17*
X94706400Y-94612800D02*
X94706400Y-94962800D01*
X94706400Y-97512800D02*
X94706400Y-97162800D01*
X100006400Y-94612800D02*
X94706400Y-94612800D01*
X100006400Y-94962800D02*
X100006400Y-94612800D01*
X100006400Y-97162800D02*
X100006400Y-97512800D01*
X100006400Y-97512800D02*
X94706400Y-97512800D01*
D11*
X101202400Y-96062800D02*
G75*
G02*
X101002400Y-96062800I-100000J0D01*
G01*
X101002400Y-96062800D02*
G75*
G02*
X101202400Y-96062800I100000J0D01*
G01*
D14*
X54814742Y-93457500D02*
X55289258Y-93457500D01*
X54814742Y-94502500D02*
X55289258Y-94502500D01*
D15*
X77535400Y-73801200D02*
X74635400Y-73801200D01*
X74635400Y-72401200D01*
X77535400Y-72401200D01*
X77535400Y-73801200D01*
D14*
X93483200Y-82245200D02*
X94393200Y-82245200D01*
X94393200Y-79525200D02*
X94393200Y-84965200D01*
X94393200Y-84965200D02*
X104133200Y-84965200D01*
X95818200Y-79525200D02*
X95818200Y-84965200D01*
X95938200Y-79525200D02*
X95938200Y-84965200D01*
X96058200Y-79525200D02*
X96058200Y-84965200D01*
X104133200Y-79525200D02*
X94393200Y-79525200D01*
X104133200Y-84965200D02*
X104133200Y-79525200D01*
X105043200Y-82245200D02*
X104133200Y-82245200D01*
X85428300Y-41986542D02*
X85428300Y-42461058D01*
X86473300Y-41986542D02*
X86473300Y-42461058D01*
X109103900Y-74405258D02*
X109103900Y-73930742D01*
X110148900Y-74405258D02*
X110148900Y-73930742D01*
X101571600Y-97094300D02*
X101571600Y-96444300D01*
X101571600Y-97094300D02*
X101571600Y-97744300D01*
X104691600Y-97094300D02*
X104691600Y-96444300D01*
X104691600Y-97094300D02*
X104691600Y-97744300D01*
X104971600Y-96171800D02*
X104641600Y-95931800D01*
X104971600Y-95691800D01*
X104971600Y-96171800D01*
G36*
X104971600Y-96171800D02*
G01*
X104641600Y-95931800D01*
X104971600Y-95691800D01*
X104971600Y-96171800D01*
G37*
D17*
X62666400Y-94612800D02*
X62666400Y-94962800D01*
X62666400Y-97512800D02*
X62666400Y-97162800D01*
X67966400Y-94612800D02*
X62666400Y-94612800D01*
X67966400Y-94962800D02*
X67966400Y-94612800D01*
X67966400Y-97162800D02*
X67966400Y-97512800D01*
X67966400Y-97512800D02*
X62666400Y-97512800D01*
D11*
X69162400Y-96062800D02*
G75*
G02*
X68962400Y-96062800I-100000J0D01*
G01*
X68962400Y-96062800D02*
G75*
G02*
X69162400Y-96062800I100000J0D01*
G01*
D14*
X86451000Y-97180400D02*
X86451000Y-96530400D01*
X86451000Y-97180400D02*
X86451000Y-97830400D01*
X89571000Y-97180400D02*
X89571000Y-96530400D01*
X89571000Y-97180400D02*
X89571000Y-97830400D01*
X89851000Y-96257900D02*
X89521000Y-96017900D01*
X89851000Y-95777900D01*
X89851000Y-96257900D01*
G36*
X89851000Y-96257900D02*
G01*
X89521000Y-96017900D01*
X89851000Y-95777900D01*
X89851000Y-96257900D01*
G37*
X110416800Y-95823600D02*
X110416800Y-119223600D01*
X110416800Y-119223600D02*
X117816800Y-119223600D01*
X113816800Y-100523600D02*
X110416800Y-100523600D01*
X116716800Y-95623600D02*
X118016800Y-95623600D01*
X117416800Y-100523600D02*
X117816800Y-100523600D01*
X117816800Y-95823600D02*
X110416800Y-95823600D01*
X117856800Y-119223600D02*
X117856800Y-95823600D01*
X118016800Y-95623600D02*
X118016800Y-96823600D01*
%LPC*%
D19*
X90576400Y-94577400D03*
X90576400Y-96227400D03*
D20*
X87005200Y-126034800D03*
X85105200Y-126034800D03*
D21*
X113496800Y-125841600D03*
X114696800Y-120741600D03*
D22*
X70154800Y-79870600D03*
X70154800Y-78320600D03*
D23*
X43586400Y-35306000D03*
D24*
X92252800Y-74967800D03*
X92252800Y-76517800D03*
D25*
X73964800Y-69545200D03*
D26*
X76504800Y-69545200D03*
X79044800Y-69545200D03*
X81584800Y-69545200D03*
D27*
X47421900Y-96062800D03*
X51521900Y-96062800D03*
D28*
X56388000Y-74879200D03*
D29*
X50088000Y-72599200D03*
D28*
X56388000Y-70319200D03*
D19*
X57759600Y-94666800D03*
X57759600Y-96316800D03*
D22*
X87477600Y-46190200D03*
X87477600Y-44640200D03*
D30*
X47045600Y-124561600D03*
D21*
X51005600Y-124561600D03*
X54965600Y-124561600D03*
X58925600Y-124561600D03*
X62885600Y-124561600D03*
X66845600Y-124561600D03*
D31*
X115874800Y-77571600D03*
X115874800Y-74071600D03*
D27*
X50058400Y-90076000D03*
X54158400Y-90076000D03*
D23*
X117856000Y-35052000D03*
D25*
X82296000Y-62230000D03*
D26*
X84836000Y-62230000D03*
D32*
X87376000Y-62230000D03*
D33*
X87313000Y-93980000D03*
X88963000Y-93980000D03*
D34*
X84484200Y-122123200D03*
X94484200Y-122123200D03*
D22*
X58724800Y-74841400D03*
X58724800Y-73291400D03*
D35*
X107848400Y-121564400D03*
D21*
X107848400Y-125524400D03*
D36*
X71069200Y-126034800D03*
D37*
X78689200Y-126034800D03*
D35*
X44653200Y-86210000D03*
D21*
X44653200Y-90170000D03*
D33*
X102451400Y-94386400D03*
X104101400Y-94386400D03*
D38*
X82747300Y-72360600D03*
X82747300Y-73010600D03*
X82747300Y-73660600D03*
X82747300Y-74310600D03*
X82747300Y-74960600D03*
X82747300Y-75610600D03*
X82747300Y-76260600D03*
X82747300Y-76910600D03*
X82747300Y-77560600D03*
X82747300Y-78210600D03*
X88507300Y-78210600D03*
X88507300Y-77560600D03*
X88507300Y-76910600D03*
X88507300Y-76260600D03*
X88507300Y-75610600D03*
X88507300Y-74960600D03*
X88507300Y-74310600D03*
X88507300Y-73660600D03*
X88507300Y-73010600D03*
X88507300Y-72360600D03*
D23*
X85408700Y-100744000D03*
D39*
X79358700Y-102694000D03*
D23*
X79358700Y-114894000D03*
D39*
X91358700Y-102694000D03*
D23*
X53600900Y-100744000D03*
D39*
X47550900Y-102694000D03*
D23*
X47550900Y-114894000D03*
X59600900Y-114944000D03*
D39*
X59550900Y-102694000D03*
D27*
X50012700Y-78384400D03*
X54112700Y-78384400D03*
D40*
X71917600Y-96118200D03*
X70017600Y-96118200D03*
X70967600Y-97993200D03*
D41*
X73901000Y-78435200D03*
X75451000Y-78435200D03*
D34*
X64600000Y-79100000D03*
X61100000Y-79100000D03*
D19*
X113741200Y-75933800D03*
X113741200Y-77583800D03*
D40*
X55915600Y-95864200D03*
X54015600Y-95864200D03*
X54965600Y-97739200D03*
D23*
X101402400Y-100744000D03*
D39*
X95352400Y-102694000D03*
D23*
X95352400Y-114894000D03*
D39*
X107352400Y-102694000D03*
D42*
X74335600Y-37474000D03*
X74335600Y-38744000D03*
X74335600Y-40014000D03*
X74335600Y-41284000D03*
X74335600Y-42554000D03*
X74335600Y-43824000D03*
X74335600Y-45094000D03*
X74335600Y-46364000D03*
X74335600Y-47634000D03*
X74335600Y-48904000D03*
X83855600Y-48904000D03*
X83855600Y-47634000D03*
X83855600Y-46364000D03*
X83855600Y-45094000D03*
X83855600Y-43824000D03*
X83855600Y-42554000D03*
X83855600Y-41284000D03*
X83855600Y-40014000D03*
X83855600Y-38744000D03*
X83855600Y-37474000D03*
D43*
X112064800Y-75043800D03*
X112064800Y-73393800D03*
D44*
X71850000Y-123110000D03*
D45*
X74390000Y-123110000D03*
X76930000Y-123110000D03*
D34*
X61191200Y-87680800D03*
X64691200Y-87680800D03*
D46*
X80593600Y-126034800D03*
X82143600Y-126034800D03*
D24*
X81280000Y-122478800D03*
X81280000Y-124028800D03*
D19*
X73710800Y-94729800D03*
X73710800Y-96379800D03*
D47*
X120396000Y-100010400D03*
X120396000Y-95910400D03*
D19*
X105664000Y-94463600D03*
X105664000Y-96113600D03*
D43*
X85950800Y-39988600D03*
X85950800Y-38338600D03*
D22*
X71678800Y-79870600D03*
X71678800Y-78320600D03*
D25*
X99314000Y-125069600D03*
D26*
X99314000Y-122529600D03*
D44*
X111630000Y-81950000D03*
D45*
X114170000Y-81950000D03*
X116710000Y-81950000D03*
D48*
X54152800Y-86156800D03*
X50052800Y-86156800D03*
D33*
X70244200Y-94284800D03*
X71894200Y-94284800D03*
D41*
X73914000Y-79959200D03*
X75464000Y-79959200D03*
D49*
X80619600Y-74848600D03*
X80619600Y-73298600D03*
D22*
X85950800Y-46190200D03*
X85950800Y-44640200D03*
D23*
X69508300Y-100744000D03*
D39*
X63458300Y-102694000D03*
D23*
X63458300Y-114894000D03*
X75508300Y-114944000D03*
D39*
X75458300Y-102694000D03*
D48*
X54120000Y-82296000D03*
X50020000Y-82296000D03*
D27*
X79103000Y-96062800D03*
X83203000Y-96062800D03*
D50*
X76255700Y-82078800D03*
X73955700Y-82078800D03*
D51*
X73955700Y-88378800D03*
D50*
X71655700Y-82078800D03*
D52*
X91592400Y-88087200D03*
D53*
X106832400Y-88087200D03*
D54*
X95426800Y-77571600D03*
X93776800Y-77571600D03*
D34*
X120396000Y-89154000D03*
X115396000Y-89154000D03*
D22*
X78994000Y-74848600D03*
X78994000Y-73298600D03*
D55*
X97896800Y-74930000D03*
X97896800Y-77470000D03*
X106476800Y-77470000D03*
X106476800Y-74930000D03*
D27*
X95306400Y-96062800D03*
X99406400Y-96062800D03*
D33*
X54227000Y-93980000D03*
X55877000Y-93980000D03*
D56*
X76860400Y-73101200D03*
X75310400Y-73101200D03*
D52*
X91643200Y-82245200D03*
D53*
X106883200Y-82245200D03*
D19*
X85950800Y-41398800D03*
X85950800Y-43048800D03*
D43*
X109626400Y-74993000D03*
X109626400Y-73343000D03*
D40*
X104081600Y-96156800D03*
X102181600Y-96156800D03*
X103131600Y-98031800D03*
D27*
X63266400Y-96062800D03*
X67366400Y-96062800D03*
D40*
X88961000Y-96242900D03*
X87061000Y-96242900D03*
X88011000Y-98117900D03*
D57*
X114096800Y-99923600D03*
D58*
X114096800Y-105003600D03*
X114096800Y-110083600D03*
X114096800Y-115163600D03*
D59*
X64817600Y-50097800D03*
D60*
X62277600Y-50097800D03*
X59737600Y-50097800D03*
X57197600Y-50097800D03*
X54657600Y-50097800D03*
X54657600Y-34857800D03*
X57197600Y-34857800D03*
X59737600Y-34857800D03*
X62317600Y-34857800D03*
X64817600Y-34857800D03*
D61*
X117905400Y-63733600D03*
X117905400Y-68733600D03*
D59*
X106432600Y-50097800D03*
D60*
X103892600Y-50097800D03*
X101352600Y-50097800D03*
X98812600Y-50097800D03*
X96272600Y-50097800D03*
X96272600Y-34857800D03*
X98812600Y-34857800D03*
X101352600Y-34857800D03*
X103932600Y-34857800D03*
X106432600Y-34857800D03*
D61*
X45047700Y-63723600D03*
X45047700Y-58723600D03*
D62*
X94611200Y-122072400D02*
X98856800Y-122072400D01*
X98856800Y-122072400D02*
X99314000Y-122529600D01*
X94458800Y-122224800D02*
X94611200Y-122072400D01*
X83515200Y-126034800D02*
X83566000Y-126085600D01*
X85105200Y-126034800D02*
X83616800Y-126034800D01*
X83616800Y-126034800D02*
X83566000Y-126085600D01*
X82143600Y-126034800D02*
X83515200Y-126034800D01*
D63*
X47550900Y-118264500D02*
X48615600Y-119329200D01*
X47550900Y-115170700D02*
X47550900Y-118264500D01*
X62885600Y-121585000D02*
X62885600Y-124561600D01*
X60629800Y-119329200D02*
X62885600Y-121585000D01*
X48615600Y-119329200D02*
X60629800Y-119329200D01*
D62*
X81280000Y-122211800D02*
X80455600Y-121387400D01*
X75005400Y-121387400D02*
X74472800Y-121920000D01*
X81280000Y-122478800D02*
X81280000Y-122211800D01*
X80455600Y-121387400D02*
X75005400Y-121387400D01*
X74472800Y-121920000D02*
X74472800Y-123088400D01*
D63*
X59600900Y-112306300D02*
X61417200Y-110490000D01*
X61417200Y-110490000D02*
X77076020Y-110490000D01*
X79358700Y-112772680D02*
X79358700Y-114894000D01*
X59600900Y-114944000D02*
X59600900Y-112306300D01*
X77076020Y-110490000D02*
X79358700Y-112772680D01*
D64*
X82042000Y-118516400D02*
X84484200Y-120958600D01*
D65*
X71850000Y-123110000D02*
X71850000Y-118535200D01*
D64*
X84484200Y-120958600D02*
X84484200Y-122123200D01*
X63458300Y-114894000D02*
X67080700Y-118516400D01*
X67080700Y-118516400D02*
X71831200Y-118516400D01*
X71831200Y-118516400D02*
X82042000Y-118516400D01*
D62*
X81280000Y-124028800D02*
X81711200Y-124460000D01*
X98704400Y-124460000D02*
X99314000Y-125069600D01*
X81711200Y-124460000D02*
X98704400Y-124460000D01*
%LPD*%
M02*
