G04 #@! TF.GenerationSoftware,KiCad,Pcbnew,9.0.0*
G04 #@! TF.CreationDate,2025-04-24T15:57:18+07:00*
G04 #@! TF.ProjectId,Bo_Tom_V3,426f5f54-6f6d-45f5-9633-2e6b69636164,rev?*
G04 #@! TF.SameCoordinates,Original*
G04 #@! TF.FileFunction,Copper,L1,Top*
G04 #@! TF.FilePolarity,Positive*
%FSLAX46Y46*%
G04 Gerber Fmt 4.6, Leading zero omitted, Abs format (unit mm)*
G04 Created by KiCad (PCBNEW 9.0.0) date 2025-04-24 15:57:18*
%MOMM*%
%LPD*%
G01*
G04 APERTURE LIST*
G04 Aperture macros list*
%AMRoundRect*
0 Rectangle with rounded corners*
0 $1 Rounding radius*
0 $2 $3 $4 $5 $6 $7 $8 $9 X,Y pos of 4 corners*
0 Add a 4 corners polygon primitive as box body*
4,1,4,$2,$3,$4,$5,$6,$7,$8,$9,$2,$3,0*
0 Add four circle primitives for the rounded corners*
1,1,$1+$1,$2,$3*
1,1,$1+$1,$4,$5*
1,1,$1+$1,$6,$7*
1,1,$1+$1,$8,$9*
0 Add four rect primitives between the rounded corners*
20,1,$1+$1,$2,$3,$4,$5,0*
20,1,$1+$1,$4,$5,$6,$7,0*
20,1,$1+$1,$6,$7,$8,$9,0*
20,1,$1+$1,$8,$9,$2,$3,0*%
G04 Aperture macros list end*
G04 #@! TA.AperFunction,Conductor*
%ADD10C,0.200000*%
G04 #@! TD*
G04 #@! TA.AperFunction,SMDPad,CuDef*
%ADD11RoundRect,0.200000X-0.275000X0.200000X-0.275000X-0.200000X0.275000X-0.200000X0.275000X0.200000X0*%
G04 #@! TD*
G04 #@! TA.AperFunction,SMDPad,CuDef*
%ADD12RoundRect,0.150000X0.350000X0.525000X-0.350000X0.525000X-0.350000X-0.525000X0.350000X-0.525000X0*%
G04 #@! TD*
G04 #@! TA.AperFunction,ComponentPad*
%ADD13C,2.400000*%
G04 #@! TD*
G04 #@! TA.AperFunction,SMDPad,CuDef*
%ADD14RoundRect,0.225000X0.250000X-0.225000X0.250000X0.225000X-0.250000X0.225000X-0.250000X-0.225000X0*%
G04 #@! TD*
G04 #@! TA.AperFunction,SMDPad,CuDef*
%ADD15RoundRect,0.127500X0.322500X-0.297500X0.322500X0.297500X-0.322500X0.297500X-0.322500X-0.297500X0*%
G04 #@! TD*
G04 #@! TA.AperFunction,ComponentPad*
%ADD16R,1.700000X1.700000*%
G04 #@! TD*
G04 #@! TA.AperFunction,ComponentPad*
%ADD17O,1.700000X1.700000*%
G04 #@! TD*
G04 #@! TA.AperFunction,SMDPad,CuDef*
%ADD18RoundRect,0.114750X0.990250X0.650250X-0.990250X0.650250X-0.990250X-0.650250X0.990250X-0.650250X0*%
G04 #@! TD*
G04 #@! TA.AperFunction,SMDPad,CuDef*
%ADD19RoundRect,0.250000X0.850000X0.350000X-0.850000X0.350000X-0.850000X-0.350000X0.850000X-0.350000X0*%
G04 #@! TD*
G04 #@! TA.AperFunction,SMDPad,CuDef*
%ADD20RoundRect,0.250000X1.275000X1.125000X-1.275000X1.125000X-1.275000X-1.125000X1.275000X-1.125000X0*%
G04 #@! TD*
G04 #@! TA.AperFunction,SMDPad,CuDef*
%ADD21RoundRect,0.249997X2.950003X2.650003X-2.950003X2.650003X-2.950003X-2.650003X2.950003X-2.650003X0*%
G04 #@! TD*
G04 #@! TA.AperFunction,ComponentPad*
%ADD22RoundRect,0.250001X-0.949999X-0.949999X0.949999X-0.949999X0.949999X0.949999X-0.949999X0.949999X0*%
G04 #@! TD*
G04 #@! TA.AperFunction,SMDPad,CuDef*
%ADD23RoundRect,0.166667X-0.708333X0.083333X-0.708333X-0.083333X0.708333X-0.083333X0.708333X0.083333X0*%
G04 #@! TD*
G04 #@! TA.AperFunction,ComponentPad*
%ADD24C,1.700000*%
G04 #@! TD*
G04 #@! TA.AperFunction,SMDPad,CuDef*
%ADD25RoundRect,0.200000X-0.200000X-0.275000X0.200000X-0.275000X0.200000X0.275000X-0.200000X0.275000X0*%
G04 #@! TD*
G04 #@! TA.AperFunction,ComponentPad*
%ADD26C,1.600000*%
G04 #@! TD*
G04 #@! TA.AperFunction,ComponentPad*
%ADD27RoundRect,0.250001X-0.949999X0.949999X-0.949999X-0.949999X0.949999X-0.949999X0.949999X0.949999X0*%
G04 #@! TD*
G04 #@! TA.AperFunction,ComponentPad*
%ADD28R,1.600000X1.600000*%
G04 #@! TD*
G04 #@! TA.AperFunction,ComponentPad*
%ADD29O,1.600000X1.600000*%
G04 #@! TD*
G04 #@! TA.AperFunction,SMDPad,CuDef*
%ADD30R,1.560000X0.410000*%
G04 #@! TD*
G04 #@! TA.AperFunction,ComponentPad*
%ADD31C,3.000000*%
G04 #@! TD*
G04 #@! TA.AperFunction,ComponentPad*
%ADD32C,2.500000*%
G04 #@! TD*
G04 #@! TA.AperFunction,SMDPad,CuDef*
%ADD33RoundRect,0.150000X-0.150000X0.587500X-0.150000X-0.587500X0.150000X-0.587500X0.150000X0.587500X0*%
G04 #@! TD*
G04 #@! TA.AperFunction,SMDPad,CuDef*
%ADD34RoundRect,0.225000X-0.225000X-0.250000X0.225000X-0.250000X0.225000X0.250000X-0.225000X0.250000X0*%
G04 #@! TD*
G04 #@! TA.AperFunction,SMDPad,CuDef*
%ADD35RoundRect,0.076250X-0.773750X-0.228750X0.773750X-0.228750X0.773750X0.228750X-0.773750X0.228750X0*%
G04 #@! TD*
G04 #@! TA.AperFunction,SMDPad,CuDef*
%ADD36RoundRect,0.200000X0.275000X-0.200000X0.275000X0.200000X-0.275000X0.200000X-0.275000X-0.200000X0*%
G04 #@! TD*
G04 #@! TA.AperFunction,ComponentPad*
%ADD37R,1.905000X2.000000*%
G04 #@! TD*
G04 #@! TA.AperFunction,ComponentPad*
%ADD38O,1.905000X2.000000*%
G04 #@! TD*
G04 #@! TA.AperFunction,SMDPad,CuDef*
%ADD39RoundRect,0.127500X0.297500X0.322500X-0.297500X0.322500X-0.297500X-0.322500X0.297500X-0.322500X0*%
G04 #@! TD*
G04 #@! TA.AperFunction,SMDPad,CuDef*
%ADD40RoundRect,0.114750X-0.650250X0.990250X-0.650250X-0.990250X0.650250X-0.990250X0.650250X0.990250X0*%
G04 #@! TD*
G04 #@! TA.AperFunction,SMDPad,CuDef*
%ADD41RoundRect,0.114750X-0.990250X-0.650250X0.990250X-0.650250X0.990250X0.650250X-0.990250X0.650250X0*%
G04 #@! TD*
G04 #@! TA.AperFunction,SMDPad,CuDef*
%ADD42RoundRect,0.127500X-0.322500X0.297500X-0.322500X-0.297500X0.322500X-0.297500X0.322500X0.297500X0*%
G04 #@! TD*
G04 #@! TA.AperFunction,SMDPad,CuDef*
%ADD43RoundRect,0.375000X-0.375000X0.625000X-0.375000X-0.625000X0.375000X-0.625000X0.375000X0.625000X0*%
G04 #@! TD*
G04 #@! TA.AperFunction,SMDPad,CuDef*
%ADD44RoundRect,0.500000X-1.400000X0.500000X-1.400000X-0.500000X1.400000X-0.500000X1.400000X0.500000X0*%
G04 #@! TD*
G04 #@! TA.AperFunction,ComponentPad*
%ADD45R,3.200000X3.200000*%
G04 #@! TD*
G04 #@! TA.AperFunction,ComponentPad*
%ADD46O,3.200000X3.200000*%
G04 #@! TD*
G04 #@! TA.AperFunction,SMDPad,CuDef*
%ADD47RoundRect,0.200000X0.200000X0.275000X-0.200000X0.275000X-0.200000X-0.275000X0.200000X-0.275000X0*%
G04 #@! TD*
G04 #@! TA.AperFunction,SMDPad,CuDef*
%ADD48RoundRect,0.392500X-0.672500X-0.392500X0.672500X-0.392500X0.672500X0.392500X-0.672500X0.392500X0*%
G04 #@! TD*
G04 #@! TA.AperFunction,SMDPad,CuDef*
%ADD49RoundRect,0.127500X-0.297500X-0.322500X0.297500X-0.322500X0.297500X0.322500X-0.297500X0.322500X0*%
G04 #@! TD*
G04 #@! TA.AperFunction,ComponentPad*
%ADD50R,2.800000X2.800000*%
G04 #@! TD*
G04 #@! TA.AperFunction,ComponentPad*
%ADD51C,2.800000*%
G04 #@! TD*
G04 #@! TA.AperFunction,ComponentPad*
%ADD52R,1.500000X1.500000*%
G04 #@! TD*
G04 #@! TA.AperFunction,ComponentPad*
%ADD53C,1.500000*%
G04 #@! TD*
G04 #@! TA.AperFunction,ComponentPad*
%ADD54RoundRect,0.300000X-2.200000X-2.200000X2.200000X-2.200000X2.200000X2.200000X-2.200000X2.200000X0*%
G04 #@! TD*
G04 #@! TA.AperFunction,ComponentPad*
%ADD55RoundRect,0.300000X-2.200000X2.200000X-2.200000X-2.200000X2.200000X-2.200000X2.200000X2.200000X0*%
G04 #@! TD*
G04 #@! TA.AperFunction,ComponentPad*
%ADD56R,2.300000X2.300000*%
G04 #@! TD*
G04 #@! TA.AperFunction,ComponentPad*
%ADD57C,2.300000*%
G04 #@! TD*
G04 #@! TA.AperFunction,ComponentPad*
%ADD58RoundRect,0.300000X2.200000X2.200000X-2.200000X2.200000X-2.200000X-2.200000X2.200000X-2.200000X0*%
G04 #@! TD*
G04 #@! TA.AperFunction,ComponentPad*
%ADD59RoundRect,0.300000X2.200000X-2.200000X2.200000X2.200000X-2.200000X2.200000X-2.200000X-2.200000X0*%
G04 #@! TD*
G04 #@! TA.AperFunction,ViaPad*
%ADD60C,0.600000*%
G04 #@! TD*
G04 #@! TA.AperFunction,ViaPad*
%ADD61C,1.000000*%
G04 #@! TD*
G04 #@! TA.AperFunction,ViaPad*
%ADD62C,1.200000*%
G04 #@! TD*
G04 #@! TA.AperFunction,Conductor*
%ADD63C,0.250000*%
G04 #@! TD*
G04 #@! TA.AperFunction,Conductor*
%ADD64C,1.000000*%
G04 #@! TD*
G04 #@! TA.AperFunction,Conductor*
%ADD65C,0.600000*%
G04 #@! TD*
G04 #@! TA.AperFunction,Conductor*
%ADD66C,0.800000*%
G04 #@! TD*
G04 #@! TA.AperFunction,Conductor*
%ADD67C,2.000000*%
G04 #@! TD*
G04 #@! TA.AperFunction,Conductor*
%ADD68C,2.500000*%
G04 #@! TD*
G04 #@! TA.AperFunction,Conductor*
%ADD69C,3.000000*%
G04 #@! TD*
G04 #@! TA.AperFunction,Conductor*
%ADD70C,1.500000*%
G04 #@! TD*
G04 APERTURE END LIST*
D10*
X113231083Y-86681753D02*
X113181986Y-95322843D01*
X115316000Y-97478306D01*
X116382800Y-98501200D01*
X116337803Y-100796063D01*
X115560769Y-101650800D01*
X112776000Y-101650800D01*
X109423200Y-97637600D01*
X109372400Y-87731600D01*
X105156000Y-83261200D01*
X105156000Y-81137754D01*
X106126837Y-80264000D01*
X107891944Y-80264000D01*
X113231083Y-86681753D01*
G04 #@! TA.AperFunction,Conductor*
G36*
X113231083Y-86681753D02*
G01*
X113181986Y-95322843D01*
X115316000Y-97478306D01*
X116382800Y-98501200D01*
X116337803Y-100796063D01*
X115560769Y-101650800D01*
X112776000Y-101650800D01*
X109423200Y-97637600D01*
X109372400Y-87731600D01*
X105156000Y-83261200D01*
X105156000Y-81137754D01*
X106126837Y-80264000D01*
X107891944Y-80264000D01*
X113231083Y-86681753D01*
G37*
G04 #@! TD.AperFunction*
D11*
X90576400Y-94577400D03*
X90576400Y-96227400D03*
D12*
X87005200Y-126034800D03*
X85105200Y-126034800D03*
D13*
X113496800Y-125841600D03*
X114696800Y-120741600D03*
D14*
X70154800Y-79870600D03*
X70154800Y-78320600D03*
D15*
X92252800Y-74967800D03*
X92252800Y-76517800D03*
D16*
X73964800Y-69545200D03*
D17*
X76504800Y-69545200D03*
X79044800Y-69545200D03*
X81584800Y-69545200D03*
D18*
X47421900Y-96062800D03*
X51521900Y-96062800D03*
D19*
X56388000Y-74879200D03*
D20*
X51763000Y-74124200D03*
X51763000Y-71074200D03*
D21*
X50088000Y-72599200D03*
D20*
X48413000Y-74124200D03*
X48413000Y-71074200D03*
D19*
X56388000Y-70319200D03*
D11*
X57759600Y-94666800D03*
X57759600Y-96316800D03*
D14*
X87477600Y-46190200D03*
X87477600Y-44640200D03*
D22*
X47045600Y-124561600D03*
D13*
X51005600Y-124561600D03*
X54965600Y-124561600D03*
X58925600Y-124561600D03*
X62885600Y-124561600D03*
X66845600Y-124561600D03*
D23*
X115874800Y-77571600D03*
X115874800Y-74071600D03*
D18*
X50058400Y-90076000D03*
X54158400Y-90076000D03*
D16*
X82296000Y-62230000D03*
D17*
X84836000Y-62230000D03*
D24*
X87376000Y-62230000D03*
D25*
X87313000Y-93980000D03*
X88963000Y-93980000D03*
D26*
X84484200Y-122123200D03*
X94484200Y-122123200D03*
D14*
X58724800Y-74841400D03*
X58724800Y-73291400D03*
D27*
X107848400Y-121564400D03*
D13*
X107848400Y-125524400D03*
D28*
X71069200Y-126034800D03*
D29*
X78689200Y-126034800D03*
D27*
X44653200Y-86210000D03*
D13*
X44653200Y-90170000D03*
D25*
X102451400Y-94386400D03*
X104101400Y-94386400D03*
D30*
X82747300Y-72360600D03*
X82747300Y-73010600D03*
X82747300Y-73660600D03*
X82747300Y-74310600D03*
X82747300Y-74960600D03*
X82747300Y-75610600D03*
X82747300Y-76260600D03*
X82747300Y-76910600D03*
X82747300Y-77560600D03*
X82747300Y-78210600D03*
X88507300Y-78210600D03*
X88507300Y-77560600D03*
X88507300Y-76910600D03*
X88507300Y-76260600D03*
X88507300Y-75610600D03*
X88507300Y-74960600D03*
X88507300Y-74310600D03*
X88507300Y-73660600D03*
X88507300Y-73010600D03*
X88507300Y-72360600D03*
D31*
X85408700Y-100744000D03*
D32*
X79358700Y-102694000D03*
D31*
X79358700Y-114894000D03*
D32*
X91358700Y-102694000D03*
D31*
X53600900Y-100744000D03*
D32*
X47550900Y-102694000D03*
D31*
X47550900Y-114894000D03*
X59600900Y-114944000D03*
D32*
X59550900Y-102694000D03*
D18*
X50012700Y-78384400D03*
X54112700Y-78384400D03*
D33*
X71917600Y-96118200D03*
X70017600Y-96118200D03*
X70967600Y-97993200D03*
D34*
X73901000Y-78435200D03*
X75451000Y-78435200D03*
D26*
X64600000Y-79100000D03*
X61100000Y-79100000D03*
D11*
X113741200Y-75933800D03*
X113741200Y-77583800D03*
D33*
X55915600Y-95864200D03*
X54015600Y-95864200D03*
X54965600Y-97739200D03*
D31*
X101402400Y-100744000D03*
D32*
X95352400Y-102694000D03*
D31*
X95352400Y-114894000D03*
D32*
X107352400Y-102694000D03*
D35*
X74335600Y-37474000D03*
X74335600Y-38744000D03*
X74335600Y-40014000D03*
X74335600Y-41284000D03*
X74335600Y-42554000D03*
X74335600Y-43824000D03*
X74335600Y-45094000D03*
X74335600Y-46364000D03*
X74335600Y-47634000D03*
X74335600Y-48904000D03*
X83855600Y-48904000D03*
X83855600Y-47634000D03*
X83855600Y-46364000D03*
X83855600Y-45094000D03*
X83855600Y-43824000D03*
X83855600Y-42554000D03*
X83855600Y-41284000D03*
X83855600Y-40014000D03*
X83855600Y-38744000D03*
X83855600Y-37474000D03*
D36*
X112064800Y-75043800D03*
X112064800Y-73393800D03*
D37*
X71850000Y-123110000D03*
D38*
X74390000Y-123110000D03*
X76930000Y-123110000D03*
D26*
X61191200Y-87680800D03*
X64691200Y-87680800D03*
D39*
X80593600Y-126034800D03*
X82143600Y-126034800D03*
D15*
X81280000Y-122478800D03*
X81280000Y-124028800D03*
D11*
X73710800Y-94729800D03*
X73710800Y-96379800D03*
D40*
X120396000Y-100010400D03*
X120396000Y-95910400D03*
D11*
X105664000Y-94463600D03*
X105664000Y-96113600D03*
D36*
X85950800Y-39988600D03*
X85950800Y-38338600D03*
D14*
X71678800Y-79870600D03*
X71678800Y-78320600D03*
D16*
X99314000Y-125069600D03*
D17*
X99314000Y-122529600D03*
D37*
X111630000Y-81950000D03*
D38*
X114170000Y-81950000D03*
X116710000Y-81950000D03*
D41*
X54152800Y-86156800D03*
X50052800Y-86156800D03*
D25*
X70244200Y-94284800D03*
X71894200Y-94284800D03*
D34*
X73914000Y-79959200D03*
X75464000Y-79959200D03*
D42*
X80619600Y-74848600D03*
X80619600Y-73298600D03*
D14*
X85950800Y-46190200D03*
X85950800Y-44640200D03*
D31*
X69508300Y-100744000D03*
D32*
X63458300Y-102694000D03*
D31*
X63458300Y-114894000D03*
X75508300Y-114944000D03*
D32*
X75458300Y-102694000D03*
D41*
X54120000Y-82296000D03*
X50020000Y-82296000D03*
D18*
X79103000Y-96062800D03*
X83203000Y-96062800D03*
D43*
X76255700Y-82078800D03*
X73955700Y-82078800D03*
D44*
X73955700Y-88378800D03*
D43*
X71655700Y-82078800D03*
D45*
X91592400Y-88087200D03*
D46*
X106832400Y-88087200D03*
D47*
X95426800Y-77571600D03*
X93776800Y-77571600D03*
D26*
X120396000Y-89154000D03*
X115396000Y-89154000D03*
D14*
X78994000Y-74848600D03*
X78994000Y-73298600D03*
D48*
X97896800Y-74930000D03*
X97896800Y-77470000D03*
X106476800Y-77470000D03*
X106476800Y-74930000D03*
D18*
X95306400Y-96062800D03*
X99406400Y-96062800D03*
D25*
X54227000Y-93980000D03*
X55877000Y-93980000D03*
D49*
X76860400Y-73101200D03*
X75310400Y-73101200D03*
D45*
X91643200Y-82245200D03*
D46*
X106883200Y-82245200D03*
D11*
X85950800Y-41398800D03*
X85950800Y-43048800D03*
D36*
X109626400Y-74993000D03*
X109626400Y-73343000D03*
D33*
X104081600Y-96156800D03*
X102181600Y-96156800D03*
X103131600Y-98031800D03*
D18*
X63266400Y-96062800D03*
X67366400Y-96062800D03*
D33*
X88961000Y-96242900D03*
X87061000Y-96242900D03*
X88011000Y-98117900D03*
D50*
X114096800Y-99923600D03*
D51*
X114096800Y-105003600D03*
X114096800Y-110083600D03*
X114096800Y-115163600D03*
D52*
X64817600Y-50097800D03*
D53*
X62277600Y-50097800D03*
X59737600Y-50097800D03*
X57197600Y-50097800D03*
X54657600Y-50097800D03*
X54657600Y-34857800D03*
X57197600Y-34857800D03*
X59737600Y-34857800D03*
X62317600Y-34857800D03*
X64817600Y-34857800D03*
D54*
X106105400Y-63733600D03*
D55*
X97405400Y-63733600D03*
D56*
X117905400Y-58733600D03*
D57*
X117905400Y-63733600D03*
X117905400Y-68733600D03*
D52*
X106432600Y-50097800D03*
D53*
X103892600Y-50097800D03*
X101352600Y-50097800D03*
X98812600Y-50097800D03*
X96272600Y-50097800D03*
X96272600Y-34857800D03*
X98812600Y-34857800D03*
X101352600Y-34857800D03*
X103932600Y-34857800D03*
X106432600Y-34857800D03*
D58*
X56847700Y-63723600D03*
D59*
X65547700Y-63723600D03*
D56*
X45047700Y-68723600D03*
D57*
X45047700Y-63723600D03*
X45047700Y-58723600D03*
D60*
X78740000Y-91287600D03*
X72085200Y-91287600D03*
X66903600Y-91389200D03*
X59385200Y-91440000D03*
X80755067Y-55473600D03*
X123291600Y-36626800D03*
X103784400Y-36758880D03*
X123291600Y-47721520D03*
X82109733Y-50444400D03*
D61*
X48209200Y-70815200D03*
D60*
X100854933Y-86868000D03*
X73406000Y-55473600D03*
X107035600Y-59588400D03*
X51511200Y-50393600D03*
X60350400Y-77368400D03*
D61*
X52019200Y-72440800D03*
D60*
X104302560Y-59588400D03*
X70662800Y-57404000D03*
X84124800Y-50444400D03*
X41351200Y-61315600D03*
X112877600Y-54295040D03*
X51460400Y-57200800D03*
X86979760Y-35052000D03*
X48717200Y-61468000D03*
X77012800Y-71831200D03*
X84246720Y-35052000D03*
X49987200Y-62941200D03*
X98839867Y-86868000D03*
X58775600Y-54000400D03*
X68580000Y-72898000D03*
X101569520Y-56946800D03*
X43180000Y-74930000D03*
X46583600Y-52628800D03*
X102057200Y-89052400D03*
D61*
X48209200Y-74066400D03*
D60*
X67818000Y-35102800D03*
X66040000Y-98806000D03*
X51460400Y-54000400D03*
X118211600Y-42245280D03*
X48768000Y-55473600D03*
X123342400Y-63875920D03*
X48768000Y-54000400D03*
D61*
X50088800Y-74066400D03*
D60*
X123291600Y-39522400D03*
X78740000Y-57404000D03*
X110845600Y-62494160D03*
X42824400Y-45262800D03*
X94843600Y-73050400D03*
X96824800Y-89306400D03*
X123342400Y-55676800D03*
X76250800Y-77114400D03*
X120599200Y-44978320D03*
X49987200Y-61468000D03*
X44754800Y-52527200D03*
X44754800Y-41605200D03*
X66548000Y-71272400D03*
X65278000Y-55473600D03*
X76301600Y-76098400D03*
X98839867Y-89306400D03*
X55666640Y-68732400D03*
X70551040Y-35102800D03*
X60502800Y-54000400D03*
X52730400Y-55524400D03*
X103093520Y-47548800D03*
X56032400Y-39776400D03*
X120599200Y-47711360D03*
X113182400Y-47650400D03*
X57861200Y-41351200D03*
X62433200Y-57404000D03*
X120599200Y-42245280D03*
X62230000Y-41300400D03*
X76017120Y-35102800D03*
X79603600Y-46939200D03*
X76504800Y-62416267D03*
X108458000Y-39491920D03*
X41351200Y-64109600D03*
X41402000Y-53492400D03*
X42824400Y-50850800D03*
X77063600Y-97282000D03*
X77673200Y-46939200D03*
X67564000Y-41411000D03*
X112806480Y-50444400D03*
X100854933Y-81026000D03*
X113182400Y-44917360D03*
X52730400Y-54051200D03*
X94894400Y-47548800D03*
X81229200Y-88493600D03*
X110845600Y-47650400D03*
X68021200Y-57404000D03*
X53238400Y-94081600D03*
X52578000Y-61569600D03*
X78943200Y-66446400D03*
X64871600Y-85547200D03*
X42824400Y-56184800D03*
X98839867Y-81026000D03*
X82770133Y-57404000D03*
X84937600Y-66446400D03*
X71018400Y-71180960D03*
X120548400Y-55981600D03*
X123342400Y-58409840D03*
X66548000Y-69342000D03*
X102565200Y-77825600D03*
X41402000Y-58928000D03*
X44754800Y-55270400D03*
X123342400Y-66608960D03*
X42824400Y-53492400D03*
X76504800Y-64431333D03*
X64566800Y-93878400D03*
X49022000Y-36779200D03*
X76149200Y-55473600D03*
X43129200Y-69697600D03*
X112877600Y-62494160D03*
X110845600Y-57028080D03*
X50139600Y-54000400D03*
X51511200Y-44958000D03*
X70713600Y-55473600D03*
X46583600Y-41706800D03*
X88161000Y-94996000D03*
X51358800Y-64719200D03*
X99415600Y-42468800D03*
X110845600Y-39451280D03*
X81483200Y-35102800D03*
X56083200Y-41503600D03*
X41351200Y-72237600D03*
X99415600Y-37998400D03*
X44958000Y-72237600D03*
X112877600Y-65227200D03*
X65074800Y-41402000D03*
X106121200Y-39491920D03*
X58399680Y-68732400D03*
X105826560Y-47548800D03*
X98836480Y-59588400D03*
X80094667Y-50444400D03*
X108458000Y-42224960D03*
X99415600Y-40081200D03*
X51358800Y-62992000D03*
X60502800Y-57200800D03*
X67259200Y-83159600D03*
X62941200Y-89001600D03*
X110896400Y-69138800D03*
X49022000Y-45008800D03*
X100634800Y-77876400D03*
X68580000Y-76403200D03*
X43129200Y-72237600D03*
X44754800Y-49834800D03*
X66548000Y-76250800D03*
X93949520Y-37998400D03*
X49022000Y-42367200D03*
X52578000Y-63042800D03*
X51460400Y-55473600D03*
X110845600Y-65227200D03*
X55524400Y-57251600D03*
X78943200Y-62416267D03*
X75133200Y-76047600D03*
X49987200Y-64668400D03*
X120599200Y-39512240D03*
X62484000Y-55473600D03*
X77978000Y-73355200D03*
X61061600Y-85547200D03*
X76098400Y-57404000D03*
X100360480Y-47548800D03*
X118211600Y-50444400D03*
D61*
X50088800Y-72440800D03*
X52019200Y-70815200D03*
D60*
X81280000Y-84598933D03*
X79603600Y-44924133D03*
X46583600Y-49936400D03*
X81280000Y-80568800D03*
X101569520Y-59588400D03*
X96682560Y-40081200D03*
X123342400Y-69342000D03*
X123291600Y-50454560D03*
X41402000Y-56184800D03*
X110845600Y-59761120D03*
X68072000Y-55473600D03*
X46583600Y-47294800D03*
X93949520Y-42468800D03*
X71018400Y-73914000D03*
X71018400Y-65714880D03*
X104851200Y-69138800D03*
X48717200Y-62941200D03*
X82770133Y-55473600D03*
X50139600Y-55473600D03*
X43180000Y-61417200D03*
X59872880Y-60198000D03*
X51511200Y-42316400D03*
X115519200Y-47650400D03*
X114960400Y-59811920D03*
X99737333Y-69138800D03*
X49022000Y-50444400D03*
X55524400Y-54051200D03*
X45821600Y-61518800D03*
X101752400Y-69138800D03*
X71018400Y-72593200D03*
X114960400Y-57078880D03*
X106121200Y-42224960D03*
X54152800Y-55524400D03*
X114960400Y-54345840D03*
X78943200Y-60401200D03*
D61*
X48209200Y-72440800D03*
D60*
X118211600Y-39512240D03*
D61*
X50088800Y-70815200D03*
D60*
X98839867Y-83464400D03*
X77673200Y-39624000D03*
X51511200Y-36728400D03*
D61*
X52019200Y-74066400D03*
D60*
X103784400Y-44958000D03*
X77063600Y-94335600D03*
X61315600Y-98145600D03*
X76504800Y-60401200D03*
X58775600Y-57200800D03*
X54152800Y-57251600D03*
X41402000Y-45262800D03*
X51511200Y-39522400D03*
X60045600Y-41351200D03*
X110845600Y-54295040D03*
X103784400Y-39491920D03*
X118211600Y-44978320D03*
X68580000Y-71272400D03*
X54152800Y-54051200D03*
X113182400Y-39451280D03*
X52578000Y-64770000D03*
X52730400Y-57251600D03*
X101549200Y-71577200D03*
X49936400Y-92913200D03*
X60502800Y-55473600D03*
X84785200Y-55473600D03*
X110845600Y-44917360D03*
X62788800Y-81788000D03*
X106866267Y-69138800D03*
X101041200Y-93573600D03*
X110073440Y-50444400D03*
X57200800Y-54000400D03*
X108559600Y-47548800D03*
X41402000Y-50850800D03*
X110845600Y-33985200D03*
X50139600Y-57200800D03*
X57200800Y-55473600D03*
X108881333Y-69138800D03*
X45008800Y-74828400D03*
X61132720Y-68732400D03*
X96103440Y-56946800D03*
X71628000Y-86055200D03*
X58978800Y-82956400D03*
X65338960Y-60198000D03*
X102870000Y-83464400D03*
X77673200Y-44924133D03*
X55524400Y-55524400D03*
X66548000Y-74523600D03*
X62605920Y-60198000D03*
X93949520Y-40081200D03*
X71170800Y-67005200D03*
X73355200Y-57404000D03*
X84785200Y-57404000D03*
X81280000Y-82583867D03*
X78943200Y-64431333D03*
X65227200Y-57404000D03*
X42824400Y-48056800D03*
X104302560Y-56946800D03*
X98836480Y-56946800D03*
X79603600Y-40894000D03*
X43129200Y-67157600D03*
X68630800Y-78089760D03*
X118160800Y-55981600D03*
X82204560Y-66446400D03*
X92506800Y-35102800D03*
X76504800Y-66446400D03*
X102463600Y-74726800D03*
X42824400Y-58928000D03*
X123291600Y-53187600D03*
X106121200Y-44958000D03*
X77673200Y-42909067D03*
X93065600Y-95961200D03*
X49022000Y-47701200D03*
X123342400Y-61142880D03*
X96682560Y-42468800D03*
X95707200Y-69138800D03*
X57139840Y-60198000D03*
X44754800Y-47193200D03*
X99771200Y-71628000D03*
X71628000Y-84175600D03*
X46583600Y-55372000D03*
X68630800Y-69372480D03*
X89712800Y-35052000D03*
X123291600Y-44988480D03*
X63865760Y-68732400D03*
X81280000Y-86614000D03*
X96682560Y-37998400D03*
X61315600Y-96062800D03*
X115539520Y-50444400D03*
X41402000Y-48056800D03*
X120548400Y-53248560D03*
X123291600Y-42255440D03*
X51511200Y-47650400D03*
X66548000Y-72593200D03*
X51358800Y-61518800D03*
X118211600Y-47711360D03*
X112877600Y-57028080D03*
X55981600Y-37896800D03*
X94132400Y-98602800D03*
X68072000Y-60198000D03*
X110845600Y-36718240D03*
X48717200Y-64668400D03*
X112877600Y-59761120D03*
X46583600Y-44500800D03*
X97586800Y-71526400D03*
X96103440Y-59588400D03*
X91216480Y-37998400D03*
X103784400Y-42224960D03*
X113182400Y-36718240D03*
X108458000Y-36758880D03*
X57200800Y-57200800D03*
X97627440Y-47548800D03*
X96824800Y-86868000D03*
X100634800Y-74726800D03*
X48768000Y-57200800D03*
X102870000Y-81026000D03*
X114960400Y-65278000D03*
X68580000Y-74523600D03*
X56032400Y-43281600D03*
X41351200Y-74980800D03*
X115519200Y-42184320D03*
X113182400Y-42184320D03*
X96824800Y-83464400D03*
X79603600Y-39624000D03*
X69189600Y-94284800D03*
X118160800Y-53248560D03*
X114960400Y-62544960D03*
X49022000Y-39573200D03*
X79603600Y-42909067D03*
X110845600Y-42184320D03*
X41351200Y-66903600D03*
X106121200Y-36758880D03*
X78740000Y-55473600D03*
X41351200Y-69545200D03*
X96824800Y-81026000D03*
X76098400Y-84124800D03*
X108458000Y-44958000D03*
X73284080Y-35102800D03*
X95758000Y-71577200D03*
X78079600Y-50444400D03*
X115519200Y-44917360D03*
X80755067Y-57404000D03*
X71018400Y-62981840D03*
X100854933Y-83464400D03*
X97722267Y-69138800D03*
X77673200Y-40894000D03*
X120599200Y-50444400D03*
X76149200Y-85953600D03*
X58775600Y-55473600D03*
X44754800Y-44399200D03*
X107035600Y-56946800D03*
X78750160Y-35102800D03*
X115519200Y-39451280D03*
X88646000Y-66497200D03*
X123291600Y-111888954D03*
X114401600Y-94437200D03*
X116484400Y-102870000D03*
X123291600Y-93155477D03*
X123291600Y-86910985D03*
X112877600Y-107492800D03*
X117856000Y-88341200D03*
X117856000Y-90322400D03*
X112877600Y-112420400D03*
X123291600Y-99399969D03*
X123291600Y-80666492D03*
X117906800Y-86461600D03*
X116179600Y-107594400D03*
X113030000Y-102768400D03*
X118059200Y-74726800D03*
X123291600Y-102522215D03*
X117754400Y-94081600D03*
X123291600Y-74422000D03*
X117957600Y-84582000D03*
X123291600Y-105644462D03*
X115366800Y-112979200D03*
X117805200Y-92202000D03*
X123291600Y-90033231D03*
X123291600Y-108766708D03*
X117043200Y-114300000D03*
X123291600Y-115011200D03*
X123291600Y-77544246D03*
X123291600Y-83788738D03*
X123291600Y-96277723D03*
X116636800Y-97231200D03*
D62*
X87833200Y-38363000D03*
X89154000Y-43087400D03*
X92252800Y-67513200D03*
X83566000Y-126085600D03*
D60*
X101567400Y-91505200D03*
X102412800Y-93305200D03*
X90576400Y-93319600D03*
X90576400Y-91505200D03*
X73710800Y-93726000D03*
X73710800Y-91505200D03*
X57708800Y-93305200D03*
X57708800Y-91505200D03*
X59740800Y-52949000D03*
X72948800Y-43849400D03*
X62277600Y-53558600D03*
X62585600Y-32607200D03*
X65176400Y-31887000D03*
X64817600Y-54219000D03*
X72999600Y-42630200D03*
X57197600Y-52339400D03*
X85090000Y-43900200D03*
X82550000Y-46389400D03*
X82499200Y-47694800D03*
X81534000Y-78232000D03*
X90017600Y-72796400D03*
X89560400Y-76250800D03*
X87325200Y-71577200D03*
X87325200Y-76911200D03*
X89712800Y-78282800D03*
D62*
X69225000Y-90728800D03*
X69189600Y-88849200D03*
D63*
X79197200Y-78028800D02*
X80315400Y-76910600D01*
X80481600Y-91251200D02*
X79197200Y-89966800D01*
X79197200Y-89966800D02*
X79197200Y-78028800D01*
X90525600Y-91251200D02*
X80481600Y-91251200D01*
X80315400Y-76910600D02*
X82747300Y-76910600D01*
X90576400Y-91505200D02*
X90576400Y-91251200D01*
X90576400Y-91505200D02*
X90576400Y-91302000D01*
X90576400Y-91302000D02*
X90525600Y-91251200D01*
D64*
X94611200Y-122072400D02*
X98856800Y-122072400D01*
X98856800Y-122072400D02*
X99314000Y-122529600D01*
X94458800Y-122224800D02*
X94611200Y-122072400D01*
X56388000Y-74879200D02*
X58687000Y-74879200D01*
X56388000Y-75067200D02*
X56340400Y-75019600D01*
X54634600Y-90035100D02*
X55811700Y-90035100D01*
X56388000Y-87680800D02*
X61191200Y-87680800D01*
X56337200Y-78282800D02*
X56388000Y-78232000D01*
X56388000Y-87680800D02*
X56388000Y-78232000D01*
X54069200Y-78282800D02*
X56337200Y-78282800D01*
X55811700Y-90035100D02*
X56388000Y-89458800D01*
X56388000Y-89458800D02*
X56388000Y-87680800D01*
X58687000Y-74879200D02*
X58724800Y-74841400D01*
X56388000Y-78232000D02*
X56388000Y-75067200D01*
D63*
X88507300Y-75610600D02*
X91345600Y-75610600D01*
X88507300Y-75621000D02*
X88550900Y-75577400D01*
X91345600Y-75610600D02*
X92252800Y-76517800D01*
D65*
X73901000Y-78435200D02*
X73901000Y-75438000D01*
D63*
X88507300Y-74960600D02*
X92245600Y-74960600D01*
X82747300Y-74960600D02*
X80650200Y-74960600D01*
D65*
X87550400Y-44640200D02*
X87579200Y-44611400D01*
X87122000Y-58674000D02*
X89154000Y-56642000D01*
X73914000Y-79959200D02*
X73914000Y-78448200D01*
X44326200Y-58674000D02*
X73710800Y-58674000D01*
D64*
X73955700Y-88378800D02*
X73955700Y-82078800D01*
D65*
X73710800Y-58674000D02*
X87122000Y-58674000D01*
X74259300Y-81775200D02*
X73955700Y-82078800D01*
X73901000Y-75438000D02*
X73901000Y-74930000D01*
X85456000Y-42554000D02*
X85950800Y-43048800D01*
X89154000Y-56642000D02*
X89154000Y-43087400D01*
X92252800Y-67513200D02*
X92252800Y-74967800D01*
D63*
X80650200Y-74879200D02*
X80619600Y-74848600D01*
X92245600Y-74960600D02*
X92252800Y-74967800D01*
D65*
X85950800Y-44608600D02*
X85982400Y-44640200D01*
X73901000Y-74930000D02*
X73901000Y-69609000D01*
X73964800Y-58724800D02*
X73964800Y-69545200D01*
X85982400Y-44640200D02*
X87550400Y-44640200D01*
X73955700Y-82078800D02*
X73955700Y-79854300D01*
X73955700Y-82078800D02*
X74071300Y-81963200D01*
D66*
X74223700Y-81810800D02*
X73955700Y-82078800D01*
D65*
X87833200Y-38363000D02*
X85978000Y-38363000D01*
X73901000Y-74930000D02*
X78994000Y-74930000D01*
X83855600Y-42554000D02*
X85456000Y-42554000D01*
X85978000Y-38363000D02*
X85953600Y-38338600D01*
X85950800Y-43048800D02*
X85950800Y-44608600D01*
X78994000Y-74848600D02*
X80619600Y-74848600D01*
X89115400Y-43048800D02*
X89154000Y-43087400D01*
X85950800Y-43048800D02*
X89115400Y-43048800D01*
X73901000Y-69609000D02*
X73964800Y-69545200D01*
D67*
X114096800Y-99923600D02*
X119717600Y-99923600D01*
D68*
X116185000Y-129128200D02*
X119735600Y-125577600D01*
X58925600Y-126258656D02*
X61795144Y-129128200D01*
X116065088Y-105003600D02*
X114096800Y-105003600D01*
X119735600Y-125577600D02*
X119735600Y-108674112D01*
X61795144Y-129128200D02*
X116185000Y-129128200D01*
X58925600Y-124561600D02*
X58925600Y-126258656D01*
X119735600Y-108674112D02*
X116065088Y-105003600D01*
D64*
X78689200Y-126034800D02*
X80352600Y-126034800D01*
X83515200Y-126034800D02*
X83566000Y-126085600D01*
X85105200Y-126034800D02*
X83616800Y-126034800D01*
X83616800Y-126034800D02*
X83566000Y-126085600D01*
X82143600Y-126034800D02*
X83515200Y-126034800D01*
D69*
X47550900Y-118264500D02*
X48615600Y-119329200D01*
X47550900Y-115170700D02*
X47550900Y-118264500D01*
X62885600Y-121585000D02*
X62885600Y-124561600D01*
X60629800Y-119329200D02*
X62885600Y-121585000D01*
X48615600Y-119329200D02*
X60629800Y-119329200D01*
D64*
X81280000Y-122211800D02*
X80455600Y-121387400D01*
X75005400Y-121387400D02*
X74472800Y-121920000D01*
X81280000Y-122478800D02*
X81280000Y-122211800D01*
X80455600Y-121387400D02*
X75005400Y-121387400D01*
X74472800Y-121920000D02*
X74472800Y-123088400D01*
D70*
X51005600Y-126794400D02*
X51005600Y-124561600D01*
X44768000Y-78282800D02*
X41766400Y-81284400D01*
X41766400Y-81284400D02*
X41766400Y-127217200D01*
X49969200Y-82042000D02*
X50020000Y-82092800D01*
X41766400Y-127217200D02*
X42666800Y-128117600D01*
X49682400Y-128117600D02*
X51005600Y-126794400D01*
X42666800Y-128117600D02*
X49682400Y-128117600D01*
X49878200Y-78282800D02*
X44768000Y-78282800D01*
X49969200Y-78282800D02*
X49969200Y-82042000D01*
D63*
X86859900Y-73010600D02*
X88507300Y-73010600D01*
X78384400Y-71424800D02*
X85274100Y-71424800D01*
X85274100Y-71424800D02*
X86859900Y-73010600D01*
X76454000Y-69494400D02*
X78384400Y-71424800D01*
X86991000Y-72360600D02*
X88507300Y-72360600D01*
X85445600Y-70815200D02*
X86991000Y-72360600D01*
X79806800Y-70815200D02*
X85445600Y-70815200D01*
X79044800Y-69545200D02*
X79044800Y-70053200D01*
X79044800Y-70053200D02*
X79806800Y-70815200D01*
X80732200Y-77560600D02*
X82747300Y-77560600D01*
X81280000Y-90576400D02*
X79705200Y-89001600D01*
X101498400Y-91505200D02*
X100569600Y-90576400D01*
X105254400Y-93305200D02*
X102412800Y-93305200D01*
X100569600Y-90576400D02*
X81280000Y-90576400D01*
X79705200Y-78587600D02*
X80732200Y-77560600D01*
X79705200Y-89001600D02*
X79705200Y-78587600D01*
X105664000Y-94463600D02*
X105664000Y-93714800D01*
X101567400Y-91505200D02*
X101498400Y-91505200D01*
X105664000Y-93714800D02*
X105254400Y-93305200D01*
X102412800Y-93305200D02*
X102362000Y-93305200D01*
X90576400Y-93370400D02*
X90576400Y-93319600D01*
X90576400Y-94577400D02*
X90576400Y-93370400D01*
X73710800Y-91505200D02*
X73710800Y-91287600D01*
X73710800Y-91287600D02*
X74422000Y-90576400D01*
X79847800Y-76260600D02*
X82747300Y-76260600D01*
X74422000Y-90576400D02*
X77825600Y-90576400D01*
X78486000Y-89916000D02*
X78486000Y-77622400D01*
X77825600Y-90576400D02*
X78486000Y-89916000D01*
X73660000Y-94831400D02*
X73710800Y-94780600D01*
X78486000Y-77622400D02*
X79847800Y-76260600D01*
X73710800Y-94780600D02*
X73710800Y-93726000D01*
X57708800Y-93305200D02*
X57759600Y-93356000D01*
X77583200Y-89802800D02*
X77876400Y-89509600D01*
X82716700Y-75641200D02*
X82747300Y-75610600D01*
X77876400Y-77114400D02*
X79349600Y-75641200D01*
X82747300Y-75621000D02*
X82703300Y-75577000D01*
X58914200Y-89802800D02*
X77583200Y-89802800D01*
X77876400Y-89509600D02*
X77876400Y-77114400D01*
X57759600Y-93356000D02*
X57759600Y-94666800D01*
X79349600Y-75641200D02*
X82716700Y-75641200D01*
X57708800Y-91505200D02*
X57785000Y-91429000D01*
X57785000Y-90932000D02*
X58914200Y-89802800D01*
X57785000Y-91429000D02*
X57785000Y-90932000D01*
X91186000Y-41148000D02*
X91186000Y-73812400D01*
X83855600Y-40014000D02*
X85928200Y-40014000D01*
X90687800Y-74310600D02*
X88507300Y-74310600D01*
X85953600Y-40141000D02*
X85801200Y-40293400D01*
X85953600Y-39988600D02*
X90026600Y-39988600D01*
X85928200Y-40014000D02*
X85953600Y-39988600D01*
X90026600Y-39988600D02*
X91186000Y-41148000D01*
X91186000Y-73812400D02*
X90687800Y-74310600D01*
X85953600Y-40141000D02*
X86055200Y-40242600D01*
X85836000Y-41284000D02*
X85950800Y-41398800D01*
X85950800Y-41398800D02*
X89785800Y-41398800D01*
X89785800Y-41398800D02*
X90717800Y-42330800D01*
X83855600Y-41284000D02*
X85836000Y-41284000D01*
X90271000Y-73660600D02*
X88958300Y-73660600D01*
D10*
X85926600Y-41626200D02*
X85950800Y-41602000D01*
D63*
X90728800Y-42330800D02*
X90735000Y-42337000D01*
X90735000Y-73196600D02*
X90271000Y-73660600D01*
X90735000Y-42337000D02*
X90735000Y-73196600D01*
X98033400Y-75070200D02*
X96024200Y-75070200D01*
X98072000Y-75031600D02*
X98033400Y-75070200D01*
X95426800Y-75667600D02*
X95426800Y-77571600D01*
X96024200Y-75070200D02*
X95426800Y-75667600D01*
X93776800Y-77571600D02*
X88969300Y-77571600D01*
X88969300Y-77571600D02*
X88958300Y-77560600D01*
X88506700Y-77571600D02*
X88507300Y-77571000D01*
D64*
X109677200Y-75043800D02*
X112001800Y-75043800D01*
X109665000Y-75031600D02*
X109677200Y-75043800D01*
X106652000Y-75031600D02*
X109587800Y-75031600D01*
X112001800Y-75043800D02*
X112014000Y-75031600D01*
X111630000Y-81950000D02*
X111630000Y-77681600D01*
X113741200Y-77583800D02*
X115862600Y-77583800D01*
X111740000Y-77571600D02*
X113729000Y-77571600D01*
X111630000Y-77681600D02*
X111740000Y-77571600D01*
X106652000Y-77571600D02*
X111740000Y-77571600D01*
X113729000Y-77571600D02*
X113741200Y-77583800D01*
D69*
X59600900Y-112306300D02*
X61417200Y-110490000D01*
X61417200Y-110490000D02*
X77076020Y-110490000D01*
X79358700Y-112772680D02*
X79358700Y-114894000D01*
X59600900Y-114944000D02*
X59600900Y-112306300D01*
X77076020Y-110490000D02*
X79358700Y-112772680D01*
D68*
X82042000Y-118516400D02*
X84484200Y-120958600D01*
D67*
X71850000Y-123110000D02*
X71850000Y-118535200D01*
D68*
X84484200Y-120958600D02*
X84484200Y-122123200D01*
X63458300Y-114894000D02*
X67080700Y-118516400D01*
X67080700Y-118516400D02*
X71831200Y-118516400D01*
X63458300Y-115121900D02*
X63458300Y-114894000D01*
D67*
X71850000Y-118535200D02*
X71831200Y-118516400D01*
D68*
X71831200Y-118516400D02*
X82042000Y-118516400D01*
D63*
X74310200Y-43849400D02*
X74335600Y-43824000D01*
X72948800Y-43849400D02*
X74310200Y-43849400D01*
X59740800Y-50101000D02*
X59737600Y-50097800D01*
X59740800Y-52949000D02*
X59740800Y-50101000D01*
X82042000Y-37347000D02*
X82914600Y-36474400D01*
X98812600Y-35807400D02*
X98812600Y-34857800D01*
X82736800Y-45094000D02*
X82042000Y-44399200D01*
X82042000Y-44399200D02*
X82042000Y-37347000D01*
X98145600Y-36474400D02*
X98812600Y-35807400D01*
X82914600Y-36474400D02*
X98145600Y-36474400D01*
X83855600Y-45094000D02*
X82736800Y-45094000D01*
X62277600Y-50097800D02*
X62277600Y-48678600D01*
X62277600Y-48678600D02*
X63322200Y-47634000D01*
X62277600Y-53558600D02*
X62277600Y-50097800D01*
X63322200Y-47634000D02*
X74335600Y-47634000D01*
X74361000Y-47659400D02*
X74335600Y-47634000D01*
X102768400Y-32512000D02*
X103932600Y-33676200D01*
D10*
X73910400Y-40039400D02*
X63305800Y-40039400D01*
D63*
X62585600Y-32607200D02*
X62680800Y-32512000D01*
D10*
X62317600Y-39051200D02*
X62317600Y-34857800D01*
X63305800Y-40039400D02*
X62317600Y-39051200D01*
D63*
X103932600Y-33676200D02*
X103932600Y-34400600D01*
X62680800Y-32512000D02*
X102768400Y-32512000D01*
X105054400Y-31902400D02*
X106432600Y-33280600D01*
X64884200Y-34801000D02*
X64827400Y-34857800D01*
D10*
X74335600Y-38744000D02*
X74301200Y-38709600D01*
D63*
X106432600Y-33280600D02*
X106432600Y-34400600D01*
D10*
X65125600Y-38709600D02*
X64817600Y-38401600D01*
X64817600Y-38401600D02*
X64817600Y-34857800D01*
X74301200Y-38709600D02*
X65125600Y-38709600D01*
D63*
X65191800Y-31902400D02*
X105054400Y-31902400D01*
X65176400Y-31887000D02*
X65191800Y-31902400D01*
X56007000Y-46364000D02*
X54657600Y-47713400D01*
X74335600Y-46364000D02*
X56007000Y-46364000D01*
X54657600Y-47713400D02*
X54657600Y-50097800D01*
X95513000Y-33232200D02*
X56283200Y-33232200D01*
X55905400Y-45094000D02*
X74335600Y-45094000D01*
X96272600Y-34400600D02*
X96272600Y-33991800D01*
X56283200Y-33232200D02*
X54657600Y-34857800D01*
X54657600Y-34857800D02*
X54657600Y-43846200D01*
X96272600Y-33991800D02*
X95513000Y-33232200D01*
X54657600Y-43846200D02*
X55905400Y-45094000D01*
X64871600Y-50151800D02*
X64817600Y-50097800D01*
X75895200Y-41808400D02*
X75370800Y-41284000D01*
X64817600Y-50097800D02*
X75175000Y-50097800D01*
X64817600Y-54219000D02*
X64817600Y-50097800D01*
X75175000Y-50097800D02*
X75895200Y-49377600D01*
X75895200Y-49377600D02*
X75895200Y-41808400D01*
X75370800Y-41284000D02*
X74335600Y-41284000D01*
X57197600Y-52339400D02*
X57197600Y-50097800D01*
X72999600Y-42630200D02*
X74259400Y-42630200D01*
X74259400Y-42630200D02*
X74335600Y-42554000D01*
D10*
X83931800Y-43900200D02*
X83855600Y-43824000D01*
X85090000Y-43900200D02*
X83931800Y-43900200D01*
D63*
X82550000Y-46389400D02*
X83830200Y-46389400D01*
X83830200Y-46389400D02*
X83855600Y-46364000D01*
X83794800Y-47694800D02*
X83855600Y-47634000D01*
X82499200Y-47694800D02*
X83794800Y-47694800D01*
X82725900Y-78232000D02*
X82747300Y-78210600D01*
X81534000Y-78232000D02*
X82725900Y-78232000D01*
X89560400Y-76250800D02*
X88517100Y-76250800D01*
X88517100Y-76250800D02*
X88507300Y-76260600D01*
X89306400Y-62230000D02*
X87376000Y-62230000D01*
X90017600Y-72796400D02*
X90017600Y-62941200D01*
X90017600Y-62941200D02*
X89306400Y-62230000D01*
X82296000Y-62230000D02*
X87325200Y-67259200D01*
X88517100Y-76911200D02*
X88507300Y-76921000D01*
X87325200Y-67259200D02*
X87325200Y-71577200D01*
X88506700Y-76911200D02*
X88507300Y-76910600D01*
X87325200Y-76911200D02*
X88506700Y-76911200D01*
X89712800Y-78282800D02*
X88579500Y-78282800D01*
X88579500Y-78282800D02*
X88507300Y-78210600D01*
X81631600Y-74310600D02*
X82747300Y-74310600D01*
X80619600Y-73298600D02*
X81631600Y-74310600D01*
D66*
X69189600Y-88849200D02*
X69189600Y-80111600D01*
X83261200Y-92405200D02*
X83203000Y-92463400D01*
X52984400Y-92405200D02*
X51521900Y-93867700D01*
D64*
X71678800Y-79870600D02*
X71678800Y-82055700D01*
X62992000Y-77492000D02*
X64600000Y-79100000D01*
X56442000Y-70358000D02*
X61518800Y-70358000D01*
X71678800Y-82055700D02*
X71655700Y-82078800D01*
D66*
X69189600Y-92405200D02*
X52984400Y-92405200D01*
X107414900Y-93952900D02*
X105867200Y-92405200D01*
X83203000Y-92463400D02*
X83203000Y-96062800D01*
D65*
X99406400Y-96062800D02*
X99406400Y-92820800D01*
D66*
X107414900Y-102970700D02*
X107414900Y-93952900D01*
D64*
X70154800Y-79870600D02*
X71678800Y-79870600D01*
X62992000Y-71831200D02*
X62992000Y-77492000D01*
D66*
X69225000Y-92369800D02*
X69189600Y-92405200D01*
X91358700Y-102694000D02*
X91897200Y-102155500D01*
D64*
X64600000Y-79100000D02*
X65370600Y-79870600D01*
D66*
X75458300Y-102970700D02*
X75458300Y-92943700D01*
X67366400Y-95664000D02*
X67411600Y-95618800D01*
D64*
X65370600Y-79870600D02*
X70154800Y-79870600D01*
D66*
X67411600Y-95618800D02*
X67411600Y-92760800D01*
X91897200Y-102155500D02*
X91897200Y-92811600D01*
X69225000Y-90728800D02*
X69225000Y-92369800D01*
X59550900Y-102970700D02*
X59550900Y-92798300D01*
X105867200Y-92405200D02*
X83261200Y-92405200D01*
X83261200Y-92405200D02*
X69189600Y-92405200D01*
D64*
X61518800Y-70358000D02*
X62992000Y-71831200D01*
D66*
X51521900Y-93867700D02*
X51521900Y-96062800D01*
D70*
X120446800Y-89103200D02*
X120446800Y-73964800D01*
X120396000Y-95910400D02*
X120396000Y-89154000D01*
X118461800Y-71979800D02*
X110239800Y-71979800D01*
X120497600Y-89154000D02*
X120446800Y-89103200D01*
X120446800Y-73964800D02*
X118461800Y-71979800D01*
X110239800Y-71979800D02*
X109626400Y-72593200D01*
X109626400Y-72593200D02*
X109626400Y-73343000D01*
D63*
X82747300Y-72360600D02*
X77601000Y-72360600D01*
X77601000Y-72360600D02*
X76860400Y-73101200D01*
D70*
X50017600Y-86210000D02*
X50070800Y-86156800D01*
X50058400Y-86169200D02*
X50070800Y-86156800D01*
X44653200Y-86210000D02*
X50017600Y-86210000D01*
X50058400Y-90076000D02*
X50058400Y-86169200D01*
D64*
X81280000Y-124028800D02*
X81711200Y-124460000D01*
X87005200Y-126060200D02*
X87005200Y-124526000D01*
X98704400Y-124460000D02*
X99314000Y-125069600D01*
X81711200Y-124460000D02*
X98704400Y-124460000D01*
D63*
X82747300Y-73021000D02*
X82725900Y-72999600D01*
D66*
X95380300Y-97917000D02*
X95380300Y-98366300D01*
X95380300Y-98366300D02*
X95380300Y-102936100D01*
X95380300Y-102936100D02*
X95414900Y-102970700D01*
X95380300Y-97917000D02*
X95659700Y-97637600D01*
X95659700Y-97637600D02*
X103073200Y-97637600D01*
X95380300Y-96842300D02*
X95380300Y-97917000D01*
X79358700Y-96318500D02*
X79358700Y-102694000D01*
X79236600Y-102848600D02*
X79358700Y-102970700D01*
X79358700Y-98094800D02*
X87987900Y-98094800D01*
X87987900Y-98094800D02*
X88011000Y-98117900D01*
X79358700Y-96318500D02*
X79103000Y-96062800D01*
X63266400Y-95664000D02*
X63266400Y-102778800D01*
X63317200Y-97637600D02*
X63266400Y-97586800D01*
X70857000Y-97637600D02*
X63317200Y-97637600D01*
X63241900Y-96131100D02*
X63223900Y-96149100D01*
X47472700Y-97637600D02*
X47472700Y-102892500D01*
X47500400Y-97609900D02*
X47472700Y-97637600D01*
X47472700Y-102892500D02*
X47550900Y-102970700D01*
X47472700Y-96621600D02*
X47472700Y-97637600D01*
X54827300Y-97609900D02*
X47500400Y-97609900D01*
D65*
X104081600Y-96156800D02*
X104081600Y-94406200D01*
X105620800Y-96156800D02*
X105664000Y-96113600D01*
X104081600Y-96156800D02*
X105620800Y-96156800D01*
X104081600Y-94406200D02*
X104101400Y-94386400D01*
X90474800Y-96227400D02*
X88976500Y-96227400D01*
X88961000Y-94105000D02*
X88937600Y-94081600D01*
X88976500Y-96227400D02*
X88961000Y-96242900D01*
X88961000Y-96242900D02*
X88961000Y-94105000D01*
X88961000Y-96242900D02*
X88937600Y-96219500D01*
X72167000Y-96367600D02*
X73698600Y-96367600D01*
X73698600Y-96367600D02*
X73710800Y-96379800D01*
X71917600Y-95762600D02*
X71917600Y-94320400D01*
X73621400Y-96520000D02*
X73660000Y-96481400D01*
X71917600Y-96118200D02*
X72167000Y-96367600D01*
X71917600Y-94320400D02*
X71882000Y-94284800D01*
X55880000Y-96219800D02*
X57662600Y-96219800D01*
X55900400Y-95407000D02*
X55900400Y-94003400D01*
X55900400Y-94003400D02*
X55877000Y-93980000D01*
X57662600Y-96219800D02*
X57759600Y-96316800D01*
G04 #@! TA.AperFunction,Conductor*
G36*
X123946139Y-71444485D02*
G01*
X123991894Y-71497289D01*
X124003100Y-71548800D01*
X124003100Y-116970000D01*
X123983415Y-117037039D01*
X123930611Y-117082794D01*
X123879100Y-117094000D01*
X121610100Y-117094000D01*
X121543061Y-117074315D01*
X121497306Y-117021511D01*
X121486100Y-116970000D01*
X121486100Y-108559377D01*
X121478283Y-108500001D01*
X121456149Y-108331876D01*
X121456149Y-108331873D01*
X121396758Y-108110226D01*
X121308945Y-107898224D01*
X121251577Y-107798862D01*
X121194211Y-107699500D01*
X121124365Y-107608475D01*
X121054520Y-107517451D01*
X121054515Y-107517445D01*
X117221756Y-103684686D01*
X117221751Y-103684682D01*
X117221749Y-103684680D01*
X117130724Y-103614835D01*
X117074461Y-103571662D01*
X117039710Y-103544996D01*
X117039704Y-103544992D01*
X117039700Y-103544989D01*
X117029046Y-103538838D01*
X116840979Y-103430257D01*
X116840964Y-103430250D01*
X116628975Y-103342442D01*
X116407327Y-103283052D01*
X116407321Y-103283051D01*
X116407320Y-103283051D01*
X116397450Y-103281751D01*
X116380859Y-103279567D01*
X116380858Y-103279566D01*
X116179832Y-103253101D01*
X116179827Y-103253100D01*
X116179822Y-103253100D01*
X116179815Y-103253100D01*
X114861630Y-103253100D01*
X114814178Y-103243661D01*
X114709007Y-103200098D01*
X114468361Y-103135617D01*
X114221375Y-103103101D01*
X114221370Y-103103100D01*
X114221365Y-103103100D01*
X113972235Y-103103100D01*
X113972229Y-103103100D01*
X113972224Y-103103101D01*
X113725238Y-103135617D01*
X113484592Y-103200098D01*
X113254438Y-103295430D01*
X113254423Y-103295437D01*
X113038673Y-103420000D01*
X112841025Y-103571660D01*
X112841018Y-103571666D01*
X112664866Y-103747818D01*
X112664860Y-103747825D01*
X112513200Y-103945473D01*
X112388637Y-104161223D01*
X112388630Y-104161238D01*
X112293298Y-104391392D01*
X112228817Y-104632038D01*
X112196301Y-104879024D01*
X112196300Y-104879041D01*
X112196300Y-105128158D01*
X112196301Y-105128175D01*
X112228817Y-105375161D01*
X112293298Y-105615807D01*
X112388630Y-105845961D01*
X112388637Y-105845976D01*
X112513200Y-106061726D01*
X112664860Y-106259374D01*
X112664866Y-106259381D01*
X112841018Y-106435533D01*
X112841025Y-106435539D01*
X113038673Y-106587199D01*
X113254423Y-106711762D01*
X113254438Y-106711769D01*
X113353625Y-106752853D01*
X113484593Y-106807102D01*
X113725235Y-106871582D01*
X113972235Y-106904100D01*
X113972242Y-106904100D01*
X114221358Y-106904100D01*
X114221365Y-106904100D01*
X114468365Y-106871582D01*
X114709007Y-106807102D01*
X114789616Y-106773712D01*
X114814178Y-106763539D01*
X114861630Y-106754100D01*
X115288645Y-106754100D01*
X115355684Y-106773785D01*
X115376326Y-106790419D01*
X117948781Y-109362874D01*
X117982266Y-109424197D01*
X117985100Y-109450555D01*
X117985100Y-116970000D01*
X117965415Y-117037039D01*
X117912611Y-117082794D01*
X117861100Y-117094000D01*
X110664800Y-117094000D01*
X110597761Y-117074315D01*
X110552006Y-117021511D01*
X110540800Y-116970000D01*
X110540800Y-109959041D01*
X112196300Y-109959041D01*
X112196300Y-110208158D01*
X112196301Y-110208175D01*
X112228817Y-110455161D01*
X112293298Y-110695807D01*
X112388630Y-110925961D01*
X112388637Y-110925976D01*
X112513200Y-111141726D01*
X112664860Y-111339374D01*
X112664866Y-111339381D01*
X112841018Y-111515533D01*
X112841025Y-111515539D01*
X113038673Y-111667199D01*
X113254423Y-111791762D01*
X113254438Y-111791769D01*
X113353625Y-111832853D01*
X113484593Y-111887102D01*
X113725235Y-111951582D01*
X113972235Y-111984100D01*
X113972242Y-111984100D01*
X114221358Y-111984100D01*
X114221365Y-111984100D01*
X114468365Y-111951582D01*
X114709007Y-111887102D01*
X114939173Y-111791764D01*
X115154927Y-111667199D01*
X115352576Y-111515538D01*
X115528738Y-111339376D01*
X115680399Y-111141727D01*
X115804964Y-110925973D01*
X115900302Y-110695807D01*
X115964782Y-110455165D01*
X115997300Y-110208165D01*
X115997300Y-109959035D01*
X115964782Y-109712035D01*
X115900302Y-109471393D01*
X115804964Y-109241227D01*
X115680399Y-109025473D01*
X115528738Y-108827824D01*
X115528733Y-108827818D01*
X115352581Y-108651666D01*
X115352574Y-108651660D01*
X115154926Y-108500000D01*
X114939176Y-108375437D01*
X114939161Y-108375430D01*
X114709007Y-108280098D01*
X114468361Y-108215617D01*
X114221375Y-108183101D01*
X114221370Y-108183100D01*
X114221365Y-108183100D01*
X113972235Y-108183100D01*
X113972229Y-108183100D01*
X113972224Y-108183101D01*
X113725238Y-108215617D01*
X113484592Y-108280098D01*
X113254438Y-108375430D01*
X113254423Y-108375437D01*
X113038673Y-108500000D01*
X112841025Y-108651660D01*
X112841018Y-108651666D01*
X112664866Y-108827818D01*
X112664860Y-108827825D01*
X112513200Y-109025473D01*
X112388637Y-109241223D01*
X112388630Y-109241238D01*
X112293298Y-109471392D01*
X112228817Y-109712038D01*
X112196301Y-109959024D01*
X112196300Y-109959041D01*
X110540800Y-109959041D01*
X110540800Y-100261575D01*
X110560485Y-100194536D01*
X110613289Y-100148781D01*
X110682447Y-100138837D01*
X110746003Y-100167862D01*
X110759959Y-100182072D01*
X111420117Y-100972261D01*
X112311328Y-102039014D01*
X112328786Y-102058107D01*
X112347847Y-102078953D01*
X112473250Y-102175178D01*
X112619285Y-102235668D01*
X112776000Y-102256300D01*
X112776007Y-102256300D01*
X115560767Y-102256300D01*
X115560769Y-102256300D01*
X115589570Y-102255615D01*
X115745126Y-102227552D01*
X115888118Y-102160185D01*
X116008803Y-102058103D01*
X116548271Y-101464689D01*
X116607933Y-101428325D01*
X116640024Y-101424100D01*
X119247742Y-101424100D01*
X119314781Y-101443785D01*
X119335423Y-101460419D01*
X119365656Y-101490652D01*
X119365660Y-101490655D01*
X119365662Y-101490657D01*
X119499463Y-101569786D01*
X119538829Y-101581223D01*
X119648734Y-101613154D01*
X119648737Y-101613154D01*
X119648739Y-101613155D01*
X119683617Y-101615900D01*
X121108382Y-101615899D01*
X121143261Y-101613155D01*
X121292537Y-101569786D01*
X121426338Y-101490657D01*
X121536257Y-101380738D01*
X121615386Y-101246937D01*
X121658755Y-101097661D01*
X121661500Y-101062783D01*
X121661499Y-98958018D01*
X121658755Y-98923139D01*
X121615386Y-98773863D01*
X121536257Y-98640062D01*
X121536255Y-98640060D01*
X121536252Y-98640056D01*
X121426343Y-98530147D01*
X121426335Y-98530141D01*
X121292535Y-98451013D01*
X121292532Y-98451012D01*
X121143265Y-98407645D01*
X121143259Y-98407644D01*
X121113871Y-98405331D01*
X121108383Y-98404900D01*
X121108381Y-98404900D01*
X119683628Y-98404900D01*
X119683606Y-98404901D01*
X119648738Y-98407645D01*
X119612491Y-98418176D01*
X119577896Y-98423100D01*
X117083748Y-98423100D01*
X117016709Y-98403415D01*
X116970954Y-98350611D01*
X116964675Y-98333706D01*
X116964248Y-98332237D01*
X116900703Y-98187502D01*
X116801864Y-98064146D01*
X116465329Y-97741462D01*
X115741905Y-97047812D01*
X115739618Y-97045561D01*
X113825073Y-95111772D01*
X113791895Y-95050282D01*
X113789194Y-95023825D01*
X113790674Y-94763309D01*
X113836573Y-86685193D01*
X113827823Y-86579127D01*
X113780927Y-86428176D01*
X113696561Y-86294506D01*
X111499672Y-83653802D01*
X111471930Y-83589677D01*
X111483261Y-83520732D01*
X111530067Y-83468858D01*
X111594998Y-83450499D01*
X112630371Y-83450499D01*
X112630372Y-83450499D01*
X112689983Y-83444091D01*
X112824831Y-83393796D01*
X112940046Y-83307546D01*
X113026296Y-83192331D01*
X113036690Y-83164460D01*
X113078560Y-83108527D01*
X113144023Y-83084108D01*
X113212297Y-83098958D01*
X113225746Y-83107465D01*
X113408462Y-83240217D01*
X113540599Y-83307544D01*
X113612244Y-83344049D01*
X113829751Y-83414721D01*
X113829752Y-83414721D01*
X113829755Y-83414722D01*
X114055646Y-83450500D01*
X114055647Y-83450500D01*
X114284353Y-83450500D01*
X114284354Y-83450500D01*
X114510245Y-83414722D01*
X114510248Y-83414721D01*
X114510249Y-83414721D01*
X114727755Y-83344049D01*
X114727755Y-83344048D01*
X114727758Y-83344048D01*
X114931538Y-83240217D01*
X115116566Y-83105786D01*
X115278286Y-82944066D01*
X115295937Y-82919771D01*
X115351265Y-82877105D01*
X115417582Y-82870503D01*
X115440504Y-82874505D01*
X115530771Y-82858390D01*
X115610064Y-82812341D01*
X115668794Y-82741924D01*
X115699862Y-82655654D01*
X115700500Y-82651963D01*
X115700500Y-80735747D01*
X115699700Y-80731214D01*
X115699700Y-80731208D01*
X115668376Y-80645147D01*
X115609507Y-80574989D01*
X115547515Y-80539198D01*
X115530195Y-80529198D01*
X115530191Y-80529196D01*
X115440001Y-80513294D01*
X115439999Y-80513294D01*
X115349808Y-80529196D01*
X115349804Y-80529198D01*
X115270494Y-80574988D01*
X115211622Y-80645149D01*
X115205113Y-80663033D01*
X115163685Y-80719295D01*
X115098415Y-80744228D01*
X115030027Y-80729916D01*
X115015712Y-80720939D01*
X114931538Y-80659783D01*
X114922439Y-80655147D01*
X114727755Y-80555950D01*
X114510248Y-80485278D01*
X114324818Y-80455909D01*
X114284354Y-80449500D01*
X114055646Y-80449500D01*
X114015182Y-80455909D01*
X113829753Y-80485278D01*
X113829750Y-80485278D01*
X113612244Y-80555950D01*
X113408462Y-80659782D01*
X113321412Y-80723028D01*
X113255605Y-80746507D01*
X113187551Y-80730681D01*
X113138857Y-80680575D01*
X113132008Y-80665125D01*
X113128376Y-80655147D01*
X113069507Y-80584989D01*
X113029850Y-80562093D01*
X112990195Y-80539198D01*
X112990191Y-80539196D01*
X112900002Y-80523294D01*
X112889152Y-80523294D01*
X112889152Y-80520687D01*
X112877638Y-80523034D01*
X112855038Y-80516235D01*
X112843253Y-80515078D01*
X112829616Y-80509786D01*
X112824831Y-80506204D01*
X112710473Y-80463551D01*
X112709640Y-80463228D01*
X112682589Y-80442416D01*
X112655233Y-80421937D01*
X112654936Y-80421140D01*
X112654263Y-80420623D01*
X112642751Y-80388472D01*
X112630816Y-80356473D01*
X112630763Y-80354991D01*
X112630710Y-80354843D01*
X112630751Y-80354664D01*
X112630500Y-80347627D01*
X112630500Y-78696100D01*
X112650185Y-78629061D01*
X112702989Y-78583306D01*
X112754500Y-78572100D01*
X113569114Y-78572100D01*
X113593306Y-78574483D01*
X113642657Y-78584300D01*
X113642659Y-78584300D01*
X115961143Y-78584300D01*
X116091182Y-78558432D01*
X116154435Y-78545851D01*
X116336514Y-78470432D01*
X116500382Y-78360939D01*
X116500385Y-78360936D01*
X116502904Y-78358418D01*
X116504548Y-78357520D01*
X116505092Y-78357074D01*
X116505176Y-78357177D01*
X116564227Y-78324933D01*
X116590585Y-78322099D01*
X116637060Y-78322099D01*
X116704272Y-78315992D01*
X116704275Y-78315991D01*
X116704276Y-78315991D01*
X116858958Y-78267791D01*
X116997609Y-78183973D01*
X117112173Y-78069409D01*
X117195991Y-77930758D01*
X117244191Y-77776076D01*
X117250300Y-77708853D01*
X117250299Y-77434348D01*
X117250299Y-77434339D01*
X117244192Y-77367127D01*
X117244189Y-77367117D01*
X117195992Y-77212445D01*
X117195991Y-77212444D01*
X117195991Y-77212442D01*
X117112173Y-77073791D01*
X117112171Y-77073789D01*
X117112170Y-77073787D01*
X116997612Y-76959229D01*
X116955577Y-76933818D01*
X116858958Y-76875409D01*
X116704276Y-76827209D01*
X116704274Y-76827208D01*
X116704272Y-76827208D01*
X116657208Y-76822931D01*
X116637053Y-76821100D01*
X116637050Y-76821100D01*
X116559607Y-76821100D01*
X116492568Y-76801415D01*
X116490716Y-76800202D01*
X116336520Y-76697171D01*
X116336507Y-76697164D01*
X116154439Y-76621750D01*
X116154429Y-76621747D01*
X115961143Y-76583300D01*
X115961141Y-76583300D01*
X113901086Y-76583300D01*
X113876894Y-76580917D01*
X113827543Y-76571100D01*
X113827541Y-76571100D01*
X111838541Y-76571100D01*
X110664800Y-76571100D01*
X110597761Y-76551415D01*
X110552006Y-76498611D01*
X110540800Y-76447100D01*
X110540800Y-76168300D01*
X110560485Y-76101261D01*
X110613289Y-76055506D01*
X110664800Y-76044300D01*
X112100342Y-76044300D01*
X112119670Y-76040455D01*
X112196988Y-76025075D01*
X112293636Y-76005851D01*
X112346965Y-75983761D01*
X112437864Y-75946109D01*
X112461127Y-75939053D01*
X112466986Y-75937886D01*
X112466996Y-75937886D01*
X112629406Y-75887278D01*
X112774985Y-75799272D01*
X112895272Y-75678985D01*
X112983278Y-75533406D01*
X113033886Y-75370996D01*
X113040300Y-75300416D01*
X113040300Y-74787184D01*
X113033886Y-74716604D01*
X112983278Y-74554194D01*
X112895272Y-74408615D01*
X112895270Y-74408613D01*
X112895269Y-74408611D01*
X112774988Y-74288330D01*
X112718962Y-74254461D01*
X112629406Y-74200322D01*
X112629404Y-74200321D01*
X112629402Y-74200320D01*
X112629403Y-74200320D01*
X112536603Y-74171403D01*
X112504602Y-74156120D01*
X112487911Y-74144967D01*
X112305835Y-74069549D01*
X112305827Y-74069547D01*
X112112543Y-74031100D01*
X112112540Y-74031100D01*
X111915459Y-74031100D01*
X111915457Y-74031100D01*
X111866106Y-74040917D01*
X111841914Y-74043300D01*
X110875398Y-74043300D01*
X110808359Y-74023615D01*
X110762604Y-73970811D01*
X110752660Y-73901653D01*
X110764914Y-73863005D01*
X110785280Y-73823034D01*
X110785281Y-73823030D01*
X110785284Y-73823025D01*
X110846109Y-73635826D01*
X110870033Y-73484776D01*
X110876900Y-73441422D01*
X110876900Y-73354300D01*
X110896585Y-73287261D01*
X110949389Y-73241506D01*
X111000900Y-73230300D01*
X117892464Y-73230300D01*
X117959503Y-73249985D01*
X117980145Y-73266619D01*
X119159981Y-74446455D01*
X119193466Y-74507778D01*
X119196300Y-74534136D01*
X119196300Y-88618151D01*
X119190231Y-88656469D01*
X119127523Y-88849461D01*
X119127523Y-88849464D01*
X119095500Y-89051648D01*
X119095500Y-89256351D01*
X119127522Y-89458530D01*
X119127522Y-89458531D01*
X119139431Y-89495182D01*
X119145500Y-89533500D01*
X119145500Y-94763309D01*
X119140576Y-94797904D01*
X119133245Y-94823134D01*
X119133244Y-94823140D01*
X119130500Y-94858011D01*
X119130500Y-96962771D01*
X119130501Y-96962793D01*
X119133245Y-96997661D01*
X119176612Y-97146932D01*
X119176613Y-97146935D01*
X119255741Y-97280735D01*
X119255747Y-97280743D01*
X119365656Y-97390652D01*
X119365660Y-97390655D01*
X119365662Y-97390657D01*
X119499463Y-97469786D01*
X119538829Y-97481223D01*
X119648734Y-97513154D01*
X119648737Y-97513154D01*
X119648739Y-97513155D01*
X119683617Y-97515900D01*
X121108382Y-97515899D01*
X121143261Y-97513155D01*
X121292537Y-97469786D01*
X121426338Y-97390657D01*
X121536257Y-97280738D01*
X121615386Y-97146937D01*
X121658755Y-96997661D01*
X121661500Y-96962783D01*
X121661499Y-94858018D01*
X121658755Y-94823139D01*
X121651424Y-94797904D01*
X121646500Y-94763310D01*
X121646500Y-89682794D01*
X121655260Y-89638750D01*
X121654978Y-89638659D01*
X121655752Y-89636276D01*
X121655938Y-89635342D01*
X121656475Y-89634043D01*
X121656484Y-89634026D01*
X121717309Y-89446826D01*
X121748100Y-89252422D01*
X121748100Y-89055577D01*
X121730186Y-88942483D01*
X121717309Y-88861174D01*
X121703369Y-88818270D01*
X121697300Y-88779952D01*
X121697300Y-73866377D01*
X121666509Y-73671977D01*
X121666509Y-73671976D01*
X121666509Y-73671974D01*
X121642998Y-73599616D01*
X121605684Y-73484774D01*
X121605684Y-73484773D01*
X121516323Y-73309394D01*
X121400628Y-73150154D01*
X119886955Y-71636481D01*
X119853470Y-71575158D01*
X119858454Y-71505466D01*
X119900326Y-71449533D01*
X119965790Y-71425116D01*
X119974636Y-71424800D01*
X123879100Y-71424800D01*
X123946139Y-71444485D01*
G37*
G04 #@! TD.AperFunction*
G04 #@! TA.AperFunction,Conductor*
G36*
X66454139Y-93325385D02*
G01*
X66499894Y-93378189D01*
X66511100Y-93429700D01*
X66511100Y-94673300D01*
X66491415Y-94740339D01*
X66438611Y-94786094D01*
X66387102Y-94797300D01*
X66314029Y-94797300D01*
X66314005Y-94797301D01*
X66279138Y-94800045D01*
X66129867Y-94843412D01*
X66129864Y-94843413D01*
X65996064Y-94922541D01*
X65996056Y-94922547D01*
X65886147Y-95032456D01*
X65886141Y-95032464D01*
X65807013Y-95166264D01*
X65807012Y-95166267D01*
X65763645Y-95315534D01*
X65763644Y-95315540D01*
X65760900Y-95350411D01*
X65760900Y-95350417D01*
X65760900Y-96034999D01*
X65760901Y-96613100D01*
X65741216Y-96680139D01*
X65688413Y-96725894D01*
X65636901Y-96737100D01*
X64995900Y-96737100D01*
X64928861Y-96717415D01*
X64883106Y-96664611D01*
X64871900Y-96613100D01*
X64871899Y-95350428D01*
X64871898Y-95350406D01*
X64870894Y-95337644D01*
X64869155Y-95315539D01*
X64825786Y-95166263D01*
X64746657Y-95032462D01*
X64746655Y-95032460D01*
X64746652Y-95032456D01*
X64636743Y-94922547D01*
X64636735Y-94922541D01*
X64502935Y-94843413D01*
X64502932Y-94843412D01*
X64353665Y-94800045D01*
X64353659Y-94800044D01*
X64318788Y-94797300D01*
X64318783Y-94797300D01*
X63537226Y-94797300D01*
X63513035Y-94794917D01*
X63465724Y-94785506D01*
X63355093Y-94763500D01*
X63355091Y-94763500D01*
X63177709Y-94763500D01*
X63177704Y-94763500D01*
X63019762Y-94794917D01*
X62995571Y-94797300D01*
X62214028Y-94797300D01*
X62214006Y-94797301D01*
X62179138Y-94800045D01*
X62029867Y-94843412D01*
X62029864Y-94843413D01*
X61896064Y-94922541D01*
X61896056Y-94922547D01*
X61786147Y-95032456D01*
X61786141Y-95032464D01*
X61707013Y-95166264D01*
X61707012Y-95166267D01*
X61663645Y-95315534D01*
X61663644Y-95315540D01*
X61660900Y-95350411D01*
X61660900Y-96775171D01*
X61660901Y-96775193D01*
X61663645Y-96810061D01*
X61707012Y-96959332D01*
X61707013Y-96959335D01*
X61786141Y-97093135D01*
X61786147Y-97093143D01*
X61896056Y-97203052D01*
X61896060Y-97203055D01*
X61896062Y-97203057D01*
X62029863Y-97282186D01*
X62049768Y-97287969D01*
X62179134Y-97325554D01*
X62179137Y-97325554D01*
X62179139Y-97325555D01*
X62214017Y-97328300D01*
X62241898Y-97328299D01*
X62308936Y-97347981D01*
X62354693Y-97400784D01*
X62365900Y-97452299D01*
X62365900Y-99240255D01*
X62346215Y-99307294D01*
X62293411Y-99353049D01*
X62242344Y-99364254D01*
X60575844Y-99370222D01*
X60508735Y-99350778D01*
X60462791Y-99298138D01*
X60451400Y-99246223D01*
X60451400Y-93429700D01*
X60471085Y-93362661D01*
X60523889Y-93316906D01*
X60575400Y-93305700D01*
X66387100Y-93305700D01*
X66454139Y-93325385D01*
G37*
G04 #@! TD.AperFunction*
G04 #@! TA.AperFunction,Conductor*
G36*
X68082294Y-98544327D02*
G01*
X68104343Y-98545890D01*
X68115163Y-98553979D01*
X68128125Y-98557785D01*
X68142598Y-98574487D01*
X68160304Y-98587724D01*
X68165033Y-98600380D01*
X68173880Y-98610589D01*
X68177025Y-98632467D01*
X68184764Y-98653173D01*
X68181901Y-98666374D01*
X68183824Y-98679747D01*
X68174640Y-98699855D01*
X68169957Y-98721455D01*
X68156642Y-98739266D01*
X68154799Y-98743303D01*
X68148825Y-98749724D01*
X68128268Y-98770308D01*
X68122415Y-98775801D01*
X67509488Y-99314801D01*
X67446146Y-99344290D01*
X67428046Y-99345683D01*
X64291344Y-99356916D01*
X64224235Y-99337472D01*
X64178291Y-99284832D01*
X64166900Y-99232917D01*
X64166900Y-98662100D01*
X64186585Y-98595061D01*
X64239389Y-98549306D01*
X64290900Y-98538100D01*
X68061086Y-98538100D01*
X68082294Y-98544327D01*
G37*
G04 #@! TD.AperFunction*
G04 #@! TA.AperFunction,Conductor*
G36*
X82245539Y-93325385D02*
G01*
X82291294Y-93378189D01*
X82302500Y-93429700D01*
X82302500Y-94673300D01*
X82282815Y-94740339D01*
X82230011Y-94786094D01*
X82178504Y-94797300D01*
X82150630Y-94797300D01*
X82150605Y-94797301D01*
X82115738Y-94800045D01*
X81966467Y-94843412D01*
X81966464Y-94843413D01*
X81832664Y-94922541D01*
X81832656Y-94922547D01*
X81722747Y-95032456D01*
X81722741Y-95032464D01*
X81643613Y-95166264D01*
X81643612Y-95166267D01*
X81600245Y-95315534D01*
X81600244Y-95315540D01*
X81597500Y-95350411D01*
X81597500Y-96775171D01*
X81597501Y-96775193D01*
X81600245Y-96810061D01*
X81643612Y-96959332D01*
X81643612Y-96959333D01*
X81671908Y-97007180D01*
X81689089Y-97074904D01*
X81666929Y-97141167D01*
X81612463Y-97184929D01*
X81565175Y-97194300D01*
X80740825Y-97194300D01*
X80673786Y-97174615D01*
X80628031Y-97121811D01*
X80618087Y-97052653D01*
X80634092Y-97007180D01*
X80645645Y-96987644D01*
X80662386Y-96959337D01*
X80705755Y-96810061D01*
X80708500Y-96775183D01*
X80708499Y-95350418D01*
X80705755Y-95315539D01*
X80662386Y-95166263D01*
X80583257Y-95032462D01*
X80583255Y-95032460D01*
X80583252Y-95032456D01*
X80473343Y-94922547D01*
X80473335Y-94922541D01*
X80339535Y-94843413D01*
X80339532Y-94843412D01*
X80190265Y-94800045D01*
X80190259Y-94800044D01*
X80160871Y-94797731D01*
X80155383Y-94797300D01*
X80155381Y-94797300D01*
X78050628Y-94797300D01*
X78050606Y-94797301D01*
X78015738Y-94800045D01*
X77866467Y-94843412D01*
X77866464Y-94843413D01*
X77732664Y-94922541D01*
X77732656Y-94922547D01*
X77622747Y-95032456D01*
X77622741Y-95032464D01*
X77543613Y-95166264D01*
X77543612Y-95166267D01*
X77500245Y-95315534D01*
X77500244Y-95315540D01*
X77497500Y-95350411D01*
X77497500Y-96775171D01*
X77497501Y-96775193D01*
X77500245Y-96810061D01*
X77543612Y-96959332D01*
X77543613Y-96959335D01*
X77622741Y-97093135D01*
X77622747Y-97093143D01*
X77732656Y-97203052D01*
X77732660Y-97203055D01*
X77732662Y-97203057D01*
X77866463Y-97282186D01*
X77886368Y-97287969D01*
X78015734Y-97325554D01*
X78015737Y-97325554D01*
X78015739Y-97325555D01*
X78050617Y-97328300D01*
X78334201Y-97328299D01*
X78401239Y-97347983D01*
X78446994Y-97400787D01*
X78458200Y-97452299D01*
X78458200Y-99182628D01*
X78438515Y-99249667D01*
X78385711Y-99295422D01*
X78334644Y-99306627D01*
X76483244Y-99313257D01*
X76416135Y-99293813D01*
X76370191Y-99241173D01*
X76358800Y-99189258D01*
X76358800Y-93429700D01*
X76378485Y-93362661D01*
X76431289Y-93316906D01*
X76482800Y-93305700D01*
X82178500Y-93305700D01*
X82245539Y-93325385D01*
G37*
G04 #@! TD.AperFunction*
G04 #@! TA.AperFunction,Conductor*
G36*
X98548939Y-93325385D02*
G01*
X98594694Y-93378189D01*
X98605900Y-93429700D01*
X98605900Y-94673300D01*
X98586215Y-94740339D01*
X98533411Y-94786094D01*
X98481901Y-94797300D01*
X98354029Y-94797300D01*
X98354005Y-94797301D01*
X98319138Y-94800045D01*
X98169867Y-94843412D01*
X98169864Y-94843413D01*
X98036064Y-94922541D01*
X98036056Y-94922547D01*
X97926147Y-95032456D01*
X97926141Y-95032464D01*
X97847013Y-95166264D01*
X97847012Y-95166267D01*
X97803645Y-95315534D01*
X97803644Y-95315540D01*
X97800900Y-95350411D01*
X97800900Y-95350417D01*
X97800900Y-96034999D01*
X97800901Y-96613100D01*
X97781216Y-96680139D01*
X97728413Y-96725894D01*
X97676901Y-96737100D01*
X97035900Y-96737100D01*
X96968861Y-96717415D01*
X96923106Y-96664611D01*
X96911900Y-96613100D01*
X96911899Y-95350428D01*
X96911898Y-95350406D01*
X96910894Y-95337644D01*
X96909155Y-95315539D01*
X96865786Y-95166263D01*
X96786657Y-95032462D01*
X96786655Y-95032460D01*
X96786652Y-95032456D01*
X96676743Y-94922547D01*
X96676735Y-94922541D01*
X96542935Y-94843413D01*
X96542932Y-94843412D01*
X96393665Y-94800045D01*
X96393659Y-94800044D01*
X96364271Y-94797731D01*
X96358783Y-94797300D01*
X96358781Y-94797300D01*
X94254028Y-94797300D01*
X94254006Y-94797301D01*
X94219138Y-94800045D01*
X94069867Y-94843412D01*
X94069864Y-94843413D01*
X93936064Y-94922541D01*
X93936056Y-94922547D01*
X93826147Y-95032456D01*
X93826141Y-95032464D01*
X93747013Y-95166264D01*
X93747012Y-95166267D01*
X93703645Y-95315534D01*
X93703644Y-95315540D01*
X93700900Y-95350411D01*
X93700900Y-96775171D01*
X93700901Y-96775193D01*
X93703645Y-96810061D01*
X93747012Y-96959332D01*
X93747013Y-96959335D01*
X93826141Y-97093135D01*
X93826147Y-97093143D01*
X93936056Y-97203052D01*
X93936060Y-97203055D01*
X93936062Y-97203057D01*
X94069863Y-97282186D01*
X94089768Y-97287969D01*
X94219134Y-97325554D01*
X94219137Y-97325554D01*
X94219139Y-97325555D01*
X94254017Y-97328300D01*
X94355800Y-97328299D01*
X94422838Y-97347983D01*
X94468594Y-97400786D01*
X94479800Y-97452299D01*
X94479800Y-99125255D01*
X94460115Y-99192294D01*
X94407311Y-99238049D01*
X94356244Y-99249254D01*
X92922144Y-99254389D01*
X92855034Y-99234945D01*
X92809091Y-99182305D01*
X92797700Y-99130390D01*
X92797700Y-93429700D01*
X92817385Y-93362661D01*
X92870189Y-93316906D01*
X92921700Y-93305700D01*
X98481900Y-93305700D01*
X98548939Y-93325385D01*
G37*
G04 #@! TD.AperFunction*
G04 #@! TA.AperFunction,Conductor*
G36*
X88052223Y-93325385D02*
G01*
X88097978Y-93378189D01*
X88107922Y-93447347D01*
X88103572Y-93466578D01*
X88081102Y-93538691D01*
X88068913Y-93577807D01*
X88063782Y-93634275D01*
X88062612Y-93647158D01*
X88062500Y-93648386D01*
X88062500Y-94311613D01*
X88068913Y-94382192D01*
X88119522Y-94544606D01*
X88142617Y-94582809D01*
X88160500Y-94646959D01*
X88160500Y-96010807D01*
X88158117Y-96034999D01*
X88137100Y-96140655D01*
X88137100Y-96140658D01*
X88137100Y-96298342D01*
X88137100Y-96298344D01*
X88137099Y-96298344D01*
X88158117Y-96404000D01*
X88160500Y-96428192D01*
X88160500Y-96755900D01*
X88140815Y-96822939D01*
X88088011Y-96868694D01*
X88036500Y-96879900D01*
X87795298Y-96879900D01*
X87758432Y-96882801D01*
X87758426Y-96882802D01*
X87600606Y-96928654D01*
X87600603Y-96928655D01*
X87459137Y-97012317D01*
X87459129Y-97012323D01*
X87342923Y-97128529D01*
X87342914Y-97128540D01*
X87340028Y-97133422D01*
X87288958Y-97181105D01*
X87233297Y-97194300D01*
X84840825Y-97194300D01*
X84773786Y-97174615D01*
X84728031Y-97121811D01*
X84718087Y-97052653D01*
X84734092Y-97007180D01*
X84745645Y-96987644D01*
X84762386Y-96959337D01*
X84805755Y-96810061D01*
X84808500Y-96775183D01*
X84808499Y-95350418D01*
X84805755Y-95315539D01*
X84762386Y-95166263D01*
X84683257Y-95032462D01*
X84683255Y-95032460D01*
X84683252Y-95032456D01*
X84573343Y-94922547D01*
X84573335Y-94922541D01*
X84439535Y-94843413D01*
X84439532Y-94843412D01*
X84290265Y-94800045D01*
X84290259Y-94800044D01*
X84255388Y-94797300D01*
X84255383Y-94797300D01*
X84227500Y-94797300D01*
X84160461Y-94777615D01*
X84114706Y-94724811D01*
X84103500Y-94673300D01*
X84103500Y-93429700D01*
X84123185Y-93362661D01*
X84175989Y-93316906D01*
X84227500Y-93305700D01*
X87985184Y-93305700D01*
X88052223Y-93325385D01*
G37*
G04 #@! TD.AperFunction*
G04 #@! TA.AperFunction,Conductor*
G36*
X71175319Y-93325385D02*
G01*
X71221074Y-93378189D01*
X71231018Y-93447347D01*
X71201993Y-93510903D01*
X71195961Y-93517381D01*
X71138731Y-93574610D01*
X71138730Y-93574611D01*
X71050722Y-93720193D01*
X71000113Y-93882607D01*
X70996081Y-93926986D01*
X70993955Y-93950385D01*
X70993700Y-93953186D01*
X70993700Y-94616413D01*
X71000113Y-94686992D01*
X71000113Y-94686994D01*
X71000114Y-94686996D01*
X71050722Y-94849406D01*
X71099217Y-94929626D01*
X71117100Y-94993775D01*
X71117100Y-96620100D01*
X71097415Y-96687139D01*
X71044611Y-96732894D01*
X70975453Y-96742838D01*
X70968911Y-96741718D01*
X70945692Y-96737100D01*
X70945691Y-96737100D01*
X69095900Y-96737100D01*
X69028861Y-96717415D01*
X68983106Y-96664611D01*
X68971900Y-96613100D01*
X68971899Y-95350428D01*
X68971898Y-95350406D01*
X68970894Y-95337644D01*
X68969155Y-95315539D01*
X68925786Y-95166263D01*
X68846657Y-95032462D01*
X68846655Y-95032460D01*
X68846652Y-95032456D01*
X68736743Y-94922547D01*
X68736735Y-94922541D01*
X68602935Y-94843413D01*
X68602932Y-94843412D01*
X68453665Y-94800045D01*
X68453659Y-94800044D01*
X68426371Y-94797897D01*
X68361082Y-94773013D01*
X68319612Y-94716781D01*
X68312100Y-94674279D01*
X68312100Y-93429700D01*
X68331785Y-93362661D01*
X68384589Y-93316906D01*
X68436100Y-93305700D01*
X69100908Y-93305700D01*
X69100909Y-93305700D01*
X71108280Y-93305700D01*
X71175319Y-93325385D01*
G37*
G04 #@! TD.AperFunction*
G04 #@! TA.AperFunction,Conductor*
G36*
X101525417Y-93314645D02*
G01*
X101556311Y-93321946D01*
X101558695Y-93324417D01*
X101561991Y-93325385D01*
X101582780Y-93349377D01*
X101604827Y-93372225D01*
X101606371Y-93376602D01*
X101607746Y-93378189D01*
X101616569Y-93405508D01*
X101643061Y-93538691D01*
X101643064Y-93538701D01*
X101703402Y-93684372D01*
X101703409Y-93684385D01*
X101791010Y-93815488D01*
X101791013Y-93815492D01*
X101902507Y-93926986D01*
X101902511Y-93926989D01*
X102033614Y-94014590D01*
X102033627Y-94014597D01*
X102179298Y-94074935D01*
X102179303Y-94074937D01*
X102333953Y-94105699D01*
X102333956Y-94105700D01*
X102333958Y-94105700D01*
X102491644Y-94105700D01*
X102491645Y-94105699D01*
X102646297Y-94074937D01*
X102791979Y-94014594D01*
X102886259Y-93951598D01*
X102904305Y-93945947D01*
X102920215Y-93935723D01*
X102951174Y-93931271D01*
X102952936Y-93930720D01*
X102955150Y-93930700D01*
X103076900Y-93930700D01*
X103143939Y-93950385D01*
X103189694Y-94003189D01*
X103200900Y-94054700D01*
X103200900Y-94054784D01*
X103200900Y-94718016D01*
X103202823Y-94739178D01*
X103207313Y-94788592D01*
X103207313Y-94788594D01*
X103207314Y-94788596D01*
X103257922Y-94951006D01*
X103257923Y-94951007D01*
X103257924Y-94951011D01*
X103263214Y-94959760D01*
X103281100Y-95023914D01*
X103281100Y-96613100D01*
X103261415Y-96680139D01*
X103208611Y-96725894D01*
X103157100Y-96737100D01*
X101135900Y-96737100D01*
X101068861Y-96717415D01*
X101023106Y-96664611D01*
X101011900Y-96613100D01*
X101011899Y-95350428D01*
X101011898Y-95350406D01*
X101010894Y-95337644D01*
X101009155Y-95315539D01*
X100965786Y-95166263D01*
X100886657Y-95032462D01*
X100886655Y-95032460D01*
X100886652Y-95032456D01*
X100776743Y-94922547D01*
X100776735Y-94922541D01*
X100642935Y-94843413D01*
X100642932Y-94843412D01*
X100493665Y-94800045D01*
X100493659Y-94800044D01*
X100458788Y-94797300D01*
X100458783Y-94797300D01*
X100330900Y-94797300D01*
X100263861Y-94777615D01*
X100218106Y-94724811D01*
X100206900Y-94673300D01*
X100206900Y-93429700D01*
X100226585Y-93362661D01*
X100279389Y-93316906D01*
X100330900Y-93305700D01*
X101494952Y-93305700D01*
X101525417Y-93314645D01*
G37*
G04 #@! TD.AperFunction*
G04 #@! TA.AperFunction,Conductor*
G36*
X123946044Y-30689785D02*
G01*
X123991799Y-30742589D01*
X124003005Y-30793942D01*
X124003100Y-30868499D01*
X124003100Y-70488914D01*
X123983415Y-70555953D01*
X123930611Y-70601708D01*
X123879751Y-70612912D01*
X114319431Y-70663098D01*
X114318780Y-70663100D01*
X109748918Y-70663100D01*
X109707082Y-70663100D01*
X109707081Y-70663100D01*
X109684294Y-70672539D01*
X109683512Y-70670652D01*
X109657461Y-70684875D01*
X109631764Y-70687704D01*
X104698800Y-70713599D01*
X104698799Y-70713600D01*
X104680946Y-80728850D01*
X104661142Y-80795854D01*
X104655324Y-80804113D01*
X104631622Y-80835003D01*
X104571132Y-80981038D01*
X104571132Y-80981039D01*
X104550500Y-81137746D01*
X104550500Y-81137754D01*
X104550500Y-83261200D01*
X104566801Y-83400754D01*
X104566801Y-83400756D01*
X104566802Y-83400757D01*
X104622997Y-83548495D01*
X104623001Y-83548501D01*
X104652258Y-83589029D01*
X104675538Y-83654907D01*
X104675719Y-83661830D01*
X104666254Y-88972097D01*
X104662089Y-91308810D01*
X104661960Y-91380921D01*
X104642156Y-91447925D01*
X104589270Y-91493586D01*
X104537960Y-91504700D01*
X102485248Y-91504700D01*
X102418209Y-91485015D01*
X102372454Y-91432211D01*
X102363631Y-91404892D01*
X102337138Y-91271708D01*
X102337137Y-91271707D01*
X102337137Y-91271703D01*
X102314507Y-91217068D01*
X102276797Y-91126027D01*
X102276790Y-91126014D01*
X102189189Y-90994911D01*
X102189186Y-90994907D01*
X102077692Y-90883413D01*
X102077688Y-90883410D01*
X101946581Y-90795807D01*
X101946572Y-90795802D01*
X101800901Y-90735464D01*
X101800889Y-90735461D01*
X101646245Y-90704700D01*
X101646242Y-90704700D01*
X101633853Y-90704700D01*
X101566814Y-90685015D01*
X101546172Y-90668381D01*
X101065921Y-90188131D01*
X101055459Y-90177669D01*
X101055458Y-90177667D01*
X100968333Y-90090542D01*
X100899795Y-90044746D01*
X100865886Y-90022088D01*
X100865887Y-90022088D01*
X100865885Y-90022087D01*
X100865881Y-90022085D01*
X100767449Y-89981314D01*
X100767444Y-89981312D01*
X100758495Y-89977606D01*
X100752052Y-89974937D01*
X100691629Y-89962918D01*
X100689184Y-89962431D01*
X100689173Y-89962429D01*
X100631210Y-89950900D01*
X100631207Y-89950900D01*
X100631206Y-89950900D01*
X93806293Y-89950900D01*
X93739254Y-89931215D01*
X93693499Y-89878411D01*
X93683555Y-89809253D01*
X93685616Y-89798386D01*
X93686489Y-89794688D01*
X93686491Y-89794683D01*
X93692900Y-89735073D01*
X93692899Y-86439328D01*
X93686491Y-86379717D01*
X93670540Y-86336951D01*
X93636197Y-86244871D01*
X93636193Y-86244864D01*
X93549947Y-86129655D01*
X93549944Y-86129652D01*
X93434735Y-86043406D01*
X93434728Y-86043402D01*
X93299882Y-85993108D01*
X93299883Y-85993108D01*
X93240283Y-85986701D01*
X93240281Y-85986700D01*
X93240273Y-85986700D01*
X93240264Y-85986700D01*
X89944529Y-85986700D01*
X89944523Y-85986701D01*
X89884916Y-85993108D01*
X89750071Y-86043402D01*
X89750064Y-86043406D01*
X89634855Y-86129652D01*
X89634852Y-86129655D01*
X89548606Y-86244864D01*
X89548602Y-86244871D01*
X89498308Y-86379717D01*
X89494803Y-86412322D01*
X89491901Y-86439323D01*
X89491900Y-86439335D01*
X89491900Y-89735070D01*
X89491901Y-89735076D01*
X89498308Y-89794679D01*
X89499183Y-89798380D01*
X89499024Y-89801339D01*
X89499138Y-89802396D01*
X89498966Y-89802414D01*
X89495445Y-89868150D01*
X89454580Y-89924823D01*
X89389563Y-89950406D01*
X89378507Y-89950900D01*
X81590453Y-89950900D01*
X81523414Y-89931215D01*
X81502772Y-89914581D01*
X80367019Y-88778828D01*
X80333534Y-88717505D01*
X80330700Y-88691147D01*
X80330700Y-80597335D01*
X89542700Y-80597335D01*
X89542700Y-83893070D01*
X89542701Y-83893076D01*
X89549108Y-83952683D01*
X89599402Y-84087528D01*
X89599406Y-84087535D01*
X89685652Y-84202744D01*
X89685655Y-84202747D01*
X89800864Y-84288993D01*
X89800871Y-84288997D01*
X89935717Y-84339291D01*
X89935716Y-84339291D01*
X89942644Y-84340035D01*
X89995327Y-84345700D01*
X93291072Y-84345699D01*
X93350683Y-84339291D01*
X93485531Y-84288996D01*
X93600746Y-84202746D01*
X93686996Y-84087531D01*
X93737291Y-83952683D01*
X93743700Y-83893073D01*
X93743699Y-80597328D01*
X93737291Y-80537717D01*
X93726348Y-80508378D01*
X93686997Y-80402871D01*
X93686993Y-80402864D01*
X93600747Y-80287655D01*
X93600744Y-80287652D01*
X93485535Y-80201406D01*
X93485528Y-80201402D01*
X93350682Y-80151108D01*
X93350683Y-80151108D01*
X93291083Y-80144701D01*
X93291081Y-80144700D01*
X93291073Y-80144700D01*
X93291064Y-80144700D01*
X89995329Y-80144700D01*
X89995323Y-80144701D01*
X89935716Y-80151108D01*
X89800871Y-80201402D01*
X89800864Y-80201406D01*
X89685655Y-80287652D01*
X89685652Y-80287655D01*
X89599406Y-80402864D01*
X89599402Y-80402871D01*
X89549108Y-80537717D01*
X89542701Y-80597316D01*
X89542701Y-80597323D01*
X89542700Y-80597335D01*
X80330700Y-80597335D01*
X80330700Y-78898052D01*
X80350385Y-78831013D01*
X80367019Y-78810371D01*
X80476610Y-78700780D01*
X80617701Y-78559688D01*
X80679022Y-78526205D01*
X80748713Y-78531189D01*
X80804647Y-78573060D01*
X80819940Y-78599916D01*
X80824603Y-78611173D01*
X80824609Y-78611185D01*
X80912210Y-78742288D01*
X80912213Y-78742292D01*
X81023707Y-78853786D01*
X81023711Y-78853789D01*
X81154814Y-78941390D01*
X81154827Y-78941397D01*
X81281585Y-78993901D01*
X81300503Y-79001737D01*
X81455153Y-79032499D01*
X81455156Y-79032500D01*
X81455158Y-79032500D01*
X81612844Y-79032500D01*
X81612845Y-79032499D01*
X81767497Y-79001737D01*
X81913179Y-78941394D01*
X81917017Y-78938829D01*
X81919760Y-78936997D01*
X81986437Y-78916119D01*
X81988651Y-78916099D01*
X83575171Y-78916099D01*
X83575172Y-78916099D01*
X83634783Y-78909691D01*
X83769631Y-78859396D01*
X83884846Y-78773146D01*
X83971096Y-78657931D01*
X84021391Y-78523083D01*
X84027800Y-78463473D01*
X84027799Y-77957728D01*
X84027798Y-77957726D01*
X84027798Y-77957712D01*
X84021939Y-77903216D01*
X84021470Y-77898851D01*
X84021470Y-77872345D01*
X84027799Y-77813480D01*
X84027800Y-77813473D01*
X84027799Y-77307728D01*
X84027798Y-77307726D01*
X84027798Y-77307712D01*
X84024204Y-77274286D01*
X84021470Y-77248851D01*
X84021470Y-77222345D01*
X84027635Y-77165012D01*
X84027800Y-77163473D01*
X84027799Y-76657728D01*
X84027798Y-76657726D01*
X84027798Y-76657712D01*
X84024204Y-76624286D01*
X84021470Y-76598851D01*
X84021470Y-76572345D01*
X84025807Y-76532014D01*
X84027800Y-76513473D01*
X84027799Y-76007728D01*
X84027798Y-76007716D01*
X84027798Y-76007712D01*
X84022965Y-75962762D01*
X84021470Y-75948851D01*
X84021470Y-75922345D01*
X84022410Y-75913609D01*
X84027800Y-75863473D01*
X84027799Y-75357728D01*
X84027798Y-75357726D01*
X84027798Y-75357712D01*
X84024204Y-75324286D01*
X84021470Y-75298851D01*
X84021470Y-75272345D01*
X84027732Y-75214109D01*
X84027800Y-75213473D01*
X84027799Y-74707728D01*
X84027798Y-74707726D01*
X84027798Y-74707712D01*
X84023901Y-74671467D01*
X84021470Y-74648851D01*
X84021470Y-74622345D01*
X84022027Y-74617172D01*
X84027800Y-74563473D01*
X84027799Y-74057728D01*
X84027798Y-74057726D01*
X84027798Y-74057712D01*
X84024204Y-74024286D01*
X84021470Y-73998851D01*
X84021470Y-73972345D01*
X84023400Y-73954401D01*
X84027800Y-73913473D01*
X84027799Y-73407728D01*
X84027798Y-73407726D01*
X84027798Y-73407712D01*
X84024204Y-73374286D01*
X84021470Y-73348851D01*
X84021470Y-73322345D01*
X84027799Y-73263480D01*
X84027800Y-73263473D01*
X84027799Y-72757728D01*
X84027798Y-72757726D01*
X84027798Y-72757712D01*
X84023235Y-72715274D01*
X84021470Y-72698851D01*
X84021470Y-72672345D01*
X84027799Y-72613480D01*
X84027800Y-72613473D01*
X84027799Y-72174299D01*
X84047483Y-72107261D01*
X84100287Y-72061506D01*
X84151799Y-72050300D01*
X84963648Y-72050300D01*
X85030687Y-72069985D01*
X85051329Y-72086619D01*
X86374039Y-73409329D01*
X86374042Y-73409333D01*
X86461167Y-73496458D01*
X86536850Y-73547028D01*
X86563615Y-73564912D01*
X86630297Y-73592532D01*
X86677448Y-73612063D01*
X86724893Y-73621500D01*
X86798291Y-73636099D01*
X86798292Y-73636100D01*
X86798293Y-73636100D01*
X86798294Y-73636100D01*
X87102800Y-73636100D01*
X87109613Y-73638100D01*
X87116609Y-73636871D01*
X87142700Y-73647816D01*
X87169839Y-73655785D01*
X87174488Y-73661151D01*
X87181039Y-73663899D01*
X87197070Y-73687212D01*
X87215594Y-73708589D01*
X87217565Y-73717014D01*
X87220629Y-73721470D01*
X87224980Y-73748712D01*
X87226740Y-73756231D01*
X87226800Y-73758166D01*
X87226801Y-73913472D01*
X87233209Y-73973083D01*
X87233537Y-73973963D01*
X87233780Y-73981734D01*
X87233130Y-73984233D01*
X87233130Y-73998851D01*
X87226800Y-74057727D01*
X87226800Y-74057734D01*
X87226800Y-74057735D01*
X87226800Y-74563470D01*
X87226801Y-74563476D01*
X87233130Y-74622350D01*
X87233130Y-74648851D01*
X87226800Y-74707727D01*
X87226800Y-74707734D01*
X87226800Y-74707735D01*
X87226800Y-75213470D01*
X87226801Y-75213476D01*
X87233208Y-75273083D01*
X87283502Y-75407928D01*
X87283506Y-75407935D01*
X87375068Y-75530245D01*
X87373974Y-75531063D01*
X87403012Y-75584242D01*
X87398028Y-75653934D01*
X87374505Y-75690534D01*
X87375068Y-75690955D01*
X87283506Y-75813264D01*
X87283502Y-75813271D01*
X87233208Y-75948117D01*
X87226801Y-76007716D01*
X87226800Y-76007735D01*
X87226800Y-76012826D01*
X87207115Y-76079865D01*
X87154311Y-76125620D01*
X87126992Y-76134443D01*
X87091708Y-76141461D01*
X87091698Y-76141464D01*
X86946027Y-76201802D01*
X86946014Y-76201809D01*
X86814911Y-76289410D01*
X86814907Y-76289413D01*
X86703413Y-76400907D01*
X86703410Y-76400911D01*
X86615809Y-76532014D01*
X86615802Y-76532027D01*
X86555464Y-76677698D01*
X86555461Y-76677710D01*
X86524700Y-76832353D01*
X86524700Y-76990046D01*
X86555461Y-77144689D01*
X86555464Y-77144701D01*
X86615802Y-77290372D01*
X86615809Y-77290385D01*
X86703410Y-77421488D01*
X86703413Y-77421492D01*
X86814907Y-77532986D01*
X86814911Y-77532989D01*
X86946014Y-77620590D01*
X86946027Y-77620597D01*
X87006077Y-77645470D01*
X87091703Y-77680937D01*
X87126992Y-77687956D01*
X87150243Y-77700118D01*
X87175016Y-77708772D01*
X87180709Y-77716055D01*
X87188901Y-77720340D01*
X87201886Y-77743142D01*
X87218049Y-77763817D01*
X87220269Y-77775424D01*
X87223476Y-77781055D01*
X87226272Y-77798140D01*
X87226800Y-77803852D01*
X87226801Y-77813472D01*
X87233209Y-77873083D01*
X87233212Y-77873091D01*
X87233312Y-77874170D01*
X87233130Y-77875099D01*
X87233130Y-77898851D01*
X87226800Y-77957727D01*
X87226800Y-77957734D01*
X87226800Y-77957735D01*
X87226800Y-78463470D01*
X87226801Y-78463476D01*
X87233208Y-78523083D01*
X87283502Y-78657928D01*
X87283506Y-78657935D01*
X87369752Y-78773144D01*
X87369755Y-78773147D01*
X87484964Y-78859393D01*
X87484971Y-78859397D01*
X87619817Y-78909691D01*
X87619816Y-78909691D01*
X87626744Y-78910435D01*
X87679427Y-78916100D01*
X89182121Y-78916099D01*
X89249160Y-78935784D01*
X89251012Y-78936997D01*
X89333614Y-78992190D01*
X89333627Y-78992197D01*
X89430929Y-79032500D01*
X89479303Y-79052537D01*
X89580312Y-79072629D01*
X89633953Y-79083299D01*
X89633956Y-79083300D01*
X89633958Y-79083300D01*
X89791644Y-79083300D01*
X89791645Y-79083299D01*
X89946297Y-79052537D01*
X90087858Y-78993901D01*
X90091972Y-78992197D01*
X90091972Y-78992196D01*
X90091979Y-78992194D01*
X90223089Y-78904589D01*
X90334589Y-78793089D01*
X90422194Y-78661979D01*
X90482537Y-78516297D01*
X90513300Y-78361642D01*
X90513300Y-78321100D01*
X90532985Y-78254061D01*
X90585789Y-78208306D01*
X90637300Y-78197100D01*
X92900198Y-78197100D01*
X92967237Y-78216785D01*
X93006314Y-78256949D01*
X93021328Y-78281785D01*
X93021331Y-78281789D01*
X93141611Y-78402069D01*
X93141613Y-78402070D01*
X93141615Y-78402072D01*
X93287194Y-78490078D01*
X93449604Y-78540686D01*
X93520184Y-78547100D01*
X93520187Y-78547100D01*
X94033413Y-78547100D01*
X94033416Y-78547100D01*
X94103996Y-78540686D01*
X94266406Y-78490078D01*
X94411985Y-78402072D01*
X94462515Y-78351542D01*
X94514119Y-78299939D01*
X94575442Y-78266454D01*
X94645134Y-78271438D01*
X94689481Y-78299939D01*
X94791611Y-78402069D01*
X94791613Y-78402070D01*
X94791615Y-78402072D01*
X94937194Y-78490078D01*
X95099604Y-78540686D01*
X95170184Y-78547100D01*
X95170187Y-78547100D01*
X95683413Y-78547100D01*
X95683416Y-78547100D01*
X95753996Y-78540686D01*
X95916406Y-78490078D01*
X96061985Y-78402072D01*
X96182272Y-78281785D01*
X96270278Y-78136206D01*
X96320886Y-77973796D01*
X96327300Y-77903216D01*
X96327300Y-77239984D01*
X96320886Y-77169404D01*
X96270278Y-77006994D01*
X96182272Y-76861415D01*
X96182270Y-76861413D01*
X96182269Y-76861411D01*
X96088619Y-76767761D01*
X96055134Y-76706438D01*
X96052300Y-76680080D01*
X96052300Y-75978052D01*
X96060944Y-75948611D01*
X96067468Y-75918625D01*
X96071222Y-75913609D01*
X96071985Y-75911013D01*
X96088619Y-75890371D01*
X96246971Y-75732019D01*
X96308294Y-75698534D01*
X96334652Y-75695700D01*
X96336230Y-75695700D01*
X96357983Y-75702087D01*
X96377986Y-75703518D01*
X96387751Y-75710828D01*
X96403269Y-75715385D01*
X96423063Y-75737263D01*
X96433919Y-75745390D01*
X96436376Y-75751977D01*
X96446714Y-75763404D01*
X96458972Y-75787461D01*
X96471242Y-75811542D01*
X96471244Y-75811544D01*
X96471245Y-75811546D01*
X96589374Y-75957425D01*
X96691568Y-76040179D01*
X96735258Y-76075558D01*
X96902515Y-76160780D01*
X97083835Y-76209364D01*
X97161799Y-76215500D01*
X98631800Y-76215499D01*
X98709765Y-76209364D01*
X98891085Y-76160780D01*
X99058342Y-76075558D01*
X99204225Y-75957425D01*
X99322358Y-75811542D01*
X99407580Y-75644285D01*
X99456164Y-75462965D01*
X99462300Y-75385001D01*
X99462299Y-74475000D01*
X99456164Y-74397035D01*
X99407580Y-74215715D01*
X99322358Y-74048458D01*
X99281593Y-73998117D01*
X99204225Y-73902574D01*
X99058346Y-73784445D01*
X99058340Y-73784441D01*
X98988218Y-73748712D01*
X98891085Y-73699220D01*
X98891082Y-73699219D01*
X98709763Y-73650635D01*
X98644071Y-73645465D01*
X98631801Y-73644500D01*
X98631799Y-73644500D01*
X97161809Y-73644500D01*
X97161790Y-73644501D01*
X97083836Y-73650635D01*
X96902517Y-73699219D01*
X96902513Y-73699221D01*
X96735259Y-73784441D01*
X96735253Y-73784445D01*
X96589374Y-73902574D01*
X96471245Y-74048453D01*
X96471241Y-74048459D01*
X96448454Y-74093181D01*
X96386020Y-74215715D01*
X96349290Y-74352794D01*
X96312926Y-74412454D01*
X96250080Y-74442983D01*
X96229516Y-74444700D01*
X96085807Y-74444700D01*
X95962593Y-74444700D01*
X95925501Y-74452078D01*
X95925500Y-74452077D01*
X95841755Y-74468735D01*
X95841745Y-74468738D01*
X95727916Y-74515887D01*
X95727907Y-74515892D01*
X95625468Y-74584340D01*
X95602935Y-74606874D01*
X95538342Y-74671467D01*
X95538339Y-74671470D01*
X95028070Y-75181739D01*
X95028067Y-75181742D01*
X94996339Y-75213470D01*
X94940942Y-75268866D01*
X94912498Y-75311436D01*
X94912497Y-75311435D01*
X94872489Y-75371311D01*
X94872488Y-75371313D01*
X94859033Y-75403797D01*
X94843918Y-75440289D01*
X94825337Y-75485148D01*
X94818515Y-75519444D01*
X94802433Y-75600300D01*
X94801679Y-75604087D01*
X94801675Y-75604104D01*
X94801301Y-75605988D01*
X94801300Y-75605998D01*
X94801300Y-76680080D01*
X94792655Y-76709520D01*
X94786132Y-76739507D01*
X94782377Y-76744522D01*
X94781615Y-76747119D01*
X94764981Y-76767761D01*
X94689481Y-76843261D01*
X94628158Y-76876746D01*
X94558466Y-76871762D01*
X94514119Y-76843261D01*
X94411988Y-76741130D01*
X94409303Y-76739507D01*
X94266406Y-76653122D01*
X94103996Y-76602514D01*
X94103994Y-76602513D01*
X94103992Y-76602513D01*
X94054578Y-76598023D01*
X94033416Y-76596100D01*
X93520184Y-76596100D01*
X93500945Y-76597848D01*
X93449607Y-76602513D01*
X93287193Y-76653122D01*
X93141611Y-76741130D01*
X93021331Y-76861410D01*
X93021328Y-76861414D01*
X93006314Y-76886251D01*
X92954786Y-76933438D01*
X92900198Y-76946100D01*
X90290557Y-76946100D01*
X90223518Y-76926415D01*
X90177763Y-76873611D01*
X90167819Y-76804453D01*
X90187455Y-76753209D01*
X90269790Y-76629985D01*
X90269790Y-76629984D01*
X90269794Y-76629979D01*
X90271340Y-76626248D01*
X90330135Y-76484301D01*
X90330137Y-76484297D01*
X90360900Y-76329642D01*
X90360900Y-76171958D01*
X90360900Y-76171955D01*
X90360899Y-76171953D01*
X90342581Y-76079865D01*
X90330137Y-76017303D01*
X90319847Y-75992461D01*
X90269797Y-75871627D01*
X90269790Y-75871614D01*
X90207901Y-75778991D01*
X90187023Y-75712314D01*
X90205507Y-75644933D01*
X90257486Y-75598243D01*
X90311003Y-75586100D01*
X91319689Y-75586100D01*
X91386728Y-75605785D01*
X91426420Y-75646977D01*
X91430137Y-75653262D01*
X91430143Y-75653270D01*
X91542329Y-75765456D01*
X91542333Y-75765459D01*
X91542335Y-75765461D01*
X91678909Y-75846230D01*
X91678910Y-75846230D01*
X91678913Y-75846232D01*
X91831273Y-75890497D01*
X91831276Y-75890497D01*
X91831278Y-75890498D01*
X91866882Y-75893300D01*
X91866890Y-75893300D01*
X92638710Y-75893300D01*
X92638718Y-75893300D01*
X92674322Y-75890498D01*
X92674324Y-75890497D01*
X92674326Y-75890497D01*
X92826686Y-75846232D01*
X92826687Y-75846231D01*
X92826691Y-75846230D01*
X92963265Y-75765461D01*
X93075461Y-75653265D01*
X93156230Y-75516691D01*
X93156231Y-75516687D01*
X93156232Y-75516686D01*
X93200497Y-75364326D01*
X93200498Y-75364320D01*
X93203299Y-75328725D01*
X93203300Y-75328718D01*
X93203300Y-74606882D01*
X93200498Y-74571278D01*
X93199562Y-74568056D01*
X93156232Y-74418913D01*
X93156230Y-74418910D01*
X93156230Y-74418909D01*
X93090465Y-74307705D01*
X93071490Y-74275620D01*
X93074117Y-74274066D01*
X93053784Y-74222256D01*
X93053300Y-74211310D01*
X93053300Y-68603697D01*
X116254900Y-68603697D01*
X116254900Y-68863502D01*
X116295540Y-69120093D01*
X116375822Y-69367176D01*
X116428913Y-69471371D01*
X116484701Y-69580861D01*
X116493768Y-69598654D01*
X116582089Y-69720218D01*
X116646469Y-69808829D01*
X116830171Y-69992531D01*
X117040349Y-70145234D01*
X117149360Y-70200778D01*
X117271823Y-70263177D01*
X117271825Y-70263177D01*
X117271828Y-70263179D01*
X117518907Y-70343460D01*
X117651106Y-70364397D01*
X117775498Y-70384100D01*
X117775503Y-70384100D01*
X118035302Y-70384100D01*
X118148698Y-70366139D01*
X118291893Y-70343460D01*
X118538972Y-70263179D01*
X118770451Y-70145234D01*
X118980629Y-69992531D01*
X119164331Y-69808829D01*
X119317034Y-69598651D01*
X119434979Y-69367172D01*
X119515260Y-69120093D01*
X119537939Y-68976898D01*
X119555900Y-68863502D01*
X119555900Y-68603697D01*
X119522077Y-68390149D01*
X119515260Y-68347107D01*
X119434979Y-68100028D01*
X119434977Y-68100025D01*
X119434977Y-68100023D01*
X119351221Y-67935645D01*
X119317034Y-67868549D01*
X119164331Y-67658371D01*
X118980629Y-67474669D01*
X118980625Y-67474666D01*
X118770454Y-67321968D01*
X118770453Y-67321967D01*
X118770451Y-67321966D01*
X118640009Y-67255502D01*
X118538976Y-67204022D01*
X118291893Y-67123740D01*
X118035302Y-67083100D01*
X118035297Y-67083100D01*
X117775503Y-67083100D01*
X117775498Y-67083100D01*
X117518906Y-67123740D01*
X117271823Y-67204022D01*
X117040345Y-67321968D01*
X116830174Y-67474666D01*
X116830168Y-67474671D01*
X116646471Y-67658368D01*
X116646466Y-67658374D01*
X116493768Y-67868545D01*
X116375822Y-68100023D01*
X116295540Y-68347106D01*
X116254900Y-68603697D01*
X93053300Y-68603697D01*
X93053300Y-68320404D01*
X93072985Y-68253365D01*
X93089619Y-68232723D01*
X93092214Y-68230128D01*
X93194032Y-68089988D01*
X93272673Y-67935645D01*
X93326202Y-67770901D01*
X93353300Y-67599811D01*
X93353300Y-67426589D01*
X93326202Y-67255499D01*
X93272673Y-67090755D01*
X93194032Y-66936412D01*
X93092214Y-66796272D01*
X92969728Y-66673786D01*
X92829588Y-66571968D01*
X92675245Y-66493327D01*
X92510501Y-66439798D01*
X92510499Y-66439797D01*
X92510498Y-66439797D01*
X92379071Y-66418981D01*
X92339411Y-66412700D01*
X92166189Y-66412700D01*
X92133992Y-66417799D01*
X91995101Y-66439797D01*
X91984119Y-66443365D01*
X91973816Y-66446713D01*
X91903977Y-66448708D01*
X91844144Y-66412628D01*
X91813316Y-66349927D01*
X91811500Y-66328782D01*
X91811500Y-61488639D01*
X94404900Y-61488639D01*
X94404900Y-65978560D01*
X94420030Y-66112849D01*
X94420031Y-66112854D01*
X94479611Y-66283123D01*
X94508301Y-66328782D01*
X94575584Y-66435862D01*
X94703138Y-66563416D01*
X94793480Y-66620182D01*
X94839961Y-66649388D01*
X94855878Y-66659389D01*
X95026145Y-66718968D01*
X95026150Y-66718969D01*
X95116646Y-66729165D01*
X95160440Y-66734099D01*
X95160443Y-66734100D01*
X95160446Y-66734100D01*
X99650357Y-66734100D01*
X99650358Y-66734099D01*
X99717504Y-66726534D01*
X99784649Y-66718969D01*
X99784652Y-66718968D01*
X99784655Y-66718968D01*
X99954922Y-66659389D01*
X100107662Y-66563416D01*
X100235216Y-66435862D01*
X100331189Y-66283122D01*
X100390768Y-66112855D01*
X100391896Y-66102849D01*
X100405899Y-65978560D01*
X100405900Y-65978556D01*
X100405900Y-61488643D01*
X100405899Y-61488639D01*
X103104900Y-61488639D01*
X103104900Y-65978560D01*
X103120030Y-66112849D01*
X103120031Y-66112854D01*
X103179611Y-66283123D01*
X103208301Y-66328782D01*
X103275584Y-66435862D01*
X103403138Y-66563416D01*
X103493480Y-66620182D01*
X103539961Y-66649388D01*
X103555878Y-66659389D01*
X103726145Y-66718968D01*
X103726150Y-66718969D01*
X103816646Y-66729165D01*
X103860440Y-66734099D01*
X103860443Y-66734100D01*
X103860446Y-66734100D01*
X108350357Y-66734100D01*
X108350358Y-66734099D01*
X108417504Y-66726534D01*
X108484649Y-66718969D01*
X108484652Y-66718968D01*
X108484655Y-66718968D01*
X108654922Y-66659389D01*
X108807662Y-66563416D01*
X108935216Y-66435862D01*
X109031189Y-66283122D01*
X109090768Y-66112855D01*
X109091896Y-66102849D01*
X109105899Y-65978560D01*
X109105900Y-65978556D01*
X109105900Y-63603697D01*
X116254900Y-63603697D01*
X116254900Y-63863502D01*
X116295540Y-64120093D01*
X116375822Y-64367176D01*
X116456934Y-64526364D01*
X116488672Y-64588654D01*
X116493768Y-64598654D01*
X116639205Y-64798831D01*
X116646469Y-64808829D01*
X116830171Y-64992531D01*
X117040349Y-65145234D01*
X117187845Y-65220387D01*
X117271823Y-65263177D01*
X117271825Y-65263177D01*
X117271828Y-65263179D01*
X117518907Y-65343460D01*
X117651106Y-65364397D01*
X117775498Y-65384100D01*
X117775503Y-65384100D01*
X118035302Y-65384100D01*
X118148698Y-65366139D01*
X118291893Y-65343460D01*
X118538972Y-65263179D01*
X118770451Y-65145234D01*
X118980629Y-64992531D01*
X119164331Y-64808829D01*
X119317034Y-64598651D01*
X119434979Y-64367172D01*
X119515260Y-64120093D01*
X119537939Y-63976898D01*
X119555900Y-63863502D01*
X119555900Y-63603697D01*
X119529584Y-63437546D01*
X119515260Y-63347107D01*
X119434979Y-63100028D01*
X119434977Y-63100025D01*
X119434977Y-63100023D01*
X119392187Y-63016045D01*
X119317034Y-62868549D01*
X119164331Y-62658371D01*
X118980629Y-62474669D01*
X118770451Y-62321966D01*
X118698164Y-62285134D01*
X118538976Y-62204022D01*
X118291893Y-62123740D01*
X118035302Y-62083100D01*
X118035297Y-62083100D01*
X117775503Y-62083100D01*
X117775498Y-62083100D01*
X117518906Y-62123740D01*
X117271823Y-62204022D01*
X117040345Y-62321968D01*
X116830174Y-62474666D01*
X116830168Y-62474671D01*
X116646471Y-62658368D01*
X116646466Y-62658374D01*
X116493768Y-62868545D01*
X116375822Y-63100023D01*
X116295540Y-63347106D01*
X116254900Y-63603697D01*
X109105900Y-63603697D01*
X109105900Y-61488643D01*
X109105899Y-61488639D01*
X109090769Y-61354350D01*
X109090768Y-61354345D01*
X109031188Y-61184076D01*
X108962620Y-61074951D01*
X108935216Y-61031338D01*
X108807662Y-60903784D01*
X108769016Y-60879501D01*
X108654923Y-60807811D01*
X108484654Y-60748231D01*
X108484649Y-60748230D01*
X108350360Y-60733100D01*
X108350354Y-60733100D01*
X103860446Y-60733100D01*
X103860439Y-60733100D01*
X103726150Y-60748230D01*
X103726145Y-60748231D01*
X103555876Y-60807811D01*
X103403137Y-60903784D01*
X103275584Y-61031337D01*
X103179611Y-61184076D01*
X103120031Y-61354345D01*
X103120030Y-61354350D01*
X103104900Y-61488639D01*
X100405899Y-61488639D01*
X100390769Y-61354350D01*
X100390768Y-61354345D01*
X100331188Y-61184076D01*
X100262620Y-61074951D01*
X100235216Y-61031338D01*
X100107662Y-60903784D01*
X100069016Y-60879501D01*
X99954923Y-60807811D01*
X99784654Y-60748231D01*
X99784649Y-60748230D01*
X99650360Y-60733100D01*
X99650354Y-60733100D01*
X95160446Y-60733100D01*
X95160439Y-60733100D01*
X95026150Y-60748230D01*
X95026145Y-60748231D01*
X94855876Y-60807811D01*
X94703137Y-60903784D01*
X94575584Y-61031337D01*
X94479611Y-61184076D01*
X94420031Y-61354345D01*
X94420030Y-61354350D01*
X94404900Y-61488639D01*
X91811500Y-61488639D01*
X91811500Y-49999377D01*
X95022100Y-49999377D01*
X95022100Y-50196222D01*
X95052890Y-50390626D01*
X95113717Y-50577829D01*
X95184381Y-50716514D01*
X95203076Y-50753205D01*
X95318772Y-50912446D01*
X95457954Y-51051628D01*
X95617195Y-51167324D01*
X95691814Y-51205344D01*
X95792570Y-51256682D01*
X95792572Y-51256682D01*
X95792575Y-51256684D01*
X95892917Y-51289287D01*
X95979773Y-51317509D01*
X96174178Y-51348300D01*
X96174183Y-51348300D01*
X96371022Y-51348300D01*
X96565426Y-51317509D01*
X96645174Y-51291597D01*
X96752625Y-51256684D01*
X96756800Y-51254557D01*
X96765928Y-51249906D01*
X96928005Y-51167324D01*
X97087246Y-51051628D01*
X97226428Y-50912446D01*
X97342124Y-50753205D01*
X97428512Y-50583658D01*
X97432115Y-50576587D01*
X97480089Y-50525790D01*
X97547910Y-50508995D01*
X97614045Y-50531532D01*
X97653085Y-50576587D01*
X97743074Y-50753203D01*
X97747417Y-50759180D01*
X97858772Y-50912446D01*
X97997954Y-51051628D01*
X98157195Y-51167324D01*
X98231814Y-51205344D01*
X98332570Y-51256682D01*
X98332572Y-51256682D01*
X98332575Y-51256684D01*
X98432917Y-51289287D01*
X98519773Y-51317509D01*
X98714178Y-51348300D01*
X98714183Y-51348300D01*
X98911022Y-51348300D01*
X99105426Y-51317509D01*
X99185174Y-51291597D01*
X99292625Y-51256684D01*
X99296800Y-51254557D01*
X99305928Y-51249906D01*
X99468005Y-51167324D01*
X99627246Y-51051628D01*
X99766428Y-50912446D01*
X99882124Y-50753205D01*
X99968512Y-50583658D01*
X99972115Y-50576587D01*
X100020089Y-50525790D01*
X100087910Y-50508995D01*
X100154045Y-50531532D01*
X100193085Y-50576587D01*
X100283074Y-50753203D01*
X100287417Y-50759180D01*
X100398772Y-50912446D01*
X100537954Y-51051628D01*
X100697195Y-51167324D01*
X100771814Y-51205344D01*
X100872570Y-51256682D01*
X100872572Y-51256682D01*
X100872575Y-51256684D01*
X100972917Y-51289287D01*
X101059773Y-51317509D01*
X101254178Y-51348300D01*
X101254183Y-51348300D01*
X101451022Y-51348300D01*
X101645426Y-51317509D01*
X101725174Y-51291597D01*
X101832625Y-51256684D01*
X101836800Y-51254557D01*
X101845928Y-51249906D01*
X102008005Y-51167324D01*
X102167246Y-51051628D01*
X102306428Y-50912446D01*
X102422124Y-50753205D01*
X102508512Y-50583658D01*
X102512115Y-50576587D01*
X102560089Y-50525790D01*
X102627910Y-50508995D01*
X102694045Y-50531532D01*
X102733085Y-50576587D01*
X102823074Y-50753203D01*
X102827417Y-50759180D01*
X102938772Y-50912446D01*
X103077954Y-51051628D01*
X103237195Y-51167324D01*
X103311814Y-51205344D01*
X103412570Y-51256682D01*
X103412572Y-51256682D01*
X103412575Y-51256684D01*
X103512917Y-51289287D01*
X103599773Y-51317509D01*
X103794178Y-51348300D01*
X103794183Y-51348300D01*
X103991022Y-51348300D01*
X104185426Y-51317509D01*
X104265174Y-51291597D01*
X104372625Y-51256684D01*
X104376800Y-51254557D01*
X104385928Y-51249906D01*
X104548005Y-51167324D01*
X104707246Y-51051628D01*
X104846428Y-50912446D01*
X104957784Y-50759178D01*
X105013112Y-50716514D01*
X105082725Y-50710535D01*
X105144520Y-50743141D01*
X105178877Y-50803979D01*
X105182100Y-50832063D01*
X105182100Y-50895669D01*
X105182101Y-50895676D01*
X105188508Y-50955283D01*
X105238802Y-51090128D01*
X105238806Y-51090135D01*
X105325052Y-51205344D01*
X105325055Y-51205347D01*
X105440264Y-51291593D01*
X105440271Y-51291597D01*
X105575117Y-51341891D01*
X105575116Y-51341891D01*
X105582044Y-51342635D01*
X105634727Y-51348300D01*
X107230472Y-51348299D01*
X107290083Y-51341891D01*
X107424931Y-51291596D01*
X107540146Y-51205346D01*
X107626396Y-51090131D01*
X107676691Y-50955283D01*
X107683100Y-50895673D01*
X107683099Y-49299928D01*
X107676691Y-49240317D01*
X107650668Y-49170547D01*
X107626397Y-49105471D01*
X107626393Y-49105464D01*
X107540147Y-48990255D01*
X107540144Y-48990252D01*
X107424935Y-48904006D01*
X107424928Y-48904002D01*
X107290082Y-48853708D01*
X107290083Y-48853708D01*
X107230483Y-48847301D01*
X107230481Y-48847300D01*
X107230473Y-48847300D01*
X107230464Y-48847300D01*
X105634729Y-48847300D01*
X105634723Y-48847301D01*
X105575116Y-48853708D01*
X105440271Y-48904002D01*
X105440264Y-48904006D01*
X105325055Y-48990252D01*
X105325052Y-48990255D01*
X105238806Y-49105464D01*
X105238802Y-49105471D01*
X105188508Y-49240317D01*
X105183903Y-49283154D01*
X105182101Y-49299923D01*
X105182100Y-49299935D01*
X105182100Y-49363532D01*
X105162415Y-49430571D01*
X105109611Y-49476326D01*
X105040453Y-49486270D01*
X104976897Y-49457245D01*
X104957782Y-49436418D01*
X104870287Y-49315993D01*
X104846428Y-49283154D01*
X104707246Y-49143972D01*
X104548005Y-49028276D01*
X104507387Y-49007580D01*
X104372629Y-48938917D01*
X104185426Y-48878090D01*
X103991022Y-48847300D01*
X103991017Y-48847300D01*
X103794183Y-48847300D01*
X103794178Y-48847300D01*
X103599773Y-48878090D01*
X103412570Y-48938917D01*
X103237194Y-49028276D01*
X103146341Y-49094285D01*
X103077954Y-49143972D01*
X103077952Y-49143974D01*
X103077951Y-49143974D01*
X102938774Y-49283151D01*
X102938774Y-49283152D01*
X102938772Y-49283154D01*
X102914913Y-49315993D01*
X102823076Y-49442394D01*
X102733085Y-49619013D01*
X102685111Y-49669809D01*
X102617290Y-49686604D01*
X102551155Y-49664067D01*
X102512115Y-49619013D01*
X102444479Y-49486270D01*
X102422124Y-49442395D01*
X102306428Y-49283154D01*
X102167246Y-49143972D01*
X102008005Y-49028276D01*
X101967387Y-49007580D01*
X101832629Y-48938917D01*
X101645426Y-48878090D01*
X101451022Y-48847300D01*
X101451017Y-48847300D01*
X101254183Y-48847300D01*
X101254178Y-48847300D01*
X101059773Y-48878090D01*
X100872570Y-48938917D01*
X100697194Y-49028276D01*
X100606341Y-49094285D01*
X100537954Y-49143972D01*
X100537952Y-49143974D01*
X100537951Y-49143974D01*
X100398774Y-49283151D01*
X100398774Y-49283152D01*
X100398772Y-49283154D01*
X100374913Y-49315993D01*
X100283076Y-49442394D01*
X100193085Y-49619013D01*
X100145111Y-49669809D01*
X100077290Y-49686604D01*
X100011155Y-49664067D01*
X99972115Y-49619013D01*
X99904479Y-49486270D01*
X99882124Y-49442395D01*
X99766428Y-49283154D01*
X99627246Y-49143972D01*
X99468005Y-49028276D01*
X99427387Y-49007580D01*
X99292629Y-48938917D01*
X99105426Y-48878090D01*
X98911022Y-48847300D01*
X98911017Y-48847300D01*
X98714183Y-48847300D01*
X98714178Y-48847300D01*
X98519773Y-48878090D01*
X98332570Y-48938917D01*
X98157194Y-49028276D01*
X98066341Y-49094285D01*
X97997954Y-49143972D01*
X97997952Y-49143974D01*
X97997951Y-49143974D01*
X97858774Y-49283151D01*
X97858774Y-49283152D01*
X97858772Y-49283154D01*
X97834913Y-49315993D01*
X97743076Y-49442394D01*
X97653085Y-49619013D01*
X97605111Y-49669809D01*
X97537290Y-49686604D01*
X97471155Y-49664067D01*
X97432115Y-49619013D01*
X97364479Y-49486270D01*
X97342124Y-49442395D01*
X97226428Y-49283154D01*
X97087246Y-49143972D01*
X96928005Y-49028276D01*
X96887387Y-49007580D01*
X96752629Y-48938917D01*
X96565426Y-48878090D01*
X96371022Y-48847300D01*
X96371017Y-48847300D01*
X96174183Y-48847300D01*
X96174178Y-48847300D01*
X95979773Y-48878090D01*
X95792570Y-48938917D01*
X95617194Y-49028276D01*
X95526341Y-49094285D01*
X95457954Y-49143972D01*
X95457952Y-49143974D01*
X95457951Y-49143974D01*
X95318774Y-49283151D01*
X95318774Y-49283152D01*
X95318772Y-49283154D01*
X95294913Y-49315993D01*
X95203076Y-49442394D01*
X95113717Y-49617770D01*
X95052890Y-49804973D01*
X95022100Y-49999377D01*
X91811500Y-49999377D01*
X91811500Y-41086393D01*
X91811499Y-41086389D01*
X91787464Y-40965555D01*
X91787463Y-40965548D01*
X91740311Y-40851714D01*
X91740310Y-40851713D01*
X91740307Y-40851707D01*
X91671858Y-40749266D01*
X91581637Y-40659045D01*
X91581606Y-40659016D01*
X90519750Y-39597160D01*
X90512460Y-39589870D01*
X90512458Y-39589867D01*
X90425333Y-39502742D01*
X90374109Y-39468515D01*
X90322886Y-39434288D01*
X90322883Y-39434286D01*
X90322880Y-39434285D01*
X90249423Y-39403859D01*
X90249421Y-39403858D01*
X90242392Y-39400947D01*
X90209052Y-39387137D01*
X90142538Y-39373907D01*
X90138051Y-39373014D01*
X90138035Y-39373010D01*
X90088211Y-39363100D01*
X90088207Y-39363100D01*
X90088206Y-39363100D01*
X88688804Y-39363100D01*
X88621765Y-39343415D01*
X88576010Y-39290611D01*
X88566066Y-39221453D01*
X88595091Y-39157897D01*
X88601123Y-39151419D01*
X88629231Y-39123311D01*
X88672614Y-39079928D01*
X88774432Y-38939788D01*
X88853073Y-38785445D01*
X88906602Y-38620701D01*
X88933700Y-38449611D01*
X88933700Y-38276389D01*
X88906602Y-38105299D01*
X88853073Y-37940555D01*
X88774432Y-37786212D01*
X88672614Y-37646072D01*
X88550128Y-37523586D01*
X88409988Y-37421768D01*
X88336625Y-37384388D01*
X88255646Y-37343127D01*
X88251656Y-37341831D01*
X88193980Y-37302395D01*
X88166781Y-37238036D01*
X88178695Y-37169190D01*
X88225939Y-37117713D01*
X88289973Y-37099900D01*
X98207207Y-37099900D01*
X98267629Y-37087881D01*
X98328052Y-37075863D01*
X98388767Y-37050714D01*
X98394258Y-37048439D01*
X98394263Y-37048438D01*
X98441881Y-37028714D01*
X98441880Y-37028714D01*
X98441886Y-37028712D01*
X98493109Y-36994484D01*
X98544333Y-36960258D01*
X98631458Y-36873133D01*
X98631458Y-36873131D01*
X98641666Y-36862924D01*
X98641667Y-36862921D01*
X99298457Y-36206134D01*
X99317180Y-36178114D01*
X99366911Y-36103686D01*
X99366912Y-36103683D01*
X99366914Y-36103680D01*
X99398836Y-36026612D01*
X99414063Y-35989852D01*
X99414063Y-35989847D01*
X99415004Y-35987578D01*
X99458844Y-35933174D01*
X99464785Y-35929297D01*
X99467996Y-35927328D01*
X99468005Y-35927324D01*
X99627246Y-35811628D01*
X99766428Y-35672446D01*
X99882124Y-35513205D01*
X99889557Y-35498616D01*
X99972115Y-35336587D01*
X100020089Y-35285790D01*
X100087910Y-35268995D01*
X100154045Y-35291532D01*
X100193085Y-35336587D01*
X100283074Y-35513203D01*
X100317834Y-35561046D01*
X100398772Y-35672446D01*
X100537954Y-35811628D01*
X100697195Y-35927324D01*
X100767914Y-35963357D01*
X100872570Y-36016682D01*
X100872572Y-36016682D01*
X100872575Y-36016684D01*
X100972917Y-36049287D01*
X101059773Y-36077509D01*
X101254178Y-36108300D01*
X101254183Y-36108300D01*
X101451022Y-36108300D01*
X101645426Y-36077509D01*
X101651095Y-36075667D01*
X101832625Y-36016684D01*
X102008005Y-35927324D01*
X102167246Y-35811628D01*
X102306428Y-35672446D01*
X102422124Y-35513205D01*
X102511484Y-35337825D01*
X102524669Y-35297244D01*
X102564107Y-35239569D01*
X102628465Y-35212371D01*
X102697312Y-35224286D01*
X102748787Y-35271530D01*
X102760529Y-35297242D01*
X102773716Y-35337825D01*
X102863076Y-35513205D01*
X102978772Y-35672446D01*
X103117954Y-35811628D01*
X103277195Y-35927324D01*
X103347914Y-35963357D01*
X103452570Y-36016682D01*
X103452572Y-36016682D01*
X103452575Y-36016684D01*
X103552917Y-36049287D01*
X103639773Y-36077509D01*
X103834178Y-36108300D01*
X103834183Y-36108300D01*
X104031022Y-36108300D01*
X104225426Y-36077509D01*
X104231095Y-36075667D01*
X104412625Y-36016684D01*
X104588005Y-35927324D01*
X104747246Y-35811628D01*
X104886428Y-35672446D01*
X105002124Y-35513205D01*
X105072115Y-35375838D01*
X105120089Y-35325043D01*
X105187910Y-35308248D01*
X105254045Y-35330785D01*
X105293084Y-35375838D01*
X105363076Y-35513205D01*
X105478772Y-35672446D01*
X105617954Y-35811628D01*
X105777195Y-35927324D01*
X105847914Y-35963357D01*
X105952570Y-36016682D01*
X105952572Y-36016682D01*
X105952575Y-36016684D01*
X106052917Y-36049287D01*
X106139773Y-36077509D01*
X106334178Y-36108300D01*
X106334183Y-36108300D01*
X106531022Y-36108300D01*
X106725426Y-36077509D01*
X106731095Y-36075667D01*
X106912625Y-36016684D01*
X107088005Y-35927324D01*
X107247246Y-35811628D01*
X107386428Y-35672446D01*
X107502124Y-35513205D01*
X107591484Y-35337825D01*
X107652309Y-35150626D01*
X107681904Y-34963770D01*
X107683100Y-34956222D01*
X107683100Y-34937258D01*
X116105500Y-34937258D01*
X116105500Y-35166741D01*
X116126121Y-35323365D01*
X116135452Y-35394238D01*
X116166223Y-35509079D01*
X116194842Y-35615887D01*
X116282650Y-35827876D01*
X116282657Y-35827890D01*
X116397392Y-36026617D01*
X116537081Y-36208661D01*
X116537089Y-36208670D01*
X116699330Y-36370911D01*
X116699338Y-36370918D01*
X116881382Y-36510607D01*
X116881385Y-36510608D01*
X116881388Y-36510611D01*
X117080112Y-36625344D01*
X117080117Y-36625346D01*
X117080123Y-36625349D01*
X117171480Y-36663190D01*
X117292113Y-36713158D01*
X117513762Y-36772548D01*
X117741266Y-36802500D01*
X117741273Y-36802500D01*
X117970727Y-36802500D01*
X117970734Y-36802500D01*
X118198238Y-36772548D01*
X118419887Y-36713158D01*
X118631888Y-36625344D01*
X118830612Y-36510611D01*
X119012661Y-36370919D01*
X119012665Y-36370914D01*
X119012670Y-36370911D01*
X119174911Y-36208670D01*
X119174914Y-36208665D01*
X119174919Y-36208661D01*
X119314611Y-36026612D01*
X119429344Y-35827888D01*
X119517158Y-35615887D01*
X119576548Y-35394238D01*
X119606500Y-35166734D01*
X119606500Y-34937266D01*
X119576548Y-34709762D01*
X119517158Y-34488113D01*
X119429344Y-34276112D01*
X119314611Y-34077388D01*
X119314608Y-34077385D01*
X119314607Y-34077382D01*
X119213764Y-33945962D01*
X119174919Y-33895339D01*
X119174918Y-33895338D01*
X119174911Y-33895330D01*
X119012670Y-33733089D01*
X119012661Y-33733081D01*
X118830617Y-33593392D01*
X118776793Y-33562317D01*
X118631888Y-33478656D01*
X118631876Y-33478650D01*
X118419887Y-33390842D01*
X118379110Y-33379916D01*
X118198238Y-33331452D01*
X118160215Y-33326446D01*
X117970741Y-33301500D01*
X117970734Y-33301500D01*
X117741266Y-33301500D01*
X117741258Y-33301500D01*
X117524715Y-33330009D01*
X117513762Y-33331452D01*
X117447596Y-33349181D01*
X117292112Y-33390842D01*
X117080123Y-33478650D01*
X117080109Y-33478657D01*
X116881382Y-33593392D01*
X116699338Y-33733081D01*
X116537081Y-33895338D01*
X116397392Y-34077382D01*
X116282657Y-34276109D01*
X116282650Y-34276123D01*
X116194842Y-34488112D01*
X116135453Y-34709759D01*
X116135451Y-34709770D01*
X116105500Y-34937258D01*
X107683100Y-34937258D01*
X107683100Y-34759377D01*
X107652309Y-34564973D01*
X107601094Y-34407351D01*
X107591484Y-34377775D01*
X107591482Y-34377772D01*
X107591482Y-34377770D01*
X107502123Y-34202394D01*
X107463576Y-34149339D01*
X107386428Y-34043154D01*
X107247246Y-33903972D01*
X107109212Y-33803684D01*
X107066549Y-33748356D01*
X107058100Y-33703368D01*
X107058100Y-33218993D01*
X107058099Y-33218989D01*
X107034063Y-33098148D01*
X107002467Y-33021869D01*
X106986912Y-32984314D01*
X106940815Y-32915327D01*
X106918458Y-32881867D01*
X106918456Y-32881865D01*
X106918453Y-32881861D01*
X106828237Y-32791645D01*
X106828206Y-32791616D01*
X105547805Y-31511215D01*
X105540260Y-31503670D01*
X105540258Y-31503667D01*
X105453133Y-31416542D01*
X105393522Y-31376711D01*
X105350686Y-31348088D01*
X105350687Y-31348088D01*
X105350685Y-31348087D01*
X105350681Y-31348085D01*
X105268027Y-31313850D01*
X105268025Y-31313849D01*
X105260023Y-31310535D01*
X105236852Y-31300937D01*
X105159429Y-31285537D01*
X105155968Y-31284848D01*
X105155962Y-31284847D01*
X105116008Y-31276900D01*
X105116007Y-31276900D01*
X105116006Y-31276900D01*
X65741798Y-31276900D01*
X65674759Y-31257215D01*
X65672907Y-31256002D01*
X65555585Y-31177609D01*
X65555572Y-31177602D01*
X65409901Y-31117264D01*
X65409889Y-31117261D01*
X65255245Y-31086500D01*
X65255242Y-31086500D01*
X65097558Y-31086500D01*
X65097555Y-31086500D01*
X64942910Y-31117261D01*
X64942898Y-31117264D01*
X64797227Y-31177602D01*
X64797214Y-31177609D01*
X64666111Y-31265210D01*
X64666107Y-31265213D01*
X64554613Y-31376707D01*
X64554611Y-31376710D01*
X64467009Y-31507814D01*
X64467002Y-31507827D01*
X64406664Y-31653498D01*
X64406661Y-31653508D01*
X64380169Y-31786692D01*
X64347784Y-31848603D01*
X64287068Y-31883177D01*
X64258552Y-31886500D01*
X62962148Y-31886500D01*
X62914696Y-31877061D01*
X62819098Y-31837463D01*
X62819088Y-31837460D01*
X62664445Y-31806700D01*
X62664442Y-31806700D01*
X62506758Y-31806700D01*
X62506755Y-31806700D01*
X62352110Y-31837461D01*
X62352098Y-31837464D01*
X62206427Y-31897802D01*
X62206414Y-31897809D01*
X62075311Y-31985410D01*
X62075307Y-31985413D01*
X61963813Y-32096907D01*
X61963810Y-32096911D01*
X61876209Y-32228014D01*
X61876202Y-32228027D01*
X61815864Y-32373698D01*
X61815861Y-32373708D01*
X61789369Y-32506892D01*
X61756984Y-32568803D01*
X61696268Y-32603377D01*
X61667752Y-32606700D01*
X56350941Y-32606700D01*
X56350921Y-32606699D01*
X56344807Y-32606699D01*
X56221594Y-32606699D01*
X56120797Y-32626748D01*
X56120792Y-32626748D01*
X56100749Y-32630736D01*
X56100747Y-32630736D01*
X56053597Y-32650267D01*
X55986919Y-32677885D01*
X55986917Y-32677886D01*
X55884466Y-32746341D01*
X55031610Y-33599197D01*
X54970287Y-33632682D01*
X54924531Y-33633989D01*
X54756022Y-33607300D01*
X54756017Y-33607300D01*
X54559183Y-33607300D01*
X54559178Y-33607300D01*
X54364773Y-33638090D01*
X54177570Y-33698917D01*
X54002194Y-33788276D01*
X53934367Y-33837556D01*
X53842954Y-33903972D01*
X53842952Y-33903974D01*
X53842951Y-33903974D01*
X53703774Y-34043151D01*
X53703774Y-34043152D01*
X53703772Y-34043154D01*
X53654085Y-34111541D01*
X53588076Y-34202394D01*
X53498717Y-34377770D01*
X53437890Y-34564973D01*
X53407100Y-34759377D01*
X53407100Y-34956222D01*
X53437890Y-35150626D01*
X53498717Y-35337829D01*
X53585974Y-35509079D01*
X53588076Y-35513205D01*
X53703772Y-35672446D01*
X53842954Y-35811628D01*
X53980987Y-35911915D01*
X54023651Y-35967244D01*
X54032100Y-36012232D01*
X54032100Y-43907806D01*
X54056137Y-44028652D01*
X54056138Y-44028654D01*
X54056138Y-44028656D01*
X54059479Y-44036721D01*
X54060483Y-44039144D01*
X54103288Y-44142486D01*
X54115527Y-44160802D01*
X54120839Y-44168752D01*
X54120841Y-44168756D01*
X54171740Y-44244931D01*
X54171741Y-44244932D01*
X54171742Y-44244933D01*
X54258867Y-44332058D01*
X54258868Y-44332058D01*
X54265935Y-44339125D01*
X54265934Y-44339125D01*
X54265938Y-44339128D01*
X55506663Y-45579855D01*
X55506667Y-45579858D01*
X55609115Y-45648312D01*
X55609118Y-45648313D01*
X55614481Y-45651180D01*
X55613568Y-45652887D01*
X55660997Y-45691104D01*
X55683066Y-45757397D01*
X55665790Y-45825098D01*
X55643150Y-45853040D01*
X55636054Y-45859574D01*
X55608267Y-45878142D01*
X55521142Y-45965267D01*
X55521139Y-45965270D01*
X55519338Y-45967070D01*
X55519326Y-45967082D01*
X54863520Y-46622889D01*
X54258870Y-47227539D01*
X54258867Y-47227542D01*
X54231725Y-47254684D01*
X54171741Y-47314667D01*
X54156340Y-47337715D01*
X54156341Y-47337716D01*
X54103289Y-47417112D01*
X54103288Y-47417113D01*
X54103288Y-47417114D01*
X54089025Y-47451549D01*
X54063842Y-47512348D01*
X54056137Y-47530949D01*
X54039229Y-47615958D01*
X54036291Y-47630728D01*
X54036290Y-47630733D01*
X54032100Y-47651794D01*
X54032100Y-48943368D01*
X54012415Y-49010407D01*
X53980988Y-49043683D01*
X53842954Y-49143972D01*
X53842952Y-49143974D01*
X53842951Y-49143974D01*
X53703774Y-49283151D01*
X53703774Y-49283152D01*
X53703772Y-49283154D01*
X53679913Y-49315993D01*
X53588076Y-49442394D01*
X53498717Y-49617770D01*
X53437890Y-49804973D01*
X53407100Y-49999377D01*
X53407100Y-50196222D01*
X53437890Y-50390626D01*
X53498717Y-50577829D01*
X53569381Y-50716514D01*
X53588076Y-50753205D01*
X53703772Y-50912446D01*
X53842954Y-51051628D01*
X54002195Y-51167324D01*
X54076814Y-51205344D01*
X54177570Y-51256682D01*
X54177572Y-51256682D01*
X54177575Y-51256684D01*
X54277917Y-51289287D01*
X54364773Y-51317509D01*
X54559178Y-51348300D01*
X54559183Y-51348300D01*
X54756022Y-51348300D01*
X54950426Y-51317509D01*
X55030174Y-51291597D01*
X55137625Y-51256684D01*
X55141800Y-51254557D01*
X55150928Y-51249906D01*
X55313005Y-51167324D01*
X55472246Y-51051628D01*
X55611428Y-50912446D01*
X55727124Y-50753205D01*
X55813512Y-50583658D01*
X55817115Y-50576587D01*
X55865089Y-50525790D01*
X55932910Y-50508995D01*
X55999045Y-50531532D01*
X56038085Y-50576587D01*
X56128074Y-50753203D01*
X56132417Y-50759180D01*
X56243772Y-50912446D01*
X56382954Y-51051628D01*
X56520987Y-51151915D01*
X56563651Y-51207244D01*
X56572100Y-51252232D01*
X56572100Y-51797050D01*
X56552415Y-51864089D01*
X56551202Y-51865941D01*
X56488209Y-51960215D01*
X56488202Y-51960228D01*
X56427864Y-52105898D01*
X56427861Y-52105910D01*
X56397100Y-52260553D01*
X56397100Y-52418246D01*
X56427861Y-52572889D01*
X56427864Y-52572901D01*
X56488202Y-52718572D01*
X56488209Y-52718585D01*
X56575810Y-52849688D01*
X56575813Y-52849692D01*
X56687307Y-52961186D01*
X56687311Y-52961189D01*
X56818414Y-53048790D01*
X56818427Y-53048797D01*
X56964098Y-53109135D01*
X56964103Y-53109137D01*
X57118753Y-53139899D01*
X57118756Y-53139900D01*
X57118758Y-53139900D01*
X57276444Y-53139900D01*
X57276445Y-53139899D01*
X57431097Y-53109137D01*
X57576779Y-53048794D01*
X57707889Y-52961189D01*
X57819389Y-52849689D01*
X57906994Y-52718579D01*
X57967337Y-52572897D01*
X57998100Y-52418242D01*
X57998100Y-52260558D01*
X57998100Y-52260555D01*
X57998099Y-52260553D01*
X57967338Y-52105910D01*
X57967337Y-52105903D01*
X57906994Y-51960221D01*
X57843997Y-51865939D01*
X57823120Y-51799263D01*
X57823100Y-51797050D01*
X57823100Y-51252232D01*
X57842785Y-51185193D01*
X57874211Y-51151916D01*
X58012246Y-51051628D01*
X58151428Y-50912446D01*
X58267124Y-50753205D01*
X58353512Y-50583658D01*
X58357115Y-50576587D01*
X58405089Y-50525790D01*
X58472910Y-50508995D01*
X58539045Y-50531532D01*
X58578085Y-50576587D01*
X58668074Y-50753203D01*
X58672417Y-50759180D01*
X58783772Y-50912446D01*
X58922954Y-51051628D01*
X59064187Y-51154240D01*
X59106851Y-51209569D01*
X59115300Y-51254557D01*
X59115300Y-52406650D01*
X59095615Y-52473689D01*
X59094402Y-52475541D01*
X59031409Y-52569815D01*
X59031402Y-52569828D01*
X58971064Y-52715498D01*
X58971061Y-52715510D01*
X58940300Y-52870153D01*
X58940300Y-53027846D01*
X58971061Y-53182489D01*
X58971064Y-53182501D01*
X59031402Y-53328172D01*
X59031409Y-53328185D01*
X59119010Y-53459288D01*
X59119013Y-53459292D01*
X59230507Y-53570786D01*
X59230511Y-53570789D01*
X59361614Y-53658390D01*
X59361627Y-53658397D01*
X59496504Y-53714264D01*
X59507303Y-53718737D01*
X59642055Y-53745541D01*
X59661953Y-53749499D01*
X59661956Y-53749500D01*
X59661958Y-53749500D01*
X59819644Y-53749500D01*
X59819645Y-53749499D01*
X59974297Y-53718737D01*
X60119979Y-53658394D01*
X60251089Y-53570789D01*
X60362589Y-53459289D01*
X60450194Y-53328179D01*
X60510537Y-53182497D01*
X60541300Y-53027842D01*
X60541300Y-52870158D01*
X60541300Y-52870155D01*
X60541299Y-52870153D01*
X60511150Y-52718585D01*
X60510537Y-52715503D01*
X60450194Y-52569821D01*
X60387197Y-52475539D01*
X60366320Y-52408863D01*
X60366300Y-52406650D01*
X60366300Y-51249906D01*
X60385985Y-51182867D01*
X60417411Y-51149591D01*
X60552246Y-51051628D01*
X60691428Y-50912446D01*
X60807124Y-50753205D01*
X60893512Y-50583658D01*
X60897115Y-50576587D01*
X60945089Y-50525790D01*
X61012910Y-50508995D01*
X61079045Y-50531532D01*
X61118085Y-50576587D01*
X61208074Y-50753203D01*
X61212417Y-50759180D01*
X61323772Y-50912446D01*
X61462954Y-51051628D01*
X61600987Y-51151915D01*
X61643651Y-51207244D01*
X61652100Y-51252232D01*
X61652100Y-53016250D01*
X61632415Y-53083289D01*
X61631202Y-53085141D01*
X61568209Y-53179415D01*
X61568202Y-53179428D01*
X61507864Y-53325098D01*
X61507861Y-53325110D01*
X61477100Y-53479753D01*
X61477100Y-53637446D01*
X61507861Y-53792089D01*
X61507864Y-53792101D01*
X61568202Y-53937772D01*
X61568209Y-53937785D01*
X61655810Y-54068888D01*
X61655813Y-54068892D01*
X61767307Y-54180386D01*
X61767311Y-54180389D01*
X61898414Y-54267990D01*
X61898427Y-54267997D01*
X62044098Y-54328335D01*
X62044103Y-54328337D01*
X62198753Y-54359099D01*
X62198756Y-54359100D01*
X62198758Y-54359100D01*
X62356444Y-54359100D01*
X62356445Y-54359099D01*
X62511097Y-54328337D01*
X62656779Y-54267994D01*
X62787889Y-54180389D01*
X62899389Y-54068889D01*
X62986994Y-53937779D01*
X63047337Y-53792097D01*
X63078100Y-53637442D01*
X63078100Y-53479758D01*
X63078100Y-53479755D01*
X63078099Y-53479753D01*
X63047950Y-53328185D01*
X63047337Y-53325103D01*
X62986994Y-53179421D01*
X62923997Y-53085139D01*
X62903120Y-53018463D01*
X62903100Y-53016250D01*
X62903100Y-51252232D01*
X62922785Y-51185193D01*
X62954211Y-51151916D01*
X63092246Y-51051628D01*
X63231428Y-50912446D01*
X63342784Y-50759178D01*
X63398112Y-50716514D01*
X63467725Y-50710535D01*
X63529520Y-50743141D01*
X63563877Y-50803979D01*
X63567100Y-50832063D01*
X63567100Y-50895669D01*
X63567101Y-50895676D01*
X63573508Y-50955283D01*
X63623802Y-51090128D01*
X63623806Y-51090135D01*
X63710052Y-51205344D01*
X63710055Y-51205347D01*
X63825264Y-51291593D01*
X63825271Y-51291597D01*
X63870218Y-51308361D01*
X63960117Y-51341891D01*
X64019727Y-51348300D01*
X64068100Y-51348299D01*
X64135137Y-51367982D01*
X64180893Y-51420785D01*
X64192100Y-51472299D01*
X64192100Y-53676650D01*
X64172415Y-53743689D01*
X64171226Y-53745503D01*
X64150402Y-53776668D01*
X64108209Y-53839815D01*
X64108202Y-53839828D01*
X64047864Y-53985498D01*
X64047861Y-53985510D01*
X64017100Y-54140153D01*
X64017100Y-54297846D01*
X64047861Y-54452489D01*
X64047864Y-54452501D01*
X64108202Y-54598172D01*
X64108209Y-54598185D01*
X64195810Y-54729288D01*
X64195813Y-54729292D01*
X64307307Y-54840786D01*
X64307311Y-54840789D01*
X64438414Y-54928390D01*
X64438427Y-54928397D01*
X64584098Y-54988735D01*
X64584103Y-54988737D01*
X64738753Y-55019499D01*
X64738756Y-55019500D01*
X64738758Y-55019500D01*
X64896444Y-55019500D01*
X64896445Y-55019499D01*
X65051097Y-54988737D01*
X65196779Y-54928394D01*
X65327889Y-54840789D01*
X65439389Y-54729289D01*
X65526994Y-54598179D01*
X65587337Y-54452497D01*
X65618100Y-54297842D01*
X65618100Y-54140158D01*
X65618100Y-54140155D01*
X65618099Y-54140153D01*
X65603924Y-54068892D01*
X65587337Y-53985503D01*
X65526994Y-53839821D01*
X65463997Y-53745539D01*
X65443120Y-53678863D01*
X65443100Y-53676650D01*
X65443100Y-51472299D01*
X65462785Y-51405260D01*
X65515589Y-51359505D01*
X65567100Y-51348299D01*
X65615471Y-51348299D01*
X65615472Y-51348299D01*
X65675083Y-51341891D01*
X65809931Y-51291596D01*
X65925146Y-51205346D01*
X66011396Y-51090131D01*
X66061691Y-50955283D01*
X66068100Y-50895673D01*
X66068100Y-50847300D01*
X66087785Y-50780261D01*
X66140589Y-50734506D01*
X66192100Y-50723300D01*
X75236607Y-50723300D01*
X75297029Y-50711281D01*
X75357452Y-50699263D01*
X75390792Y-50685452D01*
X75471286Y-50652112D01*
X75522509Y-50617884D01*
X75573733Y-50583658D01*
X75660858Y-50496533D01*
X75660858Y-50496531D01*
X75671066Y-50486324D01*
X75671067Y-50486321D01*
X76381058Y-49776333D01*
X76449512Y-49673885D01*
X76496663Y-49560051D01*
X76514118Y-49472300D01*
X76520701Y-49439208D01*
X76520701Y-49310883D01*
X76520700Y-49310857D01*
X76520700Y-41876141D01*
X76520701Y-41876120D01*
X76520701Y-41746791D01*
X76496664Y-41625955D01*
X76496663Y-41625949D01*
X76449512Y-41512115D01*
X76381058Y-41409667D01*
X76381055Y-41409663D01*
X75867240Y-40895850D01*
X75856659Y-40885269D01*
X75856658Y-40885267D01*
X75769533Y-40798142D01*
X75696387Y-40749267D01*
X75667086Y-40729688D01*
X75667084Y-40729687D01*
X75667083Y-40729686D01*
X75661285Y-40727285D01*
X75606880Y-40683445D01*
X75584814Y-40617152D01*
X75602092Y-40549452D01*
X75610353Y-40537244D01*
X75613140Y-40533614D01*
X75671255Y-40393312D01*
X75686100Y-40280554D01*
X75686100Y-39747446D01*
X75671255Y-39634688D01*
X75613140Y-39494386D01*
X75613139Y-39494384D01*
X75582524Y-39454487D01*
X75557329Y-39389318D01*
X75571367Y-39320873D01*
X75582524Y-39303513D01*
X75613139Y-39263615D01*
X75613138Y-39263615D01*
X75613140Y-39263614D01*
X75671255Y-39123312D01*
X75686100Y-39010554D01*
X75686100Y-38477446D01*
X75671255Y-38364688D01*
X75613142Y-38224390D01*
X75613142Y-38224389D01*
X75613140Y-38224386D01*
X75520693Y-38103907D01*
X75400214Y-38011460D01*
X75400211Y-38011459D01*
X75400209Y-38011457D01*
X75259915Y-37953346D01*
X75259913Y-37953345D01*
X75259912Y-37953345D01*
X75245817Y-37951489D01*
X75147161Y-37938500D01*
X75147154Y-37938500D01*
X73524046Y-37938500D01*
X73524038Y-37938500D01*
X73411288Y-37953345D01*
X73411284Y-37953346D01*
X73270990Y-38011457D01*
X73270985Y-38011460D01*
X73177132Y-38083476D01*
X73111963Y-38108670D01*
X73101646Y-38109100D01*
X65542100Y-38109100D01*
X65475061Y-38089415D01*
X65429306Y-38036611D01*
X65418100Y-37985100D01*
X65418100Y-36030396D01*
X65437785Y-35963357D01*
X65469214Y-35930078D01*
X65473003Y-35927324D01*
X65473005Y-35927324D01*
X65632246Y-35811628D01*
X65771428Y-35672446D01*
X65887124Y-35513205D01*
X65976484Y-35337825D01*
X66037309Y-35150626D01*
X66066904Y-34963770D01*
X66068100Y-34956222D01*
X66068100Y-34759377D01*
X66037309Y-34564973D01*
X65986094Y-34407351D01*
X65976484Y-34377775D01*
X65976482Y-34377772D01*
X65976482Y-34377770D01*
X65887123Y-34202394D01*
X65848576Y-34149339D01*
X65779732Y-34054583D01*
X65756253Y-33988780D01*
X65772078Y-33920726D01*
X65822184Y-33872031D01*
X65880051Y-33857700D01*
X95202547Y-33857700D01*
X95231996Y-33866347D01*
X95261986Y-33872875D01*
X95266992Y-33876623D01*
X95269586Y-33877385D01*
X95290238Y-33894029D01*
X95294640Y-33898432D01*
X95328118Y-33959759D01*
X95323126Y-34029450D01*
X95307267Y-34058989D01*
X95203076Y-34202394D01*
X95113717Y-34377770D01*
X95052890Y-34564973D01*
X95022100Y-34759377D01*
X95022100Y-34956222D01*
X95052890Y-35150626D01*
X95113717Y-35337829D01*
X95200974Y-35509079D01*
X95203076Y-35513205D01*
X95303928Y-35652016D01*
X95327408Y-35717820D01*
X95311583Y-35785874D01*
X95261477Y-35834569D01*
X95203610Y-35848900D01*
X82852989Y-35848900D01*
X82802135Y-35859015D01*
X82802130Y-35859016D01*
X82792571Y-35860918D01*
X82732148Y-35872937D01*
X82684997Y-35892467D01*
X82618315Y-35920088D01*
X82618314Y-35920089D01*
X82595947Y-35935033D01*
X82595944Y-35935035D01*
X82515868Y-35988540D01*
X82492177Y-36012232D01*
X82428742Y-36075667D01*
X81556144Y-36948264D01*
X81556138Y-36948272D01*
X81487690Y-37050708D01*
X81487688Y-37050713D01*
X81469474Y-37094687D01*
X81469474Y-37094688D01*
X81440538Y-37164545D01*
X81440535Y-37164555D01*
X81416500Y-37285389D01*
X81416500Y-44460810D01*
X81419653Y-44476664D01*
X81436499Y-44561355D01*
X81436500Y-44561358D01*
X81440537Y-44581651D01*
X81440538Y-44581655D01*
X81487685Y-44695480D01*
X81487687Y-44695483D01*
X81487688Y-44695486D01*
X81521915Y-44746709D01*
X81556142Y-44797933D01*
X81643267Y-44885058D01*
X81643269Y-44885059D01*
X81653233Y-44895023D01*
X82228672Y-45470464D01*
X82262157Y-45531787D01*
X82257173Y-45601479D01*
X82215301Y-45657412D01*
X82188444Y-45672706D01*
X82170824Y-45680004D01*
X82170814Y-45680009D01*
X82039711Y-45767610D01*
X82039707Y-45767613D01*
X81928213Y-45879107D01*
X81928210Y-45879111D01*
X81840609Y-46010214D01*
X81840602Y-46010227D01*
X81780264Y-46155898D01*
X81780261Y-46155910D01*
X81749500Y-46310553D01*
X81749500Y-46468246D01*
X81780261Y-46622889D01*
X81780264Y-46622901D01*
X81840602Y-46768572D01*
X81840609Y-46768585D01*
X81928210Y-46899688D01*
X81928213Y-46899692D01*
X81957540Y-46929019D01*
X81991025Y-46990342D01*
X81986041Y-47060034D01*
X81957540Y-47104381D01*
X81877413Y-47184507D01*
X81877410Y-47184511D01*
X81789809Y-47315614D01*
X81789802Y-47315627D01*
X81729464Y-47461298D01*
X81729461Y-47461310D01*
X81698700Y-47615953D01*
X81698700Y-47773646D01*
X81729461Y-47928289D01*
X81729464Y-47928301D01*
X81789802Y-48073972D01*
X81789809Y-48073985D01*
X81877410Y-48205088D01*
X81877413Y-48205092D01*
X81988907Y-48316586D01*
X81988911Y-48316589D01*
X82120014Y-48404190D01*
X82120027Y-48404197D01*
X82261526Y-48462807D01*
X82265703Y-48464537D01*
X82363039Y-48483898D01*
X82407266Y-48492696D01*
X82469177Y-48525081D01*
X82503751Y-48585796D01*
X82506015Y-48630493D01*
X82505100Y-48637438D01*
X82505100Y-49170561D01*
X82519945Y-49283311D01*
X82519946Y-49283315D01*
X82578057Y-49423609D01*
X82578057Y-49423610D01*
X82578059Y-49423613D01*
X82578060Y-49423614D01*
X82670507Y-49544093D01*
X82790986Y-49636540D01*
X82790989Y-49636541D01*
X82790990Y-49636542D01*
X82857442Y-49664067D01*
X82931288Y-49694655D01*
X83044046Y-49709500D01*
X83044053Y-49709500D01*
X84667147Y-49709500D01*
X84667154Y-49709500D01*
X84779912Y-49694655D01*
X84920209Y-49636542D01*
X84920210Y-49636542D01*
X84920210Y-49636541D01*
X84920214Y-49636540D01*
X85040693Y-49544093D01*
X85133140Y-49423614D01*
X85191255Y-49283312D01*
X85206100Y-49170554D01*
X85206100Y-48637446D01*
X85191255Y-48524688D01*
X85133140Y-48384386D01*
X85133139Y-48384384D01*
X85102524Y-48344487D01*
X85077329Y-48279318D01*
X85091367Y-48210873D01*
X85102524Y-48193513D01*
X85133139Y-48153615D01*
X85133138Y-48153615D01*
X85133140Y-48153614D01*
X85191255Y-48013312D01*
X85206100Y-47900554D01*
X85206100Y-47367446D01*
X85191255Y-47254688D01*
X85133140Y-47114386D01*
X85133139Y-47114384D01*
X85102524Y-47074487D01*
X85077329Y-47009318D01*
X85091367Y-46940873D01*
X85102524Y-46923513D01*
X85133139Y-46883615D01*
X85133138Y-46883615D01*
X85133140Y-46883614D01*
X85191255Y-46743312D01*
X85206100Y-46630554D01*
X85206100Y-46097446D01*
X85191255Y-45984688D01*
X85133140Y-45844386D01*
X85133139Y-45844384D01*
X85102524Y-45804487D01*
X85077329Y-45739318D01*
X85091367Y-45670873D01*
X85092633Y-45668548D01*
X85097029Y-45660673D01*
X85133140Y-45613614D01*
X85161394Y-45545400D01*
X85164918Y-45539091D01*
X85184896Y-45519486D01*
X85202462Y-45497688D01*
X85209496Y-45495346D01*
X85214788Y-45490154D01*
X85242196Y-45484462D01*
X85268756Y-45475622D01*
X85275939Y-45477455D01*
X85283198Y-45475948D01*
X85309332Y-45485977D01*
X85336456Y-45492900D01*
X85338235Y-45493976D01*
X85392103Y-45527203D01*
X85553092Y-45580549D01*
X85652455Y-45590700D01*
X86249144Y-45590699D01*
X86249152Y-45590698D01*
X86249155Y-45590698D01*
X86303560Y-45585140D01*
X86348508Y-45580549D01*
X86509497Y-45527203D01*
X86619808Y-45459161D01*
X86636365Y-45454465D01*
X86649970Y-45445723D01*
X86684905Y-45440700D01*
X86743495Y-45440700D01*
X86808591Y-45459161D01*
X86918903Y-45527203D01*
X87079892Y-45580549D01*
X87179255Y-45590700D01*
X87775944Y-45590699D01*
X87775952Y-45590698D01*
X87775955Y-45590698D01*
X87830360Y-45585140D01*
X87875308Y-45580549D01*
X88036297Y-45527203D01*
X88090119Y-45494005D01*
X88164403Y-45448186D01*
X88231795Y-45429745D01*
X88298459Y-45450667D01*
X88343228Y-45504309D01*
X88353500Y-45553724D01*
X88353500Y-56259060D01*
X88333815Y-56326099D01*
X88317181Y-56346741D01*
X86826741Y-57837181D01*
X86765418Y-57870666D01*
X86739060Y-57873500D01*
X46533378Y-57873500D01*
X46466339Y-57853815D01*
X46433060Y-57822386D01*
X46306631Y-57648371D01*
X46122929Y-57464669D01*
X45912751Y-57311966D01*
X45840464Y-57275134D01*
X45681276Y-57194022D01*
X45434193Y-57113740D01*
X45177602Y-57073100D01*
X45177597Y-57073100D01*
X44917803Y-57073100D01*
X44917798Y-57073100D01*
X44661206Y-57113740D01*
X44414123Y-57194022D01*
X44182645Y-57311968D01*
X43972474Y-57464666D01*
X43972468Y-57464671D01*
X43788771Y-57648368D01*
X43788766Y-57648374D01*
X43636068Y-57858545D01*
X43518122Y-58090023D01*
X43437840Y-58337106D01*
X43397200Y-58593697D01*
X43397200Y-58853502D01*
X43437840Y-59110093D01*
X43518122Y-59357176D01*
X43586518Y-59491409D01*
X43636066Y-59588651D01*
X43788769Y-59798829D01*
X43972471Y-59982531D01*
X44182649Y-60135234D01*
X44330145Y-60210387D01*
X44414123Y-60253177D01*
X44414125Y-60253177D01*
X44414128Y-60253179D01*
X44661207Y-60333460D01*
X44793406Y-60354397D01*
X44917798Y-60374100D01*
X44917803Y-60374100D01*
X45177602Y-60374100D01*
X45290998Y-60356139D01*
X45434193Y-60333460D01*
X45681272Y-60253179D01*
X45912751Y-60135234D01*
X46122929Y-59982531D01*
X46306631Y-59798829D01*
X46459334Y-59588651D01*
X46482999Y-59542206D01*
X46530973Y-59491409D01*
X46593484Y-59474500D01*
X73040300Y-59474500D01*
X73107339Y-59494185D01*
X73153094Y-59546989D01*
X73164300Y-59598500D01*
X73164300Y-68072848D01*
X73144615Y-68139887D01*
X73091811Y-68185642D01*
X73053555Y-68196138D01*
X73007316Y-68201109D01*
X72872471Y-68251402D01*
X72872464Y-68251406D01*
X72757255Y-68337652D01*
X72757252Y-68337655D01*
X72671006Y-68452864D01*
X72671002Y-68452871D01*
X72620708Y-68587717D01*
X72614301Y-68647316D01*
X72614300Y-68647335D01*
X72614300Y-70443070D01*
X72614301Y-70443076D01*
X72620708Y-70502683D01*
X72671002Y-70637528D01*
X72671006Y-70637535D01*
X72757252Y-70752744D01*
X72757255Y-70752747D01*
X72872464Y-70838993D01*
X72872471Y-70838997D01*
X73014585Y-70892002D01*
X73013908Y-70893815D01*
X73065715Y-70923302D01*
X73098112Y-70985207D01*
X73100500Y-71009423D01*
X73100500Y-77701093D01*
X73082039Y-77766190D01*
X73013998Y-77876500D01*
X73013996Y-77876505D01*
X72960651Y-78037490D01*
X72950500Y-78136847D01*
X72950500Y-78733537D01*
X72950501Y-78733555D01*
X72960650Y-78832907D01*
X72960651Y-78832910D01*
X73013996Y-78993894D01*
X73013999Y-78993901D01*
X73018833Y-79001738D01*
X73095038Y-79125284D01*
X73099734Y-79141841D01*
X73108477Y-79155446D01*
X73113500Y-79190381D01*
X73113500Y-79225093D01*
X73095039Y-79290190D01*
X73026998Y-79400500D01*
X73026996Y-79400505D01*
X72973651Y-79561490D01*
X72963500Y-79660847D01*
X72963500Y-80257537D01*
X72963501Y-80257555D01*
X72973650Y-80356907D01*
X72973651Y-80356910D01*
X73026996Y-80517894D01*
X73027001Y-80517905D01*
X73075797Y-80597014D01*
X73084064Y-80627226D01*
X73094148Y-80656873D01*
X73093210Y-80660650D01*
X73094238Y-80664406D01*
X73084857Y-80694296D01*
X73077313Y-80724684D01*
X73074178Y-80728320D01*
X73073316Y-80731070D01*
X73055348Y-80752310D01*
X73051765Y-80755689D01*
X72957978Y-80831078D01*
X72914463Y-80885212D01*
X72914463Y-80885213D01*
X72902347Y-80900286D01*
X72845003Y-80940204D01*
X72827370Y-80940855D01*
X72826116Y-80941494D01*
X72821820Y-80941060D01*
X72775181Y-80942784D01*
X72762083Y-80935034D01*
X72756599Y-80934481D01*
X72743367Y-80923960D01*
X72715049Y-80907205D01*
X72709037Y-80900265D01*
X72706637Y-80897278D01*
X72705088Y-80893524D01*
X72701910Y-80890997D01*
X72691875Y-80861495D01*
X72679992Y-80832689D01*
X72679607Y-80825427D01*
X72679411Y-80824849D01*
X72679547Y-80824297D01*
X72679300Y-80819611D01*
X72679300Y-79772056D01*
X72656682Y-79658352D01*
X72654299Y-79634160D01*
X72654299Y-79597262D01*
X72654298Y-79597244D01*
X72644149Y-79497892D01*
X72644148Y-79497889D01*
X72616596Y-79414743D01*
X72590803Y-79336903D01*
X72590799Y-79336897D01*
X72590798Y-79336894D01*
X72501770Y-79192559D01*
X72501767Y-79192555D01*
X72381844Y-79072632D01*
X72381840Y-79072629D01*
X72237505Y-78983601D01*
X72237499Y-78983598D01*
X72237497Y-78983597D01*
X72110124Y-78941390D01*
X72076509Y-78930251D01*
X72076502Y-78930250D01*
X72023585Y-78924843D01*
X71988742Y-78916048D01*
X71970638Y-78908550D01*
X71970632Y-78908548D01*
X71777343Y-78870100D01*
X71777341Y-78870100D01*
X70253341Y-78870100D01*
X65982819Y-78870100D01*
X65915780Y-78850415D01*
X65870025Y-78797611D01*
X65864888Y-78784419D01*
X65808600Y-78611185D01*
X65805220Y-78600781D01*
X65805218Y-78600778D01*
X65805218Y-78600776D01*
X65735259Y-78463476D01*
X65712287Y-78418390D01*
X65700429Y-78402069D01*
X65591971Y-78252786D01*
X65447213Y-78108028D01*
X65281613Y-77987715D01*
X65281612Y-77987714D01*
X65281610Y-77987713D01*
X65222730Y-77957712D01*
X65099223Y-77894781D01*
X64904535Y-77831523D01*
X64756483Y-77808073D01*
X64693349Y-77778143D01*
X64688201Y-77773281D01*
X64028819Y-77113898D01*
X63995334Y-77052575D01*
X63992500Y-77026217D01*
X63992500Y-71732656D01*
X63992499Y-71732654D01*
X63954052Y-71539370D01*
X63954050Y-71539363D01*
X63947552Y-71523676D01*
X63913183Y-71440700D01*
X63894179Y-71394819D01*
X63878635Y-71357291D01*
X63878628Y-71357279D01*
X63769140Y-71193419D01*
X63713577Y-71137856D01*
X63629782Y-71054061D01*
X63629781Y-71054060D01*
X62303008Y-69727288D01*
X62303006Y-69727285D01*
X62303006Y-69727286D01*
X62295939Y-69720219D01*
X62295939Y-69720218D01*
X62156582Y-69580861D01*
X62156581Y-69580860D01*
X62156580Y-69580859D01*
X61992720Y-69471371D01*
X61992711Y-69471366D01*
X61871019Y-69420960D01*
X61863965Y-69418038D01*
X61810636Y-69395949D01*
X61707847Y-69375503D01*
X61703383Y-69374615D01*
X61703372Y-69374612D01*
X61617343Y-69357500D01*
X61617341Y-69357500D01*
X57711038Y-69357500D01*
X57645942Y-69339039D01*
X57557340Y-69284389D01*
X57557335Y-69284387D01*
X57557334Y-69284386D01*
X57390797Y-69229201D01*
X57390795Y-69229200D01*
X57288010Y-69218700D01*
X55487998Y-69218700D01*
X55487981Y-69218701D01*
X55385203Y-69229200D01*
X55385200Y-69229201D01*
X55218668Y-69284385D01*
X55218663Y-69284387D01*
X55069342Y-69376489D01*
X54945289Y-69500542D01*
X54853187Y-69649863D01*
X54853185Y-69649868D01*
X54825349Y-69733870D01*
X54798001Y-69816403D01*
X54798001Y-69816404D01*
X54798000Y-69816404D01*
X54787500Y-69919183D01*
X54787500Y-70719201D01*
X54787501Y-70719219D01*
X54798000Y-70821996D01*
X54798001Y-70821999D01*
X54853185Y-70988531D01*
X54853187Y-70988536D01*
X54865245Y-71008085D01*
X54945288Y-71137856D01*
X55069344Y-71261912D01*
X55218666Y-71354014D01*
X55385203Y-71409199D01*
X55487991Y-71419700D01*
X57288008Y-71419699D01*
X57390797Y-71409199D01*
X57524802Y-71364793D01*
X57563806Y-71358500D01*
X61053018Y-71358500D01*
X61120057Y-71378185D01*
X61140699Y-71394819D01*
X61955181Y-72209301D01*
X61988666Y-72270624D01*
X61991500Y-72296982D01*
X61991500Y-77590542D01*
X61997478Y-77620597D01*
X62002870Y-77647700D01*
X62029949Y-77783836D01*
X62038654Y-77804851D01*
X62042447Y-77814010D01*
X62042448Y-77814011D01*
X62105364Y-77965907D01*
X62105371Y-77965920D01*
X62214859Y-78129780D01*
X62214860Y-78129781D01*
X62214861Y-78129782D01*
X62354218Y-78269139D01*
X62354219Y-78269139D01*
X62361286Y-78276206D01*
X62361285Y-78276206D01*
X62361289Y-78276209D01*
X63273281Y-79188201D01*
X63306766Y-79249524D01*
X63308073Y-79256483D01*
X63331523Y-79404535D01*
X63394781Y-79599223D01*
X63458580Y-79724434D01*
X63475592Y-79757822D01*
X63487715Y-79781613D01*
X63608028Y-79947213D01*
X63752786Y-80091971D01*
X63903408Y-80201402D01*
X63918390Y-80212287D01*
X64034607Y-80271503D01*
X64100776Y-80305218D01*
X64100778Y-80305218D01*
X64100781Y-80305220D01*
X64205137Y-80339127D01*
X64295465Y-80368477D01*
X64372966Y-80380751D01*
X64443513Y-80391925D01*
X64462744Y-80401041D01*
X64483543Y-80405566D01*
X64502974Y-80420112D01*
X64506648Y-80421854D01*
X64511797Y-80426717D01*
X64590335Y-80505255D01*
X64590364Y-80505286D01*
X64732817Y-80647739D01*
X64825401Y-80709601D01*
X64896686Y-80757232D01*
X65008166Y-80803408D01*
X65078764Y-80832651D01*
X65175412Y-80851875D01*
X65257562Y-80868216D01*
X65272058Y-80871100D01*
X65272059Y-80871100D01*
X65272060Y-80871100D01*
X65469140Y-80871100D01*
X68165100Y-80871100D01*
X68232139Y-80890785D01*
X68277894Y-80943589D01*
X68289100Y-80995100D01*
X68289100Y-88176059D01*
X68269415Y-88243098D01*
X68265418Y-88248945D01*
X68248370Y-88272407D01*
X68248369Y-88272410D01*
X68169728Y-88426752D01*
X68116197Y-88591502D01*
X68089100Y-88762589D01*
X68089100Y-88935810D01*
X68104636Y-89033902D01*
X68095681Y-89103196D01*
X68050685Y-89156648D01*
X67983933Y-89177287D01*
X67982163Y-89177300D01*
X61576858Y-89177300D01*
X61509819Y-89157615D01*
X61464064Y-89104811D01*
X61454120Y-89035653D01*
X61483145Y-88972097D01*
X61538539Y-88935369D01*
X61570893Y-88924856D01*
X61690419Y-88886020D01*
X61872810Y-88793087D01*
X62001155Y-88699840D01*
X62038413Y-88672771D01*
X62038415Y-88672768D01*
X62038419Y-88672766D01*
X62183166Y-88528019D01*
X62183168Y-88528015D01*
X62183171Y-88528013D01*
X62256740Y-88426752D01*
X62303487Y-88362410D01*
X62396420Y-88180019D01*
X62459677Y-87985334D01*
X62491700Y-87783152D01*
X62491700Y-87578448D01*
X62475291Y-87474849D01*
X62459677Y-87376265D01*
X62398227Y-87187143D01*
X62396420Y-87181581D01*
X62396418Y-87181578D01*
X62396418Y-87181576D01*
X62331075Y-87053335D01*
X62303487Y-86999190D01*
X62264037Y-86944891D01*
X62183171Y-86833586D01*
X62038413Y-86688828D01*
X61872813Y-86568515D01*
X61872812Y-86568514D01*
X61872810Y-86568513D01*
X61815853Y-86539491D01*
X61690423Y-86475581D01*
X61495734Y-86412322D01*
X61321195Y-86384678D01*
X61293552Y-86380300D01*
X61088848Y-86380300D01*
X61064529Y-86384151D01*
X60886665Y-86412322D01*
X60691976Y-86475581D01*
X60509586Y-86568515D01*
X60388323Y-86656618D01*
X60322517Y-86680098D01*
X60315438Y-86680300D01*
X57512500Y-86680300D01*
X57445461Y-86660615D01*
X57399706Y-86607811D01*
X57388500Y-86556300D01*
X57388500Y-76059500D01*
X57394173Y-76040179D01*
X57394940Y-76020059D01*
X57403815Y-76007340D01*
X57408185Y-75992461D01*
X57423401Y-75979275D01*
X57434926Y-75962762D01*
X57455142Y-75951771D01*
X57460989Y-75946706D01*
X57465322Y-75944825D01*
X57469334Y-75943174D01*
X57557334Y-75914014D01*
X57591625Y-75892862D01*
X57600954Y-75889025D01*
X57623666Y-75886638D01*
X57648132Y-75879700D01*
X58785543Y-75879700D01*
X58832886Y-75870282D01*
X58934595Y-75850051D01*
X58978836Y-75841251D01*
X59050559Y-75811542D01*
X59121161Y-75782296D01*
X59124121Y-75781244D01*
X59124355Y-75781230D01*
X59126654Y-75780375D01*
X59283497Y-75728403D01*
X59427844Y-75639368D01*
X59547768Y-75519444D01*
X59636803Y-75375097D01*
X59690149Y-75214108D01*
X59700300Y-75114745D01*
X59700299Y-75077834D01*
X59702682Y-75053641D01*
X59725300Y-74939941D01*
X59725300Y-74742857D01*
X59702682Y-74629152D01*
X59700299Y-74604960D01*
X59700299Y-74568062D01*
X59700298Y-74568044D01*
X59690149Y-74468692D01*
X59690148Y-74468689D01*
X59673653Y-74418910D01*
X59636803Y-74307703D01*
X59636799Y-74307697D01*
X59636798Y-74307694D01*
X59547770Y-74163359D01*
X59547767Y-74163355D01*
X59427844Y-74043432D01*
X59427840Y-74043429D01*
X59283505Y-73954401D01*
X59283499Y-73954398D01*
X59283497Y-73954397D01*
X59229451Y-73936488D01*
X59122509Y-73901051D01*
X59122502Y-73901050D01*
X59069588Y-73895644D01*
X59034740Y-73886847D01*
X59016641Y-73879350D01*
X59016633Y-73879347D01*
X58823343Y-73840900D01*
X58823340Y-73840900D01*
X58626260Y-73840900D01*
X58626258Y-73840900D01*
X58502495Y-73865518D01*
X58448206Y-73876317D01*
X58424016Y-73878700D01*
X57648132Y-73878700D01*
X57583036Y-73860239D01*
X57557334Y-73844386D01*
X57390797Y-73789201D01*
X57390795Y-73789200D01*
X57288010Y-73778700D01*
X55487998Y-73778700D01*
X55487981Y-73778701D01*
X55385203Y-73789200D01*
X55385200Y-73789201D01*
X55218668Y-73844385D01*
X55218663Y-73844387D01*
X55069342Y-73936489D01*
X54945289Y-74060542D01*
X54853187Y-74209863D01*
X54853185Y-74209868D01*
X54831912Y-74274066D01*
X54798001Y-74376403D01*
X54798001Y-74376404D01*
X54798000Y-74376404D01*
X54787500Y-74479183D01*
X54787500Y-75279201D01*
X54787501Y-75279219D01*
X54798000Y-75381996D01*
X54798001Y-75381999D01*
X54844773Y-75523146D01*
X54853186Y-75548534D01*
X54945288Y-75697856D01*
X55069344Y-75821912D01*
X55218666Y-75914014D01*
X55302505Y-75941795D01*
X55359948Y-75981566D01*
X55386772Y-76046082D01*
X55387500Y-76059500D01*
X55387500Y-77010977D01*
X55367815Y-77078016D01*
X55315011Y-77123771D01*
X55245853Y-77133715D01*
X55228907Y-77130054D01*
X55199962Y-77121645D01*
X55199959Y-77121644D01*
X55170571Y-77119331D01*
X55165083Y-77118900D01*
X55165081Y-77118900D01*
X53060328Y-77118900D01*
X53060306Y-77118901D01*
X53025438Y-77121645D01*
X52876167Y-77165012D01*
X52876164Y-77165013D01*
X52742364Y-77244141D01*
X52742356Y-77244147D01*
X52632447Y-77354056D01*
X52632441Y-77354064D01*
X52553313Y-77487864D01*
X52553312Y-77487867D01*
X52509945Y-77637134D01*
X52509944Y-77637140D01*
X52507200Y-77672011D01*
X52507200Y-79096771D01*
X52507201Y-79096793D01*
X52509945Y-79131661D01*
X52553312Y-79280932D01*
X52553313Y-79280935D01*
X52632441Y-79414735D01*
X52632447Y-79414743D01*
X52742356Y-79524652D01*
X52742360Y-79524655D01*
X52742362Y-79524657D01*
X52876163Y-79603786D01*
X52905699Y-79612367D01*
X53025434Y-79647154D01*
X53025437Y-79647154D01*
X53025439Y-79647155D01*
X53060317Y-79649900D01*
X55165082Y-79649899D01*
X55199961Y-79647155D01*
X55228905Y-79638746D01*
X55298774Y-79638945D01*
X55357444Y-79676887D01*
X55386288Y-79740525D01*
X55387500Y-79757822D01*
X55387500Y-88690451D01*
X55367815Y-88757490D01*
X55315011Y-88803245D01*
X55252091Y-88812292D01*
X55251977Y-88813742D01*
X55233552Y-88812292D01*
X55210783Y-88810500D01*
X55210781Y-88810500D01*
X53106028Y-88810500D01*
X53106006Y-88810501D01*
X53071138Y-88813245D01*
X52921867Y-88856612D01*
X52921864Y-88856613D01*
X52788064Y-88935741D01*
X52788056Y-88935747D01*
X52678147Y-89045656D01*
X52678141Y-89045664D01*
X52599013Y-89179464D01*
X52599012Y-89179467D01*
X52555645Y-89328734D01*
X52555644Y-89328740D01*
X52552900Y-89363611D01*
X52552900Y-90788371D01*
X52552901Y-90788393D01*
X52555645Y-90823261D01*
X52599012Y-90972532D01*
X52599013Y-90972535D01*
X52599014Y-90972537D01*
X52625485Y-91017297D01*
X52669744Y-91092137D01*
X52678142Y-91106337D01*
X52678147Y-91106343D01*
X52788056Y-91216252D01*
X52788059Y-91216254D01*
X52788062Y-91216257D01*
X52900994Y-91283044D01*
X52948675Y-91334110D01*
X52961179Y-91402852D01*
X52934534Y-91467441D01*
X52877199Y-91507372D01*
X52862063Y-91511391D01*
X52721801Y-91539291D01*
X52721802Y-91539292D01*
X52721739Y-91539304D01*
X52721729Y-91539307D01*
X52557859Y-91607183D01*
X52557846Y-91607190D01*
X52410366Y-91705734D01*
X52410364Y-91705737D01*
X50822440Y-93293658D01*
X50822434Y-93293665D01*
X50797138Y-93331524D01*
X50797130Y-93331536D01*
X50794641Y-93335263D01*
X50723887Y-93441153D01*
X50697385Y-93505135D01*
X50694438Y-93512248D01*
X50694437Y-93512251D01*
X50656005Y-93605033D01*
X50656003Y-93605041D01*
X50621400Y-93779003D01*
X50621400Y-94673300D01*
X50601715Y-94740339D01*
X50548911Y-94786094D01*
X50497404Y-94797300D01*
X50469530Y-94797300D01*
X50469505Y-94797301D01*
X50434638Y-94800045D01*
X50285367Y-94843412D01*
X50285364Y-94843413D01*
X50151564Y-94922541D01*
X50151556Y-94922547D01*
X50041647Y-95032456D01*
X50041641Y-95032464D01*
X49962513Y-95166264D01*
X49962512Y-95166267D01*
X49919145Y-95315534D01*
X49919144Y-95315540D01*
X49916400Y-95350411D01*
X49916400Y-95350417D01*
X49916400Y-96023019D01*
X49916401Y-96585400D01*
X49896716Y-96652439D01*
X49843913Y-96698194D01*
X49792401Y-96709400D01*
X49151400Y-96709400D01*
X49084361Y-96689715D01*
X49038606Y-96636911D01*
X49027400Y-96585400D01*
X49027399Y-95350428D01*
X49027398Y-95350406D01*
X49026394Y-95337644D01*
X49024655Y-95315539D01*
X48981286Y-95166263D01*
X48902157Y-95032462D01*
X48902155Y-95032460D01*
X48902152Y-95032456D01*
X48792243Y-94922547D01*
X48792235Y-94922541D01*
X48658435Y-94843413D01*
X48658432Y-94843412D01*
X48509165Y-94800045D01*
X48509159Y-94800044D01*
X48474288Y-94797300D01*
X48028400Y-94797300D01*
X47961361Y-94777615D01*
X47915606Y-94724811D01*
X47904400Y-94673300D01*
X47904400Y-87584500D01*
X47924085Y-87517461D01*
X47976889Y-87471706D01*
X48028400Y-87460500D01*
X48683900Y-87460500D01*
X48750939Y-87480185D01*
X48796694Y-87532989D01*
X48807900Y-87584500D01*
X48807900Y-88794142D01*
X48788215Y-88861181D01*
X48747022Y-88900874D01*
X48688062Y-88935743D01*
X48688056Y-88935747D01*
X48578147Y-89045656D01*
X48578141Y-89045664D01*
X48499013Y-89179464D01*
X48499012Y-89179467D01*
X48455645Y-89328734D01*
X48455644Y-89328740D01*
X48452900Y-89363611D01*
X48452900Y-90788371D01*
X48452901Y-90788393D01*
X48455645Y-90823261D01*
X48499012Y-90972532D01*
X48499013Y-90972535D01*
X48499014Y-90972537D01*
X48525485Y-91017297D01*
X48569744Y-91092137D01*
X48578142Y-91106337D01*
X48578147Y-91106343D01*
X48688056Y-91216252D01*
X48688060Y-91216255D01*
X48688062Y-91216257D01*
X48821863Y-91295386D01*
X48836013Y-91299497D01*
X48971134Y-91338754D01*
X48971137Y-91338754D01*
X48971139Y-91338755D01*
X49006017Y-91341500D01*
X51110782Y-91341499D01*
X51145661Y-91338755D01*
X51294937Y-91295386D01*
X51428738Y-91216257D01*
X51538657Y-91106338D01*
X51617786Y-90972537D01*
X51652021Y-90854700D01*
X51661154Y-90823265D01*
X51661155Y-90823259D01*
X51663900Y-90788383D01*
X51663899Y-89363618D01*
X51661155Y-89328739D01*
X51617786Y-89179463D01*
X51538657Y-89045662D01*
X51538655Y-89045660D01*
X51538652Y-89045656D01*
X51428743Y-88935747D01*
X51428740Y-88935745D01*
X51428738Y-88935743D01*
X51369778Y-88900874D01*
X51322095Y-88849804D01*
X51308900Y-88794142D01*
X51308900Y-87435344D01*
X51328585Y-87368305D01*
X51369779Y-87328612D01*
X51423138Y-87297057D01*
X51533057Y-87187138D01*
X51612186Y-87053337D01*
X51655555Y-86904061D01*
X51658300Y-86869183D01*
X51658299Y-85444418D01*
X51655555Y-85409539D01*
X51612186Y-85260263D01*
X51533057Y-85126462D01*
X51533055Y-85126460D01*
X51533052Y-85126456D01*
X51423143Y-85016547D01*
X51423135Y-85016541D01*
X51293397Y-84939815D01*
X51289337Y-84937414D01*
X51289336Y-84937413D01*
X51289335Y-84937413D01*
X51289332Y-84937412D01*
X51140065Y-84894045D01*
X51140059Y-84894044D01*
X51110671Y-84891731D01*
X51105183Y-84891300D01*
X51105181Y-84891300D01*
X49000428Y-84891300D01*
X49000406Y-84891301D01*
X48965538Y-84894045D01*
X48816266Y-84937412D01*
X48816258Y-84937415D01*
X48808115Y-84942232D01*
X48744994Y-84959500D01*
X48028400Y-84959500D01*
X47961361Y-84939815D01*
X47915606Y-84887011D01*
X47904400Y-84835500D01*
X47904400Y-79657300D01*
X47924085Y-79590261D01*
X47976889Y-79544506D01*
X48028400Y-79533300D01*
X48594700Y-79533300D01*
X48661739Y-79552985D01*
X48707494Y-79605789D01*
X48718700Y-79657300D01*
X48718700Y-81044185D01*
X48699015Y-81111224D01*
X48657824Y-81150915D01*
X48649667Y-81155738D01*
X48649656Y-81155747D01*
X48539747Y-81265656D01*
X48539741Y-81265664D01*
X48460613Y-81399464D01*
X48460612Y-81399467D01*
X48417245Y-81548734D01*
X48417244Y-81548740D01*
X48414500Y-81583611D01*
X48414500Y-83008371D01*
X48414501Y-83008393D01*
X48417245Y-83043261D01*
X48460612Y-83192532D01*
X48460613Y-83192535D01*
X48460614Y-83192537D01*
X48474828Y-83216571D01*
X48539741Y-83326335D01*
X48539747Y-83326343D01*
X48649656Y-83436252D01*
X48649660Y-83436255D01*
X48649662Y-83436257D01*
X48783463Y-83515386D01*
X48822829Y-83526823D01*
X48932734Y-83558754D01*
X48932737Y-83558754D01*
X48932739Y-83558755D01*
X48967617Y-83561500D01*
X51072382Y-83561499D01*
X51107261Y-83558755D01*
X51256537Y-83515386D01*
X51390338Y-83436257D01*
X51500257Y-83326338D01*
X51579386Y-83192537D01*
X51622755Y-83043261D01*
X51625500Y-83008383D01*
X51625499Y-81583618D01*
X51622755Y-81548739D01*
X51579386Y-81399463D01*
X51500257Y-81265662D01*
X51500255Y-81265660D01*
X51500252Y-81265656D01*
X51390343Y-81155747D01*
X51390335Y-81155741D01*
X51280579Y-81090832D01*
X51232896Y-81039763D01*
X51219700Y-80984100D01*
X51219700Y-79691983D01*
X51239385Y-79624944D01*
X51280579Y-79585251D01*
X51368423Y-79533300D01*
X51383038Y-79524657D01*
X51492957Y-79414738D01*
X51572086Y-79280937D01*
X51610642Y-79148229D01*
X51615454Y-79131665D01*
X51615455Y-79131659D01*
X51615957Y-79125283D01*
X51618200Y-79096783D01*
X51618199Y-77672018D01*
X51615455Y-77637139D01*
X51572086Y-77487863D01*
X51492957Y-77354062D01*
X51492955Y-77354060D01*
X51492952Y-77354056D01*
X51383043Y-77244147D01*
X51383035Y-77244141D01*
X51249235Y-77165013D01*
X51249232Y-77165012D01*
X51099965Y-77121645D01*
X51099959Y-77121644D01*
X51065088Y-77118900D01*
X51065083Y-77118900D01*
X50453428Y-77118900D01*
X50415110Y-77112831D01*
X50390605Y-77104869D01*
X50262026Y-77063090D01*
X50067622Y-77032300D01*
X50067617Y-77032300D01*
X49976617Y-77032300D01*
X48028400Y-77032300D01*
X47961361Y-77012615D01*
X47915606Y-76959811D01*
X47904400Y-76908300D01*
X47904400Y-76708000D01*
X40052527Y-76708000D01*
X39985488Y-76688315D01*
X39939733Y-76635511D01*
X39928527Y-76584273D01*
X39927067Y-75922345D01*
X39907143Y-66886731D01*
X39899882Y-63593697D01*
X43397200Y-63593697D01*
X43397200Y-63853502D01*
X43437840Y-64110093D01*
X43518122Y-64357176D01*
X43636068Y-64588654D01*
X43788766Y-64798825D01*
X43788769Y-64798829D01*
X43972471Y-64982531D01*
X44182649Y-65135234D01*
X44330145Y-65210387D01*
X44414123Y-65253177D01*
X44414125Y-65253177D01*
X44414128Y-65253179D01*
X44661207Y-65333460D01*
X44793406Y-65354397D01*
X44917798Y-65374100D01*
X44917803Y-65374100D01*
X45177602Y-65374100D01*
X45290998Y-65356139D01*
X45434193Y-65333460D01*
X45681272Y-65253179D01*
X45912751Y-65135234D01*
X46122929Y-64982531D01*
X46306631Y-64798829D01*
X46459334Y-64588651D01*
X46577279Y-64357172D01*
X46657560Y-64110093D01*
X46680239Y-63966898D01*
X46698200Y-63853502D01*
X46698200Y-63593697D01*
X46665153Y-63385051D01*
X46657560Y-63337107D01*
X46577279Y-63090028D01*
X46577277Y-63090025D01*
X46577277Y-63090023D01*
X46534487Y-63006045D01*
X46459334Y-62858549D01*
X46306631Y-62648371D01*
X46122929Y-62464669D01*
X45912751Y-62311966D01*
X45840464Y-62275134D01*
X45681276Y-62194022D01*
X45434193Y-62113740D01*
X45177602Y-62073100D01*
X45177597Y-62073100D01*
X44917803Y-62073100D01*
X44917798Y-62073100D01*
X44661206Y-62113740D01*
X44414123Y-62194022D01*
X44182645Y-62311968D01*
X43972474Y-62464666D01*
X43972468Y-62464671D01*
X43788771Y-62648368D01*
X43788766Y-62648374D01*
X43636068Y-62858545D01*
X43518122Y-63090023D01*
X43437840Y-63337106D01*
X43397200Y-63593697D01*
X39899882Y-63593697D01*
X39899872Y-63589104D01*
X39896242Y-61942860D01*
X39895218Y-61478639D01*
X53847200Y-61478639D01*
X53847200Y-65968560D01*
X53862330Y-66102849D01*
X53862331Y-66102854D01*
X53921911Y-66273123D01*
X54009614Y-66412700D01*
X54017884Y-66425862D01*
X54145438Y-66553416D01*
X54298178Y-66649389D01*
X54468445Y-66708968D01*
X54468450Y-66708969D01*
X54557198Y-66718968D01*
X54602740Y-66724099D01*
X54602743Y-66724100D01*
X54602746Y-66724100D01*
X59092657Y-66724100D01*
X59092658Y-66724099D01*
X59159804Y-66716534D01*
X59226949Y-66708969D01*
X59226952Y-66708968D01*
X59226955Y-66708968D01*
X59397222Y-66649389D01*
X59549962Y-66553416D01*
X59677516Y-66425862D01*
X59773489Y-66273122D01*
X59833068Y-66102855D01*
X59848200Y-65968554D01*
X59848200Y-61478646D01*
X59848199Y-61478639D01*
X62547200Y-61478639D01*
X62547200Y-65968560D01*
X62562330Y-66102849D01*
X62562331Y-66102854D01*
X62621911Y-66273123D01*
X62709614Y-66412700D01*
X62717884Y-66425862D01*
X62845438Y-66553416D01*
X62998178Y-66649389D01*
X63168445Y-66708968D01*
X63168450Y-66708969D01*
X63257198Y-66718968D01*
X63302740Y-66724099D01*
X63302743Y-66724100D01*
X63302746Y-66724100D01*
X67792657Y-66724100D01*
X67792658Y-66724099D01*
X67859804Y-66716534D01*
X67926949Y-66708969D01*
X67926952Y-66708968D01*
X67926955Y-66708968D01*
X68097222Y-66649389D01*
X68249962Y-66553416D01*
X68377516Y-66425862D01*
X68473489Y-66273122D01*
X68533068Y-66102855D01*
X68548200Y-65968554D01*
X68548200Y-61478646D01*
X68543265Y-61434846D01*
X68533069Y-61344350D01*
X68533068Y-61344345D01*
X68473488Y-61174076D01*
X68383799Y-61031338D01*
X68377516Y-61021338D01*
X68249962Y-60893784D01*
X68237429Y-60885909D01*
X68097223Y-60797811D01*
X67926954Y-60738231D01*
X67926949Y-60738230D01*
X67792660Y-60723100D01*
X67792654Y-60723100D01*
X63302746Y-60723100D01*
X63302739Y-60723100D01*
X63168450Y-60738230D01*
X63168445Y-60738231D01*
X62998176Y-60797811D01*
X62845437Y-60893784D01*
X62717884Y-61021337D01*
X62621911Y-61174076D01*
X62562331Y-61344345D01*
X62562330Y-61344350D01*
X62547200Y-61478639D01*
X59848199Y-61478639D01*
X59843265Y-61434846D01*
X59833069Y-61344350D01*
X59833068Y-61344345D01*
X59773488Y-61174076D01*
X59683799Y-61031338D01*
X59677516Y-61021338D01*
X59549962Y-60893784D01*
X59537429Y-60885909D01*
X59397223Y-60797811D01*
X59226954Y-60738231D01*
X59226949Y-60738230D01*
X59092660Y-60723100D01*
X59092654Y-60723100D01*
X54602746Y-60723100D01*
X54602739Y-60723100D01*
X54468450Y-60738230D01*
X54468445Y-60738231D01*
X54298176Y-60797811D01*
X54145437Y-60893784D01*
X54017884Y-61021337D01*
X53921911Y-61174076D01*
X53862331Y-61344345D01*
X53862330Y-61344350D01*
X53847200Y-61478639D01*
X39895218Y-61478639D01*
X39866100Y-48273550D01*
X39866100Y-35191258D01*
X41835900Y-35191258D01*
X41835900Y-35420741D01*
X41847531Y-35509079D01*
X41865852Y-35648238D01*
X41902850Y-35786317D01*
X41925242Y-35869887D01*
X42013050Y-36081876D01*
X42013057Y-36081890D01*
X42127792Y-36280617D01*
X42267481Y-36462661D01*
X42267489Y-36462670D01*
X42429730Y-36624911D01*
X42429738Y-36624918D01*
X42429739Y-36624919D01*
X42480362Y-36663764D01*
X42611782Y-36764607D01*
X42611785Y-36764608D01*
X42611788Y-36764611D01*
X42810512Y-36879344D01*
X42810517Y-36879346D01*
X42810523Y-36879349D01*
X42901880Y-36917190D01*
X43022513Y-36967158D01*
X43244162Y-37026548D01*
X43471666Y-37056500D01*
X43471673Y-37056500D01*
X43701127Y-37056500D01*
X43701134Y-37056500D01*
X43928638Y-37026548D01*
X44150287Y-36967158D01*
X44362288Y-36879344D01*
X44561012Y-36764611D01*
X44743061Y-36624919D01*
X44743065Y-36624914D01*
X44743070Y-36624911D01*
X44905311Y-36462670D01*
X44905314Y-36462665D01*
X44905319Y-36462661D01*
X45045011Y-36280612D01*
X45159744Y-36081888D01*
X45247558Y-35869887D01*
X45306948Y-35648238D01*
X45336900Y-35420734D01*
X45336900Y-35191266D01*
X45306948Y-34963762D01*
X45247558Y-34742113D01*
X45197590Y-34621480D01*
X45159749Y-34530123D01*
X45159746Y-34530117D01*
X45159744Y-34530112D01*
X45045011Y-34331388D01*
X45045008Y-34331385D01*
X45045007Y-34331382D01*
X44905318Y-34149338D01*
X44905311Y-34149330D01*
X44743070Y-33987089D01*
X44743061Y-33987081D01*
X44561017Y-33847392D01*
X44362290Y-33732657D01*
X44362276Y-33732650D01*
X44150287Y-33644842D01*
X43928638Y-33585452D01*
X43890615Y-33580446D01*
X43701141Y-33555500D01*
X43701134Y-33555500D01*
X43471666Y-33555500D01*
X43471658Y-33555500D01*
X43255115Y-33584009D01*
X43244162Y-33585452D01*
X43162623Y-33607300D01*
X43022512Y-33644842D01*
X42810523Y-33732650D01*
X42810509Y-33732657D01*
X42611782Y-33847392D01*
X42429738Y-33987081D01*
X42267481Y-34149338D01*
X42127792Y-34331382D01*
X42013057Y-34530109D01*
X42013050Y-34530123D01*
X41925242Y-34742112D01*
X41865853Y-34963759D01*
X41865851Y-34963770D01*
X41835900Y-35191258D01*
X39866100Y-35191258D01*
X39866100Y-30794100D01*
X39885785Y-30727061D01*
X39938589Y-30681306D01*
X39990100Y-30670100D01*
X123879005Y-30670100D01*
X123946044Y-30689785D01*
G37*
G04 #@! TD.AperFunction*
G04 #@! TA.AperFunction,Conductor*
G36*
X54966223Y-93325385D02*
G01*
X55011978Y-93378189D01*
X55021922Y-93447347D01*
X55017572Y-93466578D01*
X54995102Y-93538691D01*
X54982913Y-93577807D01*
X54977782Y-93634275D01*
X54976612Y-93647158D01*
X54976500Y-93648386D01*
X54976500Y-94311613D01*
X54982913Y-94382192D01*
X54982913Y-94382194D01*
X54982914Y-94382196D01*
X55033522Y-94544606D01*
X55082017Y-94624826D01*
X55099900Y-94688975D01*
X55099900Y-95485844D01*
X55112717Y-95550276D01*
X55115100Y-95574468D01*
X55115100Y-95951963D01*
X55110909Y-95980220D01*
X55111451Y-95980328D01*
X55079500Y-96140953D01*
X55079500Y-96140958D01*
X55079500Y-96298642D01*
X55079500Y-96298644D01*
X55079499Y-96298644D01*
X55090314Y-96353008D01*
X55084087Y-96422600D01*
X55041224Y-96477777D01*
X54975335Y-96501022D01*
X54968697Y-96501200D01*
X54749898Y-96501200D01*
X54713032Y-96504101D01*
X54713026Y-96504102D01*
X54555206Y-96549954D01*
X54555203Y-96549955D01*
X54413737Y-96633617D01*
X54413729Y-96633623D01*
X54374274Y-96673080D01*
X54312951Y-96706566D01*
X54286592Y-96709400D01*
X53251400Y-96709400D01*
X53184361Y-96689715D01*
X53138606Y-96636911D01*
X53127400Y-96585400D01*
X53127399Y-95350428D01*
X53127398Y-95350406D01*
X53126394Y-95337644D01*
X53124655Y-95315539D01*
X53081286Y-95166263D01*
X53002157Y-95032462D01*
X53002155Y-95032460D01*
X53002152Y-95032456D01*
X52892243Y-94922547D01*
X52892235Y-94922541D01*
X52758435Y-94843413D01*
X52758432Y-94843412D01*
X52609165Y-94800045D01*
X52609159Y-94800044D01*
X52574288Y-94797300D01*
X52574283Y-94797300D01*
X52546400Y-94797300D01*
X52479361Y-94777615D01*
X52433606Y-94724811D01*
X52422400Y-94673300D01*
X52422400Y-94292061D01*
X52442085Y-94225022D01*
X52458719Y-94204380D01*
X53321080Y-93342019D01*
X53382403Y-93308534D01*
X53408761Y-93305700D01*
X54899184Y-93305700D01*
X54966223Y-93325385D01*
G37*
G04 #@! TD.AperFunction*
G04 #@! TA.AperFunction,Conductor*
G36*
X68080231Y-90447985D02*
G01*
X68125986Y-90500789D01*
X68135930Y-90569947D01*
X68135671Y-90571652D01*
X68125526Y-90635713D01*
X68124500Y-90642189D01*
X68124500Y-90815410D01*
X68149385Y-90972532D01*
X68151598Y-90986501D01*
X68198455Y-91130712D01*
X68205128Y-91151247D01*
X68283768Y-91305589D01*
X68285388Y-91307818D01*
X68285742Y-91308810D01*
X68286314Y-91309744D01*
X68286117Y-91309864D01*
X68308865Y-91373625D01*
X68293037Y-91441678D01*
X68242930Y-91490372D01*
X68185067Y-91504700D01*
X58626648Y-91504700D01*
X58598714Y-91496497D01*
X58570109Y-91491060D01*
X58565587Y-91486770D01*
X58559609Y-91485015D01*
X58540545Y-91463014D01*
X58519419Y-91442973D01*
X58516511Y-91435278D01*
X58513854Y-91432211D01*
X58506218Y-91410241D01*
X58505562Y-91407569D01*
X58478537Y-91271703D01*
X58463085Y-91234398D01*
X58460835Y-91225226D01*
X58462000Y-91199385D01*
X58459235Y-91173671D01*
X58463547Y-91165054D01*
X58463982Y-91155427D01*
X58478931Y-91134320D01*
X58490508Y-91111191D01*
X58493554Y-91108034D01*
X59136971Y-90464619D01*
X59198294Y-90431134D01*
X59224652Y-90428300D01*
X68013192Y-90428300D01*
X68080231Y-90447985D01*
G37*
G04 #@! TD.AperFunction*
G04 #@! TA.AperFunction,Conductor*
G36*
X73453186Y-90447985D02*
G01*
X73498941Y-90500789D01*
X73508885Y-90569947D01*
X73479860Y-90633503D01*
X73473828Y-90639981D01*
X73312062Y-90801747D01*
X73299210Y-90814597D01*
X73280429Y-90830010D01*
X73243479Y-90854700D01*
X73200513Y-90883410D01*
X73200507Y-90883414D01*
X73200504Y-90883417D01*
X73089013Y-90994907D01*
X73089010Y-90994911D01*
X73001409Y-91126014D01*
X73001402Y-91126027D01*
X72941064Y-91271698D01*
X72941061Y-91271708D01*
X72914569Y-91404892D01*
X72882184Y-91466803D01*
X72821468Y-91501377D01*
X72792952Y-91504700D01*
X70264933Y-91504700D01*
X70197894Y-91485015D01*
X70152139Y-91432211D01*
X70142195Y-91363053D01*
X70163801Y-91309814D01*
X70163686Y-91309744D01*
X70164113Y-91309046D01*
X70164612Y-91307818D01*
X70166231Y-91305589D01*
X70166232Y-91305588D01*
X70244873Y-91151245D01*
X70298402Y-90986501D01*
X70325500Y-90815411D01*
X70325500Y-90642189D01*
X70314335Y-90571696D01*
X70323289Y-90502405D01*
X70368286Y-90448953D01*
X70435037Y-90428313D01*
X70436808Y-90428300D01*
X73386147Y-90428300D01*
X73453186Y-90447985D01*
G37*
G04 #@! TD.AperFunction*
G04 #@! TA.AperFunction,Conductor*
G36*
X78859533Y-90529569D02*
G01*
X78903880Y-90558070D01*
X79638829Y-91293019D01*
X79672314Y-91354342D01*
X79667330Y-91424034D01*
X79625458Y-91479967D01*
X79559994Y-91504384D01*
X79551148Y-91504700D01*
X74677652Y-91504700D01*
X74656404Y-91498460D01*
X74634317Y-91496881D01*
X74623534Y-91488809D01*
X74610613Y-91485015D01*
X74596114Y-91468282D01*
X74578384Y-91455010D01*
X74573676Y-91442388D01*
X74564858Y-91432211D01*
X74561706Y-91410294D01*
X74553968Y-91389545D01*
X74556830Y-91376384D01*
X74554914Y-91363053D01*
X74564112Y-91342910D01*
X74568820Y-91321272D01*
X74582089Y-91303547D01*
X74583939Y-91299497D01*
X74589972Y-91293018D01*
X74599950Y-91283041D01*
X74644773Y-91238218D01*
X74706096Y-91204734D01*
X74732453Y-91201900D01*
X77887207Y-91201900D01*
X77949079Y-91189593D01*
X78008052Y-91177863D01*
X78041392Y-91164052D01*
X78121886Y-91130712D01*
X78179616Y-91092137D01*
X78179617Y-91092137D01*
X78209223Y-91072354D01*
X78224333Y-91062258D01*
X78311458Y-90975133D01*
X78311458Y-90975131D01*
X78321666Y-90964924D01*
X78321667Y-90964921D01*
X78728522Y-90558067D01*
X78789841Y-90524585D01*
X78859533Y-90529569D01*
G37*
G04 #@! TD.AperFunction*
G04 #@! TA.AperFunction,Conductor*
G36*
X70459562Y-80890785D02*
G01*
X70505317Y-80943589D01*
X70515261Y-81012747D01*
X70503611Y-81050195D01*
X70454061Y-81150103D01*
X70454059Y-81150107D01*
X70445137Y-81185983D01*
X70408100Y-81334907D01*
X70405200Y-81377679D01*
X70405200Y-82779922D01*
X70405201Y-82779925D01*
X70408099Y-82822686D01*
X70408099Y-82822687D01*
X70454060Y-83007496D01*
X70538667Y-83178092D01*
X70538669Y-83178095D01*
X70657977Y-83326521D01*
X70657978Y-83326522D01*
X70806404Y-83445830D01*
X70806407Y-83445832D01*
X70977002Y-83530439D01*
X70977003Y-83530439D01*
X70977007Y-83530441D01*
X71161811Y-83576400D01*
X71204577Y-83579300D01*
X72106822Y-83579299D01*
X72149589Y-83576400D01*
X72334393Y-83530441D01*
X72504996Y-83445830D01*
X72653422Y-83326522D01*
X72709054Y-83257313D01*
X72727346Y-83244578D01*
X72742557Y-83228282D01*
X72755465Y-83225004D01*
X72766396Y-83217395D01*
X72788673Y-83216571D01*
X72810278Y-83211086D01*
X72822908Y-83215306D01*
X72836218Y-83214815D01*
X72855401Y-83226165D01*
X72876545Y-83233231D01*
X72892479Y-83248103D01*
X72896351Y-83250394D01*
X72902337Y-83257302D01*
X72927847Y-83289037D01*
X72954506Y-83353620D01*
X72955200Y-83366724D01*
X72955200Y-86754300D01*
X72935515Y-86821339D01*
X72882711Y-86867094D01*
X72831200Y-86878300D01*
X72497671Y-86878300D01*
X72497665Y-86878300D01*
X72497664Y-86878301D01*
X72486016Y-86879336D01*
X72378284Y-86888913D01*
X72182654Y-86944889D01*
X72092472Y-86991996D01*
X72002293Y-87039102D01*
X72002291Y-87039103D01*
X72002290Y-87039104D01*
X71844590Y-87167690D01*
X71716004Y-87325390D01*
X71621789Y-87505754D01*
X71565814Y-87701383D01*
X71565813Y-87701386D01*
X71555200Y-87820766D01*
X71555200Y-88936828D01*
X71555200Y-88936833D01*
X71555201Y-88936836D01*
X71564578Y-89042321D01*
X71550908Y-89110839D01*
X71502363Y-89161090D01*
X71441066Y-89177300D01*
X70397037Y-89177300D01*
X70329998Y-89157615D01*
X70284243Y-89104811D01*
X70274299Y-89035653D01*
X70274564Y-89033902D01*
X70290100Y-88935810D01*
X70290100Y-88762589D01*
X70280343Y-88700985D01*
X70263002Y-88591499D01*
X70209473Y-88426755D01*
X70130832Y-88272412D01*
X70130829Y-88272408D01*
X70130829Y-88272407D01*
X70113782Y-88248945D01*
X70090302Y-88183139D01*
X70090100Y-88176059D01*
X70090100Y-80995100D01*
X70109785Y-80928061D01*
X70162589Y-80882306D01*
X70214100Y-80871100D01*
X70392523Y-80871100D01*
X70459562Y-80890785D01*
G37*
G04 #@! TD.AperFunction*
G04 #@! TA.AperFunction,Conductor*
G36*
X78143386Y-75750185D02*
G01*
X78189141Y-75802989D01*
X78199085Y-75872147D01*
X78170060Y-75935703D01*
X78164028Y-75942181D01*
X77479960Y-76626248D01*
X77479950Y-76626258D01*
X77477669Y-76628540D01*
X77477667Y-76628542D01*
X77390542Y-76715667D01*
X77369969Y-76746457D01*
X77365000Y-76753893D01*
X77364994Y-76753900D01*
X77322090Y-76818109D01*
X77322088Y-76818113D01*
X77322088Y-76818114D01*
X77298356Y-76875409D01*
X77274938Y-76931944D01*
X77274935Y-76931954D01*
X77266809Y-76972803D01*
X77266810Y-76972804D01*
X77257238Y-77020933D01*
X77257237Y-77020939D01*
X77250900Y-77052794D01*
X77250900Y-89053300D01*
X77231215Y-89120339D01*
X77178411Y-89166094D01*
X77126900Y-89177300D01*
X76470335Y-89177300D01*
X76403296Y-89157615D01*
X76357541Y-89104811D01*
X76346822Y-89042319D01*
X76348964Y-89018221D01*
X76356200Y-88936837D01*
X76356199Y-87820764D01*
X76345586Y-87701382D01*
X76289609Y-87505751D01*
X76195398Y-87325393D01*
X76143384Y-87261603D01*
X76066809Y-87167690D01*
X75926562Y-87053335D01*
X75909107Y-87039102D01*
X75728749Y-86944891D01*
X75728748Y-86944890D01*
X75728745Y-86944889D01*
X75586047Y-86904059D01*
X75533118Y-86888914D01*
X75533115Y-86888913D01*
X75533113Y-86888913D01*
X75460331Y-86882442D01*
X75413737Y-86878300D01*
X75413733Y-86878300D01*
X75080200Y-86878300D01*
X75013161Y-86858615D01*
X74967406Y-86805811D01*
X74956200Y-86754300D01*
X74956200Y-83366724D01*
X74975885Y-83299685D01*
X74983553Y-83289037D01*
X75005929Y-83261200D01*
X75072730Y-83178096D01*
X75157341Y-83007493D01*
X75203300Y-82822689D01*
X75206200Y-82779923D01*
X75206199Y-81377678D01*
X75203300Y-81334911D01*
X75157341Y-81150107D01*
X75154746Y-81144875D01*
X75072732Y-80979507D01*
X75072730Y-80979504D01*
X74953422Y-80831078D01*
X74953421Y-80831077D01*
X74807697Y-80713941D01*
X74767778Y-80656598D01*
X74765198Y-80586776D01*
X74779844Y-80552199D01*
X74801003Y-80517897D01*
X74854349Y-80356908D01*
X74864500Y-80257545D01*
X74864499Y-79660856D01*
X74864258Y-79658500D01*
X74854349Y-79561492D01*
X74854348Y-79561489D01*
X74842144Y-79524659D01*
X74801003Y-79400503D01*
X74732960Y-79290189D01*
X74728264Y-79273630D01*
X74719523Y-79260028D01*
X74714500Y-79225093D01*
X74714500Y-79148229D01*
X74732962Y-79083131D01*
X74764193Y-79032499D01*
X74788003Y-78993897D01*
X74841349Y-78832908D01*
X74851500Y-78733545D01*
X74851499Y-78136856D01*
X74850776Y-78129782D01*
X74841349Y-78037492D01*
X74841348Y-78037489D01*
X74829908Y-78002965D01*
X74788003Y-77876503D01*
X74719960Y-77766189D01*
X74701500Y-77701093D01*
X74701500Y-75854500D01*
X74721185Y-75787461D01*
X74773989Y-75741706D01*
X74825500Y-75730500D01*
X78076347Y-75730500D01*
X78143386Y-75750185D01*
G37*
G04 #@! TD.AperFunction*
G04 #@! TA.AperFunction,Conductor*
G36*
X75429797Y-70428996D02*
G01*
X75483218Y-70440617D01*
X75511473Y-70461769D01*
X75625013Y-70575309D01*
X75796979Y-70700248D01*
X75796981Y-70700249D01*
X75796984Y-70700251D01*
X75986388Y-70796757D01*
X76188557Y-70862446D01*
X76398513Y-70895700D01*
X76398514Y-70895700D01*
X76611086Y-70895700D01*
X76611087Y-70895700D01*
X76821043Y-70862446D01*
X76836640Y-70857377D01*
X76906479Y-70855383D01*
X76962638Y-70887628D01*
X77601154Y-71526144D01*
X77604144Y-71531620D01*
X77609303Y-71535132D01*
X77620690Y-71561922D01*
X77634639Y-71587467D01*
X77634193Y-71593690D01*
X77636635Y-71599433D01*
X77631731Y-71628122D01*
X77629655Y-71657159D01*
X77625914Y-71662154D01*
X77624864Y-71668304D01*
X77605228Y-71689788D01*
X77587783Y-71713092D01*
X77580872Y-71716437D01*
X77577727Y-71719879D01*
X77557668Y-71727670D01*
X77545246Y-71733685D01*
X77539912Y-71735099D01*
X77539394Y-71735099D01*
X77438597Y-71755148D01*
X77418548Y-71759137D01*
X77371672Y-71778554D01*
X77364012Y-71781726D01*
X77364007Y-71781728D01*
X77304714Y-71806288D01*
X77304712Y-71806289D01*
X77202267Y-71874741D01*
X77202263Y-71874744D01*
X76962628Y-72114381D01*
X76901305Y-72147866D01*
X76874947Y-72150700D01*
X76499474Y-72150700D01*
X76463879Y-72153501D01*
X76463873Y-72153502D01*
X76311513Y-72197767D01*
X76311510Y-72197769D01*
X76174937Y-72278537D01*
X76174929Y-72278543D01*
X76062743Y-72390729D01*
X76062737Y-72390737D01*
X75981969Y-72527310D01*
X75981967Y-72527313D01*
X75937702Y-72679673D01*
X75937701Y-72679679D01*
X75934900Y-72715274D01*
X75934900Y-73487125D01*
X75937701Y-73522720D01*
X75937702Y-73522726D01*
X75981967Y-73675086D01*
X75981969Y-73675089D01*
X76062737Y-73811662D01*
X76062743Y-73811670D01*
X76168892Y-73917819D01*
X76202377Y-73979142D01*
X76197393Y-74048834D01*
X76155521Y-74104767D01*
X76090057Y-74129184D01*
X76081211Y-74129500D01*
X74825500Y-74129500D01*
X74758461Y-74109815D01*
X74712706Y-74057011D01*
X74701500Y-74005500D01*
X74701500Y-71019699D01*
X74721185Y-70952660D01*
X74773989Y-70906905D01*
X74825500Y-70895699D01*
X74862671Y-70895699D01*
X74862672Y-70895699D01*
X74922283Y-70889291D01*
X75057131Y-70838996D01*
X75172346Y-70752746D01*
X75258596Y-70637531D01*
X75307611Y-70506114D01*
X75349482Y-70450183D01*
X75405924Y-70429131D01*
X75414945Y-70425766D01*
X75414946Y-70425766D01*
X75429797Y-70428996D01*
G37*
G04 #@! TD.AperFunction*
G04 #@! TA.AperFunction,Conductor*
G36*
X79612139Y-73005785D02*
G01*
X79657894Y-73058589D01*
X79669100Y-73110100D01*
X79669100Y-73659525D01*
X79671901Y-73695120D01*
X79671902Y-73695126D01*
X79704465Y-73807204D01*
X79704266Y-73877073D01*
X79666324Y-73935743D01*
X79602686Y-73964587D01*
X79546385Y-73959505D01*
X79391709Y-73908251D01*
X79292346Y-73898100D01*
X78695662Y-73898100D01*
X78695644Y-73898101D01*
X78596292Y-73908250D01*
X78596289Y-73908251D01*
X78435305Y-73961596D01*
X78435294Y-73961601D01*
X78290959Y-74050629D01*
X78290955Y-74050632D01*
X78248407Y-74093181D01*
X78187084Y-74126666D01*
X78160726Y-74129500D01*
X77639589Y-74129500D01*
X77572550Y-74109815D01*
X77526795Y-74057011D01*
X77516851Y-73987853D01*
X77545876Y-73924297D01*
X77551908Y-73917819D01*
X77658056Y-73811670D01*
X77658061Y-73811665D01*
X77738830Y-73675091D01*
X77738831Y-73675087D01*
X77738832Y-73675086D01*
X77783097Y-73522726D01*
X77783098Y-73522720D01*
X77785899Y-73487125D01*
X77785900Y-73487118D01*
X77785900Y-73111653D01*
X77794549Y-73082195D01*
X77801087Y-73052191D01*
X77804825Y-73047200D01*
X77805585Y-73044614D01*
X77822247Y-73023944D01*
X77823801Y-73022391D01*
X77885135Y-72988925D01*
X77911454Y-72986100D01*
X79545100Y-72986100D01*
X79612139Y-73005785D01*
G37*
G04 #@! TD.AperFunction*
G04 #@! TA.AperFunction,Conductor*
G36*
X90048772Y-56943773D02*
G01*
X90096383Y-56994909D01*
X90109500Y-57050416D01*
X90109500Y-61849147D01*
X90089815Y-61916186D01*
X90037011Y-61961941D01*
X89967853Y-61971885D01*
X89904297Y-61942860D01*
X89897819Y-61936829D01*
X89874747Y-61913757D01*
X89792259Y-61831269D01*
X89792258Y-61831267D01*
X89705133Y-61744142D01*
X89705129Y-61744139D01*
X89705128Y-61744138D01*
X89637331Y-61698837D01*
X89637326Y-61698834D01*
X89630369Y-61694186D01*
X89602686Y-61675688D01*
X89522192Y-61642347D01*
X89518666Y-61640886D01*
X89518659Y-61640883D01*
X89488853Y-61628537D01*
X89478827Y-61626543D01*
X89428429Y-61616518D01*
X89368010Y-61604500D01*
X89368007Y-61604500D01*
X89368006Y-61604500D01*
X88648981Y-61604500D01*
X88581942Y-61584815D01*
X88538497Y-61536797D01*
X88531049Y-61522180D01*
X88406109Y-61350213D01*
X88255786Y-61199890D01*
X88083820Y-61074951D01*
X87894414Y-60978444D01*
X87894413Y-60978443D01*
X87894412Y-60978443D01*
X87692243Y-60912754D01*
X87692241Y-60912753D01*
X87692240Y-60912753D01*
X87530957Y-60887208D01*
X87482287Y-60879500D01*
X87269713Y-60879500D01*
X87221042Y-60887208D01*
X87059760Y-60912753D01*
X86857585Y-60978444D01*
X86668179Y-61074951D01*
X86496213Y-61199890D01*
X86345890Y-61350213D01*
X86220951Y-61522179D01*
X86124444Y-61711585D01*
X86058753Y-61913760D01*
X86027080Y-62113740D01*
X86025500Y-62123713D01*
X86025500Y-62336287D01*
X86058754Y-62546243D01*
X86119184Y-62732228D01*
X86124444Y-62748414D01*
X86220951Y-62937820D01*
X86345890Y-63109786D01*
X86496213Y-63260109D01*
X86668179Y-63385048D01*
X86668181Y-63385049D01*
X86668184Y-63385051D01*
X86857588Y-63481557D01*
X87059757Y-63547246D01*
X87269713Y-63580500D01*
X87269714Y-63580500D01*
X87482286Y-63580500D01*
X87482287Y-63580500D01*
X87692243Y-63547246D01*
X87894412Y-63481557D01*
X88083816Y-63385051D01*
X88170138Y-63322335D01*
X88255786Y-63260109D01*
X88255788Y-63260106D01*
X88255792Y-63260104D01*
X88406104Y-63109792D01*
X88406106Y-63109788D01*
X88406109Y-63109786D01*
X88531049Y-62937819D01*
X88538497Y-62923203D01*
X88586473Y-62872408D01*
X88648981Y-62855500D01*
X88995948Y-62855500D01*
X89062987Y-62875185D01*
X89083629Y-62891819D01*
X89355781Y-63163971D01*
X89389266Y-63225294D01*
X89392100Y-63251652D01*
X89392100Y-71531100D01*
X89372415Y-71598139D01*
X89319611Y-71643894D01*
X89268100Y-71655100D01*
X88249700Y-71655100D01*
X88182661Y-71635415D01*
X88136906Y-71582611D01*
X88125700Y-71531100D01*
X88125700Y-71498355D01*
X88125699Y-71498353D01*
X88110054Y-71419700D01*
X88094937Y-71343703D01*
X88061058Y-71261912D01*
X88034597Y-71198028D01*
X88034596Y-71198027D01*
X88034594Y-71198021D01*
X87971597Y-71103739D01*
X87950720Y-71037063D01*
X87950700Y-71034850D01*
X87950700Y-67197596D01*
X87950700Y-67197594D01*
X87926663Y-67076748D01*
X87926661Y-67076743D01*
X87909644Y-67035659D01*
X87909639Y-67035651D01*
X87907132Y-67029597D01*
X87879512Y-66962915D01*
X87831734Y-66891411D01*
X87811058Y-66860467D01*
X87811057Y-66860465D01*
X87720837Y-66770245D01*
X87720806Y-66770216D01*
X83682818Y-62732228D01*
X83649333Y-62670905D01*
X83646499Y-62644547D01*
X83646499Y-61332129D01*
X83646498Y-61332123D01*
X83646497Y-61332116D01*
X83640091Y-61272517D01*
X83607105Y-61184078D01*
X83589797Y-61137671D01*
X83589793Y-61137664D01*
X83503547Y-61022455D01*
X83503544Y-61022452D01*
X83388335Y-60936206D01*
X83388328Y-60936202D01*
X83253482Y-60885908D01*
X83253483Y-60885908D01*
X83193883Y-60879501D01*
X83193881Y-60879500D01*
X83193873Y-60879500D01*
X83193864Y-60879500D01*
X81398129Y-60879500D01*
X81398123Y-60879501D01*
X81338516Y-60885908D01*
X81203671Y-60936202D01*
X81203664Y-60936206D01*
X81088455Y-61022452D01*
X81088452Y-61022455D01*
X81002206Y-61137664D01*
X81002202Y-61137671D01*
X80951908Y-61272517D01*
X80945501Y-61332116D01*
X80945501Y-61332123D01*
X80945500Y-61332135D01*
X80945500Y-63127870D01*
X80945501Y-63127876D01*
X80951908Y-63187483D01*
X81002202Y-63322328D01*
X81002206Y-63322335D01*
X81088452Y-63437544D01*
X81088455Y-63437547D01*
X81203664Y-63523793D01*
X81203671Y-63523797D01*
X81338517Y-63574091D01*
X81338516Y-63574091D01*
X81345444Y-63574835D01*
X81398127Y-63580500D01*
X82710547Y-63580499D01*
X82777586Y-63600184D01*
X82798228Y-63616818D01*
X86663381Y-67481971D01*
X86696866Y-67543294D01*
X86699700Y-67569652D01*
X86699700Y-70885347D01*
X86680015Y-70952386D01*
X86627211Y-70998141D01*
X86558053Y-71008085D01*
X86494497Y-70979060D01*
X86488019Y-70973028D01*
X85941422Y-70426432D01*
X85931459Y-70416469D01*
X85931458Y-70416467D01*
X85844333Y-70329342D01*
X85793109Y-70295115D01*
X85741886Y-70260888D01*
X85741883Y-70260886D01*
X85741880Y-70260885D01*
X85668203Y-70230368D01*
X85668201Y-70230367D01*
X85661392Y-70227547D01*
X85628052Y-70213737D01*
X85567629Y-70201718D01*
X85562906Y-70200778D01*
X85562904Y-70200778D01*
X85507210Y-70189700D01*
X85507207Y-70189700D01*
X85507206Y-70189700D01*
X80426060Y-70189700D01*
X80359021Y-70170015D01*
X80313266Y-70117211D01*
X80303322Y-70048053D01*
X80308129Y-70027382D01*
X80343282Y-69919191D01*
X80362046Y-69861443D01*
X80395300Y-69651487D01*
X80395300Y-69438913D01*
X80362046Y-69228957D01*
X80296357Y-69026788D01*
X80199851Y-68837384D01*
X80199849Y-68837381D01*
X80199848Y-68837379D01*
X80074909Y-68665413D01*
X79924586Y-68515090D01*
X79752620Y-68390151D01*
X79563214Y-68293644D01*
X79563213Y-68293643D01*
X79563212Y-68293643D01*
X79361043Y-68227954D01*
X79361041Y-68227953D01*
X79361040Y-68227953D01*
X79199757Y-68202408D01*
X79151087Y-68194700D01*
X78938513Y-68194700D01*
X78889842Y-68202408D01*
X78728560Y-68227953D01*
X78526385Y-68293644D01*
X78336979Y-68390151D01*
X78165013Y-68515090D01*
X78014690Y-68665413D01*
X77889749Y-68837382D01*
X77885284Y-68846146D01*
X77837309Y-68896942D01*
X77769488Y-68913736D01*
X77703353Y-68891198D01*
X77664316Y-68846146D01*
X77659850Y-68837382D01*
X77534909Y-68665413D01*
X77384586Y-68515090D01*
X77212620Y-68390151D01*
X77023214Y-68293644D01*
X77023213Y-68293643D01*
X77023212Y-68293643D01*
X76821043Y-68227954D01*
X76821041Y-68227953D01*
X76821040Y-68227953D01*
X76659757Y-68202408D01*
X76611087Y-68194700D01*
X76398513Y-68194700D01*
X76349842Y-68202408D01*
X76188560Y-68227953D01*
X75986385Y-68293644D01*
X75796979Y-68390151D01*
X75625015Y-68515089D01*
X75511473Y-68628631D01*
X75450150Y-68662115D01*
X75380458Y-68657131D01*
X75324525Y-68615259D01*
X75307610Y-68584282D01*
X75258597Y-68452871D01*
X75258593Y-68452864D01*
X75172347Y-68337655D01*
X75172344Y-68337652D01*
X75057135Y-68251406D01*
X75057128Y-68251402D01*
X74922283Y-68201108D01*
X74876043Y-68196137D01*
X74811493Y-68169399D01*
X74771645Y-68112006D01*
X74765300Y-68072848D01*
X74765300Y-59598500D01*
X74784985Y-59531461D01*
X74837789Y-59485706D01*
X74889300Y-59474500D01*
X87200844Y-59474500D01*
X87200845Y-59474499D01*
X87355497Y-59443737D01*
X87501179Y-59383394D01*
X87632289Y-59295789D01*
X89775789Y-57152289D01*
X89863394Y-57021179D01*
X89870938Y-57002963D01*
X89914778Y-56948561D01*
X89981072Y-56926495D01*
X90048772Y-56943773D01*
G37*
G04 #@! TD.AperFunction*
G04 #@! TA.AperFunction,Conductor*
G36*
X61082312Y-35224286D02*
G01*
X61133787Y-35271530D01*
X61145529Y-35297242D01*
X61158716Y-35337825D01*
X61248076Y-35513205D01*
X61363772Y-35672446D01*
X61502954Y-35811628D01*
X61652236Y-35920088D01*
X61665986Y-35930078D01*
X61708651Y-35985408D01*
X61717100Y-36030396D01*
X61717100Y-38964530D01*
X61717099Y-38964548D01*
X61717099Y-39130254D01*
X61717098Y-39130254D01*
X61726033Y-39163600D01*
X61758023Y-39282985D01*
X61758024Y-39282986D01*
X61769909Y-39303574D01*
X61769912Y-39303577D01*
X61837077Y-39419912D01*
X61837081Y-39419917D01*
X61955949Y-39538785D01*
X61955955Y-39538790D01*
X62820939Y-40403774D01*
X62820949Y-40403785D01*
X62825279Y-40408115D01*
X62825280Y-40408116D01*
X62937084Y-40519920D01*
X63020902Y-40568312D01*
X63074015Y-40598977D01*
X63226743Y-40639901D01*
X63226746Y-40639901D01*
X63392453Y-40639901D01*
X63392469Y-40639900D01*
X72924045Y-40639900D01*
X72991084Y-40659585D01*
X73036839Y-40712389D01*
X73046783Y-40781547D01*
X73038606Y-40811353D01*
X72999945Y-40904687D01*
X72999945Y-40904688D01*
X72985100Y-41017438D01*
X72985100Y-41550561D01*
X72999945Y-41663311D01*
X73002049Y-41671163D01*
X73000699Y-41671524D01*
X73007236Y-41732368D01*
X72975956Y-41794845D01*
X72915864Y-41830492D01*
X72909400Y-41831958D01*
X72766108Y-41860461D01*
X72766098Y-41860464D01*
X72620427Y-41920802D01*
X72620414Y-41920809D01*
X72489311Y-42008410D01*
X72489307Y-42008413D01*
X72377813Y-42119907D01*
X72377810Y-42119911D01*
X72290209Y-42251014D01*
X72290202Y-42251027D01*
X72229864Y-42396698D01*
X72229861Y-42396710D01*
X72199100Y-42551353D01*
X72199100Y-42709046D01*
X72229861Y-42863689D01*
X72229864Y-42863701D01*
X72290202Y-43009372D01*
X72290209Y-43009385D01*
X72380482Y-43144487D01*
X72401360Y-43211164D01*
X72382876Y-43278545D01*
X72365062Y-43301058D01*
X72327014Y-43339106D01*
X72327010Y-43339111D01*
X72239409Y-43470214D01*
X72239402Y-43470227D01*
X72179064Y-43615898D01*
X72179061Y-43615910D01*
X72148300Y-43770553D01*
X72148300Y-43928246D01*
X72179061Y-44082889D01*
X72179064Y-44082901D01*
X72239402Y-44228572D01*
X72239409Y-44228585D01*
X72270830Y-44275609D01*
X72291708Y-44342286D01*
X72273224Y-44409667D01*
X72221245Y-44456357D01*
X72167728Y-44468500D01*
X56215853Y-44468500D01*
X56148814Y-44448815D01*
X56128172Y-44432181D01*
X55319419Y-43623428D01*
X55285934Y-43562105D01*
X55283100Y-43535747D01*
X55283100Y-36012232D01*
X55302785Y-35945193D01*
X55334211Y-35911916D01*
X55472246Y-35811628D01*
X55611428Y-35672446D01*
X55727124Y-35513205D01*
X55734557Y-35498616D01*
X55817115Y-35336587D01*
X55865089Y-35285790D01*
X55932910Y-35268995D01*
X55999045Y-35291532D01*
X56038085Y-35336587D01*
X56128074Y-35513203D01*
X56162834Y-35561046D01*
X56243772Y-35672446D01*
X56382954Y-35811628D01*
X56542195Y-35927324D01*
X56612914Y-35963357D01*
X56717570Y-36016682D01*
X56717572Y-36016682D01*
X56717575Y-36016684D01*
X56817917Y-36049287D01*
X56904773Y-36077509D01*
X57099178Y-36108300D01*
X57099183Y-36108300D01*
X57296022Y-36108300D01*
X57490426Y-36077509D01*
X57496095Y-36075667D01*
X57677625Y-36016684D01*
X57853005Y-35927324D01*
X58012246Y-35811628D01*
X58151428Y-35672446D01*
X58267124Y-35513205D01*
X58274557Y-35498616D01*
X58357115Y-35336587D01*
X58405089Y-35285790D01*
X58472910Y-35268995D01*
X58539045Y-35291532D01*
X58578085Y-35336587D01*
X58668074Y-35513203D01*
X58702834Y-35561046D01*
X58783772Y-35672446D01*
X58922954Y-35811628D01*
X59082195Y-35927324D01*
X59152914Y-35963357D01*
X59257570Y-36016682D01*
X59257572Y-36016682D01*
X59257575Y-36016684D01*
X59357917Y-36049287D01*
X59444773Y-36077509D01*
X59639178Y-36108300D01*
X59639183Y-36108300D01*
X59836022Y-36108300D01*
X60030426Y-36077509D01*
X60036095Y-36075667D01*
X60217625Y-36016684D01*
X60393005Y-35927324D01*
X60552246Y-35811628D01*
X60691428Y-35672446D01*
X60807124Y-35513205D01*
X60896484Y-35337825D01*
X60909669Y-35297244D01*
X60949107Y-35239569D01*
X61013465Y-35212371D01*
X61082312Y-35224286D01*
G37*
G04 #@! TD.AperFunction*
M02*
