G04 #@! TF.GenerationSoftware,KiCad,Pcbnew,9.0.0*
G04 #@! TF.CreationDate,2025-04-24T15:57:18+07:00*
G04 #@! TF.ProjectId,Bo_Tom_V3,426f5f54-6f6d-45f5-9633-2e6b69636164,rev?*
G04 #@! TF.SameCoordinates,Original*
G04 #@! TF.FileFunction,Soldermask,Top*
G04 #@! TF.FilePolarity,Negative*
%FSLAX46Y46*%
G04 Gerber Fmt 4.6, Leading zero omitted, Abs format (unit mm)*
G04 Created by KiCad (PCBNEW 9.0.0) date 2025-04-24 15:57:18*
%MOMM*%
%LPD*%
G01*
G04 APERTURE LIST*
G04 Aperture macros list*
%AMRoundRect*
0 Rectangle with rounded corners*
0 $1 Rounding radius*
0 $2 $3 $4 $5 $6 $7 $8 $9 X,Y pos of 4 corners*
0 Add a 4 corners polygon primitive as box body*
4,1,4,$2,$3,$4,$5,$6,$7,$8,$9,$2,$3,0*
0 Add four circle primitives for the rounded corners*
1,1,$1+$1,$2,$3*
1,1,$1+$1,$4,$5*
1,1,$1+$1,$6,$7*
1,1,$1+$1,$8,$9*
0 Add four rect primitives between the rounded corners*
20,1,$1+$1,$2,$3,$4,$5,0*
20,1,$1+$1,$4,$5,$6,$7,0*
20,1,$1+$1,$6,$7,$8,$9,0*
20,1,$1+$1,$8,$9,$2,$3,0*%
G04 Aperture macros list end*
%ADD10RoundRect,0.200000X-0.275000X0.200000X-0.275000X-0.200000X0.275000X-0.200000X0.275000X0.200000X0*%
%ADD11RoundRect,0.150000X0.350000X0.525000X-0.350000X0.525000X-0.350000X-0.525000X0.350000X-0.525000X0*%
%ADD12C,2.400000*%
%ADD13RoundRect,0.225000X0.250000X-0.225000X0.250000X0.225000X-0.250000X0.225000X-0.250000X-0.225000X0*%
%ADD14C,3.000000*%
%ADD15RoundRect,0.127500X0.322500X-0.297500X0.322500X0.297500X-0.322500X0.297500X-0.322500X-0.297500X0*%
%ADD16R,1.700000X1.700000*%
%ADD17O,1.700000X1.700000*%
%ADD18RoundRect,0.130050X1.076950X0.736950X-1.076950X0.736950X-1.076950X-0.736950X1.076950X-0.736950X0*%
%ADD19RoundRect,0.250000X0.850000X0.350000X-0.850000X0.350000X-0.850000X-0.350000X0.850000X-0.350000X0*%
%ADD20RoundRect,0.249997X2.950003X2.650003X-2.950003X2.650003X-2.950003X-2.650003X2.950003X-2.650003X0*%
%ADD21RoundRect,0.250001X-0.949999X-0.949999X0.949999X-0.949999X0.949999X0.949999X-0.949999X0.949999X0*%
%ADD22RoundRect,0.166667X-0.708333X0.083333X-0.708333X-0.083333X0.708333X-0.083333X0.708333X0.083333X0*%
%ADD23C,1.700000*%
%ADD24RoundRect,0.200000X-0.200000X-0.275000X0.200000X-0.275000X0.200000X0.275000X-0.200000X0.275000X0*%
%ADD25C,1.600000*%
%ADD26RoundRect,0.250001X-0.949999X0.949999X-0.949999X-0.949999X0.949999X-0.949999X0.949999X0.949999X0*%
%ADD27R,1.600000X1.600000*%
%ADD28O,1.600000X1.600000*%
%ADD29RoundRect,0.102000X-0.780000X-0.205000X0.780000X-0.205000X0.780000X0.205000X-0.780000X0.205000X0*%
%ADD30C,2.500000*%
%ADD31RoundRect,0.150000X-0.150000X0.587500X-0.150000X-0.587500X0.150000X-0.587500X0.150000X0.587500X0*%
%ADD32RoundRect,0.225000X-0.225000X-0.250000X0.225000X-0.250000X0.225000X0.250000X-0.225000X0.250000X0*%
%ADD33RoundRect,0.101750X-0.850250X-0.305250X0.850250X-0.305250X0.850250X0.305250X-0.850250X0.305250X0*%
%ADD34RoundRect,0.200000X0.275000X-0.200000X0.275000X0.200000X-0.275000X0.200000X-0.275000X-0.200000X0*%
%ADD35R,1.905000X2.000000*%
%ADD36O,1.905000X2.000000*%
%ADD37RoundRect,0.127500X0.297500X0.322500X-0.297500X0.322500X-0.297500X-0.322500X0.297500X-0.322500X0*%
%ADD38RoundRect,0.130050X-0.736950X1.076950X-0.736950X-1.076950X0.736950X-1.076950X0.736950X1.076950X0*%
%ADD39RoundRect,0.130050X-1.076950X-0.736950X1.076950X-0.736950X1.076950X0.736950X-1.076950X0.736950X0*%
%ADD40RoundRect,0.127500X-0.322500X0.297500X-0.322500X-0.297500X0.322500X-0.297500X0.322500X0.297500X0*%
%ADD41RoundRect,0.375000X-0.375000X0.625000X-0.375000X-0.625000X0.375000X-0.625000X0.375000X0.625000X0*%
%ADD42RoundRect,0.500000X-1.400000X0.500000X-1.400000X-0.500000X1.400000X-0.500000X1.400000X0.500000X0*%
%ADD43R,3.200000X3.200000*%
%ADD44O,3.200000X3.200000*%
%ADD45RoundRect,0.200000X0.200000X0.275000X-0.200000X0.275000X-0.200000X-0.275000X0.200000X-0.275000X0*%
%ADD46RoundRect,0.443500X-0.723500X-0.443500X0.723500X-0.443500X0.723500X0.443500X-0.723500X0.443500X0*%
%ADD47RoundRect,0.127500X-0.297500X-0.322500X0.297500X-0.322500X0.297500X0.322500X-0.297500X0.322500X0*%
%ADD48R,2.800000X2.800000*%
%ADD49C,2.800000*%
%ADD50R,1.500000X1.500000*%
%ADD51C,1.500000*%
%ADD52C,2.300000*%
%ADD53C,1.000000*%
%ADD54C,3.000000*%
%ADD55C,2.500000*%
%ADD56C,2.000000*%
G04 APERTURE END LIST*
D10*
X90576400Y-94577400D03*
X90576400Y-96227400D03*
D11*
X87005200Y-126034800D03*
X85105200Y-126034800D03*
D12*
X113496800Y-125841600D03*
X114696800Y-120741600D03*
D13*
X70154800Y-79870600D03*
X70154800Y-78320600D03*
D14*
X43586400Y-35306000D03*
D15*
X92252800Y-74967800D03*
X92252800Y-76517800D03*
D16*
X73964800Y-69545200D03*
D17*
X76504800Y-69545200D03*
X79044800Y-69545200D03*
X81584800Y-69545200D03*
D18*
X47421900Y-96062800D03*
X51521900Y-96062800D03*
D19*
X56388000Y-74879200D03*
D20*
X50088000Y-72599200D03*
D19*
X56388000Y-70319200D03*
D10*
X57759600Y-94666800D03*
X57759600Y-96316800D03*
D13*
X87477600Y-46190200D03*
X87477600Y-44640200D03*
D21*
X47045600Y-124561600D03*
D12*
X51005600Y-124561600D03*
X54965600Y-124561600D03*
X58925600Y-124561600D03*
X62885600Y-124561600D03*
X66845600Y-124561600D03*
D22*
X115874800Y-77571600D03*
X115874800Y-74071600D03*
D18*
X50058400Y-90076000D03*
X54158400Y-90076000D03*
D14*
X117856000Y-35052000D03*
D16*
X82296000Y-62230000D03*
D17*
X84836000Y-62230000D03*
D23*
X87376000Y-62230000D03*
D24*
X87313000Y-93980000D03*
X88963000Y-93980000D03*
D25*
X84484200Y-122123200D03*
X94484200Y-122123200D03*
D13*
X58724800Y-74841400D03*
X58724800Y-73291400D03*
D26*
X107848400Y-121564400D03*
D12*
X107848400Y-125524400D03*
D27*
X71069200Y-126034800D03*
D28*
X78689200Y-126034800D03*
D26*
X44653200Y-86210000D03*
D12*
X44653200Y-90170000D03*
D24*
X102451400Y-94386400D03*
X104101400Y-94386400D03*
D29*
X82747300Y-72360600D03*
X82747300Y-73010600D03*
X82747300Y-73660600D03*
X82747300Y-74310600D03*
X82747300Y-74960600D03*
X82747300Y-75610600D03*
X82747300Y-76260600D03*
X82747300Y-76910600D03*
X82747300Y-77560600D03*
X82747300Y-78210600D03*
X88507300Y-78210600D03*
X88507300Y-77560600D03*
X88507300Y-76910600D03*
X88507300Y-76260600D03*
X88507300Y-75610600D03*
X88507300Y-74960600D03*
X88507300Y-74310600D03*
X88507300Y-73660600D03*
X88507300Y-73010600D03*
X88507300Y-72360600D03*
D14*
X85408700Y-100744000D03*
D30*
X79358700Y-102694000D03*
D14*
X79358700Y-114894000D03*
D30*
X91358700Y-102694000D03*
D14*
X53600900Y-100744000D03*
D30*
X47550900Y-102694000D03*
D14*
X47550900Y-114894000D03*
X59600900Y-114944000D03*
D30*
X59550900Y-102694000D03*
D18*
X50012700Y-78384400D03*
X54112700Y-78384400D03*
D31*
X71917600Y-96118200D03*
X70017600Y-96118200D03*
X70967600Y-97993200D03*
D32*
X73901000Y-78435200D03*
X75451000Y-78435200D03*
D25*
X64600000Y-79100000D03*
X61100000Y-79100000D03*
D10*
X113741200Y-75933800D03*
X113741200Y-77583800D03*
D31*
X55915600Y-95864200D03*
X54015600Y-95864200D03*
X54965600Y-97739200D03*
D14*
X101402400Y-100744000D03*
D30*
X95352400Y-102694000D03*
D14*
X95352400Y-114894000D03*
D30*
X107352400Y-102694000D03*
D33*
X74335600Y-37474000D03*
X74335600Y-38744000D03*
X74335600Y-40014000D03*
X74335600Y-41284000D03*
X74335600Y-42554000D03*
X74335600Y-43824000D03*
X74335600Y-45094000D03*
X74335600Y-46364000D03*
X74335600Y-47634000D03*
X74335600Y-48904000D03*
X83855600Y-48904000D03*
X83855600Y-47634000D03*
X83855600Y-46364000D03*
X83855600Y-45094000D03*
X83855600Y-43824000D03*
X83855600Y-42554000D03*
X83855600Y-41284000D03*
X83855600Y-40014000D03*
X83855600Y-38744000D03*
X83855600Y-37474000D03*
D34*
X112064800Y-75043800D03*
X112064800Y-73393800D03*
D35*
X71850000Y-123110000D03*
D36*
X74390000Y-123110000D03*
X76930000Y-123110000D03*
D25*
X61191200Y-87680800D03*
X64691200Y-87680800D03*
D37*
X80593600Y-126034800D03*
X82143600Y-126034800D03*
D15*
X81280000Y-122478800D03*
X81280000Y-124028800D03*
D10*
X73710800Y-94729800D03*
X73710800Y-96379800D03*
D38*
X120396000Y-100010400D03*
X120396000Y-95910400D03*
D10*
X105664000Y-94463600D03*
X105664000Y-96113600D03*
D34*
X85950800Y-39988600D03*
X85950800Y-38338600D03*
D13*
X71678800Y-79870600D03*
X71678800Y-78320600D03*
D16*
X99314000Y-125069600D03*
D17*
X99314000Y-122529600D03*
D35*
X111630000Y-81950000D03*
D36*
X114170000Y-81950000D03*
X116710000Y-81950000D03*
D39*
X54152800Y-86156800D03*
X50052800Y-86156800D03*
D24*
X70244200Y-94284800D03*
X71894200Y-94284800D03*
D32*
X73914000Y-79959200D03*
X75464000Y-79959200D03*
D40*
X80619600Y-74848600D03*
X80619600Y-73298600D03*
D13*
X85950800Y-46190200D03*
X85950800Y-44640200D03*
D14*
X69508300Y-100744000D03*
D30*
X63458300Y-102694000D03*
D14*
X63458300Y-114894000D03*
X75508300Y-114944000D03*
D30*
X75458300Y-102694000D03*
D39*
X54120000Y-82296000D03*
X50020000Y-82296000D03*
D18*
X79103000Y-96062800D03*
X83203000Y-96062800D03*
D41*
X76255700Y-82078800D03*
X73955700Y-82078800D03*
D42*
X73955700Y-88378800D03*
D41*
X71655700Y-82078800D03*
D43*
X91592400Y-88087200D03*
D44*
X106832400Y-88087200D03*
D45*
X95426800Y-77571600D03*
X93776800Y-77571600D03*
D25*
X120396000Y-89154000D03*
X115396000Y-89154000D03*
D13*
X78994000Y-74848600D03*
X78994000Y-73298600D03*
D46*
X97896800Y-74930000D03*
X97896800Y-77470000D03*
X106476800Y-77470000D03*
X106476800Y-74930000D03*
D18*
X95306400Y-96062800D03*
X99406400Y-96062800D03*
D24*
X54227000Y-93980000D03*
X55877000Y-93980000D03*
D47*
X76860400Y-73101200D03*
X75310400Y-73101200D03*
D43*
X91643200Y-82245200D03*
D44*
X106883200Y-82245200D03*
D10*
X85950800Y-41398800D03*
X85950800Y-43048800D03*
D34*
X109626400Y-74993000D03*
X109626400Y-73343000D03*
D31*
X104081600Y-96156800D03*
X102181600Y-96156800D03*
X103131600Y-98031800D03*
D18*
X63266400Y-96062800D03*
X67366400Y-96062800D03*
D31*
X88961000Y-96242900D03*
X87061000Y-96242900D03*
X88011000Y-98117900D03*
D48*
X114096800Y-99923600D03*
D49*
X114096800Y-105003600D03*
X114096800Y-110083600D03*
X114096800Y-115163600D03*
D50*
X64817600Y-50097800D03*
D51*
X62277600Y-50097800D03*
X59737600Y-50097800D03*
X57197600Y-50097800D03*
X54657600Y-50097800D03*
X54657600Y-34857800D03*
X57197600Y-34857800D03*
X59737600Y-34857800D03*
X62317600Y-34857800D03*
X64817600Y-34857800D03*
D52*
X117905400Y-63733600D03*
X117905400Y-68733600D03*
D50*
X106432600Y-50097800D03*
D51*
X103892600Y-50097800D03*
X101352600Y-50097800D03*
X98812600Y-50097800D03*
X96272600Y-50097800D03*
X96272600Y-34857800D03*
X98812600Y-34857800D03*
X101352600Y-34857800D03*
X103932600Y-34857800D03*
X106432600Y-34857800D03*
D52*
X45047700Y-63723600D03*
X45047700Y-58723600D03*
D53*
X94611200Y-122072400D02*
X98856800Y-122072400D01*
X98856800Y-122072400D02*
X99314000Y-122529600D01*
X94458800Y-122224800D02*
X94611200Y-122072400D01*
X83515200Y-126034800D02*
X83566000Y-126085600D01*
X85105200Y-126034800D02*
X83616800Y-126034800D01*
X83616800Y-126034800D02*
X83566000Y-126085600D01*
X82143600Y-126034800D02*
X83515200Y-126034800D01*
D54*
X47550900Y-118264500D02*
X48615600Y-119329200D01*
X47550900Y-115170700D02*
X47550900Y-118264500D01*
X62885600Y-121585000D02*
X62885600Y-124561600D01*
X60629800Y-119329200D02*
X62885600Y-121585000D01*
X48615600Y-119329200D02*
X60629800Y-119329200D01*
D53*
X81280000Y-122211800D02*
X80455600Y-121387400D01*
X75005400Y-121387400D02*
X74472800Y-121920000D01*
X81280000Y-122478800D02*
X81280000Y-122211800D01*
X80455600Y-121387400D02*
X75005400Y-121387400D01*
X74472800Y-121920000D02*
X74472800Y-123088400D01*
D54*
X59600900Y-112306300D02*
X61417200Y-110490000D01*
X61417200Y-110490000D02*
X77076020Y-110490000D01*
X79358700Y-112772680D02*
X79358700Y-114894000D01*
X59600900Y-114944000D02*
X59600900Y-112306300D01*
X77076020Y-110490000D02*
X79358700Y-112772680D01*
D55*
X82042000Y-118516400D02*
X84484200Y-120958600D01*
D56*
X71850000Y-123110000D02*
X71850000Y-118535200D01*
D55*
X84484200Y-120958600D02*
X84484200Y-122123200D01*
X63458300Y-114894000D02*
X67080700Y-118516400D01*
X67080700Y-118516400D02*
X71831200Y-118516400D01*
X71831200Y-118516400D02*
X82042000Y-118516400D01*
D53*
X81280000Y-124028800D02*
X81711200Y-124460000D01*
X98704400Y-124460000D02*
X99314000Y-125069600D01*
X81711200Y-124460000D02*
X98704400Y-124460000D01*
M02*
