%TF.GenerationSoftware,KiCad,Pcbnew,9.0.0*%
%TF.CreationDate,2025-04-24T15:58:07+07:00*%
%TF.ProjectId,Bo_Tom_V3,426f5f54-6f6d-45f5-9633-2e6b69636164,rev?*%
%TF.SameCoordinates,Original*%
%TF.FileFunction,Drillmap*%
%TF.FilePolarity,Positive*%
%FSLAX45Y45*%
G04 Gerber Fmt 4.5, Leading zero omitted, Abs format (unit mm)*
G04 Created by KiCad (PCBNEW 9.0.0) date 2025-04-24 15:58:07*
%MOMM*%
%LPD*%
G01*
G04 APERTURE LIST*
%ADD10C,0.050000*%
%ADD11C,0.100000*%
%ADD12C,0.200000*%
%ADD13C,0.110000*%
%ADD14C,0.120000*%
%ADD15C,0.130000*%
%ADD16C,0.140000*%
%ADD17C,0.160000*%
G04 APERTURE END LIST*
D10*
X9976358Y-10297160D02*
X10301478Y-10297160D01*
X10322560Y-10332720D02*
X9956800Y-10332720D01*
X4953000Y-12669520D02*
X4953000Y-12260580D01*
X10017760Y-12359640D02*
X10017760Y-12390120D01*
X8178800Y-10144760D02*
X8178800Y-10093960D01*
X5132000Y-9956180D02*
X5230000Y-9870000D01*
X11531600Y-12325985D02*
X10538460Y-12325985D01*
X11269080Y-8262080D02*
X11269160Y-8078560D01*
X6121400Y-11668760D02*
X6187440Y-11668760D01*
X7547080Y-12216700D02*
G75*
G02*
X7588920Y-12216700I20920J0D01*
G01*
X4851400Y-12260580D02*
X4851400Y-12339320D01*
X6767160Y-10119580D02*
X6767160Y-9982420D01*
X5548840Y-9971240D02*
X5478201Y-9908000D01*
X5501200Y-9869820D02*
X5230000Y-9870000D01*
X11269080Y-8078700D02*
G75*
G02*
X11310920Y-8078700I20920J0D01*
G01*
X10538460Y-12325985D02*
X10538460Y-12405360D01*
X7584440Y-12039600D02*
X7584440Y-12080240D01*
X5247640Y-12341860D02*
X5247640Y-12672060D01*
X9814560Y-10129520D02*
X9814560Y-10180320D01*
D11*
X3981560Y-3061960D02*
X12405360Y-3061960D01*
X12405360Y-13061960D01*
X3981560Y-13061960D01*
X3981560Y-3061960D01*
D10*
X7134840Y-10119400D02*
X7134840Y-9982240D01*
X7547080Y-12400080D02*
X7547160Y-12216560D01*
X11490960Y-12715240D02*
X10497820Y-12715240D01*
X7645400Y-11226800D02*
X7322820Y-11226800D01*
X4953000Y-12260580D02*
X4851400Y-12260580D01*
X5132000Y-10210180D02*
X5132000Y-9956180D01*
X8178800Y-10195560D02*
X8321040Y-10347960D01*
X9865360Y-10078720D02*
X9865360Y-10180320D01*
X8178800Y-10093960D02*
X8229600Y-10093960D01*
X7774940Y-11351260D02*
X7645400Y-11226800D01*
X6029960Y-12268200D02*
X6029960Y-12346940D01*
X7322820Y-11226800D02*
X7322820Y-11303000D01*
X7338000Y-12402000D02*
G75*
G02*
X7296160Y-12402000I-20920J0D01*
G01*
X7134840Y-10221000D02*
X7134840Y-10119400D01*
X6550660Y-12189460D02*
X6449060Y-12189460D01*
X7134840Y-9982240D02*
X7064201Y-9919000D01*
X6131560Y-12268200D02*
X6029960Y-12268200D01*
X5548840Y-10108400D02*
X5548840Y-9971240D01*
X7208520Y-10775950D02*
X7208520Y-10875010D01*
X7589000Y-12216560D02*
X7589000Y-12400000D01*
X8839200Y-10093960D02*
X8839200Y-10195560D01*
X6718000Y-9967180D02*
X6816000Y-9881000D01*
X11565000Y-8077560D02*
X11565000Y-8261000D01*
X8178800Y-12039600D02*
X7584440Y-12039600D01*
X5181160Y-10210180D02*
X5181160Y-10108580D01*
X7338000Y-12183560D02*
X7338000Y-12402000D01*
X9976358Y-10297160D02*
X9865360Y-10180320D01*
X11523080Y-8261080D02*
X11523160Y-8077560D01*
X6187440Y-11360253D02*
X6278880Y-11277600D01*
X5598000Y-10210000D02*
X5548840Y-10210000D01*
X9855200Y-12359640D02*
X10017760Y-12359640D01*
X10972800Y-7112000D02*
X10972800Y-7071360D01*
X6449060Y-12598400D02*
X6550660Y-12598400D01*
X10017760Y-12390120D02*
X9855200Y-12390120D01*
X7708900Y-11564620D02*
X7853680Y-11709400D01*
X10474960Y-10180320D02*
X10322560Y-10332720D01*
X11887200Y-7071360D02*
X11887200Y-7112000D01*
X9596120Y-12329160D02*
X9591040Y-12329160D01*
X10424160Y-10078720D02*
X10474960Y-10078720D01*
X8839200Y-10195560D02*
X8686800Y-10347960D01*
X5745480Y-12674600D02*
X5745480Y-12265660D01*
X9824720Y-12329160D02*
X9596120Y-12329160D01*
X9814560Y-10129520D02*
X9814560Y-10078720D01*
X5349240Y-12672060D02*
X5349240Y-12263120D01*
X10474960Y-10078720D02*
X10474960Y-10180320D01*
X6029960Y-12567920D02*
X6131560Y-12567920D01*
X6121400Y-11351260D02*
X6121400Y-11668760D01*
X5643880Y-12265660D02*
X5643880Y-12344400D01*
X7588920Y-12400000D02*
G75*
G02*
X7547080Y-12400080I-20920J-80D01*
G01*
X6187440Y-11668760D02*
X6187440Y-11360253D01*
X9855200Y-12359640D02*
X9824720Y-12329160D01*
X6718000Y-10221180D02*
X6767160Y-10221180D01*
X7296160Y-12402000D02*
X7296160Y-12183560D01*
X8340598Y-10312400D02*
X8229600Y-10195560D01*
X5598000Y-9956000D02*
X5501200Y-9869820D01*
X5247640Y-12672060D02*
X5349240Y-12672060D01*
X8183880Y-11709400D02*
X8183880Y-11656060D01*
X10497820Y-12766040D02*
X11490960Y-12766040D01*
X6449060Y-12268200D02*
X6449060Y-12598400D01*
X6121400Y-11310620D02*
X6121400Y-11351260D01*
X5181160Y-10108580D02*
X5181160Y-9971420D01*
X5548840Y-10210000D02*
X5548840Y-10108400D01*
X6215380Y-11224260D02*
X6121400Y-11310620D01*
X6517640Y-11225530D02*
X6215380Y-11224260D01*
X11887200Y-7112000D02*
X10972800Y-7112000D01*
X6838000Y-9919000D02*
X7064201Y-9919000D01*
X7184000Y-9967000D02*
X7087200Y-9880820D01*
X6550660Y-12598400D02*
X6550660Y-12189460D01*
X7874000Y-11656060D02*
X7774940Y-11559540D01*
X5643880Y-12674600D02*
X5745480Y-12674600D01*
X7296080Y-12183700D02*
G75*
G02*
X7337920Y-12183700I20920J0D01*
G01*
X8686800Y-10347960D02*
X8321040Y-10347960D01*
X11523080Y-8077700D02*
G75*
G02*
X11564920Y-8077700I20920J0D01*
G01*
X7184000Y-10221000D02*
X7184000Y-9967000D01*
X5745480Y-12265660D02*
X5643880Y-12265660D01*
X5349240Y-12263120D02*
X5247640Y-12263120D01*
X8178800Y-10144760D02*
X8178800Y-10195560D01*
X11564920Y-8261000D02*
G75*
G02*
X11523080Y-8261080I-20920J-80D01*
G01*
X8340598Y-10312400D02*
X8665718Y-10312400D01*
X5598000Y-10210000D02*
X5598000Y-9956000D01*
X8665718Y-10312400D02*
X8788400Y-10195560D01*
X7584440Y-12080240D02*
X8178800Y-12080240D01*
X11490960Y-12766040D02*
X11490960Y-12715240D01*
X10424160Y-10180320D02*
X10424160Y-10078720D01*
X7630160Y-11303000D02*
X7708900Y-11379200D01*
X5247640Y-12263120D02*
X5247640Y-12341860D01*
X6029960Y-12346940D02*
X6029960Y-12567920D01*
X4851400Y-12669520D02*
X4953000Y-12669520D01*
X6131560Y-12567920D02*
X6131560Y-12268200D01*
X7322820Y-11303000D02*
X7630160Y-11303000D01*
X8788400Y-10093960D02*
X8839200Y-10093960D01*
X8229600Y-10093960D02*
X8229600Y-10195560D01*
X9814560Y-10078720D02*
X9865360Y-10078720D01*
X5132000Y-10210180D02*
X5181160Y-10210180D01*
X7774940Y-11559540D02*
X7774940Y-11351260D01*
X7853680Y-11709400D02*
X8183880Y-11709400D01*
X7184000Y-10221000D02*
X7134840Y-10221000D01*
X6767000Y-9982500D02*
X6838000Y-9919000D01*
X11310920Y-8262000D02*
G75*
G02*
X11269080Y-8262080I-20920J-80D01*
G01*
X10083800Y-10875010D02*
X10083800Y-10775950D01*
X10497820Y-12715240D02*
X10497820Y-12766040D01*
X4851400Y-12339320D02*
X4851400Y-12669520D01*
X9855200Y-12390120D02*
X9819640Y-12354560D01*
X6449060Y-12189460D02*
X6449060Y-12268200D01*
X5181000Y-9971500D02*
X5252000Y-9908000D01*
X10972800Y-7071360D02*
X11887200Y-7071360D01*
X5252000Y-9908000D02*
X5478201Y-9908000D01*
X10301478Y-10297160D02*
X10424160Y-10180320D01*
X11311000Y-8078560D02*
X11311000Y-8262000D01*
X6718000Y-10221180D02*
X6718000Y-9967180D01*
X5643880Y-12344400D02*
X5643880Y-12674600D01*
X10538460Y-12405360D02*
X11531600Y-12405360D01*
X10083800Y-10775950D02*
X7208520Y-10775950D01*
X9819640Y-12354560D02*
X9591040Y-12354560D01*
X8178800Y-12080240D02*
X8178800Y-12039600D01*
X9591040Y-12329160D02*
X9591040Y-12354560D01*
X6278880Y-11277600D02*
X6517640Y-11278870D01*
X8183880Y-11656060D02*
X7874000Y-11656060D01*
X6767160Y-10221180D02*
X6767160Y-10119580D01*
X9814560Y-10180320D02*
X9956800Y-10332720D01*
X8788400Y-10195560D02*
X8788400Y-10093960D01*
X7208520Y-10875010D02*
X10083800Y-10875010D01*
X11531600Y-12405360D02*
X11531600Y-12325985D01*
X6517640Y-11278870D02*
X6517640Y-11225530D01*
X7087200Y-9880820D02*
X6816000Y-9881000D01*
X7708900Y-11379200D02*
X7708900Y-11564620D01*
D12*
D11*
X4120120Y-6116560D02*
X4150120Y-6146560D01*
X4150120Y-6116560D02*
X4120120Y-6146560D01*
X4120120Y-6395960D02*
X4150120Y-6425960D01*
X4150120Y-6395960D02*
X4120120Y-6425960D01*
X4120120Y-6675360D02*
X4150120Y-6705360D01*
X4150120Y-6675360D02*
X4120120Y-6705360D01*
X4120120Y-6939520D02*
X4150120Y-6969520D01*
X4150120Y-6939520D02*
X4120120Y-6969520D01*
X4120120Y-7208760D02*
X4150120Y-7238760D01*
X4150120Y-7208760D02*
X4120120Y-7238760D01*
X4120120Y-7483080D02*
X4150120Y-7513080D01*
X4150120Y-7483080D02*
X4120120Y-7513080D01*
X4125200Y-4511280D02*
X4155200Y-4541280D01*
X4155200Y-4511280D02*
X4125200Y-4541280D01*
X4125200Y-4790680D02*
X4155200Y-4820680D01*
X4155200Y-4790680D02*
X4125200Y-4820680D01*
X4125200Y-5070080D02*
X4155200Y-5100080D01*
X4155200Y-5070080D02*
X4125200Y-5100080D01*
X4125200Y-5334240D02*
X4155200Y-5364240D01*
X4155200Y-5334240D02*
X4125200Y-5364240D01*
X4125200Y-5603480D02*
X4155200Y-5633480D01*
X4155200Y-5603480D02*
X4125200Y-5633480D01*
X4125200Y-5877800D02*
X4155200Y-5907800D01*
X4155200Y-5877800D02*
X4125200Y-5907800D01*
X4267440Y-4511280D02*
X4297440Y-4541280D01*
X4297440Y-4511280D02*
X4267440Y-4541280D01*
X4267440Y-4790680D02*
X4297440Y-4820680D01*
X4297440Y-4790680D02*
X4267440Y-4820680D01*
X4267440Y-5070080D02*
X4297440Y-5100080D01*
X4297440Y-5070080D02*
X4267440Y-5100080D01*
X4267440Y-5334240D02*
X4297440Y-5364240D01*
X4297440Y-5334240D02*
X4267440Y-5364240D01*
X4267440Y-5603480D02*
X4297440Y-5633480D01*
X4297440Y-5603480D02*
X4267440Y-5633480D01*
X4267440Y-5877800D02*
X4297440Y-5907800D01*
X4297440Y-5877800D02*
X4267440Y-5907800D01*
X4297920Y-6700760D02*
X4327920Y-6730760D01*
X4327920Y-6700760D02*
X4297920Y-6730760D01*
X4297920Y-6954760D02*
X4327920Y-6984760D01*
X4327920Y-6954760D02*
X4297920Y-6984760D01*
X4297920Y-7208760D02*
X4327920Y-7238760D01*
X4327920Y-7208760D02*
X4297920Y-7238760D01*
X4303000Y-6126720D02*
X4333000Y-6156720D01*
X4333000Y-6126720D02*
X4303000Y-6156720D01*
X4303000Y-7478000D02*
X4333000Y-7508000D01*
X4333000Y-7478000D02*
X4303000Y-7508000D01*
X4460480Y-4145520D02*
X4490480Y-4175520D01*
X4490480Y-4145520D02*
X4460480Y-4175520D01*
X4460480Y-4424920D02*
X4490480Y-4454920D01*
X4490480Y-4424920D02*
X4460480Y-4454920D01*
X4460480Y-4704320D02*
X4490480Y-4734320D01*
X4490480Y-4704320D02*
X4460480Y-4734320D01*
X4460480Y-4968480D02*
X4490480Y-4998480D01*
X4490480Y-4968480D02*
X4460480Y-4998480D01*
X4460480Y-5237720D02*
X4490480Y-5267720D01*
X4490480Y-5237720D02*
X4460480Y-5267720D01*
X4460480Y-5512040D02*
X4490480Y-5542040D01*
X4490480Y-5512040D02*
X4460480Y-5542040D01*
X4480800Y-7208760D02*
X4510800Y-7238760D01*
X4510800Y-7208760D02*
X4480800Y-7238760D01*
X4485880Y-7467840D02*
X4515880Y-7497840D01*
X4515880Y-7467840D02*
X4485880Y-7497840D01*
X4567160Y-6136880D02*
X4597160Y-6166880D01*
X4597160Y-6136880D02*
X4567160Y-6166880D01*
X4643360Y-4155680D02*
X4673360Y-4185680D01*
X4673360Y-4155680D02*
X4643360Y-4185680D01*
X4643360Y-4435080D02*
X4673360Y-4465080D01*
X4673360Y-4435080D02*
X4643360Y-4465080D01*
X4643360Y-4714480D02*
X4673360Y-4744480D01*
X4673360Y-4714480D02*
X4643360Y-4744480D01*
X4643360Y-4978640D02*
X4673360Y-5008640D01*
X4673360Y-4978640D02*
X4643360Y-5008640D01*
X4643360Y-5247880D02*
X4673360Y-5277880D01*
X4673360Y-5247880D02*
X4643360Y-5277880D01*
X4643360Y-5522200D02*
X4673360Y-5552200D01*
X4673360Y-5522200D02*
X4643360Y-5552200D01*
X4856720Y-6131800D02*
X4886720Y-6161800D01*
X4886720Y-6131800D02*
X4856720Y-6161800D01*
X4856720Y-6279120D02*
X4886720Y-6309120D01*
X4886720Y-6279120D02*
X4856720Y-6309120D01*
X4856720Y-6451840D02*
X4886720Y-6481840D01*
X4886720Y-6451840D02*
X4856720Y-6481840D01*
X4861800Y-5385040D02*
X4891800Y-5415040D01*
X4891800Y-5385040D02*
X4861800Y-5415040D01*
X4861800Y-5532360D02*
X4891800Y-5562360D01*
X4891800Y-5532360D02*
X4861800Y-5562360D01*
X4861800Y-5705080D02*
X4891800Y-5735080D01*
X4891800Y-5705080D02*
X4861800Y-5735080D01*
X4887200Y-3662920D02*
X4917200Y-3692920D01*
X4917200Y-3662920D02*
X4887200Y-3692920D01*
X4887200Y-3942320D02*
X4917200Y-3972320D01*
X4917200Y-3942320D02*
X4887200Y-3972320D01*
X4887200Y-4221720D02*
X4917200Y-4251720D01*
X4917200Y-4221720D02*
X4887200Y-4251720D01*
X4887200Y-4485880D02*
X4917200Y-4515880D01*
X4917200Y-4485880D02*
X4887200Y-4515880D01*
X4887200Y-4755120D02*
X4917200Y-4785120D01*
X4917200Y-4755120D02*
X4887200Y-4785120D01*
X4887200Y-5029440D02*
X4917200Y-5059440D01*
X4917200Y-5029440D02*
X4887200Y-5059440D01*
X4978640Y-9276320D02*
X5008640Y-9306320D01*
X5008640Y-9276320D02*
X4978640Y-9306320D01*
X4983720Y-6131800D02*
X5013720Y-6161800D01*
X5013720Y-6131800D02*
X4983720Y-6161800D01*
X4983720Y-6279120D02*
X5013720Y-6309120D01*
X5013720Y-6279120D02*
X4983720Y-6309120D01*
X4983720Y-6451840D02*
X5013720Y-6481840D01*
X5013720Y-6451840D02*
X4983720Y-6481840D01*
X4998960Y-5385040D02*
X5028960Y-5415040D01*
X5028960Y-5385040D02*
X4998960Y-5415040D01*
X4998960Y-5532360D02*
X5028960Y-5562360D01*
X5028960Y-5532360D02*
X4998960Y-5562360D01*
X4998960Y-5705080D02*
X5028960Y-5735080D01*
X5028960Y-5705080D02*
X4998960Y-5735080D01*
X5120880Y-6136880D02*
X5150880Y-6166880D01*
X5150880Y-6136880D02*
X5120880Y-6166880D01*
X5120880Y-6284200D02*
X5150880Y-6314200D01*
X5150880Y-6284200D02*
X5120880Y-6314200D01*
X5120880Y-6456920D02*
X5150880Y-6486920D01*
X5150880Y-6456920D02*
X5120880Y-6486920D01*
X5131040Y-5385040D02*
X5161040Y-5415040D01*
X5161040Y-5385040D02*
X5131040Y-5415040D01*
X5131040Y-5532360D02*
X5161040Y-5562360D01*
X5161040Y-5532360D02*
X5131040Y-5562360D01*
X5131040Y-5705080D02*
X5161040Y-5735080D01*
X5161040Y-5705080D02*
X5131040Y-5735080D01*
X5136120Y-3657840D02*
X5166120Y-3687840D01*
X5166120Y-3657840D02*
X5136120Y-3687840D01*
X5136120Y-3937240D02*
X5166120Y-3967240D01*
X5166120Y-3937240D02*
X5136120Y-3967240D01*
X5136120Y-4216640D02*
X5166120Y-4246640D01*
X5166120Y-4216640D02*
X5136120Y-4246640D01*
X5136120Y-4480800D02*
X5166120Y-4510800D01*
X5166120Y-4480800D02*
X5136120Y-4510800D01*
X5136120Y-4750040D02*
X5166120Y-4780040D01*
X5166120Y-4750040D02*
X5136120Y-4780040D01*
X5136120Y-5024360D02*
X5166120Y-5054360D01*
X5166120Y-5024360D02*
X5136120Y-5054360D01*
X5242800Y-6141960D02*
X5272800Y-6171960D01*
X5272800Y-6141960D02*
X5242800Y-6171960D01*
X5242800Y-6289280D02*
X5272800Y-6319280D01*
X5272800Y-6289280D02*
X5242800Y-6319280D01*
X5242800Y-6462000D02*
X5272800Y-6492000D01*
X5272800Y-6462000D02*
X5242800Y-6492000D01*
X5258040Y-5390120D02*
X5288040Y-5420120D01*
X5288040Y-5390120D02*
X5258040Y-5420120D01*
X5258040Y-5537440D02*
X5288040Y-5567440D01*
X5288040Y-5537440D02*
X5258040Y-5567440D01*
X5258040Y-5710160D02*
X5288040Y-5740160D01*
X5288040Y-5710160D02*
X5258040Y-5740160D01*
X5308840Y-9393160D02*
X5338840Y-9423160D01*
X5338840Y-9393160D02*
X5308840Y-9423160D01*
X5400280Y-5390120D02*
X5430280Y-5420120D01*
X5430280Y-5390120D02*
X5400280Y-5420120D01*
X5400280Y-5537440D02*
X5430280Y-5567440D01*
X5430280Y-5537440D02*
X5400280Y-5567440D01*
X5400280Y-5710160D02*
X5430280Y-5740160D01*
X5430280Y-5710160D02*
X5400280Y-5740160D01*
X5537440Y-5390120D02*
X5567440Y-5420120D01*
X5567440Y-5390120D02*
X5537440Y-5420120D01*
X5537440Y-5537440D02*
X5567440Y-5567440D01*
X5567440Y-5537440D02*
X5537440Y-5567440D01*
X5537440Y-5710160D02*
X5567440Y-5740160D01*
X5567440Y-5710160D02*
X5537440Y-5740160D01*
X5551664Y-6858240D02*
X5581664Y-6888240D01*
X5581664Y-6858240D02*
X5551664Y-6888240D01*
X5583160Y-3774680D02*
X5613160Y-3804680D01*
X5613160Y-3774680D02*
X5583160Y-3804680D01*
X5588240Y-3962640D02*
X5618240Y-3992640D01*
X5618240Y-3962640D02*
X5588240Y-3992640D01*
X5588240Y-4313160D02*
X5618240Y-4343160D01*
X5618240Y-4313160D02*
X5588240Y-4343160D01*
X5593320Y-4135360D02*
X5623320Y-4165360D01*
X5623320Y-4135360D02*
X5593320Y-4165360D01*
X5698984Y-6004800D02*
X5728984Y-6034800D01*
X5728984Y-6004800D02*
X5698984Y-6034800D01*
X5704760Y-5218940D02*
X5734760Y-5248940D01*
X5734760Y-5218940D02*
X5704760Y-5248940D01*
X5705080Y-5385040D02*
X5735080Y-5415040D01*
X5735080Y-5385040D02*
X5705080Y-5415040D01*
X5705080Y-5532360D02*
X5735080Y-5562360D01*
X5735080Y-5532360D02*
X5705080Y-5562360D01*
X5705080Y-5705080D02*
X5735080Y-5735080D01*
X5735080Y-5705080D02*
X5705080Y-5735080D01*
X5755880Y-9135520D02*
X5785880Y-9165520D01*
X5785880Y-9135520D02*
X5755880Y-9165520D01*
X5755880Y-9315520D02*
X5785880Y-9345520D01*
X5785880Y-9315520D02*
X5755880Y-9345520D01*
X5771120Y-4120120D02*
X5801120Y-4150120D01*
X5801120Y-4120120D02*
X5771120Y-4150120D01*
X5824968Y-6858240D02*
X5854968Y-6888240D01*
X5854968Y-6858240D02*
X5824968Y-6888240D01*
X5862560Y-5385040D02*
X5892560Y-5415040D01*
X5892560Y-5385040D02*
X5862560Y-5415040D01*
X5862560Y-5532360D02*
X5892560Y-5562360D01*
X5892560Y-5532360D02*
X5862560Y-5562360D01*
X5862560Y-5705080D02*
X5892560Y-5735080D01*
X5892560Y-5705080D02*
X5862560Y-5735080D01*
X5882880Y-8280640D02*
X5912880Y-8310640D01*
X5912880Y-8280640D02*
X5882880Y-8310640D01*
X5923520Y-9129000D02*
X5953520Y-9159000D01*
X5953520Y-9129000D02*
X5923520Y-9159000D01*
X5959080Y-5279900D02*
X5989080Y-5309900D01*
X5989080Y-5279900D02*
X5959080Y-5309900D01*
X5972288Y-6004800D02*
X6002288Y-6034800D01*
X6002288Y-6004800D02*
X5972288Y-6034800D01*
X5989560Y-4120120D02*
X6019560Y-4150120D01*
X6019560Y-4120120D02*
X5989560Y-4150120D01*
X6020040Y-7721840D02*
X6050040Y-7751840D01*
X6050040Y-7721840D02*
X6020040Y-7751840D01*
X6035280Y-5385040D02*
X6065280Y-5415040D01*
X6065280Y-5385040D02*
X6035280Y-5415040D01*
X6035280Y-5532360D02*
X6065280Y-5562360D01*
X6065280Y-5532360D02*
X6035280Y-5562360D01*
X6035280Y-5705080D02*
X6065280Y-5735080D01*
X6065280Y-5705080D02*
X6035280Y-5735080D01*
X6091160Y-8539720D02*
X6121160Y-8569720D01*
X6121160Y-8539720D02*
X6091160Y-8569720D01*
X6098272Y-6858240D02*
X6128272Y-6888240D01*
X6128272Y-6858240D02*
X6098272Y-6888240D01*
X6116560Y-9591280D02*
X6146560Y-9621280D01*
X6146560Y-9591280D02*
X6116560Y-9621280D01*
X6116560Y-9799560D02*
X6146560Y-9829560D01*
X6146560Y-9799560D02*
X6116560Y-9829560D01*
X6208000Y-4115040D02*
X6238000Y-4145040D01*
X6238000Y-4115040D02*
X6208000Y-4145040D01*
X6212760Y-5340860D02*
X6242760Y-5370860D01*
X6242760Y-5340860D02*
X6212760Y-5370860D01*
X6228320Y-5725400D02*
X6258320Y-5755400D01*
X6258320Y-5725400D02*
X6228320Y-5755400D01*
X6233400Y-5532360D02*
X6263400Y-5562360D01*
X6263400Y-5532360D02*
X6233400Y-5562360D01*
X6243560Y-3245720D02*
X6273560Y-3275720D01*
X6273560Y-3245720D02*
X6243560Y-3275720D01*
X6245592Y-6004800D02*
X6275592Y-6034800D01*
X6275592Y-6004800D02*
X6245592Y-6034800D01*
X6263880Y-8163800D02*
X6293880Y-8193800D01*
X6293880Y-8163800D02*
X6263880Y-8193800D01*
X6279120Y-8885160D02*
X6309120Y-8915160D01*
X6309120Y-8885160D02*
X6279120Y-8915160D01*
X6371576Y-6858240D02*
X6401576Y-6888240D01*
X6401576Y-6858240D02*
X6371576Y-6888240D01*
X6441680Y-9372840D02*
X6471680Y-9402840D01*
X6471680Y-9372840D02*
X6441680Y-9402840D01*
X6466760Y-5406900D02*
X6496760Y-5436900D01*
X6496760Y-5406900D02*
X6466760Y-5436900D01*
X6472160Y-8539720D02*
X6502160Y-8569720D01*
X6502160Y-8539720D02*
X6472160Y-8569720D01*
X6492480Y-4125200D02*
X6522480Y-4155200D01*
X6522480Y-4125200D02*
X6492480Y-4155200D01*
X6502640Y-3173700D02*
X6532640Y-3203700D01*
X6532640Y-3173700D02*
X6502640Y-3203700D01*
X6507720Y-5725400D02*
X6537720Y-5755400D01*
X6537720Y-5725400D02*
X6507720Y-5755400D01*
X6512800Y-5532360D02*
X6542800Y-5562360D01*
X6542800Y-5532360D02*
X6512800Y-5562360D01*
X6518896Y-6004800D02*
X6548896Y-6034800D01*
X6548896Y-6004800D02*
X6518896Y-6034800D01*
X6589000Y-9865600D02*
X6619000Y-9895600D01*
X6619000Y-9865600D02*
X6589000Y-9895600D01*
X6639800Y-6919200D02*
X6669800Y-6949200D01*
X6669800Y-6919200D02*
X6639800Y-6949200D01*
X6639800Y-7112240D02*
X6669800Y-7142240D01*
X6669800Y-7112240D02*
X6639800Y-7142240D01*
X6639800Y-7244320D02*
X6669800Y-7274320D01*
X6669800Y-7244320D02*
X6639800Y-7274320D01*
X6639800Y-7437360D02*
X6669800Y-7467360D01*
X6669800Y-7437360D02*
X6639800Y-7467360D01*
X6639800Y-7610080D02*
X6669800Y-7640080D01*
X6669800Y-7610080D02*
X6639800Y-7640080D01*
X6675360Y-9123920D02*
X6705360Y-9153920D01*
X6705360Y-9123920D02*
X6675360Y-9153920D01*
X6710920Y-8300960D02*
X6740920Y-8330960D01*
X6740920Y-8300960D02*
X6710920Y-8330960D01*
X6741400Y-4126100D02*
X6771400Y-4156100D01*
X6771400Y-4126100D02*
X6741400Y-4156100D01*
X6766800Y-3495280D02*
X6796800Y-3525280D01*
X6796800Y-3495280D02*
X6766800Y-3525280D01*
X6787120Y-5725400D02*
X6817120Y-5755400D01*
X6817120Y-5725400D02*
X6787120Y-5755400D01*
X6792200Y-5532360D02*
X6822200Y-5562360D01*
X6822200Y-5532360D02*
X6792200Y-5562360D01*
X6792200Y-6004800D02*
X6822200Y-6034800D01*
X6822200Y-6004800D02*
X6792200Y-6034800D01*
X6843000Y-7112240D02*
X6873000Y-7142240D01*
X6873000Y-7112240D02*
X6843000Y-7142240D01*
X6843000Y-7274800D02*
X6873000Y-7304800D01*
X6873000Y-7274800D02*
X6843000Y-7304800D01*
X6843000Y-7437360D02*
X6873000Y-7467360D01*
X6873000Y-7437360D02*
X6843000Y-7467360D01*
X6843000Y-7625320D02*
X6873000Y-7655320D01*
X6873000Y-7625320D02*
X6843000Y-7655320D01*
X6848080Y-6922248D02*
X6878080Y-6952248D01*
X6878080Y-6922248D02*
X6848080Y-6952248D01*
X6848080Y-7793976D02*
X6878080Y-7823976D01*
X6878080Y-7793976D02*
X6848080Y-7823976D01*
X6903960Y-9413480D02*
X6933960Y-9443480D01*
X6933960Y-9413480D02*
X6903960Y-9443480D01*
X7040104Y-3495280D02*
X7070104Y-3525280D01*
X7070104Y-3495280D02*
X7040104Y-3525280D01*
X7051280Y-5725400D02*
X7081280Y-5755400D01*
X7081280Y-5725400D02*
X7051280Y-5755400D01*
X7056360Y-5532360D02*
X7086360Y-5562360D01*
X7086360Y-5532360D02*
X7056360Y-5562360D01*
X7086840Y-6283184D02*
X7116840Y-6313184D01*
X7116840Y-6283184D02*
X7086840Y-6313184D01*
X7086840Y-6556488D02*
X7116840Y-6586488D01*
X7116840Y-6556488D02*
X7086840Y-6586488D01*
X7086840Y-7103096D02*
X7116840Y-7133096D01*
X7116840Y-7103096D02*
X7086840Y-7133096D01*
X7086840Y-7244320D02*
X7116840Y-7274320D01*
X7116840Y-7244320D02*
X7086840Y-7274320D01*
X7086840Y-7376400D02*
X7116840Y-7406400D01*
X7116840Y-7376400D02*
X7086840Y-7406400D01*
X7102080Y-6685520D02*
X7132080Y-6715520D01*
X7132080Y-6685520D02*
X7102080Y-6715520D01*
X7147800Y-8402560D02*
X7177800Y-8432560D01*
X7177800Y-8402560D02*
X7147800Y-8432560D01*
X7147800Y-8590520D02*
X7177800Y-8620520D01*
X7177800Y-8590520D02*
X7147800Y-8620520D01*
X7193520Y-9113760D02*
X7223520Y-9143760D01*
X7223520Y-9113760D02*
X7193520Y-9143760D01*
X7279880Y-4369940D02*
X7309880Y-4399940D01*
X7309880Y-4369940D02*
X7279880Y-4399940D01*
X7284960Y-4248020D02*
X7314960Y-4278020D01*
X7314960Y-4248020D02*
X7284960Y-4278020D01*
X7313408Y-3495280D02*
X7343408Y-3525280D01*
X7343408Y-3495280D02*
X7313408Y-3525280D01*
X7320520Y-5725400D02*
X7350520Y-5755400D01*
X7350520Y-5725400D02*
X7320520Y-5755400D01*
X7325600Y-5532360D02*
X7355600Y-5562360D01*
X7355600Y-5532360D02*
X7325600Y-5562360D01*
X7356080Y-9135520D02*
X7386080Y-9165520D01*
X7386080Y-9135520D02*
X7356080Y-9165520D01*
X7356080Y-9357600D02*
X7386080Y-9387600D01*
X7386080Y-9357600D02*
X7356080Y-9387600D01*
X7498320Y-7589760D02*
X7528320Y-7619760D01*
X7528320Y-7589760D02*
X7498320Y-7619760D01*
X7586712Y-3495280D02*
X7616712Y-3525280D01*
X7616712Y-3495280D02*
X7586712Y-3525280D01*
X7594840Y-5725400D02*
X7624840Y-5755400D01*
X7624840Y-5725400D02*
X7594840Y-5755400D01*
X7594840Y-8397480D02*
X7624840Y-8427480D01*
X7624840Y-8397480D02*
X7594840Y-8427480D01*
X7599920Y-5532360D02*
X7629920Y-5562360D01*
X7629920Y-5532360D02*
X7599920Y-5562360D01*
X7599920Y-8580360D02*
X7629920Y-8610360D01*
X7629920Y-8580360D02*
X7599920Y-8610360D01*
X7610080Y-7696440D02*
X7640080Y-7726440D01*
X7640080Y-7696440D02*
X7610080Y-7726440D01*
X7615160Y-7594840D02*
X7645160Y-7624840D01*
X7645160Y-7594840D02*
X7615160Y-7624840D01*
X7635480Y-6025120D02*
X7665480Y-6055120D01*
X7665480Y-6025120D02*
X7635480Y-6055120D01*
X7635480Y-6226627D02*
X7665480Y-6256627D01*
X7665480Y-6226627D02*
X7635480Y-6256627D01*
X7635480Y-6428133D02*
X7665480Y-6458133D01*
X7665480Y-6428133D02*
X7635480Y-6458133D01*
X7635480Y-6629640D02*
X7665480Y-6659640D01*
X7665480Y-6629640D02*
X7635480Y-6659640D01*
X7686280Y-7168120D02*
X7716280Y-7198120D01*
X7716280Y-7168120D02*
X7686280Y-7198120D01*
X7691360Y-9418560D02*
X7721360Y-9448560D01*
X7721360Y-9418560D02*
X7691360Y-9448560D01*
X7691360Y-9713200D02*
X7721360Y-9743200D01*
X7721360Y-9713200D02*
X7691360Y-9743200D01*
X7752320Y-3947400D02*
X7782320Y-3977400D01*
X7782320Y-3947400D02*
X7752320Y-3977400D01*
X7752320Y-4074400D02*
X7782320Y-4104400D01*
X7782320Y-4074400D02*
X7752320Y-4104400D01*
X7752320Y-4275907D02*
X7782320Y-4305907D01*
X7782320Y-4275907D02*
X7752320Y-4305907D01*
X7752320Y-4477413D02*
X7782320Y-4507413D01*
X7782320Y-4477413D02*
X7752320Y-4507413D01*
X7752320Y-4678920D02*
X7782320Y-4708920D01*
X7782320Y-4678920D02*
X7752320Y-4708920D01*
X7782800Y-7320520D02*
X7812800Y-7350520D01*
X7812800Y-7320520D02*
X7782800Y-7350520D01*
X7792960Y-5029440D02*
X7822960Y-5059440D01*
X7822960Y-5029440D02*
X7792960Y-5059440D01*
X7859000Y-5532360D02*
X7889000Y-5562360D01*
X7889000Y-5532360D02*
X7859000Y-5562360D01*
X7859000Y-5725400D02*
X7889000Y-5755400D01*
X7889000Y-5725400D02*
X7859000Y-5755400D01*
X7859000Y-9113760D02*
X7889000Y-9143760D01*
X7889000Y-9113760D02*
X7859000Y-9143760D01*
X7860016Y-3495280D02*
X7890016Y-3525280D01*
X7890016Y-3495280D02*
X7860016Y-3525280D01*
X7879320Y-6025120D02*
X7909320Y-6055120D01*
X7909320Y-6025120D02*
X7879320Y-6055120D01*
X7879320Y-6226627D02*
X7909320Y-6256627D01*
X7909320Y-6226627D02*
X7879320Y-6256627D01*
X7879320Y-6428133D02*
X7909320Y-6458133D01*
X7909320Y-6428133D02*
X7879320Y-6458133D01*
X7879320Y-6629640D02*
X7909320Y-6659640D01*
X7909320Y-6629640D02*
X7879320Y-6659640D01*
X7945360Y-3947400D02*
X7975360Y-3977400D01*
X7975360Y-3947400D02*
X7945360Y-3977400D01*
X7945360Y-4074400D02*
X7975360Y-4104400D01*
X7975360Y-4074400D02*
X7945360Y-4104400D01*
X7945360Y-4275907D02*
X7975360Y-4305907D01*
X7975360Y-4275907D02*
X7945360Y-4305907D01*
X7945360Y-4477413D02*
X7975360Y-4507413D01*
X7975360Y-4477413D02*
X7945360Y-4507413D01*
X7945360Y-4678920D02*
X7975360Y-4708920D01*
X7975360Y-4678920D02*
X7945360Y-4708920D01*
X7994467Y-5029440D02*
X8024467Y-5059440D01*
X8024467Y-5029440D02*
X7994467Y-5059440D01*
X8060507Y-5532360D02*
X8090507Y-5562360D01*
X8090507Y-5532360D02*
X8060507Y-5562360D01*
X8060507Y-5725400D02*
X8090507Y-5755400D01*
X8090507Y-5725400D02*
X8060507Y-5755400D01*
X8107920Y-8834360D02*
X8137920Y-8864360D01*
X8137920Y-8834360D02*
X8107920Y-8864360D01*
X8113000Y-8041880D02*
X8143000Y-8071880D01*
X8143000Y-8041880D02*
X8113000Y-8071880D01*
X8113000Y-8243387D02*
X8143000Y-8273387D01*
X8143000Y-8243387D02*
X8113000Y-8273387D01*
X8113000Y-8444893D02*
X8143000Y-8474893D01*
X8143000Y-8444893D02*
X8113000Y-8474893D01*
X8113000Y-8646400D02*
X8143000Y-8676400D01*
X8143000Y-8646400D02*
X8113000Y-8676400D01*
X8133320Y-3495280D02*
X8163320Y-3525280D01*
X8163320Y-3495280D02*
X8133320Y-3525280D01*
X8138400Y-7808200D02*
X8168400Y-7838200D01*
X8168400Y-7808200D02*
X8138400Y-7838200D01*
X8195973Y-5029440D02*
X8225973Y-5059440D01*
X8225973Y-5029440D02*
X8195973Y-5059440D01*
X8205456Y-6629640D02*
X8235456Y-6659640D01*
X8235456Y-6629640D02*
X8205456Y-6659640D01*
X8234920Y-4754480D02*
X8264920Y-4784480D01*
X8264920Y-4754480D02*
X8234920Y-4784480D01*
X8240000Y-4623940D02*
X8270000Y-4653940D01*
X8270000Y-4623940D02*
X8240000Y-4653940D01*
X8262013Y-5532360D02*
X8292013Y-5562360D01*
X8292013Y-5532360D02*
X8262013Y-5562360D01*
X8262013Y-5725400D02*
X8292013Y-5755400D01*
X8292013Y-5725400D02*
X8262013Y-5755400D01*
X8397480Y-5029440D02*
X8427480Y-5059440D01*
X8427480Y-5029440D02*
X8397480Y-5059440D01*
X8409672Y-3490200D02*
X8439672Y-3520200D01*
X8439672Y-3490200D02*
X8409672Y-3520200D01*
X8463520Y-5532360D02*
X8493520Y-5562360D01*
X8493520Y-5532360D02*
X8463520Y-5562360D01*
X8463520Y-5725400D02*
X8493520Y-5755400D01*
X8493520Y-5725400D02*
X8463520Y-5755400D01*
X8478760Y-6629640D02*
X8508760Y-6659640D01*
X8508760Y-6629640D02*
X8478760Y-6659640D01*
X8494000Y-4375020D02*
X8524000Y-4405020D01*
X8524000Y-4375020D02*
X8494000Y-4405020D01*
X8682976Y-3490200D02*
X8712976Y-3520200D01*
X8712976Y-3490200D02*
X8682976Y-3520200D01*
X8717520Y-7142720D02*
X8747520Y-7172720D01*
X8747520Y-7142720D02*
X8717520Y-7172720D01*
X8717520Y-7676120D02*
X8747520Y-7706120D01*
X8747520Y-7676120D02*
X8717520Y-7706120D01*
X8801100Y-9484600D02*
X8831100Y-9514600D01*
X8831100Y-9484600D02*
X8801100Y-9514600D01*
X8849600Y-6634720D02*
X8879600Y-6664720D01*
X8879600Y-6634720D02*
X8849600Y-6664720D01*
X8941040Y-7610080D02*
X8971040Y-7640080D01*
X8971040Y-7610080D02*
X8941040Y-7640080D01*
X8956280Y-3490200D02*
X8986280Y-3520200D01*
X8986280Y-3490200D02*
X8956280Y-3520200D01*
X8956280Y-7813280D02*
X8986280Y-7843280D01*
X8986280Y-7813280D02*
X8956280Y-7843280D01*
X8986760Y-7264640D02*
X9016760Y-7294640D01*
X9016760Y-7264640D02*
X8986760Y-7294640D01*
X9042640Y-9135520D02*
X9072640Y-9165520D01*
X9072640Y-9135520D02*
X9042640Y-9165520D01*
X9042640Y-9316960D02*
X9072640Y-9346960D01*
X9072640Y-9316960D02*
X9042640Y-9346960D01*
X9106648Y-3784840D02*
X9136648Y-3814840D01*
X9136648Y-3784840D02*
X9106648Y-3814840D01*
X9235680Y-3495280D02*
X9265680Y-3525280D01*
X9265680Y-3495280D02*
X9235680Y-3525280D01*
X9291560Y-9581120D02*
X9321560Y-9611120D01*
X9321560Y-9581120D02*
X9291560Y-9611120D01*
X9379952Y-3784840D02*
X9409952Y-3814840D01*
X9409952Y-3784840D02*
X9379952Y-3814840D01*
X9379952Y-3993120D02*
X9409952Y-4023120D01*
X9409952Y-3993120D02*
X9379952Y-4023120D01*
X9379952Y-4231880D02*
X9409952Y-4261880D01*
X9409952Y-4231880D02*
X9379952Y-4261880D01*
X9398240Y-9845280D02*
X9428240Y-9875280D01*
X9428240Y-9845280D02*
X9398240Y-9875280D01*
X9469360Y-7290040D02*
X9499360Y-7320040D01*
X9499360Y-7290040D02*
X9469360Y-7320040D01*
X9474440Y-4739880D02*
X9504440Y-4769880D01*
X9504440Y-4739880D02*
X9474440Y-4769880D01*
X9555720Y-6898880D02*
X9585720Y-6928880D01*
X9585720Y-6898880D02*
X9555720Y-6928880D01*
X9560800Y-7142720D02*
X9590800Y-7172720D01*
X9590800Y-7142720D02*
X9560800Y-7172720D01*
X9595344Y-5679680D02*
X9625344Y-5709680D01*
X9625344Y-5679680D02*
X9595344Y-5709680D01*
X9595344Y-5943840D02*
X9625344Y-5973840D01*
X9625344Y-5943840D02*
X9595344Y-5973840D01*
X9653256Y-3784840D02*
X9683256Y-3814840D01*
X9683256Y-3784840D02*
X9653256Y-3814840D01*
X9653256Y-3993120D02*
X9683256Y-4023120D01*
X9683256Y-3993120D02*
X9653256Y-4023120D01*
X9653256Y-4231880D02*
X9683256Y-4261880D01*
X9683256Y-4231880D02*
X9653256Y-4261880D01*
X9667480Y-8087600D02*
X9697480Y-8117600D01*
X9697480Y-8087600D02*
X9667480Y-8117600D01*
X9667480Y-8331440D02*
X9697480Y-8361440D01*
X9697480Y-8331440D02*
X9667480Y-8361440D01*
X9667480Y-8671800D02*
X9697480Y-8701800D01*
X9697480Y-8671800D02*
X9667480Y-8701800D01*
X9667480Y-8915640D02*
X9697480Y-8945640D01*
X9697480Y-8915640D02*
X9667480Y-8945640D01*
X9743680Y-7137640D02*
X9773680Y-7167640D01*
X9773680Y-7137640D02*
X9743680Y-7167640D01*
X9747744Y-4739880D02*
X9777744Y-4769880D01*
X9777744Y-4739880D02*
X9747744Y-4769880D01*
X9757227Y-6898880D02*
X9787227Y-6928880D01*
X9787227Y-6898880D02*
X9757227Y-6928880D01*
X9868648Y-5679680D02*
X9898648Y-5709680D01*
X9898648Y-5679680D02*
X9868648Y-5709680D01*
X9868648Y-5943840D02*
X9898648Y-5973840D01*
X9898648Y-5943840D02*
X9868648Y-5973840D01*
X9868987Y-8087600D02*
X9898987Y-8117600D01*
X9898987Y-8087600D02*
X9868987Y-8117600D01*
X9868987Y-8331440D02*
X9898987Y-8361440D01*
X9898987Y-8331440D02*
X9868987Y-8361440D01*
X9868987Y-8671800D02*
X9898987Y-8701800D01*
X9898987Y-8671800D02*
X9868987Y-8701800D01*
X9868987Y-8915640D02*
X9898987Y-8945640D01*
X9898987Y-8915640D02*
X9868987Y-8945640D01*
X9926560Y-3784840D02*
X9956560Y-3814840D01*
X9956560Y-3784840D02*
X9926560Y-3814840D01*
X9926560Y-3993120D02*
X9956560Y-4023120D01*
X9956560Y-3993120D02*
X9926560Y-4023120D01*
X9926560Y-4231880D02*
X9956560Y-4261880D01*
X9956560Y-4231880D02*
X9926560Y-4261880D01*
X9958733Y-6898880D02*
X9988733Y-6928880D01*
X9988733Y-6898880D02*
X9958733Y-6928880D01*
X9962120Y-7147800D02*
X9992120Y-7177800D01*
X9992120Y-7147800D02*
X9962120Y-7177800D01*
X10021048Y-4739880D02*
X10051048Y-4769880D01*
X10051048Y-4739880D02*
X10021048Y-4769880D01*
X10048480Y-7457680D02*
X10078480Y-7487680D01*
X10078480Y-7457680D02*
X10048480Y-7487680D01*
X10048480Y-7772640D02*
X10078480Y-7802640D01*
X10078480Y-7772640D02*
X10048480Y-7802640D01*
X10070493Y-8087600D02*
X10100493Y-8117600D01*
X10100493Y-8087600D02*
X10070493Y-8117600D01*
X10070493Y-8331440D02*
X10100493Y-8361440D01*
X10100493Y-8331440D02*
X10070493Y-8361440D01*
X10070493Y-8671800D02*
X10100493Y-8701800D01*
X10100493Y-8671800D02*
X10070493Y-8701800D01*
X10089120Y-9342360D02*
X10119120Y-9372360D01*
X10119120Y-9342360D02*
X10089120Y-9372360D01*
X10139920Y-7142720D02*
X10169920Y-7172720D01*
X10169920Y-7142720D02*
X10139920Y-7172720D01*
X10141740Y-9135520D02*
X10171740Y-9165520D01*
X10171740Y-9135520D02*
X10141740Y-9165520D01*
X10141952Y-5679680D02*
X10171952Y-5709680D01*
X10171952Y-5679680D02*
X10141952Y-5709680D01*
X10141952Y-5943840D02*
X10171952Y-5973840D01*
X10171952Y-5943840D02*
X10141952Y-5973840D01*
X10160240Y-6898880D02*
X10190240Y-6928880D01*
X10190240Y-6898880D02*
X10160240Y-6928880D01*
X10190720Y-8890240D02*
X10220720Y-8920240D01*
X10220720Y-8890240D02*
X10190720Y-8920240D01*
X10226280Y-9315520D02*
X10256280Y-9345520D01*
X10256280Y-9315520D02*
X10226280Y-9345520D01*
X10231360Y-7457680D02*
X10261360Y-7487680D01*
X10261360Y-7457680D02*
X10231360Y-7487680D01*
X10241520Y-7767560D02*
X10271520Y-7797560D01*
X10271520Y-7767560D02*
X10241520Y-7797560D01*
X10272000Y-8087600D02*
X10302000Y-8117600D01*
X10302000Y-8087600D02*
X10272000Y-8117600D01*
X10272000Y-8331440D02*
X10302000Y-8361440D01*
X10302000Y-8331440D02*
X10272000Y-8361440D01*
X10294352Y-4739880D02*
X10324352Y-4769880D01*
X10324352Y-4739880D02*
X10294352Y-4769880D01*
X10363440Y-3660888D02*
X10393440Y-3690888D01*
X10393440Y-3660888D02*
X10363440Y-3690888D01*
X10363440Y-3934192D02*
X10393440Y-3964192D01*
X10393440Y-3934192D02*
X10363440Y-3964192D01*
X10363440Y-4207496D02*
X10393440Y-4237496D01*
X10393440Y-4207496D02*
X10363440Y-4237496D01*
X10363440Y-4480800D02*
X10393440Y-4510800D01*
X10393440Y-4480800D02*
X10363440Y-4510800D01*
X10415256Y-5679680D02*
X10445256Y-5709680D01*
X10445256Y-5679680D02*
X10415256Y-5709680D01*
X10415256Y-5943840D02*
X10445256Y-5973840D01*
X10445256Y-5943840D02*
X10415256Y-5973840D01*
X10470120Y-6898880D02*
X10500120Y-6928880D01*
X10500120Y-6898880D02*
X10470120Y-6928880D01*
X10567656Y-4739880D02*
X10597656Y-4769880D01*
X10597656Y-4739880D02*
X10567656Y-4769880D01*
X10597120Y-3660888D02*
X10627120Y-3690888D01*
X10627120Y-3660888D02*
X10597120Y-3690888D01*
X10597120Y-3934192D02*
X10627120Y-3964192D01*
X10627120Y-3934192D02*
X10597120Y-3964192D01*
X10597120Y-4207496D02*
X10627120Y-4237496D01*
X10627120Y-4207496D02*
X10597120Y-4237496D01*
X10597120Y-4480800D02*
X10627120Y-4510800D01*
X10627120Y-4480800D02*
X10597120Y-4510800D01*
X10671627Y-6898880D02*
X10701627Y-6928880D01*
X10701627Y-6898880D02*
X10671627Y-6928880D01*
X10688560Y-5679680D02*
X10718560Y-5709680D01*
X10718560Y-5679680D02*
X10688560Y-5709680D01*
X10688560Y-5943840D02*
X10718560Y-5973840D01*
X10718560Y-5943840D02*
X10688560Y-5973840D01*
X10830800Y-3660888D02*
X10860800Y-3690888D01*
X10860800Y-3660888D02*
X10830800Y-3690888D01*
X10830800Y-3934192D02*
X10860800Y-3964192D01*
X10860800Y-3934192D02*
X10830800Y-3964192D01*
X10830800Y-4207496D02*
X10860800Y-4237496D01*
X10860800Y-4207496D02*
X10830800Y-4237496D01*
X10830800Y-4480800D02*
X10860800Y-4510800D01*
X10860800Y-4480800D02*
X10830800Y-4510800D01*
X10840960Y-4739880D02*
X10870960Y-4769880D01*
X10870960Y-4739880D02*
X10840960Y-4769880D01*
X10873133Y-6898880D02*
X10903133Y-6928880D01*
X10903133Y-6898880D02*
X10873133Y-6928880D01*
X10992344Y-5029440D02*
X11022344Y-5059440D01*
X11022344Y-5029440D02*
X10992344Y-5059440D01*
X11069560Y-3383520D02*
X11099560Y-3413520D01*
X11099560Y-3383520D02*
X11069560Y-3413520D01*
X11069560Y-3656824D02*
X11099560Y-3686824D01*
X11099560Y-3656824D02*
X11069560Y-3686824D01*
X11069560Y-3930128D02*
X11099560Y-3960128D01*
X11099560Y-3930128D02*
X11069560Y-3960128D01*
X11069560Y-4203432D02*
X11099560Y-4233432D01*
X11099560Y-4203432D02*
X11069560Y-4233432D01*
X11069560Y-4476736D02*
X11099560Y-4506736D01*
X11099560Y-4476736D02*
X11069560Y-4506736D01*
X11069560Y-4750040D02*
X11099560Y-4780040D01*
X11099560Y-4750040D02*
X11069560Y-4780040D01*
X11069560Y-5414504D02*
X11099560Y-5444504D01*
X11099560Y-5414504D02*
X11069560Y-5444504D01*
X11069560Y-5687808D02*
X11099560Y-5717808D01*
X11099560Y-5687808D02*
X11069560Y-5717808D01*
X11069560Y-5961112D02*
X11099560Y-5991112D01*
X11099560Y-5961112D02*
X11069560Y-5991112D01*
X11069560Y-6234416D02*
X11099560Y-6264416D01*
X11099560Y-6234416D02*
X11069560Y-6264416D01*
X11069560Y-6507720D02*
X11099560Y-6537720D01*
X11099560Y-6507720D02*
X11069560Y-6537720D01*
X11074640Y-6898880D02*
X11104640Y-6928880D01*
X11104640Y-6898880D02*
X11074640Y-6928880D01*
X11265648Y-5029440D02*
X11295648Y-5059440D01*
X11295648Y-5029440D02*
X11265648Y-5059440D01*
X11272760Y-5414504D02*
X11302760Y-5444504D01*
X11302760Y-5414504D02*
X11272760Y-5444504D01*
X11272760Y-5687808D02*
X11302760Y-5717808D01*
X11302760Y-5687808D02*
X11272760Y-5717808D01*
X11272760Y-5961112D02*
X11302760Y-5991112D01*
X11302760Y-5961112D02*
X11272760Y-5991112D01*
X11272760Y-6234416D02*
X11302760Y-6264416D01*
X11302760Y-6234416D02*
X11272760Y-6264416D01*
X11272760Y-6507720D02*
X11302760Y-6537720D01*
X11302760Y-6507720D02*
X11272760Y-6537720D01*
X11272760Y-10734280D02*
X11302760Y-10764280D01*
X11302760Y-10734280D02*
X11272760Y-10764280D01*
X11272760Y-11227040D02*
X11302760Y-11257040D01*
X11302760Y-11227040D02*
X11272760Y-11257040D01*
X11288000Y-10261840D02*
X11318000Y-10291840D01*
X11318000Y-10261840D02*
X11288000Y-10291840D01*
X11303240Y-3656824D02*
X11333240Y-3686824D01*
X11333240Y-3656824D02*
X11303240Y-3686824D01*
X11303240Y-3930128D02*
X11333240Y-3960128D01*
X11333240Y-3930128D02*
X11303240Y-3960128D01*
X11303240Y-4203432D02*
X11333240Y-4233432D01*
X11333240Y-4203432D02*
X11303240Y-4233432D01*
X11303240Y-4476736D02*
X11333240Y-4506736D01*
X11333240Y-4476736D02*
X11303240Y-4506736D01*
X11303240Y-4750040D02*
X11333240Y-4780040D01*
X11333240Y-4750040D02*
X11303240Y-4780040D01*
X11425160Y-9428720D02*
X11455160Y-9458720D01*
X11455160Y-9428720D02*
X11425160Y-9458720D01*
X11481040Y-5419584D02*
X11511040Y-5449584D01*
X11511040Y-5419584D02*
X11481040Y-5449584D01*
X11481040Y-5692888D02*
X11511040Y-5722888D01*
X11511040Y-5692888D02*
X11481040Y-5722888D01*
X11481040Y-5966192D02*
X11511040Y-5996192D01*
X11511040Y-5966192D02*
X11481040Y-5996192D01*
X11481040Y-6239496D02*
X11511040Y-6269496D01*
X11511040Y-6239496D02*
X11481040Y-6269496D01*
X11481040Y-6512800D02*
X11511040Y-6542800D01*
X11511040Y-6512800D02*
X11481040Y-6542800D01*
X11521680Y-11282920D02*
X11551680Y-11312920D01*
X11551680Y-11282920D02*
X11521680Y-11312920D01*
X11536920Y-3930128D02*
X11566920Y-3960128D01*
X11566920Y-3930128D02*
X11536920Y-3960128D01*
X11536920Y-4203432D02*
X11566920Y-4233432D01*
X11566920Y-4203432D02*
X11536920Y-4233432D01*
X11536920Y-4476736D02*
X11566920Y-4506736D01*
X11566920Y-4476736D02*
X11536920Y-4506736D01*
X11536920Y-4750040D02*
X11566920Y-4780040D01*
X11566920Y-4750040D02*
X11536920Y-4780040D01*
X11538952Y-5029440D02*
X11568952Y-5059440D01*
X11568952Y-5029440D02*
X11538952Y-5059440D01*
X11602960Y-10744440D02*
X11632960Y-10774440D01*
X11632960Y-10744440D02*
X11602960Y-10774440D01*
X11633440Y-10272000D02*
X11663440Y-10302000D01*
X11663440Y-10272000D02*
X11633440Y-10302000D01*
X11648680Y-9708120D02*
X11678680Y-9738120D01*
X11678680Y-9708120D02*
X11648680Y-9738120D01*
X11689320Y-11415000D02*
X11719320Y-11445000D01*
X11719320Y-11415000D02*
X11689320Y-11445000D01*
X11760440Y-9393160D02*
X11790440Y-9423160D01*
X11790440Y-9393160D02*
X11760440Y-9423160D01*
X11765520Y-9205200D02*
X11795520Y-9235200D01*
X11795520Y-9205200D02*
X11765520Y-9235200D01*
X11770600Y-8819120D02*
X11800600Y-8849120D01*
X11800600Y-8819120D02*
X11770600Y-8849120D01*
X11770600Y-9017240D02*
X11800600Y-9047240D01*
X11800600Y-9017240D02*
X11770600Y-9047240D01*
X11775680Y-8631160D02*
X11805680Y-8661160D01*
X11805680Y-8631160D02*
X11775680Y-8661160D01*
X11780760Y-8443200D02*
X11810760Y-8473200D01*
X11810760Y-8443200D02*
X11780760Y-8473200D01*
X11790920Y-7457680D02*
X11820920Y-7487680D01*
X11820920Y-7457680D02*
X11790920Y-7487680D01*
X11801080Y-5309856D02*
X11831080Y-5339856D01*
X11831080Y-5309856D02*
X11801080Y-5339856D01*
X11801080Y-5583160D02*
X11831080Y-5613160D01*
X11831080Y-5583160D02*
X11801080Y-5613160D01*
X11806160Y-3936224D02*
X11836160Y-3966224D01*
X11836160Y-3936224D02*
X11806160Y-3966224D01*
X11806160Y-4209528D02*
X11836160Y-4239528D01*
X11836160Y-4209528D02*
X11806160Y-4239528D01*
X11806160Y-4482832D02*
X11836160Y-4512832D01*
X11836160Y-4482832D02*
X11806160Y-4512832D01*
X11806160Y-4756136D02*
X11836160Y-4786136D01*
X11836160Y-4756136D02*
X11806160Y-4786136D01*
X11806160Y-5029440D02*
X11836160Y-5059440D01*
X11836160Y-5029440D02*
X11806160Y-5059440D01*
X12039840Y-5309856D02*
X12069840Y-5339856D01*
X12069840Y-5309856D02*
X12039840Y-5339856D01*
X12039840Y-5583160D02*
X12069840Y-5613160D01*
X12069840Y-5583160D02*
X12039840Y-5613160D01*
X12044920Y-3936224D02*
X12074920Y-3966224D01*
X12074920Y-3936224D02*
X12044920Y-3966224D01*
X12044920Y-4209528D02*
X12074920Y-4239528D01*
X12074920Y-4209528D02*
X12044920Y-4239528D01*
X12044920Y-4482832D02*
X12074920Y-4512832D01*
X12074920Y-4482832D02*
X12044920Y-4512832D01*
X12044920Y-4756136D02*
X12074920Y-4786136D01*
X12074920Y-4756136D02*
X12044920Y-4786136D01*
X12044920Y-5029440D02*
X12074920Y-5059440D01*
X12074920Y-5029440D02*
X12044920Y-5059440D01*
X12314160Y-3647680D02*
X12344160Y-3677680D01*
X12344160Y-3647680D02*
X12314160Y-3677680D01*
X12314160Y-3937240D02*
X12344160Y-3967240D01*
X12344160Y-3937240D02*
X12314160Y-3967240D01*
X12314160Y-4210544D02*
X12344160Y-4240544D01*
X12344160Y-4210544D02*
X12314160Y-4240544D01*
X12314160Y-4483848D02*
X12344160Y-4513848D01*
X12344160Y-4483848D02*
X12314160Y-4513848D01*
X12314160Y-4757152D02*
X12344160Y-4787152D01*
X12344160Y-4757152D02*
X12314160Y-4787152D01*
X12314160Y-5030456D02*
X12344160Y-5060456D01*
X12344160Y-5030456D02*
X12314160Y-5060456D01*
X12314160Y-5303760D02*
X12344160Y-5333760D01*
X12344160Y-5303760D02*
X12314160Y-5333760D01*
X12314160Y-7427200D02*
X12344160Y-7457200D01*
X12344160Y-7427200D02*
X12314160Y-7457200D01*
X12314160Y-7739425D02*
X12344160Y-7769425D01*
X12344160Y-7739425D02*
X12314160Y-7769425D01*
X12314160Y-8051649D02*
X12344160Y-8081649D01*
X12344160Y-8051649D02*
X12314160Y-8081649D01*
X12314160Y-8363874D02*
X12344160Y-8393874D01*
X12344160Y-8363874D02*
X12314160Y-8393874D01*
X12314160Y-8676099D02*
X12344160Y-8706099D01*
X12344160Y-8676099D02*
X12314160Y-8706099D01*
X12314160Y-8988323D02*
X12344160Y-9018323D01*
X12344160Y-8988323D02*
X12314160Y-9018323D01*
X12314160Y-9300548D02*
X12344160Y-9330548D01*
X12344160Y-9300548D02*
X12314160Y-9330548D01*
X12314160Y-9612772D02*
X12344160Y-9642772D01*
X12344160Y-9612772D02*
X12314160Y-9642772D01*
X12314160Y-9924997D02*
X12344160Y-9954997D01*
X12344160Y-9924997D02*
X12314160Y-9954997D01*
X12314160Y-10237222D02*
X12344160Y-10267222D01*
X12344160Y-10237222D02*
X12314160Y-10267222D01*
X12314160Y-10549446D02*
X12344160Y-10579446D01*
X12344160Y-10549446D02*
X12314160Y-10579446D01*
X12314160Y-10861671D02*
X12344160Y-10891671D01*
X12344160Y-10861671D02*
X12314160Y-10891671D01*
X12314160Y-11173895D02*
X12344160Y-11203895D01*
X12344160Y-11173895D02*
X12314160Y-11203895D01*
X12314160Y-11486120D02*
X12344160Y-11516120D01*
X12344160Y-11486120D02*
X12314160Y-11516120D01*
X12319240Y-5552680D02*
X12349240Y-5582680D01*
X12349240Y-5552680D02*
X12319240Y-5582680D01*
X12319240Y-5825984D02*
X12349240Y-5855984D01*
X12349240Y-5825984D02*
X12319240Y-5855984D01*
X12319240Y-6099288D02*
X12349240Y-6129288D01*
X12349240Y-6099288D02*
X12319240Y-6129288D01*
X12319240Y-6372592D02*
X12349240Y-6402592D01*
X12349240Y-6372592D02*
X12319240Y-6402592D01*
X12319240Y-6645896D02*
X12349240Y-6675896D01*
X12349240Y-6645896D02*
X12319240Y-6675896D01*
X12319240Y-6919200D02*
X12349240Y-6949200D01*
X12349240Y-6919200D02*
X12319240Y-6949200D01*
X4840920Y-7081520D02*
G75*
G02*
X4800920Y-7081520I-20000J0D01*
G01*
X4800920Y-7081520D02*
G75*
G02*
X4840920Y-7081520I20000J0D01*
G01*
X4840920Y-7244080D02*
G75*
G02*
X4800920Y-7244080I-20000J0D01*
G01*
X4800920Y-7244080D02*
G75*
G02*
X4840920Y-7244080I20000J0D01*
G01*
X4840920Y-7406640D02*
G75*
G02*
X4800920Y-7406640I-20000J0D01*
G01*
X4800920Y-7406640D02*
G75*
G02*
X4840920Y-7406640I20000J0D01*
G01*
X5028880Y-7081520D02*
G75*
G02*
X4988880Y-7081520I-20000J0D01*
G01*
X4988880Y-7081520D02*
G75*
G02*
X5028880Y-7081520I20000J0D01*
G01*
X5028880Y-7244080D02*
G75*
G02*
X4988880Y-7244080I-20000J0D01*
G01*
X4988880Y-7244080D02*
G75*
G02*
X5028880Y-7244080I20000J0D01*
G01*
X5028880Y-7406640D02*
G75*
G02*
X4988880Y-7406640I-20000J0D01*
G01*
X4988880Y-7406640D02*
G75*
G02*
X5028880Y-7406640I20000J0D01*
G01*
X5221920Y-7081520D02*
G75*
G02*
X5181920Y-7081520I-20000J0D01*
G01*
X5181920Y-7081520D02*
G75*
G02*
X5221920Y-7081520I20000J0D01*
G01*
X5221920Y-7244080D02*
G75*
G02*
X5181920Y-7244080I-20000J0D01*
G01*
X5181920Y-7244080D02*
G75*
G02*
X5221920Y-7244080I20000J0D01*
G01*
X5221920Y-7406640D02*
G75*
G02*
X5181920Y-7406640I-20000J0D01*
G01*
X5181920Y-7406640D02*
G75*
G02*
X5221920Y-7406640I20000J0D01*
G01*
X6918960Y-8854920D02*
X6918960Y-8914920D01*
X6888960Y-8884920D02*
X6948960Y-8884920D01*
X6922500Y-9042880D02*
X6922500Y-9102880D01*
X6892500Y-9072880D02*
X6952500Y-9072880D01*
X8356600Y-12578560D02*
X8356600Y-12638560D01*
X8326600Y-12608560D02*
X8386600Y-12608560D01*
X8783320Y-3806300D02*
X8783320Y-3866300D01*
X8753320Y-3836300D02*
X8813320Y-3836300D01*
X8915400Y-4278740D02*
X8915400Y-4338740D01*
X8885400Y-4308740D02*
X8945400Y-4308740D01*
X9225280Y-6721320D02*
X9225280Y-6781320D01*
X9195280Y-6751320D02*
X9255280Y-6751320D01*
X5494045Y-3514064D02*
X5494045Y-3457495D01*
X5437476Y-3457495D01*
X5437476Y-3514064D01*
X5494045Y-3514064D01*
X5494045Y-5038065D02*
X5494045Y-4981496D01*
X5437476Y-4981496D01*
X5437476Y-5038065D01*
X5494045Y-5038065D01*
X5748044Y-3514064D02*
X5748044Y-3457495D01*
X5691475Y-3457495D01*
X5691475Y-3514064D01*
X5748044Y-3514064D01*
X5748044Y-5038065D02*
X5748044Y-4981496D01*
X5691475Y-4981496D01*
X5691475Y-5038065D01*
X5748044Y-5038065D01*
X6002044Y-3514064D02*
X6002044Y-3457495D01*
X5945475Y-3457495D01*
X5945475Y-3514064D01*
X6002044Y-3514064D01*
X6002044Y-5038065D02*
X6002044Y-4981496D01*
X5945475Y-4981496D01*
X5945475Y-5038065D01*
X6002044Y-5038065D01*
X6138284Y-7938284D02*
X6138284Y-7881715D01*
X6081715Y-7881715D01*
X6081715Y-7938284D01*
X6138284Y-7938284D01*
X6147404Y-8796365D02*
X6147404Y-8739796D01*
X6090835Y-8739796D01*
X6090835Y-8796365D01*
X6147404Y-8796365D01*
X6256044Y-5038065D02*
X6256044Y-4981496D01*
X6199475Y-4981496D01*
X6199475Y-5038065D01*
X6256044Y-5038065D01*
X6260044Y-3514064D02*
X6260044Y-3457495D01*
X6203475Y-3457495D01*
X6203475Y-3514064D01*
X6260044Y-3514064D01*
X6488284Y-7938284D02*
X6488284Y-7881715D01*
X6431715Y-7881715D01*
X6431715Y-7938284D01*
X6488284Y-7938284D01*
X6497404Y-8796365D02*
X6497404Y-8739796D01*
X6440835Y-8739796D01*
X6440835Y-8796365D01*
X6497404Y-8796365D01*
X6510044Y-3514064D02*
X6510044Y-3457495D01*
X6453475Y-3457495D01*
X6453475Y-3514064D01*
X6510044Y-3514064D01*
X6510044Y-5038065D02*
X6510044Y-4981496D01*
X6453475Y-4981496D01*
X6453475Y-5038065D01*
X6510044Y-5038065D01*
X7135204Y-12631764D02*
X7135204Y-12575195D01*
X7078635Y-12575195D01*
X7078635Y-12631764D01*
X7135204Y-12631764D01*
X7897204Y-12631764D02*
X7897204Y-12575195D01*
X7840635Y-12575195D01*
X7840635Y-12631764D01*
X7897204Y-12631764D01*
X8476705Y-12240604D02*
X8476705Y-12184035D01*
X8420136Y-12184035D01*
X8420136Y-12240604D01*
X8476705Y-12240604D01*
X9476705Y-12240604D02*
X9476705Y-12184035D01*
X9420136Y-12184035D01*
X9420136Y-12240604D01*
X9476705Y-12240604D01*
X9655545Y-3514064D02*
X9655545Y-3457495D01*
X9598976Y-3457495D01*
X9598976Y-3514064D01*
X9655545Y-3514064D01*
X9655545Y-5038065D02*
X9655545Y-4981496D01*
X9598976Y-4981496D01*
X9598976Y-5038065D01*
X9655545Y-5038065D01*
X9909545Y-3514064D02*
X9909545Y-3457495D01*
X9852976Y-3457495D01*
X9852976Y-3514064D01*
X9909545Y-3514064D01*
X9909545Y-5038065D02*
X9909545Y-4981496D01*
X9852976Y-4981496D01*
X9852976Y-5038065D01*
X9909545Y-5038065D01*
X10163545Y-3514064D02*
X10163545Y-3457495D01*
X10106976Y-3457495D01*
X10106976Y-3514064D01*
X10163545Y-3514064D01*
X10163545Y-5038065D02*
X10163545Y-4981496D01*
X10106976Y-4981496D01*
X10106976Y-5038065D01*
X10163545Y-5038065D01*
X10417545Y-5038065D02*
X10417545Y-4981496D01*
X10360976Y-4981496D01*
X10360976Y-5038065D01*
X10417545Y-5038065D01*
X10421545Y-3514064D02*
X10421545Y-3457495D01*
X10364976Y-3457495D01*
X10364976Y-3514064D01*
X10421545Y-3514064D01*
X10671545Y-3514064D02*
X10671545Y-3457495D01*
X10614976Y-3457495D01*
X10614976Y-3514064D01*
X10671545Y-3514064D01*
X10671545Y-5038065D02*
X10671545Y-4981496D01*
X10614976Y-4981496D01*
X10614976Y-5038065D01*
X10671545Y-5038065D01*
X11567884Y-8943685D02*
X11567884Y-8887116D01*
X11511315Y-8887116D01*
X11511315Y-8943685D01*
X11567884Y-8943685D01*
X12067884Y-8943685D02*
X12067884Y-8887116D01*
X12011315Y-8887116D01*
X12011315Y-8943685D01*
X12067884Y-8943685D01*
X4755090Y-10319400D02*
X4805090Y-10269400D01*
X4755090Y-10219400D01*
X4705090Y-10269400D01*
X4755090Y-10319400D01*
X5955090Y-10319400D02*
X6005090Y-10269400D01*
X5955090Y-10219400D01*
X5905090Y-10269400D01*
X5955090Y-10319400D01*
X6345830Y-10319400D02*
X6395830Y-10269400D01*
X6345830Y-10219400D01*
X6295830Y-10269400D01*
X6345830Y-10319400D01*
X7396480Y-7004520D02*
X7446480Y-6954520D01*
X7396480Y-6904520D01*
X7346480Y-6954520D01*
X7396480Y-7004520D01*
X7545830Y-10319400D02*
X7595830Y-10269400D01*
X7545830Y-10219400D01*
X7495830Y-10269400D01*
X7545830Y-10319400D01*
X7650480Y-7004520D02*
X7700480Y-6954520D01*
X7650480Y-6904520D01*
X7600480Y-6954520D01*
X7650480Y-7004520D01*
X7904480Y-7004520D02*
X7954480Y-6954520D01*
X7904480Y-6904520D01*
X7854480Y-6954520D01*
X7904480Y-7004520D01*
X7935870Y-10319400D02*
X7985870Y-10269400D01*
X7935870Y-10219400D01*
X7885870Y-10269400D01*
X7935870Y-10319400D01*
X8158480Y-7004520D02*
X8208480Y-6954520D01*
X8158480Y-6904520D01*
X8108480Y-6954520D01*
X8158480Y-7004520D01*
X8229600Y-6273000D02*
X8279600Y-6223000D01*
X8229600Y-6173000D01*
X8179600Y-6223000D01*
X8229600Y-6273000D01*
X8483600Y-6273000D02*
X8533600Y-6223000D01*
X8483600Y-6173000D01*
X8433600Y-6223000D01*
X8483600Y-6273000D01*
X8737600Y-6273000D02*
X8787600Y-6223000D01*
X8737600Y-6173000D01*
X8687600Y-6223000D01*
X8737600Y-6273000D01*
X9135870Y-10319400D02*
X9185870Y-10269400D01*
X9135870Y-10219400D01*
X9085870Y-10269400D01*
X9135870Y-10319400D01*
X9535240Y-10319400D02*
X9585240Y-10269400D01*
X9535240Y-10219400D01*
X9485240Y-10269400D01*
X9535240Y-10319400D01*
X9931400Y-12302960D02*
X9981400Y-12252960D01*
X9931400Y-12202960D01*
X9881400Y-12252960D01*
X9931400Y-12302960D01*
X9931400Y-12556960D02*
X9981400Y-12506960D01*
X9931400Y-12456960D01*
X9881400Y-12506960D01*
X9931400Y-12556960D01*
X10735240Y-10319400D02*
X10785240Y-10269400D01*
X10735240Y-10219400D01*
X10685240Y-10269400D01*
X10735240Y-10319400D01*
D13*
X7130000Y-12256000D02*
X7240000Y-12366000D01*
X7240000Y-12256000D02*
X7130000Y-12366000D01*
X7240000Y-12311000D02*
G75*
G02*
X7130000Y-12311000I-55000J0D01*
G01*
X7130000Y-12311000D02*
G75*
G02*
X7240000Y-12311000I55000J0D01*
G01*
X7384000Y-12256000D02*
X7494000Y-12366000D01*
X7494000Y-12256000D02*
X7384000Y-12366000D01*
X7494000Y-12311000D02*
G75*
G02*
X7384000Y-12311000I-55000J0D01*
G01*
X7384000Y-12311000D02*
G75*
G02*
X7494000Y-12311000I55000J0D01*
G01*
X7638000Y-12256000D02*
X7748000Y-12366000D01*
X7748000Y-12256000D02*
X7638000Y-12366000D01*
X7748000Y-12311000D02*
G75*
G02*
X7638000Y-12311000I-55000J0D01*
G01*
X7638000Y-12311000D02*
G75*
G02*
X7748000Y-12311000I55000J0D01*
G01*
X11108000Y-8140000D02*
X11218000Y-8250000D01*
X11218000Y-8140000D02*
X11108000Y-8250000D01*
X11218000Y-8195000D02*
G75*
G02*
X11108000Y-8195000I-55000J0D01*
G01*
X11108000Y-8195000D02*
G75*
G02*
X11218000Y-8195000I55000J0D01*
G01*
X11362000Y-8140000D02*
X11472000Y-8250000D01*
X11472000Y-8140000D02*
X11362000Y-8250000D01*
X11472000Y-8195000D02*
G75*
G02*
X11362000Y-8195000I-55000J0D01*
G01*
X11362000Y-8195000D02*
G75*
G02*
X11472000Y-8195000I55000J0D01*
G01*
X11616000Y-8140000D02*
X11726000Y-8250000D01*
X11726000Y-8140000D02*
X11616000Y-8250000D01*
X11726000Y-8195000D02*
G75*
G02*
X11616000Y-8195000I-55000J0D01*
G01*
X11616000Y-8195000D02*
G75*
G02*
X11726000Y-8195000I55000J0D01*
G01*
D14*
X4444770Y-5812360D02*
X4564770Y-5932360D01*
X4564770Y-5812360D02*
X4444770Y-5932360D01*
X4504770Y-5812360D02*
X4504770Y-5932360D01*
X4444770Y-5872360D02*
X4564770Y-5872360D01*
X4444770Y-6312360D02*
X4564770Y-6432360D01*
X4564770Y-6312360D02*
X4444770Y-6432360D01*
X4504770Y-6312360D02*
X4504770Y-6432360D01*
X4444770Y-6372360D02*
X4564770Y-6372360D01*
X4444770Y-6812360D02*
X4564770Y-6932360D01*
X4564770Y-6812360D02*
X4444770Y-6932360D01*
X4504770Y-6812360D02*
X4504770Y-6932360D01*
X4444770Y-6872360D02*
X4564770Y-6872360D01*
X5624770Y-6312360D02*
X5744770Y-6432360D01*
X5744770Y-6312360D02*
X5624770Y-6432360D01*
X5684770Y-6312360D02*
X5684770Y-6432360D01*
X5624770Y-6372360D02*
X5744770Y-6372360D01*
D11*
X5744770Y-6492360D02*
X5744770Y-6252360D01*
X5624770Y-6252360D02*
G75*
G02*
X5744770Y-6252360I60000J0D01*
G01*
X5624770Y-6252360D02*
X5624770Y-6492360D01*
X5624770Y-6492360D02*
G75*
G03*
X5744770Y-6492360I60000J0D01*
G01*
D14*
X6494770Y-6312360D02*
X6614770Y-6432360D01*
X6614770Y-6312360D02*
X6494770Y-6432360D01*
X6554770Y-6312360D02*
X6554770Y-6432360D01*
X6494770Y-6372360D02*
X6614770Y-6372360D01*
D11*
X6434770Y-6432360D02*
X6674770Y-6432360D01*
X6674770Y-6312360D02*
G75*
G02*
X6674770Y-6432360I0J-60000D01*
G01*
X6674770Y-6312360D02*
X6434770Y-6312360D01*
X6434770Y-6312360D02*
G75*
G03*
X6434770Y-6432360I0J-60000D01*
G01*
D14*
X9680540Y-6313360D02*
X9800540Y-6433360D01*
X9800540Y-6313360D02*
X9680540Y-6433360D01*
X9740540Y-6313360D02*
X9740540Y-6433360D01*
X9680540Y-6373360D02*
X9800540Y-6373360D01*
D11*
X9860540Y-6313360D02*
X9620540Y-6313360D01*
X9620540Y-6433360D02*
G75*
G02*
X9620540Y-6313360I0J60000D01*
G01*
X9620540Y-6433360D02*
X9860540Y-6433360D01*
X9860540Y-6433360D02*
G75*
G03*
X9860540Y-6313360I0J60000D01*
G01*
D14*
X10550540Y-6313360D02*
X10670540Y-6433360D01*
X10670540Y-6313360D02*
X10550540Y-6433360D01*
X10610540Y-6313360D02*
X10610540Y-6433360D01*
X10550540Y-6373360D02*
X10670540Y-6373360D01*
D11*
X10550540Y-6253360D02*
X10550540Y-6493360D01*
X10670540Y-6493360D02*
G75*
G02*
X10550540Y-6493360I-60000J0D01*
G01*
X10670540Y-6493360D02*
X10670540Y-6253360D01*
X10670540Y-6253360D02*
G75*
G03*
X10550540Y-6253360I-60000J0D01*
G01*
D14*
X11289680Y-12524160D02*
X11409680Y-12644160D01*
X11409680Y-12524160D02*
X11289680Y-12644160D01*
X11349680Y-12524160D02*
X11349680Y-12644160D01*
X11289680Y-12584160D02*
X11409680Y-12584160D01*
X11409680Y-12014160D02*
X11529680Y-12134160D01*
X11529680Y-12014160D02*
X11409680Y-12134160D01*
X11469680Y-12014160D02*
X11469680Y-12134160D01*
X11409680Y-12074160D02*
X11529680Y-12074160D01*
X11730540Y-5813360D02*
X11850540Y-5933360D01*
X11850540Y-5813360D02*
X11730540Y-5933360D01*
X11790540Y-5813360D02*
X11790540Y-5933360D01*
X11730540Y-5873360D02*
X11850540Y-5873360D01*
X11730540Y-6313360D02*
X11850540Y-6433360D01*
X11850540Y-6313360D02*
X11730540Y-6433360D01*
X11790540Y-6313360D02*
X11790540Y-6433360D01*
X11730540Y-6373360D02*
X11850540Y-6373360D01*
X11730540Y-6813360D02*
X11850540Y-6933360D01*
X11850540Y-6813360D02*
X11730540Y-6933360D01*
X11790540Y-6813360D02*
X11790540Y-6933360D01*
X11730540Y-6873360D02*
X11850540Y-6873360D01*
D15*
X4690090Y-11424400D02*
X4820090Y-11554400D01*
X4820090Y-11424400D02*
X4690090Y-11554400D01*
X4801052Y-11535362D02*
X4801052Y-11443438D01*
X4709128Y-11443438D01*
X4709128Y-11535362D01*
X4801052Y-11535362D01*
X5295090Y-10009400D02*
X5425090Y-10139400D01*
X5425090Y-10009400D02*
X5295090Y-10139400D01*
X5406052Y-10120362D02*
X5406052Y-10028438D01*
X5314128Y-10028438D01*
X5314128Y-10120362D01*
X5406052Y-10120362D01*
X5895090Y-11429400D02*
X6025090Y-11559400D01*
X6025090Y-11429400D02*
X5895090Y-11559400D01*
X6006052Y-11540362D02*
X6006052Y-11448438D01*
X5914128Y-11448438D01*
X5914128Y-11540362D01*
X6006052Y-11540362D01*
X6280830Y-11424400D02*
X6410830Y-11554400D01*
X6410830Y-11424400D02*
X6280830Y-11554400D01*
X6391792Y-11535362D02*
X6391792Y-11443438D01*
X6299868Y-11443438D01*
X6299868Y-11535362D01*
X6391792Y-11535362D01*
X6885830Y-10009400D02*
X7015830Y-10139400D01*
X7015830Y-10009400D02*
X6885830Y-10139400D01*
X6996792Y-10120362D02*
X6996792Y-10028438D01*
X6904868Y-10028438D01*
X6904868Y-10120362D01*
X6996792Y-10120362D01*
X7485830Y-11429400D02*
X7615830Y-11559400D01*
X7615830Y-11429400D02*
X7485830Y-11559400D01*
X7596792Y-11540362D02*
X7596792Y-11448438D01*
X7504868Y-11448438D01*
X7504868Y-11540362D01*
X7596792Y-11540362D01*
X7870870Y-11424400D02*
X8000870Y-11554400D01*
X8000870Y-11424400D02*
X7870870Y-11554400D01*
X7981832Y-11535362D02*
X7981832Y-11443438D01*
X7889908Y-11443438D01*
X7889908Y-11535362D01*
X7981832Y-11535362D01*
X8475870Y-10009400D02*
X8605870Y-10139400D01*
X8605870Y-10009400D02*
X8475870Y-10139400D01*
X8586832Y-10120362D02*
X8586832Y-10028438D01*
X8494908Y-10028438D01*
X8494908Y-10120362D01*
X8586832Y-10120362D01*
X9470240Y-11424400D02*
X9600240Y-11554400D01*
X9600240Y-11424400D02*
X9470240Y-11554400D01*
X9581202Y-11535362D02*
X9581202Y-11443438D01*
X9489278Y-11443438D01*
X9489278Y-11535362D01*
X9581202Y-11535362D01*
X10075240Y-10009400D02*
X10205240Y-10139400D01*
X10205240Y-10009400D02*
X10075240Y-10139400D01*
X10186202Y-10120362D02*
X10186202Y-10028438D01*
X10094278Y-10028438D01*
X10094278Y-10120362D01*
X10186202Y-10120362D01*
D16*
X4395320Y-8551000D02*
X4535320Y-8691000D01*
X4535320Y-8551000D02*
X4395320Y-8691000D01*
X4465320Y-8691000D02*
X4535320Y-8621000D01*
X4465320Y-8551000D01*
X4395320Y-8621000D01*
X4465320Y-8691000D01*
X4395320Y-8947000D02*
X4535320Y-9087000D01*
X4535320Y-8947000D02*
X4395320Y-9087000D01*
X4465320Y-9087000D02*
X4535320Y-9017000D01*
X4465320Y-8947000D01*
X4395320Y-9017000D01*
X4465320Y-9087000D01*
X4634560Y-12386160D02*
X4774560Y-12526160D01*
X4774560Y-12386160D02*
X4634560Y-12526160D01*
X4704560Y-12526160D02*
X4774560Y-12456160D01*
X4704560Y-12386160D01*
X4634560Y-12456160D01*
X4704560Y-12526160D01*
X5030560Y-12386160D02*
X5170560Y-12526160D01*
X5170560Y-12386160D02*
X5030560Y-12526160D01*
X5100560Y-12526160D02*
X5170560Y-12456160D01*
X5100560Y-12386160D01*
X5030560Y-12456160D01*
X5100560Y-12526160D01*
X5426560Y-12386160D02*
X5566560Y-12526160D01*
X5566560Y-12386160D02*
X5426560Y-12526160D01*
X5496560Y-12526160D02*
X5566560Y-12456160D01*
X5496560Y-12386160D01*
X5426560Y-12456160D01*
X5496560Y-12526160D01*
X5822560Y-12386160D02*
X5962560Y-12526160D01*
X5962560Y-12386160D02*
X5822560Y-12526160D01*
X5892560Y-12526160D02*
X5962560Y-12456160D01*
X5892560Y-12386160D01*
X5822560Y-12456160D01*
X5892560Y-12526160D01*
X6218560Y-12386160D02*
X6358560Y-12526160D01*
X6358560Y-12386160D02*
X6218560Y-12526160D01*
X6288560Y-12526160D02*
X6358560Y-12456160D01*
X6288560Y-12386160D01*
X6218560Y-12456160D01*
X6288560Y-12526160D01*
X6614560Y-12386160D02*
X6754560Y-12526160D01*
X6754560Y-12386160D02*
X6614560Y-12526160D01*
X6684560Y-12526160D02*
X6754560Y-12456160D01*
X6684560Y-12386160D01*
X6614560Y-12456160D01*
X6684560Y-12526160D01*
X10714840Y-12086440D02*
X10854840Y-12226440D01*
X10854840Y-12086440D02*
X10714840Y-12226440D01*
X10784840Y-12226440D02*
X10854840Y-12156440D01*
X10784840Y-12086440D01*
X10714840Y-12156440D01*
X10784840Y-12226440D01*
X10714840Y-12482440D02*
X10854840Y-12622440D01*
X10854840Y-12482440D02*
X10714840Y-12622440D01*
X10784840Y-12622440D02*
X10854840Y-12552440D01*
X10784840Y-12482440D01*
X10714840Y-12552440D01*
X10784840Y-12622440D01*
X11339680Y-9922360D02*
X11479680Y-10062360D01*
X11479680Y-9922360D02*
X11339680Y-10062360D01*
X11409680Y-10062360D02*
X11479680Y-9992360D01*
X11409680Y-9922360D01*
X11339680Y-9992360D01*
X11409680Y-10062360D01*
X11339680Y-10430360D02*
X11479680Y-10570360D01*
X11479680Y-10430360D02*
X11339680Y-10570360D01*
X11409680Y-10570360D02*
X11479680Y-10500360D01*
X11409680Y-10430360D01*
X11339680Y-10500360D01*
X11409680Y-10570360D01*
X11339680Y-10938360D02*
X11479680Y-11078360D01*
X11479680Y-10938360D02*
X11339680Y-11078360D01*
X11409680Y-11078360D02*
X11479680Y-11008360D01*
X11409680Y-10938360D01*
X11339680Y-11008360D01*
X11409680Y-11078360D01*
X11339680Y-11446360D02*
X11479680Y-11586360D01*
X11479680Y-11446360D02*
X11339680Y-11586360D01*
X11409680Y-11586360D02*
X11479680Y-11516360D01*
X11409680Y-11446360D01*
X11339680Y-11516360D01*
X11409680Y-11586360D01*
D17*
X9159240Y-8728720D02*
X9159240Y-8888720D01*
X9079240Y-8808720D02*
X9239240Y-8808720D01*
X9239240Y-8808720D02*
G75*
G02*
X9079240Y-8808720I-80000J0D01*
G01*
X9079240Y-8808720D02*
G75*
G02*
X9239240Y-8808720I80000J0D01*
G01*
X9164320Y-8144520D02*
X9164320Y-8304520D01*
X9084320Y-8224520D02*
X9244320Y-8224520D01*
X9244320Y-8224520D02*
G75*
G02*
X9084320Y-8224520I-80000J0D01*
G01*
X9084320Y-8224520D02*
G75*
G02*
X9244320Y-8224520I80000J0D01*
G01*
X10683240Y-8728720D02*
X10683240Y-8888720D01*
X10603240Y-8808720D02*
X10763240Y-8808720D01*
X10763240Y-8808720D02*
G75*
G02*
X10603240Y-8808720I-80000J0D01*
G01*
X10603240Y-8808720D02*
G75*
G02*
X10763240Y-8808720I80000J0D01*
G01*
X10688320Y-8144520D02*
X10688320Y-8304520D01*
X10608320Y-8224520D02*
X10768320Y-8224520D01*
X10768320Y-8224520D02*
G75*
G02*
X10608320Y-8224520I-80000J0D01*
G01*
X10608320Y-8224520D02*
G75*
G02*
X10768320Y-8224520I80000J0D01*
G01*
D12*
X4237337Y-13378444D02*
X4237337Y-13178444D01*
X4237337Y-13178444D02*
X4284956Y-13178444D01*
X4284956Y-13178444D02*
X4313527Y-13187968D01*
X4313527Y-13187968D02*
X4332575Y-13207015D01*
X4332575Y-13207015D02*
X4342099Y-13226063D01*
X4342099Y-13226063D02*
X4351623Y-13264158D01*
X4351623Y-13264158D02*
X4351623Y-13292729D01*
X4351623Y-13292729D02*
X4342099Y-13330825D01*
X4342099Y-13330825D02*
X4332575Y-13349872D01*
X4332575Y-13349872D02*
X4313527Y-13368920D01*
X4313527Y-13368920D02*
X4284956Y-13378444D01*
X4284956Y-13378444D02*
X4237337Y-13378444D01*
X4437337Y-13378444D02*
X4437337Y-13245110D01*
X4437337Y-13283206D02*
X4446861Y-13264158D01*
X4446861Y-13264158D02*
X4456384Y-13254634D01*
X4456384Y-13254634D02*
X4475432Y-13245110D01*
X4475432Y-13245110D02*
X4494480Y-13245110D01*
X4561146Y-13378444D02*
X4561146Y-13245110D01*
X4561146Y-13178444D02*
X4551623Y-13187968D01*
X4551623Y-13187968D02*
X4561146Y-13197491D01*
X4561146Y-13197491D02*
X4570670Y-13187968D01*
X4570670Y-13187968D02*
X4561146Y-13178444D01*
X4561146Y-13178444D02*
X4561146Y-13197491D01*
X4684956Y-13378444D02*
X4665908Y-13368920D01*
X4665908Y-13368920D02*
X4656384Y-13349872D01*
X4656384Y-13349872D02*
X4656384Y-13178444D01*
X4789718Y-13378444D02*
X4770670Y-13368920D01*
X4770670Y-13368920D02*
X4761146Y-13349872D01*
X4761146Y-13349872D02*
X4761146Y-13178444D01*
X5018289Y-13378444D02*
X5018289Y-13178444D01*
X5018289Y-13178444D02*
X5084956Y-13321301D01*
X5084956Y-13321301D02*
X5151623Y-13178444D01*
X5151623Y-13178444D02*
X5151623Y-13378444D01*
X5332575Y-13378444D02*
X5332575Y-13273682D01*
X5332575Y-13273682D02*
X5323051Y-13254634D01*
X5323051Y-13254634D02*
X5304004Y-13245110D01*
X5304004Y-13245110D02*
X5265908Y-13245110D01*
X5265908Y-13245110D02*
X5246861Y-13254634D01*
X5332575Y-13368920D02*
X5313527Y-13378444D01*
X5313527Y-13378444D02*
X5265908Y-13378444D01*
X5265908Y-13378444D02*
X5246861Y-13368920D01*
X5246861Y-13368920D02*
X5237337Y-13349872D01*
X5237337Y-13349872D02*
X5237337Y-13330825D01*
X5237337Y-13330825D02*
X5246861Y-13311777D01*
X5246861Y-13311777D02*
X5265908Y-13302253D01*
X5265908Y-13302253D02*
X5313527Y-13302253D01*
X5313527Y-13302253D02*
X5332575Y-13292729D01*
X5427813Y-13245110D02*
X5427813Y-13445110D01*
X5427813Y-13254634D02*
X5446861Y-13245110D01*
X5446861Y-13245110D02*
X5484956Y-13245110D01*
X5484956Y-13245110D02*
X5504004Y-13254634D01*
X5504004Y-13254634D02*
X5513527Y-13264158D01*
X5513527Y-13264158D02*
X5523051Y-13283206D01*
X5523051Y-13283206D02*
X5523051Y-13340348D01*
X5523051Y-13340348D02*
X5513527Y-13359396D01*
X5513527Y-13359396D02*
X5504004Y-13368920D01*
X5504004Y-13368920D02*
X5484956Y-13378444D01*
X5484956Y-13378444D02*
X5446861Y-13378444D01*
X5446861Y-13378444D02*
X5427813Y-13368920D01*
X5608765Y-13359396D02*
X5618289Y-13368920D01*
X5618289Y-13368920D02*
X5608765Y-13378444D01*
X5608765Y-13378444D02*
X5599242Y-13368920D01*
X5599242Y-13368920D02*
X5608765Y-13359396D01*
X5608765Y-13359396D02*
X5608765Y-13378444D01*
X5608765Y-13254634D02*
X5618289Y-13264158D01*
X5618289Y-13264158D02*
X5608765Y-13273682D01*
X5608765Y-13273682D02*
X5599242Y-13264158D01*
X5599242Y-13264158D02*
X5608765Y-13254634D01*
X5608765Y-13254634D02*
X5608765Y-13273682D01*
D11*
X3946560Y-13691960D02*
X3976560Y-13721960D01*
X3976560Y-13691960D02*
X3946560Y-13721960D01*
D12*
X4275432Y-13598444D02*
X4294480Y-13598444D01*
X4294480Y-13598444D02*
X4313527Y-13607968D01*
X4313527Y-13607968D02*
X4323051Y-13617491D01*
X4323051Y-13617491D02*
X4332575Y-13636539D01*
X4332575Y-13636539D02*
X4342099Y-13674634D01*
X4342099Y-13674634D02*
X4342099Y-13722253D01*
X4342099Y-13722253D02*
X4332575Y-13760348D01*
X4332575Y-13760348D02*
X4323051Y-13779396D01*
X4323051Y-13779396D02*
X4313527Y-13788920D01*
X4313527Y-13788920D02*
X4294480Y-13798444D01*
X4294480Y-13798444D02*
X4275432Y-13798444D01*
X4275432Y-13798444D02*
X4256384Y-13788920D01*
X4256384Y-13788920D02*
X4246861Y-13779396D01*
X4246861Y-13779396D02*
X4237337Y-13760348D01*
X4237337Y-13760348D02*
X4227813Y-13722253D01*
X4227813Y-13722253D02*
X4227813Y-13674634D01*
X4227813Y-13674634D02*
X4237337Y-13636539D01*
X4237337Y-13636539D02*
X4246861Y-13617491D01*
X4246861Y-13617491D02*
X4256384Y-13607968D01*
X4256384Y-13607968D02*
X4275432Y-13598444D01*
X4427813Y-13779396D02*
X4437337Y-13788920D01*
X4437337Y-13788920D02*
X4427813Y-13798444D01*
X4427813Y-13798444D02*
X4418289Y-13788920D01*
X4418289Y-13788920D02*
X4427813Y-13779396D01*
X4427813Y-13779396D02*
X4427813Y-13798444D01*
X4504004Y-13598444D02*
X4627813Y-13598444D01*
X4627813Y-13598444D02*
X4561146Y-13674634D01*
X4561146Y-13674634D02*
X4589718Y-13674634D01*
X4589718Y-13674634D02*
X4608765Y-13684158D01*
X4608765Y-13684158D02*
X4618289Y-13693682D01*
X4618289Y-13693682D02*
X4627813Y-13712729D01*
X4627813Y-13712729D02*
X4627813Y-13760348D01*
X4627813Y-13760348D02*
X4618289Y-13779396D01*
X4618289Y-13779396D02*
X4608765Y-13788920D01*
X4608765Y-13788920D02*
X4589718Y-13798444D01*
X4589718Y-13798444D02*
X4532575Y-13798444D01*
X4532575Y-13798444D02*
X4513527Y-13788920D01*
X4513527Y-13788920D02*
X4504004Y-13779396D01*
X4751623Y-13598444D02*
X4770670Y-13598444D01*
X4770670Y-13598444D02*
X4789718Y-13607968D01*
X4789718Y-13607968D02*
X4799242Y-13617491D01*
X4799242Y-13617491D02*
X4808765Y-13636539D01*
X4808765Y-13636539D02*
X4818289Y-13674634D01*
X4818289Y-13674634D02*
X4818289Y-13722253D01*
X4818289Y-13722253D02*
X4808765Y-13760348D01*
X4808765Y-13760348D02*
X4799242Y-13779396D01*
X4799242Y-13779396D02*
X4789718Y-13788920D01*
X4789718Y-13788920D02*
X4770670Y-13798444D01*
X4770670Y-13798444D02*
X4751623Y-13798444D01*
X4751623Y-13798444D02*
X4732575Y-13788920D01*
X4732575Y-13788920D02*
X4723051Y-13779396D01*
X4723051Y-13779396D02*
X4713527Y-13760348D01*
X4713527Y-13760348D02*
X4704004Y-13722253D01*
X4704004Y-13722253D02*
X4704004Y-13674634D01*
X4704004Y-13674634D02*
X4713527Y-13636539D01*
X4713527Y-13636539D02*
X4723051Y-13617491D01*
X4723051Y-13617491D02*
X4732575Y-13607968D01*
X4732575Y-13607968D02*
X4751623Y-13598444D01*
X4942099Y-13598444D02*
X4961146Y-13598444D01*
X4961146Y-13598444D02*
X4980194Y-13607968D01*
X4980194Y-13607968D02*
X4989718Y-13617491D01*
X4989718Y-13617491D02*
X4999242Y-13636539D01*
X4999242Y-13636539D02*
X5008765Y-13674634D01*
X5008765Y-13674634D02*
X5008765Y-13722253D01*
X5008765Y-13722253D02*
X4999242Y-13760348D01*
X4999242Y-13760348D02*
X4989718Y-13779396D01*
X4989718Y-13779396D02*
X4980194Y-13788920D01*
X4980194Y-13788920D02*
X4961146Y-13798444D01*
X4961146Y-13798444D02*
X4942099Y-13798444D01*
X4942099Y-13798444D02*
X4923051Y-13788920D01*
X4923051Y-13788920D02*
X4913527Y-13779396D01*
X4913527Y-13779396D02*
X4904004Y-13760348D01*
X4904004Y-13760348D02*
X4894480Y-13722253D01*
X4894480Y-13722253D02*
X4894480Y-13674634D01*
X4894480Y-13674634D02*
X4904004Y-13636539D01*
X4904004Y-13636539D02*
X4913527Y-13617491D01*
X4913527Y-13617491D02*
X4923051Y-13607968D01*
X4923051Y-13607968D02*
X4942099Y-13598444D01*
X5094480Y-13798444D02*
X5094480Y-13665110D01*
X5094480Y-13684158D02*
X5104004Y-13674634D01*
X5104004Y-13674634D02*
X5123051Y-13665110D01*
X5123051Y-13665110D02*
X5151623Y-13665110D01*
X5151623Y-13665110D02*
X5170670Y-13674634D01*
X5170670Y-13674634D02*
X5180194Y-13693682D01*
X5180194Y-13693682D02*
X5180194Y-13798444D01*
X5180194Y-13693682D02*
X5189718Y-13674634D01*
X5189718Y-13674634D02*
X5208765Y-13665110D01*
X5208765Y-13665110D02*
X5237337Y-13665110D01*
X5237337Y-13665110D02*
X5256385Y-13674634D01*
X5256385Y-13674634D02*
X5265908Y-13693682D01*
X5265908Y-13693682D02*
X5265908Y-13798444D01*
X5361146Y-13798444D02*
X5361146Y-13665110D01*
X5361146Y-13684158D02*
X5370670Y-13674634D01*
X5370670Y-13674634D02*
X5389718Y-13665110D01*
X5389718Y-13665110D02*
X5418289Y-13665110D01*
X5418289Y-13665110D02*
X5437337Y-13674634D01*
X5437337Y-13674634D02*
X5446861Y-13693682D01*
X5446861Y-13693682D02*
X5446861Y-13798444D01*
X5446861Y-13693682D02*
X5456385Y-13674634D01*
X5456385Y-13674634D02*
X5475432Y-13665110D01*
X5475432Y-13665110D02*
X5504004Y-13665110D01*
X5504004Y-13665110D02*
X5523051Y-13674634D01*
X5523051Y-13674634D02*
X5532575Y-13693682D01*
X5532575Y-13693682D02*
X5532575Y-13798444D01*
X5923051Y-13588920D02*
X5751623Y-13846063D01*
X6180194Y-13598444D02*
X6199242Y-13598444D01*
X6199242Y-13598444D02*
X6218289Y-13607968D01*
X6218289Y-13607968D02*
X6227813Y-13617491D01*
X6227813Y-13617491D02*
X6237337Y-13636539D01*
X6237337Y-13636539D02*
X6246861Y-13674634D01*
X6246861Y-13674634D02*
X6246861Y-13722253D01*
X6246861Y-13722253D02*
X6237337Y-13760348D01*
X6237337Y-13760348D02*
X6227813Y-13779396D01*
X6227813Y-13779396D02*
X6218289Y-13788920D01*
X6218289Y-13788920D02*
X6199242Y-13798444D01*
X6199242Y-13798444D02*
X6180194Y-13798444D01*
X6180194Y-13798444D02*
X6161146Y-13788920D01*
X6161146Y-13788920D02*
X6151623Y-13779396D01*
X6151623Y-13779396D02*
X6142099Y-13760348D01*
X6142099Y-13760348D02*
X6132575Y-13722253D01*
X6132575Y-13722253D02*
X6132575Y-13674634D01*
X6132575Y-13674634D02*
X6142099Y-13636539D01*
X6142099Y-13636539D02*
X6151623Y-13617491D01*
X6151623Y-13617491D02*
X6161146Y-13607968D01*
X6161146Y-13607968D02*
X6180194Y-13598444D01*
X6332575Y-13779396D02*
X6342099Y-13788920D01*
X6342099Y-13788920D02*
X6332575Y-13798444D01*
X6332575Y-13798444D02*
X6323051Y-13788920D01*
X6323051Y-13788920D02*
X6332575Y-13779396D01*
X6332575Y-13779396D02*
X6332575Y-13798444D01*
X6465908Y-13598444D02*
X6484956Y-13598444D01*
X6484956Y-13598444D02*
X6504004Y-13607968D01*
X6504004Y-13607968D02*
X6513527Y-13617491D01*
X6513527Y-13617491D02*
X6523051Y-13636539D01*
X6523051Y-13636539D02*
X6532575Y-13674634D01*
X6532575Y-13674634D02*
X6532575Y-13722253D01*
X6532575Y-13722253D02*
X6523051Y-13760348D01*
X6523051Y-13760348D02*
X6513527Y-13779396D01*
X6513527Y-13779396D02*
X6504004Y-13788920D01*
X6504004Y-13788920D02*
X6484956Y-13798444D01*
X6484956Y-13798444D02*
X6465908Y-13798444D01*
X6465908Y-13798444D02*
X6446861Y-13788920D01*
X6446861Y-13788920D02*
X6437337Y-13779396D01*
X6437337Y-13779396D02*
X6427813Y-13760348D01*
X6427813Y-13760348D02*
X6418289Y-13722253D01*
X6418289Y-13722253D02*
X6418289Y-13674634D01*
X6418289Y-13674634D02*
X6427813Y-13636539D01*
X6427813Y-13636539D02*
X6437337Y-13617491D01*
X6437337Y-13617491D02*
X6446861Y-13607968D01*
X6446861Y-13607968D02*
X6465908Y-13598444D01*
X6723051Y-13798444D02*
X6608766Y-13798444D01*
X6665908Y-13798444D02*
X6665908Y-13598444D01*
X6665908Y-13598444D02*
X6646861Y-13627015D01*
X6646861Y-13627015D02*
X6627813Y-13646063D01*
X6627813Y-13646063D02*
X6608766Y-13655587D01*
X6913527Y-13798444D02*
X6799242Y-13798444D01*
X6856385Y-13798444D02*
X6856385Y-13598444D01*
X6856385Y-13598444D02*
X6837337Y-13627015D01*
X6837337Y-13627015D02*
X6818289Y-13646063D01*
X6818289Y-13646063D02*
X6799242Y-13655587D01*
X7027813Y-13684158D02*
X7008766Y-13674634D01*
X7008766Y-13674634D02*
X6999242Y-13665110D01*
X6999242Y-13665110D02*
X6989718Y-13646063D01*
X6989718Y-13646063D02*
X6989718Y-13636539D01*
X6989718Y-13636539D02*
X6999242Y-13617491D01*
X6999242Y-13617491D02*
X7008766Y-13607968D01*
X7008766Y-13607968D02*
X7027813Y-13598444D01*
X7027813Y-13598444D02*
X7065908Y-13598444D01*
X7065908Y-13598444D02*
X7084956Y-13607968D01*
X7084956Y-13607968D02*
X7094480Y-13617491D01*
X7094480Y-13617491D02*
X7104004Y-13636539D01*
X7104004Y-13636539D02*
X7104004Y-13646063D01*
X7104004Y-13646063D02*
X7094480Y-13665110D01*
X7094480Y-13665110D02*
X7084956Y-13674634D01*
X7084956Y-13674634D02*
X7065908Y-13684158D01*
X7065908Y-13684158D02*
X7027813Y-13684158D01*
X7027813Y-13684158D02*
X7008766Y-13693682D01*
X7008766Y-13693682D02*
X6999242Y-13703206D01*
X6999242Y-13703206D02*
X6989718Y-13722253D01*
X6989718Y-13722253D02*
X6989718Y-13760348D01*
X6989718Y-13760348D02*
X6999242Y-13779396D01*
X6999242Y-13779396D02*
X7008766Y-13788920D01*
X7008766Y-13788920D02*
X7027813Y-13798444D01*
X7027813Y-13798444D02*
X7065908Y-13798444D01*
X7065908Y-13798444D02*
X7084956Y-13788920D01*
X7084956Y-13788920D02*
X7094480Y-13779396D01*
X7094480Y-13779396D02*
X7104004Y-13760348D01*
X7104004Y-13760348D02*
X7104004Y-13722253D01*
X7104004Y-13722253D02*
X7094480Y-13703206D01*
X7094480Y-13703206D02*
X7084956Y-13693682D01*
X7084956Y-13693682D02*
X7065908Y-13684158D01*
X7180194Y-13598444D02*
X7180194Y-13636539D01*
X7256385Y-13598444D02*
X7256385Y-13636539D01*
X7551623Y-13874634D02*
X7542099Y-13865110D01*
X7542099Y-13865110D02*
X7523051Y-13836539D01*
X7523051Y-13836539D02*
X7513528Y-13817491D01*
X7513528Y-13817491D02*
X7504004Y-13788920D01*
X7504004Y-13788920D02*
X7494480Y-13741301D01*
X7494480Y-13741301D02*
X7494480Y-13703206D01*
X7494480Y-13703206D02*
X7504004Y-13655587D01*
X7504004Y-13655587D02*
X7513528Y-13627015D01*
X7513528Y-13627015D02*
X7523051Y-13607968D01*
X7523051Y-13607968D02*
X7542099Y-13579396D01*
X7542099Y-13579396D02*
X7551623Y-13569872D01*
X7713528Y-13665110D02*
X7713528Y-13798444D01*
X7665908Y-13588920D02*
X7618289Y-13731777D01*
X7618289Y-13731777D02*
X7742099Y-13731777D01*
X7856385Y-13598444D02*
X7875432Y-13598444D01*
X7875432Y-13598444D02*
X7894480Y-13607968D01*
X7894480Y-13607968D02*
X7904004Y-13617491D01*
X7904004Y-13617491D02*
X7913528Y-13636539D01*
X7913528Y-13636539D02*
X7923051Y-13674634D01*
X7923051Y-13674634D02*
X7923051Y-13722253D01*
X7923051Y-13722253D02*
X7913528Y-13760348D01*
X7913528Y-13760348D02*
X7904004Y-13779396D01*
X7904004Y-13779396D02*
X7894480Y-13788920D01*
X7894480Y-13788920D02*
X7875432Y-13798444D01*
X7875432Y-13798444D02*
X7856385Y-13798444D01*
X7856385Y-13798444D02*
X7837337Y-13788920D01*
X7837337Y-13788920D02*
X7827813Y-13779396D01*
X7827813Y-13779396D02*
X7818289Y-13760348D01*
X7818289Y-13760348D02*
X7808766Y-13722253D01*
X7808766Y-13722253D02*
X7808766Y-13674634D01*
X7808766Y-13674634D02*
X7818289Y-13636539D01*
X7818289Y-13636539D02*
X7827813Y-13617491D01*
X7827813Y-13617491D02*
X7837337Y-13607968D01*
X7837337Y-13607968D02*
X7856385Y-13598444D01*
X8113528Y-13798444D02*
X7999242Y-13798444D01*
X8056385Y-13798444D02*
X8056385Y-13598444D01*
X8056385Y-13598444D02*
X8037337Y-13627015D01*
X8037337Y-13627015D02*
X8018289Y-13646063D01*
X8018289Y-13646063D02*
X7999242Y-13655587D01*
X8351623Y-13798444D02*
X8351623Y-13598444D01*
X8437337Y-13798444D02*
X8437337Y-13693682D01*
X8437337Y-13693682D02*
X8427813Y-13674634D01*
X8427813Y-13674634D02*
X8408766Y-13665110D01*
X8408766Y-13665110D02*
X8380194Y-13665110D01*
X8380194Y-13665110D02*
X8361147Y-13674634D01*
X8361147Y-13674634D02*
X8351623Y-13684158D01*
X8561147Y-13798444D02*
X8542099Y-13788920D01*
X8542099Y-13788920D02*
X8532575Y-13779396D01*
X8532575Y-13779396D02*
X8523052Y-13760348D01*
X8523052Y-13760348D02*
X8523052Y-13703206D01*
X8523052Y-13703206D02*
X8532575Y-13684158D01*
X8532575Y-13684158D02*
X8542099Y-13674634D01*
X8542099Y-13674634D02*
X8561147Y-13665110D01*
X8561147Y-13665110D02*
X8589718Y-13665110D01*
X8589718Y-13665110D02*
X8608766Y-13674634D01*
X8608766Y-13674634D02*
X8618290Y-13684158D01*
X8618290Y-13684158D02*
X8627813Y-13703206D01*
X8627813Y-13703206D02*
X8627813Y-13760348D01*
X8627813Y-13760348D02*
X8618290Y-13779396D01*
X8618290Y-13779396D02*
X8608766Y-13788920D01*
X8608766Y-13788920D02*
X8589718Y-13798444D01*
X8589718Y-13798444D02*
X8561147Y-13798444D01*
X8742099Y-13798444D02*
X8723052Y-13788920D01*
X8723052Y-13788920D02*
X8713528Y-13769872D01*
X8713528Y-13769872D02*
X8713528Y-13598444D01*
X8894480Y-13788920D02*
X8875433Y-13798444D01*
X8875433Y-13798444D02*
X8837337Y-13798444D01*
X8837337Y-13798444D02*
X8818290Y-13788920D01*
X8818290Y-13788920D02*
X8808766Y-13769872D01*
X8808766Y-13769872D02*
X8808766Y-13693682D01*
X8808766Y-13693682D02*
X8818290Y-13674634D01*
X8818290Y-13674634D02*
X8837337Y-13665110D01*
X8837337Y-13665110D02*
X8875433Y-13665110D01*
X8875433Y-13665110D02*
X8894480Y-13674634D01*
X8894480Y-13674634D02*
X8904004Y-13693682D01*
X8904004Y-13693682D02*
X8904004Y-13712729D01*
X8904004Y-13712729D02*
X8808766Y-13731777D01*
X8980194Y-13788920D02*
X8999242Y-13798444D01*
X8999242Y-13798444D02*
X9037337Y-13798444D01*
X9037337Y-13798444D02*
X9056385Y-13788920D01*
X9056385Y-13788920D02*
X9065909Y-13769872D01*
X9065909Y-13769872D02*
X9065909Y-13760348D01*
X9065909Y-13760348D02*
X9056385Y-13741301D01*
X9056385Y-13741301D02*
X9037337Y-13731777D01*
X9037337Y-13731777D02*
X9008766Y-13731777D01*
X9008766Y-13731777D02*
X8989718Y-13722253D01*
X8989718Y-13722253D02*
X8980194Y-13703206D01*
X8980194Y-13703206D02*
X8980194Y-13693682D01*
X8980194Y-13693682D02*
X8989718Y-13674634D01*
X8989718Y-13674634D02*
X9008766Y-13665110D01*
X9008766Y-13665110D02*
X9037337Y-13665110D01*
X9037337Y-13665110D02*
X9056385Y-13674634D01*
X9132575Y-13874634D02*
X9142099Y-13865110D01*
X9142099Y-13865110D02*
X9161147Y-13836539D01*
X9161147Y-13836539D02*
X9170671Y-13817491D01*
X9170671Y-13817491D02*
X9180194Y-13788920D01*
X9180194Y-13788920D02*
X9189718Y-13741301D01*
X9189718Y-13741301D02*
X9189718Y-13703206D01*
X9189718Y-13703206D02*
X9180194Y-13655587D01*
X9180194Y-13655587D02*
X9170671Y-13627015D01*
X9170671Y-13627015D02*
X9161147Y-13607968D01*
X9161147Y-13607968D02*
X9142099Y-13579396D01*
X9142099Y-13579396D02*
X9132575Y-13569872D01*
D11*
X3976560Y-13970960D02*
G75*
G02*
X3936560Y-13970960I-20000J0D01*
G01*
X3936560Y-13970960D02*
G75*
G02*
X3976560Y-13970960I20000J0D01*
G01*
D12*
X4275432Y-13862444D02*
X4294480Y-13862444D01*
X4294480Y-13862444D02*
X4313527Y-13871968D01*
X4313527Y-13871968D02*
X4323051Y-13881491D01*
X4323051Y-13881491D02*
X4332575Y-13900539D01*
X4332575Y-13900539D02*
X4342099Y-13938634D01*
X4342099Y-13938634D02*
X4342099Y-13986253D01*
X4342099Y-13986253D02*
X4332575Y-14024348D01*
X4332575Y-14024348D02*
X4323051Y-14043396D01*
X4323051Y-14043396D02*
X4313527Y-14052920D01*
X4313527Y-14052920D02*
X4294480Y-14062444D01*
X4294480Y-14062444D02*
X4275432Y-14062444D01*
X4275432Y-14062444D02*
X4256384Y-14052920D01*
X4256384Y-14052920D02*
X4246861Y-14043396D01*
X4246861Y-14043396D02*
X4237337Y-14024348D01*
X4237337Y-14024348D02*
X4227813Y-13986253D01*
X4227813Y-13986253D02*
X4227813Y-13938634D01*
X4227813Y-13938634D02*
X4237337Y-13900539D01*
X4237337Y-13900539D02*
X4246861Y-13881491D01*
X4246861Y-13881491D02*
X4256384Y-13871968D01*
X4256384Y-13871968D02*
X4275432Y-13862444D01*
X4427813Y-14043396D02*
X4437337Y-14052920D01*
X4437337Y-14052920D02*
X4427813Y-14062444D01*
X4427813Y-14062444D02*
X4418289Y-14052920D01*
X4418289Y-14052920D02*
X4427813Y-14043396D01*
X4427813Y-14043396D02*
X4427813Y-14062444D01*
X4608765Y-13929110D02*
X4608765Y-14062444D01*
X4561146Y-13852920D02*
X4513527Y-13995777D01*
X4513527Y-13995777D02*
X4637337Y-13995777D01*
X4751623Y-13862444D02*
X4770670Y-13862444D01*
X4770670Y-13862444D02*
X4789718Y-13871968D01*
X4789718Y-13871968D02*
X4799242Y-13881491D01*
X4799242Y-13881491D02*
X4808765Y-13900539D01*
X4808765Y-13900539D02*
X4818289Y-13938634D01*
X4818289Y-13938634D02*
X4818289Y-13986253D01*
X4818289Y-13986253D02*
X4808765Y-14024348D01*
X4808765Y-14024348D02*
X4799242Y-14043396D01*
X4799242Y-14043396D02*
X4789718Y-14052920D01*
X4789718Y-14052920D02*
X4770670Y-14062444D01*
X4770670Y-14062444D02*
X4751623Y-14062444D01*
X4751623Y-14062444D02*
X4732575Y-14052920D01*
X4732575Y-14052920D02*
X4723051Y-14043396D01*
X4723051Y-14043396D02*
X4713527Y-14024348D01*
X4713527Y-14024348D02*
X4704004Y-13986253D01*
X4704004Y-13986253D02*
X4704004Y-13938634D01*
X4704004Y-13938634D02*
X4713527Y-13900539D01*
X4713527Y-13900539D02*
X4723051Y-13881491D01*
X4723051Y-13881491D02*
X4732575Y-13871968D01*
X4732575Y-13871968D02*
X4751623Y-13862444D01*
X4942099Y-13862444D02*
X4961146Y-13862444D01*
X4961146Y-13862444D02*
X4980194Y-13871968D01*
X4980194Y-13871968D02*
X4989718Y-13881491D01*
X4989718Y-13881491D02*
X4999242Y-13900539D01*
X4999242Y-13900539D02*
X5008765Y-13938634D01*
X5008765Y-13938634D02*
X5008765Y-13986253D01*
X5008765Y-13986253D02*
X4999242Y-14024348D01*
X4999242Y-14024348D02*
X4989718Y-14043396D01*
X4989718Y-14043396D02*
X4980194Y-14052920D01*
X4980194Y-14052920D02*
X4961146Y-14062444D01*
X4961146Y-14062444D02*
X4942099Y-14062444D01*
X4942099Y-14062444D02*
X4923051Y-14052920D01*
X4923051Y-14052920D02*
X4913527Y-14043396D01*
X4913527Y-14043396D02*
X4904004Y-14024348D01*
X4904004Y-14024348D02*
X4894480Y-13986253D01*
X4894480Y-13986253D02*
X4894480Y-13938634D01*
X4894480Y-13938634D02*
X4904004Y-13900539D01*
X4904004Y-13900539D02*
X4913527Y-13881491D01*
X4913527Y-13881491D02*
X4923051Y-13871968D01*
X4923051Y-13871968D02*
X4942099Y-13862444D01*
X5094480Y-14062444D02*
X5094480Y-13929110D01*
X5094480Y-13948158D02*
X5104004Y-13938634D01*
X5104004Y-13938634D02*
X5123051Y-13929110D01*
X5123051Y-13929110D02*
X5151623Y-13929110D01*
X5151623Y-13929110D02*
X5170670Y-13938634D01*
X5170670Y-13938634D02*
X5180194Y-13957682D01*
X5180194Y-13957682D02*
X5180194Y-14062444D01*
X5180194Y-13957682D02*
X5189718Y-13938634D01*
X5189718Y-13938634D02*
X5208765Y-13929110D01*
X5208765Y-13929110D02*
X5237337Y-13929110D01*
X5237337Y-13929110D02*
X5256385Y-13938634D01*
X5256385Y-13938634D02*
X5265908Y-13957682D01*
X5265908Y-13957682D02*
X5265908Y-14062444D01*
X5361146Y-14062444D02*
X5361146Y-13929110D01*
X5361146Y-13948158D02*
X5370670Y-13938634D01*
X5370670Y-13938634D02*
X5389718Y-13929110D01*
X5389718Y-13929110D02*
X5418289Y-13929110D01*
X5418289Y-13929110D02*
X5437337Y-13938634D01*
X5437337Y-13938634D02*
X5446861Y-13957682D01*
X5446861Y-13957682D02*
X5446861Y-14062444D01*
X5446861Y-13957682D02*
X5456385Y-13938634D01*
X5456385Y-13938634D02*
X5475432Y-13929110D01*
X5475432Y-13929110D02*
X5504004Y-13929110D01*
X5504004Y-13929110D02*
X5523051Y-13938634D01*
X5523051Y-13938634D02*
X5532575Y-13957682D01*
X5532575Y-13957682D02*
X5532575Y-14062444D01*
X5923051Y-13852920D02*
X5751623Y-14110063D01*
X6180194Y-13862444D02*
X6199242Y-13862444D01*
X6199242Y-13862444D02*
X6218289Y-13871968D01*
X6218289Y-13871968D02*
X6227813Y-13881491D01*
X6227813Y-13881491D02*
X6237337Y-13900539D01*
X6237337Y-13900539D02*
X6246861Y-13938634D01*
X6246861Y-13938634D02*
X6246861Y-13986253D01*
X6246861Y-13986253D02*
X6237337Y-14024348D01*
X6237337Y-14024348D02*
X6227813Y-14043396D01*
X6227813Y-14043396D02*
X6218289Y-14052920D01*
X6218289Y-14052920D02*
X6199242Y-14062444D01*
X6199242Y-14062444D02*
X6180194Y-14062444D01*
X6180194Y-14062444D02*
X6161146Y-14052920D01*
X6161146Y-14052920D02*
X6151623Y-14043396D01*
X6151623Y-14043396D02*
X6142099Y-14024348D01*
X6142099Y-14024348D02*
X6132575Y-13986253D01*
X6132575Y-13986253D02*
X6132575Y-13938634D01*
X6132575Y-13938634D02*
X6142099Y-13900539D01*
X6142099Y-13900539D02*
X6151623Y-13881491D01*
X6151623Y-13881491D02*
X6161146Y-13871968D01*
X6161146Y-13871968D02*
X6180194Y-13862444D01*
X6332575Y-14043396D02*
X6342099Y-14052920D01*
X6342099Y-14052920D02*
X6332575Y-14062444D01*
X6332575Y-14062444D02*
X6323051Y-14052920D01*
X6323051Y-14052920D02*
X6332575Y-14043396D01*
X6332575Y-14043396D02*
X6332575Y-14062444D01*
X6465908Y-13862444D02*
X6484956Y-13862444D01*
X6484956Y-13862444D02*
X6504004Y-13871968D01*
X6504004Y-13871968D02*
X6513527Y-13881491D01*
X6513527Y-13881491D02*
X6523051Y-13900539D01*
X6523051Y-13900539D02*
X6532575Y-13938634D01*
X6532575Y-13938634D02*
X6532575Y-13986253D01*
X6532575Y-13986253D02*
X6523051Y-14024348D01*
X6523051Y-14024348D02*
X6513527Y-14043396D01*
X6513527Y-14043396D02*
X6504004Y-14052920D01*
X6504004Y-14052920D02*
X6484956Y-14062444D01*
X6484956Y-14062444D02*
X6465908Y-14062444D01*
X6465908Y-14062444D02*
X6446861Y-14052920D01*
X6446861Y-14052920D02*
X6437337Y-14043396D01*
X6437337Y-14043396D02*
X6427813Y-14024348D01*
X6427813Y-14024348D02*
X6418289Y-13986253D01*
X6418289Y-13986253D02*
X6418289Y-13938634D01*
X6418289Y-13938634D02*
X6427813Y-13900539D01*
X6427813Y-13900539D02*
X6437337Y-13881491D01*
X6437337Y-13881491D02*
X6446861Y-13871968D01*
X6446861Y-13871968D02*
X6465908Y-13862444D01*
X6723051Y-14062444D02*
X6608766Y-14062444D01*
X6665908Y-14062444D02*
X6665908Y-13862444D01*
X6665908Y-13862444D02*
X6646861Y-13891015D01*
X6646861Y-13891015D02*
X6627813Y-13910063D01*
X6627813Y-13910063D02*
X6608766Y-13919587D01*
X6904004Y-13862444D02*
X6808766Y-13862444D01*
X6808766Y-13862444D02*
X6799242Y-13957682D01*
X6799242Y-13957682D02*
X6808766Y-13948158D01*
X6808766Y-13948158D02*
X6827813Y-13938634D01*
X6827813Y-13938634D02*
X6875432Y-13938634D01*
X6875432Y-13938634D02*
X6894480Y-13948158D01*
X6894480Y-13948158D02*
X6904004Y-13957682D01*
X6904004Y-13957682D02*
X6913527Y-13976729D01*
X6913527Y-13976729D02*
X6913527Y-14024348D01*
X6913527Y-14024348D02*
X6904004Y-14043396D01*
X6904004Y-14043396D02*
X6894480Y-14052920D01*
X6894480Y-14052920D02*
X6875432Y-14062444D01*
X6875432Y-14062444D02*
X6827813Y-14062444D01*
X6827813Y-14062444D02*
X6808766Y-14052920D01*
X6808766Y-14052920D02*
X6799242Y-14043396D01*
X6980194Y-13862444D02*
X7113527Y-13862444D01*
X7113527Y-13862444D02*
X7027813Y-14062444D01*
X7180194Y-13862444D02*
X7180194Y-13900539D01*
X7256385Y-13862444D02*
X7256385Y-13900539D01*
X7551623Y-14138634D02*
X7542099Y-14129110D01*
X7542099Y-14129110D02*
X7523051Y-14100539D01*
X7523051Y-14100539D02*
X7513528Y-14081491D01*
X7513528Y-14081491D02*
X7504004Y-14052920D01*
X7504004Y-14052920D02*
X7494480Y-14005301D01*
X7494480Y-14005301D02*
X7494480Y-13967206D01*
X7494480Y-13967206D02*
X7504004Y-13919587D01*
X7504004Y-13919587D02*
X7513528Y-13891015D01*
X7513528Y-13891015D02*
X7523051Y-13871968D01*
X7523051Y-13871968D02*
X7542099Y-13843396D01*
X7542099Y-13843396D02*
X7551623Y-13833872D01*
X7637337Y-14062444D02*
X7675432Y-14062444D01*
X7675432Y-14062444D02*
X7694480Y-14052920D01*
X7694480Y-14052920D02*
X7704004Y-14043396D01*
X7704004Y-14043396D02*
X7723051Y-14014825D01*
X7723051Y-14014825D02*
X7732575Y-13976729D01*
X7732575Y-13976729D02*
X7732575Y-13900539D01*
X7732575Y-13900539D02*
X7723051Y-13881491D01*
X7723051Y-13881491D02*
X7713528Y-13871968D01*
X7713528Y-13871968D02*
X7694480Y-13862444D01*
X7694480Y-13862444D02*
X7656385Y-13862444D01*
X7656385Y-13862444D02*
X7637337Y-13871968D01*
X7637337Y-13871968D02*
X7627813Y-13881491D01*
X7627813Y-13881491D02*
X7618289Y-13900539D01*
X7618289Y-13900539D02*
X7618289Y-13948158D01*
X7618289Y-13948158D02*
X7627813Y-13967206D01*
X7627813Y-13967206D02*
X7637337Y-13976729D01*
X7637337Y-13976729D02*
X7656385Y-13986253D01*
X7656385Y-13986253D02*
X7694480Y-13986253D01*
X7694480Y-13986253D02*
X7713528Y-13976729D01*
X7713528Y-13976729D02*
X7723051Y-13967206D01*
X7723051Y-13967206D02*
X7732575Y-13948158D01*
X7970670Y-14062444D02*
X7970670Y-13862444D01*
X8056385Y-14062444D02*
X8056385Y-13957682D01*
X8056385Y-13957682D02*
X8046861Y-13938634D01*
X8046861Y-13938634D02*
X8027813Y-13929110D01*
X8027813Y-13929110D02*
X7999242Y-13929110D01*
X7999242Y-13929110D02*
X7980194Y-13938634D01*
X7980194Y-13938634D02*
X7970670Y-13948158D01*
X8180194Y-14062444D02*
X8161147Y-14052920D01*
X8161147Y-14052920D02*
X8151623Y-14043396D01*
X8151623Y-14043396D02*
X8142099Y-14024348D01*
X8142099Y-14024348D02*
X8142099Y-13967206D01*
X8142099Y-13967206D02*
X8151623Y-13948158D01*
X8151623Y-13948158D02*
X8161147Y-13938634D01*
X8161147Y-13938634D02*
X8180194Y-13929110D01*
X8180194Y-13929110D02*
X8208766Y-13929110D01*
X8208766Y-13929110D02*
X8227813Y-13938634D01*
X8227813Y-13938634D02*
X8237337Y-13948158D01*
X8237337Y-13948158D02*
X8246861Y-13967206D01*
X8246861Y-13967206D02*
X8246861Y-14024348D01*
X8246861Y-14024348D02*
X8237337Y-14043396D01*
X8237337Y-14043396D02*
X8227813Y-14052920D01*
X8227813Y-14052920D02*
X8208766Y-14062444D01*
X8208766Y-14062444D02*
X8180194Y-14062444D01*
X8361147Y-14062444D02*
X8342099Y-14052920D01*
X8342099Y-14052920D02*
X8332575Y-14033872D01*
X8332575Y-14033872D02*
X8332575Y-13862444D01*
X8513528Y-14052920D02*
X8494480Y-14062444D01*
X8494480Y-14062444D02*
X8456385Y-14062444D01*
X8456385Y-14062444D02*
X8437337Y-14052920D01*
X8437337Y-14052920D02*
X8427813Y-14033872D01*
X8427813Y-14033872D02*
X8427813Y-13957682D01*
X8427813Y-13957682D02*
X8437337Y-13938634D01*
X8437337Y-13938634D02*
X8456385Y-13929110D01*
X8456385Y-13929110D02*
X8494480Y-13929110D01*
X8494480Y-13929110D02*
X8513528Y-13938634D01*
X8513528Y-13938634D02*
X8523052Y-13957682D01*
X8523052Y-13957682D02*
X8523052Y-13976729D01*
X8523052Y-13976729D02*
X8427813Y-13995777D01*
X8599242Y-14052920D02*
X8618290Y-14062444D01*
X8618290Y-14062444D02*
X8656385Y-14062444D01*
X8656385Y-14062444D02*
X8675433Y-14052920D01*
X8675433Y-14052920D02*
X8684956Y-14033872D01*
X8684956Y-14033872D02*
X8684956Y-14024348D01*
X8684956Y-14024348D02*
X8675433Y-14005301D01*
X8675433Y-14005301D02*
X8656385Y-13995777D01*
X8656385Y-13995777D02*
X8627813Y-13995777D01*
X8627813Y-13995777D02*
X8608766Y-13986253D01*
X8608766Y-13986253D02*
X8599242Y-13967206D01*
X8599242Y-13967206D02*
X8599242Y-13957682D01*
X8599242Y-13957682D02*
X8608766Y-13938634D01*
X8608766Y-13938634D02*
X8627813Y-13929110D01*
X8627813Y-13929110D02*
X8656385Y-13929110D01*
X8656385Y-13929110D02*
X8675433Y-13938634D01*
X8751623Y-14138634D02*
X8761147Y-14129110D01*
X8761147Y-14129110D02*
X8780194Y-14100539D01*
X8780194Y-14100539D02*
X8789718Y-14081491D01*
X8789718Y-14081491D02*
X8799242Y-14052920D01*
X8799242Y-14052920D02*
X8808766Y-14005301D01*
X8808766Y-14005301D02*
X8808766Y-13967206D01*
X8808766Y-13967206D02*
X8799242Y-13919587D01*
X8799242Y-13919587D02*
X8789718Y-13891015D01*
X8789718Y-13891015D02*
X8780194Y-13871968D01*
X8780194Y-13871968D02*
X8761147Y-13843396D01*
X8761147Y-13843396D02*
X8751623Y-13833872D01*
D11*
X3946560Y-14204960D02*
X3946560Y-14264960D01*
X3916560Y-14234960D02*
X3976560Y-14234960D01*
D12*
X4275432Y-14126444D02*
X4294480Y-14126444D01*
X4294480Y-14126444D02*
X4313527Y-14135968D01*
X4313527Y-14135968D02*
X4323051Y-14145491D01*
X4323051Y-14145491D02*
X4332575Y-14164539D01*
X4332575Y-14164539D02*
X4342099Y-14202634D01*
X4342099Y-14202634D02*
X4342099Y-14250253D01*
X4342099Y-14250253D02*
X4332575Y-14288348D01*
X4332575Y-14288348D02*
X4323051Y-14307396D01*
X4323051Y-14307396D02*
X4313527Y-14316920D01*
X4313527Y-14316920D02*
X4294480Y-14326444D01*
X4294480Y-14326444D02*
X4275432Y-14326444D01*
X4275432Y-14326444D02*
X4256384Y-14316920D01*
X4256384Y-14316920D02*
X4246861Y-14307396D01*
X4246861Y-14307396D02*
X4237337Y-14288348D01*
X4237337Y-14288348D02*
X4227813Y-14250253D01*
X4227813Y-14250253D02*
X4227813Y-14202634D01*
X4227813Y-14202634D02*
X4237337Y-14164539D01*
X4237337Y-14164539D02*
X4246861Y-14145491D01*
X4246861Y-14145491D02*
X4256384Y-14135968D01*
X4256384Y-14135968D02*
X4275432Y-14126444D01*
X4427813Y-14307396D02*
X4437337Y-14316920D01*
X4437337Y-14316920D02*
X4427813Y-14326444D01*
X4427813Y-14326444D02*
X4418289Y-14316920D01*
X4418289Y-14316920D02*
X4427813Y-14307396D01*
X4427813Y-14307396D02*
X4427813Y-14326444D01*
X4608765Y-14126444D02*
X4570670Y-14126444D01*
X4570670Y-14126444D02*
X4551623Y-14135968D01*
X4551623Y-14135968D02*
X4542099Y-14145491D01*
X4542099Y-14145491D02*
X4523051Y-14174063D01*
X4523051Y-14174063D02*
X4513527Y-14212158D01*
X4513527Y-14212158D02*
X4513527Y-14288348D01*
X4513527Y-14288348D02*
X4523051Y-14307396D01*
X4523051Y-14307396D02*
X4532575Y-14316920D01*
X4532575Y-14316920D02*
X4551623Y-14326444D01*
X4551623Y-14326444D02*
X4589718Y-14326444D01*
X4589718Y-14326444D02*
X4608765Y-14316920D01*
X4608765Y-14316920D02*
X4618289Y-14307396D01*
X4618289Y-14307396D02*
X4627813Y-14288348D01*
X4627813Y-14288348D02*
X4627813Y-14240729D01*
X4627813Y-14240729D02*
X4618289Y-14221682D01*
X4618289Y-14221682D02*
X4608765Y-14212158D01*
X4608765Y-14212158D02*
X4589718Y-14202634D01*
X4589718Y-14202634D02*
X4551623Y-14202634D01*
X4551623Y-14202634D02*
X4532575Y-14212158D01*
X4532575Y-14212158D02*
X4523051Y-14221682D01*
X4523051Y-14221682D02*
X4513527Y-14240729D01*
X4751623Y-14126444D02*
X4770670Y-14126444D01*
X4770670Y-14126444D02*
X4789718Y-14135968D01*
X4789718Y-14135968D02*
X4799242Y-14145491D01*
X4799242Y-14145491D02*
X4808765Y-14164539D01*
X4808765Y-14164539D02*
X4818289Y-14202634D01*
X4818289Y-14202634D02*
X4818289Y-14250253D01*
X4818289Y-14250253D02*
X4808765Y-14288348D01*
X4808765Y-14288348D02*
X4799242Y-14307396D01*
X4799242Y-14307396D02*
X4789718Y-14316920D01*
X4789718Y-14316920D02*
X4770670Y-14326444D01*
X4770670Y-14326444D02*
X4751623Y-14326444D01*
X4751623Y-14326444D02*
X4732575Y-14316920D01*
X4732575Y-14316920D02*
X4723051Y-14307396D01*
X4723051Y-14307396D02*
X4713527Y-14288348D01*
X4713527Y-14288348D02*
X4704004Y-14250253D01*
X4704004Y-14250253D02*
X4704004Y-14202634D01*
X4704004Y-14202634D02*
X4713527Y-14164539D01*
X4713527Y-14164539D02*
X4723051Y-14145491D01*
X4723051Y-14145491D02*
X4732575Y-14135968D01*
X4732575Y-14135968D02*
X4751623Y-14126444D01*
X4942099Y-14126444D02*
X4961146Y-14126444D01*
X4961146Y-14126444D02*
X4980194Y-14135968D01*
X4980194Y-14135968D02*
X4989718Y-14145491D01*
X4989718Y-14145491D02*
X4999242Y-14164539D01*
X4999242Y-14164539D02*
X5008765Y-14202634D01*
X5008765Y-14202634D02*
X5008765Y-14250253D01*
X5008765Y-14250253D02*
X4999242Y-14288348D01*
X4999242Y-14288348D02*
X4989718Y-14307396D01*
X4989718Y-14307396D02*
X4980194Y-14316920D01*
X4980194Y-14316920D02*
X4961146Y-14326444D01*
X4961146Y-14326444D02*
X4942099Y-14326444D01*
X4942099Y-14326444D02*
X4923051Y-14316920D01*
X4923051Y-14316920D02*
X4913527Y-14307396D01*
X4913527Y-14307396D02*
X4904004Y-14288348D01*
X4904004Y-14288348D02*
X4894480Y-14250253D01*
X4894480Y-14250253D02*
X4894480Y-14202634D01*
X4894480Y-14202634D02*
X4904004Y-14164539D01*
X4904004Y-14164539D02*
X4913527Y-14145491D01*
X4913527Y-14145491D02*
X4923051Y-14135968D01*
X4923051Y-14135968D02*
X4942099Y-14126444D01*
X5094480Y-14326444D02*
X5094480Y-14193110D01*
X5094480Y-14212158D02*
X5104004Y-14202634D01*
X5104004Y-14202634D02*
X5123051Y-14193110D01*
X5123051Y-14193110D02*
X5151623Y-14193110D01*
X5151623Y-14193110D02*
X5170670Y-14202634D01*
X5170670Y-14202634D02*
X5180194Y-14221682D01*
X5180194Y-14221682D02*
X5180194Y-14326444D01*
X5180194Y-14221682D02*
X5189718Y-14202634D01*
X5189718Y-14202634D02*
X5208765Y-14193110D01*
X5208765Y-14193110D02*
X5237337Y-14193110D01*
X5237337Y-14193110D02*
X5256385Y-14202634D01*
X5256385Y-14202634D02*
X5265908Y-14221682D01*
X5265908Y-14221682D02*
X5265908Y-14326444D01*
X5361146Y-14326444D02*
X5361146Y-14193110D01*
X5361146Y-14212158D02*
X5370670Y-14202634D01*
X5370670Y-14202634D02*
X5389718Y-14193110D01*
X5389718Y-14193110D02*
X5418289Y-14193110D01*
X5418289Y-14193110D02*
X5437337Y-14202634D01*
X5437337Y-14202634D02*
X5446861Y-14221682D01*
X5446861Y-14221682D02*
X5446861Y-14326444D01*
X5446861Y-14221682D02*
X5456385Y-14202634D01*
X5456385Y-14202634D02*
X5475432Y-14193110D01*
X5475432Y-14193110D02*
X5504004Y-14193110D01*
X5504004Y-14193110D02*
X5523051Y-14202634D01*
X5523051Y-14202634D02*
X5532575Y-14221682D01*
X5532575Y-14221682D02*
X5532575Y-14326444D01*
X5923051Y-14116920D02*
X5751623Y-14374063D01*
X6180194Y-14126444D02*
X6199242Y-14126444D01*
X6199242Y-14126444D02*
X6218289Y-14135968D01*
X6218289Y-14135968D02*
X6227813Y-14145491D01*
X6227813Y-14145491D02*
X6237337Y-14164539D01*
X6237337Y-14164539D02*
X6246861Y-14202634D01*
X6246861Y-14202634D02*
X6246861Y-14250253D01*
X6246861Y-14250253D02*
X6237337Y-14288348D01*
X6237337Y-14288348D02*
X6227813Y-14307396D01*
X6227813Y-14307396D02*
X6218289Y-14316920D01*
X6218289Y-14316920D02*
X6199242Y-14326444D01*
X6199242Y-14326444D02*
X6180194Y-14326444D01*
X6180194Y-14326444D02*
X6161146Y-14316920D01*
X6161146Y-14316920D02*
X6151623Y-14307396D01*
X6151623Y-14307396D02*
X6142099Y-14288348D01*
X6142099Y-14288348D02*
X6132575Y-14250253D01*
X6132575Y-14250253D02*
X6132575Y-14202634D01*
X6132575Y-14202634D02*
X6142099Y-14164539D01*
X6142099Y-14164539D02*
X6151623Y-14145491D01*
X6151623Y-14145491D02*
X6161146Y-14135968D01*
X6161146Y-14135968D02*
X6180194Y-14126444D01*
X6332575Y-14307396D02*
X6342099Y-14316920D01*
X6342099Y-14316920D02*
X6332575Y-14326444D01*
X6332575Y-14326444D02*
X6323051Y-14316920D01*
X6323051Y-14316920D02*
X6332575Y-14307396D01*
X6332575Y-14307396D02*
X6332575Y-14326444D01*
X6465908Y-14126444D02*
X6484956Y-14126444D01*
X6484956Y-14126444D02*
X6504004Y-14135968D01*
X6504004Y-14135968D02*
X6513527Y-14145491D01*
X6513527Y-14145491D02*
X6523051Y-14164539D01*
X6523051Y-14164539D02*
X6532575Y-14202634D01*
X6532575Y-14202634D02*
X6532575Y-14250253D01*
X6532575Y-14250253D02*
X6523051Y-14288348D01*
X6523051Y-14288348D02*
X6513527Y-14307396D01*
X6513527Y-14307396D02*
X6504004Y-14316920D01*
X6504004Y-14316920D02*
X6484956Y-14326444D01*
X6484956Y-14326444D02*
X6465908Y-14326444D01*
X6465908Y-14326444D02*
X6446861Y-14316920D01*
X6446861Y-14316920D02*
X6437337Y-14307396D01*
X6437337Y-14307396D02*
X6427813Y-14288348D01*
X6427813Y-14288348D02*
X6418289Y-14250253D01*
X6418289Y-14250253D02*
X6418289Y-14202634D01*
X6418289Y-14202634D02*
X6427813Y-14164539D01*
X6427813Y-14164539D02*
X6437337Y-14145491D01*
X6437337Y-14145491D02*
X6446861Y-14135968D01*
X6446861Y-14135968D02*
X6465908Y-14126444D01*
X6608766Y-14145491D02*
X6618289Y-14135968D01*
X6618289Y-14135968D02*
X6637337Y-14126444D01*
X6637337Y-14126444D02*
X6684956Y-14126444D01*
X6684956Y-14126444D02*
X6704004Y-14135968D01*
X6704004Y-14135968D02*
X6713527Y-14145491D01*
X6713527Y-14145491D02*
X6723051Y-14164539D01*
X6723051Y-14164539D02*
X6723051Y-14183587D01*
X6723051Y-14183587D02*
X6713527Y-14212158D01*
X6713527Y-14212158D02*
X6599242Y-14326444D01*
X6599242Y-14326444D02*
X6723051Y-14326444D01*
X6789718Y-14126444D02*
X6913527Y-14126444D01*
X6913527Y-14126444D02*
X6846861Y-14202634D01*
X6846861Y-14202634D02*
X6875432Y-14202634D01*
X6875432Y-14202634D02*
X6894480Y-14212158D01*
X6894480Y-14212158D02*
X6904004Y-14221682D01*
X6904004Y-14221682D02*
X6913527Y-14240729D01*
X6913527Y-14240729D02*
X6913527Y-14288348D01*
X6913527Y-14288348D02*
X6904004Y-14307396D01*
X6904004Y-14307396D02*
X6894480Y-14316920D01*
X6894480Y-14316920D02*
X6875432Y-14326444D01*
X6875432Y-14326444D02*
X6818289Y-14326444D01*
X6818289Y-14326444D02*
X6799242Y-14316920D01*
X6799242Y-14316920D02*
X6789718Y-14307396D01*
X7084956Y-14126444D02*
X7046861Y-14126444D01*
X7046861Y-14126444D02*
X7027813Y-14135968D01*
X7027813Y-14135968D02*
X7018289Y-14145491D01*
X7018289Y-14145491D02*
X6999242Y-14174063D01*
X6999242Y-14174063D02*
X6989718Y-14212158D01*
X6989718Y-14212158D02*
X6989718Y-14288348D01*
X6989718Y-14288348D02*
X6999242Y-14307396D01*
X6999242Y-14307396D02*
X7008766Y-14316920D01*
X7008766Y-14316920D02*
X7027813Y-14326444D01*
X7027813Y-14326444D02*
X7065908Y-14326444D01*
X7065908Y-14326444D02*
X7084956Y-14316920D01*
X7084956Y-14316920D02*
X7094480Y-14307396D01*
X7094480Y-14307396D02*
X7104004Y-14288348D01*
X7104004Y-14288348D02*
X7104004Y-14240729D01*
X7104004Y-14240729D02*
X7094480Y-14221682D01*
X7094480Y-14221682D02*
X7084956Y-14212158D01*
X7084956Y-14212158D02*
X7065908Y-14202634D01*
X7065908Y-14202634D02*
X7027813Y-14202634D01*
X7027813Y-14202634D02*
X7008766Y-14212158D01*
X7008766Y-14212158D02*
X6999242Y-14221682D01*
X6999242Y-14221682D02*
X6989718Y-14240729D01*
X7180194Y-14126444D02*
X7180194Y-14164539D01*
X7256385Y-14126444D02*
X7256385Y-14164539D01*
X7551623Y-14402634D02*
X7542099Y-14393110D01*
X7542099Y-14393110D02*
X7523051Y-14364539D01*
X7523051Y-14364539D02*
X7513528Y-14345491D01*
X7513528Y-14345491D02*
X7504004Y-14316920D01*
X7504004Y-14316920D02*
X7494480Y-14269301D01*
X7494480Y-14269301D02*
X7494480Y-14231206D01*
X7494480Y-14231206D02*
X7504004Y-14183587D01*
X7504004Y-14183587D02*
X7513528Y-14155015D01*
X7513528Y-14155015D02*
X7523051Y-14135968D01*
X7523051Y-14135968D02*
X7542099Y-14107396D01*
X7542099Y-14107396D02*
X7551623Y-14097872D01*
X7713528Y-14126444D02*
X7675432Y-14126444D01*
X7675432Y-14126444D02*
X7656385Y-14135968D01*
X7656385Y-14135968D02*
X7646861Y-14145491D01*
X7646861Y-14145491D02*
X7627813Y-14174063D01*
X7627813Y-14174063D02*
X7618289Y-14212158D01*
X7618289Y-14212158D02*
X7618289Y-14288348D01*
X7618289Y-14288348D02*
X7627813Y-14307396D01*
X7627813Y-14307396D02*
X7637337Y-14316920D01*
X7637337Y-14316920D02*
X7656385Y-14326444D01*
X7656385Y-14326444D02*
X7694480Y-14326444D01*
X7694480Y-14326444D02*
X7713528Y-14316920D01*
X7713528Y-14316920D02*
X7723051Y-14307396D01*
X7723051Y-14307396D02*
X7732575Y-14288348D01*
X7732575Y-14288348D02*
X7732575Y-14240729D01*
X7732575Y-14240729D02*
X7723051Y-14221682D01*
X7723051Y-14221682D02*
X7713528Y-14212158D01*
X7713528Y-14212158D02*
X7694480Y-14202634D01*
X7694480Y-14202634D02*
X7656385Y-14202634D01*
X7656385Y-14202634D02*
X7637337Y-14212158D01*
X7637337Y-14212158D02*
X7627813Y-14221682D01*
X7627813Y-14221682D02*
X7618289Y-14240729D01*
X7970670Y-14326444D02*
X7970670Y-14126444D01*
X8056385Y-14326444D02*
X8056385Y-14221682D01*
X8056385Y-14221682D02*
X8046861Y-14202634D01*
X8046861Y-14202634D02*
X8027813Y-14193110D01*
X8027813Y-14193110D02*
X7999242Y-14193110D01*
X7999242Y-14193110D02*
X7980194Y-14202634D01*
X7980194Y-14202634D02*
X7970670Y-14212158D01*
X8180194Y-14326444D02*
X8161147Y-14316920D01*
X8161147Y-14316920D02*
X8151623Y-14307396D01*
X8151623Y-14307396D02*
X8142099Y-14288348D01*
X8142099Y-14288348D02*
X8142099Y-14231206D01*
X8142099Y-14231206D02*
X8151623Y-14212158D01*
X8151623Y-14212158D02*
X8161147Y-14202634D01*
X8161147Y-14202634D02*
X8180194Y-14193110D01*
X8180194Y-14193110D02*
X8208766Y-14193110D01*
X8208766Y-14193110D02*
X8227813Y-14202634D01*
X8227813Y-14202634D02*
X8237337Y-14212158D01*
X8237337Y-14212158D02*
X8246861Y-14231206D01*
X8246861Y-14231206D02*
X8246861Y-14288348D01*
X8246861Y-14288348D02*
X8237337Y-14307396D01*
X8237337Y-14307396D02*
X8227813Y-14316920D01*
X8227813Y-14316920D02*
X8208766Y-14326444D01*
X8208766Y-14326444D02*
X8180194Y-14326444D01*
X8361147Y-14326444D02*
X8342099Y-14316920D01*
X8342099Y-14316920D02*
X8332575Y-14297872D01*
X8332575Y-14297872D02*
X8332575Y-14126444D01*
X8513528Y-14316920D02*
X8494480Y-14326444D01*
X8494480Y-14326444D02*
X8456385Y-14326444D01*
X8456385Y-14326444D02*
X8437337Y-14316920D01*
X8437337Y-14316920D02*
X8427813Y-14297872D01*
X8427813Y-14297872D02*
X8427813Y-14221682D01*
X8427813Y-14221682D02*
X8437337Y-14202634D01*
X8437337Y-14202634D02*
X8456385Y-14193110D01*
X8456385Y-14193110D02*
X8494480Y-14193110D01*
X8494480Y-14193110D02*
X8513528Y-14202634D01*
X8513528Y-14202634D02*
X8523052Y-14221682D01*
X8523052Y-14221682D02*
X8523052Y-14240729D01*
X8523052Y-14240729D02*
X8427813Y-14259777D01*
X8599242Y-14316920D02*
X8618290Y-14326444D01*
X8618290Y-14326444D02*
X8656385Y-14326444D01*
X8656385Y-14326444D02*
X8675433Y-14316920D01*
X8675433Y-14316920D02*
X8684956Y-14297872D01*
X8684956Y-14297872D02*
X8684956Y-14288348D01*
X8684956Y-14288348D02*
X8675433Y-14269301D01*
X8675433Y-14269301D02*
X8656385Y-14259777D01*
X8656385Y-14259777D02*
X8627813Y-14259777D01*
X8627813Y-14259777D02*
X8608766Y-14250253D01*
X8608766Y-14250253D02*
X8599242Y-14231206D01*
X8599242Y-14231206D02*
X8599242Y-14221682D01*
X8599242Y-14221682D02*
X8608766Y-14202634D01*
X8608766Y-14202634D02*
X8627813Y-14193110D01*
X8627813Y-14193110D02*
X8656385Y-14193110D01*
X8656385Y-14193110D02*
X8675433Y-14202634D01*
X8751623Y-14402634D02*
X8761147Y-14393110D01*
X8761147Y-14393110D02*
X8780194Y-14364539D01*
X8780194Y-14364539D02*
X8789718Y-14345491D01*
X8789718Y-14345491D02*
X8799242Y-14316920D01*
X8799242Y-14316920D02*
X8808766Y-14269301D01*
X8808766Y-14269301D02*
X8808766Y-14231206D01*
X8808766Y-14231206D02*
X8799242Y-14183587D01*
X8799242Y-14183587D02*
X8789718Y-14155015D01*
X8789718Y-14155015D02*
X8780194Y-14135968D01*
X8780194Y-14135968D02*
X8761147Y-14107396D01*
X8761147Y-14107396D02*
X8751623Y-14097872D01*
D11*
X3964844Y-14527244D02*
X3964844Y-14470675D01*
X3908275Y-14470675D01*
X3908275Y-14527244D01*
X3964844Y-14527244D01*
D12*
X4275432Y-14390444D02*
X4294480Y-14390444D01*
X4294480Y-14390444D02*
X4313527Y-14399968D01*
X4313527Y-14399968D02*
X4323051Y-14409491D01*
X4323051Y-14409491D02*
X4332575Y-14428539D01*
X4332575Y-14428539D02*
X4342099Y-14466634D01*
X4342099Y-14466634D02*
X4342099Y-14514253D01*
X4342099Y-14514253D02*
X4332575Y-14552348D01*
X4332575Y-14552348D02*
X4323051Y-14571396D01*
X4323051Y-14571396D02*
X4313527Y-14580920D01*
X4313527Y-14580920D02*
X4294480Y-14590444D01*
X4294480Y-14590444D02*
X4275432Y-14590444D01*
X4275432Y-14590444D02*
X4256384Y-14580920D01*
X4256384Y-14580920D02*
X4246861Y-14571396D01*
X4246861Y-14571396D02*
X4237337Y-14552348D01*
X4237337Y-14552348D02*
X4227813Y-14514253D01*
X4227813Y-14514253D02*
X4227813Y-14466634D01*
X4227813Y-14466634D02*
X4237337Y-14428539D01*
X4237337Y-14428539D02*
X4246861Y-14409491D01*
X4246861Y-14409491D02*
X4256384Y-14399968D01*
X4256384Y-14399968D02*
X4275432Y-14390444D01*
X4427813Y-14571396D02*
X4437337Y-14580920D01*
X4437337Y-14580920D02*
X4427813Y-14590444D01*
X4427813Y-14590444D02*
X4418289Y-14580920D01*
X4418289Y-14580920D02*
X4427813Y-14571396D01*
X4427813Y-14571396D02*
X4427813Y-14590444D01*
X4551623Y-14476158D02*
X4532575Y-14466634D01*
X4532575Y-14466634D02*
X4523051Y-14457110D01*
X4523051Y-14457110D02*
X4513527Y-14438063D01*
X4513527Y-14438063D02*
X4513527Y-14428539D01*
X4513527Y-14428539D02*
X4523051Y-14409491D01*
X4523051Y-14409491D02*
X4532575Y-14399968D01*
X4532575Y-14399968D02*
X4551623Y-14390444D01*
X4551623Y-14390444D02*
X4589718Y-14390444D01*
X4589718Y-14390444D02*
X4608765Y-14399968D01*
X4608765Y-14399968D02*
X4618289Y-14409491D01*
X4618289Y-14409491D02*
X4627813Y-14428539D01*
X4627813Y-14428539D02*
X4627813Y-14438063D01*
X4627813Y-14438063D02*
X4618289Y-14457110D01*
X4618289Y-14457110D02*
X4608765Y-14466634D01*
X4608765Y-14466634D02*
X4589718Y-14476158D01*
X4589718Y-14476158D02*
X4551623Y-14476158D01*
X4551623Y-14476158D02*
X4532575Y-14485682D01*
X4532575Y-14485682D02*
X4523051Y-14495206D01*
X4523051Y-14495206D02*
X4513527Y-14514253D01*
X4513527Y-14514253D02*
X4513527Y-14552348D01*
X4513527Y-14552348D02*
X4523051Y-14571396D01*
X4523051Y-14571396D02*
X4532575Y-14580920D01*
X4532575Y-14580920D02*
X4551623Y-14590444D01*
X4551623Y-14590444D02*
X4589718Y-14590444D01*
X4589718Y-14590444D02*
X4608765Y-14580920D01*
X4608765Y-14580920D02*
X4618289Y-14571396D01*
X4618289Y-14571396D02*
X4627813Y-14552348D01*
X4627813Y-14552348D02*
X4627813Y-14514253D01*
X4627813Y-14514253D02*
X4618289Y-14495206D01*
X4618289Y-14495206D02*
X4608765Y-14485682D01*
X4608765Y-14485682D02*
X4589718Y-14476158D01*
X4751623Y-14390444D02*
X4770670Y-14390444D01*
X4770670Y-14390444D02*
X4789718Y-14399968D01*
X4789718Y-14399968D02*
X4799242Y-14409491D01*
X4799242Y-14409491D02*
X4808765Y-14428539D01*
X4808765Y-14428539D02*
X4818289Y-14466634D01*
X4818289Y-14466634D02*
X4818289Y-14514253D01*
X4818289Y-14514253D02*
X4808765Y-14552348D01*
X4808765Y-14552348D02*
X4799242Y-14571396D01*
X4799242Y-14571396D02*
X4789718Y-14580920D01*
X4789718Y-14580920D02*
X4770670Y-14590444D01*
X4770670Y-14590444D02*
X4751623Y-14590444D01*
X4751623Y-14590444D02*
X4732575Y-14580920D01*
X4732575Y-14580920D02*
X4723051Y-14571396D01*
X4723051Y-14571396D02*
X4713527Y-14552348D01*
X4713527Y-14552348D02*
X4704004Y-14514253D01*
X4704004Y-14514253D02*
X4704004Y-14466634D01*
X4704004Y-14466634D02*
X4713527Y-14428539D01*
X4713527Y-14428539D02*
X4723051Y-14409491D01*
X4723051Y-14409491D02*
X4732575Y-14399968D01*
X4732575Y-14399968D02*
X4751623Y-14390444D01*
X4942099Y-14390444D02*
X4961146Y-14390444D01*
X4961146Y-14390444D02*
X4980194Y-14399968D01*
X4980194Y-14399968D02*
X4989718Y-14409491D01*
X4989718Y-14409491D02*
X4999242Y-14428539D01*
X4999242Y-14428539D02*
X5008765Y-14466634D01*
X5008765Y-14466634D02*
X5008765Y-14514253D01*
X5008765Y-14514253D02*
X4999242Y-14552348D01*
X4999242Y-14552348D02*
X4989718Y-14571396D01*
X4989718Y-14571396D02*
X4980194Y-14580920D01*
X4980194Y-14580920D02*
X4961146Y-14590444D01*
X4961146Y-14590444D02*
X4942099Y-14590444D01*
X4942099Y-14590444D02*
X4923051Y-14580920D01*
X4923051Y-14580920D02*
X4913527Y-14571396D01*
X4913527Y-14571396D02*
X4904004Y-14552348D01*
X4904004Y-14552348D02*
X4894480Y-14514253D01*
X4894480Y-14514253D02*
X4894480Y-14466634D01*
X4894480Y-14466634D02*
X4904004Y-14428539D01*
X4904004Y-14428539D02*
X4913527Y-14409491D01*
X4913527Y-14409491D02*
X4923051Y-14399968D01*
X4923051Y-14399968D02*
X4942099Y-14390444D01*
X5094480Y-14590444D02*
X5094480Y-14457110D01*
X5094480Y-14476158D02*
X5104004Y-14466634D01*
X5104004Y-14466634D02*
X5123051Y-14457110D01*
X5123051Y-14457110D02*
X5151623Y-14457110D01*
X5151623Y-14457110D02*
X5170670Y-14466634D01*
X5170670Y-14466634D02*
X5180194Y-14485682D01*
X5180194Y-14485682D02*
X5180194Y-14590444D01*
X5180194Y-14485682D02*
X5189718Y-14466634D01*
X5189718Y-14466634D02*
X5208765Y-14457110D01*
X5208765Y-14457110D02*
X5237337Y-14457110D01*
X5237337Y-14457110D02*
X5256385Y-14466634D01*
X5256385Y-14466634D02*
X5265908Y-14485682D01*
X5265908Y-14485682D02*
X5265908Y-14590444D01*
X5361146Y-14590444D02*
X5361146Y-14457110D01*
X5361146Y-14476158D02*
X5370670Y-14466634D01*
X5370670Y-14466634D02*
X5389718Y-14457110D01*
X5389718Y-14457110D02*
X5418289Y-14457110D01*
X5418289Y-14457110D02*
X5437337Y-14466634D01*
X5437337Y-14466634D02*
X5446861Y-14485682D01*
X5446861Y-14485682D02*
X5446861Y-14590444D01*
X5446861Y-14485682D02*
X5456385Y-14466634D01*
X5456385Y-14466634D02*
X5475432Y-14457110D01*
X5475432Y-14457110D02*
X5504004Y-14457110D01*
X5504004Y-14457110D02*
X5523051Y-14466634D01*
X5523051Y-14466634D02*
X5532575Y-14485682D01*
X5532575Y-14485682D02*
X5532575Y-14590444D01*
X5923051Y-14380920D02*
X5751623Y-14638063D01*
X6180194Y-14390444D02*
X6199242Y-14390444D01*
X6199242Y-14390444D02*
X6218289Y-14399968D01*
X6218289Y-14399968D02*
X6227813Y-14409491D01*
X6227813Y-14409491D02*
X6237337Y-14428539D01*
X6237337Y-14428539D02*
X6246861Y-14466634D01*
X6246861Y-14466634D02*
X6246861Y-14514253D01*
X6246861Y-14514253D02*
X6237337Y-14552348D01*
X6237337Y-14552348D02*
X6227813Y-14571396D01*
X6227813Y-14571396D02*
X6218289Y-14580920D01*
X6218289Y-14580920D02*
X6199242Y-14590444D01*
X6199242Y-14590444D02*
X6180194Y-14590444D01*
X6180194Y-14590444D02*
X6161146Y-14580920D01*
X6161146Y-14580920D02*
X6151623Y-14571396D01*
X6151623Y-14571396D02*
X6142099Y-14552348D01*
X6142099Y-14552348D02*
X6132575Y-14514253D01*
X6132575Y-14514253D02*
X6132575Y-14466634D01*
X6132575Y-14466634D02*
X6142099Y-14428539D01*
X6142099Y-14428539D02*
X6151623Y-14409491D01*
X6151623Y-14409491D02*
X6161146Y-14399968D01*
X6161146Y-14399968D02*
X6180194Y-14390444D01*
X6332575Y-14571396D02*
X6342099Y-14580920D01*
X6342099Y-14580920D02*
X6332575Y-14590444D01*
X6332575Y-14590444D02*
X6323051Y-14580920D01*
X6323051Y-14580920D02*
X6332575Y-14571396D01*
X6332575Y-14571396D02*
X6332575Y-14590444D01*
X6465908Y-14390444D02*
X6484956Y-14390444D01*
X6484956Y-14390444D02*
X6504004Y-14399968D01*
X6504004Y-14399968D02*
X6513527Y-14409491D01*
X6513527Y-14409491D02*
X6523051Y-14428539D01*
X6523051Y-14428539D02*
X6532575Y-14466634D01*
X6532575Y-14466634D02*
X6532575Y-14514253D01*
X6532575Y-14514253D02*
X6523051Y-14552348D01*
X6523051Y-14552348D02*
X6513527Y-14571396D01*
X6513527Y-14571396D02*
X6504004Y-14580920D01*
X6504004Y-14580920D02*
X6484956Y-14590444D01*
X6484956Y-14590444D02*
X6465908Y-14590444D01*
X6465908Y-14590444D02*
X6446861Y-14580920D01*
X6446861Y-14580920D02*
X6437337Y-14571396D01*
X6437337Y-14571396D02*
X6427813Y-14552348D01*
X6427813Y-14552348D02*
X6418289Y-14514253D01*
X6418289Y-14514253D02*
X6418289Y-14466634D01*
X6418289Y-14466634D02*
X6427813Y-14428539D01*
X6427813Y-14428539D02*
X6437337Y-14409491D01*
X6437337Y-14409491D02*
X6446861Y-14399968D01*
X6446861Y-14399968D02*
X6465908Y-14390444D01*
X6599242Y-14390444D02*
X6723051Y-14390444D01*
X6723051Y-14390444D02*
X6656385Y-14466634D01*
X6656385Y-14466634D02*
X6684956Y-14466634D01*
X6684956Y-14466634D02*
X6704004Y-14476158D01*
X6704004Y-14476158D02*
X6713527Y-14485682D01*
X6713527Y-14485682D02*
X6723051Y-14504729D01*
X6723051Y-14504729D02*
X6723051Y-14552348D01*
X6723051Y-14552348D02*
X6713527Y-14571396D01*
X6713527Y-14571396D02*
X6704004Y-14580920D01*
X6704004Y-14580920D02*
X6684956Y-14590444D01*
X6684956Y-14590444D02*
X6627813Y-14590444D01*
X6627813Y-14590444D02*
X6608766Y-14580920D01*
X6608766Y-14580920D02*
X6599242Y-14571396D01*
X6913527Y-14590444D02*
X6799242Y-14590444D01*
X6856385Y-14590444D02*
X6856385Y-14390444D01*
X6856385Y-14390444D02*
X6837337Y-14419015D01*
X6837337Y-14419015D02*
X6818289Y-14438063D01*
X6818289Y-14438063D02*
X6799242Y-14447587D01*
X7094480Y-14390444D02*
X6999242Y-14390444D01*
X6999242Y-14390444D02*
X6989718Y-14485682D01*
X6989718Y-14485682D02*
X6999242Y-14476158D01*
X6999242Y-14476158D02*
X7018289Y-14466634D01*
X7018289Y-14466634D02*
X7065908Y-14466634D01*
X7065908Y-14466634D02*
X7084956Y-14476158D01*
X7084956Y-14476158D02*
X7094480Y-14485682D01*
X7094480Y-14485682D02*
X7104004Y-14504729D01*
X7104004Y-14504729D02*
X7104004Y-14552348D01*
X7104004Y-14552348D02*
X7094480Y-14571396D01*
X7094480Y-14571396D02*
X7084956Y-14580920D01*
X7084956Y-14580920D02*
X7065908Y-14590444D01*
X7065908Y-14590444D02*
X7018289Y-14590444D01*
X7018289Y-14590444D02*
X6999242Y-14580920D01*
X6999242Y-14580920D02*
X6989718Y-14571396D01*
X7180194Y-14390444D02*
X7180194Y-14428539D01*
X7256385Y-14390444D02*
X7256385Y-14428539D01*
X7551623Y-14666634D02*
X7542099Y-14657110D01*
X7542099Y-14657110D02*
X7523051Y-14628539D01*
X7523051Y-14628539D02*
X7513528Y-14609491D01*
X7513528Y-14609491D02*
X7504004Y-14580920D01*
X7504004Y-14580920D02*
X7494480Y-14533301D01*
X7494480Y-14533301D02*
X7494480Y-14495206D01*
X7494480Y-14495206D02*
X7504004Y-14447587D01*
X7504004Y-14447587D02*
X7513528Y-14419015D01*
X7513528Y-14419015D02*
X7523051Y-14399968D01*
X7523051Y-14399968D02*
X7542099Y-14371396D01*
X7542099Y-14371396D02*
X7551623Y-14361872D01*
X7608766Y-14390444D02*
X7732575Y-14390444D01*
X7732575Y-14390444D02*
X7665908Y-14466634D01*
X7665908Y-14466634D02*
X7694480Y-14466634D01*
X7694480Y-14466634D02*
X7713528Y-14476158D01*
X7713528Y-14476158D02*
X7723051Y-14485682D01*
X7723051Y-14485682D02*
X7732575Y-14504729D01*
X7732575Y-14504729D02*
X7732575Y-14552348D01*
X7732575Y-14552348D02*
X7723051Y-14571396D01*
X7723051Y-14571396D02*
X7713528Y-14580920D01*
X7713528Y-14580920D02*
X7694480Y-14590444D01*
X7694480Y-14590444D02*
X7637337Y-14590444D01*
X7637337Y-14590444D02*
X7618289Y-14580920D01*
X7618289Y-14580920D02*
X7608766Y-14571396D01*
X7856385Y-14390444D02*
X7875432Y-14390444D01*
X7875432Y-14390444D02*
X7894480Y-14399968D01*
X7894480Y-14399968D02*
X7904004Y-14409491D01*
X7904004Y-14409491D02*
X7913528Y-14428539D01*
X7913528Y-14428539D02*
X7923051Y-14466634D01*
X7923051Y-14466634D02*
X7923051Y-14514253D01*
X7923051Y-14514253D02*
X7913528Y-14552348D01*
X7913528Y-14552348D02*
X7904004Y-14571396D01*
X7904004Y-14571396D02*
X7894480Y-14580920D01*
X7894480Y-14580920D02*
X7875432Y-14590444D01*
X7875432Y-14590444D02*
X7856385Y-14590444D01*
X7856385Y-14590444D02*
X7837337Y-14580920D01*
X7837337Y-14580920D02*
X7827813Y-14571396D01*
X7827813Y-14571396D02*
X7818289Y-14552348D01*
X7818289Y-14552348D02*
X7808766Y-14514253D01*
X7808766Y-14514253D02*
X7808766Y-14466634D01*
X7808766Y-14466634D02*
X7818289Y-14428539D01*
X7818289Y-14428539D02*
X7827813Y-14409491D01*
X7827813Y-14409491D02*
X7837337Y-14399968D01*
X7837337Y-14399968D02*
X7856385Y-14390444D01*
X8161147Y-14590444D02*
X8161147Y-14390444D01*
X8246861Y-14590444D02*
X8246861Y-14485682D01*
X8246861Y-14485682D02*
X8237337Y-14466634D01*
X8237337Y-14466634D02*
X8218290Y-14457110D01*
X8218290Y-14457110D02*
X8189718Y-14457110D01*
X8189718Y-14457110D02*
X8170670Y-14466634D01*
X8170670Y-14466634D02*
X8161147Y-14476158D01*
X8370670Y-14590444D02*
X8351623Y-14580920D01*
X8351623Y-14580920D02*
X8342099Y-14571396D01*
X8342099Y-14571396D02*
X8332575Y-14552348D01*
X8332575Y-14552348D02*
X8332575Y-14495206D01*
X8332575Y-14495206D02*
X8342099Y-14476158D01*
X8342099Y-14476158D02*
X8351623Y-14466634D01*
X8351623Y-14466634D02*
X8370670Y-14457110D01*
X8370670Y-14457110D02*
X8399242Y-14457110D01*
X8399242Y-14457110D02*
X8418290Y-14466634D01*
X8418290Y-14466634D02*
X8427813Y-14476158D01*
X8427813Y-14476158D02*
X8437337Y-14495206D01*
X8437337Y-14495206D02*
X8437337Y-14552348D01*
X8437337Y-14552348D02*
X8427813Y-14571396D01*
X8427813Y-14571396D02*
X8418290Y-14580920D01*
X8418290Y-14580920D02*
X8399242Y-14590444D01*
X8399242Y-14590444D02*
X8370670Y-14590444D01*
X8551623Y-14590444D02*
X8532575Y-14580920D01*
X8532575Y-14580920D02*
X8523052Y-14561872D01*
X8523052Y-14561872D02*
X8523052Y-14390444D01*
X8704004Y-14580920D02*
X8684956Y-14590444D01*
X8684956Y-14590444D02*
X8646861Y-14590444D01*
X8646861Y-14590444D02*
X8627813Y-14580920D01*
X8627813Y-14580920D02*
X8618290Y-14561872D01*
X8618290Y-14561872D02*
X8618290Y-14485682D01*
X8618290Y-14485682D02*
X8627813Y-14466634D01*
X8627813Y-14466634D02*
X8646861Y-14457110D01*
X8646861Y-14457110D02*
X8684956Y-14457110D01*
X8684956Y-14457110D02*
X8704004Y-14466634D01*
X8704004Y-14466634D02*
X8713528Y-14485682D01*
X8713528Y-14485682D02*
X8713528Y-14504729D01*
X8713528Y-14504729D02*
X8618290Y-14523777D01*
X8789718Y-14580920D02*
X8808766Y-14590444D01*
X8808766Y-14590444D02*
X8846861Y-14590444D01*
X8846861Y-14590444D02*
X8865909Y-14580920D01*
X8865909Y-14580920D02*
X8875433Y-14561872D01*
X8875433Y-14561872D02*
X8875433Y-14552348D01*
X8875433Y-14552348D02*
X8865909Y-14533301D01*
X8865909Y-14533301D02*
X8846861Y-14523777D01*
X8846861Y-14523777D02*
X8818290Y-14523777D01*
X8818290Y-14523777D02*
X8799242Y-14514253D01*
X8799242Y-14514253D02*
X8789718Y-14495206D01*
X8789718Y-14495206D02*
X8789718Y-14485682D01*
X8789718Y-14485682D02*
X8799242Y-14466634D01*
X8799242Y-14466634D02*
X8818290Y-14457110D01*
X8818290Y-14457110D02*
X8846861Y-14457110D01*
X8846861Y-14457110D02*
X8865909Y-14466634D01*
X8942099Y-14666634D02*
X8951623Y-14657110D01*
X8951623Y-14657110D02*
X8970671Y-14628539D01*
X8970671Y-14628539D02*
X8980194Y-14609491D01*
X8980194Y-14609491D02*
X8989718Y-14580920D01*
X8989718Y-14580920D02*
X8999242Y-14533301D01*
X8999242Y-14533301D02*
X8999242Y-14495206D01*
X8999242Y-14495206D02*
X8989718Y-14447587D01*
X8989718Y-14447587D02*
X8980194Y-14419015D01*
X8980194Y-14419015D02*
X8970671Y-14399968D01*
X8970671Y-14399968D02*
X8951623Y-14371396D01*
X8951623Y-14371396D02*
X8942099Y-14361872D01*
D11*
X3926560Y-14812960D02*
X3976560Y-14762960D01*
X3926560Y-14712960D01*
X3876560Y-14762960D01*
X3926560Y-14812960D01*
D12*
X4342099Y-14854444D02*
X4227813Y-14854444D01*
X4284956Y-14854444D02*
X4284956Y-14654444D01*
X4284956Y-14654444D02*
X4265908Y-14683015D01*
X4265908Y-14683015D02*
X4246861Y-14702063D01*
X4246861Y-14702063D02*
X4227813Y-14711587D01*
X4427813Y-14835396D02*
X4437337Y-14844920D01*
X4437337Y-14844920D02*
X4427813Y-14854444D01*
X4427813Y-14854444D02*
X4418289Y-14844920D01*
X4418289Y-14844920D02*
X4427813Y-14835396D01*
X4427813Y-14835396D02*
X4427813Y-14854444D01*
X4561146Y-14654444D02*
X4580194Y-14654444D01*
X4580194Y-14654444D02*
X4599242Y-14663968D01*
X4599242Y-14663968D02*
X4608765Y-14673491D01*
X4608765Y-14673491D02*
X4618289Y-14692539D01*
X4618289Y-14692539D02*
X4627813Y-14730634D01*
X4627813Y-14730634D02*
X4627813Y-14778253D01*
X4627813Y-14778253D02*
X4618289Y-14816348D01*
X4618289Y-14816348D02*
X4608765Y-14835396D01*
X4608765Y-14835396D02*
X4599242Y-14844920D01*
X4599242Y-14844920D02*
X4580194Y-14854444D01*
X4580194Y-14854444D02*
X4561146Y-14854444D01*
X4561146Y-14854444D02*
X4542099Y-14844920D01*
X4542099Y-14844920D02*
X4532575Y-14835396D01*
X4532575Y-14835396D02*
X4523051Y-14816348D01*
X4523051Y-14816348D02*
X4513527Y-14778253D01*
X4513527Y-14778253D02*
X4513527Y-14730634D01*
X4513527Y-14730634D02*
X4523051Y-14692539D01*
X4523051Y-14692539D02*
X4532575Y-14673491D01*
X4532575Y-14673491D02*
X4542099Y-14663968D01*
X4542099Y-14663968D02*
X4561146Y-14654444D01*
X4751623Y-14654444D02*
X4770670Y-14654444D01*
X4770670Y-14654444D02*
X4789718Y-14663968D01*
X4789718Y-14663968D02*
X4799242Y-14673491D01*
X4799242Y-14673491D02*
X4808765Y-14692539D01*
X4808765Y-14692539D02*
X4818289Y-14730634D01*
X4818289Y-14730634D02*
X4818289Y-14778253D01*
X4818289Y-14778253D02*
X4808765Y-14816348D01*
X4808765Y-14816348D02*
X4799242Y-14835396D01*
X4799242Y-14835396D02*
X4789718Y-14844920D01*
X4789718Y-14844920D02*
X4770670Y-14854444D01*
X4770670Y-14854444D02*
X4751623Y-14854444D01*
X4751623Y-14854444D02*
X4732575Y-14844920D01*
X4732575Y-14844920D02*
X4723051Y-14835396D01*
X4723051Y-14835396D02*
X4713527Y-14816348D01*
X4713527Y-14816348D02*
X4704004Y-14778253D01*
X4704004Y-14778253D02*
X4704004Y-14730634D01*
X4704004Y-14730634D02*
X4713527Y-14692539D01*
X4713527Y-14692539D02*
X4723051Y-14673491D01*
X4723051Y-14673491D02*
X4732575Y-14663968D01*
X4732575Y-14663968D02*
X4751623Y-14654444D01*
X4942099Y-14654444D02*
X4961146Y-14654444D01*
X4961146Y-14654444D02*
X4980194Y-14663968D01*
X4980194Y-14663968D02*
X4989718Y-14673491D01*
X4989718Y-14673491D02*
X4999242Y-14692539D01*
X4999242Y-14692539D02*
X5008765Y-14730634D01*
X5008765Y-14730634D02*
X5008765Y-14778253D01*
X5008765Y-14778253D02*
X4999242Y-14816348D01*
X4999242Y-14816348D02*
X4989718Y-14835396D01*
X4989718Y-14835396D02*
X4980194Y-14844920D01*
X4980194Y-14844920D02*
X4961146Y-14854444D01*
X4961146Y-14854444D02*
X4942099Y-14854444D01*
X4942099Y-14854444D02*
X4923051Y-14844920D01*
X4923051Y-14844920D02*
X4913527Y-14835396D01*
X4913527Y-14835396D02*
X4904004Y-14816348D01*
X4904004Y-14816348D02*
X4894480Y-14778253D01*
X4894480Y-14778253D02*
X4894480Y-14730634D01*
X4894480Y-14730634D02*
X4904004Y-14692539D01*
X4904004Y-14692539D02*
X4913527Y-14673491D01*
X4913527Y-14673491D02*
X4923051Y-14663968D01*
X4923051Y-14663968D02*
X4942099Y-14654444D01*
X5094480Y-14854444D02*
X5094480Y-14721110D01*
X5094480Y-14740158D02*
X5104004Y-14730634D01*
X5104004Y-14730634D02*
X5123051Y-14721110D01*
X5123051Y-14721110D02*
X5151623Y-14721110D01*
X5151623Y-14721110D02*
X5170670Y-14730634D01*
X5170670Y-14730634D02*
X5180194Y-14749682D01*
X5180194Y-14749682D02*
X5180194Y-14854444D01*
X5180194Y-14749682D02*
X5189718Y-14730634D01*
X5189718Y-14730634D02*
X5208765Y-14721110D01*
X5208765Y-14721110D02*
X5237337Y-14721110D01*
X5237337Y-14721110D02*
X5256385Y-14730634D01*
X5256385Y-14730634D02*
X5265908Y-14749682D01*
X5265908Y-14749682D02*
X5265908Y-14854444D01*
X5361146Y-14854444D02*
X5361146Y-14721110D01*
X5361146Y-14740158D02*
X5370670Y-14730634D01*
X5370670Y-14730634D02*
X5389718Y-14721110D01*
X5389718Y-14721110D02*
X5418289Y-14721110D01*
X5418289Y-14721110D02*
X5437337Y-14730634D01*
X5437337Y-14730634D02*
X5446861Y-14749682D01*
X5446861Y-14749682D02*
X5446861Y-14854444D01*
X5446861Y-14749682D02*
X5456385Y-14730634D01*
X5456385Y-14730634D02*
X5475432Y-14721110D01*
X5475432Y-14721110D02*
X5504004Y-14721110D01*
X5504004Y-14721110D02*
X5523051Y-14730634D01*
X5523051Y-14730634D02*
X5532575Y-14749682D01*
X5532575Y-14749682D02*
X5532575Y-14854444D01*
X5923051Y-14644920D02*
X5751623Y-14902063D01*
X6180194Y-14654444D02*
X6199242Y-14654444D01*
X6199242Y-14654444D02*
X6218289Y-14663968D01*
X6218289Y-14663968D02*
X6227813Y-14673491D01*
X6227813Y-14673491D02*
X6237337Y-14692539D01*
X6237337Y-14692539D02*
X6246861Y-14730634D01*
X6246861Y-14730634D02*
X6246861Y-14778253D01*
X6246861Y-14778253D02*
X6237337Y-14816348D01*
X6237337Y-14816348D02*
X6227813Y-14835396D01*
X6227813Y-14835396D02*
X6218289Y-14844920D01*
X6218289Y-14844920D02*
X6199242Y-14854444D01*
X6199242Y-14854444D02*
X6180194Y-14854444D01*
X6180194Y-14854444D02*
X6161146Y-14844920D01*
X6161146Y-14844920D02*
X6151623Y-14835396D01*
X6151623Y-14835396D02*
X6142099Y-14816348D01*
X6142099Y-14816348D02*
X6132575Y-14778253D01*
X6132575Y-14778253D02*
X6132575Y-14730634D01*
X6132575Y-14730634D02*
X6142099Y-14692539D01*
X6142099Y-14692539D02*
X6151623Y-14673491D01*
X6151623Y-14673491D02*
X6161146Y-14663968D01*
X6161146Y-14663968D02*
X6180194Y-14654444D01*
X6332575Y-14835396D02*
X6342099Y-14844920D01*
X6342099Y-14844920D02*
X6332575Y-14854444D01*
X6332575Y-14854444D02*
X6323051Y-14844920D01*
X6323051Y-14844920D02*
X6332575Y-14835396D01*
X6332575Y-14835396D02*
X6332575Y-14854444D01*
X6465908Y-14654444D02*
X6484956Y-14654444D01*
X6484956Y-14654444D02*
X6504004Y-14663968D01*
X6504004Y-14663968D02*
X6513527Y-14673491D01*
X6513527Y-14673491D02*
X6523051Y-14692539D01*
X6523051Y-14692539D02*
X6532575Y-14730634D01*
X6532575Y-14730634D02*
X6532575Y-14778253D01*
X6532575Y-14778253D02*
X6523051Y-14816348D01*
X6523051Y-14816348D02*
X6513527Y-14835396D01*
X6513527Y-14835396D02*
X6504004Y-14844920D01*
X6504004Y-14844920D02*
X6484956Y-14854444D01*
X6484956Y-14854444D02*
X6465908Y-14854444D01*
X6465908Y-14854444D02*
X6446861Y-14844920D01*
X6446861Y-14844920D02*
X6437337Y-14835396D01*
X6437337Y-14835396D02*
X6427813Y-14816348D01*
X6427813Y-14816348D02*
X6418289Y-14778253D01*
X6418289Y-14778253D02*
X6418289Y-14730634D01*
X6418289Y-14730634D02*
X6427813Y-14692539D01*
X6427813Y-14692539D02*
X6437337Y-14673491D01*
X6437337Y-14673491D02*
X6446861Y-14663968D01*
X6446861Y-14663968D02*
X6465908Y-14654444D01*
X6599242Y-14654444D02*
X6723051Y-14654444D01*
X6723051Y-14654444D02*
X6656385Y-14730634D01*
X6656385Y-14730634D02*
X6684956Y-14730634D01*
X6684956Y-14730634D02*
X6704004Y-14740158D01*
X6704004Y-14740158D02*
X6713527Y-14749682D01*
X6713527Y-14749682D02*
X6723051Y-14768729D01*
X6723051Y-14768729D02*
X6723051Y-14816348D01*
X6723051Y-14816348D02*
X6713527Y-14835396D01*
X6713527Y-14835396D02*
X6704004Y-14844920D01*
X6704004Y-14844920D02*
X6684956Y-14854444D01*
X6684956Y-14854444D02*
X6627813Y-14854444D01*
X6627813Y-14854444D02*
X6608766Y-14844920D01*
X6608766Y-14844920D02*
X6599242Y-14835396D01*
X6818289Y-14854444D02*
X6856385Y-14854444D01*
X6856385Y-14854444D02*
X6875432Y-14844920D01*
X6875432Y-14844920D02*
X6884956Y-14835396D01*
X6884956Y-14835396D02*
X6904004Y-14806825D01*
X6904004Y-14806825D02*
X6913527Y-14768729D01*
X6913527Y-14768729D02*
X6913527Y-14692539D01*
X6913527Y-14692539D02*
X6904004Y-14673491D01*
X6904004Y-14673491D02*
X6894480Y-14663968D01*
X6894480Y-14663968D02*
X6875432Y-14654444D01*
X6875432Y-14654444D02*
X6837337Y-14654444D01*
X6837337Y-14654444D02*
X6818289Y-14663968D01*
X6818289Y-14663968D02*
X6808766Y-14673491D01*
X6808766Y-14673491D02*
X6799242Y-14692539D01*
X6799242Y-14692539D02*
X6799242Y-14740158D01*
X6799242Y-14740158D02*
X6808766Y-14759206D01*
X6808766Y-14759206D02*
X6818289Y-14768729D01*
X6818289Y-14768729D02*
X6837337Y-14778253D01*
X6837337Y-14778253D02*
X6875432Y-14778253D01*
X6875432Y-14778253D02*
X6894480Y-14768729D01*
X6894480Y-14768729D02*
X6904004Y-14759206D01*
X6904004Y-14759206D02*
X6913527Y-14740158D01*
X7084956Y-14721110D02*
X7084956Y-14854444D01*
X7037337Y-14644920D02*
X6989718Y-14787777D01*
X6989718Y-14787777D02*
X7113527Y-14787777D01*
X7180194Y-14654444D02*
X7180194Y-14692539D01*
X7256385Y-14654444D02*
X7256385Y-14692539D01*
X7551623Y-14930634D02*
X7542099Y-14921110D01*
X7542099Y-14921110D02*
X7523051Y-14892539D01*
X7523051Y-14892539D02*
X7513528Y-14873491D01*
X7513528Y-14873491D02*
X7504004Y-14844920D01*
X7504004Y-14844920D02*
X7494480Y-14797301D01*
X7494480Y-14797301D02*
X7494480Y-14759206D01*
X7494480Y-14759206D02*
X7504004Y-14711587D01*
X7504004Y-14711587D02*
X7513528Y-14683015D01*
X7513528Y-14683015D02*
X7523051Y-14663968D01*
X7523051Y-14663968D02*
X7542099Y-14635396D01*
X7542099Y-14635396D02*
X7551623Y-14625872D01*
X7732575Y-14854444D02*
X7618289Y-14854444D01*
X7675432Y-14854444D02*
X7675432Y-14654444D01*
X7675432Y-14654444D02*
X7656385Y-14683015D01*
X7656385Y-14683015D02*
X7637337Y-14702063D01*
X7637337Y-14702063D02*
X7618289Y-14711587D01*
X7799242Y-14654444D02*
X7932575Y-14654444D01*
X7932575Y-14654444D02*
X7846861Y-14854444D01*
X8161147Y-14854444D02*
X8161147Y-14654444D01*
X8246861Y-14854444D02*
X8246861Y-14749682D01*
X8246861Y-14749682D02*
X8237337Y-14730634D01*
X8237337Y-14730634D02*
X8218290Y-14721110D01*
X8218290Y-14721110D02*
X8189718Y-14721110D01*
X8189718Y-14721110D02*
X8170670Y-14730634D01*
X8170670Y-14730634D02*
X8161147Y-14740158D01*
X8370670Y-14854444D02*
X8351623Y-14844920D01*
X8351623Y-14844920D02*
X8342099Y-14835396D01*
X8342099Y-14835396D02*
X8332575Y-14816348D01*
X8332575Y-14816348D02*
X8332575Y-14759206D01*
X8332575Y-14759206D02*
X8342099Y-14740158D01*
X8342099Y-14740158D02*
X8351623Y-14730634D01*
X8351623Y-14730634D02*
X8370670Y-14721110D01*
X8370670Y-14721110D02*
X8399242Y-14721110D01*
X8399242Y-14721110D02*
X8418290Y-14730634D01*
X8418290Y-14730634D02*
X8427813Y-14740158D01*
X8427813Y-14740158D02*
X8437337Y-14759206D01*
X8437337Y-14759206D02*
X8437337Y-14816348D01*
X8437337Y-14816348D02*
X8427813Y-14835396D01*
X8427813Y-14835396D02*
X8418290Y-14844920D01*
X8418290Y-14844920D02*
X8399242Y-14854444D01*
X8399242Y-14854444D02*
X8370670Y-14854444D01*
X8551623Y-14854444D02*
X8532575Y-14844920D01*
X8532575Y-14844920D02*
X8523052Y-14825872D01*
X8523052Y-14825872D02*
X8523052Y-14654444D01*
X8704004Y-14844920D02*
X8684956Y-14854444D01*
X8684956Y-14854444D02*
X8646861Y-14854444D01*
X8646861Y-14854444D02*
X8627813Y-14844920D01*
X8627813Y-14844920D02*
X8618290Y-14825872D01*
X8618290Y-14825872D02*
X8618290Y-14749682D01*
X8618290Y-14749682D02*
X8627813Y-14730634D01*
X8627813Y-14730634D02*
X8646861Y-14721110D01*
X8646861Y-14721110D02*
X8684956Y-14721110D01*
X8684956Y-14721110D02*
X8704004Y-14730634D01*
X8704004Y-14730634D02*
X8713528Y-14749682D01*
X8713528Y-14749682D02*
X8713528Y-14768729D01*
X8713528Y-14768729D02*
X8618290Y-14787777D01*
X8789718Y-14844920D02*
X8808766Y-14854444D01*
X8808766Y-14854444D02*
X8846861Y-14854444D01*
X8846861Y-14854444D02*
X8865909Y-14844920D01*
X8865909Y-14844920D02*
X8875433Y-14825872D01*
X8875433Y-14825872D02*
X8875433Y-14816348D01*
X8875433Y-14816348D02*
X8865909Y-14797301D01*
X8865909Y-14797301D02*
X8846861Y-14787777D01*
X8846861Y-14787777D02*
X8818290Y-14787777D01*
X8818290Y-14787777D02*
X8799242Y-14778253D01*
X8799242Y-14778253D02*
X8789718Y-14759206D01*
X8789718Y-14759206D02*
X8789718Y-14749682D01*
X8789718Y-14749682D02*
X8799242Y-14730634D01*
X8799242Y-14730634D02*
X8818290Y-14721110D01*
X8818290Y-14721110D02*
X8846861Y-14721110D01*
X8846861Y-14721110D02*
X8865909Y-14730634D01*
X8942099Y-14930634D02*
X8951623Y-14921110D01*
X8951623Y-14921110D02*
X8970671Y-14892539D01*
X8970671Y-14892539D02*
X8980194Y-14873491D01*
X8980194Y-14873491D02*
X8989718Y-14844920D01*
X8989718Y-14844920D02*
X8999242Y-14797301D01*
X8999242Y-14797301D02*
X8999242Y-14759206D01*
X8999242Y-14759206D02*
X8989718Y-14711587D01*
X8989718Y-14711587D02*
X8980194Y-14683015D01*
X8980194Y-14683015D02*
X8970671Y-14663968D01*
X8970671Y-14663968D02*
X8951623Y-14635396D01*
X8951623Y-14635396D02*
X8942099Y-14625872D01*
D13*
X3866560Y-14971960D02*
X3976560Y-15081960D01*
X3976560Y-14971960D02*
X3866560Y-15081960D01*
X3976560Y-15026960D02*
G75*
G02*
X3866560Y-15026960I-55000J0D01*
G01*
X3866560Y-15026960D02*
G75*
G02*
X3976560Y-15026960I55000J0D01*
G01*
D12*
X4342099Y-15118444D02*
X4227813Y-15118444D01*
X4284956Y-15118444D02*
X4284956Y-14918444D01*
X4284956Y-14918444D02*
X4265908Y-14947015D01*
X4265908Y-14947015D02*
X4246861Y-14966063D01*
X4246861Y-14966063D02*
X4227813Y-14975587D01*
X4427813Y-15099396D02*
X4437337Y-15108920D01*
X4437337Y-15108920D02*
X4427813Y-15118444D01*
X4427813Y-15118444D02*
X4418289Y-15108920D01*
X4418289Y-15108920D02*
X4427813Y-15099396D01*
X4427813Y-15099396D02*
X4427813Y-15118444D01*
X4627813Y-15118444D02*
X4513527Y-15118444D01*
X4570670Y-15118444D02*
X4570670Y-14918444D01*
X4570670Y-14918444D02*
X4551623Y-14947015D01*
X4551623Y-14947015D02*
X4532575Y-14966063D01*
X4532575Y-14966063D02*
X4513527Y-14975587D01*
X4751623Y-14918444D02*
X4770670Y-14918444D01*
X4770670Y-14918444D02*
X4789718Y-14927968D01*
X4789718Y-14927968D02*
X4799242Y-14937491D01*
X4799242Y-14937491D02*
X4808765Y-14956539D01*
X4808765Y-14956539D02*
X4818289Y-14994634D01*
X4818289Y-14994634D02*
X4818289Y-15042253D01*
X4818289Y-15042253D02*
X4808765Y-15080348D01*
X4808765Y-15080348D02*
X4799242Y-15099396D01*
X4799242Y-15099396D02*
X4789718Y-15108920D01*
X4789718Y-15108920D02*
X4770670Y-15118444D01*
X4770670Y-15118444D02*
X4751623Y-15118444D01*
X4751623Y-15118444D02*
X4732575Y-15108920D01*
X4732575Y-15108920D02*
X4723051Y-15099396D01*
X4723051Y-15099396D02*
X4713527Y-15080348D01*
X4713527Y-15080348D02*
X4704004Y-15042253D01*
X4704004Y-15042253D02*
X4704004Y-14994634D01*
X4704004Y-14994634D02*
X4713527Y-14956539D01*
X4713527Y-14956539D02*
X4723051Y-14937491D01*
X4723051Y-14937491D02*
X4732575Y-14927968D01*
X4732575Y-14927968D02*
X4751623Y-14918444D01*
X4942099Y-14918444D02*
X4961146Y-14918444D01*
X4961146Y-14918444D02*
X4980194Y-14927968D01*
X4980194Y-14927968D02*
X4989718Y-14937491D01*
X4989718Y-14937491D02*
X4999242Y-14956539D01*
X4999242Y-14956539D02*
X5008765Y-14994634D01*
X5008765Y-14994634D02*
X5008765Y-15042253D01*
X5008765Y-15042253D02*
X4999242Y-15080348D01*
X4999242Y-15080348D02*
X4989718Y-15099396D01*
X4989718Y-15099396D02*
X4980194Y-15108920D01*
X4980194Y-15108920D02*
X4961146Y-15118444D01*
X4961146Y-15118444D02*
X4942099Y-15118444D01*
X4942099Y-15118444D02*
X4923051Y-15108920D01*
X4923051Y-15108920D02*
X4913527Y-15099396D01*
X4913527Y-15099396D02*
X4904004Y-15080348D01*
X4904004Y-15080348D02*
X4894480Y-15042253D01*
X4894480Y-15042253D02*
X4894480Y-14994634D01*
X4894480Y-14994634D02*
X4904004Y-14956539D01*
X4904004Y-14956539D02*
X4913527Y-14937491D01*
X4913527Y-14937491D02*
X4923051Y-14927968D01*
X4923051Y-14927968D02*
X4942099Y-14918444D01*
X5094480Y-15118444D02*
X5094480Y-14985110D01*
X5094480Y-15004158D02*
X5104004Y-14994634D01*
X5104004Y-14994634D02*
X5123051Y-14985110D01*
X5123051Y-14985110D02*
X5151623Y-14985110D01*
X5151623Y-14985110D02*
X5170670Y-14994634D01*
X5170670Y-14994634D02*
X5180194Y-15013682D01*
X5180194Y-15013682D02*
X5180194Y-15118444D01*
X5180194Y-15013682D02*
X5189718Y-14994634D01*
X5189718Y-14994634D02*
X5208765Y-14985110D01*
X5208765Y-14985110D02*
X5237337Y-14985110D01*
X5237337Y-14985110D02*
X5256385Y-14994634D01*
X5256385Y-14994634D02*
X5265908Y-15013682D01*
X5265908Y-15013682D02*
X5265908Y-15118444D01*
X5361146Y-15118444D02*
X5361146Y-14985110D01*
X5361146Y-15004158D02*
X5370670Y-14994634D01*
X5370670Y-14994634D02*
X5389718Y-14985110D01*
X5389718Y-14985110D02*
X5418289Y-14985110D01*
X5418289Y-14985110D02*
X5437337Y-14994634D01*
X5437337Y-14994634D02*
X5446861Y-15013682D01*
X5446861Y-15013682D02*
X5446861Y-15118444D01*
X5446861Y-15013682D02*
X5456385Y-14994634D01*
X5456385Y-14994634D02*
X5475432Y-14985110D01*
X5475432Y-14985110D02*
X5504004Y-14985110D01*
X5504004Y-14985110D02*
X5523051Y-14994634D01*
X5523051Y-14994634D02*
X5532575Y-15013682D01*
X5532575Y-15013682D02*
X5532575Y-15118444D01*
X5923051Y-14908920D02*
X5751623Y-15166063D01*
X6180194Y-14918444D02*
X6199242Y-14918444D01*
X6199242Y-14918444D02*
X6218289Y-14927968D01*
X6218289Y-14927968D02*
X6227813Y-14937491D01*
X6227813Y-14937491D02*
X6237337Y-14956539D01*
X6237337Y-14956539D02*
X6246861Y-14994634D01*
X6246861Y-14994634D02*
X6246861Y-15042253D01*
X6246861Y-15042253D02*
X6237337Y-15080348D01*
X6237337Y-15080348D02*
X6227813Y-15099396D01*
X6227813Y-15099396D02*
X6218289Y-15108920D01*
X6218289Y-15108920D02*
X6199242Y-15118444D01*
X6199242Y-15118444D02*
X6180194Y-15118444D01*
X6180194Y-15118444D02*
X6161146Y-15108920D01*
X6161146Y-15108920D02*
X6151623Y-15099396D01*
X6151623Y-15099396D02*
X6142099Y-15080348D01*
X6142099Y-15080348D02*
X6132575Y-15042253D01*
X6132575Y-15042253D02*
X6132575Y-14994634D01*
X6132575Y-14994634D02*
X6142099Y-14956539D01*
X6142099Y-14956539D02*
X6151623Y-14937491D01*
X6151623Y-14937491D02*
X6161146Y-14927968D01*
X6161146Y-14927968D02*
X6180194Y-14918444D01*
X6332575Y-15099396D02*
X6342099Y-15108920D01*
X6342099Y-15108920D02*
X6332575Y-15118444D01*
X6332575Y-15118444D02*
X6323051Y-15108920D01*
X6323051Y-15108920D02*
X6332575Y-15099396D01*
X6332575Y-15099396D02*
X6332575Y-15118444D01*
X6465908Y-14918444D02*
X6484956Y-14918444D01*
X6484956Y-14918444D02*
X6504004Y-14927968D01*
X6504004Y-14927968D02*
X6513527Y-14937491D01*
X6513527Y-14937491D02*
X6523051Y-14956539D01*
X6523051Y-14956539D02*
X6532575Y-14994634D01*
X6532575Y-14994634D02*
X6532575Y-15042253D01*
X6532575Y-15042253D02*
X6523051Y-15080348D01*
X6523051Y-15080348D02*
X6513527Y-15099396D01*
X6513527Y-15099396D02*
X6504004Y-15108920D01*
X6504004Y-15108920D02*
X6484956Y-15118444D01*
X6484956Y-15118444D02*
X6465908Y-15118444D01*
X6465908Y-15118444D02*
X6446861Y-15108920D01*
X6446861Y-15108920D02*
X6437337Y-15099396D01*
X6437337Y-15099396D02*
X6427813Y-15080348D01*
X6427813Y-15080348D02*
X6418289Y-15042253D01*
X6418289Y-15042253D02*
X6418289Y-14994634D01*
X6418289Y-14994634D02*
X6427813Y-14956539D01*
X6427813Y-14956539D02*
X6437337Y-14937491D01*
X6437337Y-14937491D02*
X6446861Y-14927968D01*
X6446861Y-14927968D02*
X6465908Y-14918444D01*
X6704004Y-14985110D02*
X6704004Y-15118444D01*
X6656385Y-14908920D02*
X6608766Y-15051777D01*
X6608766Y-15051777D02*
X6732575Y-15051777D01*
X6789718Y-14918444D02*
X6913527Y-14918444D01*
X6913527Y-14918444D02*
X6846861Y-14994634D01*
X6846861Y-14994634D02*
X6875432Y-14994634D01*
X6875432Y-14994634D02*
X6894480Y-15004158D01*
X6894480Y-15004158D02*
X6904004Y-15013682D01*
X6904004Y-15013682D02*
X6913527Y-15032729D01*
X6913527Y-15032729D02*
X6913527Y-15080348D01*
X6913527Y-15080348D02*
X6904004Y-15099396D01*
X6904004Y-15099396D02*
X6894480Y-15108920D01*
X6894480Y-15108920D02*
X6875432Y-15118444D01*
X6875432Y-15118444D02*
X6818289Y-15118444D01*
X6818289Y-15118444D02*
X6799242Y-15108920D01*
X6799242Y-15108920D02*
X6789718Y-15099396D01*
X6980194Y-14918444D02*
X7104004Y-14918444D01*
X7104004Y-14918444D02*
X7037337Y-14994634D01*
X7037337Y-14994634D02*
X7065908Y-14994634D01*
X7065908Y-14994634D02*
X7084956Y-15004158D01*
X7084956Y-15004158D02*
X7094480Y-15013682D01*
X7094480Y-15013682D02*
X7104004Y-15032729D01*
X7104004Y-15032729D02*
X7104004Y-15080348D01*
X7104004Y-15080348D02*
X7094480Y-15099396D01*
X7094480Y-15099396D02*
X7084956Y-15108920D01*
X7084956Y-15108920D02*
X7065908Y-15118444D01*
X7065908Y-15118444D02*
X7008766Y-15118444D01*
X7008766Y-15118444D02*
X6989718Y-15108920D01*
X6989718Y-15108920D02*
X6980194Y-15099396D01*
X7180194Y-14918444D02*
X7180194Y-14956539D01*
X7256385Y-14918444D02*
X7256385Y-14956539D01*
X7551623Y-15194634D02*
X7542099Y-15185110D01*
X7542099Y-15185110D02*
X7523051Y-15156539D01*
X7523051Y-15156539D02*
X7513528Y-15137491D01*
X7513528Y-15137491D02*
X7504004Y-15108920D01*
X7504004Y-15108920D02*
X7494480Y-15061301D01*
X7494480Y-15061301D02*
X7494480Y-15023206D01*
X7494480Y-15023206D02*
X7504004Y-14975587D01*
X7504004Y-14975587D02*
X7513528Y-14947015D01*
X7513528Y-14947015D02*
X7523051Y-14927968D01*
X7523051Y-14927968D02*
X7542099Y-14899396D01*
X7542099Y-14899396D02*
X7551623Y-14889872D01*
X7713528Y-14918444D02*
X7675432Y-14918444D01*
X7675432Y-14918444D02*
X7656385Y-14927968D01*
X7656385Y-14927968D02*
X7646861Y-14937491D01*
X7646861Y-14937491D02*
X7627813Y-14966063D01*
X7627813Y-14966063D02*
X7618289Y-15004158D01*
X7618289Y-15004158D02*
X7618289Y-15080348D01*
X7618289Y-15080348D02*
X7627813Y-15099396D01*
X7627813Y-15099396D02*
X7637337Y-15108920D01*
X7637337Y-15108920D02*
X7656385Y-15118444D01*
X7656385Y-15118444D02*
X7694480Y-15118444D01*
X7694480Y-15118444D02*
X7713528Y-15108920D01*
X7713528Y-15108920D02*
X7723051Y-15099396D01*
X7723051Y-15099396D02*
X7732575Y-15080348D01*
X7732575Y-15080348D02*
X7732575Y-15032729D01*
X7732575Y-15032729D02*
X7723051Y-15013682D01*
X7723051Y-15013682D02*
X7713528Y-15004158D01*
X7713528Y-15004158D02*
X7694480Y-14994634D01*
X7694480Y-14994634D02*
X7656385Y-14994634D01*
X7656385Y-14994634D02*
X7637337Y-15004158D01*
X7637337Y-15004158D02*
X7627813Y-15013682D01*
X7627813Y-15013682D02*
X7618289Y-15032729D01*
X7970670Y-15118444D02*
X7970670Y-14918444D01*
X8056385Y-15118444D02*
X8056385Y-15013682D01*
X8056385Y-15013682D02*
X8046861Y-14994634D01*
X8046861Y-14994634D02*
X8027813Y-14985110D01*
X8027813Y-14985110D02*
X7999242Y-14985110D01*
X7999242Y-14985110D02*
X7980194Y-14994634D01*
X7980194Y-14994634D02*
X7970670Y-15004158D01*
X8180194Y-15118444D02*
X8161147Y-15108920D01*
X8161147Y-15108920D02*
X8151623Y-15099396D01*
X8151623Y-15099396D02*
X8142099Y-15080348D01*
X8142099Y-15080348D02*
X8142099Y-15023206D01*
X8142099Y-15023206D02*
X8151623Y-15004158D01*
X8151623Y-15004158D02*
X8161147Y-14994634D01*
X8161147Y-14994634D02*
X8180194Y-14985110D01*
X8180194Y-14985110D02*
X8208766Y-14985110D01*
X8208766Y-14985110D02*
X8227813Y-14994634D01*
X8227813Y-14994634D02*
X8237337Y-15004158D01*
X8237337Y-15004158D02*
X8246861Y-15023206D01*
X8246861Y-15023206D02*
X8246861Y-15080348D01*
X8246861Y-15080348D02*
X8237337Y-15099396D01*
X8237337Y-15099396D02*
X8227813Y-15108920D01*
X8227813Y-15108920D02*
X8208766Y-15118444D01*
X8208766Y-15118444D02*
X8180194Y-15118444D01*
X8361147Y-15118444D02*
X8342099Y-15108920D01*
X8342099Y-15108920D02*
X8332575Y-15089872D01*
X8332575Y-15089872D02*
X8332575Y-14918444D01*
X8513528Y-15108920D02*
X8494480Y-15118444D01*
X8494480Y-15118444D02*
X8456385Y-15118444D01*
X8456385Y-15118444D02*
X8437337Y-15108920D01*
X8437337Y-15108920D02*
X8427813Y-15089872D01*
X8427813Y-15089872D02*
X8427813Y-15013682D01*
X8427813Y-15013682D02*
X8437337Y-14994634D01*
X8437337Y-14994634D02*
X8456385Y-14985110D01*
X8456385Y-14985110D02*
X8494480Y-14985110D01*
X8494480Y-14985110D02*
X8513528Y-14994634D01*
X8513528Y-14994634D02*
X8523052Y-15013682D01*
X8523052Y-15013682D02*
X8523052Y-15032729D01*
X8523052Y-15032729D02*
X8427813Y-15051777D01*
X8599242Y-15108920D02*
X8618290Y-15118444D01*
X8618290Y-15118444D02*
X8656385Y-15118444D01*
X8656385Y-15118444D02*
X8675433Y-15108920D01*
X8675433Y-15108920D02*
X8684956Y-15089872D01*
X8684956Y-15089872D02*
X8684956Y-15080348D01*
X8684956Y-15080348D02*
X8675433Y-15061301D01*
X8675433Y-15061301D02*
X8656385Y-15051777D01*
X8656385Y-15051777D02*
X8627813Y-15051777D01*
X8627813Y-15051777D02*
X8608766Y-15042253D01*
X8608766Y-15042253D02*
X8599242Y-15023206D01*
X8599242Y-15023206D02*
X8599242Y-15013682D01*
X8599242Y-15013682D02*
X8608766Y-14994634D01*
X8608766Y-14994634D02*
X8627813Y-14985110D01*
X8627813Y-14985110D02*
X8656385Y-14985110D01*
X8656385Y-14985110D02*
X8675433Y-14994634D01*
X8751623Y-15194634D02*
X8761147Y-15185110D01*
X8761147Y-15185110D02*
X8780194Y-15156539D01*
X8780194Y-15156539D02*
X8789718Y-15137491D01*
X8789718Y-15137491D02*
X8799242Y-15108920D01*
X8799242Y-15108920D02*
X8808766Y-15061301D01*
X8808766Y-15061301D02*
X8808766Y-15023206D01*
X8808766Y-15023206D02*
X8799242Y-14975587D01*
X8799242Y-14975587D02*
X8789718Y-14947015D01*
X8789718Y-14947015D02*
X8780194Y-14927968D01*
X8780194Y-14927968D02*
X8761147Y-14899396D01*
X8761147Y-14899396D02*
X8751623Y-14889872D01*
D14*
X3856560Y-15230960D02*
X3976560Y-15350960D01*
X3976560Y-15230960D02*
X3856560Y-15350960D01*
X3916560Y-15230960D02*
X3916560Y-15350960D01*
X3856560Y-15290960D02*
X3976560Y-15290960D01*
D12*
X4342099Y-15382444D02*
X4227813Y-15382444D01*
X4284956Y-15382444D02*
X4284956Y-15182444D01*
X4284956Y-15182444D02*
X4265908Y-15211015D01*
X4265908Y-15211015D02*
X4246861Y-15230063D01*
X4246861Y-15230063D02*
X4227813Y-15239587D01*
X4427813Y-15363396D02*
X4437337Y-15372920D01*
X4437337Y-15372920D02*
X4427813Y-15382444D01*
X4427813Y-15382444D02*
X4418289Y-15372920D01*
X4418289Y-15372920D02*
X4427813Y-15363396D01*
X4427813Y-15363396D02*
X4427813Y-15382444D01*
X4513527Y-15201491D02*
X4523051Y-15191968D01*
X4523051Y-15191968D02*
X4542099Y-15182444D01*
X4542099Y-15182444D02*
X4589718Y-15182444D01*
X4589718Y-15182444D02*
X4608765Y-15191968D01*
X4608765Y-15191968D02*
X4618289Y-15201491D01*
X4618289Y-15201491D02*
X4627813Y-15220539D01*
X4627813Y-15220539D02*
X4627813Y-15239587D01*
X4627813Y-15239587D02*
X4618289Y-15268158D01*
X4618289Y-15268158D02*
X4504004Y-15382444D01*
X4504004Y-15382444D02*
X4627813Y-15382444D01*
X4751623Y-15182444D02*
X4770670Y-15182444D01*
X4770670Y-15182444D02*
X4789718Y-15191968D01*
X4789718Y-15191968D02*
X4799242Y-15201491D01*
X4799242Y-15201491D02*
X4808765Y-15220539D01*
X4808765Y-15220539D02*
X4818289Y-15258634D01*
X4818289Y-15258634D02*
X4818289Y-15306253D01*
X4818289Y-15306253D02*
X4808765Y-15344348D01*
X4808765Y-15344348D02*
X4799242Y-15363396D01*
X4799242Y-15363396D02*
X4789718Y-15372920D01*
X4789718Y-15372920D02*
X4770670Y-15382444D01*
X4770670Y-15382444D02*
X4751623Y-15382444D01*
X4751623Y-15382444D02*
X4732575Y-15372920D01*
X4732575Y-15372920D02*
X4723051Y-15363396D01*
X4723051Y-15363396D02*
X4713527Y-15344348D01*
X4713527Y-15344348D02*
X4704004Y-15306253D01*
X4704004Y-15306253D02*
X4704004Y-15258634D01*
X4704004Y-15258634D02*
X4713527Y-15220539D01*
X4713527Y-15220539D02*
X4723051Y-15201491D01*
X4723051Y-15201491D02*
X4732575Y-15191968D01*
X4732575Y-15191968D02*
X4751623Y-15182444D01*
X4942099Y-15182444D02*
X4961146Y-15182444D01*
X4961146Y-15182444D02*
X4980194Y-15191968D01*
X4980194Y-15191968D02*
X4989718Y-15201491D01*
X4989718Y-15201491D02*
X4999242Y-15220539D01*
X4999242Y-15220539D02*
X5008765Y-15258634D01*
X5008765Y-15258634D02*
X5008765Y-15306253D01*
X5008765Y-15306253D02*
X4999242Y-15344348D01*
X4999242Y-15344348D02*
X4989718Y-15363396D01*
X4989718Y-15363396D02*
X4980194Y-15372920D01*
X4980194Y-15372920D02*
X4961146Y-15382444D01*
X4961146Y-15382444D02*
X4942099Y-15382444D01*
X4942099Y-15382444D02*
X4923051Y-15372920D01*
X4923051Y-15372920D02*
X4913527Y-15363396D01*
X4913527Y-15363396D02*
X4904004Y-15344348D01*
X4904004Y-15344348D02*
X4894480Y-15306253D01*
X4894480Y-15306253D02*
X4894480Y-15258634D01*
X4894480Y-15258634D02*
X4904004Y-15220539D01*
X4904004Y-15220539D02*
X4913527Y-15201491D01*
X4913527Y-15201491D02*
X4923051Y-15191968D01*
X4923051Y-15191968D02*
X4942099Y-15182444D01*
X5094480Y-15382444D02*
X5094480Y-15249110D01*
X5094480Y-15268158D02*
X5104004Y-15258634D01*
X5104004Y-15258634D02*
X5123051Y-15249110D01*
X5123051Y-15249110D02*
X5151623Y-15249110D01*
X5151623Y-15249110D02*
X5170670Y-15258634D01*
X5170670Y-15258634D02*
X5180194Y-15277682D01*
X5180194Y-15277682D02*
X5180194Y-15382444D01*
X5180194Y-15277682D02*
X5189718Y-15258634D01*
X5189718Y-15258634D02*
X5208765Y-15249110D01*
X5208765Y-15249110D02*
X5237337Y-15249110D01*
X5237337Y-15249110D02*
X5256385Y-15258634D01*
X5256385Y-15258634D02*
X5265908Y-15277682D01*
X5265908Y-15277682D02*
X5265908Y-15382444D01*
X5361146Y-15382444D02*
X5361146Y-15249110D01*
X5361146Y-15268158D02*
X5370670Y-15258634D01*
X5370670Y-15258634D02*
X5389718Y-15249110D01*
X5389718Y-15249110D02*
X5418289Y-15249110D01*
X5418289Y-15249110D02*
X5437337Y-15258634D01*
X5437337Y-15258634D02*
X5446861Y-15277682D01*
X5446861Y-15277682D02*
X5446861Y-15382444D01*
X5446861Y-15277682D02*
X5456385Y-15258634D01*
X5456385Y-15258634D02*
X5475432Y-15249110D01*
X5475432Y-15249110D02*
X5504004Y-15249110D01*
X5504004Y-15249110D02*
X5523051Y-15258634D01*
X5523051Y-15258634D02*
X5532575Y-15277682D01*
X5532575Y-15277682D02*
X5532575Y-15382444D01*
X5923051Y-15172920D02*
X5751623Y-15430063D01*
X6180194Y-15182444D02*
X6199242Y-15182444D01*
X6199242Y-15182444D02*
X6218289Y-15191968D01*
X6218289Y-15191968D02*
X6227813Y-15201491D01*
X6227813Y-15201491D02*
X6237337Y-15220539D01*
X6237337Y-15220539D02*
X6246861Y-15258634D01*
X6246861Y-15258634D02*
X6246861Y-15306253D01*
X6246861Y-15306253D02*
X6237337Y-15344348D01*
X6237337Y-15344348D02*
X6227813Y-15363396D01*
X6227813Y-15363396D02*
X6218289Y-15372920D01*
X6218289Y-15372920D02*
X6199242Y-15382444D01*
X6199242Y-15382444D02*
X6180194Y-15382444D01*
X6180194Y-15382444D02*
X6161146Y-15372920D01*
X6161146Y-15372920D02*
X6151623Y-15363396D01*
X6151623Y-15363396D02*
X6142099Y-15344348D01*
X6142099Y-15344348D02*
X6132575Y-15306253D01*
X6132575Y-15306253D02*
X6132575Y-15258634D01*
X6132575Y-15258634D02*
X6142099Y-15220539D01*
X6142099Y-15220539D02*
X6151623Y-15201491D01*
X6151623Y-15201491D02*
X6161146Y-15191968D01*
X6161146Y-15191968D02*
X6180194Y-15182444D01*
X6332575Y-15363396D02*
X6342099Y-15372920D01*
X6342099Y-15372920D02*
X6332575Y-15382444D01*
X6332575Y-15382444D02*
X6323051Y-15372920D01*
X6323051Y-15372920D02*
X6332575Y-15363396D01*
X6332575Y-15363396D02*
X6332575Y-15382444D01*
X6465908Y-15182444D02*
X6484956Y-15182444D01*
X6484956Y-15182444D02*
X6504004Y-15191968D01*
X6504004Y-15191968D02*
X6513527Y-15201491D01*
X6513527Y-15201491D02*
X6523051Y-15220539D01*
X6523051Y-15220539D02*
X6532575Y-15258634D01*
X6532575Y-15258634D02*
X6532575Y-15306253D01*
X6532575Y-15306253D02*
X6523051Y-15344348D01*
X6523051Y-15344348D02*
X6513527Y-15363396D01*
X6513527Y-15363396D02*
X6504004Y-15372920D01*
X6504004Y-15372920D02*
X6484956Y-15382444D01*
X6484956Y-15382444D02*
X6465908Y-15382444D01*
X6465908Y-15382444D02*
X6446861Y-15372920D01*
X6446861Y-15372920D02*
X6437337Y-15363396D01*
X6437337Y-15363396D02*
X6427813Y-15344348D01*
X6427813Y-15344348D02*
X6418289Y-15306253D01*
X6418289Y-15306253D02*
X6418289Y-15258634D01*
X6418289Y-15258634D02*
X6427813Y-15220539D01*
X6427813Y-15220539D02*
X6437337Y-15201491D01*
X6437337Y-15201491D02*
X6446861Y-15191968D01*
X6446861Y-15191968D02*
X6465908Y-15182444D01*
X6704004Y-15249110D02*
X6704004Y-15382444D01*
X6656385Y-15172920D02*
X6608766Y-15315777D01*
X6608766Y-15315777D02*
X6732575Y-15315777D01*
X6789718Y-15182444D02*
X6923051Y-15182444D01*
X6923051Y-15182444D02*
X6837337Y-15382444D01*
X6989718Y-15201491D02*
X6999242Y-15191968D01*
X6999242Y-15191968D02*
X7018289Y-15182444D01*
X7018289Y-15182444D02*
X7065908Y-15182444D01*
X7065908Y-15182444D02*
X7084956Y-15191968D01*
X7084956Y-15191968D02*
X7094480Y-15201491D01*
X7094480Y-15201491D02*
X7104004Y-15220539D01*
X7104004Y-15220539D02*
X7104004Y-15239587D01*
X7104004Y-15239587D02*
X7094480Y-15268158D01*
X7094480Y-15268158D02*
X6980194Y-15382444D01*
X6980194Y-15382444D02*
X7104004Y-15382444D01*
X7180194Y-15182444D02*
X7180194Y-15220539D01*
X7256385Y-15182444D02*
X7256385Y-15220539D01*
X7551623Y-15458634D02*
X7542099Y-15449110D01*
X7542099Y-15449110D02*
X7523051Y-15420539D01*
X7523051Y-15420539D02*
X7513528Y-15401491D01*
X7513528Y-15401491D02*
X7504004Y-15372920D01*
X7504004Y-15372920D02*
X7494480Y-15325301D01*
X7494480Y-15325301D02*
X7494480Y-15287206D01*
X7494480Y-15287206D02*
X7504004Y-15239587D01*
X7504004Y-15239587D02*
X7513528Y-15211015D01*
X7513528Y-15211015D02*
X7523051Y-15191968D01*
X7523051Y-15191968D02*
X7542099Y-15163396D01*
X7542099Y-15163396D02*
X7551623Y-15153872D01*
X7656385Y-15268158D02*
X7637337Y-15258634D01*
X7637337Y-15258634D02*
X7627813Y-15249110D01*
X7627813Y-15249110D02*
X7618289Y-15230063D01*
X7618289Y-15230063D02*
X7618289Y-15220539D01*
X7618289Y-15220539D02*
X7627813Y-15201491D01*
X7627813Y-15201491D02*
X7637337Y-15191968D01*
X7637337Y-15191968D02*
X7656385Y-15182444D01*
X7656385Y-15182444D02*
X7694480Y-15182444D01*
X7694480Y-15182444D02*
X7713528Y-15191968D01*
X7713528Y-15191968D02*
X7723051Y-15201491D01*
X7723051Y-15201491D02*
X7732575Y-15220539D01*
X7732575Y-15220539D02*
X7732575Y-15230063D01*
X7732575Y-15230063D02*
X7723051Y-15249110D01*
X7723051Y-15249110D02*
X7713528Y-15258634D01*
X7713528Y-15258634D02*
X7694480Y-15268158D01*
X7694480Y-15268158D02*
X7656385Y-15268158D01*
X7656385Y-15268158D02*
X7637337Y-15277682D01*
X7637337Y-15277682D02*
X7627813Y-15287206D01*
X7627813Y-15287206D02*
X7618289Y-15306253D01*
X7618289Y-15306253D02*
X7618289Y-15344348D01*
X7618289Y-15344348D02*
X7627813Y-15363396D01*
X7627813Y-15363396D02*
X7637337Y-15372920D01*
X7637337Y-15372920D02*
X7656385Y-15382444D01*
X7656385Y-15382444D02*
X7694480Y-15382444D01*
X7694480Y-15382444D02*
X7713528Y-15372920D01*
X7713528Y-15372920D02*
X7723051Y-15363396D01*
X7723051Y-15363396D02*
X7732575Y-15344348D01*
X7732575Y-15344348D02*
X7732575Y-15306253D01*
X7732575Y-15306253D02*
X7723051Y-15287206D01*
X7723051Y-15287206D02*
X7713528Y-15277682D01*
X7713528Y-15277682D02*
X7694480Y-15268158D01*
X7970670Y-15382444D02*
X7970670Y-15182444D01*
X8056385Y-15382444D02*
X8056385Y-15277682D01*
X8056385Y-15277682D02*
X8046861Y-15258634D01*
X8046861Y-15258634D02*
X8027813Y-15249110D01*
X8027813Y-15249110D02*
X7999242Y-15249110D01*
X7999242Y-15249110D02*
X7980194Y-15258634D01*
X7980194Y-15258634D02*
X7970670Y-15268158D01*
X8180194Y-15382444D02*
X8161147Y-15372920D01*
X8161147Y-15372920D02*
X8151623Y-15363396D01*
X8151623Y-15363396D02*
X8142099Y-15344348D01*
X8142099Y-15344348D02*
X8142099Y-15287206D01*
X8142099Y-15287206D02*
X8151623Y-15268158D01*
X8151623Y-15268158D02*
X8161147Y-15258634D01*
X8161147Y-15258634D02*
X8180194Y-15249110D01*
X8180194Y-15249110D02*
X8208766Y-15249110D01*
X8208766Y-15249110D02*
X8227813Y-15258634D01*
X8227813Y-15258634D02*
X8237337Y-15268158D01*
X8237337Y-15268158D02*
X8246861Y-15287206D01*
X8246861Y-15287206D02*
X8246861Y-15344348D01*
X8246861Y-15344348D02*
X8237337Y-15363396D01*
X8237337Y-15363396D02*
X8227813Y-15372920D01*
X8227813Y-15372920D02*
X8208766Y-15382444D01*
X8208766Y-15382444D02*
X8180194Y-15382444D01*
X8361147Y-15382444D02*
X8342099Y-15372920D01*
X8342099Y-15372920D02*
X8332575Y-15353872D01*
X8332575Y-15353872D02*
X8332575Y-15182444D01*
X8513528Y-15372920D02*
X8494480Y-15382444D01*
X8494480Y-15382444D02*
X8456385Y-15382444D01*
X8456385Y-15382444D02*
X8437337Y-15372920D01*
X8437337Y-15372920D02*
X8427813Y-15353872D01*
X8427813Y-15353872D02*
X8427813Y-15277682D01*
X8427813Y-15277682D02*
X8437337Y-15258634D01*
X8437337Y-15258634D02*
X8456385Y-15249110D01*
X8456385Y-15249110D02*
X8494480Y-15249110D01*
X8494480Y-15249110D02*
X8513528Y-15258634D01*
X8513528Y-15258634D02*
X8523052Y-15277682D01*
X8523052Y-15277682D02*
X8523052Y-15296729D01*
X8523052Y-15296729D02*
X8427813Y-15315777D01*
X8599242Y-15372920D02*
X8618290Y-15382444D01*
X8618290Y-15382444D02*
X8656385Y-15382444D01*
X8656385Y-15382444D02*
X8675433Y-15372920D01*
X8675433Y-15372920D02*
X8684956Y-15353872D01*
X8684956Y-15353872D02*
X8684956Y-15344348D01*
X8684956Y-15344348D02*
X8675433Y-15325301D01*
X8675433Y-15325301D02*
X8656385Y-15315777D01*
X8656385Y-15315777D02*
X8627813Y-15315777D01*
X8627813Y-15315777D02*
X8608766Y-15306253D01*
X8608766Y-15306253D02*
X8599242Y-15287206D01*
X8599242Y-15287206D02*
X8599242Y-15277682D01*
X8599242Y-15277682D02*
X8608766Y-15258634D01*
X8608766Y-15258634D02*
X8627813Y-15249110D01*
X8627813Y-15249110D02*
X8656385Y-15249110D01*
X8656385Y-15249110D02*
X8675433Y-15258634D01*
X8923052Y-15306253D02*
X9075433Y-15306253D01*
X8999242Y-15382444D02*
X8999242Y-15230063D01*
X9408766Y-15249110D02*
X9408766Y-15382444D01*
X9361147Y-15172920D02*
X9313528Y-15315777D01*
X9313528Y-15315777D02*
X9437337Y-15315777D01*
X9656385Y-15372920D02*
X9675433Y-15382444D01*
X9675433Y-15382444D02*
X9713528Y-15382444D01*
X9713528Y-15382444D02*
X9732576Y-15372920D01*
X9732576Y-15372920D02*
X9742099Y-15353872D01*
X9742099Y-15353872D02*
X9742099Y-15344348D01*
X9742099Y-15344348D02*
X9732576Y-15325301D01*
X9732576Y-15325301D02*
X9713528Y-15315777D01*
X9713528Y-15315777D02*
X9684956Y-15315777D01*
X9684956Y-15315777D02*
X9665909Y-15306253D01*
X9665909Y-15306253D02*
X9656385Y-15287206D01*
X9656385Y-15287206D02*
X9656385Y-15277682D01*
X9656385Y-15277682D02*
X9665909Y-15258634D01*
X9665909Y-15258634D02*
X9684956Y-15249110D01*
X9684956Y-15249110D02*
X9713528Y-15249110D01*
X9713528Y-15249110D02*
X9732576Y-15258634D01*
X9856385Y-15382444D02*
X9837337Y-15372920D01*
X9837337Y-15372920D02*
X9827814Y-15353872D01*
X9827814Y-15353872D02*
X9827814Y-15182444D01*
X9961147Y-15382444D02*
X9942099Y-15372920D01*
X9942099Y-15372920D02*
X9932576Y-15363396D01*
X9932576Y-15363396D02*
X9923052Y-15344348D01*
X9923052Y-15344348D02*
X9923052Y-15287206D01*
X9923052Y-15287206D02*
X9932576Y-15268158D01*
X9932576Y-15268158D02*
X9942099Y-15258634D01*
X9942099Y-15258634D02*
X9961147Y-15249110D01*
X9961147Y-15249110D02*
X9989718Y-15249110D01*
X9989718Y-15249110D02*
X10008766Y-15258634D01*
X10008766Y-15258634D02*
X10018290Y-15268158D01*
X10018290Y-15268158D02*
X10027814Y-15287206D01*
X10027814Y-15287206D02*
X10027814Y-15344348D01*
X10027814Y-15344348D02*
X10018290Y-15363396D01*
X10018290Y-15363396D02*
X10008766Y-15372920D01*
X10008766Y-15372920D02*
X9989718Y-15382444D01*
X9989718Y-15382444D02*
X9961147Y-15382444D01*
X10084957Y-15249110D02*
X10161147Y-15249110D01*
X10113528Y-15182444D02*
X10113528Y-15353872D01*
X10113528Y-15353872D02*
X10123052Y-15372920D01*
X10123052Y-15372920D02*
X10142099Y-15382444D01*
X10142099Y-15382444D02*
X10161147Y-15382444D01*
X10218290Y-15372920D02*
X10237337Y-15382444D01*
X10237337Y-15382444D02*
X10275433Y-15382444D01*
X10275433Y-15382444D02*
X10294480Y-15372920D01*
X10294480Y-15372920D02*
X10304004Y-15353872D01*
X10304004Y-15353872D02*
X10304004Y-15344348D01*
X10304004Y-15344348D02*
X10294480Y-15325301D01*
X10294480Y-15325301D02*
X10275433Y-15315777D01*
X10275433Y-15315777D02*
X10246861Y-15315777D01*
X10246861Y-15315777D02*
X10227814Y-15306253D01*
X10227814Y-15306253D02*
X10218290Y-15287206D01*
X10218290Y-15287206D02*
X10218290Y-15277682D01*
X10218290Y-15277682D02*
X10227814Y-15258634D01*
X10227814Y-15258634D02*
X10246861Y-15249110D01*
X10246861Y-15249110D02*
X10275433Y-15249110D01*
X10275433Y-15249110D02*
X10294480Y-15258634D01*
X10370671Y-15458634D02*
X10380195Y-15449110D01*
X10380195Y-15449110D02*
X10399242Y-15420539D01*
X10399242Y-15420539D02*
X10408766Y-15401491D01*
X10408766Y-15401491D02*
X10418290Y-15372920D01*
X10418290Y-15372920D02*
X10427814Y-15325301D01*
X10427814Y-15325301D02*
X10427814Y-15287206D01*
X10427814Y-15287206D02*
X10418290Y-15239587D01*
X10418290Y-15239587D02*
X10408766Y-15211015D01*
X10408766Y-15211015D02*
X10399242Y-15191968D01*
X10399242Y-15191968D02*
X10380195Y-15163396D01*
X10380195Y-15163396D02*
X10370671Y-15153872D01*
D15*
X3846560Y-15489960D02*
X3976560Y-15619960D01*
X3976560Y-15489960D02*
X3846560Y-15619960D01*
X3957522Y-15600922D02*
X3957522Y-15508998D01*
X3865598Y-15508998D01*
X3865598Y-15600922D01*
X3957522Y-15600922D01*
D12*
X4342099Y-15646444D02*
X4227813Y-15646444D01*
X4284956Y-15646444D02*
X4284956Y-15446444D01*
X4284956Y-15446444D02*
X4265908Y-15475015D01*
X4265908Y-15475015D02*
X4246861Y-15494063D01*
X4246861Y-15494063D02*
X4227813Y-15503587D01*
X4427813Y-15627396D02*
X4437337Y-15636920D01*
X4437337Y-15636920D02*
X4427813Y-15646444D01*
X4427813Y-15646444D02*
X4418289Y-15636920D01*
X4418289Y-15636920D02*
X4427813Y-15627396D01*
X4427813Y-15627396D02*
X4427813Y-15646444D01*
X4504004Y-15446444D02*
X4627813Y-15446444D01*
X4627813Y-15446444D02*
X4561146Y-15522634D01*
X4561146Y-15522634D02*
X4589718Y-15522634D01*
X4589718Y-15522634D02*
X4608765Y-15532158D01*
X4608765Y-15532158D02*
X4618289Y-15541682D01*
X4618289Y-15541682D02*
X4627813Y-15560729D01*
X4627813Y-15560729D02*
X4627813Y-15608348D01*
X4627813Y-15608348D02*
X4618289Y-15627396D01*
X4618289Y-15627396D02*
X4608765Y-15636920D01*
X4608765Y-15636920D02*
X4589718Y-15646444D01*
X4589718Y-15646444D02*
X4532575Y-15646444D01*
X4532575Y-15646444D02*
X4513527Y-15636920D01*
X4513527Y-15636920D02*
X4504004Y-15627396D01*
X4751623Y-15446444D02*
X4770670Y-15446444D01*
X4770670Y-15446444D02*
X4789718Y-15455968D01*
X4789718Y-15455968D02*
X4799242Y-15465491D01*
X4799242Y-15465491D02*
X4808765Y-15484539D01*
X4808765Y-15484539D02*
X4818289Y-15522634D01*
X4818289Y-15522634D02*
X4818289Y-15570253D01*
X4818289Y-15570253D02*
X4808765Y-15608348D01*
X4808765Y-15608348D02*
X4799242Y-15627396D01*
X4799242Y-15627396D02*
X4789718Y-15636920D01*
X4789718Y-15636920D02*
X4770670Y-15646444D01*
X4770670Y-15646444D02*
X4751623Y-15646444D01*
X4751623Y-15646444D02*
X4732575Y-15636920D01*
X4732575Y-15636920D02*
X4723051Y-15627396D01*
X4723051Y-15627396D02*
X4713527Y-15608348D01*
X4713527Y-15608348D02*
X4704004Y-15570253D01*
X4704004Y-15570253D02*
X4704004Y-15522634D01*
X4704004Y-15522634D02*
X4713527Y-15484539D01*
X4713527Y-15484539D02*
X4723051Y-15465491D01*
X4723051Y-15465491D02*
X4732575Y-15455968D01*
X4732575Y-15455968D02*
X4751623Y-15446444D01*
X4942099Y-15446444D02*
X4961146Y-15446444D01*
X4961146Y-15446444D02*
X4980194Y-15455968D01*
X4980194Y-15455968D02*
X4989718Y-15465491D01*
X4989718Y-15465491D02*
X4999242Y-15484539D01*
X4999242Y-15484539D02*
X5008765Y-15522634D01*
X5008765Y-15522634D02*
X5008765Y-15570253D01*
X5008765Y-15570253D02*
X4999242Y-15608348D01*
X4999242Y-15608348D02*
X4989718Y-15627396D01*
X4989718Y-15627396D02*
X4980194Y-15636920D01*
X4980194Y-15636920D02*
X4961146Y-15646444D01*
X4961146Y-15646444D02*
X4942099Y-15646444D01*
X4942099Y-15646444D02*
X4923051Y-15636920D01*
X4923051Y-15636920D02*
X4913527Y-15627396D01*
X4913527Y-15627396D02*
X4904004Y-15608348D01*
X4904004Y-15608348D02*
X4894480Y-15570253D01*
X4894480Y-15570253D02*
X4894480Y-15522634D01*
X4894480Y-15522634D02*
X4904004Y-15484539D01*
X4904004Y-15484539D02*
X4913527Y-15465491D01*
X4913527Y-15465491D02*
X4923051Y-15455968D01*
X4923051Y-15455968D02*
X4942099Y-15446444D01*
X5094480Y-15646444D02*
X5094480Y-15513110D01*
X5094480Y-15532158D02*
X5104004Y-15522634D01*
X5104004Y-15522634D02*
X5123051Y-15513110D01*
X5123051Y-15513110D02*
X5151623Y-15513110D01*
X5151623Y-15513110D02*
X5170670Y-15522634D01*
X5170670Y-15522634D02*
X5180194Y-15541682D01*
X5180194Y-15541682D02*
X5180194Y-15646444D01*
X5180194Y-15541682D02*
X5189718Y-15522634D01*
X5189718Y-15522634D02*
X5208765Y-15513110D01*
X5208765Y-15513110D02*
X5237337Y-15513110D01*
X5237337Y-15513110D02*
X5256385Y-15522634D01*
X5256385Y-15522634D02*
X5265908Y-15541682D01*
X5265908Y-15541682D02*
X5265908Y-15646444D01*
X5361146Y-15646444D02*
X5361146Y-15513110D01*
X5361146Y-15532158D02*
X5370670Y-15522634D01*
X5370670Y-15522634D02*
X5389718Y-15513110D01*
X5389718Y-15513110D02*
X5418289Y-15513110D01*
X5418289Y-15513110D02*
X5437337Y-15522634D01*
X5437337Y-15522634D02*
X5446861Y-15541682D01*
X5446861Y-15541682D02*
X5446861Y-15646444D01*
X5446861Y-15541682D02*
X5456385Y-15522634D01*
X5456385Y-15522634D02*
X5475432Y-15513110D01*
X5475432Y-15513110D02*
X5504004Y-15513110D01*
X5504004Y-15513110D02*
X5523051Y-15522634D01*
X5523051Y-15522634D02*
X5532575Y-15541682D01*
X5532575Y-15541682D02*
X5532575Y-15646444D01*
X5923051Y-15436920D02*
X5751623Y-15694063D01*
X6180194Y-15446444D02*
X6199242Y-15446444D01*
X6199242Y-15446444D02*
X6218289Y-15455968D01*
X6218289Y-15455968D02*
X6227813Y-15465491D01*
X6227813Y-15465491D02*
X6237337Y-15484539D01*
X6237337Y-15484539D02*
X6246861Y-15522634D01*
X6246861Y-15522634D02*
X6246861Y-15570253D01*
X6246861Y-15570253D02*
X6237337Y-15608348D01*
X6237337Y-15608348D02*
X6227813Y-15627396D01*
X6227813Y-15627396D02*
X6218289Y-15636920D01*
X6218289Y-15636920D02*
X6199242Y-15646444D01*
X6199242Y-15646444D02*
X6180194Y-15646444D01*
X6180194Y-15646444D02*
X6161146Y-15636920D01*
X6161146Y-15636920D02*
X6151623Y-15627396D01*
X6151623Y-15627396D02*
X6142099Y-15608348D01*
X6142099Y-15608348D02*
X6132575Y-15570253D01*
X6132575Y-15570253D02*
X6132575Y-15522634D01*
X6132575Y-15522634D02*
X6142099Y-15484539D01*
X6142099Y-15484539D02*
X6151623Y-15465491D01*
X6151623Y-15465491D02*
X6161146Y-15455968D01*
X6161146Y-15455968D02*
X6180194Y-15446444D01*
X6332575Y-15627396D02*
X6342099Y-15636920D01*
X6342099Y-15636920D02*
X6332575Y-15646444D01*
X6332575Y-15646444D02*
X6323051Y-15636920D01*
X6323051Y-15636920D02*
X6332575Y-15627396D01*
X6332575Y-15627396D02*
X6332575Y-15646444D01*
X6465908Y-15446444D02*
X6484956Y-15446444D01*
X6484956Y-15446444D02*
X6504004Y-15455968D01*
X6504004Y-15455968D02*
X6513527Y-15465491D01*
X6513527Y-15465491D02*
X6523051Y-15484539D01*
X6523051Y-15484539D02*
X6532575Y-15522634D01*
X6532575Y-15522634D02*
X6532575Y-15570253D01*
X6532575Y-15570253D02*
X6523051Y-15608348D01*
X6523051Y-15608348D02*
X6513527Y-15627396D01*
X6513527Y-15627396D02*
X6504004Y-15636920D01*
X6504004Y-15636920D02*
X6484956Y-15646444D01*
X6484956Y-15646444D02*
X6465908Y-15646444D01*
X6465908Y-15646444D02*
X6446861Y-15636920D01*
X6446861Y-15636920D02*
X6437337Y-15627396D01*
X6437337Y-15627396D02*
X6427813Y-15608348D01*
X6427813Y-15608348D02*
X6418289Y-15570253D01*
X6418289Y-15570253D02*
X6418289Y-15522634D01*
X6418289Y-15522634D02*
X6427813Y-15484539D01*
X6427813Y-15484539D02*
X6437337Y-15465491D01*
X6437337Y-15465491D02*
X6446861Y-15455968D01*
X6446861Y-15455968D02*
X6465908Y-15446444D01*
X6713527Y-15446444D02*
X6618289Y-15446444D01*
X6618289Y-15446444D02*
X6608766Y-15541682D01*
X6608766Y-15541682D02*
X6618289Y-15532158D01*
X6618289Y-15532158D02*
X6637337Y-15522634D01*
X6637337Y-15522634D02*
X6684956Y-15522634D01*
X6684956Y-15522634D02*
X6704004Y-15532158D01*
X6704004Y-15532158D02*
X6713527Y-15541682D01*
X6713527Y-15541682D02*
X6723051Y-15560729D01*
X6723051Y-15560729D02*
X6723051Y-15608348D01*
X6723051Y-15608348D02*
X6713527Y-15627396D01*
X6713527Y-15627396D02*
X6704004Y-15636920D01*
X6704004Y-15636920D02*
X6684956Y-15646444D01*
X6684956Y-15646444D02*
X6637337Y-15646444D01*
X6637337Y-15646444D02*
X6618289Y-15636920D01*
X6618289Y-15636920D02*
X6608766Y-15627396D01*
X6913527Y-15646444D02*
X6799242Y-15646444D01*
X6856385Y-15646444D02*
X6856385Y-15446444D01*
X6856385Y-15446444D02*
X6837337Y-15475015D01*
X6837337Y-15475015D02*
X6818289Y-15494063D01*
X6818289Y-15494063D02*
X6799242Y-15503587D01*
X6989718Y-15465491D02*
X6999242Y-15455968D01*
X6999242Y-15455968D02*
X7018289Y-15446444D01*
X7018289Y-15446444D02*
X7065908Y-15446444D01*
X7065908Y-15446444D02*
X7084956Y-15455968D01*
X7084956Y-15455968D02*
X7094480Y-15465491D01*
X7094480Y-15465491D02*
X7104004Y-15484539D01*
X7104004Y-15484539D02*
X7104004Y-15503587D01*
X7104004Y-15503587D02*
X7094480Y-15532158D01*
X7094480Y-15532158D02*
X6980194Y-15646444D01*
X6980194Y-15646444D02*
X7104004Y-15646444D01*
X7180194Y-15446444D02*
X7180194Y-15484539D01*
X7256385Y-15446444D02*
X7256385Y-15484539D01*
X7551623Y-15722634D02*
X7542099Y-15713110D01*
X7542099Y-15713110D02*
X7523051Y-15684539D01*
X7523051Y-15684539D02*
X7513528Y-15665491D01*
X7513528Y-15665491D02*
X7504004Y-15636920D01*
X7504004Y-15636920D02*
X7494480Y-15589301D01*
X7494480Y-15589301D02*
X7494480Y-15551206D01*
X7494480Y-15551206D02*
X7504004Y-15503587D01*
X7504004Y-15503587D02*
X7513528Y-15475015D01*
X7513528Y-15475015D02*
X7523051Y-15455968D01*
X7523051Y-15455968D02*
X7542099Y-15427396D01*
X7542099Y-15427396D02*
X7551623Y-15417872D01*
X7732575Y-15646444D02*
X7618289Y-15646444D01*
X7675432Y-15646444D02*
X7675432Y-15446444D01*
X7675432Y-15446444D02*
X7656385Y-15475015D01*
X7656385Y-15475015D02*
X7637337Y-15494063D01*
X7637337Y-15494063D02*
X7618289Y-15503587D01*
X7856385Y-15446444D02*
X7875432Y-15446444D01*
X7875432Y-15446444D02*
X7894480Y-15455968D01*
X7894480Y-15455968D02*
X7904004Y-15465491D01*
X7904004Y-15465491D02*
X7913528Y-15484539D01*
X7913528Y-15484539D02*
X7923051Y-15522634D01*
X7923051Y-15522634D02*
X7923051Y-15570253D01*
X7923051Y-15570253D02*
X7913528Y-15608348D01*
X7913528Y-15608348D02*
X7904004Y-15627396D01*
X7904004Y-15627396D02*
X7894480Y-15636920D01*
X7894480Y-15636920D02*
X7875432Y-15646444D01*
X7875432Y-15646444D02*
X7856385Y-15646444D01*
X7856385Y-15646444D02*
X7837337Y-15636920D01*
X7837337Y-15636920D02*
X7827813Y-15627396D01*
X7827813Y-15627396D02*
X7818289Y-15608348D01*
X7818289Y-15608348D02*
X7808766Y-15570253D01*
X7808766Y-15570253D02*
X7808766Y-15522634D01*
X7808766Y-15522634D02*
X7818289Y-15484539D01*
X7818289Y-15484539D02*
X7827813Y-15465491D01*
X7827813Y-15465491D02*
X7837337Y-15455968D01*
X7837337Y-15455968D02*
X7856385Y-15446444D01*
X8161147Y-15646444D02*
X8161147Y-15446444D01*
X8246861Y-15646444D02*
X8246861Y-15541682D01*
X8246861Y-15541682D02*
X8237337Y-15522634D01*
X8237337Y-15522634D02*
X8218290Y-15513110D01*
X8218290Y-15513110D02*
X8189718Y-15513110D01*
X8189718Y-15513110D02*
X8170670Y-15522634D01*
X8170670Y-15522634D02*
X8161147Y-15532158D01*
X8370670Y-15646444D02*
X8351623Y-15636920D01*
X8351623Y-15636920D02*
X8342099Y-15627396D01*
X8342099Y-15627396D02*
X8332575Y-15608348D01*
X8332575Y-15608348D02*
X8332575Y-15551206D01*
X8332575Y-15551206D02*
X8342099Y-15532158D01*
X8342099Y-15532158D02*
X8351623Y-15522634D01*
X8351623Y-15522634D02*
X8370670Y-15513110D01*
X8370670Y-15513110D02*
X8399242Y-15513110D01*
X8399242Y-15513110D02*
X8418290Y-15522634D01*
X8418290Y-15522634D02*
X8427813Y-15532158D01*
X8427813Y-15532158D02*
X8437337Y-15551206D01*
X8437337Y-15551206D02*
X8437337Y-15608348D01*
X8437337Y-15608348D02*
X8427813Y-15627396D01*
X8427813Y-15627396D02*
X8418290Y-15636920D01*
X8418290Y-15636920D02*
X8399242Y-15646444D01*
X8399242Y-15646444D02*
X8370670Y-15646444D01*
X8551623Y-15646444D02*
X8532575Y-15636920D01*
X8532575Y-15636920D02*
X8523052Y-15617872D01*
X8523052Y-15617872D02*
X8523052Y-15446444D01*
X8704004Y-15636920D02*
X8684956Y-15646444D01*
X8684956Y-15646444D02*
X8646861Y-15646444D01*
X8646861Y-15646444D02*
X8627813Y-15636920D01*
X8627813Y-15636920D02*
X8618290Y-15617872D01*
X8618290Y-15617872D02*
X8618290Y-15541682D01*
X8618290Y-15541682D02*
X8627813Y-15522634D01*
X8627813Y-15522634D02*
X8646861Y-15513110D01*
X8646861Y-15513110D02*
X8684956Y-15513110D01*
X8684956Y-15513110D02*
X8704004Y-15522634D01*
X8704004Y-15522634D02*
X8713528Y-15541682D01*
X8713528Y-15541682D02*
X8713528Y-15560729D01*
X8713528Y-15560729D02*
X8618290Y-15579777D01*
X8789718Y-15636920D02*
X8808766Y-15646444D01*
X8808766Y-15646444D02*
X8846861Y-15646444D01*
X8846861Y-15646444D02*
X8865909Y-15636920D01*
X8865909Y-15636920D02*
X8875433Y-15617872D01*
X8875433Y-15617872D02*
X8875433Y-15608348D01*
X8875433Y-15608348D02*
X8865909Y-15589301D01*
X8865909Y-15589301D02*
X8846861Y-15579777D01*
X8846861Y-15579777D02*
X8818290Y-15579777D01*
X8818290Y-15579777D02*
X8799242Y-15570253D01*
X8799242Y-15570253D02*
X8789718Y-15551206D01*
X8789718Y-15551206D02*
X8789718Y-15541682D01*
X8789718Y-15541682D02*
X8799242Y-15522634D01*
X8799242Y-15522634D02*
X8818290Y-15513110D01*
X8818290Y-15513110D02*
X8846861Y-15513110D01*
X8846861Y-15513110D02*
X8865909Y-15522634D01*
X8942099Y-15722634D02*
X8951623Y-15713110D01*
X8951623Y-15713110D02*
X8970671Y-15684539D01*
X8970671Y-15684539D02*
X8980194Y-15665491D01*
X8980194Y-15665491D02*
X8989718Y-15636920D01*
X8989718Y-15636920D02*
X8999242Y-15589301D01*
X8999242Y-15589301D02*
X8999242Y-15551206D01*
X8999242Y-15551206D02*
X8989718Y-15503587D01*
X8989718Y-15503587D02*
X8980194Y-15475015D01*
X8980194Y-15475015D02*
X8970671Y-15455968D01*
X8970671Y-15455968D02*
X8951623Y-15427396D01*
X8951623Y-15427396D02*
X8942099Y-15417872D01*
D16*
X3836560Y-15748960D02*
X3976560Y-15888960D01*
X3976560Y-15748960D02*
X3836560Y-15888960D01*
X3906560Y-15888960D02*
X3976560Y-15818960D01*
X3906560Y-15748960D01*
X3836560Y-15818960D01*
X3906560Y-15888960D01*
D12*
X4342099Y-15910444D02*
X4227813Y-15910444D01*
X4284956Y-15910444D02*
X4284956Y-15710444D01*
X4284956Y-15710444D02*
X4265908Y-15739015D01*
X4265908Y-15739015D02*
X4246861Y-15758063D01*
X4246861Y-15758063D02*
X4227813Y-15767587D01*
X4427813Y-15891396D02*
X4437337Y-15900920D01*
X4437337Y-15900920D02*
X4427813Y-15910444D01*
X4427813Y-15910444D02*
X4418289Y-15900920D01*
X4418289Y-15900920D02*
X4427813Y-15891396D01*
X4427813Y-15891396D02*
X4427813Y-15910444D01*
X4608765Y-15777110D02*
X4608765Y-15910444D01*
X4561146Y-15700920D02*
X4513527Y-15843777D01*
X4513527Y-15843777D02*
X4637337Y-15843777D01*
X4751623Y-15710444D02*
X4770670Y-15710444D01*
X4770670Y-15710444D02*
X4789718Y-15719968D01*
X4789718Y-15719968D02*
X4799242Y-15729491D01*
X4799242Y-15729491D02*
X4808765Y-15748539D01*
X4808765Y-15748539D02*
X4818289Y-15786634D01*
X4818289Y-15786634D02*
X4818289Y-15834253D01*
X4818289Y-15834253D02*
X4808765Y-15872348D01*
X4808765Y-15872348D02*
X4799242Y-15891396D01*
X4799242Y-15891396D02*
X4789718Y-15900920D01*
X4789718Y-15900920D02*
X4770670Y-15910444D01*
X4770670Y-15910444D02*
X4751623Y-15910444D01*
X4751623Y-15910444D02*
X4732575Y-15900920D01*
X4732575Y-15900920D02*
X4723051Y-15891396D01*
X4723051Y-15891396D02*
X4713527Y-15872348D01*
X4713527Y-15872348D02*
X4704004Y-15834253D01*
X4704004Y-15834253D02*
X4704004Y-15786634D01*
X4704004Y-15786634D02*
X4713527Y-15748539D01*
X4713527Y-15748539D02*
X4723051Y-15729491D01*
X4723051Y-15729491D02*
X4732575Y-15719968D01*
X4732575Y-15719968D02*
X4751623Y-15710444D01*
X4942099Y-15710444D02*
X4961146Y-15710444D01*
X4961146Y-15710444D02*
X4980194Y-15719968D01*
X4980194Y-15719968D02*
X4989718Y-15729491D01*
X4989718Y-15729491D02*
X4999242Y-15748539D01*
X4999242Y-15748539D02*
X5008765Y-15786634D01*
X5008765Y-15786634D02*
X5008765Y-15834253D01*
X5008765Y-15834253D02*
X4999242Y-15872348D01*
X4999242Y-15872348D02*
X4989718Y-15891396D01*
X4989718Y-15891396D02*
X4980194Y-15900920D01*
X4980194Y-15900920D02*
X4961146Y-15910444D01*
X4961146Y-15910444D02*
X4942099Y-15910444D01*
X4942099Y-15910444D02*
X4923051Y-15900920D01*
X4923051Y-15900920D02*
X4913527Y-15891396D01*
X4913527Y-15891396D02*
X4904004Y-15872348D01*
X4904004Y-15872348D02*
X4894480Y-15834253D01*
X4894480Y-15834253D02*
X4894480Y-15786634D01*
X4894480Y-15786634D02*
X4904004Y-15748539D01*
X4904004Y-15748539D02*
X4913527Y-15729491D01*
X4913527Y-15729491D02*
X4923051Y-15719968D01*
X4923051Y-15719968D02*
X4942099Y-15710444D01*
X5094480Y-15910444D02*
X5094480Y-15777110D01*
X5094480Y-15796158D02*
X5104004Y-15786634D01*
X5104004Y-15786634D02*
X5123051Y-15777110D01*
X5123051Y-15777110D02*
X5151623Y-15777110D01*
X5151623Y-15777110D02*
X5170670Y-15786634D01*
X5170670Y-15786634D02*
X5180194Y-15805682D01*
X5180194Y-15805682D02*
X5180194Y-15910444D01*
X5180194Y-15805682D02*
X5189718Y-15786634D01*
X5189718Y-15786634D02*
X5208765Y-15777110D01*
X5208765Y-15777110D02*
X5237337Y-15777110D01*
X5237337Y-15777110D02*
X5256385Y-15786634D01*
X5256385Y-15786634D02*
X5265908Y-15805682D01*
X5265908Y-15805682D02*
X5265908Y-15910444D01*
X5361146Y-15910444D02*
X5361146Y-15777110D01*
X5361146Y-15796158D02*
X5370670Y-15786634D01*
X5370670Y-15786634D02*
X5389718Y-15777110D01*
X5389718Y-15777110D02*
X5418289Y-15777110D01*
X5418289Y-15777110D02*
X5437337Y-15786634D01*
X5437337Y-15786634D02*
X5446861Y-15805682D01*
X5446861Y-15805682D02*
X5446861Y-15910444D01*
X5446861Y-15805682D02*
X5456385Y-15786634D01*
X5456385Y-15786634D02*
X5475432Y-15777110D01*
X5475432Y-15777110D02*
X5504004Y-15777110D01*
X5504004Y-15777110D02*
X5523051Y-15786634D01*
X5523051Y-15786634D02*
X5532575Y-15805682D01*
X5532575Y-15805682D02*
X5532575Y-15910444D01*
X5923051Y-15700920D02*
X5751623Y-15958063D01*
X6180194Y-15710444D02*
X6199242Y-15710444D01*
X6199242Y-15710444D02*
X6218289Y-15719968D01*
X6218289Y-15719968D02*
X6227813Y-15729491D01*
X6227813Y-15729491D02*
X6237337Y-15748539D01*
X6237337Y-15748539D02*
X6246861Y-15786634D01*
X6246861Y-15786634D02*
X6246861Y-15834253D01*
X6246861Y-15834253D02*
X6237337Y-15872348D01*
X6237337Y-15872348D02*
X6227813Y-15891396D01*
X6227813Y-15891396D02*
X6218289Y-15900920D01*
X6218289Y-15900920D02*
X6199242Y-15910444D01*
X6199242Y-15910444D02*
X6180194Y-15910444D01*
X6180194Y-15910444D02*
X6161146Y-15900920D01*
X6161146Y-15900920D02*
X6151623Y-15891396D01*
X6151623Y-15891396D02*
X6142099Y-15872348D01*
X6142099Y-15872348D02*
X6132575Y-15834253D01*
X6132575Y-15834253D02*
X6132575Y-15786634D01*
X6132575Y-15786634D02*
X6142099Y-15748539D01*
X6142099Y-15748539D02*
X6151623Y-15729491D01*
X6151623Y-15729491D02*
X6161146Y-15719968D01*
X6161146Y-15719968D02*
X6180194Y-15710444D01*
X6332575Y-15891396D02*
X6342099Y-15900920D01*
X6342099Y-15900920D02*
X6332575Y-15910444D01*
X6332575Y-15910444D02*
X6323051Y-15900920D01*
X6323051Y-15900920D02*
X6332575Y-15891396D01*
X6332575Y-15891396D02*
X6332575Y-15910444D01*
X6465908Y-15710444D02*
X6484956Y-15710444D01*
X6484956Y-15710444D02*
X6504004Y-15719968D01*
X6504004Y-15719968D02*
X6513527Y-15729491D01*
X6513527Y-15729491D02*
X6523051Y-15748539D01*
X6523051Y-15748539D02*
X6532575Y-15786634D01*
X6532575Y-15786634D02*
X6532575Y-15834253D01*
X6532575Y-15834253D02*
X6523051Y-15872348D01*
X6523051Y-15872348D02*
X6513527Y-15891396D01*
X6513527Y-15891396D02*
X6504004Y-15900920D01*
X6504004Y-15900920D02*
X6484956Y-15910444D01*
X6484956Y-15910444D02*
X6465908Y-15910444D01*
X6465908Y-15910444D02*
X6446861Y-15900920D01*
X6446861Y-15900920D02*
X6437337Y-15891396D01*
X6437337Y-15891396D02*
X6427813Y-15872348D01*
X6427813Y-15872348D02*
X6418289Y-15834253D01*
X6418289Y-15834253D02*
X6418289Y-15786634D01*
X6418289Y-15786634D02*
X6427813Y-15748539D01*
X6427813Y-15748539D02*
X6437337Y-15729491D01*
X6437337Y-15729491D02*
X6446861Y-15719968D01*
X6446861Y-15719968D02*
X6465908Y-15710444D01*
X6713527Y-15710444D02*
X6618289Y-15710444D01*
X6618289Y-15710444D02*
X6608766Y-15805682D01*
X6608766Y-15805682D02*
X6618289Y-15796158D01*
X6618289Y-15796158D02*
X6637337Y-15786634D01*
X6637337Y-15786634D02*
X6684956Y-15786634D01*
X6684956Y-15786634D02*
X6704004Y-15796158D01*
X6704004Y-15796158D02*
X6713527Y-15805682D01*
X6713527Y-15805682D02*
X6723051Y-15824729D01*
X6723051Y-15824729D02*
X6723051Y-15872348D01*
X6723051Y-15872348D02*
X6713527Y-15891396D01*
X6713527Y-15891396D02*
X6704004Y-15900920D01*
X6704004Y-15900920D02*
X6684956Y-15910444D01*
X6684956Y-15910444D02*
X6637337Y-15910444D01*
X6637337Y-15910444D02*
X6618289Y-15900920D01*
X6618289Y-15900920D02*
X6608766Y-15891396D01*
X6904004Y-15710444D02*
X6808766Y-15710444D01*
X6808766Y-15710444D02*
X6799242Y-15805682D01*
X6799242Y-15805682D02*
X6808766Y-15796158D01*
X6808766Y-15796158D02*
X6827813Y-15786634D01*
X6827813Y-15786634D02*
X6875432Y-15786634D01*
X6875432Y-15786634D02*
X6894480Y-15796158D01*
X6894480Y-15796158D02*
X6904004Y-15805682D01*
X6904004Y-15805682D02*
X6913527Y-15824729D01*
X6913527Y-15824729D02*
X6913527Y-15872348D01*
X6913527Y-15872348D02*
X6904004Y-15891396D01*
X6904004Y-15891396D02*
X6894480Y-15900920D01*
X6894480Y-15900920D02*
X6875432Y-15910444D01*
X6875432Y-15910444D02*
X6827813Y-15910444D01*
X6827813Y-15910444D02*
X6808766Y-15900920D01*
X6808766Y-15900920D02*
X6799242Y-15891396D01*
X7104004Y-15910444D02*
X6989718Y-15910444D01*
X7046861Y-15910444D02*
X7046861Y-15710444D01*
X7046861Y-15710444D02*
X7027813Y-15739015D01*
X7027813Y-15739015D02*
X7008766Y-15758063D01*
X7008766Y-15758063D02*
X6989718Y-15767587D01*
X7180194Y-15710444D02*
X7180194Y-15748539D01*
X7256385Y-15710444D02*
X7256385Y-15748539D01*
X7551623Y-15986634D02*
X7542099Y-15977110D01*
X7542099Y-15977110D02*
X7523051Y-15948539D01*
X7523051Y-15948539D02*
X7513528Y-15929491D01*
X7513528Y-15929491D02*
X7504004Y-15900920D01*
X7504004Y-15900920D02*
X7494480Y-15853301D01*
X7494480Y-15853301D02*
X7494480Y-15815206D01*
X7494480Y-15815206D02*
X7504004Y-15767587D01*
X7504004Y-15767587D02*
X7513528Y-15739015D01*
X7513528Y-15739015D02*
X7523051Y-15719968D01*
X7523051Y-15719968D02*
X7542099Y-15691396D01*
X7542099Y-15691396D02*
X7551623Y-15681872D01*
X7732575Y-15910444D02*
X7618289Y-15910444D01*
X7675432Y-15910444D02*
X7675432Y-15710444D01*
X7675432Y-15710444D02*
X7656385Y-15739015D01*
X7656385Y-15739015D02*
X7637337Y-15758063D01*
X7637337Y-15758063D02*
X7618289Y-15767587D01*
X7904004Y-15777110D02*
X7904004Y-15910444D01*
X7856385Y-15700920D02*
X7808766Y-15843777D01*
X7808766Y-15843777D02*
X7932575Y-15843777D01*
X8161147Y-15910444D02*
X8161147Y-15710444D01*
X8246861Y-15910444D02*
X8246861Y-15805682D01*
X8246861Y-15805682D02*
X8237337Y-15786634D01*
X8237337Y-15786634D02*
X8218290Y-15777110D01*
X8218290Y-15777110D02*
X8189718Y-15777110D01*
X8189718Y-15777110D02*
X8170670Y-15786634D01*
X8170670Y-15786634D02*
X8161147Y-15796158D01*
X8370670Y-15910444D02*
X8351623Y-15900920D01*
X8351623Y-15900920D02*
X8342099Y-15891396D01*
X8342099Y-15891396D02*
X8332575Y-15872348D01*
X8332575Y-15872348D02*
X8332575Y-15815206D01*
X8332575Y-15815206D02*
X8342099Y-15796158D01*
X8342099Y-15796158D02*
X8351623Y-15786634D01*
X8351623Y-15786634D02*
X8370670Y-15777110D01*
X8370670Y-15777110D02*
X8399242Y-15777110D01*
X8399242Y-15777110D02*
X8418290Y-15786634D01*
X8418290Y-15786634D02*
X8427813Y-15796158D01*
X8427813Y-15796158D02*
X8437337Y-15815206D01*
X8437337Y-15815206D02*
X8437337Y-15872348D01*
X8437337Y-15872348D02*
X8427813Y-15891396D01*
X8427813Y-15891396D02*
X8418290Y-15900920D01*
X8418290Y-15900920D02*
X8399242Y-15910444D01*
X8399242Y-15910444D02*
X8370670Y-15910444D01*
X8551623Y-15910444D02*
X8532575Y-15900920D01*
X8532575Y-15900920D02*
X8523052Y-15881872D01*
X8523052Y-15881872D02*
X8523052Y-15710444D01*
X8704004Y-15900920D02*
X8684956Y-15910444D01*
X8684956Y-15910444D02*
X8646861Y-15910444D01*
X8646861Y-15910444D02*
X8627813Y-15900920D01*
X8627813Y-15900920D02*
X8618290Y-15881872D01*
X8618290Y-15881872D02*
X8618290Y-15805682D01*
X8618290Y-15805682D02*
X8627813Y-15786634D01*
X8627813Y-15786634D02*
X8646861Y-15777110D01*
X8646861Y-15777110D02*
X8684956Y-15777110D01*
X8684956Y-15777110D02*
X8704004Y-15786634D01*
X8704004Y-15786634D02*
X8713528Y-15805682D01*
X8713528Y-15805682D02*
X8713528Y-15824729D01*
X8713528Y-15824729D02*
X8618290Y-15843777D01*
X8789718Y-15900920D02*
X8808766Y-15910444D01*
X8808766Y-15910444D02*
X8846861Y-15910444D01*
X8846861Y-15910444D02*
X8865909Y-15900920D01*
X8865909Y-15900920D02*
X8875433Y-15881872D01*
X8875433Y-15881872D02*
X8875433Y-15872348D01*
X8875433Y-15872348D02*
X8865909Y-15853301D01*
X8865909Y-15853301D02*
X8846861Y-15843777D01*
X8846861Y-15843777D02*
X8818290Y-15843777D01*
X8818290Y-15843777D02*
X8799242Y-15834253D01*
X8799242Y-15834253D02*
X8789718Y-15815206D01*
X8789718Y-15815206D02*
X8789718Y-15805682D01*
X8789718Y-15805682D02*
X8799242Y-15786634D01*
X8799242Y-15786634D02*
X8818290Y-15777110D01*
X8818290Y-15777110D02*
X8846861Y-15777110D01*
X8846861Y-15777110D02*
X8865909Y-15786634D01*
X8942099Y-15986634D02*
X8951623Y-15977110D01*
X8951623Y-15977110D02*
X8970671Y-15948539D01*
X8970671Y-15948539D02*
X8980194Y-15929491D01*
X8980194Y-15929491D02*
X8989718Y-15900920D01*
X8989718Y-15900920D02*
X8999242Y-15853301D01*
X8999242Y-15853301D02*
X8999242Y-15815206D01*
X8999242Y-15815206D02*
X8989718Y-15767587D01*
X8989718Y-15767587D02*
X8980194Y-15739015D01*
X8980194Y-15739015D02*
X8970671Y-15719968D01*
X8970671Y-15719968D02*
X8951623Y-15691396D01*
X8951623Y-15691396D02*
X8942099Y-15681872D01*
D17*
X3896560Y-16002960D02*
X3896560Y-16162960D01*
X3816560Y-16082960D02*
X3976560Y-16082960D01*
X3976560Y-16082960D02*
G75*
G02*
X3816560Y-16082960I-80000J0D01*
G01*
X3816560Y-16082960D02*
G75*
G02*
X3976560Y-16082960I80000J0D01*
G01*
D12*
X4342099Y-16174444D02*
X4227813Y-16174444D01*
X4284956Y-16174444D02*
X4284956Y-15974444D01*
X4284956Y-15974444D02*
X4265908Y-16003015D01*
X4265908Y-16003015D02*
X4246861Y-16022063D01*
X4246861Y-16022063D02*
X4227813Y-16031587D01*
X4427813Y-16155396D02*
X4437337Y-16164920D01*
X4437337Y-16164920D02*
X4427813Y-16174444D01*
X4427813Y-16174444D02*
X4418289Y-16164920D01*
X4418289Y-16164920D02*
X4427813Y-16155396D01*
X4427813Y-16155396D02*
X4427813Y-16174444D01*
X4608765Y-15974444D02*
X4570670Y-15974444D01*
X4570670Y-15974444D02*
X4551623Y-15983968D01*
X4551623Y-15983968D02*
X4542099Y-15993491D01*
X4542099Y-15993491D02*
X4523051Y-16022063D01*
X4523051Y-16022063D02*
X4513527Y-16060158D01*
X4513527Y-16060158D02*
X4513527Y-16136348D01*
X4513527Y-16136348D02*
X4523051Y-16155396D01*
X4523051Y-16155396D02*
X4532575Y-16164920D01*
X4532575Y-16164920D02*
X4551623Y-16174444D01*
X4551623Y-16174444D02*
X4589718Y-16174444D01*
X4589718Y-16174444D02*
X4608765Y-16164920D01*
X4608765Y-16164920D02*
X4618289Y-16155396D01*
X4618289Y-16155396D02*
X4627813Y-16136348D01*
X4627813Y-16136348D02*
X4627813Y-16088729D01*
X4627813Y-16088729D02*
X4618289Y-16069682D01*
X4618289Y-16069682D02*
X4608765Y-16060158D01*
X4608765Y-16060158D02*
X4589718Y-16050634D01*
X4589718Y-16050634D02*
X4551623Y-16050634D01*
X4551623Y-16050634D02*
X4532575Y-16060158D01*
X4532575Y-16060158D02*
X4523051Y-16069682D01*
X4523051Y-16069682D02*
X4513527Y-16088729D01*
X4751623Y-15974444D02*
X4770670Y-15974444D01*
X4770670Y-15974444D02*
X4789718Y-15983968D01*
X4789718Y-15983968D02*
X4799242Y-15993491D01*
X4799242Y-15993491D02*
X4808765Y-16012539D01*
X4808765Y-16012539D02*
X4818289Y-16050634D01*
X4818289Y-16050634D02*
X4818289Y-16098253D01*
X4818289Y-16098253D02*
X4808765Y-16136348D01*
X4808765Y-16136348D02*
X4799242Y-16155396D01*
X4799242Y-16155396D02*
X4789718Y-16164920D01*
X4789718Y-16164920D02*
X4770670Y-16174444D01*
X4770670Y-16174444D02*
X4751623Y-16174444D01*
X4751623Y-16174444D02*
X4732575Y-16164920D01*
X4732575Y-16164920D02*
X4723051Y-16155396D01*
X4723051Y-16155396D02*
X4713527Y-16136348D01*
X4713527Y-16136348D02*
X4704004Y-16098253D01*
X4704004Y-16098253D02*
X4704004Y-16050634D01*
X4704004Y-16050634D02*
X4713527Y-16012539D01*
X4713527Y-16012539D02*
X4723051Y-15993491D01*
X4723051Y-15993491D02*
X4732575Y-15983968D01*
X4732575Y-15983968D02*
X4751623Y-15974444D01*
X4942099Y-15974444D02*
X4961146Y-15974444D01*
X4961146Y-15974444D02*
X4980194Y-15983968D01*
X4980194Y-15983968D02*
X4989718Y-15993491D01*
X4989718Y-15993491D02*
X4999242Y-16012539D01*
X4999242Y-16012539D02*
X5008765Y-16050634D01*
X5008765Y-16050634D02*
X5008765Y-16098253D01*
X5008765Y-16098253D02*
X4999242Y-16136348D01*
X4999242Y-16136348D02*
X4989718Y-16155396D01*
X4989718Y-16155396D02*
X4980194Y-16164920D01*
X4980194Y-16164920D02*
X4961146Y-16174444D01*
X4961146Y-16174444D02*
X4942099Y-16174444D01*
X4942099Y-16174444D02*
X4923051Y-16164920D01*
X4923051Y-16164920D02*
X4913527Y-16155396D01*
X4913527Y-16155396D02*
X4904004Y-16136348D01*
X4904004Y-16136348D02*
X4894480Y-16098253D01*
X4894480Y-16098253D02*
X4894480Y-16050634D01*
X4894480Y-16050634D02*
X4904004Y-16012539D01*
X4904004Y-16012539D02*
X4913527Y-15993491D01*
X4913527Y-15993491D02*
X4923051Y-15983968D01*
X4923051Y-15983968D02*
X4942099Y-15974444D01*
X5094480Y-16174444D02*
X5094480Y-16041110D01*
X5094480Y-16060158D02*
X5104004Y-16050634D01*
X5104004Y-16050634D02*
X5123051Y-16041110D01*
X5123051Y-16041110D02*
X5151623Y-16041110D01*
X5151623Y-16041110D02*
X5170670Y-16050634D01*
X5170670Y-16050634D02*
X5180194Y-16069682D01*
X5180194Y-16069682D02*
X5180194Y-16174444D01*
X5180194Y-16069682D02*
X5189718Y-16050634D01*
X5189718Y-16050634D02*
X5208765Y-16041110D01*
X5208765Y-16041110D02*
X5237337Y-16041110D01*
X5237337Y-16041110D02*
X5256385Y-16050634D01*
X5256385Y-16050634D02*
X5265908Y-16069682D01*
X5265908Y-16069682D02*
X5265908Y-16174444D01*
X5361146Y-16174444D02*
X5361146Y-16041110D01*
X5361146Y-16060158D02*
X5370670Y-16050634D01*
X5370670Y-16050634D02*
X5389718Y-16041110D01*
X5389718Y-16041110D02*
X5418289Y-16041110D01*
X5418289Y-16041110D02*
X5437337Y-16050634D01*
X5437337Y-16050634D02*
X5446861Y-16069682D01*
X5446861Y-16069682D02*
X5446861Y-16174444D01*
X5446861Y-16069682D02*
X5456385Y-16050634D01*
X5456385Y-16050634D02*
X5475432Y-16041110D01*
X5475432Y-16041110D02*
X5504004Y-16041110D01*
X5504004Y-16041110D02*
X5523051Y-16050634D01*
X5523051Y-16050634D02*
X5532575Y-16069682D01*
X5532575Y-16069682D02*
X5532575Y-16174444D01*
X5923051Y-15964920D02*
X5751623Y-16222063D01*
X6180194Y-15974444D02*
X6199242Y-15974444D01*
X6199242Y-15974444D02*
X6218289Y-15983968D01*
X6218289Y-15983968D02*
X6227813Y-15993491D01*
X6227813Y-15993491D02*
X6237337Y-16012539D01*
X6237337Y-16012539D02*
X6246861Y-16050634D01*
X6246861Y-16050634D02*
X6246861Y-16098253D01*
X6246861Y-16098253D02*
X6237337Y-16136348D01*
X6237337Y-16136348D02*
X6227813Y-16155396D01*
X6227813Y-16155396D02*
X6218289Y-16164920D01*
X6218289Y-16164920D02*
X6199242Y-16174444D01*
X6199242Y-16174444D02*
X6180194Y-16174444D01*
X6180194Y-16174444D02*
X6161146Y-16164920D01*
X6161146Y-16164920D02*
X6151623Y-16155396D01*
X6151623Y-16155396D02*
X6142099Y-16136348D01*
X6142099Y-16136348D02*
X6132575Y-16098253D01*
X6132575Y-16098253D02*
X6132575Y-16050634D01*
X6132575Y-16050634D02*
X6142099Y-16012539D01*
X6142099Y-16012539D02*
X6151623Y-15993491D01*
X6151623Y-15993491D02*
X6161146Y-15983968D01*
X6161146Y-15983968D02*
X6180194Y-15974444D01*
X6332575Y-16155396D02*
X6342099Y-16164920D01*
X6342099Y-16164920D02*
X6332575Y-16174444D01*
X6332575Y-16174444D02*
X6323051Y-16164920D01*
X6323051Y-16164920D02*
X6332575Y-16155396D01*
X6332575Y-16155396D02*
X6332575Y-16174444D01*
X6465908Y-15974444D02*
X6484956Y-15974444D01*
X6484956Y-15974444D02*
X6504004Y-15983968D01*
X6504004Y-15983968D02*
X6513527Y-15993491D01*
X6513527Y-15993491D02*
X6523051Y-16012539D01*
X6523051Y-16012539D02*
X6532575Y-16050634D01*
X6532575Y-16050634D02*
X6532575Y-16098253D01*
X6532575Y-16098253D02*
X6523051Y-16136348D01*
X6523051Y-16136348D02*
X6513527Y-16155396D01*
X6513527Y-16155396D02*
X6504004Y-16164920D01*
X6504004Y-16164920D02*
X6484956Y-16174444D01*
X6484956Y-16174444D02*
X6465908Y-16174444D01*
X6465908Y-16174444D02*
X6446861Y-16164920D01*
X6446861Y-16164920D02*
X6437337Y-16155396D01*
X6437337Y-16155396D02*
X6427813Y-16136348D01*
X6427813Y-16136348D02*
X6418289Y-16098253D01*
X6418289Y-16098253D02*
X6418289Y-16050634D01*
X6418289Y-16050634D02*
X6427813Y-16012539D01*
X6427813Y-16012539D02*
X6437337Y-15993491D01*
X6437337Y-15993491D02*
X6446861Y-15983968D01*
X6446861Y-15983968D02*
X6465908Y-15974444D01*
X6704004Y-15974444D02*
X6665908Y-15974444D01*
X6665908Y-15974444D02*
X6646861Y-15983968D01*
X6646861Y-15983968D02*
X6637337Y-15993491D01*
X6637337Y-15993491D02*
X6618289Y-16022063D01*
X6618289Y-16022063D02*
X6608766Y-16060158D01*
X6608766Y-16060158D02*
X6608766Y-16136348D01*
X6608766Y-16136348D02*
X6618289Y-16155396D01*
X6618289Y-16155396D02*
X6627813Y-16164920D01*
X6627813Y-16164920D02*
X6646861Y-16174444D01*
X6646861Y-16174444D02*
X6684956Y-16174444D01*
X6684956Y-16174444D02*
X6704004Y-16164920D01*
X6704004Y-16164920D02*
X6713527Y-16155396D01*
X6713527Y-16155396D02*
X6723051Y-16136348D01*
X6723051Y-16136348D02*
X6723051Y-16088729D01*
X6723051Y-16088729D02*
X6713527Y-16069682D01*
X6713527Y-16069682D02*
X6704004Y-16060158D01*
X6704004Y-16060158D02*
X6684956Y-16050634D01*
X6684956Y-16050634D02*
X6646861Y-16050634D01*
X6646861Y-16050634D02*
X6627813Y-16060158D01*
X6627813Y-16060158D02*
X6618289Y-16069682D01*
X6618289Y-16069682D02*
X6608766Y-16088729D01*
X6789718Y-15974444D02*
X6913527Y-15974444D01*
X6913527Y-15974444D02*
X6846861Y-16050634D01*
X6846861Y-16050634D02*
X6875432Y-16050634D01*
X6875432Y-16050634D02*
X6894480Y-16060158D01*
X6894480Y-16060158D02*
X6904004Y-16069682D01*
X6904004Y-16069682D02*
X6913527Y-16088729D01*
X6913527Y-16088729D02*
X6913527Y-16136348D01*
X6913527Y-16136348D02*
X6904004Y-16155396D01*
X6904004Y-16155396D02*
X6894480Y-16164920D01*
X6894480Y-16164920D02*
X6875432Y-16174444D01*
X6875432Y-16174444D02*
X6818289Y-16174444D01*
X6818289Y-16174444D02*
X6799242Y-16164920D01*
X6799242Y-16164920D02*
X6789718Y-16155396D01*
X7037337Y-15974444D02*
X7056385Y-15974444D01*
X7056385Y-15974444D02*
X7075432Y-15983968D01*
X7075432Y-15983968D02*
X7084956Y-15993491D01*
X7084956Y-15993491D02*
X7094480Y-16012539D01*
X7094480Y-16012539D02*
X7104004Y-16050634D01*
X7104004Y-16050634D02*
X7104004Y-16098253D01*
X7104004Y-16098253D02*
X7094480Y-16136348D01*
X7094480Y-16136348D02*
X7084956Y-16155396D01*
X7084956Y-16155396D02*
X7075432Y-16164920D01*
X7075432Y-16164920D02*
X7056385Y-16174444D01*
X7056385Y-16174444D02*
X7037337Y-16174444D01*
X7037337Y-16174444D02*
X7018289Y-16164920D01*
X7018289Y-16164920D02*
X7008766Y-16155396D01*
X7008766Y-16155396D02*
X6999242Y-16136348D01*
X6999242Y-16136348D02*
X6989718Y-16098253D01*
X6989718Y-16098253D02*
X6989718Y-16050634D01*
X6989718Y-16050634D02*
X6999242Y-16012539D01*
X6999242Y-16012539D02*
X7008766Y-15993491D01*
X7008766Y-15993491D02*
X7018289Y-15983968D01*
X7018289Y-15983968D02*
X7037337Y-15974444D01*
X7180194Y-15974444D02*
X7180194Y-16012539D01*
X7256385Y-15974444D02*
X7256385Y-16012539D01*
X7551623Y-16250634D02*
X7542099Y-16241110D01*
X7542099Y-16241110D02*
X7523051Y-16212539D01*
X7523051Y-16212539D02*
X7513528Y-16193491D01*
X7513528Y-16193491D02*
X7504004Y-16164920D01*
X7504004Y-16164920D02*
X7494480Y-16117301D01*
X7494480Y-16117301D02*
X7494480Y-16079206D01*
X7494480Y-16079206D02*
X7504004Y-16031587D01*
X7504004Y-16031587D02*
X7513528Y-16003015D01*
X7513528Y-16003015D02*
X7523051Y-15983968D01*
X7523051Y-15983968D02*
X7542099Y-15955396D01*
X7542099Y-15955396D02*
X7551623Y-15945872D01*
X7713528Y-16041110D02*
X7713528Y-16174444D01*
X7665908Y-15964920D02*
X7618289Y-16107777D01*
X7618289Y-16107777D02*
X7742099Y-16107777D01*
X7970670Y-16174444D02*
X7970670Y-15974444D01*
X8056385Y-16174444D02*
X8056385Y-16069682D01*
X8056385Y-16069682D02*
X8046861Y-16050634D01*
X8046861Y-16050634D02*
X8027813Y-16041110D01*
X8027813Y-16041110D02*
X7999242Y-16041110D01*
X7999242Y-16041110D02*
X7980194Y-16050634D01*
X7980194Y-16050634D02*
X7970670Y-16060158D01*
X8180194Y-16174444D02*
X8161147Y-16164920D01*
X8161147Y-16164920D02*
X8151623Y-16155396D01*
X8151623Y-16155396D02*
X8142099Y-16136348D01*
X8142099Y-16136348D02*
X8142099Y-16079206D01*
X8142099Y-16079206D02*
X8151623Y-16060158D01*
X8151623Y-16060158D02*
X8161147Y-16050634D01*
X8161147Y-16050634D02*
X8180194Y-16041110D01*
X8180194Y-16041110D02*
X8208766Y-16041110D01*
X8208766Y-16041110D02*
X8227813Y-16050634D01*
X8227813Y-16050634D02*
X8237337Y-16060158D01*
X8237337Y-16060158D02*
X8246861Y-16079206D01*
X8246861Y-16079206D02*
X8246861Y-16136348D01*
X8246861Y-16136348D02*
X8237337Y-16155396D01*
X8237337Y-16155396D02*
X8227813Y-16164920D01*
X8227813Y-16164920D02*
X8208766Y-16174444D01*
X8208766Y-16174444D02*
X8180194Y-16174444D01*
X8361147Y-16174444D02*
X8342099Y-16164920D01*
X8342099Y-16164920D02*
X8332575Y-16145872D01*
X8332575Y-16145872D02*
X8332575Y-15974444D01*
X8513528Y-16164920D02*
X8494480Y-16174444D01*
X8494480Y-16174444D02*
X8456385Y-16174444D01*
X8456385Y-16174444D02*
X8437337Y-16164920D01*
X8437337Y-16164920D02*
X8427813Y-16145872D01*
X8427813Y-16145872D02*
X8427813Y-16069682D01*
X8427813Y-16069682D02*
X8437337Y-16050634D01*
X8437337Y-16050634D02*
X8456385Y-16041110D01*
X8456385Y-16041110D02*
X8494480Y-16041110D01*
X8494480Y-16041110D02*
X8513528Y-16050634D01*
X8513528Y-16050634D02*
X8523052Y-16069682D01*
X8523052Y-16069682D02*
X8523052Y-16088729D01*
X8523052Y-16088729D02*
X8427813Y-16107777D01*
X8599242Y-16164920D02*
X8618290Y-16174444D01*
X8618290Y-16174444D02*
X8656385Y-16174444D01*
X8656385Y-16174444D02*
X8675433Y-16164920D01*
X8675433Y-16164920D02*
X8684956Y-16145872D01*
X8684956Y-16145872D02*
X8684956Y-16136348D01*
X8684956Y-16136348D02*
X8675433Y-16117301D01*
X8675433Y-16117301D02*
X8656385Y-16107777D01*
X8656385Y-16107777D02*
X8627813Y-16107777D01*
X8627813Y-16107777D02*
X8608766Y-16098253D01*
X8608766Y-16098253D02*
X8599242Y-16079206D01*
X8599242Y-16079206D02*
X8599242Y-16069682D01*
X8599242Y-16069682D02*
X8608766Y-16050634D01*
X8608766Y-16050634D02*
X8627813Y-16041110D01*
X8627813Y-16041110D02*
X8656385Y-16041110D01*
X8656385Y-16041110D02*
X8675433Y-16050634D01*
X8751623Y-16250634D02*
X8761147Y-16241110D01*
X8761147Y-16241110D02*
X8780194Y-16212539D01*
X8780194Y-16212539D02*
X8789718Y-16193491D01*
X8789718Y-16193491D02*
X8799242Y-16164920D01*
X8799242Y-16164920D02*
X8808766Y-16117301D01*
X8808766Y-16117301D02*
X8808766Y-16079206D01*
X8808766Y-16079206D02*
X8799242Y-16031587D01*
X8799242Y-16031587D02*
X8789718Y-16003015D01*
X8789718Y-16003015D02*
X8780194Y-15983968D01*
X8780194Y-15983968D02*
X8761147Y-15955396D01*
X8761147Y-15955396D02*
X8751623Y-15945872D01*
M02*
